<?xml version="1.0" standalone="no"?>
<!DOCTYPE svg PUBLIC "-//W3C//DTD SVG 1.1//EN" "http://www.w3.org/Graphics/SVG/1.1/DTD/svg11.dtd">
<svg width="740px" height="1122px" version="1.1" xmlns="http://www.w3.org/2000/svg" xmlns:xlink="http://www.w3.org/1999/xlink" xml:space="preserve" style="fill-rule:evenodd;clip-rule:evenodd;stroke-miterlimit:1.41421;">
    <g>
        <g>
            <g>
                <path d="M615.574,623.054C615.574,801.533 505.394,948.399 371.498,948.399C237.601,948.399 127.422,801.533 127.422,623.054C127.422,444.575 237.601,297.709 371.498,297.709C505.394,297.709 615.574,444.575 615.574,623.054Z" style="fill:white;"/>
            </g>
            <g>
                <path d="M127.323,627.136C127.645,448.952 237.724,302.572 371.399,302.572C505.296,302.572 615.476,449.438 615.476,627.918C615.476,628.179 615.476,628.439 615.475,628.7L371.41,627.136Z" style="fill:rgb(117,170,219);"/>
            </g>
            <g>
                <path d="M381.286,207.309L373.953,12.2286C373.953,12.2286 373.953,8.39992 371.497,8.39992C369.04,8.39992 369.04,12.2286 369.04,12.2286" style="fill:rgb(252,191,73);stroke-width:0.66px;stroke:rgb(132,53,17);"/>
                <path d="M389.449,144.107C400.486,119.763 390.697,99.4741 401.695,78.3843C412.656,57.2919 405.663,38.8845 406.268,29.2618C406.911,19.6353 414.961,16.7893 412.92,14.4045C410.879,12.0234 402.489,16.744 399.314,29.738C396.139,42.7282 404.038,50.2571 390.886,76.0939C377.733,101.93 388.353,114.592 375.087,137.806" style="fill:rgb(252,191,73);stroke-width:0.66px;stroke:rgb(132,53,17);"/>
                <path d="M371.497,197.108L184.221,204.758C184.221,204.758 180.555,204.758 180.555,207.309C180.555,209.86 184.221,209.86 184.221,209.86" style="fill:rgb(252,191,73);stroke-width:0.66px;stroke:rgb(132,53,17);"/>
                <path d="M310.835,188.596C287.44,177.137 267.975,187.323 247.717,175.875C227.497,164.426 209.808,171.744 200.586,171.086C191.326,170.428 188.605,162.041 186.3,164.158C184.032,166.278 188.567,175.043 201.04,178.339C213.512,181.631 220.731,173.403 245.525,187.119C270.356,200.835 282.489,189.749 304.788,203.579" style="fill:rgb(252,191,73);stroke-width:0.66px;stroke:rgb(132,53,17);"/>
                <path d="M371.497,217.51L558.772,209.86C558.772,209.86 562.476,209.86 562.476,207.309C562.476,204.758 558.772,204.758 558.772,204.758" style="fill:rgb(252,191,73);stroke-width:0.66px;stroke:rgb(132,53,17);"/>
                <path d="M432.196,226.021C455.553,237.481 475.018,227.299 495.276,238.743C515.534,250.191 533.185,242.874 542.445,243.532C551.667,244.19 554.388,252.576 556.693,250.46C558.961,248.339 554.463,239.575 541.991,236.279C529.519,232.987 522.262,241.215 497.468,227.499C472.675,213.783 460.504,224.872 438.243,211.039" style="fill:rgb(252,191,73);stroke-width:0.66px;stroke:rgb(132,53,17);"/>
                <path d="M378.413,214.52L505.67,71.1703C505.67,71.1703 508.278,68.4642 506.539,66.6613C504.801,64.8585 502.193,67.5609 502.193,67.5609" style="fill:rgb(252,191,73);stroke-width:0.66px;stroke:rgb(132,53,17);"/>
                <path d="M427.093,175.852C451.434,166.739 458.275,145.19 480.347,138.373C502.457,131.552 509.978,113.366 516.971,107.025C523.925,100.685 531.56,104.6 531.749,101.417C531.938,98.2351 522.753,95.3752 511.717,102.232C500.643,109.091 501.134,120.232 474.3,128.804C447.427,137.374 446.369,154.169 421.235,160.802" style="fill:rgb(252,191,73);stroke-width:0.66px;stroke:rgb(132,53,17);"/>
                <path d="M378.413,200.098L240.801,67.5609C240.801,67.5609 238.193,64.8585 236.492,66.6613C234.753,68.4642 237.361,71.1703 237.361,71.1703" style="fill:rgb(252,191,73);stroke-width:0.66px;stroke:rgb(132,53,17);"/>
                <path d="M341.298,149.384C332.567,124.069 311.856,116.926 305.317,93.9155C298.778,70.9095 281.317,63.067 275.232,55.7952C269.147,48.5234 272.889,40.5826 269.827,40.3974C266.804,40.2084 264.045,49.748 270.621,61.2604C277.197,72.777 287.893,72.2841 296.133,100.25C304.372,128.216 320.473,129.333 326.86,155.526" style="fill:rgb(252,191,73);stroke-width:0.66px;stroke:rgb(132,53,17);"/>
                <path d="M380.567,211.213L445.424,28.0535C445.424,28.0535 446.823,24.5196 444.593,23.5407C442.325,22.5656 440.926,26.0995 440.926,26.0995" style="fill:rgb(252,191,73);stroke-width:0.66px;stroke:rgb(132,53,17);"/>
                <path d="M411.333,156.077C430.419,137.973 428.832,115.334 446.747,100.227C464.662,85.1202 464.926,65.3158 469.046,56.6758C473.166,48.0358 481.632,48.6141 480.649,45.6056C479.629,42.5933 470.142,43.5987 462.432,54.3401C454.722,65.0815 459.257,75.1895 437.601,93.8097C415.944,112.43 421.122,128.373 400.334,144.523" style="fill:rgb(252,191,73);stroke-width:0.66px;stroke:rgb(132,53,17);"/>
                <path d="M375.238,197.887L199.415,130.297C199.415,130.298 196.013,128.835 195.068,131.191C194.161,133.547 197.525,135.011 197.525,135.011" style="fill:rgb(252,191,73);stroke-width:0.66px;stroke:rgb(132,53,17);"/>
                <path d="M322.325,165.832C304.939,145.93 283.207,147.577 268.693,128.929C254.218,110.282 235.207,109.996 226.892,105.706C218.615,101.415 219.144,92.5783 216.271,93.6237C213.361,94.6676 214.344,104.575 224.662,112.591C234.98,120.606 244.656,115.886 262.533,138.443C280.41,160.998 295.717,155.605 311.213,177.263" style="fill:rgb(252,191,73);stroke-width:0.66px;stroke:rgb(132,53,17);"/>
                <path d="M367.755,216.731L543.578,284.321C543.578,284.321 546.98,285.783 547.925,283.429C548.87,281.07 545.468,279.607 545.468,279.607" style="fill:rgb(252,191,73);stroke-width:0.66px;stroke:rgb(132,53,17);"/>
                <path d="M367.755,197.887L197.525,279.607C197.525,279.607 194.161,281.074 195.068,283.429C196.013,285.783 199.415,284.321 199.415,284.321" style="fill:rgb(252,191,73);stroke-width:0.66px;stroke:rgb(132,53,17);"/>
                <path d="M308.567,214.207C282.753,212.937 268.504,230.111 245.601,227.605C222.697,225.103 209.052,238.902 200.284,241.979C191.515,245.055 185.884,238.396 184.561,241.264C183.238,244.133 190.646,250.426 203.383,248.494C216.082,246.567 219.749,236.086 247.717,238.868C275.648,241.653 282.829,226.566 308.492,230.459" style="fill:rgb(252,191,73);stroke-width:0.66px;stroke:rgb(132,53,17);"/>
                <path d="M375.238,216.731L545.468,135.01C545.468,135.011 548.87,133.546 547.925,131.191C546.98,128.835 543.578,130.298 543.578,130.298" style="fill:rgb(252,191,73);stroke-width:0.66px;stroke:rgb(132,53,17);"/>
                <path d="M434.426,200.411C460.24,201.681 474.489,184.507 497.393,187.013C520.297,189.519 533.941,175.716 542.709,172.639C551.515,169.567 557.109,176.222 558.432,173.354C559.793,170.485 552.385,164.192 539.648,166.12C526.911,168.051 523.245,178.532 495.314,175.75C467.345,172.964 460.202,188.052 434.501,184.159" style="fill:rgb(252,191,73);stroke-width:0.66px;stroke:rgb(132,53,17);"/>
                <path d="M380.567,203.405L302.104,26.0995C302.104,26.0995 300.706,22.5656 298.438,23.5407C296.171,24.5196 297.569,28.0535 297.569,28.0535" style="fill:rgb(252,191,73);stroke-width:0.66px;stroke:rgb(132,53,17);"/>
                <path d="M364.882,141.756C366.092,114.88 349.613,100.034 352.032,76.1661C354.413,52.2991 341.185,38.0949 338.237,28.9522C335.251,19.8096 341.676,13.9664 338.917,12.5755C336.158,11.1847 330.111,18.9025 331.963,32.1686C333.815,45.431 343.868,49.237 341.223,78.3544C338.539,107.474 353.015,114.931 349.273,141.669" style="fill:rgb(252,191,73);stroke-width:0.66px;stroke:rgb(132,53,17);"/>
                <path d="M376.41,207.309L371.497,73.4267" style="fill:rgb(132,53,17);"/>
                <path d="M371.497,202.207L242.993,207.309" style="fill:rgb(132,53,17);"/>
                <path d="M371.497,212.411L500.038,207.309" style="fill:rgb(132,53,17);"/>
                <path d="M374.974,210.915L462.394,112.643" style="fill:rgb(132,53,17);"/>
                <path d="M374.974,203.703L280.637,112.643" style="fill:rgb(132,53,17);"/>
                <path d="M376.032,209.259L420.668,83.6201" style="fill:rgb(132,53,17);"/>
                <path d="M373.386,202.596L252.744,156.074" style="fill:rgb(132,53,17);"/>
                <path d="M369.645,212.022L490.249,258.544" style="fill:rgb(132,53,17);"/>
                <path d="M369.645,202.596L252.744,258.544" style="fill:rgb(132,53,17);"/>
                <path d="M373.386,212.022L490.249,156.074" style="fill:rgb(132,53,17);"/>
                <path d="M376.032,205.359L322.325,83.6201" style="fill:rgb(132,53,17);"/>
                <path d="M386.388,137.593C394.854,113.367 385.556,97.0843 397.122,76.1155C384.12,91.5749 392.926,110.359 381.815,135.326" style="fill:rgb(132,53,17);"/>
                <path d="M304.561,191.824C281.317,182.991 265.67,192.69 245.563,180.618C260.378,194.171 278.445,184.983 302.407,196.567" style="fill:rgb(132,53,17);"/>
                <path d="M438.432,222.794C461.676,231.626 477.323,221.928 497.43,234C482.615,220.447 464.586,229.635 440.624,218.05" style="fill:rgb(132,53,17);"/>
                <path d="M429.323,168.962C451.774,158.077 456.271,139.703 478.684,133.415C458.993,134.763 452.454,154.543 427.66,164.007" style="fill:rgb(132,53,17);"/>
                <path d="M334.684,147.064C324.252,123.688 306.602,119.028 300.555,95.6696C301.84,116.184 320.851,122.968 329.922,148.817" style="fill:rgb(132,53,17);"/>
                <path d="M410.841,148.824C427.585,129.825 424.977,111.067 443.383,96.3155C425.657,105.411 426.904,126.285 407.478,144.916" style="fill:rgb(132,53,17);"/>
                <path d="M315.371,166.324C297.115,148.893 279.125,151.621 264.952,132.444C273.682,150.881 293.714,149.58 311.591,169.839" style="fill:rgb(132,53,17);"/>
                <path d="M303.994,219.683C279.238,220.794 268.353,235.984 245.336,232.855C264.045,239.461 277.311,223.784 303.73,224.933" style="fill:rgb(132,53,17);"/>
                <path d="M439.037,194.935C463.755,193.824 474.64,178.634 497.657,181.763C478.986,175.156 465.682,190.834 439.301,189.685" style="fill:rgb(132,53,17);"/>
                <path d="M359.629,136.974C358.571,111.212 343.982,99.877 346.967,75.8894C340.618,95.3574 355.698,109.196 354.602,136.694" style="fill:rgb(132,53,17);"/>
                <path d="M444.933,207.309C444.933,165.065 412.051,130.807 371.497,130.807C330.942,130.806 298.06,165.065 298.06,207.309C298.06,249.553 333.815,281.664 374.369,281.664C414.923,281.664 444.933,249.553 444.933,207.309Z" style="fill:rgb(252,191,73);stroke-width:0.44px;stroke:rgb(132,53,17);"/>
                <path d="M421.689,189.458C407.629,176.706 389.865,174.797 380.076,184.36C378.111,187.652 376.145,191.333 375.503,195.01C374.293,202.123 376.977,210.453 381.777,218.164C381.286,218.149 380.076,218.784 379.471,219.422C374.671,209.853 372.895,199.667 374.482,190.346C374.86,188.139 376.07,185.58 376.41,183.615C389.865,171.607 408.234,170.334 421.689,189.458Z" style="fill:rgb(132,53,17);"/>
                <path d="M399.654,185.633C391.717,185.633 389.865,187.546 386.199,190.736C382.533,193.922 380.681,193.283 380.076,193.922C379.471,194.557 380.076,196.469 381.286,195.834C382.533,195.196 384.952,193.922 388.656,190.736C392.322,187.546 395.988,187.546 399.654,187.546C410.69,187.546 416.775,197.108 418.023,196.469C419.232,195.83 411.9,185.633 399.654,185.633Z" style="fill:rgb(132,53,17);"/>
                <path d="M413.752,196.469C405.777,187.546 391.075,186.907 384.952,197.108L387.408,197.108C393.531,186.907 408.234,191.371 409.443,195.834" style="fill:rgb(132,53,17);"/>
                <path d="M403.925,195.834C403.925,192.667 401.468,190.097 398.445,190.097C395.383,190.097 392.926,192.667 392.926,195.834C392.926,199.001 395.383,201.572 398.445,201.572C401.468,201.572 403.925,199.001 403.925,195.834Z" style="fill:rgb(132,53,17);"/>
                <path d="M384.952,197.108C391.075,202.849 404.567,203.484 413.714,196.469L409.443,195.834C403.32,202.849 393.531,202.207 387.408,197.108" style="fill:rgb(132,53,17);"/>
                <path d="M414.356,199.659C403.925,207.948 393.531,207.309 387.408,203.484C381.286,199.659 381.286,198.385 382.533,198.385C383.742,198.385 384.952,199.659 389.865,202.207C394.741,204.758 402.111,204.758 414.356,199.659Z" style="fill:rgb(132,53,17);"/>
                <path d="M384.347,218.784C385.821,219.324 386.804,220.775 386.804,222.389C386.804,224.494 385.141,226.214 383.138,226.214C381.172,226.214 379.509,224.6 379.471,222.552C378.829,223.886 376.41,227.711 371.497,227.711L370.287,227.711L370.476,229.608L371.497,229.619C372.744,229.619 376.41,229.619 378.829,227.711C379.849,229.226 381.588,230.167 383.364,230.167C386.388,230.167 388.882,227.59 388.882,224.43C388.882,221.648 386.955,219.252 384.347,218.78" style="fill:rgb(132,53,17);"/>
                <path d="M320.435,189.458C334.533,176.706 352.259,174.797 362.048,184.36C364.013,187.652 366.016,191.333 366.621,195.01C367.83,202.123 365.147,210.453 360.347,218.164C360.838,218.149 362.048,218.784 362.69,219.422C367.452,209.853 369.229,199.667 367.641,190.346C367.263,188.139 366.054,185.58 365.752,183.615C352.259,171.607 333.89,170.334 320.435,189.458Z" style="fill:rgb(132,53,17);"/>
                <path d="M342.47,185.633C350.445,185.633 352.259,187.546 355.925,190.736C359.629,193.922 361.443,193.283 362.048,193.922C362.652,194.557 362.048,196.469 360.838,195.834C359.629,195.196 357.172,193.922 353.506,190.736C349.802,187.546 346.136,187.546 342.47,187.546C331.471,187.546 325.349,197.108 324.101,196.469C322.892,195.83 330.224,185.633 342.47,185.633Z" style="fill:rgb(132,53,17);"/>
                <path d="M328.41,196.469C336.347,187.546 351.049,186.907 357.172,197.108L354.715,197.108C348.593,186.907 333.89,191.371 332.681,195.834" style="fill:rgb(132,53,17);"/>
                <path d="M338.199,195.834C338.199,192.667 340.656,190.097 343.717,190.097C346.741,190.097 349.197,192.667 349.197,195.834C349.197,199.001 346.741,201.572 343.717,201.572C340.656,201.572 338.199,199.001 338.199,195.834Z" style="fill:rgb(132,53,17);"/>
                <path d="M357.172,197.108C351.049,202.849 337.594,203.484 328.41,196.469L332.681,195.834C338.804,202.849 348.593,202.207 354.715,197.108" style="fill:rgb(132,53,17);"/>
                <path d="M327.767,199.659C338.199,207.948 348.593,207.309 354.715,203.484C360.838,199.659 360.838,198.385 359.629,198.385C358.382,198.385 357.172,199.659 352.259,202.207C347.383,204.758 340.013,204.758 327.767,199.659Z" style="fill:rgb(132,53,17);"/>
                <path d="M357.777,218.784C356.341,219.324 355.32,220.775 355.32,222.389C355.32,224.494 356.983,226.214 358.986,226.214C360.952,226.214 362.615,224.6 362.69,222.552C363.295,223.886 365.714,227.711 370.627,227.711L371.837,227.711L370.627,229.619C369.418,229.619 365.714,229.619 363.295,227.711C362.275,229.226 360.536,230.167 358.76,230.167C355.736,230.167 353.241,227.59 353.241,224.43C353.241,221.648 355.169,219.252 357.777,218.78" style="fill:rgb(132,53,17);"/>
            </g>
            <g>
                <path d="M405.738,467.06C382.994,463.38 359.287,461.706 332.785,467.45C227.029,512.669 530.489,506.149 405.738,467.06Z" style="fill:rgb(212,0,0);"/>
                <g>
                    <path d="M361.807,465.727L362.674,907.877C362.682,914.329 367.224,919.573 372.768,919.565C378.335,919.558 382.818,914.303 382.809,907.851" style="fill:rgb(200,113,55);stroke-width:1.29px;stroke-linecap:round;stroke-linejoin:bevel;stroke:rgb(206,149,72);"/>
                    <path d="M376.624,799.625L376.775,911.18" style="fill:url(#tag1);stroke-width:1.57px;stroke-linejoin:bevel;stroke:rgb(255,191,0);"/>
                    <path d="M376.264,466.573L376.478,625.1" style="fill:url(#tag2);stroke-width:1.87px;stroke-linejoin:bevel;stroke:rgb(255,191,0);"/>
                    <path d="M364.679,465.18L365,486.063C365,486.063 371.996,480.842 379.254,486.045" style="fill:rgb(138,91,41);"/>
                </g>
                <g>
                    <path d="M321.451,381.811C322.699,384.664 320.879,388.012 326.101,390.218C335.018,391.969 336.975,389.94 342.058,388.069C339.907,391.525 334.912,401.586 329.751,412.005C322.939,423.136 321.845,432.092 326.735,429.823C361.67,438.783 396.794,432.442 431.845,433.752C419.725,383.411 400.26,317.872 347.891,347.664C336.569,355.407 324.279,361.704 321.451,381.811Z" style="fill:rgb(248,35,35);"/>
                    <path d="M325.343,389.817C329.783,392.273 336.282,392.492 341.672,388.905C352.821,375.358 364.617,370.073 374.539,368.618C365.581,367.142 355.374,362.197 342.464,381.224C336.798,382.106 331.075,385.019 325.343,389.817Z" style="fill:rgb(212,0,0);"/>
                    <path d="M342.808,411.23C326.607,421.405 362.231,404.153 393.555,408.514C385.471,399.503 376.837,391.759 342.808,411.23Z" style="fill:rgb(212,0,0);"/>
                    <path d="M323.678,380.948L324.289,389.033C323.116,404.633 310.485,411.895 302.108,404.861C294.676,391.128 313.977,382.001 323.678,380.948Z" style="fill:rgb(248,35,35);"/>
                    <path d="M310.201,485.911L308.675,442.956C311.955,434.174 318.546,430.834 326.184,429.221C357.17,423.131 390.314,424.215 424.902,430.076C432.396,432.207 438.703,435.548 440.952,443.118C438.673,454.606 443.711,480.01 434.849,488.229C434.737,487.699 435.15,486.283 434.928,485.63C399.013,458.986 330.403,466.923 310.201,485.911Z" style="fill:rgb(255,42,42);"/>
                </g>
            </g>
            <path d="M376.436,624.664L376.777,720.323" style="fill:url(#tag3);stroke-width:1.77px;stroke-linejoin:bevel;stroke:rgb(255,191,0);"/>
            <g>
                <g>
                    <path d="M304.724,794.013C308.423,790.717 311.362,787.362 313.435,784.066L329.102,783.544C326.427,788.989 322.67,793.671 316.807,796.946C311.497,799.458 307.72,797.951 304.724,794.013Z" style="fill:rgb(230,138,93);stroke-width:1px;stroke-linejoin:bevel;stroke:black;"/>
                    <path d="M304.092,794.495L304.197,793.41C307.855,790.155 310.738,786.859 312.761,783.624L313.407,783.263L329.074,782.74L329.813,783.886C327.083,789.472 323.224,794.294 317.148,797.669C311.458,800.362 307.289,798.694 304.092,794.495ZM314.688,796.926L316.439,796.223L320.323,793.611C322.692,791.702 324.613,789.492 326.213,787.04L327.705,784.388L313.834,784.85L310.283,789.572L305.838,794.013L305.354,793.51C307.8,796.725 310.697,798.172 314.688,796.926Z" style="fill:rgb(127,65,0);stroke-width:1px;stroke-linejoin:bevel;stroke:black;"/>
                    <path d="M154.711,774.241L155.302,773.156C208.418,764.476 268.215,751.496 321.625,736.406C329.297,730.86 338.226,726.841 347.505,723.506C360.778,724.37 372.859,725.817 384.582,727.585L438.489,791.642L433.998,797.549L436.084,800.181L429.19,804.782L422.215,801.286C420.924,808.118 415.976,808.922 409.876,807.736C405.247,812.217 400.239,814.246 394.835,810.71L386.072,815.05L367.991,809.384C350.307,802.351 333.787,794.193 317.733,785.714L184.284,834.681L179.801,828.07C169.058,809.384 161.948,793.269 154.712,774.241Z" style="fill:rgb(241,189,137);stroke-width:1px;stroke-linejoin:bevel;stroke:black;"/>
                    <path d="M185.83,834.902C237.266,815.392 263.234,801.547 317.5,784.93L318.1,784.991C330.131,791.36 342.419,797.529 355.254,803.175L368.269,808.62L385.993,814.186L394.477,809.987L395.272,810.027C400.2,813.262 404.809,811.534 409.32,807.153L410.035,806.952C416.016,808.118 420.288,807.274 421.44,801.146L422.573,800.563L429.13,803.858L437.475,791.662L384.165,728.348L366.54,725.998C363.461,725.656 360.361,725.335 357.182,725.053L347.624,724.33L340.928,726.902C334.171,729.675 327.775,732.95 322.086,737.049L321.838,737.169C267.281,752.581 208.092,764.536 153.833,773.297L152.808,771.649C199.279,764.235 248.188,754.952 294.761,742.856L321.297,735.662L327.196,731.825C333.437,728.168 340.252,725.274 347.246,722.743L347.564,722.702C360.857,723.566 372.958,725.013 384.681,726.781L385.178,727.063L439.104,791.119L439.124,792.124L436.7,799.679L429.626,805.445L428.831,805.506L422.712,802.432L422.274,803.959C420.764,807.656 417.784,808.942 414.207,809.002L410.114,808.56L406.756,811.272C403.577,813.282 400.179,814.005 396.583,812.538L394.834,811.614L386.41,815.773L385.833,815.813L367.712,810.127C354.4,804.843 341.782,798.935 329.513,792.727L317.662,786.578L294.872,794.053C248.176,810.328 231.621,820.555 186.401,837.534L185.829,834.902Z" style="fill:rgb(127,65,0);stroke-width:1px;stroke-linejoin:bevel;stroke:black;"/>
                    <path d="M174.281,818.787L305.364,780.912L317.017,780.249L383.787,809.123C385.417,809.183 387.562,808.118 388.476,805.566C390.165,806.973 391.556,808.078 392.49,809.263L393.225,810.609L385.993,814.186L368.269,808.62L355.254,803.175C342.419,797.529 330.131,791.36 318.1,784.991L317.5,784.93C295.647,791.621 274.345,799.598 253.335,808.017L185.754,835.525Z" style="fill:rgb(230,138,93);stroke-width:1px;stroke-linejoin:bevel;stroke:black;"/>
                    <path d="M385.337,801.166C390.165,799.659 395.49,797.549 398.829,794.073C402.047,797.308 404.849,801.085 406.995,804.602L408.724,807.696C407.869,808.54 406.896,809.223 405.922,809.906C399.544,816.477 390.96,807.053 385.337,801.166Z" style="fill:rgb(230,138,93);stroke-width:1px;stroke-linejoin:bevel;stroke:black;"/>
                    <path d="M412.201,807.274L411.148,807.113L410.353,807.515C406.021,804.16 401.372,795.821 398.352,792.485C402.465,793.088 406.498,790.516 410.651,785.513C413.87,788.708 417.705,794.555 420.367,799.076L421.52,801.105L421.44,801.146C420.427,806.51 417.029,807.816 412.201,807.274Z" style="fill:rgb(230,138,93);stroke-width:1px;stroke-linejoin:bevel;stroke:black;"/>
                    <path d="M429.13,803.858L423.705,801.326C417.089,794.957 413.314,789.13 407.353,782.178C412.181,781.615 416.373,777.958 419.89,774.141C424.858,782.7 435.528,787.904 434.773,799.819L434.276,800.402Z" style="fill:rgb(230,138,93);stroke-width:1px;stroke-linejoin:bevel;stroke:black;"/>
                    <path d="M394.318,811.192L369.421,789.612L370.455,788.386L395.351,809.966Z" style="fill:rgb(127,65,0);stroke-width:1px;stroke-linejoin:bevel;stroke:black;"/>
                    <path d="M375.243,773.598L376.475,772.593C384.344,782.499 400.08,789.592 410.432,807.073L409.061,807.897C398.451,789.954 384.145,784.85 375.243,773.598Z" style="fill:rgb(127,65,0);stroke-width:1px;stroke-linejoin:bevel;stroke:black;"/>
                    <path d="M391.576,767.932L392.907,767.048C400.855,779.264 413.731,783.363 423.05,800.784L421.639,801.547C412.32,784.107 399.981,780.852 391.576,767.932Z" style="fill:rgb(127,65,0);stroke-width:1px;stroke-linejoin:bevel;stroke:black;"/>
                    <path d="M435.428,797.348C430.143,787.04 423.387,776.753 413.254,766.525C405.584,761.582 399.723,756.599 395.888,751.576C390.503,748.964 386.132,746.332 383.072,743.7C378.263,743.298 375.402,742.112 372.481,740.927C366.242,744.945 359.924,748.1 353.685,750.672C346.412,749.808 341.147,748.16 343.154,743.097C347.903,738.696 352.194,732.709 356.089,725.154C357.46,723.365 360.122,722.26 364.613,721.135C367.673,720.733 379.317,720.874 389.132,721.135C398.113,724.551 423.07,738.495 438.806,751.576C486.056,760.718 524.365,774.221 573.642,784.81L580.656,786.096L574.437,800.161C567.84,817.602 558.76,830.059 550.136,843.421C506.304,823.69 474.194,807.957 435.428,797.348Z" style="fill:rgb(241,189,137);stroke-width:1px;stroke-linejoin:bevel;stroke:black;"/>
                    <path d="M445.443,799.438L435.965,796.685L431.852,789.21L428.156,783.403L564.164,822.062L558.541,830.361C557.985,835.063 552.58,838.378 551.865,842.999L548.706,841.332C513.099,825.257 477.671,809.344 445.443,799.438Z" style="fill:rgb(230,138,93);stroke-width:1px;stroke-linejoin:bevel;stroke:black;"/>
                    <path d="M422.056,775.185L421.659,774.663C419.274,771.749 416.691,768.856 413.81,765.943L413.671,765.842C406.041,760.939 400.279,755.996 396.524,751.094L396.245,750.853C390.861,748.241 386.569,745.649 383.589,743.077L383.151,742.896C378.442,742.514 375.68,741.369 372.76,740.183L372.044,740.244C368.945,742.253 365.845,744.021 362.725,745.628L356.824,748.341L355.433,747.437C360.778,743.036 368.706,739.359 367.335,732.97C372.084,735.281 383.072,739.279 388.476,737.571C391.278,736.667 392.907,743.499 395.49,743.88C395.431,753.224 419.493,766.646 433.998,761.904Z" style="fill:rgb(230,138,93);stroke-width:1px;stroke-linejoin:bevel;stroke:black;"/>
                    <path d="M317.077,796.444L342.12,784.87C346.73,786.036 350.227,788.346 349.989,794.595C344.843,799.578 338.882,804.2 330.654,807.736C320.52,806.892 317.464,802.432 317.077,796.444Z" style="fill:rgb(241,189,137);stroke-width:1px;stroke-linejoin:bevel;stroke:black;"/>
                    <path d="M316.282,796.484L316.745,795.7L341.783,784.127L342.299,784.087C347.128,785.312 351.042,787.844 350.784,794.635L350.545,795.178C345.339,800.221 339.299,804.883 330.966,808.48L330.588,808.54C320.119,807.656 316.699,802.934 316.282,796.484ZM330.521,806.912L336.02,804.18C339.577,802.19 342.657,799.98 345.439,797.629L349.174,794.254L349.115,792.586C348.757,789.552 347.227,787.824 344.962,786.719L342.16,785.734L317.937,796.926L318.122,798.393C318.883,802.271 321.293,805.245 327.365,806.47Z" style="fill:rgb(127,65,0);stroke-width:1px;stroke-linejoin:bevel;stroke:black;"/>
                    <path d="M330.521,806.912L327.365,806.47C321.293,805.245 318.883,802.271 318.122,798.393L317.937,796.926L326.817,792.827L327.643,794.676C329.934,799.257 333.678,803.155 340.153,801.427L340.134,801.608L336.02,804.18Z" style="fill:rgb(230,138,93);stroke-width:1px;stroke-linejoin:bevel;stroke:black;"/>
                    <path d="M334.83,805.566L352.651,789.472C358.692,787.482 362.209,791.581 363.778,795.118L349.989,814.507C342.12,814.849 337.948,811.694 334.83,805.566Z" style="fill:rgb(241,189,137);stroke-width:1px;stroke-linejoin:bevel;stroke:black;"/>
                    <path d="M334.121,805.928L334.3,804.963L352.115,788.869L352.393,788.708C359.03,786.538 362.864,791.099 364.494,794.796L364.414,795.6L350.645,814.97L350.029,815.311C341.803,815.653 337.372,812.297 334.121,805.928ZM349.591,813.704L362.825,795.077L361.593,792.948C360.103,790.978 357.897,789.472 354.837,789.813L353.029,790.195L335.864,805.707L337.988,809.042C340.253,811.795 343.134,813.362 347.287,813.664Z" style="fill:rgb(127,65,0);stroke-width:1px;stroke-linejoin:bevel;stroke:black;"/>
                    <path d="M349.591,813.704L347.287,813.664C343.134,813.362 340.253,811.795 337.988,809.042L335.864,805.707L340.869,801.186L342.319,803.175C344.485,805.888 347.227,808.198 350.605,808.62L353.248,808.54Z" style="fill:rgb(230,138,93);stroke-width:1px;stroke-linejoin:bevel;stroke:black;"/>
                    <path d="M350.505,815.291L363.778,795.962C366.818,796.162 369.68,797.408 371.965,801.286C370.733,807.475 366.759,813.664 360.778,819.832C354.857,819.048 350.684,817.682 350.505,815.291Z" style="fill:rgb(241,189,137);stroke-width:1px;stroke-linejoin:bevel;stroke:black;"/>
                    <path d="M349.711,815.351L349.85,814.829L363.123,795.499L363.818,795.158C367.117,795.379 370.216,796.765 372.64,800.884L372.74,801.447C371.468,807.857 367.375,814.186 361.334,820.395L360.679,820.636C355.076,819.892 349.969,818.546 349.711,815.351ZM360.48,818.968L364.255,814.688C366.679,811.654 368.547,808.64 369.799,805.626L371.09,801.447L369.6,799.418C368.408,798.192 367.136,797.489 365.785,797.107L364.136,796.846L351.38,815.392L351.956,816.376C352.791,817.12 354.4,817.783 356.764,818.325Z" style="fill:rgb(127,65,0);stroke-width:1px;stroke-linejoin:bevel;stroke:black;"/>
                    <path d="M360.48,818.968L356.764,818.325C354.4,817.783 352.791,817.12 351.956,816.376L351.38,815.392L355.751,809.042L356.228,809.524C358.195,811.293 360.46,812.8 362.904,813.422L364.99,813.664L364.255,814.688Z" style="fill:rgb(230,138,93);stroke-width:1px;stroke-linejoin:bevel;stroke:black;"/>
                    <path d="M434.733,797.73C430.779,790.034 426.03,782.379 419.632,774.723L412.717,767.128L407.373,763.451C403.975,760.959 401.034,758.428 398.57,755.896L395.391,752.239L391.675,750.33C389.212,749.004 387.026,747.658 385.158,746.332L382.774,744.463L379.654,744.061C378.621,743.86 377.707,743.639 376.853,743.378L372.541,741.811L363.441,747.055C360.281,748.683 357.122,750.129 353.983,751.415L353.605,751.476C346.81,750.672 339.955,748.984 342.419,742.795L342.617,742.514C347.267,738.174 351.519,732.287 355.393,724.772L355.473,724.651C357.023,722.622 359.963,721.477 364.414,720.351L364.514,720.331C367.653,719.929 379.356,720.07 389.152,720.331L389.41,720.392C397.338,723.406 417.506,734.497 433.004,746.01L439.144,750.833L462.63,755.816C497.144,763.732 531.637,773.859 567.204,782.178L581.55,785.573L580.259,786.719L573.026,785.172C527.008,774.743 482.798,760.899 438.647,752.38L438.29,752.199C423.606,739.982 400.816,727.022 390.682,722.642L388.953,721.939L381.562,721.778C375.263,721.678 369.302,721.657 366.203,721.818L364.752,721.939L361.791,722.763C360.043,723.325 358.771,723.908 357.837,724.571L356.745,725.616L353.764,730.94C351.698,734.356 349.532,737.39 347.227,740.043L343.869,743.519L343.551,744.764C343.352,747.296 346.015,748.663 351.062,749.506L353.565,749.848L362.725,745.628C365.845,744.021 368.945,742.253 372.044,740.244L372.76,740.183C375.68,741.369 378.442,742.514 383.151,742.896L383.589,743.077C386.569,745.649 390.861,748.241 396.245,750.853L396.524,751.094C400.279,755.996 406.041,760.939 413.671,765.842L413.81,765.943C421.46,773.678 427.202,781.434 431.852,789.21L435.965,796.685L445.443,799.438C477.671,809.344 516,826.463 551.607,842.537L550.712,844.024C513.198,827.95 478.228,810.449 434.733,797.73Z" style="fill:rgb(127,65,0);stroke-width:1px;stroke-linejoin:bevel;stroke:black;"/>
                </g>
                <path d="M350.474,735.874L358.353,737.675C356.512,742.141 350.806,748.407 343.962,743.581C353.53,733.353 348.413,738.323 350.474,735.874Z" style="fill:rgb(255,230,213);"/>
                <path d="M336.345,789.465C340.984,795.984 341.849,795.912 341.849,795.912C343.391,794.687 345.203,793.607 345.696,791.842C345.052,790.329 345.317,788.781 341.54,787.232Z" style="fill:rgb(250,228,212);"/>
                <path d="M350.254,794.579C354.782,799.153 356.622,798.685 357.469,799.297C358.574,798.253 358.979,797.208 359.641,796.524C360.414,795.696 360.414,793.931 359.752,793.138C358.5,791.842 355.665,790.113 354.193,791.266C353.015,791.338 352.021,792.31 350.254,794.579Z" style="fill:rgb(250,228,212);"/>
                <path d="M362.402,801.602C365.237,804.483 367.483,804.663 367.593,804.663C368.366,803.799 369.176,803.007 369.507,801.278C367.335,798.469 365.421,798.721 364.133,798.901Z" style="fill:rgb(255,230,213);"/>
                <path d="M425.612,800.27C426.643,796.02 431.981,795.84 432.018,795.84C433.453,797.712 433.306,798.577 433.417,799.585C432.459,800.378 431.834,801.062 429.588,802.286C428.41,801.818 427.637,801.962 425.612,800.27Z" style="fill:rgb(255,204,170);"/>
            </g>
            <g>
                <path d="M371.399,952.676L368.221,952.649L365.052,952.567L361.893,952.432L358.743,952.243L355.602,952.001L352.472,951.706L349.352,951.359L346.243,950.959L343.145,950.508L340.057,950.005L336.982,949.45L333.918,948.845L330.866,948.19L327.826,947.484L324.799,946.729L321.784,945.924L318.783,945.07L315.795,944.167L312.82,943.216L309.859,942.217L306.913,941.17L303.98,940.076L301.063,938.934L298.16,937.746L295.272,936.512L292.4,935.232L289.543,933.906L286.703,932.534L283.878,931.118L281.07,929.657L278.278,928.152L275.503,926.603L272.746,925.011L270.005,923.375L267.283,921.697L264.578,919.975L261.891,918.212L259.223,916.407L256.573,914.56L253.943,912.673L251.331,910.744L248.738,908.775L246.166,906.766L243.613,904.717L241.08,902.628L238.567,900.501L236.075,898.335L233.604,896.13L231.154,893.887L228.725,891.606L226.318,889.288L223.932,886.933L221.568,884.542L219.227,882.113L216.908,879.649L214.612,877.149L212.339,874.614L210.089,872.043L207.862,869.438L205.659,866.798L203.481,864.125L201.326,861.417L199.196,858.677L197.09,855.903L195.009,853.096L192.954,850.257L190.923,847.386L188.919,844.484L186.94,841.55L184.987,838.584L183.061,835.589L181.161,832.562L179.288,829.506L177.443,826.42L175.624,823.304L173.833,820.16L172.07,816.986L170.335,813.785L168.628,810.555L166.95,807.297L165.301,804.012L163.68,800.7L162.089,797.361L160.527,793.996L158.995,790.604L157.493,787.187L156.022,783.744L154.58,780.277L153.17,776.784L151.79,773.267L150.442,769.726L149.125,766.161L147.84,762.573L146.587,758.961L145.366,755.327L144.178,751.67L143.022,747.991L141.899,744.29L140.809,740.568L139.753,736.825L138.73,733.06L137.741,729.276L136.787,725.471L135.867,721.646L134.981,717.802L134.131,713.938L133.315,710.056L132.535,706.155L131.791,702.236L131.082,698.299L130.41,694.344L129.774,690.373L129.175,686.384L128.612,682.379L128.087,678.358L127.599,674.32L127.148,670.268L126.736,666.2L126.361,662.117L126.025,658.019L125.728,653.908L125.469,649.782L125.25,645.643L125.07,641.49L124.929,637.325L124.828,633.147L124.768,628.957L124.748,624.755L124.768,620.553L124.828,616.363L124.929,612.185L125.07,608.019L125.25,603.867L125.469,599.728L125.728,595.602L126.025,591.491L126.361,587.393L126.736,583.31L127.148,579.242L127.599,575.189L128.087,571.152L128.612,567.131L129.175,563.126L129.774,559.137L130.41,555.166L131.082,551.211L131.791,547.274L132.535,543.355L133.315,539.454L134.131,535.572L134.981,531.708L135.867,527.864L136.787,524.039L137.741,520.234L138.73,516.45L139.753,512.685L140.809,508.942L141.899,505.22L143.022,501.519L144.178,497.84L145.366,494.183L146.587,490.549L147.84,486.937L149.125,483.349L150.442,479.784L151.79,476.243L153.17,472.726L154.58,469.233L156.022,465.765L157.493,462.323L158.995,458.906L160.527,455.514L162.089,452.149L163.68,448.81L165.301,445.498L166.95,442.213L168.628,438.955L170.335,435.725L172.07,432.524L173.833,429.35L175.624,426.206L177.443,423.09L179.288,420.004L181.161,416.948L183.061,413.921L184.987,410.925L186.94,407.96L188.919,405.026L190.923,402.123L192.954,399.252L195.009,396.414L197.09,393.607L199.196,390.833L201.326,388.092L203.481,385.385L205.659,382.711L207.862,380.072L210.089,377.467L212.339,374.896L214.612,372.361L216.908,369.861L219.227,367.397L221.568,364.968L223.932,362.577L226.318,360.221L228.725,357.903L231.154,355.623L233.604,353.38L236.075,351.175L238.567,349.009L241.08,346.882L243.613,344.793L246.166,342.744L248.738,340.735L251.331,338.766L253.943,336.837L256.573,334.949L259.223,333.103L261.891,331.298L264.578,329.534L267.283,327.813L270.005,326.135L272.746,324.499L275.503,322.906L278.278,321.358L281.07,319.852L283.878,318.392L286.703,316.975L289.543,315.604L292.4,314.278L295.272,312.998L298.16,311.764L301.063,310.576L303.98,309.434L306.913,308.34L309.859,307.293L312.82,306.294L315.795,305.343L318.783,304.44L321.784,303.586L324.799,302.781L327.826,302.026L330.866,301.32L333.918,300.664L336.982,300.06L340.057,299.505L343.145,299.002L346.243,298.551L349.352,298.151L352.472,297.804L355.602,297.509L358.743,297.267L361.893,297.078L365.052,296.943L368.221,296.861L371.399,296.834L374.577,296.861L377.746,296.943L380.906,297.078L384.056,297.267L387.196,297.509L390.327,297.804L393.446,298.151L396.556,298.551L399.654,299.002L402.741,299.505L405.817,300.06L408.881,300.664L411.933,301.32L414.973,302.026L418,302.781L421.014,303.586L424.016,304.44L427.004,305.343L429.979,306.294L432.939,307.293L435.886,308.34L438.818,309.434L441.736,310.576L444.639,311.764L447.526,312.998L450.399,314.278L453.255,315.604L456.096,316.975L458.921,318.392L461.729,319.852L464.521,321.358L467.295,322.906L470.053,324.499L472.793,326.135L475.516,327.813L478.221,329.534L480.907,331.298L483.576,333.103L486.225,334.949L488.856,336.837L491.468,338.766L494.06,340.735L496.633,342.744L499.186,344.793L501.719,346.882L504.231,349.009L506.723,351.175L509.195,353.38L511.645,355.623L514.074,357.903L516.481,360.221L518.867,362.577L521.23,364.968L523.572,367.396L525.89,369.861L528.187,372.361L530.46,374.896L532.71,377.467L534.936,380.072L537.139,382.711L539.318,385.385L541.473,388.092L543.603,390.833L545.709,393.607L547.789,396.414L549.845,399.252L551.875,402.123L553.88,405.026L555.859,407.96L557.811,410.925L559.738,413.921L561.637,416.948L563.51,420.004L565.356,423.09L567.174,426.206L568.965,429.35L570.728,432.524L572.464,435.725L574.17,438.955L575.849,442.213L577.498,445.498L579.118,448.81L580.71,452.149L582.271,455.514L583.803,458.906L585.305,462.323L586.777,465.765L588.218,469.233L589.629,472.726L591.008,476.243L592.356,479.784L593.673,483.349L594.958,486.937L596.212,490.549L597.432,494.183L598.621,497.84L599.777,501.519L600.9,505.22L601.99,508.942L603.046,512.685L604.068,516.45L605.057,520.234L606.012,524.039L606.932,527.864L607.817,531.708L608.668,535.572L609.483,539.454L610.263,543.355L611.008,547.274L611.716,551.211L612.389,555.166L613.025,559.137L613.624,563.126L614.187,567.131L614.712,571.152L615.2,575.189L615.65,579.242L616.063,583.31L616.437,587.393L616.773,591.491L617.071,595.602L617.329,599.728L617.549,603.867L617.729,608.019L617.869,612.185L617.97,616.363L618.031,620.553L618.051,624.755L618.031,628.957L617.97,633.147L617.869,637.325L617.729,641.49L617.549,645.643L617.329,649.782L617.071,653.908L616.773,658.019L616.437,662.117L616.063,666.2L615.65,670.268L615.2,674.32L614.712,678.358L614.187,682.379L613.624,686.384L613.025,690.373L612.389,694.344L611.716,698.299L611.008,702.236L610.263,706.155L609.483,710.056L608.668,713.938L607.817,717.802L606.932,721.646L606.012,725.471L605.057,729.276L604.068,733.06L603.046,736.825L601.99,740.568L600.9,744.29L599.777,747.991L598.621,751.67L597.432,755.327L596.212,758.961L594.958,762.573L593.673,766.161L592.356,769.726L591.008,773.267L589.629,776.784L588.218,780.277L586.777,783.744L585.305,787.187L583.803,790.604L582.271,793.996L580.71,797.361L579.118,800.7L577.498,804.012L575.849,807.297L574.17,810.555L572.464,813.785L570.728,816.986L568.965,820.16L567.174,823.304L565.356,826.42L563.51,829.506L561.637,832.562L559.738,835.589L557.811,838.584L555.859,841.55L553.88,844.484L551.875,847.386L549.845,850.257L547.789,853.096L545.709,855.903L543.603,858.677L541.473,861.417L539.318,864.125L537.139,866.798L534.936,869.438L532.71,872.043L530.46,874.614L528.187,877.149L525.89,879.649L523.572,882.113L521.23,884.542L518.867,886.933L516.481,889.288L514.074,891.606L511.645,893.887L509.195,896.13L506.723,898.335L504.231,900.501L501.719,902.628L499.186,904.717L496.633,906.766L494.06,908.775L491.468,910.744L488.856,912.673L486.225,914.56L483.576,916.407L480.907,918.212L478.221,919.975L475.516,921.697L472.793,923.375L470.053,925.011L467.295,926.603L464.521,928.152L461.729,929.657L458.921,931.118L456.096,932.534L453.255,933.906L450.399,935.232L447.526,936.512L444.639,937.746L441.736,938.934L438.818,940.076L435.886,941.17L432.939,942.217L429.979,943.216L427.004,944.167L424.016,945.07L421.014,945.924L418,946.729L414.973,947.484L411.933,948.19L408.881,948.845L405.817,949.45L402.741,950.005L399.654,950.508L396.556,950.959L393.446,951.359L390.327,951.706L387.196,952.001L384.056,952.243L380.906,952.432L377.746,952.567L374.577,952.649L371.399,952.676ZM371.399,947.524L374.489,947.498L377.57,947.419L380.642,947.287L383.704,947.104L386.757,946.868L389.8,946.582L392.833,946.244L395.856,945.855L398.868,945.416L401.87,944.927L404.861,944.388L407.841,943.8L410.81,943.162L413.767,942.476L416.712,941.741L419.645,940.958L422.566,940.127L425.475,939.248L428.37,938.322L431.253,937.349L434.123,936.33L436.979,935.264L439.822,934.152L442.651,932.994L445.465,931.791L448.265,930.543L451.051,929.25L453.822,927.912L456.578,926.53L459.318,925.105L462.043,923.636L464.752,922.124L467.445,920.569L470.121,918.971L472.781,917.331L475.425,915.649L478.051,913.925L480.66,912.16L483.251,910.354L485.824,908.508L488.38,906.621L490.917,904.694L493.435,902.727L495.935,900.721L498.416,898.675L500.877,896.591L503.319,894.469L505.741,892.308L508.142,890.109L510.524,887.873L512.885,885.6L515.225,883.29L517.544,880.943L519.842,878.56L522.118,876.142L524.372,873.687L526.604,871.198L528.814,868.673L531.001,866.114L533.165,863.521L535.306,860.894L537.424,858.233L539.518,855.539L541.588,852.811L543.634,850.052L545.656,847.26L547.653,844.436L549.625,841.58L551.572,838.693L553.494,835.775L555.39,832.826L557.26,829.847L559.103,826.838L560.921,823.799L562.712,820.731L564.476,817.634L566.212,814.508L567.922,811.354L569.603,808.172L571.257,804.962L572.883,801.724L574.48,798.46L576.048,795.169L577.588,791.851L579.098,788.508L580.579,785.138L582.03,781.744L583.451,778.324L584.842,774.879L586.203,771.41L587.533,767.917L588.832,764.4L590.1,760.86L591.337,757.297L592.541,753.71L593.714,750.102L594.855,746.471L595.963,742.819L597.039,739.145L598.081,735.45L599.091,731.734L600.067,727.998L601.009,724.241L601.918,720.465L602.792,716.67L603.632,712.855L604.437,709.021L605.207,705.169L605.942,701.299L606.642,697.411L607.306,693.505L607.934,689.583L608.526,685.643L609.082,681.687L609.601,677.715L610.083,673.727L610.528,669.723L610.935,665.705L611.305,661.671L611.637,657.623L611.931,653.561L612.187,649.485L612.403,645.395L612.581,641.292L612.72,637.176L612.82,633.048L612.88,628.907L612.9,624.755L612.88,620.603L612.82,616.462L612.72,612.334L612.581,608.218L612.403,604.115L612.187,600.025L611.931,595.949L611.637,591.887L611.305,587.839L610.935,583.805L610.528,579.787L610.083,575.783L609.601,571.795L609.082,567.823L608.526,563.867L607.934,559.927L607.306,556.005L606.642,552.099L605.942,548.211L605.207,544.341L604.437,540.489L603.632,536.655L602.792,532.84L601.918,529.045L601.009,525.268L600.067,521.512L599.091,517.776L598.081,514.06L597.039,510.365L595.963,506.691L594.855,503.039L593.714,499.408L592.541,495.799L591.337,492.213L590.1,488.65L588.832,485.11L587.533,481.593L586.203,478.1L584.842,474.631L583.451,471.186L582.03,467.766L580.579,464.372L579.098,461.002L577.588,457.659L576.048,454.341L574.48,451.05L572.883,447.786L571.257,444.548L569.603,441.338L567.922,438.156L566.212,435.002L564.476,431.876L562.712,428.779L560.921,425.711L559.103,422.672L557.26,419.663L555.39,416.684L553.494,413.735L551.572,410.817L549.625,407.93L547.653,405.074L545.656,402.25L543.634,399.458L541.588,396.698L539.518,393.971L537.424,391.277L535.306,388.616L533.165,385.989L531.001,383.396L528.814,380.837L526.604,378.312L524.372,375.823L522.118,373.368L519.842,370.95L517.544,368.567L515.225,366.22L512.885,363.91L510.524,361.637L508.142,359.401L505.741,357.202L503.319,355.041L500.877,352.919L498.416,350.835L495.935,348.789L493.435,346.783L490.917,344.816L488.38,342.889L485.824,341.002L483.251,339.155L480.66,337.349L478.051,335.585L475.425,333.861L472.781,332.179L470.121,330.539L467.445,328.941L464.752,327.386L462.043,325.874L459.318,324.405L456.578,322.979L453.822,321.598L451.051,320.26L448.265,318.967L445.465,317.719L442.651,316.516L439.822,315.358L436.979,314.246L434.123,313.18L431.253,312.161L428.37,311.188L425.475,310.262L422.566,309.383L419.645,308.552L416.712,307.769L413.767,307.034L410.81,306.347L407.841,305.71L404.861,305.122L401.87,304.583L398.868,304.094L395.856,303.655L392.833,303.266L389.8,302.928L386.757,302.642L383.704,302.406L380.642,302.223L377.57,302.091L374.489,302.012L371.399,301.985L368.31,302.012L365.229,302.091L362.157,302.223L359.095,302.406L356.042,302.642L352.999,302.928L349.966,303.266L346.943,303.655L343.93,304.094L340.928,304.583L337.937,305.122L334.958,305.71L331.989,306.347L329.032,307.034L326.087,307.769L323.153,308.552L320.233,309.383L317.324,310.262L314.428,311.188L311.545,312.161L308.676,313.18L305.819,314.246L302.977,315.358L300.148,316.516L297.333,317.719L294.533,318.967L291.747,320.26L288.977,321.598L286.221,322.979L283.481,324.405L280.756,325.874L278.047,327.386L275.354,328.941L272.677,330.539L270.017,332.179L267.374,333.861L264.748,335.585L262.139,337.349L259.548,339.155L256.974,341.002L254.419,342.889L251.882,344.816L249.363,346.783L246.864,348.789L244.383,350.835L241.922,352.919L239.48,355.041L237.058,357.202L234.656,359.401L232.275,361.637L229.914,363.91L227.574,366.22L225.255,368.567L222.957,370.95L220.681,373.368L218.427,375.823L216.195,378.312L213.985,380.837L211.798,383.396L209.634,385.989L207.493,388.616L205.375,391.277L203.281,393.971L201.211,396.698L199.164,399.458L197.143,402.25L195.146,405.074L193.174,407.93L191.227,410.817L189.305,413.735L187.409,416.684L185.539,419.663L183.695,422.672L181.878,425.711L180.087,428.779L178.323,431.876L176.586,435.002L174.877,438.156L173.195,441.338L171.542,444.548L169.916,447.786L168.319,451.05L166.75,454.341L165.211,457.659L163.701,461.002L162.22,464.372L160.769,467.766L159.347,471.186L157.956,474.631L156.595,478.1L155.265,481.593L153.966,485.11L152.699,488.65L151.462,492.213L150.257,495.799L149.084,499.408L147.944,503.039L146.836,506.691L145.76,510.365L144.717,514.06L143.708,517.776L142.732,521.512L141.789,525.268L140.881,529.045L140.007,532.84L139.167,536.655L138.362,540.489L137.591,544.341L136.856,548.211L136.156,552.099L135.492,556.005L134.864,559.927L134.272,563.867L133.717,567.823L133.198,571.795L132.716,575.783L132.271,579.787L131.863,583.805L131.493,587.839L131.161,591.887L130.868,595.949L130.612,600.025L130.395,604.115L130.217,608.218L130.078,612.334L129.979,616.462L129.919,620.603L129.899,624.755L129.919,628.907L129.979,633.048L130.078,637.176L130.217,641.292L130.395,645.395L130.612,649.485L130.868,653.561L131.161,657.623L131.493,661.671L131.863,665.705L132.271,669.723L132.716,673.727L133.198,677.715L133.717,681.687L134.272,685.643L134.864,689.583L135.492,693.505L136.156,697.411L136.856,701.299L137.591,705.169L138.362,709.021L139.167,712.855L140.007,716.67L140.881,720.465L141.789,724.241L142.732,727.998L143.708,731.734L144.717,735.45L145.76,739.145L146.836,742.819L147.944,746.471L149.084,750.102L150.257,753.71L151.462,757.297L152.699,760.86L153.966,764.4L155.265,767.917L156.595,771.41L157.956,774.879L159.347,778.324L160.769,781.744L162.22,785.138L163.701,788.508L165.211,791.851L166.75,795.169L168.319,798.46L169.916,801.724L171.542,804.962L173.195,808.172L174.877,811.354L176.586,814.508L178.323,817.634L180.087,820.731L181.878,823.799L183.695,826.838L185.539,829.847L187.409,832.826L189.305,835.775L191.227,838.693L193.174,841.58L195.146,844.436L197.143,847.26L199.164,850.052L201.211,852.811L203.281,855.539L205.375,858.233L207.493,860.894L209.634,863.521L211.798,866.114L213.985,868.673L216.195,871.198L218.427,873.687L220.681,876.142L222.957,878.56L225.255,880.943L227.574,883.29L229.914,885.6L232.275,887.873L234.656,890.109L237.058,892.308L239.48,894.469L241.922,896.591L244.383,898.675L246.864,900.721L249.363,902.727L251.882,904.694L254.419,906.621L256.974,908.508L259.548,910.354L262.139,912.16L264.748,913.925L267.374,915.649L270.017,917.331L272.677,918.971L275.354,920.569L278.047,922.124L280.756,923.636L283.481,925.105L286.221,926.53L288.977,927.912L291.747,929.25L294.533,930.543L297.333,931.791L300.148,932.994L302.977,934.152L305.819,935.264L308.676,936.33L311.545,937.349L314.428,938.322L317.324,939.248L320.233,940.127L323.153,940.958L326.087,941.741L329.032,942.476L331.989,943.162L334.958,943.8L337.937,944.388L340.928,944.927L343.93,945.416L346.943,945.855L349.966,946.244L352.999,946.582L356.042,946.868L359.095,947.104L362.157,947.287L365.229,947.419L368.31,947.498L371.399,947.524Z" style="fill:rgb(242,206,103);"/>
            </g>
            <path d="M402.402,248.884C393.671,266.788 412.191,252.407 407.693,261.375C411.17,255.914 435.057,265.117 435.208,259.629Z" style="fill:rgb(102,167,46);stroke-width:2.58px;stroke-linecap:round;stroke-linejoin:round;stroke:rgb(11,87,47);"/>
            <g>
                <path d="M429.716,243.882C374.951,221.284 352.16,248.584 287.969,258.804L288.097,263.358C291.888,262.432 365.804,260.369 363.536,263.468L423.971,276.462C423.404,267.999 417.017,260.278 402.125,253.547C409.684,249.775 419.511,246.777 429.716,243.882Z" style="fill:rgb(102,167,46);stroke-width:2.58px;stroke-linecap:round;stroke-linejoin:round;stroke:rgb(11,87,47);"/>
                <path d="M289.359,261.929L289.303,259.87L298.619,258.18L298.986,258.192C311.387,258.433 323.738,258.135 335.7,257.927C363.574,248.886 391.732,244.725 420.116,244.011L424.992,243.973L414.447,247.182C409.722,248.777 405.338,250.493 401.483,252.409C401.029,252.647 400.803,253.104 400.84,253.562L400.954,253.879L394.982,255.07C386.818,256.525 378.277,257.549 369.357,258.214C389.199,259.307 406.888,262.738 420.607,272.278L422.195,273.533L422.233,273.608L422.422,274.833L364.368,262.349L363.877,261.911C359.19,259.533 307.222,260.792 291.835,261.744Z" style="fill:rgb(0,127,1);"/>
            </g>
            <g>
                <path d="M493.368,301.17C465.129,292.331 434.271,289.159 419.523,255.304C455.608,237.517 476.34,263.499 493.072,300.865" style="fill:rgb(102,167,46);stroke-width:1.99px;stroke-linecap:round;stroke-linejoin:round;stroke:rgb(11,87,47);"/>
                <path d="M424.78,263.252L421.261,256.46L422.454,255.948C439.791,255.245 462.824,270.588 490.404,298.865L472.054,293.627C453.57,288.277 436.152,281.596 424.78,263.252Z" style="fill:rgb(0,127,1);"/>
            </g>
            <g>
                <g>
                    <path d="M663.434,705.133C647.252,677.43 626.457,652.436 631.972,614.104C666.584,625.819 669.158,662.067 663.383,704.689" style="fill:rgb(102,167,46);stroke-width:2.17px;stroke-linecap:round;stroke-linejoin:round;stroke:rgb(11,87,47);"/>
                    <path d="M631.989,624.423L632.675,616.309L633.78,616.755L638.528,628.807C646.486,649.764 653.478,671.174 659.994,692.814L662.408,701.123L651.649,683.53C640.821,665.718 631.436,647.637 631.989,624.423Z" style="fill:rgb(0,127,1);"/>
                </g>
                <g>
                    <path d="M411.332,282.567C380.605,283.196 349.008,289.582 323.987,264.24C354.368,237.898 382.906,254.546 410.971,282.38" style="fill:rgb(102,167,46);stroke-width:1.97px;stroke-linecap:round;stroke-linejoin:round;stroke:rgb(11,87,47);"/>
                    <path d="M331.664,269.65L326.064,264.739L327.088,263.935L339.017,265.817C359.56,269.366 379.859,274.058 400.004,279.322L407.711,281.42L387.9,282.272C367.873,283.076 348.561,282.382 331.664,269.65Z" style="fill:rgb(0,127,1);"/>
                </g>
                <g>
                    <path d="M113.144,624.447C108.365,664.381 110.924,706.44 73.3728,734.548C44.6064,690.643 71.4801,656.484 112.836,624.883" style="fill:rgb(102,167,46);stroke-width:2.6px;stroke-linecap:round;stroke-linejoin:round;stroke:rgb(11,87,47);"/>
                    <path d="M81.8163,725.521L74.3988,731.939L73.5389,730.474L78.1615,715.33C86.5232,689.287 96.3326,663.787 106.856,638.551L110.99,628.946L108.49,654.777C105.891,680.866 101.468,705.787 81.8163,725.521Z" style="fill:rgb(0,127,1);"/>
                </g>
                <g>
                    <path d="M361.667,231.917C302.799,228.119 298.757,258.534 240.894,288.95L242.401,293.23C245.72,291.138 315.315,265.325 314.109,268.995L375.432,261.849C372.318,253.996 363.878,248.718 347.735,247.141C353.763,241.09 352.859,237.936 361.667,231.917Z" style="fill:rgb(102,167,46);stroke-width:2.58px;stroke-linecap:round;stroke-linejoin:round;stroke:rgb(11,87,47);"/>
                    <path d="M243.164,291.46L242.485,289.529L250.817,284.926L251.172,284.83C263.022,281.032 274.66,276.783 285.957,272.728C299.514,254.35 318.095,241.412 359.323,232.689L354.936,236.262C350.917,239.287 349.845,244.469 346.764,247.527C346.395,247.913 346.328,247.141 346.496,247.559L346.697,247.817L341.372,250.874C334.07,254.897 326.267,258.631 318.028,262.139C337.219,256.764 355.036,254.318 370.978,258.953L372.853,259.629L373.456,260.787L314.511,267.675L313.942,267.417C308.768,266.677 259.783,284.637 245.459,290.494Z" style="fill:rgb(0,127,1);stroke-width:1.65px;stroke-linejoin:bevel;stroke:black;"/>
                    <path d="M339.73,278.586C307.029,286.246 273.082,297.961 249.672,286.986C285.18,262.236 313.406,266.613 339.73,278.586" style="fill:rgb(102,167,46);stroke-width:1.63px;stroke-linecap:round;stroke-linejoin:round;stroke:rgb(11,87,47);"/>
                    <path d="M256.782,288.724L251.444,286.793L252.612,286.021L265.058,284.444C286.432,281.965 307.374,280.324 328.109,279.101L336.046,278.682L314.88,283.929C293.539,289.175 273.136,293.23 256.782,288.724Z" style="fill:rgb(0,127,1);stroke-width:1.65px;stroke-linejoin:bevel;stroke:black;"/>
                    <path d="M207.948,316.758C231.962,280.742 263.752,249.361 305.619,223.903C289.403,288.113 263.36,266.227 226.265,312.863Z" style="fill:rgb(102,167,46);stroke-width:2.73px;stroke-linecap:round;stroke-linejoin:round;stroke:rgb(11,87,47);"/>
                    <path d="M219.064,320.588L215.212,318.753L303.027,227.862L301.044,234.717C285.94,282.094 276.569,259.95 225.401,313.153Z" style="fill:rgb(0,127,1);stroke-width:1.65px;stroke-linejoin:bevel;stroke:black;"/>
                    <path d="M208.929,265.39C195.396,307.456 185.017,352.548 159.265,376.462C157.979,324.643 180.388,292.458 208.929,265.39" style="fill:rgb(102,167,46);stroke-width:2.31px;stroke-linecap:round;stroke-linejoin:round;stroke:rgb(11,87,47);"/>
                    <path d="M160.447,373.629L160.451,372.02L166.693,357.086C178.007,330.533 189.849,304.817 201.95,279.519L205.731,271.73L197.931,296.835C188.922,325.737 179.3,352.966 163.043,370.99Z" style="fill:rgb(0,127,1);stroke-width:1.65px;stroke-linejoin:bevel;stroke:black;"/>
                    <path d="M250.449,263.33C228.418,297.028 208.876,335.329 178.425,344.856C187.753,293.777 216.572,274.466 250.449,263.33" style="fill:rgb(102,167,46);stroke-width:1.99px;stroke-linecap:round;stroke-linejoin:round;stroke:rgb(11,87,47);"/>
                    <path d="M179.795,343.279L180.157,341.605L189.769,329.954C206.431,310.192 223.448,291.492 240.639,273.34L247.284,266.452L233.271,288.499C218.428,311.769 203.346,333.011 183.607,341.83Z" style="fill:rgb(0,127,1);stroke-width:1.65px;stroke-linejoin:bevel;stroke:black;"/>
                    <path d="M267.473,311.672C231.814,334.717 196.504,363.234 163.388,359.951C194.595,315.245 230.428,308.518 267.473,311.672" style="fill:rgb(102,167,46);stroke-width:2.09px;stroke-linecap:round;stroke-linejoin:round;stroke:rgb(11,87,47);"/>
                    <path d="M172.725,359.049L165.434,358.953L166.499,357.537L180.676,350.392C205.155,338.354 229.503,327.475 253.788,317.208L263.065,313.346L240.154,328.602C216.981,343.954 194.398,357.537 172.725,359.049Z" style="fill:rgb(0,127,1);stroke-width:1.65px;stroke-linejoin:bevel;stroke:black;"/>
                    <path d="M171.456,330.115C159.841,366.259 150.912,405.01 128.781,425.545C127.679,381 146.913,353.353 171.456,330.115" style="fill:rgb(102,167,46);stroke-width:1.97px;stroke-linecap:round;stroke-linejoin:round;stroke:rgb(11,87,47);"/>
                    <path d="M129.789,422.97L129.792,421.779L135.168,408.905C144.887,386.085 155.062,363.974 165.468,342.249L168.713,335.554L162.018,357.15C154.985,379.712 147.506,401.116 135.707,416.436Z" style="fill:rgb(0,127,1);stroke-width:1.65px;stroke-linejoin:bevel;stroke:black;"/>
                    <path d="M140.677,330.597C141.129,364.811 145.631,401.18 128.305,421.714C110.22,380.71 121.617,353.835 140.677,330.597" style="fill:rgb(102,167,46);stroke-width:1.72px;stroke-linecap:round;stroke-linejoin:round;stroke:rgb(11,87,47);"/>
                    <path d="M128.533,419.944L127.954,418.528L129.233,405.879C131.655,384.154 134.86,363.04 138.45,342.216L139.893,334.267L140.486,356.442C141.072,379.906 140.526,401.985 130.573,417.208Z" style="fill:rgb(0,127,1);stroke-width:1.65px;stroke-linejoin:bevel;stroke:black;"/>
                    <path d="M213.431,350.713C186.075,381.965 160.595,418.271 128.208,423.839C145.182,373.179 177.344,357.408 213.431,350.713" style="fill:rgb(102,167,46);stroke-width:2.07px;stroke-linecap:round;stroke-linejoin:round;stroke:rgb(11,87,47);"/>
                    <path d="M129.846,422.423L130.479,420.717L141.913,410.224C161.76,392.394 181.818,375.689 201.98,359.564L209.737,353.449L192.261,373.951C173.75,395.612 155.296,415.181 133.922,421.457Z" style="fill:rgb(0,127,1);stroke-width:1.65px;stroke-linejoin:bevel;stroke:black;"/>
                    <path d="M106.78,395.129C104.269,421.135 131.373,440.768 92.1949,467.225C83.447,441.283 81.7858,414.28 106.78,395.129Z" style="fill:rgb(102,167,46);stroke-width:2.58px;stroke-linecap:round;stroke-linejoin:round;stroke:rgb(11,87,47);"/>
                    <path d="M103.039,399.989L103.338,399.7L105.364,397.994L105.293,400.086C105.903,423.195 124.832,439.481 97.9253,461.399L94.8742,463.652L95.5072,461.946C102.128,441.83 98.6052,423.034 101.968,404.817Z" style="fill:rgb(0,127,1);stroke-width:1.65px;stroke-linejoin:bevel;stroke:black;"/>
                    <path d="M75.0942,556.958C79.9237,534.846 84.6727,512.477 82.1843,491.686C65.9175,460.82 77.5826,448.396 74.2368,420.749C85.7311,429.6 95.7919,441.734 98.431,454.801C102.828,436.616 112.836,419.494 121.771,406.716C125.817,420.105 129.739,433.462 128.858,448.01C140.955,437.035 153.022,435.49 165.149,434.782C128.004,462.815 153.856,482.062 97.6038,523.71L84.2708,563.395Z" style="fill:rgb(102,167,46);stroke-width:2.58px;stroke-linecap:round;stroke-linejoin:round;stroke:rgb(11,87,47);"/>
                    <path d="M82.6398,559.951L90.8385,520.974C120.365,498.734 129.642,452.999 155.621,437.807L157.969,436.713L161.14,436.423L157.962,439.03C129.525,464.746 149.65,483.575 96.8,522.712C96.589,522.873 96.4316,523.099 96.3512,523.324L84.1804,559.532ZM75.8846,423.903L81.558,428.86C89.2309,436.488 95.2192,445.532 97.1383,455.059C97.3392,456.056 98.5047,456.346 99.2114,455.831L99.2482,455.799L99.3018,455.96C103.515,469.993 102.929,488.081 94.4824,513.507C90.9825,485.667 87.6367,459.339 79.2572,433.462ZM121.148,410.031L121.299,409.806L123.118,416.018L124.574,422.487C125.964,429.471 126.996,436.294 127.458,442.86L127.549,445.049L127.542,447.913L127.686,448.493L127.723,449.33C127.917,470.636 120.988,488.789 99.0339,500.376C108.14,477.363 114.122,454.383 118.074,431.37Z" style="fill:rgb(0,127,1);stroke-width:1.65px;stroke-linejoin:bevel;stroke:black;"/>
                    <path d="M36.1871,501.663C57.8662,560.691 86.6856,620.299 74.4612,669.961C23.3398,613.186 23.1389,557.312 36.1871,501.663" style="fill:rgb(102,167,46);stroke-width:2.58px;stroke-linecap:round;stroke-linejoin:round;stroke:rgb(11,87,47);"/>
                    <path d="M73.6842,667.032L66.5204,658.567L63.7808,654.93L59.3632,641.477C46.891,601.502 39.7138,561.818 36.8302,522.519L36.0264,509.098L36.5756,506.394L51.8076,546.369C67.073,586.665 79.937,625.706 74.9803,660.337Z" style="fill:rgb(0,127,1);stroke-width:1.65px;stroke-linejoin:bevel;stroke:black;"/>
                    <path d="M127.173,525.384C123.781,556.99 95.5642,590.881 63.2985,618.367C49.8416,590.656 102.206,554.512 127.173,525.384" style="fill:rgb(102,167,46);stroke-width:2.58px;stroke-linecap:round;stroke-linejoin:round;stroke:rgb(11,87,47);"/>
                    <path d="M63.9114,616.082L63.1176,613.701L125.01,530.726L124.953,531.113C119.815,556.604 99.3186,583.414 74.2703,606.845Z" style="fill:rgb(0,127,1);stroke-width:1.65px;stroke-linejoin:bevel;stroke:black;"/>
                    <path d="M72.0732,497.575C80.0241,546.433 94.7604,597.383 71.8957,631.467C34.9044,577.524 47.1054,535.908 72.0732,497.575" style="fill:rgb(102,167,46);stroke-width:2.58px;stroke-linecap:round;stroke-linejoin:round;stroke:rgb(11,87,47);"/>
                    <path d="M71.8455,628.956L70.7168,627.186L70.0403,608.519C69.2399,576.719 69.8025,545.596 71.0451,514.795L71.6479,502.693L77.318,534.621C83.1924,568.029 86.9971,599.829 74.5818,624.29Z" style="fill:rgb(0,127,1);stroke-width:1.65px;stroke-linejoin:bevel;stroke:black;"/>
                    <path d="M105.046,524.45C96.9239,572.889 92.1681,624.322 70.2379,654.093C63.0205,596.61 80.7777,558.084 105.046,524.45" style="fill:rgb(102,167,46);stroke-width:2.58px;stroke-linecap:round;stroke-linejoin:round;stroke:rgb(11,87,47);"/>
                    <path d="M71.179,650.36L70.9848,648.461L75.1109,631.628C82.901,600.73 91.294,570.669 99.9783,541.026L102.339,533.108L97.9488,560.82C92.6437,594.067 86.5483,625.577 73.0345,647.592Z" style="fill:rgb(0,127,1);stroke-width:1.65px;stroke-linejoin:bevel;stroke:black;"/>
                    <path d="M31.1835,625.126C64.4539,653.289 80.9284,709.356 86.9636,764.586C45.0155,757.087 44.7643,673.984 31.1835,625.126" style="fill:rgb(102,167,46);stroke-width:3.47px;stroke-linecap:round;stroke-linejoin:round;stroke:rgb(11,87,47);"/>
                    <path d="M84.8536,762.172L81.5848,761.142L35.668,631.66L35.956,631.917C60.9105,657.183 75.3521,699.571 82.4389,744.116Z" style="fill:rgb(0,127,1);stroke-width:1.65px;stroke-linejoin:bevel;stroke:black;"/>
                    <path d="M89.1003,789.819C77.5123,751.261 64.953,760.144 83.8622,722.23C84.378,697.19 108.304,684.058 42.7347,603.755C62.8765,653.707 56.4327,704.85 71.1154,770.09C72.6527,776.848 73.4598,785.957 71.447,793.199Z" style="fill:rgb(102,167,46);stroke-width:2.58px;stroke-linecap:round;stroke-linejoin:round;stroke:rgb(11,87,47);"/>
                    <path d="M50.766,615.76L58.0102,625.641C81.5714,659.339 94.2379,673.694 82.5058,723.903Z" style="fill:rgb(0,127,1);stroke-width:1.65px;stroke-linejoin:bevel;stroke:black;"/>
                    <path d="M57.4408,768.03C89.2276,793.263 127.374,815.609 127.602,850.502C70.6633,839.871 58.2681,806.858 57.4408,768.03" style="fill:rgb(102,167,46);stroke-width:2.58px;stroke-linecap:round;stroke-linejoin:round;stroke:rgb(11,87,47);"/>
                    <path d="M126.162,848.892L124.333,848.49L114.112,837.524C96.7967,818.451 80.8882,798.96 65.6797,779.262L59.7584,771.409L81.0255,787.695C103.09,804.682 122.592,821.805 125.817,844.254Z" style="fill:rgb(0,127,1);stroke-width:1.65px;stroke-linejoin:bevel;stroke:black;"/>
                    <path d="M119.728,755.992C137.144,795.033 139.227,841.258 112.032,864.473C82.891,816.256 89.9878,781.998 119.862,755.864" style="fill:rgb(102,167,46);stroke-width:2.58px;stroke-linecap:round;stroke-linejoin:round;stroke:rgb(11,87,47);"/>
                    <path d="M112.347,862.375L111.463,860.791L113.335,846.157L119.269,757.666C133.312,791.3 139.77,828.532 116.563,859.343Z" style="fill:rgb(5,147,63);stroke-width:1.65px;stroke-linejoin:bevel;stroke:black;"/>
                    <path d="M172.618,904.084C136.829,883.392 130.844,854.563 117.869,814.399C111.61,795.098 92.3188,766.066 73.634,761.786C77.6596,778.426 81.9566,795.033 89.4754,811.692C75.3956,801.831 60.7866,791.589 45.6686,781.676C63.5028,830.733 92.215,869.526 145.456,901.351C151.642,905.049 158.408,911.477 162.078,918.097Z" style="fill:rgb(102,167,46);stroke-width:2.58px;stroke-linecap:round;stroke-linejoin:round;stroke:rgb(11,87,47);"/>
                    <path d="M76.1157,766.034L75.543,763.878L80.0777,765.648C95.8388,774.081 111.148,797.93 116.61,814.776C127.964,849.945 134.049,876.907 160.008,897.174L163.609,899.787L161.248,905.89C117.746,859.607 116.758,810.154 78.8586,768.802ZM48.7464,785.828L48.4584,785.088L67.1902,797.737C74.488,802.761 81.6552,807.785 88.6984,812.716C88.9663,812.906 89.2577,812.98 89.5357,812.964L90.0917,812.755L94.891,824.998C100.715,838.374 108.164,851.747 116.182,865.12C94.968,834.898 79.8667,813.047 50.066,786.955Z" style="fill:rgb(0,127,1);stroke-width:1.65px;stroke-linejoin:bevel;stroke:black;"/>
                    <path d="M103.261,883.659C142.513,897.798 186.879,907.177 199.096,940.647C140.701,948.526 117.417,920.73 103.261,883.659" style="fill:rgb(102,167,46);stroke-width:2.63px;stroke-linecap:round;stroke-linejoin:round;stroke:rgb(11,87,47);"/>
                    <path d="M106.713,886.215L132.713,895.085C159.767,904.386 184.407,914.654 195.228,935.207L197.154,939.552L195.248,939.745L181.671,932.465C158.458,919.623 136.461,905.941 115.063,891.847ZM105.417,885.339L104.948,884.238L104.952,884.238L105.431,885.346Z" style="fill:rgb(0,127,1);stroke-width:1.65px;stroke-linejoin:bevel;stroke:black;"/>
                    <path d="M175.813,860.675C198.544,893.714 228.241,925.806 217.855,959.259C166.63,933.102 164.794,898.039 175.813,860.675" style="fill:rgb(102,167,46);stroke-width:2.58px;stroke-linecap:round;stroke-linejoin:round;stroke:rgb(11,87,47);"/>
                    <path d="M216.967,957.312L215.32,956.401L208.886,943.06C198.125,919.951 188.838,896.842 180.274,873.733L177.009,864.596L192.388,886.115C208.33,908.538 221.783,930.392 218.046,952.78Z" style="fill:rgb(0,127,1);stroke-width:1.65px;stroke-linejoin:bevel;stroke:black;"/>
                    <path d="M264.86,987.338L217.125,946.25L149.452,873.685C157.627,903.694 168.318,932.793 196.481,955.149C175.21,943.691 149.452,937.988 122.394,933.926C148.595,956.331 177.32,973.949 215.196,973.897L254.197,990.74Z" style="fill:rgb(102,167,46);stroke-width:2.58px;stroke-linecap:round;stroke-linejoin:round;stroke:rgb(11,87,47);"/>
                    <path d="M152.436,878.941L152.366,878.709L216.144,947.097L216.244,947.193L262.288,986.826L260.175,987.502L257.7,986.031C213.829,958.818 178.61,924.512 156.475,886.372ZM127.083,936.115L126.939,935.993L142.134,938.59C161.713,942.426 180.04,947.747 195.834,956.253C196.528,956.627 197.204,956.353 197.556,955.861L197.773,955.098L205.031,961.406C182.753,960.157 155.102,950.151 130.141,937.711Z" style="fill:rgb(0,127,1);stroke-width:1.65px;stroke-linejoin:bevel;stroke:black;"/>
                    <path d="M479.122,1087.35C459.094,1064.81 396.565,1025.81 365.485,1019.1C370.643,1014.24 316.755,1012.62 258.082,1013.02L195.392,993.794L186.497,990.045C218.833,975.397 253.691,976.292 288.398,990.045C265.577,967.216 244.196,945.272 249.923,928.294C277.008,941.638 310.472,958.58 331.157,986.633L364.615,1014.04L396.231,1017.83C366.055,1018.35 465.056,1040.22 499.451,1051.4C472.859,1069.35 502.867,1073.92 479.122,1087.35Z" style="fill:rgb(102,167,46);stroke-width:2.58px;stroke-linecap:round;stroke-linejoin:round;stroke:rgb(11,87,47);"/>
                    <path d="M364.414,1015.56L297.652,1004.76C274.017,992.581 240.85,991.67 209.626,990.959L194.716,992.449L188.409,989.527C214.298,978.699 249.079,974.007 287.896,991.216C289.091,991.689 290.21,990.379 289.493,989.346L289.255,988.992L293.609,991.377C295.719,992.597 297.806,993.868 299.862,995.191C308.536,1000.8 322.382,1001.81 335.444,1002.22C312.281,980.853 282.698,970.132 265.55,950.727L251.407,930.608L250.985,930.328L275.393,941.767C292.313,954.303 310.288,959.79 330.118,987.071L328.846,986.115L363.777,1015C363.978,1015.18 364.246,1015.28 364.514,1015.3L364.514,1015.3Z" style="fill:rgb(0,127,1);"/>
                    <path d="M479.892,1087.02C467.433,1073.64 405.541,1029.59 384.341,1025.84C377.375,1024.49 370.375,1023.25 363.375,1022.12L361.969,1021.92L373.389,1023.52C401.79,1026.75 435.081,1041.41 479.624,1069.43Z" style="fill:rgb(0,127,1);"/>
                    <path d="M532.842,265.39C546.373,307.456 556.755,352.548 582.51,376.462C583.816,324.643 561.411,292.458 532.842,265.39" style="fill:rgb(102,167,46);stroke-width:2.31px;stroke-linecap:round;stroke-linejoin:round;stroke:rgb(11,87,47);"/>
                    <path d="M581.338,373.629L578.726,370.99C562.482,352.966 552.87,325.737 543.861,296.867L536.057,271.73L539.842,279.519C551.932,304.817 563.788,330.533 575.109,357.086L581.338,372.02Z" style="fill:rgb(0,127,1);stroke-width:1.65px;stroke-linejoin:bevel;stroke:black;"/>
                    <path d="M497.14,270.958C519.144,304.656 532.909,335.329 563.353,344.856C554.042,293.777 531.302,282.673 497.442,271.569" style="fill:rgb(102,167,46);stroke-width:1.99px;stroke-linecap:round;stroke-linejoin:round;stroke:rgb(11,87,47);"/>
                    <path d="M561.98,343.279L558.162,341.83C538.435,333.011 523.364,311.769 508.494,288.499L499.049,271.602L501.159,273.34C533.78,296.964 547.445,314.44 551.999,329.954L561.611,341.573Z" style="fill:rgb(0,127,1);stroke-width:1.65px;stroke-linejoin:bevel;stroke:black;"/>
                    <path d="M474.299,311.672C509.968,334.749 545.301,363.234 578.391,359.951C547.177,315.245 511.341,308.518 474.299,311.672" style="fill:rgb(102,167,46);stroke-width:2.09px;stroke-linecap:round;stroke-linejoin:round;stroke:rgb(11,87,47);"/>
                    <path d="M499.987,327.508L478.687,313.346L487.997,317.208C512.279,327.475 536.627,338.354 561.109,350.392L575.276,357.537L576.381,359.017L572.161,359.178C549.019,358.792 524.838,344.051 499.987,327.508Z" style="fill:rgb(0,127,1);stroke-width:1.65px;stroke-linejoin:bevel;stroke:black;"/>
                    <path d="M570.319,330.115C581.941,366.259 590.883,405.01 613.021,425.545C614.093,381 594.868,353.353 570.319,330.115" style="fill:rgb(102,167,46);stroke-width:1.97px;stroke-linecap:round;stroke-linejoin:round;stroke:rgb(11,87,47);"/>
                    <path d="M611.983,422.97L606.055,416.436C594.266,401.116 586.797,379.712 579.764,357.15L573.032,335.457L576.314,342.249C586.73,363.974 596.911,386.085 606.624,408.905L611.983,421.714Z" style="fill:rgb(0,127,1);stroke-width:1.65px;stroke-linejoin:bevel;stroke:black;"/>
                    <path d="M601.098,330.597C600.663,364.811 596.141,401.18 613.49,421.714C631.575,380.71 620.188,353.835 601.098,330.597" style="fill:rgb(102,167,46);stroke-width:1.72px;stroke-linecap:round;stroke-linejoin:round;stroke:rgb(11,87,47);"/>
                    <path d="M613.255,419.944L611.212,417.208C601.265,401.985 600.696,379.906 601.299,356.442L601.868,334.267L603.308,342.216C606.925,363.04 610.141,384.154 612.552,405.911L613.825,418.528Z" style="fill:rgb(0,127,1);stroke-width:1.65px;stroke-linejoin:bevel;stroke:black;"/>
                    <path d="M528.354,350.713C555.717,381.965 581.204,418.271 613.59,423.839C596.61,373.179 564.458,357.408 528.354,350.713" style="fill:rgb(102,167,46);stroke-width:2.07px;stroke-linecap:round;stroke-linejoin:round;stroke:rgb(11,87,47);"/>
                    <path d="M611.949,422.423L607.863,421.457C586.496,415.181 568.042,395.612 549.521,373.951L532.038,353.449L539.809,359.564C559.97,375.689 580.032,392.394 599.859,410.224L611.313,420.717Z" style="fill:rgb(0,127,1);stroke-width:1.65px;stroke-linejoin:bevel;stroke:black;"/>
                    <path d="M634.991,395.129C637.537,421.135 610.409,440.768 649.594,467.225C658.335,441.315 660.009,414.28 634.991,395.129Z" style="fill:rgb(102,167,46);stroke-width:2.58px;stroke-linecap:round;stroke-linejoin:round;stroke:rgb(11,87,47);"/>
                    <path d="M646.914,463.652L643.833,461.399C616.939,439.481 635.862,423.195 636.498,400.086L636.398,397.994L638.441,399.7L638.742,399.989L639.814,404.817C643.163,423.034 639.647,441.83 646.278,461.946Z" style="fill:rgb(0,127,1);stroke-width:1.65px;stroke-linejoin:bevel;stroke:black;"/>
                    <path d="M666.708,556.958C661.851,534.846 657.096,512.477 659.608,491.686C675.884,460.82 664.229,448.396 667.545,420.749C656.057,429.6 646.01,441.734 643.364,454.801C638.943,436.648 628.963,419.494 620.021,406.748C616.002,420.105 612.05,433.462 612.92,448.01C600.83,437.035 588.773,435.49 576.649,434.782C613.791,462.815 587.936,482.062 644.168,523.71L657.498,563.395Z" style="fill:rgb(102,167,46);stroke-width:2.58px;stroke-linecap:round;stroke-linejoin:round;stroke:rgb(11,87,47);"/>
                    <path d="M659.139,559.951L657.598,559.532L645.441,523.324C645.34,523.099 645.206,522.873 644.972,522.712C591.821,483.317 612.385,464.843 583.85,439.062L580.635,436.423L583.816,436.713L586.161,437.807C612.15,452.999 621.427,498.734 650.933,520.974ZM642.527,455.799L642.56,455.831C643.264,456.346 644.436,456.056 644.637,455.059C646.579,445.564 652.541,436.488 660.21,428.86L665.904,423.903L662.521,433.462C654.148,459.339 650.799,485.667 647.316,513.507C638.843,488.081 638.273,469.993 642.493,455.96ZM614.093,448.461L614.227,447.913L614.227,445.21L614.327,442.86C614.796,436.294 615.834,429.471 617.207,422.487L618.647,416.146L620.489,409.838L620.657,410.063L623.705,431.37C627.657,454.383 633.652,477.363 642.728,500.376C620.791,488.789 613.858,470.636 614.059,449.33Z" style="fill:rgb(0,127,1);stroke-width:1.65px;stroke-linejoin:bevel;stroke:black;"/>
                    <path d="M705.591,501.663C683.922,560.691 655.086,620.299 667.311,669.961C718.452,613.186 718.653,557.312 705.591,501.663" style="fill:rgb(102,167,46);stroke-width:2.58px;stroke-linecap:round;stroke-linejoin:round;stroke:rgb(11,87,47);"/>
                    <path d="M668.081,667.032L666.808,660.337C661.851,625.706 674.712,586.665 689.984,546.369L705.189,506.394L705.759,509.162L704.955,522.519C702.075,561.818 694.908,601.502 682.415,641.477L677.994,654.898L675.248,658.567Z" style="fill:rgb(0,127,1);stroke-width:1.65px;stroke-linejoin:bevel;stroke:black;"/>
                    <path d="M614.628,525.384C618.011,556.99 646.211,590.881 678.497,618.367C691.927,590.656 639.58,554.512 614.628,525.384" style="fill:rgb(102,167,46);stroke-width:2.58px;stroke-linecap:round;stroke-linejoin:round;stroke:rgb(11,87,47);"/>
                    <path d="M677.86,616.082L667.512,606.845C642.46,583.414 621.963,556.604 616.839,531.113L616.772,530.694L678.664,613.668Z" style="fill:rgb(0,127,1);stroke-width:1.65px;stroke-linejoin:bevel;stroke:black;"/>
                    <path d="M669.722,497.575C661.751,546.433 647.015,597.383 669.889,631.467C706.897,577.524 694.673,535.908 669.722,497.575" style="fill:rgb(102,167,46);stroke-width:2.58px;stroke-linecap:round;stroke-linejoin:round;stroke:rgb(11,87,47);"/>
                    <path d="M669.923,628.956L667.21,624.29C654.785,599.829 658.569,568.029 664.464,534.621L670.124,502.693L670.727,514.795C671.966,545.596 672.535,576.719 671.731,608.519L671.062,627.186Z" style="fill:rgb(0,127,1);stroke-width:1.65px;stroke-linejoin:bevel;stroke:black;"/>
                    <path d="M636.733,524.45C644.871,572.889 649.627,624.322 671.53,654.093C678.765,596.61 661.014,558.084 636.733,524.45" style="fill:rgb(102,167,46);stroke-width:2.58px;stroke-linecap:round;stroke-linejoin:round;stroke:rgb(11,87,47);"/>
                    <path d="M670.593,650.36L668.751,647.592C655.22,625.577 649.125,594.067 643.833,560.82L639.412,533.044L641.824,541.026C650.498,570.669 658.904,600.73 666.674,631.628L670.794,648.429Z" style="fill:rgb(0,127,1);stroke-width:1.65px;stroke-linejoin:bevel;stroke:black;"/>
                    <path d="M710.615,625.126C677.358,653.289 660.847,709.356 654.818,764.586C696.783,757.087 697.017,673.984 710.615,625.126" style="fill:rgb(102,167,46);stroke-width:3.47px;stroke-linecap:round;stroke-linejoin:round;stroke:rgb(11,87,47);"/>
                    <path d="M656.928,762.172L659.34,744.116C666.44,699.571 680.875,657.183 705.826,631.917L706.161,631.596L660.244,761.142Z" style="fill:rgb(0,127,1);stroke-width:1.65px;stroke-linejoin:bevel;stroke:black;"/>
                    <path d="M654.081,774.241C665.669,735.683 652.608,760.37 629.398,694.969C623.437,676.913 624.542,637.228 641.991,633.591C648.723,651.776 661.885,669.639 663.693,700.955C658.904,670.991 680.54,616.372 697.989,603.626C677.827,653.578 685.362,704.85 670.66,770.09C669.119,776.848 668.315,785.957 670.325,793.199Z" style="fill:rgb(102,167,46);stroke-width:2.58px;stroke-linecap:round;stroke-linejoin:round;stroke:rgb(11,87,47);"/>
                    <path d="M637.403,636.617C639.647,635.78 638.977,633.945 640.249,635.072C643.398,694.003 660.445,702.79 659.574,751.164C658.904,753.546 651.938,739.835 657.799,747.56C635.929,721.329 612.82,665.712 637.403,636.617ZM663.861,689.497C660.813,673.726 685.865,608.776 691.726,611.254L693.032,609.903L688.645,618.174C670.693,654.673 672.971,665.358 668.65,700.633C667.645,696.61 670.157,737.293 668.148,732.175C666.641,728.281 663.124,692.78 663.861,689.497Z" style="fill:rgb(0,127,1);stroke-width:1.65px;stroke-linejoin:bevel;stroke:black;"/>
                    <path d="M684.358,768.03C652.574,793.263 614.428,815.609 614.193,850.502C671.129,839.871 683.52,806.858 684.358,768.03" style="fill:rgb(102,167,46);stroke-width:2.58px;stroke-linecap:round;stroke-linejoin:round;stroke:rgb(11,87,47);"/>
                    <path d="M615.633,848.892L615.968,844.254C619.183,821.805 638.675,804.682 660.746,787.695L682.013,771.441L676.085,779.262C660.88,798.96 644.972,818.451 627.657,837.524L617.442,848.49Z" style="fill:rgb(0,127,1);stroke-width:1.65px;stroke-linejoin:bevel;stroke:black;"/>
                    <path d="M611.279,759.404C610.141,798.992 602.538,841.322 629.767,864.473C658.904,816.256 641.154,785.571 611.279,759.404" style="fill:rgb(102,167,46);stroke-width:2.58px;stroke-linecap:round;stroke-linejoin:round;stroke:rgb(11,87,47);"/>
                    <path d="M629.432,862.375L626.016,859.069C610.543,841.947 609.973,816.562 611.179,789.433L612.418,763.395L614.662,772.793C620.088,796.739 624.877,821.078 628.46,846.157L630.302,860.782Z" style="fill:rgb(5,147,63);stroke-width:1.65px;stroke-linejoin:bevel;stroke:black;"/>
                    <path d="M569.181,904.084C604.949,883.392 610.944,854.563 623.906,814.399C630.169,795.098 649.46,766.066 668.148,761.786C664.129,778.426 659.842,795.033 652.306,811.692C666.406,801.831 681.009,791.589 696.113,781.676C678.296,830.733 649.56,869.526 596.342,901.351C590.146,905.049 583.381,911.477 579.73,918.097Z" style="fill:rgb(102,167,46);stroke-width:2.58px;stroke-linecap:round;stroke-linejoin:round;stroke:rgb(11,87,47);"/>
                    <path d="M580.534,905.89L578.156,899.784L581.773,897.174C607.729,876.907 613.825,849.945 625.178,814.776C630.604,797.93 645.943,774.081 661.684,765.648L666.239,763.878L665.669,766.034L662.923,768.802C625.011,810.154 624.04,859.607 580.534,905.89ZM651.67,812.755L652.239,812.964C652.507,812.98 652.809,812.906 653.077,812.716C660.11,807.785 667.277,802.761 674.578,797.737L693.333,785.088L693.032,785.828L691.726,786.955C661.918,813.07 646.814,834.924 625.614,865.12C633.618,851.747 641.053,838.374 646.881,824.998Z" style="fill:rgb(0,127,1);stroke-width:1.65px;stroke-linejoin:bevel;stroke:black;"/>
                    <path d="M638.541,883.659C599.289,897.798 554.913,907.177 542.689,940.647C601.098,948.526 624.374,920.73 638.541,883.659" style="fill:rgb(102,167,46);stroke-width:2.63px;stroke-linecap:round;stroke-linejoin:round;stroke:rgb(11,87,47);"/>
                    <path d="M546.54,939.761L543.225,939.411L544.631,939.552L546.54,935.207C557.358,914.654 582.008,904.386 609.069,895.085L635.092,886.198L626.719,891.853C605.318,905.951 583.347,919.629 560.138,932.468Z" style="fill:rgb(0,127,1);stroke-width:1.65px;stroke-linejoin:bevel;stroke:black;"/>
                    <path d="M565.965,860.675C543.225,893.714 513.551,925.806 523.934,959.259C575.176,933.102 576.984,898.039 565.965,860.675" style="fill:rgb(102,167,46);stroke-width:2.58px;stroke-linecap:round;stroke-linejoin:round;stroke:rgb(11,87,47);"/>
                    <path d="M524.804,957.312L523.733,952.78C519.982,930.392 533.445,908.538 549.387,886.115L564.793,864.58L561.511,873.743C552.937,896.852 543.66,919.958 532.909,943.064L526.479,956.398Z" style="fill:rgb(0,127,1);stroke-width:1.65px;stroke-linejoin:bevel;stroke:black;"/>
                    <path d="M476.912,987.338L524.67,946.25L592.323,873.685C584.151,903.694 573.467,932.793 545.301,955.149C566.568,943.691 592.323,937.988 619.384,933.926C593.194,956.331 564.458,973.949 526.579,973.897L487.595,990.74Z" style="fill:rgb(102,167,46);stroke-width:2.58px;stroke-linecap:round;stroke-linejoin:round;stroke:rgb(11,87,47);"/>
                    <path d="M481.6,987.502L479.49,986.826L525.541,947.193L525.642,947.097L589.409,878.709L589.342,878.96L585.29,886.372C563.186,924.512 527.953,958.818 484.079,986.031ZM536.761,961.406L543.995,955.101L544.229,955.861C544.564,956.353 545.268,956.627 545.937,956.253C561.745,947.747 580.065,942.426 599.658,938.59L614.829,935.993L614.695,936.115L611.648,937.711C586.663,950.151 559.033,960.157 536.761,961.406Z" style="fill:rgb(0,127,1);stroke-width:1.65px;stroke-linejoin:bevel;stroke:black;"/>
                    <path d="M251.269,1083.73C283.883,1073.44 343.247,1029.14 377.107,1023.62C411.972,1017.92 447.573,1015.01 484.045,1015.42L546.741,989.391L555.282,990.045C522.962,975.397 488.098,976.292 453.4,990.045C480.395,975.684 494.394,949.765 487.964,930.962C460.903,944.306 431.296,958.58 410.632,986.659L377.174,1014.04C343.013,1024.29 302.233,1034.55 264.703,1044.8C263.125,1058.1 251.062,1066.81 251.269,1083.73Z" style="fill:rgb(102,167,46);stroke-width:2.58px;stroke-linecap:round;stroke-linejoin:round;stroke:rgb(11,87,47);"/>
                    <path d="M377.241,1015.3L377.274,1015.3C377.542,1015.28 377.81,1015.18 378.011,1015L411.503,987.624L411.704,987.389C429.722,962.784 445.028,953.431 467.333,942.111L486.992,932.323L488.734,937.982L469.811,953.643C452.664,973.048 429.488,980.853 406.345,1002.22C419.407,1001.81 433.239,1000.8 441.946,995.191C443.989,993.868 446.099,992.597 448.209,991.377L452.53,989.015L452.295,989.346C451.592,990.379 452.697,991.689 453.903,991.216C484.012,979.282 514.154,977.135 542.622,986.479L546.875,988.136C546.641,988.117 546.406,988.149 546.205,988.233L540.143,990.756L532.172,990.959C500.925,991.67 467.768,992.581 444.123,1004.76L377.375,1015.56Z" style="fill:rgb(0,127,1);"/>
                    <path d="M257.442,1080.61L264.12,1068.46L266.625,1060.41C269.683,1059.45 280.183,1050.46 370.476,1022.48L379.82,1021.92L378.413,1022.13C337.754,1032.81 297.24,1062.17 257.442,1080.61Z" style="fill:rgb(0,127,1);"/>
                </g>
            </g>
            <path d="M250.559,1083.16C260.783,1078.74 272.223,1069.14 276.286,1043.78C253.469,1041.24 248.556,1058.78 250.559,1083.16Z" style="fill:rgb(238,153,72);stroke-width:2.67px;stroke-linecap:round;stroke-linejoin:round;stroke:rgb(11,87,47);"/>
            <path d="M499.838,1052.01C501.577,1060.33 505.999,1075.98 478.937,1086.67C476.216,1065.05 488.235,1052.77 499.838,1052.01Z" style="fill:rgb(238,153,72);stroke-width:2.58px;stroke-linecap:round;stroke-linejoin:round;stroke:rgb(11,87,47);"/>
            <path d="M318.511,978.616C318.802,994.037 338.875,1005.07 354.629,1013.35C359.769,1016.15 365.589,1010.67 366.118,1006.28C346.011,990.144 338.38,974.837 336.986,967.769C331.263,970.226 314.448,965.237 318.511,978.616Z" style="fill:rgb(117,170,219);"/>
            <path d="M382.257,1010.86L393.218,1016.64C405.577,1005.04 429.955,991.202 428.481,976.802L406.673,974.232C409.847,979.561 390.723,1000.08 382.257,1010.86Z" style="fill:rgb(117,170,219);"/>
            <path d="M322.227,971.624C326.176,970.868 324.237,967.089 329.306,968.449C333.206,979.523 349.262,1001.07 365.06,1009.91C366.799,1010.89 356.216,1008.7 357.955,1012.18C342.519,1002.62 320.979,982.812 322.227,971.624Z" style="fill:rgb(236,236,236);"/>
            <path d="M413.173,974.837C410.074,985.268 400.966,1000.2 388.833,1008.44L388.229,1012.67C401.608,1006.13 418.767,989.804 423.983,973.023Z" style="fill:rgb(230,230,230);"/>
            <g>
                <path d="M374.081,1028.33C377.532,1042.9 378.607,1059.59 386.175,1070.4L414.073,1064.7C391.963,1042.13 392.964,1033.35 387.103,1019.83Z" style="fill:rgb(117,170,219);"/>
                <path d="M426.984,1080.53C435.924,1086.6 436.703,1101.84 439.708,1114.6C443.196,1111.61 445.941,1105.78 458.257,1107.5C455.475,1095.19 454.065,1081.17 444.123,1071.94Z" style="fill:rgb(117,170,219);"/>
                <path d="M378.162,1027.29L383.17,1024.8C386.287,1033.67 395.227,1056.92 406.765,1068.41L394.226,1069.95C384.432,1059.32 382.688,1042.17 378.162,1027.29Z" style="fill:rgb(236,236,236);"/>
                <path d="M433.476,1076.01C431.547,1066.24 440.042,1072.62 440.376,1073.16C445.644,1080.81 452.099,1099.76 452.359,1107.45C444.123,1108.49 444.754,1110.3 442.713,1112.34C445.607,1105.46 437.779,1083.7 433.476,1076.01Z" style="fill:rgb(249,249,249);"/>
                <path d="M412.552,1088.31C426.093,1080.62 444.346,1071.71 445.904,1075.69C445.273,1072.84 442.639,1070.22 440.524,1067.96C439.968,1067.37 439.449,1066.83 439.041,1066.28C435.776,1062.3 433.661,1059.77 428.468,1057.15C421.419,1059.36 415.186,1062.08 409.77,1064.38C375.973,1073.79 385.285,1060.13 384.061,1063.98C380.87,1073.93 389.143,1094.92 412.552,1088.31Z" style="fill:rgb(117,170,219);"/>
                <path d="M384.246,1073.88C391.258,1072.26 391.48,1079.54 408.991,1072.53C417.375,1069.81 426.872,1063.57 435.887,1063.52C441.341,1064.93 442.787,1070.08 445.83,1073.3C438.855,1069.13 435.479,1071.58 423.793,1077.19C410.957,1084.92 395.821,1090.21 389.403,1083.52C387.622,1082.16 384.321,1076.01 384.246,1073.88Z" style="fill:white;"/>
            </g>
            <g>
                <path d="M365.474,1023.74L375.268,1029.18C370.337,1051.98 359.496,1066.44 352.065,1075.16L321.749,1070.67C329.467,1067.81 356.088,1043.14 365.474,1023.74Z" style="fill:rgb(117,170,219);"/>
                <path d="M289.984,1111C296.546,1107.43 303.916,1111.29 311.38,1115.94C310.837,1089.94 310.543,1080.76 313.457,1072.17L303.136,1063.78C293.328,1071.34 291.764,1096.46 289.984,1111Z" style="fill:rgb(117,170,219);"/>
                <path d="M365.17,1029.76C363.582,1042.76 343.314,1066.1 330.416,1072.62C344.202,1086.95 368.851,1041.81 370.945,1033.5C370.067,1032.54 366.656,1033.5 365.17,1029.76Z" style="fill:rgb(236,236,236);"/>
                <path d="M305.031,1064.52C315.646,1054.76 298.08,1099.83 304.406,1111.87C300.089,1110.75 298.171,1109.92 295.942,1110.63C295.199,1098.17 298.539,1074.08 305.031,1064.52Z" style="fill:rgb(249,249,249);"/>
                <path d="M298.445,1069.22C306.415,1059.08 313.451,1057.3 323.198,1061.16C330.071,1066.85 341.943,1077.44 353.882,1072.5C351.015,1081.97 342.416,1087.45 322.117,1080.89C310.327,1077.11 301.532,1068.8 298.445,1069.22Z" style="fill:rgb(117,170,219);"/>
                <path d="M301.687,1064.61C304.74,1061.91 311.272,1055.35 321.114,1066.56C331.294,1080.14 341.855,1078.36 352.156,1076.44C348.036,1085.75 329.693,1086.21 323.576,1079.77C309.225,1065.52 305.726,1066.02 301.687,1064.61Z" style="fill:white;"/>
            </g>
            <path d="M335.527,956.355C390.458,965.728 388.115,958.245 416.915,956.733C431.844,962.062 431.088,968.601 427.951,981.451C397.64,966.484 383.958,985.079 367.139,978.994C344.121,970.679 319.332,973.779 318.886,979.75C317.075,968.109 323.077,959.303 335.527,956.355Z" style="fill:rgb(117,170,219);"/>
            <path d="M324.279,961.722C319.736,965.388 317.797,971.964 318.156,974.383C328.554,970.679 341.446,966.182 358.408,970.075C378.855,977.142 385.658,970.453 397.035,968.525C422.736,966.295 427.687,970.566 428.972,976.084C429.841,971.927 431.088,966.295 426.629,961.986C415.101,958.849 405.69,960.853 396.657,962.894C380.556,968.336 364.833,966.068 347.788,962.024C335.886,959.53 330.338,960.739 324.279,961.722Z" style="fill:white;"/>
            <path d="M356.783,1013.31C358.106,1009.87 359.806,1006.7 363.813,1004.85C371.107,1002.84 377.797,1003.03 384.222,1004.32C389.627,1004.54 392.802,1008.97 395.561,1014.14C395.977,1017.24 396.203,1020.46 393.973,1024.39C388.493,1033.76 384.184,1031.42 379.46,1033.27C375.907,1033 373.564,1033.12 367.517,1032.13C361.394,1031.68 356.481,1027.33 356.556,1025.75C355.725,1022.04 355.8,1017.89 356.783,1013.31Z" style="fill:rgb(117,170,219);"/>
            <path d="M370.994,1004.24C365.325,1010.44 366.005,1020.98 369.444,1033.08C371.636,1033.68 373.904,1034.63 376.89,1033.53C389.892,1020.19 383.051,1007.87 380.934,1003.64C378.515,1002.65 372.695,1002.58 370.994,1004.24Z" style="fill:white;"/>
        </g>
    </g>
    <defs>
        <linearGradient id="tag1" x1="0" y1="0" x2="1" y2="0" gradientUnits="userSpaceOnUse" gradientTransform="matrix(6.77214e-05,-3.50064e-05,3.39899e-05,6.97707e-05,117.712,330.2)"><stop offset="0%" style="stop-color:rgb(254,0,7);stop-opacity:1"/><stop offset="100%" style="stop-color:rgb(221,0,6);stop-opacity:1"/></linearGradient>
        <linearGradient id="tag2" x1="0" y1="0" x2="1" y2="0" gradientUnits="userSpaceOnUse" gradientTransform="matrix(9.62097e-05,-4.97277e-05,4.82836e-05,9.9121e-05,117.712,330.199)"><stop offset="0%" style="stop-color:rgb(254,0,7);stop-opacity:1"/><stop offset="100%" style="stop-color:rgb(221,0,6);stop-opacity:1"/></linearGradient>
        <linearGradient id="tag3" x1="0" y1="0" x2="1" y2="0" gradientUnits="userSpaceOnUse" gradientTransform="matrix(0.000162104,-8.10709e-05,8.10709e-05,0.000162104,-33.8279,2.17889)"><stop offset="0%" style="stop-color:rgb(254,0,7);stop-opacity:1"/><stop offset="100%" style="stop-color:rgb(221,0,6);stop-opacity:1"/></linearGradient>
    </defs>
</svg>
