<?xml version="1.0" encoding="utf-8"?>
<!-- Generator: Adobe Illustrator 17.1.0, SVG Export Plug-In . SVG Version: 6.00 Build 0)  -->
<!DOCTYPE svg PUBLIC "-//W3C//DTD SVG 1.1//EN" "http://www.w3.org/Graphics/SVG/1.1/DTD/svg11.dtd">
<svg version="1.1" id="Layer_1" xmlns:sketch="http://www.bohemiancoding.com/sketch/ns"
	 xmlns="http://www.w3.org/2000/svg" xmlns:xlink="http://www.w3.org/1999/xlink" x="0px" y="0px" viewBox="220 10 60 80"
	 enable-background="new 220 10 60 80" xml:space="preserve">
<g id="Page-1" sketch:type="MSPage">
	<g id="ciudad-buenos-aires" sketch:type="MSArtboardGroup">
		<path id="Imported-Layers" sketch:type="MSShapeGroup" fill="#4DB9DF" d="M245.5,19.4c-14.1,0-25.5,13.7-25.5,30.7
			s11.5,30.7,25.5,30.7c14,0,25.5-13.7,25.5-30.7C271,33.3,259.6,19.4,245.5,19.4L245.5,19.4z M246.6,20.9c1.2,0.1,2.4,0.2,3.5,0.5
			c-0.1,0.3-0.5,0.9-1.4,1.7c-0.7,0.7-1.6,2.2-1.6,2.7l0,0c0.3,0.1,0.5,0.3,0.9,0.5c0.2-0.1,0.4-0.3,1-0.9c0.5-0.5,1.5-1.4,2.1-1.8
			c0.6-0.4,1.3-1,1.4-1.1s0.1-0.2,0.2-0.3c1.1,0.4,2,0.9,3,1.4c-0.3,0.3-0.9,0.9-1.5,1.2c-0.4,0.2-1.5,0.6-2.3,1
			c-1.5,0.5-2.9,1.1-3.1,1.4c0.2,0.3,0.4,0.5,0.5,0.9l1.1-0.3c1.3-0.4,2-0.6,4-1c1.5-0.2,2.2-0.5,3.3-1c0.1-0.1,0.3-0.2,0.5-0.4
			c1,0.7,1.8,1.5,2.7,2.3c-0.4,0.3-1.9,0.6-5.3,0.6c-3,0-3.8,0-4.8,0.2c-0.5,0.1-1.1,0.2-1.3,0.3c0.1,0.3,0.1,0.5,0.1,0.9v0.1
			c0.4,0,1.2,0,2.8,0c1.7,0,3.2,0.1,4.1,0.3c1.6,0.3,4.1,0.4,5.7,0.2l1-0.1c0.1,0.1,0.1,0.1,0.2,0.2l0.9,1.3
			c0.5,0.9,1.1,1.7,1.6,2.4c2.6,4.6,4,10.1,4,16.1c0,4-0.6,7.8-1.9,11.3l-4.8-10.4v-0.5l2-1.1l0.2-0.1l-2.6-1.6v-3.6
			c0.5-0.4,2,0.4,2.9-0.4c-1.5-0.3-1.7-0.9-2.9-0.7v-0.3c0-0.1-0.1-0.1-0.1-0.1c-0.1,0-0.1,0.1-0.1,0.1v5l-2.6,1.7l0.2,0.1l2.1,1.2
			v0.5l-4.9,10.6l-1.6-6.3v-1.5l2-1.1l0.2-0.1l-2.4-1.6v-2.7l1.9-1.2l0.2-0.1l-2.1-1.6V41c0.5-0.6,2.1,0.4,3-0.5
			c-1.6-0.3-1.7-0.9-3-0.7v-0.5c0-0.1-0.1-0.2-0.2-0.1l0,0c-0.1,0-0.1,0.1-0.1,0.1v6.4l0,0l-2.2,1.7l0.2,0.1l2,1.2v2.7l-2.4,1.6
			l0.2,0.1l2.1,1.2v0.5l-6.6,7.3H248c-1.4,0.1-0.4,0.7,0,1.3c0.9,1.4,1.9,2.7,3.4,3.3c-3.9-0.3-8.4-0.9-12.3-1.3l0.2-0.6
			c2-0.5,3.3-1.9,4.4-3.6c0.4-0.5,1.4-1.2,0-1.3h-0.7v-3.1c0.5-0.6,2.1,0.4,3-0.5c-1.6-0.3-1.7-0.9-3-0.7v-0.3
			c0-0.1-0.1-0.1-0.1-0.1l0,0c-0.1,0-0.1,0.1-0.1,0.1v4.6h-2.1v-6.2l1.6-3.4c0.7-0.2,1.6,1.4,2.8,1c-1.3-1-1.1-1.6-2.3-2l0.2-0.5
			l-0.1-0.1l-2.2,4.7v-3.8c0-0.1-0.1-0.2-0.2-0.2c-0.1,0-0.2,0.1-0.2,0.2V54l-3.1,5.4h-0.1l-2.7-5.6v-5.3c0-0.1-0.1-0.2-0.2-0.2
			c-0.1,0-0.2,0.1-0.2,0.2v5.1l-0.9,1.9l-2-4.3v-2.9l2-1.1l0.2-0.1l-2.6-1.6v-4.8c0.5-0.5,2.1,0.4,3-0.4c-1.6-0.3-1.7-0.9-3-0.7
			v-0.4c0-0.1-0.1-0.2-0.2-0.1l0,0c-0.1,0-0.1,0.1-0.1,0.1v6.2l-2.6,1.7l0.2,0.1l2.1,1.2v2.9l-3.7,8.2h-0.1l-0.6-2.4h1.3
			c0.1,0,0.1-0.1,0.1-0.1c0-0.1-0.1-0.1-0.1-0.1h-1.4l-0.2-0.9v-2.4l2-1.1l0.2-0.1l-2.4-1.6v-1.2l1.9-1.2l0.2-0.1l-2.1-1.6v-2.3v0.2
			c0.4-0.9,2.1,0.4,3.1-0.5c-1.6-0.3-1.7-0.9-3.1-0.7V43c0-0.1-0.1-0.1-0.1-0.1c-0.1,0-0.1,0.1-0.1,0.1v3.5l0,0l-2.1,1.6l-0.2,0.1
			l0.2,0.1l2,1.2v1.2l-2.4,1.6l0.2,0.1l2.1,1.2V56l-0.2,0.9H223l0,0c-0.1,0-0.1,0.1-0.1,0.1c0,0.1,0.1,0.1,0.1,0.1h1.3l-0.6,2.4
			h-1.3c-0.9-2.9-1.3-6.1-1.3-9.3c0-7.1,2.1-13.6,5.5-18.6l0,0l0.5-0.9c0.1-0.2,0.3-0.4,0.4-0.6l0.9,0.1c1.5,0.2,4.1,0.1,5.8-0.2
			c1.1-0.2,2.3-0.3,4.3-0.3h2.6v-0.1c0-0.2,0-0.5,0.1-0.7c-0.1-0.1-0.4-0.2-1.1-0.4c-1-0.2-1.7-0.3-4.9-0.3c-3.7,0-4.6-0.1-5.1-0.5
			c-0.1-0.1-0.1-0.1-0.1-0.2c0.7-0.7,1.5-1.4,2.3-2c0.2,0,0.5,0.1,1,0.3c1,0.4,2.1,0.7,3.2,1c1.1,0.1,3.7,0.7,4.5,1.1
			c0.2,0.1,0.4,0.2,0.5,0.2c0.1-0.3,0.3-0.6,0.5-0.9l0,0c-0.2-0.3-1.5-0.9-3.2-1.4c-2.1-0.6-3.7-1.5-3.7-1.9c1-0.5,1.9-1,3-1.4
			c0.1,0.1,0.2,0.1,0.3,0.2c0.1,0.2,0.9,0.7,1.6,1.2c0.7,0.5,1.6,1.3,2,1.8c0.4,0.4,0.6,0.6,0.9,0.7c0.2-0.2,0.5-0.3,0.9-0.4
			c0-0.1-0.2-0.4-0.4-0.9c-0.3-0.5-1-1.5-1.5-2.1c-0.5-0.6-1-1.3-1-1.4l0,0c1.1-0.2,2.2-0.4,3.3-0.4c0.1,0.4,0.3,2.2,0.4,3.6
			c0,0.5,0.1,0.7,0.2,1c0.1,0,0.3,0,0.4,0c0.2,0,0.3,0,0.5,0c0.1-0.3,0.2-1,0.3-2.4C246.4,22.3,246.5,21.5,246.6,20.9L246.6,20.9z
			 M245.5,27.2c-0.7,0-1.8,0.9-2.2,1.8c-0.2,0.4-0.2,0.6,0.5,1.1c0.6,0.3,1,0.2,0.9,1.5c-0.1,0.5,0,0.7-0.2,0.6
			c-0.1,0-0.3-0.1-0.5-0.4c-0.4-0.4-3.1-1.1-3.9-1.1c-1.2,0-3.2,0.6-5.7,1.8c-1.7,0.9-3.3,1.4-3.7,1.4c-0.5,0-1,0.5-0.7,0.9
			c0.3,0.6,2.8,1.2,4.1,1c0.5-0.1,1.5-0.2,2.2-0.2c1.1,0,1.4,0,1.8,0.3c0.6,0.4,2.2,2.8,2.1,3.3c0,0.2-0.4,0.6-1.3,1.2
			c-2.1,1.5-2.7,2.3-1.9,3.2c0.4,0.4,1.1,0.4,2,0c0.5-0.2,1-0.3,1.6-0.3c1.1,0,1.5,0.2,2.2,0.9c0.3,0.3,0.9,0.7,1.1,0.9
			c0.5,0.3,0.5,0.3,1,0.1c0.2-0.1,0.3-0.3,0.3-1.3c0-1.3,0.2-2.2,0.5-2.6c0.1-0.1,0.6-0.2,1.2-0.2c0.9,0,1,0,1.5-0.4
			c0.3-0.2,0.6-0.7,0.9-1.2c0.2-0.4,0.5-0.7,0.7-0.9c0.2-0.1,0.7-0.5,1.2-1c1.3-1.2,1.4-1.3,3.2-1.2c3,0.1,3.3,0.1,4.7-0.5
			s2.6-1.7,2.6-2.1c0-0.3-0.3-0.5-1.3-0.6c-0.9-0.1-1.5-0.3-4.6-1.3c-1.1-0.4-2.7-0.7-3.6-1c-1.6-0.2-1.7-0.2-2.7,0
			c-0.5,0.1-1,0.4-1,0.4s-0.2-0.6-0.4-1.2C247.2,28.2,246.5,27.2,245.5,27.2L245.5,27.2z M245.2,28.3c0.1,0,0.1,0,0.2,0
			c0.1,0,0.3,0,0.4,0c0.4,0.2,1.1,2,1.5,3.9c0.9,3.1,0.9,3.3,0.9,4.8c0,2.2-0.5,3-2,3c-1.5,0-2,0.6-2.1,2.4c-0.1,0.7,0,1.2-0.1,1.3
			c-0.1,0.2-0.4-0.3-0.6-0.5c-1-1.1-2.8-1.4-4.4-0.9c-0.9,0.3-1.4,0.5-1.2,0.3c0.1-0.2,0.6-0.6,1.3-1.1c5-3.4,6.8-5.8,6.8-9.4
			c0-1.4,0-2.1-0.7-2.7c-0.4-0.2-0.7-0.3-0.6-0.4C244.5,28.9,244.8,28.6,245.2,28.3C245.1,28.3,245.2,28.3,245.2,28.3L245.2,28.3z
			 M245.4,28.8c0,0-0.1,0-0.2,0.1c-0.1,0.1-0.2,0.2-0.1,0.3c0.1,0.2,0.3,0.2,0.4,0C245.7,29,245.6,28.8,245.4,28.8L245.4,28.8z
			 M250.3,32c1.2,0,2.8,0.2,3.9,0.6c2.4,0.9,5.1,1.6,5.1,1.7s-0.6,0.4-1.3,0.7c-1.1,0.5-1.6,0.6-4.1,0.4c-1.8-0.1-2.3,0-3.5,1.2
			c-0.4,0.4-1.1,1-1.1,1c-0.2,0-0.1-0.4-0.3-2c0-0.4-0.2-1.1-0.3-1.5c-0.3-1-0.2-1.6,0-1.8C249,32.1,249.6,32,250.3,32L250.3,32z
			 M239.8,32c1.1,0,2.1,0.2,3.2,0.6c1,0.4,1.4,1.1,1.3,1.7c-0.1,0.9-1,2.1-1.8,3c-0.5,0.5-1,1-1.1,1c-0.3,0-0.6-0.4-1.5-1.7
			c-0.4-0.6-1-1.3-1.3-1.5c-0.6-0.4-0.6-0.4-3.3-0.4c-1.5,0-2.7,0-2.7,0c0-0.1,3.5-1.7,4.7-2.1C238.1,32.2,238.9,32,239.8,32
			L239.8,32z M255.4,45.7v1.1H254L255.4,45.7L255.4,45.7z M230.4,45.7v1.1h-1.6L230.4,45.7L230.4,45.7z M230.6,45.8l1.5,1h-1.5V45.8
			L230.6,45.8z M255.6,45.8l1.3,1h-1.3V45.8L255.6,45.8z M224.9,46.9v1.1h-1.4L224.9,46.9L224.9,46.9z M225.1,47l1.3,1h-1.3V47
			L225.1,47z M253.9,47.2h3.1l-1.4,0.9h-0.3L253.9,47.2L253.9,47.2z M228.7,47.2h3.5l-1.7,1h-0.1L228.7,47.2L228.7,47.2z
			 M262.5,47.9V49h-1.6L262.5,47.9L262.5,47.9z M262.9,48l1.5,1h-1.5V48L262.9,48z M223.4,48.4h3.1l-1.4,0.9h-0.2L223.4,48.4
			L223.4,48.4z M260.9,49.4h3.5l-1.7,1l0,0L260.9,49.4L260.9,49.4z M224.8,50.9v1h-1.5L224.8,50.9L224.8,50.9z M225.2,51l1.5,1h-1.5
			V51L225.2,51z M255.4,51.2l1.7,1.1h-3.4L255.4,51.2L255.4,51.2z M263.1,51.3l4.8,10.3h-2.6l0,0v0.1l-2.1-8.4v-2H263.1z
			 M262.3,51.3v2.3l-2.8,10.8c-0.5-0.1-1.1-0.3-1.5-0.5l-0.5-2.1L262.3,51.3L262.3,51.3z M230.1,51.5v2L228,62
			c-0.9-0.6-1.4-1.5-1.4-2.4l0,0h-0.1L230.1,51.5L230.1,51.5z M230.8,51.5l1.9,4.1l-0.9,1.9l-1.1-4V51.5L230.8,51.5z M223.2,52.4
			h3.5l-1.8,1L223.2,52.4L223.2,52.4z M253.7,52.7h1.4v0.7L253.7,52.7L253.7,52.7z M255.8,52.7h1.4l-1.4,0.7V52.7L255.8,52.7z
			 M233.7,53.9v3.4l-0.7-1.7L233.7,53.9L233.7,53.9z M263.1,54l2,8c-0.5,1-1.2,1.6-2,2V54L263.1,54z M230.1,54.1v8.7
			c-0.7-0.1-1.5-0.4-2-0.9L230.1,54.1L230.1,54.1z M230.8,54.1l1,3.6l-1,2V54.1L230.8,54.1z M234.1,54.1l2.4,5.3h-0.5l0,0
			c0,0.6-0.2,1.2-0.6,1.7l-1.4-2.9v-4.1H234.1z M239.6,54.2v5.3H237L239.6,54.2L239.6,54.2z M262.3,54.2v10
			c-0.5,0.1-1.2,0.2-1.8,0.3c-0.3,0-0.5,0-0.9,0L262.3,54.2L262.3,54.2z M255.1,54.5V55l-1.7,6.6h-4.8L255.1,54.5L255.1,54.5z
			 M255.1,55.6v6.1h-1.5L255.1,55.6L255.1,55.6z M232.9,55.8l0.9,1.9v4.8c-0.1,0.1-0.3,0.1-0.5,0.2l-1.3-4.9L232.9,55.8L232.9,55.8z
			 M255.8,55.9l1.5,5.8l-0.5,1.2c-0.3-0.3-0.6-0.7-1-1.2V55.9L255.8,55.9z M225.3,56.5l0.1,0.2h-0.1V56.5L225.3,56.5z M224.6,56.5
			v0.2h-0.1L224.6,56.5L224.6,56.5z M224.5,57.1h0.1v2.4h-0.7L224.5,57.1L224.5,57.1z M225.3,57.1h0.1l0.6,2.4h-0.7L225.3,57.1
			L225.3,57.1z M231.9,57.9l1.3,4.8c-0.5,0.1-1.2,0.2-1.8,0.2c-0.1,0-0.3,0-0.4,0v-2.9L231.9,57.9L231.9,57.9z M234.1,58.7l1.3,2.7
			c-0.3,0.4-0.7,0.7-1.3,1V58.7L234.1,58.7z M257.4,62.1l0.4,1.8c-0.3-0.2-0.6-0.4-1-0.7L257.4,62.1L257.4,62.1z M233.9,67.1
			c2.9,0,6.1,0.2,8.9,0.6c5.7,0.9,8.7,1.2,12.2,1.1c3.3-0.1,6.7-0.7,10-1.4c-0.1,0.1-0.1,0.2-0.2,0.4l0,0c-0.1,0.1-0.2,0.3-0.3,0.4
			c0,0,0,0,0,0.1c-0.1,0.1-0.2,0.3-0.3,0.4c-0.1,0.2-0.3,0.4-0.4,0.6c0,0,0,0,0,0.1c-0.2,0.2-0.3,0.4-0.5,0.6
			c-1.8,0.3-4.1,0.7-5.6,0.9c-1.7,0.2-5.2,0.3-6.7,0.1c-1.5-0.1-4.6-0.5-5.3-0.6c-0.7-0.2-6.4-1-9.1-1.1c-2.8-0.2-6.1,0-9,0.4l0,0
			c-0.1-0.1-0.2-0.3-0.3-0.4l0,0c0-0.1-0.1-0.1-0.1-0.2c-0.1-0.1-0.2-0.2-0.2-0.3c-0.1-0.2-0.2-0.3-0.3-0.5s-0.2-0.3-0.3-0.5
			c0.3,0,0.6-0.1,1.3-0.2C228.6,67.2,231.2,67.1,233.9,67.1L233.9,67.1z M233.5,71.3c4.1,0,8.7,1,12.2,1.5c4.8,0.7,10.7,0.9,15,0.2
			c-0.1,0.1-0.3,0.3-0.4,0.4c-0.1,0.1-0.3,0.3-0.4,0.4c-0.1,0.1-0.3,0.3-0.4,0.4l0,0c-0.1,0.1-0.3,0.2-0.4,0.3l0,0l0,0
			c-0.1,0.1-0.3,0.2-0.4,0.3c-0.2,0.1-0.3,0.2-0.5,0.3c-0.1,0.1-0.3,0.2-0.4,0.3c0,0,0,0-0.1,0s-0.1,0.1-0.2,0.1
			c-0.1,0.1-0.2,0.1-0.3,0.2c-2,0.3-4.5,0-6.3-0.1c-2-0.2-3.7-0.4-6.6-0.9c-2.8-0.4-7.9-1.1-12.3-0.9c-0.2-0.2-0.4-0.3-0.6-0.5l0,0
			c-0.2-0.2-0.4-0.3-0.6-0.5l-0.1-0.1c-0.1-0.1-0.3-0.2-0.4-0.4c-0.1-0.1-0.1-0.1-0.2-0.2c-0.1-0.1-0.3-0.3-0.4-0.4l-0.1-0.1
			C230.5,71.5,231.9,71.4,233.5,71.3L233.5,71.3z M235.1,76.4c0.7,0,6,0.6,9.5,1.2c3.2,0.5,4.8,0.5,7.1,1c0,0,0,0-0.1,0
			s-0.2,0.1-0.3,0.1s-0.1,0-0.2,0.1c-0.2,0.1-0.4,0.1-0.6,0.1c-0.2,0-0.4,0.1-0.6,0.1s-0.4,0.1-0.6,0.1c-0.2,0-0.4,0.1-0.6,0.1
			s-0.3,0-0.5,0.1c-0.2,0-0.3,0-0.5,0.1h-0.1c-0.1,0-0.2,0-0.3,0s-0.2,0-0.3,0c0,0,0,0-0.1,0c-0.2,0-0.3,0-0.5,0l0,0
			c-0.1,0-0.1,0-0.2,0c-0.1,0-0.2,0-0.4,0c-0.2,0-0.5,0-0.7,0c-0.2,0-0.4,0-0.7,0l0,0c-0.2,0-0.4,0-0.5,0s-0.3,0-0.4-0.1
			c-0.2,0-0.4,0-0.5-0.1c-0.1,0-0.1,0-0.2,0c-0.1,0-0.3,0-0.4-0.1c-0.2,0-0.4-0.1-0.6-0.1l0,0c-0.2,0-0.4-0.1-0.6-0.1l0,0
			c-0.2-0.1-0.4-0.1-0.6-0.2c-0.2-0.1-0.4-0.1-0.6-0.2c-0.2-0.1-0.4-0.1-0.6-0.2h-0.1c-0.2-0.1-0.4-0.1-0.6-0.2
			c-0.2-0.1-0.4-0.2-0.6-0.3c-0.1-0.1-0.3-0.1-0.4-0.2c-0.1,0-0.1-0.1-0.2-0.1s-0.1-0.1-0.2-0.1c-0.1-0.1-0.3-0.1-0.4-0.2
			c-0.2-0.1-0.4-0.2-0.6-0.3c-0.2-0.1-0.4-0.2-0.6-0.3C234.8,76.4,235,76.4,235.1,76.4L235.1,76.4z"/>
	</g>
</g>
</svg>
