<?xml version="1.0" encoding="UTF-8" standalone="no"?>
<svg width="300px" height="375px" viewBox="0 0 300 375" version="1.1" xmlns="http://www.w3.org/2000/svg" xmlns:xlink="http://www.w3.org/1999/xlink" xmlns:sketch="http://www.bohemiancoding.com/sketch/ns">
    <!-- Generator: Sketch 3.2.1 (9971) - http://www.bohemiancoding.com/sketch -->
    <title>ciudad-buenos-aires</title>
    <desc>Created with Sketch.</desc>
    <defs></defs>
    <g id="Page-1" stroke="none" stroke-width="1" fill="none" fill-rule="evenodd" sketch:type="MSPage">
        <g id="ciudad-buenos-aires" sketch:type="MSArtboardGroup" fill="#333333">
            <path d="M149.655556,6 C67.0088889,6 0,86.6127239 0,186.043546 C0,285.476595 67.0088889,366.062595 149.655556,366.062595 C232.302222,366.062595 299.284444,285.476595 299.284444,186.043546 C299.284444,86.6127239 232.302222,6 149.655556,6 L149.655556,6 Z M155.975556,14.8389387 C163.064444,15.2108466 170.02,16.2374908 176.802222,17.8119755 C176.173333,19.8563558 173.4,22.9184724 168.86,27.7354601 C164.751111,32.0959141 159.433333,40.8903129 159.433333,43.3377791 C159.433333,43.400135 159.428889,43.4647178 159.433333,43.5270736 C161.133333,44.2887055 162.746667,45.2262699 164.215556,46.3375399 C165.264444,45.7407055 166.706667,44.2330307 169.535556,41.1731411 C172.622222,37.8371043 178.128889,33.0112086 181.771111,30.4390307 C185.415556,27.8690798 189.131111,24.9249939 190.035556,23.9228466 C190.406667,23.5130798 190.951111,22.8293926 191.495556,22.1924724 C197.557778,24.4328282 203.444444,27.1542147 209.133333,30.305411 C207.533333,32.3542454 203.986667,35.3695951 200.624444,37.1445092 C198.324444,38.3582209 192.102222,40.7678282 186.795556,42.4714785 C177.851111,45.3443006 170.291111,48.7961411 168.644444,50.6913129 C169.902222,52.2791595 170.966667,54.0384847 171.804444,55.9091595 L178.071111,53.8269202 C185.804444,51.2569693 190.02,50.3082699 201.786667,48.5289018 C210.391111,47.2283374 215.1,45.6382638 221.368889,42.7142209 C222.244444,42.306681 223.488889,41.2577669 224.582222,40.3090675 C230.128889,44.4468221 235.431111,49.0032515 240.437778,53.9894908 C237.942222,56.1585828 229.18,57.5860859 209.375556,57.4791902 C191.975556,57.3834294 187.162222,57.6306258 181.177778,58.9378712 C177.815556,59.6727791 174.871111,60.2094847 173.424444,60.9109877 C173.76,62.5255583 173.937778,64.2002577 173.937778,65.912816 C173.937778,66.0932025 173.942222,66.275816 173.937778,66.4539755 C176.135556,66.6967178 180.642222,66.4205706 190.117778,66.5630982 C200.171111,66.7145337 208.728889,67.355908 214.317778,68.3469202 C223.886667,70.0438896 238.851111,70.5293742 247.784444,69.4292393 L253.455556,68.7255092 C253.797778,69.164227 254.144444,69.6073988 254.482222,70.0505706 L259.235556,77.3239325 C262.526667,82.3524847 265.62,87.1093436 268.555556,91.7348098 C283.404444,118.788331 292.08,151.197773 292.08,186.045773 C292.08,209.411393 288.184444,231.672423 281.142222,251.964791 L252.835556,190.695736 L252.835556,187.747196 L264.962222,181.231012 L266.257778,180.529509 L251.537778,171.038061 L251.537778,150.164448 C254.92,147.565546 263.557778,152.865791 268.473333,147.839466 C259.568889,146.242712 258.524444,142.851 251.537778,143.485693 L251.537778,141.37673 C251.553333,140.915742 251.135556,140.485933 250.673333,140.485933 C250.213333,140.485933 249.795556,140.915742 249.808889,141.37673 L249.808889,170.848767 L234.82,180.529509 L236.115556,181.231012 L248.513333,187.909767 L248.513333,190.749184 L219.775556,252.855589 L210.32,216.056742 L210.32,207.242301 L222.448889,200.726117 L223.717778,200.022387 L209.455556,190.802632 L209.455556,175.013245 L220.746667,168.065025 L221.826667,167.388018 L209.322222,158.168264 L209.322222,130.264031 C212.173333,126.373472 221.6,132.687 226.824444,127.344442 C217.686667,125.705374 216.817778,122.202313 209.322222,123.073067 L209.322222,120.124528 C209.34,119.634589 208.864444,119.186963 208.375556,119.23373 C208.34,119.240411 208.304444,119.249319 208.268889,119.260454 C207.882222,119.347307 207.582222,119.73035 207.593333,120.124528 L207.593333,157.546933 L207.511111,157.60038 L194.248889,167.388018 L195.331111,168.065025 L206.864444,175.149092 L206.864444,190.613337 L192.304444,200.022387 L193.602222,200.726117 L206,207.404871 L206,210.271012 L167.24,252.964712 L162.971111,252.964712 C154.882222,253.74416 160.46,257.454331 162.971111,260.50754 C167.988889,268.874356 174.075556,275.871571 182.635556,279.677503 C159.822222,277.960491 133.448889,274.602184 110.193333,272.48654 L111.14,268.943393 C122.793333,266.046074 130.391111,257.928681 136.448889,247.827037 C138.96,244.773828 144.537778,241.061429 136.448889,240.281982 L131.882222,240.281982 L131.882222,222.383632 C134.735556,218.493074 144.188889,224.806601 149.413333,219.464043 C140.268889,217.822748 139.395556,214.313006 131.884444,215.192669 L131.884444,213.217325 C131.897778,212.756337 131.48,212.326528 131.02,212.326528 C130.964444,212.328755 130.911111,212.337663 130.857778,212.353252 C130.46,212.428969 130.146667,212.814239 130.155556,213.217325 L130.155556,240.281982 L117.864444,240.281982 L117.864444,203.861724 L127.373333,183.774239 C131.633333,182.513761 136.897778,191.784736 143.768889,189.586693 C136.457778,183.861092 137.322222,180.320172 130.288889,177.580969 L131.64,174.714828 L130.857778,174.336239 L117.864444,201.808436 L117.864444,179.148773 C117.886667,178.404957 117.146667,177.732405 116.406667,177.825939 C115.775556,177.903883 115.253333,178.511853 115.273333,179.148773 L115.273333,207.295748 L99.6866667,240.281982 L98.8777778,240.281982 L83.5088889,207.026282 L83.5088889,175.877319 C83.5266667,175.142411 82.8088889,174.47654 82.0777778,174.554485 C81.4355556,174.621294 80.8977778,175.233718 80.9155556,175.877319 L80.9155556,205.810344 L75.8644444,216.787196 L64.1955556,191.586534 L64.1955556,174.714828 L76.3244444,168.198644 L77.5933333,167.523865 L62.9,158.032417 L62.9,129.751822 C65.9511111,126.333387 75.1222222,132.308411 80.24,127.074975 C71.1755556,125.44927 70.2333333,121.95289 62.9,122.747926 L62.9,121.531988 C62.9177778,121.042049 62.4422222,120.592196 61.9533333,120.638963 C61.9177778,120.645644 61.8822222,120.654552 61.8466667,120.665687 C61.46,120.75254 61.1622222,121.135583 61.1711111,121.531988 L61.1711111,157.843123 L46.18,167.523865 L47.4777778,168.198644 L59.8755556,174.877399 L59.8755556,191.586534 L37.3488889,240.284209 L36.8088889,240.284209 L33.3244444,226.060399 L41.1022222,226.060399 C41.56,226.06708 41.9666667,225.652859 41.9666667,225.196325 C41.9666667,224.739791 41.56,224.323344 41.1022222,224.330025 L32.8911111,224.330025 L31.6488889,219.274748 L31.6488889,205.024215 L43.7755556,198.510258 L45.0733333,197.833252 L30.7844444,188.613497 L30.7844444,181.772172 L42.0755556,174.823951 L43.1555556,174.146945 L30.6488889,164.900466 L30.6488889,151.084196 L30.7044444,152.462706 C33.1977778,147.743706 43.0844444,154.65184 48.4755556,149.137804 C39.2088889,147.474239 38.4488889,143.879871 30.6488889,144.893153 L30.6488889,143.62154 C30.6644444,143.160552 30.2466667,142.728515 29.7844444,142.730742 C29.3244444,142.728515 28.9066667,143.160552 28.92,143.62154 L28.92,164.305859 L28.8666667,164.332583 L16.6044444,173.389767 L15.5777778,174.146945 L16.6577778,174.823951 L28.1911111,181.908018 L28.1911111,188.450926 L13.6333333,197.833252 L14.9288889,198.510258 L27.3266667,205.186785 L27.3266667,219.274748 L26.0844444,224.330025 L17.9,224.330025 C17.8644444,224.327798 17.8288889,224.327798 17.7933333,224.330025 C17.34,224.358975 16.9533333,224.797693 16.9822222,225.249773 C17.0111111,225.70408 17.4488889,226.08935 17.9,226.060399 L25.6533333,226.060399 L22.1688889,240.284209 L14.5511111,240.284209 C9.82444444,223.236571 7.23111111,205.006399 7.23111111,186.045773 C7.23111111,144.565785 19.4755556,106.537638 39.86,76.8918957 C39.8666667,76.9898834 39.88,77.0923252 39.8866667,77.1880859 L43.0466667,72.431227 C43.9622222,71.1885644 44.8866667,69.9614908 45.8288889,68.7522331 L50.8533333,69.4025153 C59.2866667,70.5516442 75.2422222,70.0505706 85.1022222,68.3201963 C91.3888889,67.2178344 98.9577778,66.6989448 109.735556,66.616546 L124.942222,66.4829264 C124.937778,66.2936319 124.942222,66.1043374 124.942222,65.9150429 C124.942222,64.4095951 125.088889,62.9353252 125.346667,61.5078221 C124.72,60.9867055 123.086667,60.1582638 118.811111,59.1271656 C113.428889,57.8310552 108.584444,57.552681 90.3422222,57.559362 C68.5111111,57.5682699 63.7044444,57.0916933 60.4422222,54.5840982 C59.8511111,54.1297914 59.5155556,53.7979693 59.5777778,53.3147117 C63.92,49.0411104 68.4688889,45.0859693 73.2177778,41.4448344 C74.4622222,41.3980675 76.5288889,42.0461227 78.7555556,43.1752086 C84.0777778,45.8743252 90.9266667,47.8073558 97.6355556,48.5289018 C103.722222,49.183638 119.702222,52.9027178 123.888889,54.639773 C125.357778,55.2477423 126.391111,55.5906994 127.184444,55.6931411 C128.024444,53.8603252 129.071111,52.1388589 130.317778,50.5821902 C130.26,50.5020184 130.197778,50.4240736 130.128889,50.3394479 C128.6,48.4954969 121.208889,45.210681 111.517778,42.0661656 C99.28,38.0954356 89.9222222,33.1336933 89.64,30.6016012 C95.2422222,27.4637669 101.037778,24.7423804 107.006667,22.4908896 C107.697778,22.8293926 108.42,23.3594172 108.951111,23.9495706 C109.857778,24.9561718 114.026667,28.131865 118.215556,31.0069141 C122.406667,33.8819632 127.817778,38.5007485 130.235556,41.2822638 C132.473333,43.8566687 133.993333,45.3198037 135.286667,45.9055031 C136.817778,44.8187301 138.466667,43.8923006 140.228889,43.1752086 C140.044444,42.2755031 139.293333,40.856908 137.853333,38.1177055 C136.202222,34.9820982 132.215556,29.4569264 128.993333,25.8425153 C125.771111,22.2303313 123.133333,18.6470982 123.133333,17.8676503 C123.133333,17.7963865 123.137778,17.7206687 123.16,17.6516319 C129.52,16.2107669 136.031111,15.2531595 142.66,14.8656626 C143.191111,17.1260613 144.568889,27.8089509 145.362222,35.9552945 C145.637778,38.7902577 145.975556,40.5317669 146.657778,41.5517301 C147.568889,41.4492883 148.5,41.3913865 149.44,41.3913865 C150.502222,41.3913865 151.546667,41.4760123 152.573333,41.6074049 C153.322222,39.9750184 153.728889,36.2358957 154.6,27.5461656 C155.053333,22.9941902 155.58,17.9389141 155.975556,14.8389387 L155.975556,14.8389387 Z M149.682222,51.5286626 C145.408889,51.5286626 139.182222,56.7086503 136.853333,62.2093252 C135.857778,64.5632577 135.337778,65.7947853 139.851111,68.4025951 C143.555556,70.5382822 145.546667,69.8635031 144.604444,77.1880859 C144.168889,80.5820245 144.433333,81.2568037 143.255556,81.0274233 C142.608889,80.9027117 141.582222,80.1700307 140.066667,78.7848405 C137.455556,76.3930491 121.875556,72.2953804 117.135556,72.2953804 C110.48,72.2953804 98.48,76.1881656 83.8044444,83.1096626 C73.7111111,87.8732025 64.4822222,91.3294969 61.8733333,91.3294969 C59.0666667,91.3294969 56.3266667,94.4517423 57.3888889,96.4404479 C59.4066667,100.212975 73.7044444,103.339675 81.6977778,101.767417 C84.5355556,101.208442 90.2977778,100.725184 94.5288889,100.685098 C101.004444,100.622742 102.713333,100.910025 105.277778,102.495644 C109.088889,104.854031 118.193333,118.910816 117.784444,121.801454 C117.591111,123.162147 115.244444,125.313423 110.166667,128.749675 C97.5111111,137.319147 94.4888889,142.392239 99.0933333,147.298307 C101.482222,149.843761 105.16,149.877166 110.68,147.434153 C113.611111,146.135816 116.357778,145.625834 119.864444,145.730503 C126.293333,145.924252 128.322222,146.743785 132.908889,150.975074 C134.973333,152.879153 137.815556,155.03711 139.204444,155.760883 C142.202222,157.32646 142.617778,157.362092 144.795556,156.195147 C146.224444,155.429061 146.464444,154.335607 146.468889,148.623368 C146.475556,141.015957 147.706667,135.519736 149.737778,133.943025 C150.513333,133.339509 153.524444,132.860706 156.544444,132.860706 C161.397778,132.860706 162.295556,132.577877 165.08,130.130411 C166.788889,128.624963 169.117778,125.529442 170.264444,123.262362 C171.482222,120.859436 173.18,118.890773 174.315556,118.53 C175.388889,118.18927 178.586667,115.683902 181.446667,112.960288 C188.935556,105.827227 189.493333,105.61789 200.057778,106.038791 C217.708889,106.740294 219.651111,106.510914 227.282222,102.631491 C235.248889,98.5850429 242.408889,92.8104479 242.408889,90.4386994 C242.408889,88.3119202 240.46,87.3520859 234.631111,86.6795337 C229.562222,86.0938344 226.051111,85.0738712 208.133333,78.9184601 C201.608889,76.6781043 192.684444,74.3642577 187.173333,73.4845951 C177.935556,72.0103252 177.362222,72.0192331 171.506667,73.5380429 C168.162222,74.4065706 165.72,76.2082086 165.593333,76.0255951 C165.464444,75.8452086 164.264444,72.1216748 163.404444,69.2666687 C159.695556,56.9603006 155.482222,51.5286626 149.682222,51.5286626 L149.682222,51.5286626 Z M148.306667,57.6952086 C148.706667,57.7018896 149.042222,57.8043313 149.386667,57.7753804 C149.8,57.7397485 151.155556,57.8243742 151.573333,58.0737975 C154.191111,59.6304663 157.591111,69.8189632 160.595556,81.3792883 C165.331111,99.5983252 165.484444,100.506939 165.484444,109.120951 C165.484444,121.941755 162.162222,126.803282 153.384444,126.803282 C144.735556,126.803282 141.468889,130.500092 140.662222,141.187436 C140.337778,145.485534 140.517778,147.732571 140.122222,148.676816 C139.682222,149.727957 137.36,146.750466 136.097778,145.405362 C130.308889,139.238816 119.74,137.252337 110.815556,140.646276 C105.673333,142.603804 102.995556,143.797472 103.955556,142.378877 C104.64,141.365595 107.468889,138.523951 111.246667,135.942865 C140.555556,115.935552 150.791111,101.816411 150.791111,81.3525644 C150.791111,72.9946564 150.931111,68.7700491 146.253333,65.7524724 C143.886667,64.2247546 142.177778,64.1846687 142.308889,63.0756258 C142.433333,62.0400736 143.966667,59.9021595 146.82,58.1539693 C147.424444,57.7842883 147.904444,57.6863006 148.306667,57.6952086 L148.306667,57.6952086 Z M149.548889,60.6682454 C149.244444,60.6816074 148.913333,60.821908 148.575556,61.1002822 C147.911111,61.6548037 147.56,62.4632025 147.82,62.8863313 C148.451111,63.9062945 149.697778,63.8483926 150.357778,62.7772086 C151.055556,61.6458957 150.46,60.6281595 149.548889,60.6682454 L149.548889,60.6682454 Z M177.882222,79.2436012 C184.617778,79.1634294 193.822222,80.4907178 201.111111,83.0562147 C215.706667,88.1961166 230.891111,92.1445767 231.28,92.8973006 C231.517778,93.3582883 227.237778,95.6899509 224.015556,97.3312454 C217.493333,100.656147 214.871111,100.878847 199.868889,99.5760552 C189.26,98.6540798 185.902222,99.7920736 179.313333,106.470828 C176.731111,109.087546 173.346667,112.256558 172.777778,112.256558 C171.773333,112.256558 172.173333,109.472816 171.048889,100.415632 C170.753333,98.0349755 169.96,94.1622331 169.293333,91.8172086 C167.715556,86.2786748 167.737778,82.3057178 169.373333,80.9472515 C170.68,79.8604785 173.84,79.2925951 177.882222,79.2436012 L177.882222,79.2436012 Z M116.515556,79.4061718 C123.028889,79.2124233 129.262222,80.5196687 134.935556,83.2989571 C140.548889,86.0515215 143.315556,89.6481166 142.633333,93.3026135 C141.737778,98.1017853 137.264444,105.633479 132.18,110.960448 C129.32,113.957982 126.384444,116.421037 125.644444,116.421037 C123.906667,116.421037 121.775556,114.004748 116.677778,106.201362 C114.231111,102.457785 111.113333,98.921319 109.033333,97.5494908 C105.524444,95.2334172 105.466667,95.2334172 89.6933333,95.304681 C80.9911111,95.3447669 73.8666667,95.2222822 73.8666667,95.0619387 C73.8666667,94.4717853 94.3755556,85.0181963 100.957778,82.5685031 C106.215556,80.6109755 111.448889,79.5576074 116.515556,79.4061718 L116.515556,79.4061718 Z M207.593333,159.68262 L207.593333,165.737816 L199.408889,165.737816 L207.593333,159.68262 L207.593333,159.68262 Z M61.1711111,159.871914 L61.1711111,165.846939 L51.96,165.846939 L61.1711111,159.871914 L61.1711111,159.871914 Z M62.9,160.087933 L71.8133333,165.846939 L62.9,165.846939 L62.9,160.087933 L62.9,160.087933 Z M209.322222,160.303951 L216.668889,165.737816 L209.322222,165.737816 L209.322222,160.303951 L209.322222,160.303951 Z M28.92,166.441546 L28.92,172.472245 L20.7377778,172.472245 L28.92,166.441546 L28.92,166.441546 Z M30.6488889,167.062877 L37.9955556,172.472245 L30.6488889,172.472245 L30.6488889,167.062877 L30.6488889,167.062877 Z M199.031111,168.334491 L217.046667,168.334491 L208.835556,173.389767 L207.268889,173.389767 L199.031111,168.334491 L199.031111,168.334491 Z M51.5288889,168.443613 L72.2177778,168.443613 L62.0355556,173.930926 L61.7111111,173.930926 L51.5288889,168.443613 L51.5288889,168.443613 Z M249.808889,172.931006 L249.808889,178.879307 L240.626667,178.879307 L249.808889,172.931006 L249.808889,172.931006 Z M251.537778,173.093577 L260.477778,178.879307 L251.537778,178.879307 L251.537778,173.093577 L251.537778,173.093577 Z M20.3577778,175.066693 L38.3733333,175.066693 L30.1088889,180.15092 L28.5955556,180.15092 L20.3577778,175.066693 L20.3577778,175.066693 Z M240.222222,181.475982 L260.884444,181.475982 L250.646667,186.963294 L250.431111,186.963294 L240.222222,181.475982 L240.222222,181.475982 Z M28.1911111,190.479718 L28.1911111,196.156325 L19.4133333,196.156325 L28.1911111,190.479718 L28.1911111,190.479718 Z M30.7844444,190.642288 L39.2933333,196.156325 L30.7844444,196.156325 L30.7844444,190.642288 L30.7844444,190.642288 Z M207.997778,191.938399 L217.937778,198.374411 L198.084444,198.374411 L207.997778,191.938399 L207.997778,191.938399 Z M252.835556,192.777975 L280.655556,252.964712 L265.773333,252.964712 C265.773333,253.064926 265.813333,253.169595 265.773333,253.260902 C265.688889,253.450196 265.588889,253.617221 265.502222,253.802061 L252.835556,204.647853 L252.835556,192.777975 L252.835556,192.777975 Z M248.513333,192.804699 L248.513333,206.322552 L232.117778,269.809693 C228.944444,269.30862 226.02,268.166172 223.286667,266.538239 L220.097778,254.153926 L248.513333,192.804699 L248.513333,192.804699 Z M59.8755556,193.642049 L59.8755556,205.565374 L47.1266667,254.937828 C42.0111111,251.272196 38.8333333,246.190196 38.8333333,240.580399 C38.8333333,240.480184 38.8311111,240.384423 38.8333333,240.281982 L38.32,240.281982 L59.8755556,193.642049 L59.8755556,193.642049 Z M64.1955556,193.642049 L75.3777778,217.81384 L70.2466667,228.953264 L64.1955556,205.53865 L64.1955556,193.642049 L64.1955556,193.642049 Z M19.0088889,198.753 L39.6977778,198.753 L29.3533333,204.322712 L19.0088889,198.753 L19.0088889,198.753 Z M197.68,200.968859 L206,200.968859 L206,205.458479 L197.68,200.968859 L197.68,200.968859 Z M210.32,200.968859 L218.371111,200.968859 L210.32,205.295908 L210.32,200.968859 L210.32,200.968859 Z M80.9155556,207.892583 L80.9155556,227.737325 L76.3244444,217.81384 L80.9155556,207.892583 L80.9155556,207.892583 Z M252.835556,208.108601 L264.935556,255.018 C261.997778,260.852724 258.257778,264.571804 252.835556,266.887877 L252.835556,208.108601 L252.835556,208.108601 Z M59.8755556,209.026123 L59.8755556,260.155675 C55.3288889,259.313871 51.2288889,257.703755 47.8822222,255.478988 L59.8755556,209.026123 L59.8755556,209.026123 Z M64.1955556,209.026123 L69.6511111,230.198153 L64.1955556,242.012356 L64.1955556,209.026123 L64.1955556,209.026123 Z M83.5088889,209.108521 L97.9311111,240.281982 L94.8533333,240.281982 C94.8533333,240.384423 94.88,240.480184 94.88,240.580399 C94.88,244.134681 93.6044444,247.464037 91.3688889,250.368037 L83.5088889,233.333761 L83.5088889,209.108521 L83.5088889,209.108521 Z M115.273333,209.32454 L115.273333,240.281982 L100.633333,240.281982 L115.273333,209.32454 L115.273333,209.32454 Z M248.513333,209.756577 L248.513333,268.348785 C245.42,269.168319 241.888889,269.709479 237.764444,270.025712 C236.095556,270.15265 234.502222,270.13038 232.955556,269.943313 L248.513333,209.756577 L248.513333,209.756577 Z M206,211.540399 L206,214.190521 L196.195556,252.964712 L168.428889,252.964712 L206,211.540399 L206,211.540399 Z M206,217.733669 L206,252.964712 L197.086667,252.964712 L206,217.733669 L206,217.733669 Z M75.8377778,218.842712 L80.9155556,229.819564 L80.9155556,258.073436 C79.9822222,258.465387 79.0222222,258.815025 78.0244444,259.129031 L70.5711111,230.278325 L75.8377778,218.842712 L75.8377778,218.842712 Z M210.32,219.517491 L219.206667,254.073755 L216.073333,260.805957 C214.064444,258.783847 212.162222,256.496724 210.32,254.044804 L210.32,219.517491 L210.32,219.517491 Z M31.6488889,222.924791 L32,224.330025 L31.6488889,224.330025 L31.6488889,222.924791 L31.6488889,222.924791 Z M27.3266667,223.004963 L27.3266667,224.330025 L27.0022222,224.330025 L27.3266667,223.004963 L27.3266667,223.004963 Z M26.5711111,226.060399 L27.3266667,226.060399 L27.3266667,240.281982 L23.06,240.281982 L26.5711111,226.060399 L26.5711111,226.060399 Z M31.6488889,226.060399 L32.4044444,226.060399 L35.8888889,240.281982 L31.6488889,240.281982 L31.6488889,226.060399 L31.6488889,226.060399 Z M70.0022222,231.496491 L77.1888889,259.371773 C73.9866667,260.291521 70.4977778,260.805957 66.8422222,260.805957 C65.9488889,260.805957 65.0688889,260.756963 64.1955556,260.696834 L64.1955556,244.067871 L70.0022222,231.496491 L70.0022222,231.496491 Z M83.5088889,235.416 L90.7733333,251.125215 C88.8844444,253.352209 86.4066667,255.280785 83.5088889,256.830773 L83.5088889,235.416 L83.5088889,235.416 Z M219.531111,255.396589 L222.233333,265.887957 C220.311111,264.631933 218.473333,263.148755 216.722222,261.454012 L219.531111,255.396589 L219.531111,255.396589 Z M82.2666667,284.625883 C98.9666667,284.625883 117.855556,285.661436 134.8,288.113356 C168.688889,293.019423 186.091111,294.983632 206.702222,294.33335 C225.713333,293.732061 245.7,289.959534 265.151111,286.329534 C264.7,287.082258 264.235556,287.830528 263.773333,288.574344 C263.715556,288.66565 263.642222,288.750276 263.584444,288.84381 C263.048889,289.703429 262.513333,290.565276 261.964444,291.411534 C261.871111,291.554061 261.786667,291.70327 261.693333,291.845798 C261.102222,292.74773 260.491111,293.634074 259.884444,294.522644 C259.051111,295.743037 258.206667,296.976791 257.346667,298.172687 C257.266667,298.28181 257.182222,298.388706 257.102222,298.495601 C256.16,299.796166 255.213333,301.067779 254.24,302.334939 C243.506667,304.417178 229.997778,306.492736 221.233333,307.60846 C211.364444,308.864485 190.76,309.254209 181.906667,308.472534 C173.053333,307.693086 155.311111,305.628663 150.791111,304.526301 C146.271111,303.423939 113.602222,299.232736 97.2022222,298.063564 C80.8022222,296.894393 61.74,297.765147 44.0466667,300.767135 L43.9111111,300.793859 C43.26,299.925331 42.6044444,299.054577 41.9666667,298.172687 C41.94,298.134828 41.9111111,298.099196 41.8866667,298.063564 C41.6288889,297.707245 41.3844444,297.342018 41.1288889,296.981245 C40.64,296.290877 40.1511111,295.600509 39.6711111,294.899006 C38.9777778,293.892405 38.2933333,292.872442 37.6177778,291.845798 C36.9533333,290.825834 36.2933333,289.79919 35.6466667,288.761411 C37.2911111,288.45854 39.4911111,288.022049 42.8844444,287.329454 C51.0555556,285.661436 65.5666667,284.625883 82.2666667,284.625883 L82.2666667,284.625883 Z M79.3755556,310.013613 C103.517778,309.788687 130.415556,315.329448 150.791111,318.451693 C178.595556,322.711933 213.96,323.219687 238.573333,319.88365 C237.691111,320.732135 236.797778,321.573939 235.9,322.397926 C235,323.221914 234.086667,324.03254 233.171111,324.832031 C232.255556,325.631521 231.348889,326.410969 230.415556,327.183736 C230.371111,327.221595 230.326667,327.255 230.282222,327.292859 C229.433333,327.994362 228.551111,328.693638 227.688889,329.375098 C227.648889,329.406276 227.62,329.450816 227.58,329.481994 C227.555556,329.502037 227.524444,329.515399 227.5,329.535442 C226.577778,330.261442 225.653333,330.971853 224.717778,331.671129 C223.755556,332.392675 222.804444,333.087497 221.826667,333.782319 C220.96,334.396969 220.06,334.998258 219.18,335.592865 C219.068889,335.668583 218.966667,335.762117 218.855556,335.835607 C218.42,336.129571 217.973333,336.414626 217.533333,336.701908 C216.975556,337.064908 216.42,337.427908 215.857778,337.782 C203.726667,339.824153 189.94,337.928982 179.313333,336.998098 C167.44,335.960319 157.64,334.363564 140.851111,331.86265 C124.644444,329.446362 95.0488889,325.896534 68.68,326.994442 C67.42,325.943301 66.1555556,324.874344 64.9244444,323.776436 C64.9066667,323.760847 64.8911111,323.740804 64.8711111,323.722988 C63.6844444,322.665166 62.5177778,321.607344 61.36,320.504982 C61.08,320.237742 60.8022222,319.963822 60.5222222,319.694356 C59.7333333,318.932724 58.9466667,318.151049 58.1733333,317.369374 C57.8533333,317.048687 57.5444444,316.721319 57.2266667,316.396178 C56.3866667,315.532104 55.5666667,314.659123 54.7422222,313.772779 C54.5288889,313.543399 54.3066667,313.32738 54.0933333,313.098 C61.8311111,311.002399 70.4066667,310.098239 79.3755556,310.013613 L79.3755556,310.013613 Z M88.6933333,339.594773 C93.0377778,339.554687 123.413333,343.104515 143.875556,346.191129 C162.466667,348.997141 172.193333,349.562798 185.606667,351.896687 C185.491111,351.932319 185.373333,351.967951 185.255556,352.00581 C184.582222,352.21292 183.906667,352.402215 183.228889,352.600417 C182.762222,352.736264 182.295556,352.874337 181.824444,353.00573 C180.677778,353.32419 179.526667,353.611472 178.368889,353.898755 C177.208889,354.18381 176.026667,354.45773 174.857778,354.70938 C173.715556,354.95435 172.577778,355.172595 171.426667,355.38416 C170.097778,355.629129 168.768889,355.860736 167.428889,356.061166 C166.364444,356.219282 165.286667,356.36181 164.215556,356.493202 C163.206667,356.615687 162.204444,356.74708 161.188889,356.845067 C161,356.862883 160.813333,356.880699 160.622222,356.898515 C160.048889,356.951963 159.468889,356.989822 158.893333,357.034362 C158.257778,357.083356 157.613333,357.130123 156.975556,357.170209 C156.848889,357.17689 156.724444,357.190252 156.597778,357.196933 C155.58,357.254834 154.568889,357.299374 153.546667,357.330552 C153.473333,357.332779 153.402222,357.328325 153.328889,357.330552 C152.882222,357.343914 152.428889,357.350595 151.98,357.359503 C151.204444,357.372865 150.433333,357.386227 149.655556,357.386227 C148.24,357.386227 146.822222,357.352822 145.415556,357.303828 C144.028889,357.254834 142.66,357.183571 141.282222,357.08781 C141.228889,357.085583 141.175556,357.090037 141.12,357.08781 C140.031111,357.009865 138.935556,356.925239 137.853333,356.818344 C136.928889,356.727037 136.015556,356.604552 135.097778,356.493202 C134,356.359583 132.893333,356.223736 131.802222,356.061166 C131.44,356.005491 131.084444,355.929773 130.722222,355.871871 C129.906667,355.740479 129.102222,355.611313 128.291111,355.466558 C127.102222,355.25054 125.931111,355.012252 124.753333,354.762828 C124.653333,354.742785 124.553333,354.729423 124.455556,354.70938 C123.213333,354.442141 121.96,354.148178 120.728889,353.84308 C120.655556,353.825264 120.584444,353.807448 120.511111,353.789632 C119.251111,353.473399 118.006667,353.143804 116.757778,352.789712 C115.437778,352.41335 114.12,352.019172 112.813333,351.59827 C111.597778,351.208546 110.397778,350.78319 109.195556,350.355607 C108.988889,350.282117 108.78,350.21308 108.573333,350.139589 C107.402222,349.71646 106.246667,349.273288 105.088889,348.814528 C103.815556,348.309 102.54,347.792337 101.28,347.246724 C100.428889,346.874816 99.5866667,346.473957 98.7422222,346.084233 C98.3111111,345.883804 97.8755556,345.692282 97.4466667,345.489626 C97.0955556,345.322601 96.7422222,345.144442 96.3933333,344.97519 C95.5355556,344.558742 94.6755556,344.140067 93.8266667,343.703577 C92.6022222,343.075564 91.3866667,342.425282 90.18,341.757184 C88.9733333,341.089086 87.7755556,340.409853 86.5866667,339.701669 C87.2533333,339.650448 87.9466667,339.601454 88.6933333,339.594773 L88.6933333,339.594773 Z" id="Imported-Layers" sketch:type="MSShapeGroup"></path>
        </g>
    </g>
</svg>