<?xml version="1.0" encoding="utf-8"?>
<!-- Generator: Adobe Illustrator 17.1.0, SVG Export Plug-In . SVG Version: 6.00 Build 0)  -->
<!DOCTYPE svg PUBLIC "-//W3C//DTD SVG 1.1//EN" "http://www.w3.org/Graphics/SVG/1.1/DTD/svg11.dtd">
<svg version="1.1" id="Layer_1" xmlns:sketch="http://www.bohemiancoding.com/sketch/ns"
	 xmlns="http://www.w3.org/2000/svg" xmlns:xlink="http://www.w3.org/1999/xlink" x="0px" y="0px" viewBox="25 58 70 80"
	 enable-background="new 25 58 70 80" xml:space="preserve">
<title>Artboard 1</title>
<desc>Created with Sketch.</desc>
<g>
	<g>
		<path fill="#4DB9DF" d="M60,136.7L60,136.7c-0.7,0-1.2-0.5-2.2-1.2l-0.5-0.4c-0.8-0.6-3.7-1.8-7.6-3.1c-6.8-2.3-10.8-4.9-14.5-9.6
			c-5.7-7.2-7.5-14.6-5.5-23.4l0.3-1.2c2.4-10.8,3.4-15.2-2-20.2c-0.1-0.1-0.2-0.3-0.2-0.5c0-0.2,0.1-0.4,0.2-0.5L38.5,68
			c0.1-0.1,0.3-0.2,0.5-0.2c0.2,0,0.4,0.1,0.5,0.3c0,0,1.8,2.2,3.9,2.2c0.8,0,1.6-0.3,2.4-1c1.4-1.2,1-3.3,1-3.3
			c0-0.2,0-0.4,0.1-0.6c0.1-0.2,0.3-0.2,0.5-0.2h25.2c0.2,0,0.4,0.1,0.5,0.2c0.1,0.2,0.2,0.4,0.1,0.6c0,0-0.4,2.1,1,3.3
			c0.8,0.7,1.5,1,2.4,1c2.1,0,3.8-2.2,3.9-2.2c0.1-0.1,0.3-0.2,0.5-0.3c0.2,0,0.4,0,0.5,0.1L92,76.6c0.2,0.1,0.2,0.3,0.2,0.5
			c0,0.2-0.1,0.4-0.2,0.5c-5.4,4.9-4.4,9.4-2,20.2l0.3,1.2c2,8.8,0.2,16.3-5.5,23.4c-3.8,4.7-7.7,7.3-14.5,9.6
			c-3.9,1.3-6.8,2.5-7.6,3.1l-0.5,0.4C61.2,136.2,60.6,136.7,60,136.7C60,136.7,60,136.7,60,136.7z M29.4,77.2
			c5.4,5.3,4.2,10.3,1.9,20.9L31,99.3c-1.9,8.4-0.2,15.5,5.3,22.3c3.6,4.5,7.4,7,13.9,9.1c2.4,0.8,6.7,2.3,8,3.3l0.5,0.4
			c0.5,0.4,1.1,0.9,1.3,0.9c0.2,0,0.8-0.5,1.3-0.9l0.5-0.4c1.2-1,5.5-2.5,8-3.3c6.5-2.2,10.3-4.7,13.9-9.1
			c5.5-6.8,7.1-13.9,5.3-22.3l-0.3-1.2c-2.4-10.6-3.5-15.6,1.9-20.9l-9.4-7.7c-0.8,0.8-2.4,2.2-4.5,2.2c-1.2,0-2.3-0.5-3.3-1.4
			c-1.3-1.2-1.5-2.8-1.5-3.8H48.1c0,1-0.2,2.6-1.5,3.8c-1,0.9-2.1,1.4-3.3,1.4c-2,0-3.7-1.4-4.5-2.2L29.4,77.2z"/>
		<path fill="#4DB9DF" d="M68.9,61.5H50.6c-1,0-1.8-0.8-1.8-1.8c0-1,0.8-1.8,1.8-1.8h18.3c1,0,1.8,0.8,1.8,1.8
			C70.7,60.7,69.9,61.5,68.9,61.5z M50.6,59.4c-0.2,0-0.4,0.2-0.4,0.4c0,0.2,0.2,0.4,0.4,0.4h18.3c0.2,0,0.4-0.2,0.4-0.4
			c0-0.2-0.2-0.4-0.4-0.4H50.6z"/>
		<path fill="#4DB9DF" d="M92.9,78.7L92.9,78.7c-0.4,0-0.7-0.1-1-0.4l-11.7-9.6c-0.7-0.6-0.8-1.6-0.2-2.3c0.3-0.4,0.8-0.6,1.3-0.6
			c0.4,0,0.7,0.1,1,0.4l11.7,9.6c0.7,0.6,0.8,1.6,0.2,2.3C93.8,78.5,93.4,78.7,92.9,78.7z M81.2,67.2c0,0-0.1,0-0.2,0.1
			c-0.1,0.1-0.1,0.3,0,0.4l11.7,9.6c0.1,0,0.1,0.1,0.2,0.1l0,0c0,0,0.1,0,0.2-0.1c0.1-0.1,0.1-0.3,0-0.4l-11.7-9.6
			C81.3,67.2,81.2,67.2,81.2,67.2z"/>
		<path fill="#4DB9DF" d="M27,78.7L27,78.7c-0.5,0-0.9-0.2-1.3-0.6c-0.6-0.7-0.5-1.7,0.2-2.3l11.7-9.6c0.3-0.2,0.7-0.4,1-0.4
			c0.5,0,0.9,0.2,1.3,0.6c0.6,0.7,0.5,1.7-0.2,2.3L28,78.3C27.8,78.6,27.4,78.7,27,78.7z M38.7,67.2c0,0-0.1,0-0.2,0.1l-11.7,9.6
			c-0.1,0.1-0.1,0.2,0,0.4c0.1,0.1,0.1,0.1,0.2,0.1c0,0,0.1,0,0.2-0.1l11.7-9.6c0.1-0.1,0.1-0.2,0-0.4
			C38.8,67.2,38.8,67.2,38.7,67.2z"/>
		<path fill="#4DB9DF" d="M30.9,113.3c1,3,2.6,5.9,4.9,8.7c3.7,4.6,7.5,7.1,14.2,9.4c3.2,1.1,6.8,2.4,7.8,3.2
			c1.1,0.9,1.8,1.5,2.2,1.5v0c0,0,0,0,0,0v0c0.5,0,1.2-0.6,2.2-1.5c1-0.8,4.5-2.1,7.8-3.2c6.7-2.2,10.5-4.8,14.2-9.4
			c2.3-2.8,3.9-5.7,4.9-8.7L30.9,113.3z M77,126.5c-0.7,0-1.3,0-2,0c-5.2,0.2-2.4,1.3-7,1.4c-4.6,0.1-6.5-0.9-11.3-1
			c-4.7-0.1-4.5,0-7.7,0.8c-1.1,0.3-1.4,0.6-1.5,0.9c-2.6-1-4.6-2-6.4-3.2c0.2,0,0.4-0.1,0.6-0.1c2.7-0.4,3,0.3,5.6-0.2
			c2.6-0.5,1-1.7,4.6-1.8c0.1,0,0.2,0,0.4,0c4.2,0,7,1.8,11.6,2s2.7-1.2,6.7-1.3c3.8-0.1,5.5,0.6,8.8,0.7
			C78.7,125.4,77.9,126,77,126.5z M72.6,119.2c-5.2,0.2-2.4,1.3-7,1.4c-4.6,0.1-6.5-0.9-11.3-1s-4.4,0-7.7,0.8s0.5,2-5.2,2.5
			c-1.1,0.1-2.2,0.1-3.4,0.2c-1.1-1.1-2.2-2.4-3.2-3.9c2.9-0.4,2-0.8,4.6-1.2c2.7-0.4,3,0.3,5.6-0.2c2.7-0.5,0.9-1.8,5-1.8
			c4.2,0,7,1.8,11.6,2c4.6,0.2,2.7-1.2,6.7-1.3c4-0.1,5.7,0.7,9.5,0.8c3.8,0.1,4.1,0.3,5.7-0.4c1.6-0.7-1-1.4,0.8-2.3l3.1,0.1
			c-0.8,1.6-1.9,3.3-3.1,4.9C80.6,119.8,76.9,119,72.6,119.2z"/>
		<g>
			<path fill="#4DB9DF" d="M71.6,100.1c-0.1-2.1-5.6-7-3.5-15.5c-2.6-0.6-5.2-0.9-7.7-1v0c0,0-0.1,0-0.1,0c-2.7,0-5.4,0.4-8.1,1
				c2.1,8.5-3.4,13.4-3.5,15.5c0.1,4.6,0.4,9.1,0.3,13.7c0.3,0.1,3.9,0.3,8.2,0.4c0-0.5,0-3.2-0.1-5.5c-0.1-2.6,1.5-3.2,2.9-3.2
				c1.4,0,2.8,0.5,2.7,3.3c0,2.4-0.1,4.9-0.1,5.4c4.5-0.1,8.4-0.3,8.7-0.4C71.2,109.3,71.6,104.7,71.6,100.1z M56.5,94.6l-2,0.2
				c0,0,0.1-2.1,0.1-3.2c0-1.1,0.5-1.5,1-1.5c0.5-0.1,1,0.1,1,1.2C56.6,92.4,56.5,94.6,56.5,94.6z M66.1,94.9l-2-0.3
				c0,0,0-2.1,0-3.2c0-1.1,0.5-1.3,1-1.2c0.5,0.1,1,0.5,1,1.5C66.2,92.7,66.1,94.9,66.1,94.9z"/>
			<g>
				<path id="path67967_1_" sodipodi:nodetypes="cccccccccccccscccccccc" fill="#4DB9DF" d="M63.6,78.2c-0.2,0.1-0.3,0.2-0.5,0.3
					v2.2c0.9-1.1,3.3-1.1,4.3,0l0-2.2c-0.2-0.1-0.3-0.2-0.5-0.3v1l-0.5-0.2v-1c-0.2-0.1-0.3-0.1-0.5-0.2v1l-0.5-0.1v-1
					c-0.1,0-0.2,0-0.2,0c-0.1,0-0.2,0-0.2,0v1l-0.5,0.1v-1c-0.2,0-0.3,0.1-0.5,0.2v1l-0.5,0.2V78.2z"/>
				<path fill="#FFFFFF" d="M63.2,80.8C63.1,80.8,63.1,80.8,63.2,80.8c-0.1,0-0.1-0.1-0.1-0.1v-2.2c0,0,0-0.1,0.1-0.1
					c0.2-0.1,0.3-0.2,0.5-0.3c0,0,0.1,0,0.1,0c0,0,0.1,0.1,0.1,0.1V79l0.2-0.1v-1c0,0,0-0.1,0.1-0.1c0.2-0.1,0.4-0.1,0.5-0.2
					c0,0,0.1,0,0.1,0c0,0,0.1,0.1,0.1,0.1v0.8l0.2,0v-0.9c0-0.1,0-0.1,0.1-0.1c0,0,0.1,0,0.1,0c0.1,0,0.2,0,0.3,0c0,0,0.1,0,0.1,0
					c0.1,0,0.1,0.1,0.1,0.1v0.9l0.2,0v-0.9c0,0,0-0.1,0.1-0.1c0,0,0.1,0,0.1,0c0.2,0.1,0.3,0.1,0.5,0.2c0,0,0.1,0.1,0.1,0.1v0.9
					l0.2,0.1v-0.8c0,0,0-0.1,0.1-0.1c0,0,0.1,0,0.1,0c0.2,0.1,0.3,0.2,0.5,0.3c0,0,0.1,0.1,0.1,0.1l0,2.1c0,0,0,0,0,0
					c0,0.1-0.1,0.1-0.1,0.1c0,0,0,0,0,0c0,0-0.1,0-0.1,0c-0.4-0.5-1.2-0.8-2-0.8C64.4,80,63.7,80.2,63.2,80.8
					C63.2,80.7,63.2,80.8,63.2,80.8z M65.3,79.7c0.8,0,1.5,0.2,2,0.6l0-1.8c-0.1,0-0.1-0.1-0.2-0.1v0.8c0,0,0,0.1-0.1,0.1
					c0,0-0.1,0-0.1,0L66.4,79c0,0-0.1-0.1-0.1-0.1V78c-0.1,0-0.1-0.1-0.2-0.1v0.8c0,0,0,0.1,0,0.1c0,0-0.1,0-0.1,0l-0.5-0.1
					c-0.1,0-0.1-0.1-0.1-0.1v-0.9c-0.1,0-0.1,0-0.2,0v0.9c0,0.1,0,0.1-0.1,0.1l-0.5,0.1c0,0-0.1,0-0.1,0c0,0,0-0.1,0-0.1v-0.8
					c-0.1,0-0.1,0.1-0.2,0.1v1c0,0,0,0.1-0.1,0.1l-0.5,0.2c0,0-0.1,0-0.1,0c0,0-0.1-0.1-0.1-0.1v-0.8c-0.1,0-0.2,0.1-0.2,0.1v1.8
					C63.8,79.9,64.5,79.7,65.3,79.7z"/>
			</g>
			<g>
				<path id="path67969_1_" sodipodi:nodetypes="cccccccccc" fill="#4DB9DF" d="M65.3,79.8c-0.5,0-0.6,0-1.1,0.2
					c-0.6,0.2-1.1,0.6-1.1,0.6l0.3,0.4c-0.1,3.9,0,5.3,0,5.3c0.1,0.1,3.5,0.1,3.7,0c0-1-0.1-1.5,0-5.4l0.3-0.4c0,0-0.5-0.4-1.1-0.6
					C66,79.9,65.8,79.8,65.3,79.8z"/>
				<path fill="#FFFFFF" d="M65.6,86.6C65.6,86.6,65.6,86.6,65.6,86.6c-2.1,0-2.2-0.1-2.2-0.2c-0.1-0.1,0-4.1,0-5.4l-0.3-0.4
					c0-0.1,0-0.1,0-0.2c0,0,0.5-0.5,1.1-0.7c0.5-0.1,0.7-0.2,1.1-0.2l0.1,0c0.4,0,0.6,0.1,1,0.2l0.1,0c0.6,0.2,1.1,0.6,1.1,0.7
					c0,0,0.1,0.1,0,0.2l-0.3,0.4c0,2.6,0,3.6,0,4.4c0,0.4,0,0.6,0,0.9c0,0,0,0.1-0.1,0.1C67.2,86.5,67.1,86.6,65.6,86.6z M63.6,86.3
					c0.2,0,1,0.1,2,0.1c0.8,0,1.2,0,1.4,0c0-0.3,0-0.5,0-0.8c0-0.7,0-1.8,0-4.4c0,0,0-0.1,0-0.1l0.3-0.4c-0.2-0.1-0.5-0.4-0.9-0.5
					l-0.1,0c-0.3-0.1-0.5-0.1-0.9-0.1l-0.1,0c-0.5,0-0.6,0-1.1,0.2c-0.4,0.1-0.8,0.4-0.9,0.5l0.2,0.3c0,0,0,0,0,0.1
					C63.5,84.6,63.6,86,63.6,86.3z"/>
			</g>
			<g>
				<path id="path67971_1_" sodipodi:nodetypes="csc" fill="#4DB9DF" d="M63.5,81.1c0.4-0.3,1.2-0.5,1.8-0.5c0.6,0,1.4,0.2,1.8,0.5"
					/>
				<path fill="#FFFFFF" d="M63.5,81.2C63.4,81.2,63.4,81.2,63.5,81.2c-0.1-0.1-0.1-0.2-0.1-0.2c0.4-0.4,1.3-0.6,1.9-0.6
					c0,0,0,0,0,0c0.6,0,1.4,0.3,1.9,0.5c0.1,0,0.1,0.1,0,0.2c0,0.1-0.1,0.1-0.2,0c-0.4-0.3-1.2-0.5-1.7-0.5
					C64.7,80.7,63.9,80.9,63.5,81.2C63.5,81.2,63.5,81.2,63.5,81.2z"/>
			</g>
			<path fill="#FFFFFF" d="M64.7,82.3c-0.1,0-0.1-0.1-0.1-0.1l0-1.5c0-0.1,0.1-0.1,0.1-0.1c0.1,0,0.1,0.1,0.1,0.1l0,1.5
				C64.8,82.2,64.8,82.3,64.7,82.3C64.7,82.3,64.7,82.3,64.7,82.3z"/>
			<path fill="#FFFFFF" d="M65.9,82.3c-0.1,0-0.1-0.1-0.1-0.1l0-1.5c0-0.1,0.1-0.1,0.1-0.1c0,0,0,0,0,0c0.1,0,0.1,0.1,0.1,0.1l0,1.5
				C66,82.2,66,82.3,65.9,82.3C65.9,82.3,65.9,82.3,65.9,82.3z"/>
			<g>
				<path id="path67977_1_" sodipodi:nodetypes="cc" fill="#4DB9DF" d="M63.4,82.5c1.2-0.5,2.5-0.5,3.7,0"/>
				<path fill="#FFFFFF" d="M63.4,82.6c0,0-0.1,0-0.1-0.1c0-0.1,0-0.1,0.1-0.2c1.2-0.5,2.4-0.5,3.7,0c0.1,0,0.1,0.1,0.1,0.2
					c0,0.1-0.1,0.1-0.2,0.1C65.8,82.1,64.7,82.1,63.4,82.6C63.5,82.6,63.5,82.6,63.4,82.6z"/>
			</g>
			<g>
				<path id="path67979_1_" sodipodi:nodetypes="cc" fill="#D6DABA" d="M63.5,83.8c1.2-0.3,2.4-0.3,3.6,0"/>
				<path d="M67.1,83.9c-1.2-0.3-2.4-0.3-3.6,0l0-0.2c1.2-0.3,2.4-0.3,3.7,0L67.1,83.9z"/>
			</g>
			<g>
				<path id="path67983_1_" fill="#D6DABA" d="M65.3,82.1v1.5"/>
				<rect x="65.2" y="82.1" width="0.2" height="1.5"/>
			</g>
			<g>
				<path id="path67985_1_" fill="#D6DABA" d="M66.5,82.3l0,1.4"/>
				
					<rect x="65.9" y="82.9" transform="matrix(1.946739e-02 0.9998 -0.9998 1.946739e-02 148.2067 14.8335)" width="1.4" height="0.2"/>
			</g>
			<g>
				<path id="path67987_1_" fill="#D6DABA" d="M65.9,83.6l0,1.4"/>
				<rect x="65.2" y="84.2" transform="matrix(5.211405e-03 1 -1 5.211405e-03 149.8365 17.9602)" width="1.4" height="0.2"/>
			</g>
			<g>
				<path id="path67989_1_" fill="#D6DABA" d="M64.7,83.6l0,1.4"/>
				<rect x="64.6" y="83.6" width="0.2" height="1.4"/>
			</g>
			<g>
				<path id="path67991_1_" fill="#D6DABA" d="M65.3,85v1.5"/>
				<rect x="65.2" y="85" width="0.2" height="1.5"/>
			</g>
			<g>
				<path id="path67993_1_" fill="#D6DABA" d="M64,85l0,1.4"/>
				<rect x="63.9" y="85" transform="matrix(0.9996 2.744064e-02 -2.744064e-02 0.9996 2.3763 -1.7231)" width="0.2" height="1.4"/>
			</g>
			<g>
				<path id="path67995_1_" fill="#D6DABA" d="M66.6,85l0,1.4"/>
				
					<rect x="65.9" y="85.6" transform="matrix(3.045894e-02 0.9995 -0.9995 3.045894e-02 150.26 16.5523)" width="1.4" height="0.2"/>
			</g>
			<g>
				<path id="path67997_1_" fill="#D6DABA" d="M63.5,85l0.8,0"/>
				<rect x="63.5" y="84.9" width="0.8" height="0.2"/>
			</g>
			<g>
				<path id="path67999_1_" fill="#D6DABA" d="M66.3,85l0.8,0"/>
				<rect x="66.3" y="84.9" width="0.8" height="0.2"/>
			</g>
			<g>
				<path id="path68001_1_" fill="#D6DABA" d="M64.7,85h1.2"/>
				<rect x="64.7" y="84.9" width="1.2" height="0.2"/>
			</g>
			<g>
				<path id="path68003_1_" fill="#D6DABA" d="M63.4,86.3l0.7,0.1"/>
				<rect x="63.4" y="86.3" transform="matrix(0.9907 0.1359 -0.1359 0.9907 12.3319 -7.8672)" width="0.7" height="0.2"/>
			</g>
			<g>
				<path id="path68005_1_" fill="#D6DABA" d="M67.2,86.3l-0.7,0.1"/>
				<rect x="66.7" y="86" transform="matrix(0.1296 0.9916 -0.9916 0.1296 143.7883 8.9463)" width="0.2" height="0.8"/>
			</g>
			<g>
				<path id="path68007_1_" sodipodi:nodetypes="cc" fill="#D6DABA" d="M64.8,86.5c0.3,0,0.7,0,1,0"/>
				<path d="M65.3,86.6c-0.2,0-0.3,0-0.5,0l0-0.2c0.3,0,0.6,0,1,0l0,0.2C65.6,86.6,65.4,86.6,65.3,86.6z"/>
			</g>
			<g>
				<path id="path68009_1_" fill="#4DB9DF" d="M64.7,85.2c0,0,0-1.6,0-2.3c0-0.8,0.3-1,0.6-1s0.6,0.2,0.6,1c0,0.8,0,2.3,0,2.3
					L64.7,85.2z"/>
				<path fill="#FFFFFF" d="M65.9,85.3L65.9,85.3l-1.2,0c-0.1,0-0.1-0.1-0.1-0.1c0,0,0-1.6,0-2.3c0-1,0.5-1.1,0.7-1.1
					c0.5,0,0.8,0.4,0.8,1.1c0,0.8,0,2.3,0,2.3C66,85.3,66,85.3,65.9,85.3z M64.8,85.1l1,0c0-0.4,0-1.5,0-2.2c0-0.8-0.3-0.9-0.5-0.9
					h0c-0.4,0-0.5,0.5-0.5,0.8C64.8,83.5,64.8,84.7,64.8,85.1z"/>
			</g>
			<g>
				<path id="path68025_1_" sodipodi:nodetypes="cccccccccccccscccccccc" fill="#4DB9DF" d="M52.8,78.1c-0.2,0.1-0.3,0.2-0.5,0.3
					v2.2c0.9-1.1,3.3-1.1,4.3,0l0-2.2c-0.2-0.1-0.3-0.2-0.5-0.3v1l-0.5-0.2v-1c-0.2-0.1-0.3-0.1-0.5-0.2v1l-0.5-0.1v-1
					c-0.1,0-0.2,0-0.2,0c-0.1,0-0.2,0-0.2,0v1l-0.5,0.1v-1c-0.2,0-0.3,0.1-0.5,0.2v1l-0.5,0.2V78.1z"/>
				<path fill="#FFFFFF" d="M56.6,80.7C56.5,80.7,56.5,80.6,56.6,80.7c-0.5-0.5-1.3-0.8-2.1-0.8c-0.9,0-1.6,0.3-2,0.8
					c0,0-0.1,0.1-0.1,0c0,0-0.1-0.1-0.1-0.1v-2.2c0,0,0-0.1,0.1-0.1c0.2-0.1,0.3-0.2,0.5-0.3c0,0,0.1,0,0.1,0c0,0,0.1,0.1,0.1,0.1
					v0.8l0.2-0.1v-1c0,0,0-0.1,0.1-0.1c0.2-0.1,0.4-0.1,0.5-0.2c0,0,0.1,0,0.1,0c0,0,0.1,0.1,0.1,0.1v0.8l0.2,0v-0.9
					c0-0.1,0-0.1,0.1-0.1c0,0,0.1,0,0.1,0c0.1,0,0.2,0,0.3,0c0,0,0.1,0,0.1,0c0.1,0,0.1,0.1,0.1,0.1v0.9l0.2,0v-0.9
					c0,0,0-0.1,0.1-0.1c0,0,0.1,0,0.1,0c0.2,0.1,0.3,0.1,0.5,0.2c0,0,0.1,0.1,0.1,0.1v0.9l0.2,0.1v-0.8c0,0,0-0.1,0.1-0.1
					c0,0,0.1,0,0.1,0c0.2,0.1,0.3,0.2,0.5,0.3c0,0,0.1,0.1,0.1,0.1l0,2.1c0,0,0,0,0,0C56.7,80.6,56.6,80.7,56.6,80.7
					C56.6,80.7,56.6,80.7,56.6,80.7z M54.4,79.6c0.8,0,1.5,0.2,2,0.6l0-1.8c-0.1,0-0.1-0.1-0.2-0.1v0.8c0,0,0,0.1-0.1,0.1
					c0,0-0.1,0-0.1,0l-0.5-0.2c0,0-0.1-0.1-0.1-0.1v-0.9c-0.1,0-0.1-0.1-0.2-0.1v0.8c0,0,0,0.1,0,0.1c0,0-0.1,0-0.1,0l-0.5-0.1
					c-0.1,0-0.1-0.1-0.1-0.1v-0.9c-0.1,0-0.1,0-0.2,0v0.9c0,0.1,0,0.1-0.1,0.1l-0.5,0.1c0,0-0.1,0-0.1,0c0,0,0-0.1,0-0.1v-0.8
					c-0.1,0-0.1,0.1-0.2,0.1v1c0,0,0,0.1-0.1,0.1l-0.5,0.2c0,0-0.1,0-0.1,0c0,0-0.1-0.1-0.1-0.1v-0.8c-0.1,0-0.2,0.1-0.2,0.1v1.8
					C52.9,79.8,53.6,79.6,54.4,79.6z"/>
			</g>
			<g>
				<path id="path68027_1_" sodipodi:nodetypes="cccccccccc" fill="#4DB9DF" d="M54.5,79.7c-0.5,0-0.6,0-1.1,0.2
					c-0.6,0.2-1.1,0.6-1.1,0.6l0.3,0.4c-0.1,3.9,0,5.3,0,5.3c0.1,0.1,3.5,0.1,3.7,0c0-1-0.1-1.5,0-5.4l0.3-0.4c0,0-0.5-0.4-1.1-0.6
					C55.1,79.8,54.9,79.7,54.5,79.7z"/>
				<path fill="#FFFFFF" d="M54.7,86.5C54.7,86.5,54.7,86.5,54.7,86.5c-2.1,0-2.2-0.1-2.2-0.2c-0.1-0.1,0-4.1,0-5.4l-0.3-0.4
					c0-0.1,0-0.1,0-0.2c0,0,0.5-0.5,1.1-0.7c0.5-0.1,0.7-0.2,1.1-0.2l0.1,0c0.4,0,0.6,0.1,1,0.2l0.1,0c0.6,0.2,1.1,0.6,1.1,0.7
					c0,0,0.1,0.1,0,0.2L56.4,81c0,2.5,0,3.6,0,4.4c0,0.4,0,0.6,0,0.9c0,0,0,0.1-0.1,0.1C56.3,86.4,56.2,86.5,54.7,86.5z M52.7,86.2
					c0.2,0,1,0.1,2,0.1c0.8,0,1.2,0,1.4,0c0-0.3,0-0.5,0-0.8c0-0.7,0-1.8,0-4.4c0,0,0-0.1,0-0.1l0.3-0.4c-0.2-0.1-0.5-0.4-0.9-0.5
					l-0.1,0c-0.3-0.1-0.5-0.1-0.9-0.1l-0.1,0c-0.5,0-0.6,0-1.1,0.2c-0.4,0.1-0.8,0.4-0.9,0.5l0.2,0.3c0,0,0,0,0,0.1
					C52.7,84.5,52.7,85.9,52.7,86.2z"/>
			</g>
			<g>
				<path id="path68029_1_" sodipodi:nodetypes="csc" fill="#4DB9DF" d="M52.6,81c0.4-0.3,1.2-0.5,1.8-0.5c0.6,0,1.4,0.2,1.8,0.5"/>
				<path fill="#FFFFFF" d="M52.6,81.1C52.6,81.1,52.5,81.1,52.6,81.1c-0.1-0.1-0.1-0.2-0.1-0.2c0.4-0.4,1.3-0.6,1.9-0.6
					c0.6,0,1.4,0.3,1.9,0.5c0.1,0,0.1,0.1,0,0.2c0,0.1-0.1,0.1-0.2,0c-0.4-0.3-1.2-0.5-1.7-0.5C53.8,80.6,53,80.8,52.6,81.1
					C52.7,81.1,52.6,81.1,52.6,81.1z"/>
			</g>
			<path fill="#FFFFFF" d="M53.8,82.2c-0.1,0-0.1-0.1-0.1-0.1l0-1.5c0-0.1,0.1-0.1,0.1-0.1c0.1,0,0.1,0.1,0.1,0.1l0,1.5
				C54,82.1,53.9,82.2,53.8,82.2C53.8,82.2,53.8,82.2,53.8,82.2z"/>
			<path fill="#FFFFFF" d="M55,82.2c-0.1,0-0.1-0.1-0.1-0.1l0-1.5c0-0.1,0.1-0.1,0.1-0.1c0,0,0,0,0,0c0.1,0,0.1,0.1,0.1,0.1l0,1.5
				C55.1,82.1,55.1,82.2,55,82.2C55,82.2,55,82.2,55,82.2z"/>
			<g>
				<path id="path68035_1_" sodipodi:nodetypes="cc" fill="#4DB9DF" d="M52.6,82.4c1.2-0.5,2.5-0.5,3.7,0"/>
				<path fill="#FFFFFF" d="M56.2,82.5C56.2,82.5,56.2,82.5,56.2,82.5c-1.3-0.5-2.4-0.5-3.6,0c-0.1,0-0.1,0-0.2-0.1
					c0-0.1,0-0.1,0.1-0.2c1.2-0.5,2.4-0.5,3.7,0c0.1,0,0.1,0.1,0.1,0.2C56.3,82.5,56.3,82.5,56.2,82.5z"/>
			</g>
			<g>
				<path id="path68037_1_" sodipodi:nodetypes="cc" fill="#D6DABA" d="M52.6,83.7c1.2-0.3,2.4-0.3,3.6,0"/>
				<path d="M56.2,83.8c-1.2-0.3-2.4-0.3-3.6,0l0-0.2c1.2-0.3,2.4-0.3,3.7,0L56.2,83.8z"/>
			</g>
			<g>
				<path id="path68039_1_" fill="#D6DABA" d="M53.2,82.2l0,1.4"/>
				<rect x="53.1" y="82.2" width="0.2" height="1.4"/>
			</g>
			<g>
				<path id="path68041_1_" fill="#D6DABA" d="M54.4,82v1.5"/>
				<rect x="54.3" y="82" width="0.2" height="1.5"/>
			</g>
			<g>
				<path id="path68045_1_" fill="#D6DABA" d="M55,83.5l0,1.4"/>
				<rect x="54.3" y="84.1" transform="matrix(5.211405e-03 1 -1 5.211405e-03 138.9342 28.7218)" width="1.4" height="0.2"/>
			</g>
			<g>
				<path id="path68047_1_" fill="#D6DABA" d="M53.9,83.5l0,1.4"/>
				<rect x="53.7" y="83.5" width="0.2" height="1.4"/>
			</g>
			<g>
				<path id="path68049_1_" fill="#D6DABA" d="M54.4,84.9v1.5"/>
				<rect x="54.3" y="84.9" width="0.2" height="1.5"/>
			</g>
			<g>
				<path id="path68051_1_" fill="#D6DABA" d="M53.1,84.9l0,1.4"/>
				<rect x="53" y="84.9" transform="matrix(0.9996 2.749451e-02 -2.749451e-02 0.9996 2.3741 -1.4279)" width="0.2" height="1.4"/>
			</g>
			<g>
				<path id="path68053_1_" fill="#D6DABA" d="M55.7,84.9l0,1.4"/>
				
					<rect x="55" y="85.5" transform="matrix(3.045417e-02 0.9995 -0.9995 3.045417e-02 139.6324 27.312)" width="1.4" height="0.2"/>
			</g>
			<g>
				<path id="path68055_1_" fill="#D6DABA" d="M52.6,84.9l0.8,0"/>
				<rect x="52.6" y="84.8" width="0.8" height="0.2"/>
			</g>
			<g>
				<path id="path68057_1_" fill="#D6DABA" d="M55.5,84.9l0.8,0"/>
				<rect x="55.5" y="84.8" width="0.8" height="0.2"/>
			</g>
			<g>
				<path id="path68059_1_" fill="#D6DABA" d="M53.8,84.9H55"/>
				<rect x="53.8" y="84.8" width="1.2" height="0.2"/>
			</g>
			<g>
				<path id="path68061_1_" fill="#D6DABA" d="M52.6,86.2l0.7,0.1"/>
				<rect x="52.6" y="86.2" transform="matrix(0.9907 0.136 -0.136 0.9907 12.2217 -6.3938)" width="0.7" height="0.2"/>
			</g>
			<g>
				<path id="path68063_1_" fill="#D6DABA" d="M56.3,86.2l-0.7,0.1"/>
				<rect x="55.8" y="85.9" transform="matrix(0.1296 0.9916 -0.9916 0.1296 134.2377 19.6288)" width="0.2" height="0.8"/>
			</g>
			<g>
				<path id="path68065_1_" sodipodi:nodetypes="cc" fill="#D6DABA" d="M53.9,86.4c0.3,0,0.7,0,1,0"/>
				<path d="M54.4,86.5c-0.2,0-0.3,0-0.5,0l0-0.2c0.3,0,0.6,0,1,0l0,0.2C54.8,86.5,54.6,86.5,54.4,86.5z"/>
			</g>
			<g>
				<path id="path68067_1_" fill="#4DB9DF" d="M53.8,85.1c0,0,0-1.6,0-2.3c0-0.8,0.3-1,0.6-1c0.3,0,0.6,0.2,0.6,1c0,0.8,0,2.3,0,2.3
					L53.8,85.1z"/>
				<path fill="#FFFFFF" d="M55,85.2L55,85.2l-1.2,0c-0.1,0-0.1-0.1-0.1-0.1c0,0,0-1.6,0-2.3c0-1,0.5-1.1,0.7-1.1
					c0.5,0,0.7,0.4,0.8,1.1c0,0.8,0,2.3,0,2.3C55.2,85.2,55.1,85.2,55,85.2z M53.9,85l1,0c0-0.4,0-1.5,0-2.2c0-0.8-0.3-0.9-0.5-0.9
					c0,0,0,0,0,0c-0.4,0-0.5,0.5-0.5,0.8C53.9,83.4,53.9,84.6,53.9,85z"/>
			</g>
			<g>
				<path id="path68083_1_" sodipodi:nodetypes="cccccccccccccscccccccc" fill="#4DB9DF" d="M57.8,76c-0.2,0.1-0.4,0.3-0.6,0.4v2.8
					c1.1-1.4,4-1.4,5.1,0l0-2.8c-0.2-0.1-0.4-0.3-0.6-0.4v1.3L61.2,77v-1.3c-0.2-0.1-0.4-0.2-0.6-0.2v1.3l-0.6-0.1v-1.3
					c-0.1,0-0.2,0-0.3,0c-0.1,0-0.2,0-0.3,0v1.3l-0.6,0.1v-1.3c-0.2,0.1-0.4,0.1-0.6,0.2V77l-0.6,0.3V76z"/>
				<path fill="#FFFFFF" d="M57.2,79.3C57.2,79.3,57.2,79.3,57.2,79.3c-0.1,0-0.1-0.1-0.1-0.1v-2.8c0,0,0-0.1,0-0.1
					c0.2-0.1,0.4-0.3,0.6-0.4c0,0,0.1,0,0.1,0c0,0,0.1,0.1,0.1,0.1v1.1l0.3-0.1v-1.3c0,0,0-0.1,0.1-0.1c0.2-0.1,0.3-0.2,0.6-0.2
					c0,0,0.1,0,0.1,0c0,0,0.1,0.1,0.1,0.1v1.1l0.3-0.1v-1.2c0-0.1,0-0.1,0.1-0.1c0,0,0.1,0,0.1,0c0.1,0,0.3,0,0.4,0c0,0,0.1,0,0.1,0
					c0.1,0,0.1,0.1,0.1,0.1v1.2l0.3,0.1v-1.1c0,0,0-0.1,0.1-0.1c0,0,0.1,0,0.1,0c0.2,0.1,0.4,0.1,0.6,0.2c0,0,0.1,0.1,0.1,0.1v1.2
					l0.3,0.2v-1.1c0,0,0-0.1,0.1-0.1c0,0,0.1,0,0.1,0c0.2,0.1,0.4,0.2,0.6,0.4c0,0,0,0.1,0,0.1l0,2.8c0,0,0,0,0,0
					c0,0.1-0.1,0.1-0.1,0.1c0,0-0.1,0-0.1,0c-0.5-0.6-1.4-1-2.4-1C58.7,78.2,57.8,78.6,57.2,79.3C57.3,79.3,57.3,79.3,57.2,79.3z
					 M59.8,78c1,0,1.8,0.3,2.4,0.8l0-2.4c-0.1-0.1-0.2-0.2-0.3-0.2v1.1c0,0,0,0.1-0.1,0.1c0,0-0.1,0-0.1,0l-0.6-0.3
					c0,0-0.1-0.1-0.1-0.1v-1.2c-0.1,0-0.2-0.1-0.3-0.1v1.1c0,0,0,0.1,0,0.1c0,0-0.1,0-0.1,0L60,76.7c-0.1,0-0.1-0.1-0.1-0.1v-1.2
					c-0.1,0-0.2,0-0.3,0v1.2c0,0.1,0,0.1-0.1,0.1L59,76.9c0,0-0.1,0-0.1,0c0,0,0-0.1,0-0.1v-1.1c-0.1,0-0.2,0.1-0.3,0.1V77
					c0,0,0,0.1-0.1,0.1l-0.6,0.3c0,0-0.1,0-0.1,0c0,0-0.1-0.1-0.1-0.1v-1.1c-0.1,0.1-0.2,0.1-0.3,0.2v2.4C57.9,78.3,58.8,78,59.8,78
					z"/>
			</g>
			<g>
				<path id="path68085_1_" sodipodi:nodetypes="cccccccccc" fill="#4DB9DF" d="M59.8,78.1c-0.5,0-0.8,0.1-1.3,0.2
					c-0.7,0.3-1.3,0.8-1.3,0.8l0.4,0.6c-0.1,5,0,6.8,0,6.9c0.1,0.2,4.2,0.2,4.4,0c0-1.2-0.1-2,0-6.9l0.4-0.6c0,0-0.6-0.6-1.3-0.8
					C60.6,78.2,60.4,78.1,59.8,78.1z"/>
				<path fill="#FFFFFF" d="M60.1,86.8L60.1,86.8c-2.5,0-2.6-0.1-2.7-0.2c-0.1-0.1,0-6.3,0-6.9l-0.4-0.5c0,0,0-0.1,0-0.2
					c0,0,0.5-0.6,1.3-0.9C59,78,59.2,78,59.8,78l0.1,0c0.5,0,0.7,0.1,1.1,0.2l0.1,0c0.7,0.2,1.3,0.8,1.3,0.8c0,0,0,0.1,0,0.2
					l-0.4,0.5c0,3.3,0,4.7,0,5.7c0,0.5,0,0.8,0,1.2c0,0,0,0.1-0.1,0.1C62,86.7,61.9,86.8,60.1,86.8z M57.7,86.5
					c0.2,0,1.2,0.1,2.4,0.1c0.9,0,1.5,0,1.7-0.1c0-0.4,0-0.7,0-1.1c0-0.9-0.1-2.4,0-5.7c0,0,0-0.1,0-0.1l0.3-0.5
					C62,79,61.5,78.6,61,78.4l-0.1,0c-0.4-0.1-0.6-0.2-1.1-0.2l-0.1,0c-0.5,0-0.7,0.1-1.3,0.2c-0.5,0.2-1,0.6-1.1,0.7l0.3,0.5
					c0,0,0,0,0,0.1C57.7,84.1,57.7,86.1,57.7,86.5z"/>
			</g>
			<g>
				<path id="path68087_1_" sodipodi:nodetypes="csc" fill="#4DB9DF" d="M57.6,79.7c0.5-0.4,1.5-0.7,2.2-0.7c0.7,0,1.7,0.3,2.1,0.7"
					/>
				<path fill="#FFFFFF" d="M57.6,79.8C57.6,79.8,57.5,79.8,57.6,79.8c-0.1-0.1-0.1-0.2-0.1-0.2c0.5-0.5,1.6-0.7,2.2-0.7
					c0.7,0,1.7,0.3,2.2,0.7c0.1,0,0.1,0.1,0,0.2c0,0.1-0.1,0.1-0.2,0c-0.5-0.3-1.4-0.6-2.1-0.6C59,79.1,58.1,79.4,57.6,79.8
					C57.7,79.8,57.7,79.8,57.6,79.8z"/>
			</g>
			<path fill="#FFFFFF" d="M59.1,81.2c-0.1,0-0.1-0.1-0.1-0.1l0-2c0-0.1,0.1-0.1,0.1-0.1c0,0,0,0,0,0c0.1,0,0.1,0.1,0.1,0.1l0,2
				C59.2,81.2,59.1,81.2,59.1,81.2C59.1,81.2,59.1,81.2,59.1,81.2z"/>
			<path fill="#FFFFFF" d="M60.5,81.2c-0.1,0-0.1-0.1-0.1-0.1l0-2c0-0.1,0.1-0.1,0.1-0.1h0c0.1,0,0.1,0.1,0.1,0.1l0,2
				C60.6,81.2,60.5,81.2,60.5,81.2L60.5,81.2z"/>
			<g>
				<path id="path68093_1_" sodipodi:nodetypes="cc" fill="#4DB9DF" d="M57.6,81.5c1.5-0.7,2.9-0.6,4.3,0"/>
				<path fill="#FFFFFF" d="M61.9,81.7C61.9,81.7,61.9,81.6,61.9,81.7c-1.5-0.6-2.9-0.6-4.3,0c-0.1,0-0.1,0-0.2-0.1
					c0-0.1,0-0.1,0.1-0.2c1.4-0.7,2.9-0.7,4.5,0c0.1,0,0.1,0.1,0.1,0.2C62,81.6,62,81.7,61.9,81.7z"/>
			</g>
			<g>
				<path id="path68095_1_" sodipodi:nodetypes="cc" fill="#D6DABA" d="M57.6,83.2c1.5-0.4,2.9-0.3,4.3,0"/>
				<path d="M61.9,83.3c-1.5-0.3-2.9-0.3-4.3,0l0-0.2c1.4-0.3,2.9-0.3,4.4,0L61.9,83.3z"/>
			</g>
			<g>
				<path id="path68099_1_" fill="#D6DABA" d="M59.8,81v1.9"/>
				<rect x="59.7" y="81" width="0.2" height="1.9"/>
			</g>
			<g>
				<path id="path68103_1_" fill="#D6DABA" d="M60.5,82.9l0,1.9"/>
				<rect x="59.6" y="83.8" transform="matrix(4.998738e-03 1 -1 4.998738e-03 144.0466 22.9486)" width="1.9" height="0.2"/>
			</g>
			<g>
				<path id="path68105_1_" fill="#D6DABA" d="M59.1,83l0,1.8"/>
				<rect x="59" y="83" width="0.2" height="1.8"/>
			</g>
			<g>
				<path id="path68107_1_" fill="#D6DABA" d="M59.8,84.8v1.9"/>
				<rect x="59.7" y="84.8" width="0.2" height="1.9"/>
			</g>
			<g>
				<path id="path68109_1_" fill="#D6DABA" d="M58.2,84.8l0,1.8"/>
				<rect x="58.1" y="84.8" width="0.2" height="1.8"/>
			</g>
			<g>
				<path id="path68111_1_" fill="#D6DABA" d="M61.3,84.8l0.1,1.8"/>
				
					<rect x="60.4" y="85.6" transform="matrix(2.812988e-02 0.9996 -0.9996 2.812988e-02 145.2876 21.9948)" width="1.8" height="0.2"/>
			</g>
			<g>
				<path id="path68113_1_" sodipodi:nodetypes="cc" fill="#D6DABA" d="M57.6,84.8l1.4,0"/>
				
					<rect x="57.6" y="84.8" transform="matrix(0.9998 1.913525e-02 -1.913525e-02 0.9998 1.6342 -1.1006)" width="1.4" height="0.2"/>
			</g>
			<g>
				<path id="path68115_1_" sodipodi:nodetypes="cc" fill="#D6DABA" d="M60.5,84.8l1.5,0"/>
				<rect x="60.5" y="84.7" width="1.5" height="0.2"/>
			</g>
			<g>
				<path id="path68117_1_" fill="#D6DABA" d="M59.1,84.8h1.4"/>
				<rect x="59.1" y="84.7" width="1.4" height="0.2"/>
			</g>
			<g>
				<path id="path68119_1_" fill="#D6DABA" d="M57.6,86.5l0.8,0.1"/>
				<rect x="57.6" y="86.5" transform="matrix(0.9892 0.1467 -0.1467 0.9892 13.326 -7.5702)" width="0.8" height="0.2"/>
			</g>
			<g>
				<path id="path68121_1_" fill="#D6DABA" d="M62,86.5l-0.9,0.1"/>
				<rect x="61.5" y="86.1" transform="matrix(0.1411 0.99 -0.99 0.1411 138.5631 13.3791)" width="0.2" height="0.9"/>
			</g>
			<g>
				<path id="path68123_1_" sodipodi:nodetypes="cc" fill="#D6DABA" d="M59.2,86.7c0.4,0,0.8,0,1.2,0"/>
				<path d="M59.7,86.8c-0.2,0-0.4,0-0.6,0l0-0.2c0.4,0,0.8,0,1.2,0l0,0.2C60.2,86.8,59.9,86.8,59.7,86.8z"/>
			</g>
			<g>
				<path id="path68125_1_" fill="#4DB9DF" d="M59,85c0,0,0-2,0-3c0-1,0.4-1.3,0.7-1.3c0.4,0,0.7,0.2,0.7,1.3c0,1,0,3,0,3L59,85z"/>
				<path fill="#FFFFFF" d="M60.5,85.2L60.5,85.2l-1.5,0c-0.1,0-0.1-0.1-0.1-0.1c0,0,0-2,0-3c0-1.2,0.6-1.4,0.8-1.4
					c0.6,0,0.9,0.5,0.9,1.4c0,1,0,2.9,0,3C60.6,85.1,60.6,85.2,60.5,85.2z M59.2,84.9l1.2,0c0-0.4,0-2,0-2.8c0-1.1-0.4-1.1-0.6-1.2
					c0,0,0,0,0,0c-0.4,0-0.6,0.4-0.6,1.1C59.1,82.9,59.2,84.4,59.2,84.9z"/>
			</g>
			<path id="path68309_2_" fill="#FFFFFF" d="M64.9,85c0,0,0-1.3,0-2c0-0.6,0.2-0.8,0.4-0.8c0.2,0,0.4,0.2,0.4,0.8
				c0,0.7,0,1.9,0,1.9L64.9,85z"/>
			<path id="path68311_2_" fill="#FFFFFF" d="M54,84.9c0,0,0-1.3,0-2c0-0.6,0.2-0.8,0.4-0.8s0.4,0.2,0.4,0.8c0,0.7,0,1.9,0,1.9
				L54,84.9z"/>
			<path id="path68313_2_" fill="#FFFFFF" d="M59.3,84.7c0,0,0-1.7,0-2.5c0-0.8,0.2-1.1,0.5-1.1c0.2,0,0.5,0.2,0.5,1.1
				c0,0.9,0,2.5,0,2.5L59.3,84.7z"/>
			<path fill="#FFFFFF" d="M71.7,106.4C71.7,106.4,71.7,106.4,71.7,106.4c-6.1-0.8-17.5-0.7-22.8-0.1c-0.1,0-0.1,0-0.1-0.1
				c0-0.1,0-0.1,0.1-0.1c5.4-0.6,16.8-0.7,22.9,0.1c0.1,0,0.1,0.1,0.1,0.1C71.8,106.3,71.7,106.4,71.7,106.4z"/>
			<path fill="#FFFFFF" d="M71.4,109.2C71.4,109.2,71.4,109.2,71.4,109.2c-1.9-0.2-4.3-0.4-7.2-0.5c-0.1,0-0.1-0.1-0.1-0.1
				c0-0.1,0.1-0.1,0.1-0.1c2.9,0.1,5.4,0.3,7.2,0.5c0.1,0,0.1,0.1,0.1,0.1C71.6,109.2,71.5,109.2,71.4,109.2z"/>
			<path fill="#FFFFFF" d="M49,109.1c-0.1,0-0.1,0-0.1-0.1c0-0.1,0-0.1,0.1-0.1c1.7-0.2,3.9-0.3,6.5-0.4c0.1,0,0.1,0.1,0.1,0.1
				c0,0.1-0.1,0.1-0.1,0.1C53,108.7,50.7,108.9,49,109.1C49,109.1,49,109.1,49,109.1z"/>
			<path fill="#FFFFFF" d="M71.4,112.2C71.4,112.2,71.4,112.2,71.4,112.2c-1.8-0.1-4.2-0.2-7-0.2c-0.1,0-0.1-0.1-0.1-0.1
				c0-0.1,0.1-0.1,0.1-0.1c2.8,0,5.2,0.1,7,0.2c0.1,0,0.1,0.1,0.1,0.1C71.6,112.1,71.5,112.2,71.4,112.2z"/>
			<path fill="#FFFFFF" d="M49,112.1c-0.1,0-0.1-0.1-0.1-0.1c0-0.1,0.1-0.1,0.1-0.1c1.7-0.1,3.9-0.1,6.6-0.2c0.1,0,0.1,0.1,0.1,0.1
				c0,0.1-0.1,0.1-0.1,0.1C52.9,112,50.7,112,49,112.1C49,112.1,49,112.1,49,112.1z"/>
			<g>
				<path id="path68191_1_" sodipodi:nodetypes="ccccc" fill="#4DB9DF" d="M61.2,81.5L60.7,82v2.9l1.6-0.8L61.2,81.5z"/>
				<path fill="#FFFFFF" d="M60.7,85C60.7,85,60.7,85,60.7,85c-0.1,0-0.1-0.1-0.1-0.1V82c0,0,0-0.1,0-0.1l0.5-0.5c0,0,0.1,0,0.1,0
					c0,0,0.1,0,0.1,0.1l1.2,2.6c0,0.1,0,0.1-0.1,0.2L60.7,85C60.7,85,60.7,85,60.7,85z M60.8,82.1v2.6l1.3-0.7l-1-2.3L60.8,82.1z"/>
			</g>
			<g>
				<path id="path68193_1_" sodipodi:nodetypes="ccccc" fill="#4DB9DF" d="M58.3,81.5l0.5,0.5v2.9l-1.6-0.8L58.3,81.5z"/>
				<path fill="#FFFFFF" d="M58.8,85C58.8,85,58.7,85,58.8,85l-1.7-0.8C57,84.1,57,84.1,57,84l1.2-2.6c0,0,0.1-0.1,0.1-0.1
					c0,0,0.1,0,0.1,0l0.5,0.5c0,0,0,0.1,0,0.1v2.9C58.9,84.9,58.9,85,58.8,85C58.8,85,58.8,85,58.8,85z M57.3,84l1.3,0.7v-2.6
					l-0.3-0.3L57.3,84z"/>
			</g>
			<g>
				<path id="path68197_1_" sodipodi:nodetypes="ccccc" fill="#4DB9DF" d="M53.7,82.1l0.8,0.4v2.9l-1.9-0.7L53.7,82.1z"/>
				<path fill="#FFFFFF" d="M54.4,85.5C54.4,85.5,54.4,85.5,54.4,85.5l-2-0.7c0,0-0.1,0-0.1-0.1c0,0,0-0.1,0-0.1l1.2-2.6
					c0,0,0-0.1,0.1-0.1c0,0,0.1,0,0.1,0l0.8,0.4c0,0,0.1,0.1,0.1,0.1v2.9C54.5,85.5,54.5,85.5,54.4,85.5
					C54.5,85.5,54.4,85.5,54.4,85.5z M52.7,84.6l1.6,0.6v-2.6l-0.6-0.3L52.7,84.6z"/>
			</g>
			<g>
				<path id="path68195_1_" sodipodi:nodetypes="ccccc" fill="#4DB9DF" d="M66.3,82.1l-0.8,0.4v2.9l1.9-0.7L66.3,82.1z"/>
				<path fill="#FFFFFF" d="M65.5,85.5C65.5,85.5,65.5,85.5,65.5,85.5c-0.1,0-0.1-0.1-0.1-0.1v-2.9c0,0,0-0.1,0.1-0.1l0.8-0.4
					c0,0,0.1,0,0.1,0c0,0,0.1,0,0.1,0.1l1.2,2.6c0,0,0,0.1,0,0.1c0,0,0,0.1-0.1,0.1L65.5,85.5C65.6,85.5,65.5,85.5,65.5,85.5z
					 M65.7,82.6v2.6l1.6-0.6l-1.1-2.3L65.7,82.6z"/>
			</g>
			<g>
				<path id="path68199_1_" sodipodi:nodetypes="ccccccccccccccccc" fill="#4DB9DF" d="M53.6,82.2c-0.6,0.1-1.2,0.3-1.8,0.5v4
					c3.6-1.7,12.7-1.6,16.3,0l0-4c-0.6-0.2-1.2-0.3-1.8-0.5v1.6l-2.3-0.4v-1.6c-0.6-0.1-2.2-0.2-2.8-0.3v1.6h-2.9v-1.5
					c-0.6,0.1-1.7,0.2-2.3,0.3v1.6l-2.3,0.3V82.2z"/>
				<path fill="#FFFFFF" d="M68.1,86.8C68.1,86.8,68,86.8,68.1,86.8c-1.7-0.8-4.8-1.2-8.2-1.2c-3.4,0-6.4,0.5-8.1,1.2
					c0,0-0.1,0-0.1,0c0,0-0.1-0.1-0.1-0.1v-4c0-0.1,0-0.1,0.1-0.1c0.6-0.2,1.2-0.3,1.8-0.5c0,0,0.1,0,0.1,0c0,0,0,0.1,0,0.1v1.4
					l2-0.3v-1.5c0-0.1,0-0.1,0.1-0.1c0.4-0.1,1-0.1,1.6-0.2c0.3,0,0.6-0.1,0.8-0.1c0,0,0.1,0,0.1,0c0,0,0,0.1,0,0.1v1.4H61v-1.4
					c0,0,0-0.1,0-0.1s0.1,0,0.1,0c0.2,0,0.6,0.1,1,0.1c0.7,0.1,1.4,0.1,1.8,0.2c0.1,0,0.1,0.1,0.1,0.1v1.5l2,0.3v-1.4
					c0,0,0-0.1,0-0.1c0,0,0.1,0,0.1,0c0.7,0.2,1.3,0.3,1.8,0.5c0.1,0,0.1,0.1,0.1,0.1l0,4c0,0,0,0,0,0
					C68.2,86.7,68.1,86.8,68.1,86.8C68.1,86.8,68.1,86.8,68.1,86.8z M59.9,85.3c3.3,0,6.3,0.4,8,1.2l0-3.7c-0.4-0.1-0.9-0.3-1.5-0.4
					v1.4c0,0,0,0.1,0,0.1c0,0-0.1,0-0.1,0l-2.3-0.4c-0.1,0-0.1-0.1-0.1-0.1v-1.5c-0.4-0.1-1.1-0.1-1.7-0.2c-0.3,0-0.7,0-0.9-0.1v1.4
					c0,0.1-0.1,0.1-0.1,0.1h-2.9c-0.1,0-0.1-0.1-0.1-0.1v-1.4c-0.2,0-0.4,0-0.6,0.1c-0.5,0-1,0.1-1.4,0.2v1.5c0,0.1,0,0.1-0.1,0.1
					l-2.3,0.3c0,0-0.1,0-0.1,0c0,0,0-0.1,0-0.1v-1.4c-0.5,0.1-1.1,0.3-1.6,0.4v3.7C53.6,85.7,56.6,85.3,59.9,85.3z"/>
			</g>
			<g>
				<path id="path68261_1_" sodipodi:nodetypes="css" fill="#4DB9DF" d="M52.7,87.6c0,0,3.7-0.9,7.4-1c3.8,0,7.4,1,7.4,1"/>
				<path fill="#FFFFFF" d="M67.4,87.7C67.4,87.7,67.4,87.7,67.4,87.7c-0.1,0-3.7-1-7.4-1c-3.6,0-7.3,1-7.3,1c-0.1,0-0.1,0-0.2-0.1
					c0-0.1,0-0.1,0.1-0.2c0,0,3.8-0.9,7.4-1c3.7-0.1,7.4,1,7.4,1c0.1,0,0.1,0.1,0.1,0.2C67.5,87.7,67.5,87.7,67.4,87.7z"/>
			</g>
			<g>
				<path id="path68265_1_" sodipodi:nodetypes="czc" fill="#4DB9DF" d="M59.2,86.5c0,0,0-0.9,0.9-0.9c0.8,0,0.9,0.9,0.9,0.9"/>
				<path fill="#FFFFFF" d="M59.2,86.7C59.2,86.7,59.2,86.7,59.2,86.7c-0.1,0-0.1-0.1-0.1-0.1c0-0.3,0.2-1,1-1c0,0,0,0,0,0
					c0.7,0,1,0.7,1,1c0,0.1,0,0.1-0.1,0.1c-0.1,0-0.1,0-0.1-0.1c0,0-0.1-0.8-0.7-0.8c0,0,0,0,0,0c-0.7,0-0.7,0.7-0.7,0.8
					C59.4,86.6,59.3,86.7,59.2,86.7z"/>
			</g>
			<g>
				<path id="path68267_1_" sodipodi:nodetypes="czc" fill="#4DB9DF" d="M57.5,86.7c0,0,0-0.9,0.7-1c0.8-0.1,0.9,0.8,0.9,0.8"/>
				<path fill="#FFFFFF" d="M57.5,86.8c-0.1,0-0.1-0.1-0.1-0.1c0-0.3,0.1-1,0.8-1.1c0.7-0.1,1,0.6,1,0.9c0,0.1,0,0.1-0.1,0.1
					c-0.1,0-0.1,0-0.1-0.1c0,0-0.1-0.8-0.7-0.7c-0.6,0.1-0.6,0.8-0.6,0.8C57.6,86.7,57.5,86.8,57.5,86.8
					C57.5,86.8,57.5,86.8,57.5,86.8z"/>
			</g>
			<g>
				<path id="path68269_1_" sodipodi:nodetypes="czc" fill="#4DB9DF" d="M55.6,86.9c0,0-0.1-0.9,0.7-1c0.7-0.1,0.9,0.8,0.9,0.8"/>
				<path fill="#FFFFFF" d="M55.6,87c-0.1,0-0.1,0-0.1-0.1c0-0.3,0.1-1,0.8-1.1c0.7-0.1,1,0.5,1,0.9c0,0.1,0,0.1-0.1,0.1
					c-0.1,0-0.1,0-0.1-0.1c0,0-0.1-0.8-0.8-0.7c-0.6,0.1-0.6,0.8-0.6,0.8C55.8,87,55.7,87,55.6,87C55.6,87,55.6,87,55.6,87z"/>
			</g>
			<g>
				<path id="path68271_1_" sodipodi:nodetypes="czc" fill="#4DB9DF" d="M54,87.2c0,0-0.1-0.9,0.6-1c0.7-0.1,0.8,0.7,0.8,0.7"/>
				<path fill="#FFFFFF" d="M54,87.3c-0.1,0-0.1,0-0.1-0.1c0-0.3,0.1-1,0.7-1.1c0.2,0,0.4,0,0.5,0.1c0.3,0.2,0.4,0.7,0.4,0.7
					c0,0.1,0,0.1-0.1,0.1c-0.1,0-0.1,0-0.1-0.1c0,0-0.1-0.7-0.7-0.6c-0.5,0.1-0.5,0.9-0.5,0.9C54.1,87.2,54.1,87.3,54,87.3
					C54,87.3,54,87.3,54,87.3z"/>
			</g>
			<g>
				<path id="path68273_1_" sodipodi:nodetypes="czc" fill="#4DB9DF" d="M52.7,87.5c0,0-0.3-0.8,0.3-1c0.6-0.2,0.8,0.7,0.8,0.7"/>
				<path fill="#FFFFFF" d="M52.7,87.6c-0.1,0-0.1,0-0.1-0.1c0,0-0.2-0.5,0-0.9c0.1-0.1,0.2-0.2,0.3-0.3c0.2,0,0.3,0,0.4,0.1
					c0.3,0.2,0.5,0.7,0.5,0.8c0,0.1,0,0.1-0.1,0.2c-0.1,0-0.1,0-0.2-0.1c0-0.1-0.2-0.5-0.4-0.6c-0.1,0-0.2-0.1-0.2,0
					c-0.1,0-0.2,0.1-0.2,0.2c-0.1,0.2,0,0.5,0,0.7C52.9,87.5,52.8,87.6,52.7,87.6C52.8,87.6,52.7,87.6,52.7,87.6z"/>
			</g>
			<g>
				<path id="path68275_1_" sodipodi:nodetypes="czc" fill="#4DB9DF" d="M62.8,86.7c0,0,0-0.9-0.7-1c-0.8-0.1-0.9,0.8-0.9,0.8"/>
				<path fill="#FFFFFF" d="M62.8,86.8C62.8,86.8,62.8,86.8,62.8,86.8c-0.1,0-0.1-0.1-0.1-0.1c0,0,0-0.8-0.6-0.8
					c-0.6-0.1-0.7,0.7-0.7,0.7c0,0.1-0.1,0.1-0.1,0.1c-0.1,0-0.1-0.1-0.1-0.1c0-0.3,0.3-1,1-0.9c0.7,0.1,0.8,0.7,0.8,1.1
					C62.9,86.7,62.8,86.8,62.8,86.8z"/>
			</g>
			<g>
				<path id="path68277_1_" sodipodi:nodetypes="czc" fill="#4DB9DF" d="M64.6,86.9c0,0,0.1-0.9-0.7-1c-0.7-0.1-0.9,0.8-0.9,0.8"/>
				<path fill="#FFFFFF" d="M64.6,87C64.6,87,64.6,87,64.6,87c-0.1,0-0.1-0.1-0.1-0.1c0,0,0.1-0.8-0.6-0.8c-0.6-0.1-0.8,0.6-0.8,0.7
					c0,0.1-0.1,0.1-0.1,0.1c-0.1,0-0.1-0.1-0.1-0.1c0.1-0.3,0.4-1,1-0.9c0.7,0.1,0.8,0.8,0.8,1.1C64.7,87,64.7,87,64.6,87z"/>
			</g>
			<g>
				<path id="path68279_1_" sodipodi:nodetypes="czc" fill="#4DB9DF" d="M66.2,87.2c0,0,0.1-0.9-0.6-1c-0.7-0.1-0.8,0.7-0.8,0.7"/>
				<path fill="#FFFFFF" d="M66.2,87.3C66.2,87.3,66.2,87.3,66.2,87.3c-0.1,0-0.1-0.1-0.1-0.1c0,0,0.1-0.8-0.5-0.9
					c-0.1,0-0.2,0-0.3,0.1c-0.2,0.1-0.3,0.5-0.3,0.6c0,0.1-0.1,0.1-0.1,0.1c-0.1,0-0.1-0.1-0.1-0.1c0,0,0.1-0.5,0.4-0.7
					c0.2-0.1,0.3-0.1,0.5-0.1c0.6,0.1,0.7,0.8,0.7,1.1C66.3,87.3,66.3,87.3,66.2,87.3z"/>
			</g>
			<g>
				<path id="path68281_1_" sodipodi:nodetypes="czc" fill="#4DB9DF" d="M67.5,87.5c0,0,0.3-0.8-0.3-1c-0.6-0.2-0.8,0.7-0.8,0.7"/>
				<path fill="#FFFFFF" d="M67.5,87.6C67.5,87.6,67.5,87.6,67.5,87.6c-0.1,0-0.1-0.1-0.1-0.2c0-0.1,0.1-0.5,0-0.7
					c0-0.1-0.1-0.1-0.2-0.2c-0.1,0-0.2,0-0.2,0c-0.2,0.1-0.3,0.5-0.4,0.6c0,0.1-0.1,0.1-0.2,0.1c-0.1,0-0.1-0.1-0.1-0.2
					c0,0,0.2-0.6,0.5-0.8c0.1-0.1,0.3-0.1,0.4-0.1c0.2,0,0.3,0.1,0.3,0.3c0.2,0.3,0,0.8,0,0.9C67.6,87.6,67.5,87.6,67.5,87.6z"/>
			</g>
			<path fill="#FFFFFF" d="M67.6,89.8L67.6,89.8c0,0-0.1,0-0.2,0c-0.1,0-0.1,0-0.1,0c-1-0.2-4.8-0.8-7.2-0.7
				c-2.4-0.1-5.7,0.1-7.5,0.6c-0.1,0-0.1,0-0.2-0.1c0-0.1,0-0.1,0.1-0.2c1.9-0.5,5.2-0.7,7.6-0.7c2.4-0.1,6.2,0.4,7.2,0.7
				c0,0,0.1,0,0.1,0c0.1,0,0.1,0,0.2,0c0.1,0,0.1,0.1,0.1,0.1C67.8,89.7,67.7,89.8,67.6,89.8z"/>
			<path fill="#FFFFFF" d="M68.3,92.2l-0.2,0c-0.4-0.1-1-0.2-1.9-0.3l0-0.3c0.9,0.1,1.6,0.2,1.9,0.3l0.2,0L68.3,92.2z"/>
			<path fill="#FFFFFF" d="M64.1,91.7c-1.5-0.1-2.9-0.2-3.8-0.1c-1.2,0-2.5,0-3.7,0.1l0-0.3c1.2-0.1,2.5-0.1,3.7-0.1
				c1,0,2.3,0,3.9,0.1L64.1,91.7z"/>
			<path fill="#FFFFFF" d="M52.2,92.2L52.1,92c0.7-0.2,1.5-0.3,2.5-0.4l0,0.3C53.7,91.9,52.8,92.1,52.2,92.2z"/>
			<path fill="#FFFFFF" d="M69,94.9l-0.4,0c-0.4-0.1-1.4-0.2-2.5-0.3l0-0.3c1.2,0.1,2.1,0.3,2.5,0.3l0.3,0l0,0.1L69,94.9z"/>
			<path fill="#FFFFFF" d="M64.2,94.4c-1.6-0.1-3-0.2-4.1-0.1c-1.2,0-2.4,0-3.6,0l0-0.3c1.2-0.1,2.5-0.1,3.6,0c1.1,0,2.4,0,4.1,0.1
				L64.2,94.4z"/>
			<path fill="#FFFFFF" d="M51.3,94.9l-0.1-0.2c0.9-0.2,2-0.4,3.3-0.5l0,0.3C53.2,94.5,52.1,94.7,51.3,94.9z"/>
			<path fill="#FFFFFF" d="M49.7,97.6c-0.1,0-0.1,0-0.1-0.1c0-0.1,0-0.1,0.1-0.1c2.6-0.5,7.2-0.7,10.6-0.6c3.3-0.1,8.6,0.4,10,0.6
				l0.3,0c0.1,0,0.1,0.1,0.1,0.1c0,0.1-0.1,0.1-0.1,0.1c0,0,0,0,0,0l-0.3,0c-1.4-0.2-6.7-0.8-10-0.6C56.9,96.9,52.3,97.1,49.7,97.6
				C49.7,97.6,49.7,97.6,49.7,97.6z"/>
			<path fill="#FFFFFF" d="M71.5,103.7C71.5,103.7,71.5,103.7,71.5,103.7c-6.1-1.1-17.4-1-22.7-0.2c-0.1,0-0.1,0-0.1-0.1
				c0-0.1,0-0.1,0.1-0.1c5.3-0.8,16.7-0.9,22.7,0.2c0.1,0,0.1,0.1,0.1,0.1C71.6,103.6,71.6,103.7,71.5,103.7z"/>
			<path fill="#FFFFFF" d="M54.7,89.4h-0.2c0,0-0.1,0-0.1,0c0,0,0-0.1,0-0.1l0.1-2c0-0.1,0.1-0.1,0.1-0.1c0.1,0,0.1,0.1,0.1,0.1
				l-0.1,1.9h0.1c0.1,0,0.1,0.1,0.1,0.1C54.9,89.3,54.8,89.4,54.7,89.4z"/>
			<path fill="#FFFFFF" d="M57.2,89.1c-0.1,0-0.1-0.1-0.1-0.1v-2c0-0.1,0.1-0.1,0.1-0.1s0.1,0.1,0.1,0.1v2
				C57.4,89,57.3,89.1,57.2,89.1z"/>
			<path fill="#FFFFFF" d="M60,89.1c-0.1,0-0.1-0.1-0.1-0.1l0-2.3c0-0.1,0.1-0.1,0.1-0.1c0.1,0,0.1,0.1,0.1,0.1l0,2.3
				C60.1,89,60,89.1,60,89.1z"/>
			<path fill="#FFFFFF" d="M62.6,89.2C62.6,89.2,62.6,89.2,62.6,89.2c-0.1,0-0.1-0.1-0.1-0.1l0.1-2.1c0-0.1,0.1-0.1,0.1-0.1
				c0,0,0,0,0,0c0.1,0,0.1,0.1,0.1,0.1L62.7,89C62.7,89.1,62.7,89.2,62.6,89.2z"/>
			<path fill="#FFFFFF" d="M65.4,89.5C65.4,89.5,65.4,89.5,65.4,89.5c-0.1,0-0.1-0.1-0.1-0.1l0.1-2.1c0-0.1,0.1-0.1,0.1-0.1
				c0,0,0,0,0,0c0.1,0,0.1,0.1,0.1,0.1l-0.1,2.1C65.5,89.4,65.4,89.5,65.4,89.5z"/>
			<path fill="#FFFFFF" d="M66.7,91.9c-0.1,0-0.1-0.1-0.1-0.1l-0.1-2.1c0-0.1,0-0.1,0.1-0.1c0.1,0,0.1,0,0.1,0.1l0.1,2.1
				C66.8,91.8,66.7,91.9,66.7,91.9C66.7,91.9,66.7,91.9,66.7,91.9z"/>
			<path fill="#FFFFFF" d="M63.8,91.6c-0.1,0-0.1-0.1-0.1-0.1v-2.2c0-0.1,0.1-0.1,0.1-0.1s0.1,0.1,0.1,0.1v2.2
				C63.9,91.5,63.8,91.6,63.8,91.6z"/>
			<path fill="#FFFFFF" d="M61.2,91.6c-0.1,0-0.1-0.1-0.1-0.1V89c0-0.1,0.1-0.1,0.1-0.1c0.1,0,0.1,0.1,0.1,0.1v2.5
				C61.3,91.5,61.3,91.6,61.2,91.6z"/>
			<path fill="#FFFFFF" d="M58.5,91.6C58.5,91.6,58.5,91.6,58.5,91.6c-0.1,0-0.1-0.1-0.1-0.1l0.1-2.4c0-0.1,0.1-0.1,0.1-0.1
				c0.1,0,0.1,0.1,0.1,0.1l-0.1,2.4C58.6,91.5,58.5,91.6,58.5,91.6z"/>
			
				<rect x="55.7" y="89.2" transform="matrix(0.9989 4.706819e-02 -4.706819e-02 0.9989 4.2802 -2.5305)" fill="#FFFFFF" width="0.3" height="0.9"/>
			<path fill="#FFFFFF" d="M53.4,91.9C53.4,91.9,53.4,91.9,53.4,91.9c-0.1,0-0.1-0.1-0.1-0.1l0.2-2.3c0-0.1,0.1-0.1,0.1-0.1
				c0.1,0,0.1,0.1,0.1,0.1l-0.2,2.3C53.6,91.8,53.5,91.9,53.4,91.9z"/>
			<path fill="#FFFFFF" d="M54,94.5C54,94.5,54,94.5,54,94.5c-0.1,0-0.1-0.1-0.1-0.1l0.2-2.6c0-0.1,0.1-0.1,0.1-0.1
				c0.1,0,0.1,0.1,0.1,0.1l-0.2,2.6C54.1,94.4,54.1,94.5,54,94.5z"/>
			<path fill="#FFFFFF" d="M57.1,94.3C57.1,94.3,57.1,94.3,57.1,94.3c-0.1,0-0.1-0.1-0.1-0.1l0.1-2.6c0-0.1,0.1-0.1,0.1-0.1
				c0.1,0,0.1,0.1,0.1,0.1l-0.1,2.6C57.2,94.2,57.1,94.3,57.1,94.3z"/>
			<path fill="#FFFFFF" d="M59.8,94.2c-0.1,0-0.1-0.1-0.1-0.1l0-2.6c0-0.1,0.1-0.1,0.1-0.1c0,0,0,0,0,0c0.1,0,0.1,0.1,0.1,0.1l0,2.6
				C59.9,94.2,59.8,94.2,59.8,94.2C59.8,94.2,59.8,94.2,59.8,94.2z"/>
			<path fill="#FFFFFF" d="M62.6,94.3c-0.1,0-0.1-0.1-0.1-0.1l-0.2-2.5c0-0.1,0-0.1,0.1-0.1c0.1,0,0.1,0,0.1,0.1l0.2,2.5
				C62.7,94.2,62.7,94.3,62.6,94.3C62.6,94.3,62.6,94.3,62.6,94.3z"/>
			<path fill="#FFFFFF" d="M68,97.2c-0.1,0-0.1,0-0.1-0.1l-0.5-2.5c0-0.1,0-0.1,0.1-0.2c0.1,0,0.1,0,0.2,0.1l0.5,2.5
				C68.1,97.1,68,97.2,68,97.2C68,97.2,68,97.2,68,97.2z"/>
			
				<rect x="63.4" y="95.6" transform="matrix(5.777664e-02 0.9983 -0.9983 5.777664e-02 156.3592 25.8318)" fill="#FFFFFF" width="2.2" height="0.3"/>
			<path fill="#FFFFFF" d="M61.4,96.8c-0.1,0-0.1-0.1-0.1-0.1l-0.1-2.6c0-0.1,0.1-0.1,0.1-0.1c0.1,0,0.1,0.1,0.1,0.1l0.1,2.6
				C61.5,96.8,61.4,96.8,61.4,96.8C61.4,96.8,61.4,96.8,61.4,96.8z"/>
			<path fill="#FFFFFF" d="M58.2,96.8C58.2,96.8,58.2,96.8,58.2,96.8c-0.1,0-0.1-0.1-0.1-0.1l0.1-2.6c0-0.1,0.1-0.1,0.1-0.1
				c0.1,0,0.1,0.1,0.1,0.1l-0.1,2.6C58.3,96.8,58.2,96.8,58.2,96.8z"/>
			<rect x="55.4" y="94.7" fill="#FFFFFF" width="0.3" height="2.1"/>
			<path fill="#FFFFFF" d="M52,97.2C52,97.2,52,97.2,52,97.2c-0.1,0-0.1-0.1-0.1-0.2l0.6-2.6c0-0.1,0.1-0.1,0.2-0.1
				c0.1,0,0.1,0.1,0.1,0.2l-0.6,2.6C52.1,97.2,52.1,97.2,52,97.2z"/>
			<path fill="#FFFFFF" d="M50.6,99.8C50.6,99.8,50.6,99.8,50.6,99.8c-0.1,0-0.1-0.1-0.1-0.1l0.2-2.3c0-0.1,0.1-0.1,0.1-0.1
				c0.1,0,0.1,0.1,0.1,0.1l-0.2,2.3C50.7,99.7,50.7,99.8,50.6,99.8z"/>
			<path fill="#FFFFFF" d="M53.4,99.4C53.4,99.4,53.4,99.4,53.4,99.4c-0.1,0-0.1-0.1-0.1-0.1l0.2-2.2c0-0.1,0.1-0.1,0.1-0.1
				c0.1,0,0.1,0.1,0.1,0.1l-0.2,2.2C53.6,99.3,53.5,99.4,53.4,99.4z"/>
			<path fill="#FFFFFF" d="M56.9,98.8c-0.1,0-0.1-0.1-0.1-0.1v-1.7c0-0.1,0.1-0.1,0.1-0.1s0.1,0.1,0.1,0.1v1.7
				C57.1,98.7,57,98.8,56.9,98.8z"/>
			<path fill="#FFFFFF" d="M59.8,98.4C59.8,98.4,59.8,98.4,59.8,98.4c-0.1,0-0.1-0.1-0.1-0.1l0.1-1.4c0-0.1,0.1-0.1,0.1-0.1
				c0.1,0,0.1,0.1,0.1,0.1L60,98.3C60,98.3,59.9,98.4,59.8,98.4z"/>
			<path fill="#FFFFFF" d="M63,98.7c-0.1,0-0.1-0.1-0.1-0.1l-0.1-1.7c0-0.1,0-0.1,0.1-0.1c0.1,0,0.1,0,0.1,0.1l0.1,1.7
				C63.2,98.6,63.1,98.7,63,98.7C63,98.7,63,98.7,63,98.7z"/>
			<path fill="#FFFFFF" d="M66.4,99.2c0,0-0.1,0-0.1-0.1c0-0.1,0-0.1,0.1-0.2l0,0L66,97.1c0-0.1,0-0.1,0.1-0.1c0.1,0,0.1,0,0.1,0.1
				l0.3,1.9c0,0.1,0,0.1-0.1,0.1L66.4,99.2C66.4,99.2,66.4,99.2,66.4,99.2z"/>
			<path fill="#FFFFFF" d="M69.1,99.4c-0.1,0-0.1-0.1-0.1-0.1l-0.1-1.9c0-0.1,0-0.1,0.1-0.1c0.1,0,0.1,0,0.1,0.1l0.1,1.9
				C69.3,99.4,69.2,99.4,69.1,99.4C69.1,99.4,69.1,99.4,69.1,99.4z"/>
			<path fill="#FFFFFF" d="M51.3,103.2c-0.1,0-0.1-0.1-0.1-0.1l-0.1-2.3c0-0.1,0-0.1,0.1-0.1c0.1,0,0.1,0.1,0.1,0.1l0.1,2.3
				C51.5,103.1,51.4,103.2,51.3,103.2C51.3,103.2,51.3,103.2,51.3,103.2z"/>
			<path fill="#FFFFFF" d="M54.7,102.9c-0.1,0-0.1-0.1-0.1-0.1l-0.1-2.5c0-0.1,0.1-0.1,0.1-0.1c0.1,0,0.1,0.1,0.1,0.1l0.1,2.5
				C54.9,102.9,54.8,102.9,54.7,102.9C54.7,102.9,54.7,102.9,54.7,102.9z"/>
			<path fill="#FFFFFF" d="M57.6,102.9c-0.1,0-0.1-0.1-0.1-0.1v-2.6c0-0.1,0.1-0.1,0.1-0.1c0.1,0,0.1,0.1,0.1,0.1v2.6
				C57.7,102.8,57.7,102.9,57.6,102.9z"/>
			<path fill="#FFFFFF" d="M60,102.9c-0.1,0-0.1-0.1-0.1-0.1V100c0-0.1,0.1-0.1,0.1-0.1c0.1,0,0.1,0.1,0.1,0.1v2.8
				C60.1,102.8,60,102.9,60,102.9z"/>
			<path fill="#FFFFFF" d="M62.9,102.9C62.9,102.9,62.9,102.9,62.9,102.9c-0.1,0-0.1-0.1-0.1-0.1l0.1-2.3c0-0.1,0.1-0.1,0.1-0.1
				c0.1,0,0.1,0.1,0.1,0.1l-0.1,2.3C63,102.8,62.9,102.9,62.9,102.9z"/>
			<path fill="#FFFFFF" d="M65.8,102.9c-0.1,0-0.1-0.1-0.1-0.1v-2.6c0-0.1,0.1-0.1,0.1-0.1s0.1,0.1,0.1,0.1v2.6
				C65.9,102.9,65.9,102.9,65.8,102.9z"/>
			<path fill="#FFFFFF" d="M68.7,103.1c-0.1,0-0.1-0.1-0.1-0.1l-0.1-2.2c0-0.1,0.1-0.1,0.1-0.1c0.1,0,0.1,0.1,0.1,0.1l0.1,2.2
				C68.8,103.1,68.8,103.1,68.7,103.1C68.7,103.1,68.7,103.1,68.7,103.1z"/>
			<path fill="#FFFFFF" d="M50,106.1h-0.1c-0.1,0-0.1-0.1-0.1-0.1l-0.1-2.7c0-0.1,0.1-0.1,0.1-0.1c0.1,0,0.1,0.1,0.1,0.1l0.1,2.6
				c0.1,0,0.1,0.1,0.1,0.1C50.1,106.1,50.1,106.1,50,106.1z"/>
			<path fill="#FFFFFF" d="M53.2,106c-0.1,0-0.1-0.1-0.1-0.1l0-2.8c0-0.1,0.1-0.1,0.1-0.1c0,0,0,0,0,0c0.1,0,0.1,0.1,0.1,0.1l0,2.8
				C53.3,105.9,53.3,106,53.2,106C53.2,106,53.2,106,53.2,106z"/>
			<path fill="#FFFFFF" d="M51.5,108.9c-0.1,0-0.1-0.1-0.1-0.1v-2.9c0-0.1,0.1-0.1,0.1-0.1c0.1,0,0.1,0.1,0.1,0.1v2.9
				C51.6,108.8,51.5,108.9,51.5,108.9z"/>
			<path fill="#FFFFFF" d="M50.3,112c-0.1,0-0.1-0.1-0.1-0.1l-0.1-3c0-0.1,0.1-0.1,0.1-0.1c0,0,0,0,0,0c0.1,0,0.1,0.1,0.1,0.1l0.1,3
				C50.4,112,50.4,112,50.3,112C50.3,112,50.3,112,50.3,112z"/>
			<path fill="#FFFFFF" d="M53.2,112c-0.1,0-0.1-0.1-0.1-0.1l-0.1-3.3c0-0.1,0.1-0.1,0.1-0.1c0,0,0,0,0,0c0.1,0,0.1,0.1,0.1,0.1
				l0.1,3.3C53.4,111.9,53.3,112,53.2,112C53.3,112,53.2,112,53.2,112z"/>
			<path fill="#FFFFFF" d="M51.6,114.1c-0.1,0-0.1-0.1-0.1-0.1l-0.1-2.1c0-0.1,0.1-0.1,0.1-0.1c0.1,0,0.1,0.1,0.1,0.1l0.1,2.1
				C51.7,114,51.7,114.1,51.6,114.1C51.6,114.1,51.6,114.1,51.6,114.1z"/>
			<path fill="#FFFFFF" d="M56.4,105.6c-0.1,0-0.1-0.1-0.1-0.1l-0.1-2.7c0-0.1,0.1-0.1,0.1-0.1c0.1,0,0.1,0.1,0.1,0.1l0.1,2.7
				C56.6,105.6,56.5,105.6,56.4,105.6C56.4,105.6,56.4,105.6,56.4,105.6z"/>
			<path fill="#FFFFFF" d="M62,105.1L62,105.1c-0.1,0-0.1-0.1-0.1-0.1l0-2.2c0-0.1,0.1-0.1,0.1-0.1h0c0.1,0,0.1,0.1,0.1,0.1l0,2.2
				C62.1,105,62,105.1,62,105.1z"/>
			<path fill="#FFFFFF" d="M66.5,106c-0.1,0-0.1-0.1-0.1-0.1v-2.8c0-0.1,0.1-0.1,0.1-0.1s0.1,0.1,0.1,0.1v2.8
				C66.6,105.9,66.5,106,66.5,106z"/>
			<path fill="#FFFFFF" d="M70.1,106.2c-0.1,0-0.1-0.1-0.1-0.1v-2.6c0-0.1,0.1-0.1,0.1-0.1s0.1,0.1,0.1,0.1v2.6
				C70.2,106.1,70.2,106.2,70.1,106.2z"/>
			<path fill="#FFFFFF" d="M68.6,108.8c-0.1,0-0.1-0.1-0.1-0.1V106c0-0.1,0.1-0.1,0.1-0.1s0.1,0.1,0.1,0.1v2.7
				C68.8,108.8,68.7,108.8,68.6,108.8z"/>
			<path fill="#FFFFFF" d="M65.1,108.5c-0.1,0-0.1-0.1-0.1-0.1l-0.1-2.7c0-0.1,0.1-0.1,0.1-0.1c0,0,0,0,0,0c0.1,0,0.1,0.1,0.1,0.1
				l0.1,2.7C65.3,108.5,65.2,108.5,65.1,108.5C65.1,108.5,65.1,108.5,65.1,108.5z"/>
			<path fill="#FFFFFF" d="M66.7,111.9C66.7,111.9,66.7,111.9,66.7,111.9c-0.1,0-0.1-0.1-0.1-0.1v-3c0-0.1,0.1-0.1,0.1-0.1
				c0.1,0,0.1,0.1,0.1,0.1v2.8c0,0,0,0,0,0c0,0,0,0.1,0,0.2L66.7,111.9C66.8,111.9,66.8,111.9,66.7,111.9z"/>
			<path fill="#FFFFFF" d="M70,112.1C70,112.1,70,112.1,70,112.1c-0.1,0-0.1-0.1-0.1-0.1L70,109c0-0.1,0.1-0.1,0.1-0.1c0,0,0,0,0,0
				c0.1,0,0.1,0.1,0.1,0.1l-0.1,2.9C70.2,112,70.1,112.1,70,112.1z"/>
			<path fill="#FFFFFF" d="M68.7,114.1c-0.1,0-0.1-0.1-0.1-0.1l-0.1-1.9c0-0.1,0.1-0.1,0.1-0.1c0.1,0,0.1,0.1,0.1,0.1l0.1,1.9
				C68.8,114,68.8,114.1,68.7,114.1C68.7,114.1,68.7,114.1,68.7,114.1z"/>
			<path fill="#FFFFFF" d="M64.9,114.3C64.9,114.3,64.9,114.3,64.9,114.3c-0.1,0-0.1-0.1-0.1-0.1l0.1-2.3c0-0.1,0.1-0.1,0.1-0.1
				c0,0,0,0,0,0c0.1,0,0.1,0.1,0.1,0.1l-0.1,2.3C65.1,114.3,65,114.3,64.9,114.3z"/>
			<path fill="#FFFFFF" d="M54.7,114.3C54.7,114.3,54.7,114.3,54.7,114.3c-0.1,0-0.1-0.1-0.1-0.1l0.1-2.3c0-0.1,0.1-0.1,0.1-0.1
				c0.1,0,0.1,0.1,0.1,0.1l-0.1,2.3C54.9,114.3,54.8,114.3,54.7,114.3z"/>
			<g>
				<path id="path9870_1_" fill="#4DB9DF" d="M48.7,99.6c0.3-0.1,0.7-0.3,1.1-0.3c0.4,0,0.6-0.1,0.7,0.4c0.1,0.5,0.1,1.1,0.1,1.6
					c0,0.1-1.2,0.3-1.4,0.3c-0.7,0-0.9,0.4-0.9-0.7C48.3,100.5,48.6,99.9,48.7,99.6z"/>
				<path fill="#FFFFFF" d="M48.6,101.7c-0.4,0-0.4-0.4-0.4-0.9c0-0.3,0.2-0.7,0.3-1c0-0.1,0.1-0.2,0.1-0.3c0,0,0-0.1,0.1-0.1
					c0.3-0.1,0.7-0.3,1.2-0.3c0.1,0,0.2,0,0.2,0c0.1,0,0.1,0,0.2,0c0.3,0,0.4,0.1,0.5,0.5c0.1,0.4,0.1,0.9,0.1,1.3l0,0.3
					c0,0.3-1.5,0.4-1.5,0.4c-0.2,0-0.3,0-0.4,0C48.8,101.7,48.7,101.7,48.6,101.7z M48.8,99.7c0,0.1-0.1,0.2-0.1,0.2
					c-0.1,0.3-0.3,0.7-0.3,0.9c0,0.6,0.1,0.6,0.2,0.6c0.1,0,0.1,0,0.2,0c0.1,0,0.3,0,0.4,0c0.2,0,1-0.1,1.2-0.2l0-0.2
					c0-0.4,0-0.9-0.1-1.3c-0.1-0.3-0.1-0.3-0.2-0.3c0,0-0.1,0-0.1,0c-0.1,0-0.1,0-0.2,0C49.4,99.4,49.1,99.6,48.8,99.7z"/>
			</g>
			<g>
				<path id="path9872_1_" fill="#4DB9DF" d="M50.6,99c0-0.2,0.7-0.3,0.9-0.5c0.2-0.1,0.8,0,1,0c0.1,0,0.2,1,0.2,1.1
					c0,0.2-0.3,0.9-0.4,1.1c0,0.1,0,0.2,0,0.2c0,0.3-1.3,0.2-1.5,0.2c-0.6,0-0.6-0.7-0.5-1.3C50.4,99.3,50.3,99.7,50.6,99z"/>
				<path fill="#FFFFFF" d="M51.2,101.3c-0.1,0-0.2,0-0.3,0l-0.1,0c-0.2,0-0.3-0.1-0.5-0.2c-0.2-0.3-0.2-0.8-0.2-1.3l0-0.2
					c0-0.2,0-0.2,0.1-0.3c0-0.1,0.1-0.2,0.2-0.5c0-0.2,0.3-0.3,0.6-0.4c0.1,0,0.2-0.1,0.3-0.1c0.1-0.1,0.2-0.1,0.4-0.1
					c0.1,0,0.3,0,0.5,0c0.1,0,0.2,0,0.3,0c0.2,0,0.2,0.2,0.3,1c0,0.1,0,0.1,0,0.2c0,0.1-0.1,0.5-0.3,1l-0.1,0.1c0,0,0,0.1,0,0.1
					c0,0,0,0.1,0,0.1C52.4,101.2,52,101.3,51.2,101.3z M51.7,98.6c-0.2,0-0.2,0-0.2,0c-0.1,0.1-0.2,0.1-0.3,0.1
					c-0.1,0-0.4,0.2-0.5,0.2c0,0,0,0,0,0c-0.1,0.3-0.2,0.4-0.2,0.5c0,0,0,0,0,0.2l0,0.2c0,0.3-0.1,0.9,0.1,1.1
					c0.1,0.1,0.2,0.1,0.3,0.1l0.1,0c0.1,0,0.2,0,0.3,0c0.9,0,1-0.1,1-0.1c0,0,0,0,0-0.1c0-0.1,0-0.1,0-0.2l0.1-0.1
					c0.1-0.2,0.3-0.8,0.3-0.9c0,0,0-0.1,0-0.2c0-0.2,0-0.6-0.1-0.8c-0.1,0-0.2,0-0.2,0C52,98.6,51.9,98.6,51.7,98.6z"/>
			</g>
			<g>
				<path id="path9882_1_" fill="#4DB9DF" d="M52.4,98.6c0-0.2,0.7-0.3,0.9-0.5c0.2-0.1,0.8,0,1,0c0.1,0,0.2,1,0.2,1.1
					c0,0.2-0.3,0.9-0.4,1.1c0,0.1,0,0.2,0,0.2c0,0.3-1.3,0.2-1.5,0.2c-0.6,0-0.6-0.7-0.5-1.3C52.2,98.9,52.2,99.4,52.4,98.6z"/>
				<path fill="#FFFFFF" d="M53,100.9c-0.1,0-0.2,0-0.3,0l-0.1,0c-0.2,0-0.3-0.1-0.5-0.2c-0.2-0.3-0.2-0.8-0.2-1.3l0-0.2
					c0-0.2,0-0.2,0.1-0.3c0-0.1,0.1-0.2,0.2-0.5c0-0.2,0.3-0.3,0.6-0.4c0.1,0,0.2-0.1,0.3-0.1c0.1-0.1,0.2-0.1,0.4-0.1
					c0.1,0,0.3,0,0.5,0c0.1,0,0.2,0,0.3,0c0.2,0,0.2,0.2,0.3,1c0,0.1,0,0.1,0,0.2c0,0.1-0.1,0.5-0.3,1l-0.1,0.1c0,0,0,0.1,0,0.1
					c0,0,0,0.1,0,0.1C54.3,100.8,53.9,100.9,53,100.9z M53.6,98.2c-0.2,0-0.2,0-0.2,0c-0.1,0.1-0.2,0.1-0.3,0.1
					c-0.1,0-0.4,0.2-0.5,0.2c0,0,0,0,0,0c-0.1,0.3-0.2,0.4-0.2,0.5c0,0,0,0,0,0.2l0,0.2c0,0.3-0.1,0.9,0.1,1.1
					c0.1,0.1,0.2,0.1,0.3,0.1l0.1,0c0.1,0,0.2,0,0.3,0c0.9,0,1-0.1,1-0.1c0,0,0,0,0-0.1c0-0.1,0-0.1,0-0.2l0.1-0.1
					c0.1-0.2,0.3-0.8,0.3-0.9c0,0,0-0.1,0-0.2c0-0.2,0-0.6-0.1-0.8c-0.1,0-0.2,0-0.2,0C53.9,98.2,53.7,98.2,53.6,98.2z"/>
			</g>
			<g>
				<path id="path9876_1_" fill="#4DB9DF" d="M54.2,97.9c0-0.1,0.9-0.2,1.2-0.3c0.3-0.2,1,0.2,1.2,0.3c0.2,0.1,0.1,1.1,0.1,1.3
					c0,0.7,0.1,1-0.6,1.2c-0.6,0.1-1.2,0.2-1.8,0.2c-0.5,0-0.3-0.6-0.3-1.2C54.1,98.9,54.2,98.5,54.2,97.9z"/>
				<path fill="#FFFFFF" d="M54.4,100.8c-0.2,0-0.3,0-0.4-0.1c-0.2-0.2-0.1-0.4-0.1-0.8c0-0.1,0-0.3,0-0.4c0-0.3,0-0.6,0.1-0.8
					c0-0.2,0.1-0.5,0.1-0.8c0-0.1,0.1-0.2,0.6-0.2c0.3,0,0.6-0.1,0.8-0.2c0.3-0.1,0.8,0.1,1.1,0.2c0.1,0,0.2,0.1,0.2,0.1
					c0.2,0.1,0.2,0.4,0.2,1.3c0,0.1,0,0.1,0,0.1l0,0.2c0,0.6,0,0.9-0.7,1.1C55.6,100.7,55,100.8,54.4,100.8z M54.3,98
					c0,0.3,0,0.5-0.1,0.7c0,0.2-0.1,0.5-0.1,0.8c0,0.2,0,0.3,0,0.5c0,0.2,0,0.5,0,0.6c0,0,0,0.1,0.2,0.1c0.6,0,1.2-0.1,1.8-0.2
					c0.5-0.1,0.5-0.3,0.5-0.8l0-0.2c0,0,0-0.1,0-0.1c0-0.8,0-1-0.1-1.1c-0.1,0-0.1-0.1-0.2-0.1c-0.3-0.1-0.7-0.3-0.9-0.2
					c-0.2,0.1-0.5,0.1-0.8,0.2C54.5,98,54.4,98,54.3,98z"/>
			</g>
			<g>
				<path id="path9878_1_" fill="#4DB9DF" d="M56,97.5c0,0,0.9,0.1,1.5-0.2c0.4-0.2,0.9,0.1,1.2,0.2c0.2,0.1,0.1,1.3,0.1,1.5
					c0,0.5,0,1-0.1,1.2c-0.1,0.3-1.7,0.4-2.1,0.4c-0.4,0-0.7-0.6-0.8-0.9c-0.1-0.4,0.1-1.4,0.1-1.9C56,97.7,56,97.6,56,97.5z"/>
				<path fill="#FFFFFF" d="M56.7,100.8c-0.6,0-0.9-0.9-0.9-1c-0.1-0.3,0-0.8,0-1.3c0-0.2,0.1-0.5,0.1-0.6c0-0.1,0-0.2,0-0.3
					c0,0,0-0.1,0-0.1c0,0,0-0.1,0.2-0.1c0,0,0.1,0,0.1,0c0.1,0,0.2,0,0.3,0c0.4,0,0.7,0,0.9-0.2c0.1,0,0.2-0.1,0.3-0.1
					c0.3,0,0.5,0.1,0.7,0.2c0.1,0,0.2,0.1,0.3,0.1c0.2,0.1,0.3,0.5,0.2,1.4c0,0.1,0,0.2,0,0.2c0,0.5,0,1-0.1,1.3
					C58.7,100.7,56.7,100.8,56.7,100.8z M56.1,97.6C56.1,97.6,56.1,97.6,56.1,97.6c0,0.1,0,0.2,0,0.3c0,0.2,0,0.4-0.1,0.7
					c0,0.4-0.1,0.9,0,1.2c0.1,0.3,0.4,0.8,0.7,0.8c0.5,0,1.8-0.2,2-0.3c0.1-0.3,0.1-0.8,0.1-1.2c0,0,0-0.1,0-0.2
					c0-0.7,0-1.1-0.1-1.2c-0.1,0-0.2-0.1-0.3-0.1c-0.3-0.1-0.6-0.2-0.9-0.1c-0.3,0.1-0.6,0.2-1,0.2C56.4,97.6,56.3,97.6,56.1,97.6
					C56.2,97.6,56.2,97.6,56.1,97.6z"/>
			</g>
			<g>
				<path id="path9884_1_" fill="#4DB9DF" d="M71.5,99.5c-0.3-0.1-0.7-0.3-1.1-0.3c-0.4,0-0.6-0.1-0.7,0.4c-0.1,0.5-0.1,1.1-0.1,1.6
					c0,0.1,1.2,0.3,1.4,0.3c0.7,0,0.9,0.4,0.9-0.7C71.9,100.4,71.6,99.8,71.5,99.5z"/>
				<path fill="#FFFFFF" d="M71.6,101.7L71.6,101.7c-0.1,0-0.1,0-0.2,0c-0.1,0-0.2,0-0.4,0c0,0-1.5-0.1-1.5-0.4l0-0.3
					c0-0.4,0-0.9,0.1-1.3c0.1-0.4,0.2-0.5,0.6-0.5c0.1,0,0.1,0,0.2,0c0.5,0,0.9,0.2,1.2,0.3c0,0,0.1,0,0.1,0.1
					c0,0.1,0.1,0.2,0.1,0.3c0.1,0.3,0.3,0.7,0.3,1c0,0.3,0,0.5-0.1,0.7C71.9,101.6,71.8,101.7,71.6,101.7z M69.7,101.1
					c0.2,0.1,1.1,0.2,1.2,0.2c0.2,0,0.3,0,0.4,0c0.1,0,0.1,0,0.2,0l0,0c0.1,0,0.1,0,0.1-0.1c0-0.1,0.1-0.3,0.1-0.6
					c0-0.2-0.1-0.6-0.3-0.9c0-0.1-0.1-0.2-0.1-0.2c-0.2-0.1-0.6-0.3-1-0.3c-0.1,0-0.2,0-0.2,0c-0.1,0-0.1,0-0.1,0
					c-0.1,0-0.2,0-0.2,0.3c-0.1,0.4-0.1,0.9-0.1,1.3L69.7,101.1z"/>
			</g>
			<g>
				<path id="path9886_1_" fill="#4DB9DF" d="M69.7,98.9c0-0.2-0.7-0.3-0.9-0.5c-0.2-0.1-0.8,0-1,0c-0.1,0-0.2,1-0.2,1.1
					c0,0.2,0.3,0.9,0.4,1.1c0,0.1,0,0.2,0,0.2c0,0.3,1.3,0.2,1.5,0.2c0.6,0,0.6-0.7,0.5-1.3C69.9,99.2,69.9,99.6,69.7,98.9z"/>
				<path fill="#FFFFFF" d="M69,101.2L69,101.2c-0.9,0-1.2-0.1-1.2-0.4c0,0,0-0.1,0-0.1c0,0,0-0.1,0-0.1l-0.1-0.1
					c-0.2-0.6-0.3-0.9-0.3-1c0,0,0-0.1,0-0.2c0.1-0.8,0.1-1,0.3-1c0.1,0,0.2,0,0.3,0c0.1,0,0.3,0,0.5,0c0.2,0,0.3,0,0.4,0.1
					c0.1,0,0.2,0.1,0.3,0.1c0.3,0.1,0.6,0.2,0.6,0.4c0.1,0.3,0.1,0.4,0.2,0.5c0,0.1,0,0.1,0.1,0.3l0,0.2c0.1,0.5,0.1,1-0.2,1.3
					c-0.1,0.1-0.3,0.2-0.5,0.2l-0.1,0C69.3,101.2,69.2,101.2,69,101.2z M68.1,100.8c0,0,0.1,0.1,1,0.1c0.1,0,0.2,0,0.3,0l0.1,0
					c0.1,0,0.2,0,0.3-0.1c0.2-0.2,0.1-0.8,0.1-1.1l0-0.2c0-0.1,0-0.1,0-0.2c0-0.1-0.1-0.2-0.2-0.5c0,0,0,0,0,0
					c0-0.1-0.3-0.2-0.5-0.2c-0.1,0-0.3-0.1-0.3-0.1c0,0-0.1,0-0.2,0c-0.1,0-0.3,0-0.4,0c-0.1,0-0.2,0-0.2,0
					c-0.1,0.1-0.1,0.6-0.1,0.8c0,0.1,0,0.2,0,0.2c0,0.1,0.2,0.7,0.3,0.9l0.1,0.1C68.1,100.6,68.1,100.7,68.1,100.8
					C68.1,100.8,68.1,100.8,68.1,100.8L68.1,100.8z"/>
			</g>
			<g>
				<path id="path9888_1_" fill="#4DB9DF" d="M67.8,98.5c0-0.2-0.7-0.3-0.9-0.5c-0.2-0.1-0.8,0-1,0c-0.1,0-0.2,1-0.2,1.1
					c0,0.2,0.3,0.9,0.4,1.1c0,0.1,0,0.2,0,0.2c0,0.3,1.3,0.2,1.5,0.2c0.6,0,0.6-0.7,0.5-1.3C68,98.8,68.1,99.3,67.8,98.5z"/>
				<path fill="#FFFFFF" d="M67.2,100.8L67.2,100.8c-0.9,0-1.2-0.1-1.2-0.4c0,0,0-0.1,0-0.1c0,0,0-0.1,0-0.1l-0.1-0.1
					c-0.2-0.6-0.3-0.9-0.3-1c0,0,0-0.1,0-0.2c0.1-0.8,0.1-1,0.3-1c0.1,0,0.2,0,0.3,0c0.1,0,0.3,0,0.5,0c0.2,0,0.3,0,0.4,0.1
					c0.1,0,0.2,0.1,0.3,0.1c0.3,0.1,0.6,0.2,0.6,0.4c0.1,0.3,0.1,0.4,0.2,0.5c0,0.1,0,0.1,0.1,0.3l0,0.2c0.1,0.5,0.1,1-0.2,1.3
					c-0.1,0.1-0.3,0.2-0.5,0.2l-0.1,0C67.4,100.8,67.3,100.8,67.2,100.8z M66.2,100.5c0,0,0.1,0.1,1,0.1c0.1,0,0.2,0,0.3,0l0.1,0
					c0.1,0,0.2,0,0.3-0.1c0.2-0.2,0.1-0.8,0.1-1.1l0-0.2c0-0.1,0-0.1,0-0.2c0-0.1-0.1-0.2-0.2-0.5c0,0,0,0,0,0
					c0-0.1-0.3-0.2-0.5-0.2c-0.1,0-0.3-0.1-0.3-0.1c0,0-0.1,0-0.2,0c-0.1,0-0.3,0-0.4,0c-0.1,0-0.2,0-0.2,0
					c-0.1,0.1-0.1,0.6-0.1,0.8c0,0.1,0,0.2,0,0.2c0,0.1,0.2,0.7,0.3,0.9l0.1,0.1C66.2,100.3,66.2,100.3,66.2,100.5
					C66.2,100.4,66.2,100.4,66.2,100.5L66.2,100.5z"/>
			</g>
			<g>
				<path id="path9890_1_" fill="#4DB9DF" d="M66,97.8c0-0.1-0.9-0.2-1.2-0.3c-0.3-0.2-1,0.2-1.2,0.3c-0.2,0.1-0.1,1.1-0.1,1.3
					c0,0.7-0.1,1,0.6,1.2c0.6,0.1,1.2,0.2,1.8,0.2c0.5,0,0.3-0.6,0.3-1.2C66.2,98.8,66,98.5,66,97.8z"/>
				<path fill="#FFFFFF" d="M65.9,100.7c-0.6,0-1.3-0.1-1.9-0.2c-0.7-0.2-0.7-0.5-0.7-1.1l0-0.2c0,0,0-0.1,0-0.1c0-1,0-1.3,0.2-1.3
					c0.1,0,0.1-0.1,0.2-0.1c0.3-0.1,0.8-0.3,1.1-0.2c0.1,0.1,0.5,0.1,0.8,0.2c0.4,0.1,0.5,0.1,0.5,0.2c0,0.3,0,0.5,0.1,0.8
					c0,0.2,0.1,0.5,0.1,0.8c0,0.1,0,0.3,0,0.4c0,0.3,0.1,0.6-0.1,0.8C66.1,100.7,66,100.7,65.9,100.7z M63.6,98
					c0,0.1-0.1,0.3-0.1,1.1c0,0.1,0,0.1,0,0.1l0,0.2c0,0.6,0,0.7,0.5,0.8c0.6,0.1,1.2,0.2,1.8,0.2c0.1,0,0.2,0,0.2-0.1
					c0.1-0.1,0.1-0.3,0-0.6c0-0.1,0-0.3,0-0.5c0-0.3,0-0.5-0.1-0.8c0-0.2-0.1-0.4-0.1-0.7c-0.1,0-0.2,0-0.3-0.1
					c-0.3-0.1-0.6-0.1-0.8-0.2c-0.2-0.1-0.6,0.1-0.9,0.2C63.8,97.9,63.7,97.9,63.6,98z"/>
			</g>
			<g>
				<path id="path9892_1_" fill="#4DB9DF" d="M64.2,97.4c0,0-0.9,0.1-1.5-0.2c-0.4-0.2-0.9,0.1-1.2,0.2c-0.2,0.1-0.1,1.3-0.1,1.5
					c0,0.5,0,1,0.1,1.2c0.1,0.3,1.7,0.4,2.1,0.4c0.4,0,0.7-0.6,0.8-0.9c0.1-0.4-0.1-1.4-0.1-1.9C64.3,97.7,64.2,97.5,64.2,97.4z"/>
				<path fill="#FFFFFF" d="M63.5,100.7c0,0-2.1-0.1-2.2-0.5c-0.1-0.3-0.1-0.7-0.1-1.3c0,0,0-0.1,0-0.2c0-0.9,0-1.3,0.2-1.4
					c0.1,0,0.2-0.1,0.3-0.1c0.2-0.1,0.5-0.2,0.7-0.2c0.1,0,0.2,0,0.3,0.1c0.2,0.1,0.5,0.2,0.9,0.2c0.1,0,0.2,0,0.3,0
					c0.1,0,0.1,0,0.1,0c0.2,0,0.2,0.1,0.2,0.1c0,0,0,0.1,0,0.1c0,0.1,0,0.2,0,0.3c0,0.2,0,0.4,0.1,0.6c0.1,0.5,0.1,1,0,1.3
					C64.4,99.9,64.1,100.7,63.5,100.7z M62.4,97.3c-0.2,0-0.4,0.1-0.6,0.2c-0.1,0-0.2,0.1-0.3,0.1c-0.1,0.1-0.1,0.5,0,1.2
					c0,0.1,0,0.2,0,0.2c0,0.4,0,0.9,0.1,1.2c0.1,0.2,1.5,0.3,2,0.3c0.3,0,0.6-0.6,0.7-0.8c0.1-0.3,0-0.7,0-1.2
					c0-0.2-0.1-0.5-0.1-0.7c0-0.1,0-0.2,0-0.2c0,0,0,0,0,0c0,0-0.1,0-0.1,0c-0.1,0-0.2,0-0.3,0c-0.4,0-0.8-0.1-1-0.2
					C62.5,97.3,62.5,97.3,62.4,97.3z"/>
			</g>
			<g>
				<path id="path9880_1_" sodipodi:nodetypes="ccscscc" fill="#4DB9DF" d="M58.4,97.3c0.7-0.1,1.8,0,2.6,0c0.5,0,0.8,0.1,0.8,0.6
					c0,0.5,0,1.2,0,1.8c0,0.8-0.9,0.8-1.8,0.8c-0.9,0-1.9,0-1.7-0.9C58.3,98.9,58.4,97.9,58.4,97.3z"/>
				<path fill="#FFFFFF" d="M60.4,100.6c-0.1,0-0.2,0-0.4,0l-0.2,0c-0.7,0-1.3,0-1.6-0.4c-0.1-0.2-0.2-0.4-0.1-0.7
					c0-0.3,0-0.7,0-1.1c0-0.4,0.1-0.8,0.1-1.2c0-0.1,0-0.1,0.1-0.1c0.2,0,0.4-0.1,0.7-0.1c0.3,0,0.6,0,0.9,0c0.4,0,0.7,0,1,0
					c0,0,0,0,0,0c0.5,0,0.9,0.1,0.9,0.7c0,0.2,0,0.5,0,0.8c0,0.3,0,0.7,0,1c0,0.2-0.1,0.4-0.2,0.6C61.4,100.5,61,100.6,60.4,100.6z
					 M58.5,97.4c0,0.3,0,0.7-0.1,1.1c0,0.4,0,0.8,0,1.1c0,0.2,0,0.4,0.1,0.5c0.2,0.3,0.8,0.3,1.4,0.3l0.2,0c0.1,0,0.2,0,0.4,0
					c0.4,0,0.9,0,1.1-0.2c0.1-0.1,0.1-0.2,0.1-0.4c0-0.3,0-0.7,0-1c0-0.3,0-0.6,0-0.8c0-0.4-0.2-0.5-0.7-0.5c-0.3,0-0.7,0-1.1,0
					C59.4,97.3,58.8,97.3,58.5,97.4z"/>
			</g>
			<g>
				
					<rect x="41.2" y="77.7" transform="matrix(0.7325 -0.6808 0.6808 0.7325 -41.5682 50.5921)" fill="#4DB9DF" width="4.7" height="1"/>
				
					<rect x="42.7" y="79.2" transform="matrix(0.7325 -0.6808 0.6808 0.7325 -42.2514 52.0155)" fill="#4DB9DF" width="4.7" height="1"/>
				<path fill="#4DB9DF" d="M53.5,84.9c0,0-0.1,0-0.1,0c-8.5-9.1-8.5-9.2-8.6-9.2c0-0.1,0-0.2,0.1-0.2c0.1,0,0.2,0,0.2,0.1
					c0.1,0.1,5.6,6,8.5,9.2c0.1,0.1,0.1,0.2,0,0.2C53.6,84.9,53.6,84.9,53.5,84.9z"/>
				<polygon fill="#4DB9DF" points="45,75.4 44.8,75.2 44.8,74.9 44,74.5 44.3,75.3 44.6,75.3 44.8,75.5 44.6,75.7 44.8,75.9 
					45.3,75.4 45.1,75.2 				"/>
			</g>
			<g>
				
					<rect x="40.7" y="87.3" transform="matrix(0.7325 -0.6808 0.6808 0.7325 -48.2559 52.8416)" fill="#4DB9DF" width="4.7" height="1"/>
				
					<rect x="42.2" y="88.9" transform="matrix(0.7325 -0.6808 0.6808 0.7325 -48.9392 54.265)" fill="#4DB9DF" width="4.7" height="1"/>
				<path fill="#4DB9DF" d="M52.2,93.7c0,0-0.1,0-0.1,0c-7.7-8.3-7.7-8.4-7.7-8.4c0-0.1,0-0.2,0.1-0.2c0.1,0,0.2,0,0.2,0.1
					c0.1,0.1,5.1,5.5,7.7,8.3c0.1,0.1,0.1,0.2,0,0.2C52.3,93.7,52.2,93.7,52.2,93.7z"/>
				<polygon fill="#4DB9DF" points="44.5,85 44.3,84.8 44.4,84.5 43.6,84.1 43.8,85 44.1,84.9 44.3,85.1 44.1,85.3 44.3,85.5 
					44.9,85.1 44.7,84.8 				"/>
			</g>
			<g>
				
					<rect x="39.1" y="97.8" transform="matrix(0.7325 -0.6808 0.6808 0.7325 -55.8489 54.526)" fill="#4DB9DF" width="4.7" height="1"/>
				
					<rect x="40.6" y="99.4" transform="matrix(0.7325 -0.6808 0.6808 0.7325 -56.5321 55.9494)" fill="#4DB9DF" width="4.7" height="1"/>
				<path fill="#4DB9DF" d="M49.2,102.8c0,0-0.1,0-0.1,0c-6.4-6.9-6.4-7-6.4-7c0-0.1,0-0.2,0.1-0.2c0.1,0,0.2,0,0.2,0.1
					c0.1,0.1,4.2,4.6,6.4,6.9c0.1,0.1,0.1,0.2,0,0.2C49.3,102.8,49.3,102.8,49.2,102.8z"/>
				<polygon fill="#4DB9DF" points="42.8,95.5 42.6,95.3 42.7,95 41.9,94.6 42.2,95.5 42.5,95.4 42.7,95.6 42.5,95.8 42.7,96 
					43.2,95.6 43,95.3 				"/>
			</g>
			<g>
				
					<rect x="73.9" y="77.7" transform="matrix(-0.7325 -0.6808 0.6808 -0.7325 78.8098 187.3415)" fill="#4DB9DF" width="4.7" height="1"/>
				
					<rect x="72.4" y="79.2" transform="matrix(-0.7325 -0.6808 0.6808 -0.7325 75.1874 189.0801)" fill="#4DB9DF" width="4.7" height="1"/>
				<path fill="#4DB9DF" d="M66.3,84.9c0,0-0.1,0-0.1,0c-0.1-0.1-0.1-0.1,0-0.2c2.9-3.1,8.4-9,8.5-9.2c0-0.1,0.1-0.1,0.2,0
					c0.1,0,0.1,0.1,0,0.2c0,0,0,0.1-8.6,9.2C66.4,84.9,66.3,84.9,66.3,84.9z"/>
				<polygon fill="#4DB9DF" points="74.9,75.4 75,75.2 75,74.9 75.8,74.5 75.5,75.3 75.2,75.3 75,75.5 75.2,75.7 75,75.9 74.5,75.4 
					74.7,75.2 				"/>
			</g>
			<g>
				
					<rect x="74.3" y="87.3" transform="matrix(-0.7325 -0.6808 0.6808 -0.7325 73.0854 204.36)" fill="#4DB9DF" width="4.7" height="1"/>
				
					<rect x="72.9" y="88.9" transform="matrix(-0.7325 -0.6808 0.6808 -0.7325 69.4631 206.0987)" fill="#4DB9DF" width="4.7" height="1"/>
				<path fill="#4DB9DF" d="M67.6,93.7c0,0-0.1,0-0.1,0c-0.1-0.1-0.1-0.1,0-0.2c2.6-2.8,7.6-8.2,7.7-8.3c0-0.1,0.1-0.1,0.2,0
					c0.1,0,0.1,0.1,0,0.2c0,0,0,0.1-7.7,8.4C67.7,93.7,67.6,93.7,67.6,93.7z"/>
				<polygon fill="#4DB9DF" points="75.3,85 75.5,84.8 75.4,84.5 76.2,84.1 76,85 75.7,84.9 75.5,85.1 75.7,85.3 75.5,85.5 
					74.9,85.1 75.1,84.8 				"/>
			</g>
			<g>
				
					<rect x="76" y="97.8" transform="matrix(-0.7325 -0.6808 0.6808 -0.7325 68.799 223.6821)" fill="#4DB9DF" width="4.7" height="1"/>
				
					<rect x="74.5" y="99.4" transform="matrix(-0.7325 -0.6808 0.6808 -0.7325 65.1767 225.4207)" fill="#4DB9DF" width="4.7" height="1"/>
				<path fill="#4DB9DF" d="M70.6,102.8c0,0-0.1,0-0.1,0c-0.1-0.1-0.1-0.1,0-0.2c2.2-2.3,6.3-6.8,6.4-6.9c0-0.1,0.1-0.1,0.2,0
					c0.1,0,0.1,0.1,0,0.2c0,0,0,0.1-6.4,7C70.6,102.8,70.6,102.8,70.6,102.8z"/>
				<polygon fill="#4DB9DF" points="77,95.5 77.2,95.3 77.1,95 77.9,94.6 77.6,95.5 77.3,95.4 77.1,95.6 77.3,95.8 77.1,96 
					76.6,95.6 76.8,95.3 				"/>
			</g>
			<g>
				<polygon fill="#4DB9DF" points="59.7,69.1 59.7,68.8 59.4,68.6 59.8,67.8 60.1,68.6 59.9,68.8 59.9,69.1 60.1,69.1 60.1,69.4 
					59.4,69.4 59.4,69.1 				"/>
			</g>
			<path fill="#4DB9DF" d="M59.8,77.4c-0.1,0-0.1-0.1-0.1-0.1v-8c0-0.1,0.1-0.1,0.1-0.1s0.1,0.1,0.1,0.1v8
				C59.9,77.3,59.9,77.4,59.8,77.4z"/>
		</g>
	</g>
	<g>
		<path fill="#4DB9DF" d="M60.1,104.7c-1.9,0-4.2,0.6-4.1,3.3c0.2,2.6,0.1,6,0.1,6l1.1,0c0-0.8,0-3.2-0.1-5.3
			c-0.1-2.6,1.5-3.2,2.9-3.2c1.4,0,2.8,0.5,2.7,3.3c0,2.2-0.1,4.5-0.1,5.2l1,0c0,0,0.1-3.2,0.2-6C63.9,105.1,62,104.7,60.1,104.7z"
			/>
		<path fill="#FFFFFF" d="M63.7,114.2L63.7,114.2l-1,0c0,0-0.1,0-0.1,0c0,0,0-0.1,0-0.1c0-0.7,0.1-3,0.1-5.2c0-2.7-1.3-3.1-2.6-3.1
			l-0.1,0c-0.6,0-1.4,0.1-2,0.7c-0.5,0.5-0.7,1.3-0.7,2.3c0.1,2,0.1,4.4,0.1,5.3c0,0.1-0.1,0.1-0.1,0.1c0,0,0,0,0,0l-1.1,0
			c0,0-0.1,0-0.1,0c0,0,0-0.1,0-0.1c0,0,0.1-3.4-0.1-6c-0.1-1,0.2-1.8,0.7-2.4c0.9-0.9,2.3-1.1,3.3-1.1l0.2,0c2,0,4,0.5,3.9,3.5
			c0,2.7-0.2,6-0.2,6C63.8,114.1,63.8,114.2,63.7,114.2z M62.8,113.9l0.8,0c0-0.6,0.1-3.4,0.2-5.9c0-2.8-1.8-3.2-3.7-3.3l-0.2,0
			c-0.8,0-2.3,0.1-3.1,1c-0.5,0.5-0.7,1.3-0.7,2.2c0.1,2.3,0.1,5.2,0.1,5.9l0.8,0c0-1,0-3.2-0.1-5.2c0-1.1,0.2-2,0.8-2.5
			c0.6-0.7,1.5-0.8,2.2-0.8l0.1,0c1.4,0,2.9,0.5,2.9,3.4C62.9,110.9,62.8,113.1,62.8,113.9z"/>
	</g>
	<g>
		<path id="path68299_1_" fill="#4DB9DF" d="M56.9,104.7l1.5,1.3c-0.3,0.1-0.9,0.7-0.9,1.1l-1.6-1.6C56,105.2,56.4,104.9,56.9,104.7
			z"/>
		<path fill="#FFFFFF" d="M57.5,107.3C57.4,107.3,57.4,107.3,57.5,107.3l-1.7-1.6c0,0-0.1-0.1,0-0.1c0.2-0.4,0.6-0.7,1.2-1
			c0,0,0.1,0,0.1,0l1.5,1.3c0,0,0.1,0.1,0,0.1s0,0.1-0.1,0.1c-0.3,0.1-0.8,0.6-0.8,1C57.6,107.2,57.6,107.3,57.5,107.3
			C57.5,107.3,57.5,107.3,57.5,107.3z M56,105.6l1.4,1.3c0.1-0.4,0.5-0.7,0.8-0.9l-1.3-1.1C56.5,105.1,56.2,105.3,56,105.6z"/>
	</g>
	<g>
		<path id="path68293_1_" sodipodi:nodetypes="ccccc" fill="#4DB9DF" d="M64.4,110.2l-1.8,0l-0.1,1.7l1.9,0
			C64.4,111.9,64.4,110.3,64.4,110.2z"/>
		<path fill="#FFFFFF" d="M62.5,112.1C62.5,112.1,62.4,112.1,62.5,112.1c-0.1-0.1-0.1-0.1-0.1-0.1l0.1-1.7c0-0.1,0.1-0.1,0.1-0.1
			c0,0,0,0,0,0l1.8,0c0.1,0,0.1,0,0.1,0.1c0,0,0,0,0,0.1c0,0.1,0,1.5,0,1.6c0,0,0,0,0,0.1c0,0.1-0.1,0.1-0.1,0.1L62.5,112.1
			C62.5,112.1,62.5,112.1,62.5,112.1z M62.7,110.4l-0.1,1.5l1.6,0c0-0.3,0-1,0-1.4L62.7,110.4z"/>
	</g>
	<g>
		<path id="path68295_1_" sodipodi:nodetypes="ccccc" fill="#4DB9DF" d="M64.2,107.1l-1.7,0c0.3,0.1,0.1,1.8,0.1,1.8l1.6,0
			C64.1,108.9,64.1,107.1,64.2,107.1z"/>
		<path fill="#FFFFFF" d="M62.6,109C62.6,109,62.5,109,62.6,109c-0.1-0.1-0.1-0.1-0.1-0.1c0.1-0.8,0.1-1.6-0.1-1.7
			c-0.1,0-0.1-0.1-0.1-0.1c0-0.1,0.1-0.1,0.1-0.1l1.7,0c0.1,0,0.1,0,0.1,0.1c0,0,0,0,0,0.1c0,0.2,0,1.6,0,1.7c0,0,0,0,0,0.1
			c0,0.1-0.1,0.1-0.1,0.1L62.6,109C62.6,109,62.6,109,62.6,109z M62.7,107.2c0.1,0.4,0.1,1.1,0.1,1.6l1.3,0c0-0.3,0-1.1,0-1.5
			L62.7,107.2z"/>
	</g>
	<g>
		<path id="path68303_1_" sodipodi:nodetypes="ccccc" fill="#4DB9DF" d="M64.1,112.8l-1.6,0l-0.1,1.3l1.7,0
			C64.1,114.1,64.1,112.9,64.1,112.8z"/>
		<path fill="#FFFFFF" d="M62.5,114.3C62.4,114.3,62.4,114.3,62.5,114.3c-0.1-0.1-0.1-0.1-0.1-0.1l0.1-1.3c0-0.1,0.1-0.1,0.1-0.1
			l1.6,0l0,0c0.1,0,0.1,0,0.1,0.1c0,0,0,0,0,0.1c0,0.1,0,1.1,0,1.2c0,0,0,0,0,0.1c0,0.1-0.1,0.1-0.1,0.1L62.5,114.3
			C62.5,114.3,62.5,114.3,62.5,114.3z M62.7,113l-0.1,1.1l1.4,0c0-0.2,0-0.7,0-1L62.7,113z"/>
	</g>
	<g>
		<path id="path68287_1_" fill="#4DB9DF" d="M58.8,103.9H61l-0.5,1.8l-1.3,0L58.8,103.9z"/>
		<path fill="#FFFFFF" d="M59.3,105.8c-0.1,0-0.1,0-0.1-0.1l-0.5-1.8c0,0,0-0.1,0-0.1c0,0,0.1-0.1,0.1-0.1H61c0,0,0.1,0,0.1,0.1
			c0,0,0,0.1,0,0.1l-0.5,1.8c0,0.1-0.1,0.1-0.1,0.1L59.3,105.8C59.3,105.8,59.3,105.8,59.3,105.8z M58.9,104l0.4,1.6l1.1,0l0.4-1.5
			H58.9z"/>
	</g>
	<g>
		<path id="path68297_1_" fill="#4DB9DF" d="M62.9,104.7l-1.3,1.2c0.4,0,0.8,0.7,0.9,1.1l1.6-1.4C63.8,105.2,63.4,105,62.9,104.7z"
			/>
		<path fill="#FFFFFF" d="M62.5,107.2C62.5,107.2,62.4,107.2,62.5,107.2c-0.1,0-0.1-0.1-0.1-0.1c-0.1-0.4-0.5-1-0.8-1
			c0,0-0.1,0-0.1-0.1c0,0,0-0.1,0-0.1l1.3-1.2c0,0,0.1,0,0.1,0c0.6,0.3,1,0.6,1.2,1c0,0.1,0,0.1,0,0.1L62.5,107.2
			C62.5,107.2,62.5,107.2,62.5,107.2z M61.8,105.9c0.3,0.2,0.6,0.6,0.7,0.9l1.3-1.2c-0.2-0.3-0.5-0.5-0.9-0.7L61.8,105.9z"/>
	</g>
	<g>
		<path id="path68289_1_" sodipodi:nodetypes="ccccc" fill="#4DB9DF" d="M55.6,107l1.9,0c-0.3,0.1-0.2,1.7-0.2,1.7l-1.7,0
			C55.6,108.8,55.6,107.1,55.6,107z"/>
		<path fill="#FFFFFF" d="M57.2,108.9C57.2,108.9,57.2,108.9,57.2,108.9l-1.7,0c-0.1,0-0.1,0-0.1-0.1c0,0,0,0,0-0.1
			c0-0.2,0-1.5,0-1.6c0,0,0,0,0-0.1c0-0.1,0.1-0.1,0.1-0.1l0,0l1.9,0c0.1,0,0.1,0,0.1,0.1c0,0.1,0,0.1-0.1,0.1
			c-0.1,0.1-0.2,0.8-0.2,1.6C57.4,108.8,57.4,108.8,57.2,108.9C57.3,108.9,57.3,108.9,57.2,108.9z M55.7,108.6l1.4,0
			c0-0.5,0-1.1,0.1-1.5l-1.5,0C55.8,107.6,55.7,108.3,55.7,108.6z"/>
	</g>
	<g>
		<path id="path68291_1_" sodipodi:nodetypes="ccccc" fill="#4DB9DF" d="M55.6,110.3l1.7,0l0.1,1.5l-1.8,0
			C55.6,111.8,55.6,110.3,55.6,110.3z"/>
		<path fill="#FFFFFF" d="M57.3,111.9C57.3,111.9,57.3,111.9,57.3,111.9l-1.8,0c-0.1,0-0.1,0-0.1-0.1c0,0,0,0,0-0.1
			c0-0.1,0-1.3,0-1.4c0,0,0,0,0-0.1c0-0.1,0.1-0.1,0.1-0.1l1.7,0c0.1,0,0.1,0.1,0.1,0.1l0.1,1.5C57.4,111.8,57.4,111.9,57.3,111.9
			C57.4,111.9,57.4,111.9,57.3,111.9z M55.7,111.7l1.5,0l-0.1-1.3l-1.4,0C55.7,110.8,55.7,111.4,55.7,111.7z"/>
	</g>
	<g>
		<path id="path68301_1_" sodipodi:nodetypes="ccccc" fill="#4DB9DF" d="M55.6,112.8l1.8,0l0.1,1.3l-1.9,0
			C55.6,114.1,55.7,112.8,55.6,112.8z"/>
		<path fill="#FFFFFF" d="M57.5,114.3C57.5,114.3,57.5,114.3,57.5,114.3l-1.9,0c-0.1,0-0.1,0-0.1-0.1c0,0,0,0,0-0.1
			c0-0.1,0-1.1,0-1.2c0,0,0,0,0-0.1c0-0.1,0.1-0.1,0.1-0.1l1.8,0c0.1,0,0.1,0.1,0.1,0.1l0.1,1.3C57.6,114.2,57.6,114.2,57.5,114.3
			C57.5,114.2,57.5,114.3,57.5,114.3z M55.7,114l1.6,0l-0.1-1.1l-1.5,0C55.8,113.2,55.8,113.6,55.7,114z"/>
	</g>
	<rect x="60.2" y="69.8" fill="#4DB9DF" width="5.9" height="1.1"/>
	<rect x="60.2" y="72.1" fill="#4DB9DF" width="5.9" height="1.1"/>
</g>
<path fill="#4DB9DF" d="M73.4,66.3H46c-1,0-1.8-0.8-1.8-1.8c0-1,0.8-1.8,1.8-1.8h27.4c1,0,1.8,0.8,1.8,1.8
	C75.2,65.5,74.4,66.3,73.4,66.3z M46,64.2c-0.2,0-0.4,0.2-0.4,0.4S45.8,65,46,65h27.4c0.2,0,0.4-0.2,0.4-0.4s-0.2-0.4-0.4-0.4H46z"
	/>
</svg>
