<?xml version="1.0" encoding="UTF-8" standalone="no"?>
<svg width="415px" height="480px" viewBox="0 0 415 480" version="1.1" xmlns="http://www.w3.org/2000/svg" xmlns:xlink="http://www.w3.org/1999/xlink" xmlns:sketch="http://www.bohemiancoding.com/sketch/ns">
    <!-- Generator: Sketch 3.3 (11970) - http://www.bohemiancoding.com/sketch -->
    <title>formosa</title>
    <desc>Created with Sketch.</desc>
    <defs></defs>
    <g id="Page-1" stroke="none" stroke-width="1" fill="none" fill-rule="evenodd" sketch:type="MSPage">
        <g id="formosa" sketch:type="MSArtboardGroup" fill="#4DB9DF">
            <g id="Imported-Layers" sketch:type="MSLayerGroup" transform="translate(9.000000, 21.000000)">
                <path d="M315.388421,102.380526 L257.138684,102.380526 L204.560526,79.1542105 L149.685789,102.380526 L91.1960526,102.380526 L59.7071053,243.947368 L346.772368,245.263421 L315.388421,102.380526 L315.388421,102.380526 Z M190.680789,99.4239474 L200.333684,108.952105 L200.49,108.790263 C200.49,108.790263 202.969737,103.286053 204.618158,99.6292105 C205.516579,102.191842 206.834211,105.947368 207.516316,107.890263 L216.036316,99.2589474 L217.160526,100.368158 L208.166842,109.479474 L208.615263,110.171053 C208.615263,110.171053 214.432895,112.526842 217.727368,113.861053 C215.047895,114.965526 210.316579,116.914737 208.965789,117.471316 L217.325526,125.723684 L216.216316,126.847105 L207.688421,118.430526 L207.612632,118.498421 C207.612632,118.498421 205.659474,124.417105 204.716842,127.272632 C204.513158,127.266316 204.309474,127.259211 204.105789,127.252895 C202.991842,124.254474 200.688947,118.057895 200.688947,118.057895 L200.091316,117.660789 L190.860789,127.012895 L189.736579,125.903684 L198.596053,116.927368 C196.738421,116.221579 192.432632,114.586579 189.648158,113.528684 C193.114737,112.295526 199.196842,110.132368 199.196842,110.132368 L199.237895,110.089737 L189.571579,100.548158 L190.680789,99.4239474 L190.680789,99.4239474 Z M112.062632,238.478684 L110.952632,239.602105 L102.425526,231.185526 L102.349737,231.253421 C102.349737,231.253421 100.395789,237.172105 99.4531579,240.027632 C99.2494737,240.021316 99.0457895,240.014211 98.8421053,240.007895 C97.7281579,237.009474 95.4260526,230.812895 95.4260526,230.812895 L94.8284211,230.415789 L85.5978947,239.767895 L84.4736842,238.658684 L93.3331579,229.682368 C91.4755263,228.976579 87.1697368,227.341579 84.3852632,226.283684 C87.8510526,225.051316 93.9339474,222.887368 93.9339474,222.887368 L93.975,222.844737 L84.3078947,213.303158 L85.4178947,212.178947 L95.0707895,221.707105 L95.2263158,221.546053 C95.2263158,221.546053 97.7068421,216.041053 99.3544737,212.384211 C100.253684,214.946842 101.571316,218.702368 102.252632,220.646053 L110.772632,212.013947 L111.896842,213.123158 L102.903947,222.234474 L103.352368,222.926053 C103.352368,222.926053 109.17,225.281842 112.464474,226.616053 C109.785,227.720526 105.053684,229.669737 103.702105,230.227105 L112.062632,238.478684 L112.062632,238.478684 Z M118.378421,196.125 L117.268421,197.249211 L108.741316,188.832632 L108.665526,188.899737 C108.665526,188.899737 106.711579,194.819211 105.768947,197.674737 C105.565263,197.668421 105.361579,197.661316 105.157895,197.655 C104.043947,194.656579 101.741842,188.46 101.741842,188.46 L101.144211,188.062895 L91.9136842,197.415 L90.7894737,196.305789 L99.6489474,187.329474 C97.7913158,186.623684 93.4855263,184.988684 90.7010526,183.930789 C94.1668421,182.698421 100.249737,180.534474 100.249737,180.534474 L100.290789,180.491842 L90.6236842,170.950263 L91.7336842,169.826053 L101.386579,179.354211 L101.542105,179.192368 C101.542105,179.192368 104.022632,173.688158 105.670263,170.031316 C106.569474,172.593947 107.887105,176.349474 108.568421,178.292368 L117.088421,169.661053 L118.212632,170.770263 L109.219737,179.881579 L109.668158,180.573158 C109.668158,180.573158 115.485789,182.928947 118.780263,184.263158 C116.100789,185.367632 111.369474,187.316842 110.017895,187.873421 L118.378421,196.125 L118.378421,196.125 Z M138.904737,161.775789 L137.794737,162.9 L129.267632,154.482632 L129.191842,154.550526 C129.191842,154.550526 127.237895,160.469211 126.295263,163.325526 C126.091579,163.318421 125.887895,163.312105 125.684211,163.305789 C124.570263,160.307368 122.268158,154.110789 122.268158,154.110789 L121.670526,153.713684 L112.44,163.065 L111.315789,161.955789 L120.175263,152.980263 C118.317632,152.274474 114.011842,150.639474 111.227368,149.581579 C114.693158,148.348421 120.776053,146.184474 120.776053,146.184474 L120.817105,146.141842 L111.15,136.600263 L112.26,135.476842 L121.912895,145.005 L122.068421,144.843158 C122.068421,144.843158 124.548947,139.338947 126.196579,135.682105 C127.095789,138.243947 128.413421,141.999474 129.094737,143.943158 L137.614737,135.311053 L138.738947,136.420263 L129.746053,145.532368 L130.194474,146.223947 C130.194474,146.223947 136.012105,148.579737 139.306579,149.913947 C136.627105,151.017632 131.895789,152.967632 130.544211,153.524211 L138.904737,161.775789 L138.904737,161.775789 Z M145.526053,136.955526 L154.385526,127.98 C152.527895,127.274211 148.222105,125.639211 145.437632,124.581316 C148.904211,123.348158 154.986316,121.185 154.986316,121.185 L155.027368,121.142368 L145.361053,111.600789 L146.470263,110.476579 L156.123947,120.004737 L156.279474,119.842895 C156.279474,119.842895 158.759211,114.338684 160.407632,110.681842 C161.306053,113.244474 162.623684,117 163.305,118.942895 L171.825789,110.311579 L172.949211,111.420789 L163.956316,120.532105 L164.404737,121.223684 C164.404737,121.223684 170.223158,123.579474 173.516842,124.913684 C170.837368,126.018158 166.106053,127.967368 164.755263,128.523947 L173.115,136.776316 L172.005789,137.899737 L163.477895,129.483158 L163.402105,129.551053 C163.402105,129.551053 161.448947,135.469737 160.506316,138.325263 C160.302632,138.318947 160.098947,138.311842 159.895263,138.305526 C158.781316,135.307105 156.479211,129.110526 156.479211,129.110526 L155.880789,128.713421 L146.650263,138.065526 L145.526053,136.955526 L145.526053,136.955526 Z M249.260526,191.578421 C246.716053,194.227895 242.753684,195.255 238.949211,196.576579 C235.837105,197.658158 232.905789,199.372105 230.056579,201.075 C226.454211,203.229474 223.02,205.663421 219.131053,208.228421 C220.428947,201.895263 221.069211,196.201579 222.855789,190.894737 C224.200263,186.903947 227.111053,183.460263 229.145526,179.677105 C230.623421,176.928947 232.428158,174.176053 231.414474,170.186842 C230.396842,171.395526 229.761316,172.374474 228.915789,173.112632 C226.429737,175.282895 223.970526,177.512368 221.295,179.431579 C217.979211,181.811842 216.394737,185.230263 214.715526,188.741053 C211.837105,194.758421 208.691842,200.648684 205.655526,206.591053 C204.588158,208.680789 203.443421,208.407632 202.005,206.861053 C197.977105,202.529211 193.866316,198.274737 189.792632,193.985526 C185.058158,189.000789 182.998421,182.805789 181.706053,176.242895 C181.371316,174.543158 180.777632,172.895526 180.223421,170.944737 C175.198421,176.823947 175.627105,192.733421 180.342632,207.179211 C179.300526,205.753421 178.170789,204.382895 177.233684,202.890789 C175.055526,199.425789 171.784737,197.600526 168.044211,196.311316 C164.892632,195.225789 161.820789,193.909737 158.692895,192.751579 C157.787368,192.416053 156.811579,192.270789 155.201842,191.873684 C156.645789,194.164737 160.972105,200.051842 161.43,202.986316 C162.146842,207.577105 163.127368,213.864474 169.087105,217.023158 C177.493421,221.478158 185.258684,224.046316 192.826579,224.874474 C199.207895,225.571579 205.493684,230.512895 206.936053,232.856053 C207.429474,233.657368 207.459474,234.801316 207.491842,236.010789 C207.530526,237.478421 207.570789,238.995789 208.466842,239.786842 C209.055789,240.306316 209.979474,240.495789 211.297895,240.366316 C212.808947,240.218684 213.820263,239.365263 214.303421,237.831316 C215.389737,234.385263 213.492632,228.917368 211.770789,227.441053 L211.124211,226.886842 L211.964211,226.751842 C212.049474,226.738421 220.512632,225.333947 225.793421,221.109474 C230.905263,217.020789 234.308684,212.470263 237.844737,206.896579 C239.102368,204.916579 240.858158,203.158421 242.557105,201.457105 C245.325789,198.685263 248.188421,195.818684 249.142895,191.819211 L249.260526,191.578421 L249.260526,191.578421 Z M249.911053,192.003158 C248.904474,196.218947 245.961316,199.165263 243.115263,202.015263 C241.370526,203.762368 239.722105,205.413158 238.511842,207.320526 C234.932368,212.960526 231.483947,217.568684 226.286842,221.726053 C221.704737,225.392368 215.033684,226.957895 212.821579,227.396842 C214.688684,229.655526 216.071053,234.848684 215.056579,238.068947 C214.477105,239.906053 213.204474,240.972632 211.375263,241.153421 C211.085526,241.181053 210.811579,241.195263 210.551842,241.195263 C209.422105,241.195263 208.563947,240.925263 207.944211,240.378947 C206.790789,239.360526 206.743421,237.592105 206.702368,236.031316 C206.673158,234.930789 206.645526,233.890263 206.263421,233.268947 C204.890526,231.037895 198.873158,226.329474 192.741316,225.659211 C185.071579,224.82 177.213158,222.223421 168.716842,217.720263 C162.408947,214.376842 161.350263,207.595263 160.65,203.107895 C160.455,201.855789 159.663947,200.376316 159.480789,200.591053 C158.037632,199.538684 156.596842,198.483947 155.151316,197.435526 C154.551316,197.000526 153.990789,196.470789 153.328421,196.167632 C147.719211,193.601842 145.782632,188.494737 148.732895,183.042632 C150.139737,180.442105 150.728684,177.665526 151.71,174.987632 C152.619474,172.506316 154.716316,170.355789 156.627632,168.387632 C157.655526,167.328947 158.407105,166.845 157.994211,165.051316 C156.277895,157.592368 160.578947,150.018158 168.153158,148.916053 C172.558421,148.275 176.732368,148.420263 180.963947,146.108684 C184.027895,144.435 187.800789,146.422895 191.221579,147.847105 C194.443421,149.188421 196.605789,151.357895 198.963947,153.671842 C199.992632,154.681579 202.272632,154.416316 204.286579,154.785 C204.491842,153.843158 204.643421,153.303947 204.723158,152.754474 C205.767632,145.545789 210.588158,143.208158 216.656842,142.511842 C217.473947,142.417895 218.346316,142.288421 219.061579,141.919737 C222.463421,140.166316 224.629737,140.565 227.412632,143.344737 C228.107368,144.038684 229.181842,144.380526 230.119737,144.798158 C231.221842,145.289211 232.673684,145.390263 233.436316,146.180526 C236.017895,148.856842 238.818158,151.5 240.640263,154.670526 C241.889211,156.844737 241.878158,159.863684 242.000526,162.525 C242.084211,164.353421 242.443421,165.277895 244.308947,165.986053 C250.507105,168.338684 254.7,178.001842 252.398684,184.14 C252.266053,184.492895 251.962895,184.815 251.933684,185.167895 C251.739474,187.451053 251.083421,189.191842 250.104474,190.562368 L249.911053,192.003158 L249.911053,192.003158 Z M242.323421,198.522632 C242.323421,198.522632 234.675,203.752895 230.876053,207.897632 C227.076316,212.042368 221.501053,209.871316 221.501053,209.871316 C221.501053,209.871316 228.606316,207.601579 232.158947,203.654211 C235.711579,199.706842 242.323421,198.522632 242.323421,198.522632 L242.323421,198.522632 Z M209.917105,205.553684 C209.814474,205.608158 209.757632,205.627895 209.757632,205.627895 C209.757632,205.627895 209.816842,205.601053 209.917105,205.553684 C210.643421,205.17 213.678947,203.068421 215.58,194.081842 C217.751053,183.818684 225.448421,179.476579 225.448421,179.476579 C225.448421,179.476579 219.527368,185.693684 219.33,193.588421 C219.147632,200.883947 211.134474,204.974211 209.917105,205.553684 L209.917105,205.553684 Z M184.099737,198.522632 C180.053684,193.785789 180.349737,181.351579 180.349737,181.351579 C180.349737,181.351579 184.889211,194.97 191.303684,200.891053 C197.718158,206.812105 198.408947,210.759474 198.408947,210.759474 C198.408947,210.759474 188.145789,203.259474 184.099737,198.522632 L184.099737,198.522632 Z M184.790526,213.72 C184.790526,213.72 182.422105,214.509474 177.783947,211.154211 C173.145789,207.798947 168.843158,201.625263 163.968158,198.522632 C163.968158,198.522632 168.705,199.509474 171.862895,201.285789 C175.020789,203.062105 178.178684,209.772632 184.790526,213.72 L184.790526,213.72 Z M261.536053,136.249737 L260.426842,137.373947 L251.898947,128.956579 L251.823158,129.024474 C251.823158,129.024474 249.87,134.943158 248.927368,137.798684 C248.723684,137.792368 248.52,137.786053 248.316316,137.778947 C247.202368,134.781316 244.900263,128.583947 244.900263,128.583947 L244.301842,128.187632 L235.071316,137.538947 L233.947105,136.429737 L242.806579,127.453421 C240.948947,126.747632 236.643158,125.112632 233.858684,124.055526 C237.325263,122.822368 243.407368,120.658421 243.407368,120.658421 L243.448421,120.615789 L233.782105,111.074211 L234.891316,109.95 L244.544211,119.478158 L244.700526,119.317105 C244.700526,119.317105 247.180263,113.812895 248.828684,110.156053 C249.727105,112.717895 251.044737,116.473421 251.726842,118.417105 L260.246842,109.785 L261.371053,110.894211 L252.377368,120.005526 L252.825789,120.697895 C252.825789,120.697895 258.643421,123.053684 261.937895,124.387105 C259.258421,125.491579 254.527105,127.440789 253.176316,127.998158 L261.536053,136.249737 L261.536053,136.249737 Z M283.928684,154.550526 C283.928684,154.550526 281.974737,160.469211 281.032105,163.325526 C280.828421,163.318421 280.624737,163.312105 280.421053,163.305789 C279.307105,160.307368 277.005,154.110789 277.005,154.110789 L276.407368,153.713684 L267.176842,163.065 L266.052632,161.955789 L274.912105,152.980263 C273.054474,152.274474 268.748684,150.639474 265.964211,149.581579 C269.43,148.348421 275.512895,146.184474 275.512895,146.184474 L275.553947,146.141842 L265.886842,136.600263 L266.996842,135.476842 L276.649737,145.005 L276.805263,144.843158 C276.805263,144.843158 279.285789,139.338947 280.933421,135.682105 C281.832632,138.243947 283.150263,141.999474 283.831579,143.943158 L292.351579,135.311053 L293.475789,136.420263 L284.482895,145.532368 L284.931316,146.223947 C284.931316,146.223947 290.748947,148.579737 294.043421,149.913947 C291.363947,151.017632 286.632632,152.967632 285.281053,153.524211 L293.641579,161.775789 L292.531579,162.9 L284.004474,154.482632 L283.928684,154.550526 L283.928684,154.550526 Z M288.420789,196.956316 L297.280263,187.98 C295.422632,187.274211 291.116842,185.639211 288.332368,184.581316 C291.798947,183.348158 297.881053,181.185 297.881053,181.185 L297.922105,181.142368 L288.255789,171.600789 L289.365,170.476579 L299.017895,180.004737 L299.174211,179.842895 C299.174211,179.842895 301.653947,174.338684 303.302368,170.681842 C304.200789,173.244474 305.518421,177 306.200526,178.942895 L314.720526,170.311579 L315.844737,171.420789 L306.851053,180.532105 L307.299474,181.223684 C307.299474,181.223684 313.117105,183.579474 316.411579,184.913684 C313.732105,186.018158 309.000789,187.967368 307.65,188.523947 L316.009737,196.775526 L314.900526,197.899737 L306.372632,189.483158 L306.296842,189.551053 C306.296842,189.551053 304.343684,195.469737 303.401053,198.325263 C303.197368,198.318947 302.993684,198.311842 302.79,198.305526 C301.676053,195.307105 299.373947,189.110526 299.373947,189.110526 L298.775526,188.713421 L289.545,198.065526 L288.420789,196.956316 L288.420789,196.956316 Z M318.321316,240.391579 L309.794211,231.975 L309.718421,232.042895 C309.718421,232.042895 307.764474,237.961579 306.821842,240.817105 C306.618158,240.810789 306.414474,240.803684 306.210789,240.797368 C305.096842,237.798947 302.794737,231.602368 302.794737,231.602368 L302.196316,231.205263 L292.965789,240.557368 L291.842368,239.448158 L300.701842,230.471842 C298.843421,229.766053 294.538421,228.131053 291.753158,227.073158 C295.219737,225.840789 301.301842,223.676842 301.301842,223.676842 L301.343684,223.634211 L291.676579,214.092632 L292.785789,212.968421 L302.439474,222.496579 L302.595,222.335526 C302.595,222.335526 305.075526,216.830526 306.723158,213.174474 C307.621579,215.736316 308.939211,219.491842 309.621316,221.435526 L318.141316,212.803421 L319.265526,213.912632 L310.271842,223.023947 L310.721053,223.715526 C310.721053,223.715526 316.538684,226.071316 319.833158,227.405526 C317.152895,228.51 312.422368,230.459211 311.070789,231.015789 L319.430526,239.268158 L318.321316,240.391579 L318.321316,240.391579 Z" id="Fill-1" sketch:type="MSShapeGroup"></path>
                <path d="M145.483421,349.338947 C148.155789,351.689211 150.185526,353.598947 152.360526,355.325526 C153.272368,356.050263 154.635,356.214474 155.529474,356.953421 C156.294474,357.585 156.683684,358.673684 157.314474,359.681053 C157.496053,359.533421 157.979211,359.140263 158.098421,359.043158 C177.756316,367.62 192.933158,380.621053 200.744211,400.981579 C201.081316,401.859474 201.135789,402.846316 201.426316,404.308421 C196.118684,400.740789 191.343158,397.601053 186.642632,394.353158 C179.833421,389.649474 173.027368,384.937105 166.316053,380.096053 C161.245263,376.438421 157.714737,371.403158 154.665789,366.045 C151.661842,360.764211 148.805526,355.399737 145.483421,349.338947" id="Fill-2" sketch:type="MSShapeGroup"></path>
                <path d="M178.061053,348.961579 C180.035526,343.038158 181.875,337.251316 183.912632,331.534737 C184.786579,329.084211 185.895,326.674737 187.23,324.446053 C188.253158,322.736842 189.933158,321.960789 192.106579,322.760526 C194.276053,323.558684 194.820789,325.274211 194.284737,327.076579 C192.149211,334.261579 190.060263,341.482105 187.418684,348.487105 C186.156316,351.835263 182.896579,351.793421 178.061053,348.961579" id="Fill-3" sketch:type="MSShapeGroup"></path>
                <path d="M183.305526,325.531579 C181.236316,331.83 179.314737,337.914474 177.188684,343.926316 C176.819211,344.97 175.437632,346.549737 174.776053,346.434474 C172.479474,346.033421 169.938947,345.446842 168.173684,344.061316 C166.695,342.900789 166.210263,340.732895 167.397632,338.414211 C168.799737,335.674737 169.577368,332.606053 170.535,329.650263 C172.620789,323.211316 176.220789,321.739737 182.289474,324.914211 C182.619474,325.086316 182.926579,325.299474 183.305526,325.531579" id="Fill-4" sketch:type="MSShapeGroup"></path>
                <path d="M198.688421,331.940526 C202.260789,331.886842 203.284737,333.024474 202.730526,336.600789 C202.268684,339.578684 201.744474,342.549474 201.15,345.503684 C200.929737,346.598684 200.546053,347.697632 200.033684,348.689211 C198.532895,351.594474 193.222895,352.279737 191.155263,349.806316 C190.802368,349.384737 190.846579,348.417632 191.028947,347.797105 C192.327632,343.374474 193.848947,339.011842 195.003947,334.553684 C195.562895,332.392895 196.838684,331.932632 198.688421,331.940526" id="Fill-5" sketch:type="MSShapeGroup"></path>
                <path d="M158.008421,340.144737 C156.239211,339.954474 153.462632,339.378947 152.944737,336.911842 C152.512895,334.853684 153.599211,332.413421 154.305,330.237632 C154.433684,329.839737 156.076579,329.551579 156.821842,329.802632 C159.671842,330.762632 162.489474,331.862368 165.193421,333.169737 C165.682895,333.405789 165.945789,334.991842 165.686053,335.736316 C164.846842,338.143421 161.409474,340.169211 158.008421,340.144737" id="Fill-6" sketch:type="MSShapeGroup"></path>
                <path d="M203.64,346.749474 C204.266053,343.018421 204.853421,339.520263 205.521316,335.536579 C207.698684,337.299474 209.696053,338.925 211.703684,340.538684 C212.733158,341.366053 213.754737,342.206842 214.826053,342.977368 C217.301842,344.757632 217.220526,346.042105 214.563947,347.624211 C210.647368,349.955526 207.182368,348.155526 203.64,346.749474" id="Fill-7" sketch:type="MSShapeGroup"></path>
                <path d="M37.3863158,307.968158 L38.4284211,308.231053 C38.7852632,308.321053 74.3218421,317.516842 95.5728947,344.140263 C97.0981579,343.827632 98.6739474,343.537105 100.158158,342.993158 C100.752632,342.774474 101.274474,342.659211 101.756842,342.616579 C96.9939474,336.315789 92.9557895,321.324474 92.7734211,320.642368 L91.3476316,315.293684 L94.2118421,320.030526 C94.3018421,320.178947 105.867632,333.101842 113.526316,338.461579 C113.837368,338.292632 114.120789,338.147368 114.417632,338.057368 C124.231579,335.068421 134.027368,332.013947 143.880789,329.158421 C150.301579,327.298421 156.783158,326.224737 163.101316,329.731579 C164.044737,330.255 165.128684,330.525 166.122632,330.902368 C168.236842,327.431842 168.600789,323.224737 173.192368,321.630789 C177.594474,320.103158 180.825,321.175263 183.947368,324.566842 C185.715,320.702368 188.744211,319.564737 192.249474,320.748947 C196.303421,322.118684 195.870789,325.988684 196.039737,329.316316 C200.516842,329.567368 201.861316,330.189474 204.689211,332.756842 C209.264211,336.910263 214.429737,340.451842 219.581053,343.899474 C220.629474,344.601316 222.793421,343.972895 224.284737,343.477895 C224.747368,343.323947 225.190263,341.276053 224.787632,340.625526 C220.235526,333.283421 214.941316,326.587895 207.617368,321.723947 C205.846579,320.547632 204.326842,318.993158 202.691842,317.612368 C203.923421,317.365263 205.17,317.227895 205.884474,317.779737 C209.445789,320.531842 213.183947,323.164737 216.258947,326.409474 C220.26,330.630789 223.760526,335.337632 227.343947,339.937895 C228.957632,342.011053 230.742632,341.867368 232.524474,340.634211 C234.147632,339.510789 236.815263,338.700789 234.857368,335.670789 C233.741842,333.945789 232.991842,331.987895 232.031842,330.159474 C227.925,322.338158 222.281053,315.978947 214.961053,310.900263 C212.329737,309.075 210.698684,305.808158 208.612105,303.198947 C208.878947,302.961316 209.146579,302.723684 209.413421,302.486053 C210.402632,303.271579 211.459737,303.985263 212.366842,304.856053 C214.931842,307.315263 217.412368,309.862105 219.967895,312.33 C222.270789,314.553947 225.063158,316.413158 226.875,318.974211 C230.711053,324.399474 234.03,330.189474 237.615789,335.793947 C238.029474,336.440526 238.736053,337.222895 239.403158,337.327895 C242.317895,337.786579 244.847368,335.244474 244.236316,332.289474 C243.706579,329.73 242.797105,327.223421 241.822895,324.787105 C239.219211,318.273947 236.068421,311.958947 231.105789,306.970263 C225.253421,301.087105 218.815263,295.792105 212.798684,290.066053 C210.812368,288.175263 209.444211,287.925 207.522632,290.008421 C206.610789,290.997632 205.159737,291.502105 203.926579,292.178684 C198.255789,295.29 192.381316,297.282632 185.780526,295.668947 C181.148684,294.536053 179.059737,289.570263 181.893947,285.813947 C183.112105,284.200263 184.806316,282.910263 186.412105,281.633684 C188.712632,279.806053 191.130789,278.125263 193.499211,276.382105 C188.846053,275.363684 184.457368,274.981579 180.067895,274.596316 C175.991053,274.239474 172.315263,275.527105 169.23,277.983158 C162.198947,283.581316 154.252895,285.855789 145.346053,285.994737 C136.678421,286.128947 128.025,287.227105 119.358947,287.327368 C110.008421,287.435526 100.620789,287.230263 91.305,286.477895 C85.725,286.027105 80.2697368,284.162368 74.7236842,283.121842 C66.9078947,281.655 57.675,279.232895 49.8284211,277.935789 L89.715,101.184474 L148.592368,101.184474 L204.588158,77.4844737 L258.238421,101.184474 L316.871053,101.184474 L355.297895,273.152368 C345.730263,274.731316 334.949211,276.971053 325.782632,278.434737 C314.976316,280.159737 304.220526,282.468158 293.346316,283.422632 C281.032105,284.503421 268.610526,284.374737 256.234737,284.726053 C255.338684,284.751316 254.242895,284.662895 253.559211,284.177368 C247.408421,279.810789 241.233947,275.466316 235.275,270.845526 C232.889211,268.995 230.550789,267.956842 227.523947,268.100526 C220.631842,268.427368 213.732632,268.610526 206.835789,268.813421 C203.445,268.913684 201.041842,270.498158 199.053158,273.21 C197.515263,275.306842 195.694737,277.274211 193.700526,278.940789 C190.822105,281.346316 187.549737,283.280526 184.673684,285.688421 C181.775526,288.114474 182.256316,291.970263 185.876842,292.947632 C189.013421,293.793947 192.728684,293.946316 195.840789,293.111842 C201.081316,291.705 205.991842,289.188947 209.892632,285.139737 C210.469737,284.540526 211.242632,284.13 211.924737,283.631842 C210.969474,286.342105 212.840526,287.399211 214.146316,288.619737 C220.406053,294.472105 226.803947,300.181579 232.913684,306.184737 C234.868421,308.104737 236.801053,309.022105 239.4,308.662105 C242.509737,308.231842 245.61,307.736053 248.714211,307.267895 C245.836579,310.811842 241.578158,310.427368 237.953684,311.060526 C240.288158,316.414737 242.641579,321.546316 244.746316,326.778158 C245.526316,328.717105 246.544737,329.096053 247.725,327.611842 C249.266842,325.673684 250.388684,323.403947 251.724474,321.297632 C252.158684,320.611579 252.696316,319.991842 253.187368,319.341316 C253.513421,319.525263 253.840263,319.708421 254.166316,319.891579 C253.594737,321.770526 253.023947,323.649474 252.535263,325.254474 C268.889211,328.522895 285.166579,331.775526 301.865526,335.113421 C301.991053,335.137895 302.182105,334.612105 302.386579,334.386316 C302.843684,333.880263 313.572632,322.082368 320.193158,322.082368 C320.250789,322.082368 320.308421,322.083158 320.365263,322.085526 L322.352368,322.147895 L320.864211,323.465526 C317.927368,326.064474 314.595,332.372368 312.375,337.060263 C312.298421,337.222895 313.377632,337.331842 314.261842,337.542632 C318.410526,338.531842 322.614474,339.321316 327.341053,340.277368 C334.082368,335.373158 349.995,324.529737 367.556053,317.756053 L368.825526,317.265789 L368.621053,318.611053 C367.677632,324.796579 362.088947,329.166316 356.152105,334.908158 C353.919474,337.067368 351.611842,340.801579 349.754211,344.038421 C350.410263,343.501579 351.841579,343.815 353.189211,344.097632 C353.199474,343.812632 353.306053,343.533947 353.521579,343.340526 C353.876842,343.018421 362.291842,335.445 366.885,334.376842 L374.272895,332.657368 C374.258684,332.617105 374.244474,332.583158 374.230263,332.541316 L321.299211,95.6581579 L298.914474,95.6581579 L299.965263,95.5657895 C299.965263,95.5657895 302.740263,88.8402632 303.820263,86.2539474 L304.295526,85.7921053 L296.294211,77.8618421 C297.351316,74.2476316 298.381579,70.7289474 299.460789,67.0413158 C299.451316,67.0444737 299.442632,67.0476316 299.433947,67.0507895 L289.442368,59.9755263 C289.721053,59.61 289.926316,59.205 289.965789,58.845 C290.329737,55.5757895 290.434737,52.2781579 290.666053,48.4728947 C290.64,48.4902632 290.615526,48.5076316 290.590263,48.525 L279.478421,42.9592105 C279.48,42.9055263 279.481579,42.8518421 279.478421,42.8013158 C279.293684,40.2142105 278.998421,37.6334211 278.665263,35.0597368 C278.606053,34.6002632 278.305263,34.0578947 277.941316,33.7847368 L278.644737,33.8297368 L278.803421,31.9010526 L265.426579,31.0357895 C265.997368,30.0742105 266.054211,29.0463158 264.823421,27.6994737 C264.329211,27.1594737 264.378947,26.1292105 264.158684,25.3302632 C263.573684,23.2160526 262.977632,21.0994737 262.278947,18.6047368 L262.215789,17.9542105 L249.811579,19.3989474 C249.821053,19.3823684 249.829737,19.3657895 249.839211,19.35 C248.044737,16.1115789 246.310263,12.9805263 244.400526,9.53289474 L244.128158,8.33605263 L231.112895,11.5507895 C230.992105,11.0321053 230.801053,10.5426316 230.546842,10.1628947 C229.097368,7.99736842 227.300526,6.05921053 225.571579,4.09263158 C225.526579,4.04210526 225.460263,4.01052632 225.399474,3.975 L225.422368,3.96315789 L224.632105,2.31473684 L212.883947,8.21368421 C210.137368,5.87763158 207.532895,3.66157895 204.634737,1.19526316 L203.634474,0.15 L194.936842,8.78368421 C194.921842,8.58236842 194.905263,8.37552632 194.890263,8.17421053 C190.939737,6.41447368 187.498421,4.88210526 183.661579,3.17289474 L183.601579,3.11052632 L183.577105,3.13578947 C183.548684,3.12315789 183.521053,3.11052632 183.492632,3.09789474 C183.497368,3.13736842 183.500526,3.16973684 183.504474,3.20763158 L174.467368,12.1776316 C171.011053,10.9871053 167.488421,9.93 163.286053,8.61631579 L163.173158,8.55552632 L163.162105,8.57763158 C163.155789,8.57605263 163.150263,8.57368421 163.144737,8.57210526 C163.147895,8.57921053 163.151053,8.58631579 163.154211,8.59342105 L157.589211,19.4534211 C157.308158,19.1723684 157.008947,18.9655263 156.712895,18.9244737 C153.360789,18.4594737 149.965263,18.3015789 146.088158,17.9968421 L146.029737,17.9747368 L146.023421,17.9921053 L146.021842,17.9921053 C146.021842,17.9928947 146.022632,17.9936842 146.023421,17.9944737 L141.628421,30.0410526 C141.073421,29.7639474 140.414211,29.6857895 139.508684,29.9384211 C137.106316,30.6110526 134.565789,30.7926316 131.544474,31.2718421 C131.551579,31.2821053 131.558684,31.2931579 131.566579,31.3034211 L130.158158,31.1771053 L129.212368,44.4536842 C127.808684,43.9886842 126.319737,44.0763158 124.490526,44.8815789 C122.626579,45.7026316 120.655263,46.2813158 118.412368,47.0834211 C118.420263,47.0889474 118.428158,47.0944737 118.436053,47.0992105 L117.542368,60.3963158 C117.436579,60.4507895 117.345,60.5107895 117.288947,60.5842105 C114.940263,63.6907895 110.85,63.6647368 108.290526,65.7552632 C108.324474,65.7678947 108.36,65.7821053 108.394737,65.7947368 L108.296053,65.8113158 L110.786053,78.7807895 C110.332895,78.9292105 109.911316,79.14 109.597895,79.3973684 C107.351053,81.2423684 105.324474,83.3557895 102.997895,85.5671053 L107.969211,95.6581579 L85.2971053,95.6581579 L37.3863158,307.968158 L37.3863158,307.968158 Z M302.235789,86.4757895 C291.020526,88.2078947 280.507895,89.8318421 270.030789,91.4494737 C269.607632,89.2081579 268.400526,86.8184211 269.131579,85.5189474 C269.819211,84.2968421 272.531053,84.1452632 274.389474,83.6636842 C281.141053,81.915 287.899737,80.2128947 294.283421,78.5944737 L302.235789,86.4757895 L302.235789,86.4757895 Z M297.202895,67.8426316 C288.876316,70.8023684 280.509474,73.6965789 272.230263,76.8268421 C265.927105,79.2102632 265.990263,79.3839474 264.217895,72.9994737 C264.172895,72.8376316 264.262105,72.6386842 264.286579,72.4697368 C272.141053,68.7221053 279.997895,65.0021053 287.808158,61.1905263 L297.202895,67.8426316 L297.202895,67.8426316 Z M278.638421,44.7023684 L288.765789,49.7755263 C286.549737,51.3078947 284.596579,52.6878947 282.566053,53.9321053 C276.165789,57.855 269.621842,61.5505263 263.313947,65.6139474 C261.144474,67.0121053 260.238947,66.4231579 259.106053,64.5963158 C257.076316,61.3239474 257.182895,61.0121053 259.485789,59.3060526 C265.937368,54.5289474 272.291842,49.62 278.638421,44.7023684 L278.638421,44.7023684 Z M263.895,32.8760526 L277.248947,33.7397368 C277.017632,33.8021053 276.787105,33.9071053 276.650526,34.0318421 C274.946053,35.5902632 273.313421,37.2260526 271.639737,38.8184211 C265.342895,44.8057895 259.039737,50.7868421 253.088684,56.4371053 C251.028947,54.5605263 249.223421,52.9160526 247.169211,51.0434211 C252.693158,45.03 258.254211,38.9163158 263.895,32.8760526 L263.895,32.8760526 Z M248.718158,21.3663158 L261.202895,19.9128947 C254.403158,29.4805263 247.954737,38.5531579 241.559211,47.5515789 C241.360263,47.4094737 241.168421,47.2586842 240.967895,47.1189474 C239.362895,45.7413158 237.959211,44.5365789 236.524737,43.3057895 C240.723158,35.7521053 244.781842,28.4494737 248.718158,21.3663158 L248.718158,21.3663158 Z M224.573684,35.6202632 C226.713947,28.3113158 229.038947,21.0560526 231.129474,13.7336842 C231.158684,13.6318421 231.177632,13.5221053 231.196579,13.4123684 L243.805263,10.2986842 C243.547105,10.8813158 243.348947,11.3273684 243.157895,11.7726316 C239.273684,20.8239474 235.397368,29.8784211 231.493421,38.9202632 C231.251053,39.4815789 230.721316,40.4265789 230.447368,40.3855263 C229.449474,40.2347368 228.438947,40.0807895 227.448947,39.8668421 C226.447895,39.4713158 225.432632,39.1026316 224.408684,38.7552632 C224.192368,38.1481579 224.307632,36.5289474 224.573684,35.6202632 L224.573684,35.6202632 Z M210.662368,33.5676316 C211.344474,25.695 212.066842,17.8421053 212.749737,10.3263158 L224.078684,4.63815789 C222.074211,14.6984211 220.077632,24.5857895 218.156842,34.4842105 C217.903421,35.7884211 217.431316,36.4192105 216.842368,36.6955263 C214.862368,36.2786842 212.85,35.9534211 210.808421,35.7181579 C210.513158,35.1481579 210.596842,34.3271053 210.662368,33.5676316 L210.662368,33.5676316 Z M204.563684,1.80394737 C204.562895,11.2602632 204.556579,20.3463158 204.566053,29.4260526 C204.569211,32.7228947 204.430263,34.4439474 203.436316,35.2697368 C203.344737,35.2689474 203.254737,35.2634211 203.163947,35.2634211 C201.165,35.2634211 199.188947,35.3613158 197.235,35.535 C197.163947,35.4939474 197.085,35.4497368 196.991053,35.4015789 C196.365,27.2928947 195.732632,19.0942105 195.121579,11.1757895 L204.563684,1.80394737 L204.563684,1.80394737 Z M183.782368,5.50657895 C185.596579,14.3423684 187.403684,23.1789474 189.251842,32.0068421 C189.797368,34.6105263 190.068158,35.8815789 189.575526,36.6757895 C187.487368,37.1115789 185.437105,37.6468421 183.426316,38.2744737 C183.124737,38.0139474 182.877632,37.5813158 182.674737,36.9007895 C180.386053,29.2405263 177.874737,21.6465789 175.436842,14.0313158 C175.417895,13.9728947 175.400526,13.9089474 175.382368,13.8442105 L183.782368,5.50657895 L183.782368,5.50657895 Z M164.117368,10.7210526 C168.765,20.9865789 173.151316,30.675 177.562105,40.4163158 C175.361842,41.3407895 173.221579,42.3765789 171.15,43.5244737 C166.965789,35.9368421 162.9,28.5236842 158.775,21.1484211 L164.117368,10.7210526 L164.117368,10.7210526 Z M147.295263,19.8410526 C153.607895,29.0060526 159.739737,37.9089474 165.856579,46.7889474 C163.695789,48.2668421 161.632105,49.8734211 159.666316,51.5905263 C159.391579,51.1002632 159.15,50.6415789 158.826316,50.2515789 C153.644211,44.0076316 148.425,37.7944737 143.258684,31.5371053 C143.204211,31.4715789 143.151316,31.4107895 143.097632,31.3468421 L147.295263,19.8410526 L147.295263,19.8410526 Z M131.943158,31.8442105 C132.485526,32.6431579 133.014474,33.4918421 133.713158,34.1660526 C140.043947,40.2734211 146.536579,46.2165789 152.754474,52.4360526 C154.421053,54.1026316 155.421316,54.7673684 155.662895,55.3863158 C154.119474,56.9778947 152.659737,58.6492105 151.281316,60.3892105 C150.715263,60.5036842 150.112105,60.2952632 149.333684,59.6857895 C143.960526,55.4747368 138.127105,51.7776316 133.177895,47.1292105 C132.416842,46.4139474 131.696842,45.8131579 130.981579,45.3402632 L131.943158,31.8442105 L131.943158,31.8442105 Z M120.103421,48.2376316 C124.563158,51.2897368 128.531842,54.0576316 132.579474,56.6976316 C137.377895,59.8263158 142.275,62.8034211 147.312632,65.9621053 C146.448947,67.3192105 145.635,68.7094737 144.87,70.1313158 C144.742895,70.3026316 144.625263,70.4842105 144.487105,70.6460526 C144.011053,71.2042105 142.488947,71.4789474 141.792632,71.1473684 C134.397632,67.6192105 127.087105,63.9134211 119.703947,60.3592105 C119.590263,60.3039474 119.448158,60.2660526 119.296579,60.2360526 L120.103421,48.2376316 L120.103421,48.2376316 Z M110.196316,66.4760526 C112.991842,67.5355263 115.854474,68.6344737 118.745526,69.6655263 C125.445789,72.0552632 132.184737,74.3384211 138.859737,76.7976316 C139.703684,77.1086842 140.944737,78.3623684 140.821579,78.9173684 C140.382632,80.895 139.437632,82.7613158 138.637105,84.6497368 C138.625263,84.6781579 138.010263,84.4223684 137.667632,84.3426316 C129.363158,82.4060526 121.068158,80.4276316 112.738421,78.6078947 C112.668947,78.5921053 112.593158,78.5865789 112.519737,78.5771053 L110.196316,66.4760526 L110.196316,66.4760526 Z M104.742632,85.5363158 C105.965526,85.5007895 107.046316,85.4628947 108.094737,85.5939474 C117.105789,86.7197368 126.112105,87.8889474 135.101842,89.1734211 C135.929211,89.2910526 137.365263,90.6355263 137.262632,90.8747368 L137.894211,90.5952632 C137.617895,92.265 137.388158,93.9489474 137.239737,95.6581579 L109.728947,95.6581579 L104.742632,85.5363158 L104.742632,85.5363158 Z" id="Fill-8" sketch:type="MSShapeGroup"></path>
                <path d="M44.5239474,347.22 C44.3818421,346.122632 43.8181579,342.645 42.2147368,341.026579 C40.4139474,339.210789 34.1557895,335.872895 31.1044737,334.32 C31.4455263,333.903158 31.7068421,333.327632 31.8284211,332.596579 C31.8355263,332.554737 31.8513158,332.486053 31.8718421,332.405526 L37.1739474,308.909211 L37.6089474,309.476842 C51.5755263,327.697105 63.1728947,342.414474 72.6039474,349.894737 C70.245,350.111053 67.9807895,350.971579 65.6036842,350.782895 C65.6036842,350.782895 60.1318421,347.631316 44.5239474,347.22" id="Fill-9" sketch:type="MSShapeGroup"></path>
                <path d="M65.4726316,351.773684 C67.6586842,352.660263 90.0607895,361.742368 102.885,366.941842 C100.573421,361.605789 95.985,359.523158 91.7392105,357.290526 C87.1736842,354.890526 82.1028947,353.425263 77.625,350.894211 C76.8757895,350.470263 76.1471053,350.206579 75.4318421,350.046316 C66.1689474,343.490526 54.5068421,328.890789 40.3215789,310.417895 C48.4752632,312.915 76.6413158,322.836316 94.4597368,345.274737 C94.5876316,345.436579 94.7684211,345.528947 94.9571053,345.557368 C98.9163158,352.747105 103.126579,359.879211 105.964737,368.188421 C122.132368,374.641579 138.637105,381.228947 155.588684,387.995526 C155.037632,387.179211 154.728158,386.186053 154.075263,385.841053 C150.209211,383.801053 146.335263,381.746053 142.327105,380.013158 C137.693684,378.009474 132.548684,376.993421 128.995263,373.012105 C125.753684,369.380526 122.595,365.673158 119.480526,361.931842 C114.860526,356.385 110.103947,350.930526 105.835263,345.121579 C105.270789,344.352632 104.742632,343.767632 104.192368,343.344474 C104.195526,343.138421 104.120526,342.932368 103.963421,342.775263 C100.765263,339.577105 97.6634211,331.095 95.8697368,325.496053 C99.5107895,330.854211 110.452105,339.107368 115.625526,341.563421 C118.058684,343.355526 120.679737,344.975526 121.147895,348.522632 C121.421842,347.823947 121.695,347.126053 122.081842,346.139211 C126.798947,351.137368 134.808158,352.076053 136.853684,359.711053 C136.893947,359.637632 137.013158,359.450526 137.099211,359.249211 C137.167105,359.091316 137.193947,358.915263 137.422105,358.062632 C138.438947,359.869737 139.040526,361.398947 140.04,362.595 C141.251053,364.044474 143.097632,365.011579 144.140526,366.546316 C146.313158,369.746842 148.202368,373.149474 150.037895,376.56 C150.317368,377.077895 149.687368,378.085263 149.399211,379.158158 C149.831053,379.450263 150.611053,379.941316 151.350789,380.485263 C153.309474,381.923684 155.422895,383.287105 155.688947,386.013158 C155.958947,388.775526 158.141842,389.221579 160.161316,389.988947 C166.224474,392.293421 172.334211,394.494474 178.300263,397.031053 C185.790789,400.215789 193.183421,403.638947 200.561053,407.080263 C202.491316,407.980263 202.796842,407.455263 203.621053,405.595263 C205.826053,400.619211 208.381579,395.767895 211.168421,391.087105 C216.122368,382.767632 222.755526,375.892105 230.776579,370.513421 C235.946053,367.046842 241.490526,364.138421 246.852632,360.956053 C248.788421,359.808158 250.645263,358.521316 252.608684,357.422368 C255.326053,355.901053 258.110526,354.496579 260.865789,353.042368 C261.015789,353.194737 261.165789,353.347105 261.315789,353.499474 C259.798421,355.8 258.351316,358.150263 256.751053,360.390789 C252.369474,366.525 248.438684,373.088684 243.355263,378.580263 C238.488158,383.838947 232.676053,388.365789 226.766842,392.476579 C220.563158,396.792632 213.741316,400.215 207.213947,404.070789 C206.116579,404.718947 205.146316,405.581842 204.116842,406.345263 C204.221842,406.561579 204.326053,406.778684 204.431053,406.995 C206.461579,406.301842 208.504737,405.644211 210.520263,404.909211 C218.553158,401.977895 226.585263,399.045789 234.601579,396.067105 C239.354211,394.301053 244.083947,392.471053 248.797895,390.603947 C249.33,390.393158 249.895263,389.837368 250.104474,389.307632 C252.398684,383.505789 255.670263,378.361579 259.444737,373.368158 C262.462105,369.375 266.206579,366.369474 269.838947,363.131842 C271.235526,361.886053 272.722105,360.685263 273.873947,359.231842 C278.010789,354.011053 283.624737,350.755263 289.155,347.349474 C292.662632,345.188684 296.233421,343.084737 299.497895,340.591579 C300.958421,339.476053 301.825263,337.575 303.137368,335.673158 C303.292895,335.639211 313.065,325.815789 318.056842,324.075789 C313.818158,328.959474 308.520789,341.794737 308.389737,342.142105 C308.37,342.194211 308.372368,342.247105 308.364474,342.299211 C304.732105,347.944737 301.031842,353.554737 297.026053,358.931053 C292.050789,365.607632 286.585263,371.919474 281.031316,378.763421 C289.283684,375.637895 297.33,372.677368 305.281579,369.481579 C306.433421,369.018158 307.758947,367.524474 307.942105,366.343421 C309.270789,357.764211 314.784474,352.261579 321.215526,347.273684 C322.489737,346.286053 323.692895,345.206842 324.916579,344.068421 C325.207895,343.837895 344.469474,328.675263 366.747632,319.77 C365.222368,324.975 360.330789,328.670526 355.055526,333.772895 C351.42,337.288421 347.602895,344.792368 345.685263,348.017368 C343.125,350.677895 340.670526,353.456053 338.147368,356.156842 C344.909211,354.451579 351.303947,352.344474 354.446053,345.09 C354.531316,345.052105 354.615,345.006316 354.69,344.938421 C354.774474,344.862632 363.109737,337.359474 367.264737,336.392368 L375.778421,334.410789 C376.696579,334.568684 378.105,334.037368 380.558684,333.077368 C385.121842,331.291579 389.609211,329.311579 394.245789,327.369474 C391.415526,332.350263 388.02,337.089474 383.863421,341.250789 C376.809474,348.313421 368.185263,352.421053 358.542632,354.709737 C353.808158,355.833158 349.181053,357.411316 344.506579,358.785789 C344.058947,358.917632 343.616053,359.063684 343.439211,359.672368 C348.435,361.286842 353.006842,360.247895 357.555789,359.230263 C362.084211,358.217368 371.279211,356.479737 371.370789,356.725263 C370.859211,357.091579 370.347632,357.457895 369.835263,357.823421 C378.994737,355.845 387.822632,356.402368 396.438947,360.637895 C392.041579,362.151316 387.719211,363.369474 383.621053,365.112632 C377.693684,367.633421 371.979474,370.649211 366.083684,373.248158 C355.491316,377.917895 344.523947,378.805263 333.279474,376.023158 C328.646842,374.876842 323.730789,374.306842 319.492895,372.309474 C315.692368,370.518158 312.877895,371.644737 309.630789,372.907105 C302.486842,375.682105 295.301053,378.348158 287.758421,381.199737 C288.301579,381.701842 288.737368,382.460526 289.248947,382.516579 C291.671053,382.778684 294.167368,383.236579 296.538158,382.908947 C301.955526,382.158947 307.258421,382.824474 312.566053,383.594211 C314.790789,383.916316 316.958684,384.637105 319.151842,385.176316 C319.241842,385.198421 319.361053,385.267895 319.418684,385.233947 C323.760789,382.695789 328.191316,385.38 332.610789,385.092632 C337.897895,384.747632 343.256053,385.501579 348.810789,386.290263 C343.753421,387.747632 338.750526,389.445 333.622895,390.586579 C329.352632,391.537895 324.939474,391.863158 320.583158,392.415 C318.157895,392.722895 315.675,392.718947 313.296316,393.224211 C309.315789,394.068158 305.370789,395.115789 301.458947,396.242368 C294.399474,398.276053 287.483684,400.976842 280.309737,402.404211 C270.480789,404.359737 261.581053,400.842632 253.179474,395.935263 C252.622895,395.61 251.752105,395.418158 251.171053,395.606842 C246.622105,397.081579 242.062895,398.553158 237.617368,400.305 C236.662105,400.681579 236.154474,402.193421 235.433684,403.193684 C237.263684,403.193684 239.632895,403.293947 241.991842,403.175526 C250.566316,402.744474 258.473684,405.922105 266.653421,407.629737 C273.067105,408.968684 279.472105,410.355 285.909474,411.572368 C287.532632,411.879474 289.263947,411.618158 290.945526,411.618158 C291.000789,411.877105 291.056842,412.135263 291.112895,412.394211 C282.916579,414.540789 274.817368,417.262895 266.494737,418.665789 C258.869211,419.951053 251.043947,419.831842 243.292105,418.2 C238.662632,417.225 233.801053,417.394737 229.134474,416.546842 C223.440789,415.512632 217.562368,414.607895 212.312368,412.363421 C209.332105,411.089211 207.669474,411.902368 205.347632,412.8 C204.301579,413.204211 202.651579,413.369211 201.829737,412.817368 C195.476842,408.552632 188.773421,410.628947 182.253947,411.734211 C173.600526,413.200263 165.064737,415.347632 156.429474,416.938421 C148.599474,418.381579 140.879211,417.584211 133.475526,414.591316 C125.033684,411.179211 116.646316,407.632895 108.235263,404.145 C108.294474,403.867105 108.353684,403.589211 108.413684,403.311316 C116.182105,403.013684 123.963158,402.889737 131.716579,402.364737 C138.45,401.908421 145.138421,400.774737 151.872632,400.358684 C157.406842,400.016842 162.978947,400.288421 168.534474,400.288421 C168.880263,399.680526 169.225263,399.071842 169.571053,398.463158 C168.815526,398.200263 168.065526,397.920789 167.303684,397.678421 C163.523684,396.477632 159.616579,395.576842 155.986579,394.024737 C150.428684,391.647632 145.059474,393.206053 139.59,394.032632 C135.526579,394.646842 131.435526,395.089737 127.353947,395.58 C124.008158,395.982632 120.642632,396.752368 117.311053,396.633158 C111.341842,396.42 105.367895,395.853947 99.4389474,395.092895 C85.1636842,393.260526 72.8984211,386.471053 60.9757895,378.723158 C62.1386842,378.99 63.2976316,379.271842 64.4644737,379.518947 C65.6557895,379.770789 66.8486842,380.098421 68.0534211,380.170263 C68.6060526,380.204211 69.1792105,379.677632 69.7618421,379.454211 C70.7936842,379.057895 71.8239474,378.431842 72.8834211,378.366316 C81.8186842,377.815263 90.7563158,377.251579 99.7026316,376.95 C103.327105,376.827632 106.972895,377.347105 110.609211,377.574474 C110.778947,377.298158 110.948684,377.021842 111.117632,376.745526 C110.200263,375.964737 109.403684,374.885526 108.343421,374.455263 C104.272105,372.802895 100.207895,370.956316 95.9573684,369.982105 C93.2747368,369.366316 90.1578947,369.734211 87.4223684,370.414737 C76.7660526,373.065 66.2771053,372.581053 55.7281579,369.81 C47.0352632,367.526053 39.5005263,362.816842 31.5915789,358.878158 C26.3257895,356.256316 21.0955263,353.562632 15.8502632,350.900526 C15.8857895,350.616316 15.9221053,350.332895 15.9576316,350.048684 C18.0678947,350.246842 20.1781579,350.445789 22.2884211,350.643947 C22.3113158,350.519211 22.3342105,350.393684 22.3563158,350.268158 C21.8060526,350.116579 21.2565789,349.964211 20.7063158,349.812632 C28.7826316,347.827105 39.8486842,349.645263 45.2423684,349.033421 C50.6360526,348.420789 63.2857895,350.887105 65.4726316,351.773684" id="Fill-10" sketch:type="MSShapeGroup"></path>
                <path d="M40.8173684,347.784474 C41.4639474,347.761579 42.0939474,347.228684 42.9584211,346.699737 C42.8171053,345.446053 42.3907895,343.447895 41.0928947,342.138947 C39.3268421,340.357105 31.5694737,336.026053 28.8410526,334.956316 L28.8710526,334.878158 C28.7976316,334.846579 28.7242105,334.828421 28.6507895,334.786579 C26.1165789,333.353684 23.8673684,331.335789 21.2265789,330.188684 C14.7386842,327.369474 0.908684211,323.135526 0.605526316,323.553158 C3.54157895,326.932105 6.05526316,330.849474 9.51552632,333.559737 C14.31,337.316842 19.6973684,340.380789 25.0515789,343.341316 C29.8997368,346.021579 35.1086842,347.986579 40.8173684,347.784474" id="Fill-11" sketch:type="MSShapeGroup"></path>
            </g>
        </g>
    </g>
</svg>