<?xml version="1.0" encoding="UTF-8" standalone="no"?>
<svg width="399px" height="480px" viewBox="0 0 399 480" version="1.1" xmlns="http://www.w3.org/2000/svg" xmlns:xlink="http://www.w3.org/1999/xlink" xmlns:sketch="http://www.bohemiancoding.com/sketch/ns">
    <!-- Generator: Sketch 3.3 (11970) - http://www.bohemiancoding.com/sketch -->
    <title>rio-negro</title>
    <desc>Created with Sketch.</desc>
    <defs></defs>
    <g id="Page-1" stroke="none" stroke-width="1" fill="none" fill-rule="evenodd" sketch:type="MSPage">
        <g id="rio-negro" sketch:type="MSArtboardGroup" fill="#4DB9DF">
            <g id="Imported-Layers" sketch:type="MSLayerGroup" transform="translate(3.160243, 19.500000)">
                <path d="M136.322692,247.37102 C139.866692,251.167521 143.410692,254.964921 147.691527,259.551274 C147.669961,252.607047 142.305438,246.610822 136.322692,247.37102" id="Fill-1" sketch:type="MSShapeGroup"></path>
                <path d="M132.783185,225.191367 C132.241341,225.374677 131.700396,225.557988 131.158552,225.7404 C132.407578,229.239471 133.656604,232.737643 134.905631,236.235815 C135.40614,236.072274 135.905751,235.907834 136.40626,235.744292 C135.198568,232.226351 133.990876,228.709308 132.783185,225.191367" id="Fill-2" sketch:type="MSShapeGroup"></path>
                <path d="M130.486414,207.328493 C132.538771,215.670911 133.549673,223.139909 139.467722,228.935751 C141.435613,223.037471 137.430641,212.94372 130.486414,207.328493" id="Fill-3" sketch:type="MSShapeGroup"></path>
                <path d="M269.222692,208.308844 C264.45842,215.299797 258.841396,221.894477 258.339089,232.072694 C270.553489,227.336278 267.707686,216.809412 269.222692,208.308844" id="Fill-4" sketch:type="MSShapeGroup"></path>
                <path d="M160.016452,251.736323 C158.354978,242.841278 153.010223,237.583686 145.874598,233.680254 C147.948521,241.533844 153.511631,246.6243 160.016452,251.736323" id="Fill-5" sketch:type="MSShapeGroup"></path>
                <path d="M121.507801,220.338136 C119.664813,225.62628 121.294838,229.034594 126.254101,231.644071 C124.517146,227.50611 123.012024,223.921673 121.507801,220.338136" id="Fill-6" sketch:type="MSShapeGroup"></path>
                <path d="M129.263446,165.326162 C120.110509,170.544217 115.546621,178.179452 121.922945,184.538704 C124.912521,178.087797 127.7107,172.052034 130.509777,166.015373 C130.093734,165.785337 129.67859,165.5553 129.263446,165.326162" id="Fill-7" sketch:type="MSShapeGroup"></path>
                <path d="M114.899643,202.392592 C119.434777,194.295487 119.785223,186.229832 116.118118,178.190235 C115.711959,178.235164 115.305801,178.280093 114.899643,178.325022 L114.899643,202.392592" id="Fill-8" sketch:type="MSShapeGroup"></path>
                <path d="M125.313288,235.142243 C122.710101,232.075389 120.182396,229.096596 117.173051,225.549002 C117.375231,234.66959 120.259673,238.106659 125.313288,235.142243" id="Fill-9" sketch:type="MSShapeGroup"></path>
                <path d="M151.249006,244.660903 C147.142495,241.357722 143.018911,238.04286 138.896225,234.727099 C138.414586,235.161114 137.932947,235.595128 137.451308,236.029142 C139.488389,239.300872 141.210069,242.832292 143.63983,245.779635 C146.763294,249.569846 147.794864,249.29488 151.249006,244.660903" id="Fill-10" sketch:type="MSShapeGroup"></path>
                <path d="M251.709365,233.748546 C241.331663,239.200231 239.11217,244.416489 239.977503,249.293083 C247.435718,246.494905 252.275471,240.240787 251.709365,233.748546" id="Fill-11" sketch:type="MSShapeGroup"></path>
                <path d="M258.698521,235.685884 C255.176986,239.233479 251.65545,242.781073 248.133915,246.328667 C248.385517,246.685404 248.63712,247.04214 248.889621,247.397978 C255.309077,247.019675 259.638436,242.651677 258.698521,235.685884" id="Fill-12" sketch:type="MSShapeGroup"></path>
                <path d="M261.715953,248.000925 C256.76927,250.758667 252.394982,253.196515 248.026984,255.631667 C252.330284,259.668988 259.838819,255.894951 261.715953,248.000925" id="Fill-13" sketch:type="MSShapeGroup"></path>
                <path d="M247.215566,262.715174 C247.752018,262.453688 247.908371,260.968335 247.810426,260.097611 C247.77628,259.799282 246.192982,259.229582 245.720329,259.49646 C242.267984,261.447278 238.918077,263.580507 235.535822,265.656227 C235.797308,266.273552 236.058795,266.890876 236.321181,267.508201 C239.967619,265.940178 243.654493,264.456623 247.215566,262.715174" id="Fill-14" sketch:type="MSShapeGroup"></path>
                <path d="M162.784978,261.813899 C160.924917,254.855294 157.713391,249.828637 149.89844,247.764598 C152.046945,254.71871 155.716746,259.312252 162.784978,261.813899" id="Fill-15" sketch:type="MSShapeGroup"></path>
                <path d="M245.923408,247.942517 C242.132298,252.24402 238.945933,255.859008 235.4226,259.855892 C234.576138,256.402649 240.912026,252.353647 234.588718,249.552773 C233.472682,252.036448 232.356645,254.519225 231.26487,256.947189 C232.499519,257.432422 233.307343,257.750519 234.836726,258.351669 C232.056519,260.695166 229.793895,262.602852 227.53127,264.510538 C242.457584,260.246775 247.75741,255.587637 245.923408,247.942517" id="Fill-16" sketch:type="MSShapeGroup"></path>
                <path d="M156.981947,266.622201 C158.44843,267.536955 160.849436,266.955574 162.826312,267.052621 C162.989854,266.467645 163.153396,265.882669 163.316937,265.297694 C159.200542,262.700797 155.085045,260.103002 150.529243,257.228444 C150.374688,262.442905 153.826134,264.652513 156.981947,266.622201" id="Fill-17" sketch:type="MSShapeGroup"></path>
                <path d="M173.589505,261.40145 C171.438304,254.811264 168.874655,248.981276 162.737353,245.733807 C157.82212,250.555588 165.616404,257.70559 173.589505,261.40145" id="Fill-18" sketch:type="MSShapeGroup"></path>
                <path d="M174.432373,272.234732 C173.000037,269.786101 171.603643,267.399473 170.658337,265.783826 C168.534093,265.481004 167.12512,265.280621 165.495994,265.047888 C166.420633,269.867872 169.819063,272.644485 174.432373,272.234732" id="Fill-19" sketch:type="MSShapeGroup"></path>
                <path d="M117.700517,205.977927 C118.544284,209.954144 118.351089,213.703919 120.075465,216.031241 C122.430643,219.209519 126.246913,221.30411 129.515049,223.926166 C130.517864,216.579375 126.100444,209.440156 117.700517,205.977927" id="Fill-20" sketch:type="MSShapeGroup"></path>
                <path d="M218.010813,282.260191 C218.195022,281.853134 218.330708,281.422714 218.536483,281.028237 C221.303211,275.713136 220.56368,273.855771 214.793897,273.952817 C202.808635,274.154099 190.833258,274.882848 178.853387,275.395039 C178.662888,276.031233 178.472389,276.667428 178.28189,277.303623 C179.106787,278.650594 179.796897,280.107193 180.779943,281.326566 C186.120205,287.946406 191.718359,293.004513 201.605436,292.096049 C212.697509,291.077059 213.323819,292.583079 218.010813,282.260191" id="Fill-21" sketch:type="MSShapeGroup"></path>
                <path d="M212.389296,293.336089 C205.942882,293.336089 199.49557,293.283073 193.051852,293.416961 C192.403976,293.43044 191.779462,294.572535 191.143268,295.190759 C191.828884,295.747878 192.5154,296.787535 193.199219,296.785738 C198.515219,296.773158 203.837509,296.659937 209.141828,296.331955 C210.384564,296.254677 211.568892,295.237485 212.781077,294.653408 C212.649884,294.214002 212.51959,293.774596 212.389296,293.336089" id="Fill-22" sketch:type="MSShapeGroup"></path>
                <path d="M231.468848,265.436075 C228.093781,267.632205 225.735907,269.167878 223.263014,270.778134 C220.641856,266.653651 227.161055,266.174708 227.324596,262.527371 C225.096118,263.817732 223.183939,264.924783 221.271761,266.031834 C220.896154,265.746085 220.519649,265.461235 220.143144,265.175487 C220.985114,262.714276 221.827083,260.253963 222.769694,257.49712 C219.903223,259.17387 217.491434,260.584641 215.079645,261.995412 C214.859493,261.677314 214.639341,261.359217 214.419189,261.04112 C215.257564,259.430864 216.096838,257.820609 217.362937,255.389949 C214.88016,257.146673 213.221381,258.320219 211.562602,259.493765 C211.294826,259.291584 211.027049,259.089404 210.759272,258.887223 C211.231925,257.552832 211.70368,256.21844 212.176333,254.884049 C211.803422,254.551574 211.430511,254.218201 211.058499,253.885726 C209.821154,255.544505 208.584708,257.203284 206.845955,259.536897 C207.204489,256.543726 207.45699,254.437454 207.822712,251.392166 C205.655337,254.530008 204.06485,256.83217 201.955882,259.886444 C201.706976,257.050525 201.554217,255.305483 201.296325,252.367126 C200.193767,254.846308 199.627661,256.117799 198.915986,257.717272 C197.411763,256.3074 196.229231,255.198552 194.898434,253.952221 C194.352996,255.938083 193.931562,257.476452 193.341195,259.625856 C192.179331,257.147572 191.294229,255.261452 190.086538,252.687919 C189.682176,255.752077 189.386544,257.999426 188.979487,261.086947 C187.344071,258.133314 186.192091,256.051304 185.040112,253.970193 C184.87657,254.042079 184.71213,254.114864 184.548588,254.187649 C185.144347,257.003799 185.740105,259.819949 186.414939,263.009909 C184.312262,261.445481 182.767602,260.2944 181.220247,259.143318 C181.894183,261.036627 182.579799,262.96498 183.690444,266.086647 C180.529239,263.988462 178.498448,262.640592 176.254694,261.152544 C177.267394,263.883329 178.19383,266.38228 179.120266,268.88213 C178.741065,269.016917 178.361864,269.152602 177.982663,269.287389 C176.751609,267.722961 175.520554,266.159432 174.2886,264.595004 C174.679483,271.053099 177.577404,273.028178 183.23127,272.877217 C194.726805,272.570801 206.239414,272.497118 217.735848,272.752314 C224.470706,272.902377 227.599562,271.807008 231.468848,265.436075" id="Fill-23" sketch:type="MSShapeGroup"></path>
                <path d="M65.8820974,152.812535 C79.4479615,152.850276 93.019217,152.632819 106.576994,152.95541 C111.494923,153.073124 111.906473,148.812955 114.501572,146.690509 C119.336832,142.737655 119.646842,137.188923 121.114223,131.571899 L44.434787,131.571899 C45.1662312,134.573156 45.7341339,136.984047 46.3433712,139.384154 C47.5663387,144.206834 48.8117708,149.024122 50.0383327,153.85399 C50.0392312,153.862077 50.0401298,153.869266 50.0410284,153.877353 C50.6098296,153.395714 51.1768337,152.65169 51.7492292,152.647197 C56.4595862,152.611254 61.1708418,152.799057 65.8820974,152.812535" id="Fill-24" sketch:type="MSShapeGroup"></path>
                <path d="M124.936783,221.312197 C126.864237,228.89172 128.225586,236.794732 135.819487,241.089047 C132.191919,234.497063 128.564351,227.904181 124.936783,221.312197" id="Fill-25" sketch:type="MSShapeGroup"></path>
                <path d="M211.574284,297.773278 C205.709252,298.143493 199.84332,298.513708 193.978288,298.883923 C193.980984,299.061842 193.984578,299.240659 193.987274,299.418578 L211.560805,299.418578 C211.565298,298.870444 211.569791,298.32231 211.574284,297.773278" id="Fill-26" sketch:type="MSShapeGroup"></path>
                <path d="M205.999493,360.921895 C208.050053,342.403955 210.099714,323.886915 212.150274,305.368976 C211.41883,305.016732 210.687385,304.66359 209.95684,304.311347 C208.705118,305.641245 206.715661,306.795022 206.347243,308.336087 C205.464838,312.035542 205.002968,315.915611 204.9823,319.72559 C204.931081,329.217292 205.240193,338.710791 205.363298,348.203391 C205.418112,352.428515 205.372284,356.654538 205.372284,360.88056 C205.581653,360.894039 205.791022,360.907517 205.999493,360.921895" id="Fill-27" sketch:type="MSShapeGroup"></path>
                <path d="M110.12369,202.542655 C109.563874,196.894181 109.038205,191.588065 108.512535,186.281051 C108.056955,186.330473 107.601375,186.379895 107.144897,186.429316 C104.416807,194.060957 105.373795,200.931501 110.12369,202.542655" id="Fill-28" sketch:type="MSShapeGroup"></path>
                <path d="M111.768091,196.718957 C112.250629,196.718059 112.734065,196.71716 113.216602,196.716262 L113.216602,184.925093 C112.822126,184.925992 112.426751,184.92689 112.032274,184.927789 C111.697103,188.859077 109.267343,192.795757 111.768091,196.718957" id="Fill-29" sketch:type="MSShapeGroup"></path>
                <path d="M128.924682,156.03754 C133.503846,152.305736 137.539369,148.097686 138.18455,141.556921 C133.309753,145.236606 125.812899,147.19641 128.924682,156.03754" id="Fill-30" sketch:type="MSShapeGroup"></path>
                <path d="M124.270935,151.352343 C130.922225,144.793606 137.308434,138.231276 138.796483,128.218398 C130.283335,131.591667 121.318201,145.856627 124.270935,151.352343" id="Fill-31" sketch:type="MSShapeGroup"></path>
                <path d="M115.21774,175.794621 C119.017836,168.173763 126.063602,162.176639 126.634201,152.135905 C118.418483,158.475387 114.490789,166.012677 115.21774,175.794621" id="Fill-32" sketch:type="MSShapeGroup"></path>
                <path d="M148.665588,124.64744 C143.181554,126.631505 142.030473,124.707645 137.381219,139.819966 C143.052158,135.283034 147.281775,131.239424 148.665588,124.64744" id="Fill-33" sketch:type="MSShapeGroup"></path>
                <path d="M110.213548,184.261941 C112.722383,178.194728 112.721485,166.386487 109.966438,163.958523 C104.145436,177.347367 104.224511,181.244509 110.213548,184.261941" id="Fill-34" sketch:type="MSShapeGroup"></path>
                <path d="M106.662359,213.666178 C107.50343,215.856917 108.465809,218.000929 109.346418,220.17729 C111.656667,225.883274 112.573219,226.118702 118.165083,221.255586 C114.460237,217.493231 110.808408,213.78569 107.156578,210.077249 C106.811523,210.426797 106.466469,210.776345 106.121414,211.125892 C106.29484,211.975051 106.355943,212.867341 106.662359,213.666178" id="Fill-35" sketch:type="MSShapeGroup"></path>
                <path d="M113.30646,212.787367 C113.811462,212.746931 114.317363,212.706495 114.821467,212.66516 C114.409018,208.726684 113.99657,204.787308 113.584122,200.848832 C113.093497,200.896456 112.602872,200.944081 112.112247,200.992604 C109.663617,205.141349 112.352168,208.898312 113.30646,212.787367" id="Fill-36" sketch:type="MSShapeGroup"></path>
                <path d="M128.911203,210.309083 C128.522118,202.325199 128.162686,194.960436 127.803254,187.595673 C123.053359,191.689604 124.024724,202.717878 128.911203,210.309083" id="Fill-37" sketch:type="MSShapeGroup"></path>
                <path d="M126.283755,238.989963 C127.260511,243.63113 130.018254,246.303507 134.654028,247.439312 C134.113982,242.861047 130.357917,239.114866 126.283755,238.989963" id="Fill-38" sketch:type="MSShapeGroup"></path>
                <path d="M140.906349,115.906951 C148.883045,113.660501 153.458615,108.090203 158.71441,101.313112 C147.524391,103.784207 140.803911,109.43987 140.906349,115.906951" id="Fill-39" sketch:type="MSShapeGroup"></path>
                <path d="M136.378404,126.365525 C142.542663,125.645763 148.149803,121.725258 150.554404,116.191801 C142.576809,115.455864 138.543982,118.433759 136.378404,126.365525" id="Fill-40" sketch:type="MSShapeGroup"></path>
                <path d="M122.032572,135.41243 C130.272552,133.14711 137.987761,122.654389 136.674037,115.355223 C130.72274,121.440408 124.472217,126.667448 122.032572,135.41243" id="Fill-41" sketch:type="MSShapeGroup"></path>
                <path d="M100.919533,177.18742 C102.062527,177.2 103.989083,176.501803 104.242483,175.713748 C106.400872,169.000456 108.257339,162.189219 110.354625,154.87927 C106.511398,154.637552 103.272915,154.280815 100.030838,154.254757 C83.3729594,154.119071 66.713284,154.067852 50.0545071,153.987878 C50.9090568,160.85932 51.6773428,167.744241 52.7466531,174.581538 C52.8652657,175.338142 54.7235294,176.32658 55.7964341,176.354436 C70.835071,176.741724 85.8773022,177.013994 100.919533,177.18742" id="Fill-42" sketch:type="MSShapeGroup"></path>
                <path d="M113.795288,162.46059 C120.97674,157.123024 118.868671,147.610655 123.400211,141.026759 C113.612876,146.762396 108.977101,157.317118 113.795288,162.46059" id="Fill-43" sketch:type="MSShapeGroup"></path>
                <path d="M275.725716,182.627424 C275.182075,181.904067 274.661797,181.488024 274.50814,180.965051 C272.744227,174.939172 269.689953,168.887235 269.731288,162.860458 C269.764535,157.920065 270.061067,154.223306 265.548398,151.372112 C264.382939,150.636174 263.505925,149.220012 262.852657,147.935043 C260.810185,143.916592 259.156797,139.687874 256.936406,135.776355 C254.692651,131.822602 251.957373,128.14741 249.426972,124.357199 C248.794371,123.410994 248.299254,121.909467 247.440211,121.64798 C236.554811,118.330422 232.111333,107.978779 225.749385,100.352529 C220.763164,94.3742759 216.420327,91.2193611 209.012432,91.9508053 C208.125533,92.0388661 207.218866,91.8932961 206.324779,91.9292394 C193.211799,92.4549087 179.854406,92.2455396 171.191195,104.942477 C170.165915,106.445801 167.361446,107.135911 166.984043,108.612278 C165.060183,116.141481 158.794383,118.951341 153.438846,123.323832 C148.304359,127.515708 144.142136,133.868669 141.692606,140.111105 C139.168495,146.541345 135.761079,151.862736 131.237627,156.805826 C129.159211,159.076538 127.433039,161.66984 125.547817,164.117572 C125.813797,164.30268 126.080675,164.486888 126.346655,164.671996 C127.792471,163.58741 129.239185,162.502824 130.685,161.418237 C131.174726,161.653665 131.664452,161.889992 132.15328,162.126318 C131.087564,166.319093 130.336351,170.626886 128.868071,174.67499 C127.357558,178.838112 123.775817,181.887892 128.113264,187.2623 C130.720045,190.491797 129.800797,196.563503 130.480124,201.356529 C130.651753,202.572308 130.433398,204.312858 131.148667,204.910414 C138.191738,210.797012 141.256795,218.583209 142.599274,227.359641 C142.784381,228.567333 143.818647,230.156921 144.880769,230.634067 C151.507797,233.609266 156.344854,238.390611 159.857404,244.752558 C164.057367,242.58698 165.922819,246.00428 168.439742,248.095276 C172.588487,251.542229 172.566921,258.608663 179.222704,260.225209 C178.232469,257.481844 177.313221,254.938862 176.394872,252.396779 C176.733637,252.21886 177.071503,252.040941 177.410268,251.863022 C179.018726,253.271996 180.626286,254.680071 183.051554,256.805213 C182.520493,253.532584 182.152075,251.262771 181.784556,248.992059 C182.094566,248.841996 182.404576,248.691034 182.714586,248.540073 C184.291594,250.30129 185.869501,252.061609 187.743041,254.152604 C187.927249,251.706669 188.076414,249.733387 188.303755,246.71326 C190.036217,248.77011 191.154949,250.098211 192.908079,252.180221 L192.908079,245.342925 C193.342992,245.218022 193.778803,245.09312 194.213716,244.968217 C195.395349,247.914661 196.576083,250.861105 198.250138,255.036807 C199.789406,250.856613 200.912631,247.805933 202.035856,244.754355 C202.41326,244.85859 202.789765,244.961927 203.16627,245.066162 C203.371146,247.705292 203.575124,250.344422 203.850988,253.909988 C205.956361,250.532225 207.516296,248.030578 209.075333,245.528032 C209.369168,245.659225 209.663004,245.790418 209.95684,245.921611 L209.95684,252.621424 C211.974152,250.897947 213.648207,249.467408 215.322262,248.037767 C215.607112,248.311834 215.89286,248.585901 216.17771,248.860866 C215.944978,250.241984 215.711347,251.623101 215.457947,253.127325 C217.39888,251.954677 219.134039,250.906034 220.870095,249.857391 C221.144162,250.14314 221.418229,250.428888 221.692296,250.714637 C220.782034,252.740037 219.871773,254.766335 218.7153,257.339868 C221.98074,255.635262 224.625262,254.254144 227.269783,252.873925 C227.418947,253.13002 227.568112,253.385217 227.717276,253.640414 C226.287635,256.310095 224.857994,258.978878 223.063529,262.329684 C229.137032,260.262051 229.071436,260.244978 230.320462,255.558882 C230.803,253.748243 231.25858,251.694089 232.41685,250.342625 C236.945694,245.061669 241.727937,239.997272 246.461657,234.893337 C248.893215,232.27128 251.845051,231.520966 255.418704,232.628016 C255.317164,233.988467 255.229103,235.166505 255.141043,236.345442 C255.556187,236.394864 255.971331,236.444286 256.387373,236.493708 C256.594047,235.111692 256.853736,233.735067 256.994813,232.346761 C257.233836,230.007757 256.704572,227.29045 257.720866,225.383663 C261.148949,218.953424 265.145834,212.827803 268.832708,206.531452 C269.244258,205.828763 269.17956,204.775627 269.141819,203.893221 C268.808446,196.183404 267.735542,188.272304 275.725716,182.627424 L275.725716,182.627424 Z M171.308909,249.654312 C166.680323,244.246657 161.875615,238.632329 157.070907,233.018 C157.476166,232.62532 157.880527,232.232641 158.284888,231.839961 C162.696018,235.398339 167.108047,238.955817 171.519176,242.513296 C171.662949,242.418945 171.806722,242.324594 171.950495,242.229345 C169.385947,238.027584 166.820501,233.824925 163.736574,228.772209 C171.511988,228.531389 171.303517,235.50527 175.116193,237.792156 C174.146625,233.996554 173.192333,230.25846 172.238041,226.520367 C172.812233,226.307404 173.387325,226.095339 173.961517,225.883274 C175.059582,227.763103 176.156748,229.642034 177.705002,232.293744 L177.705002,223.635026 C183.304055,228.073114 180.799712,234.832233 184.154112,239.602795 C185.228813,233.63802 181.186101,227.964385 183.410986,222.435422 C184.017527,222.384203 184.624069,222.332984 185.230611,222.281765 C186.06629,225.891361 186.90197,229.500059 188.013513,234.302071 C188.771915,229.3473 189.35689,225.531929 189.940968,221.715659 C190.726327,221.760588 191.510787,221.805517 192.296146,221.850446 C192.480355,225.492391 192.665462,229.134337 192.849671,232.776282 C192.973675,232.788862 193.096781,232.801442 193.219886,232.814022 C193.75544,228.861168 194.290095,224.909213 194.825649,220.956359 C195.458249,220.941982 196.09085,220.928503 196.724349,220.915024 C197.088274,225.526538 197.452199,230.138949 197.817022,234.751361 C198.007521,234.843915 198.19802,234.936469 198.389418,235.029022 C199.595312,230.111093 200.802105,225.194063 202.226355,219.390134 C207.439018,224.781615 202.219166,230.173095 204.142128,235.722726 C205.84943,230.562181 207.332087,226.078266 208.814744,221.595249 C212.177231,226.874408 208.565838,231.835469 208.845296,237.899087 C211.904063,232.653176 214.558469,228.10097 217.212874,223.548763 C217.711586,223.747349 218.211197,223.946834 218.709909,224.14542 C216.7537,229.601598 214.796592,235.057777 212.636406,241.082757 C197.152073,234.082817 184.473108,240.587639 171.308909,249.654312 L171.308909,249.654312 Z M211.93731,242.802639 C216.596448,237.005 220.672408,231.933414 224.748367,226.860929 C225.286617,227.189809 225.824866,227.517791 226.363116,227.846671 C224.427574,231.346641 222.514497,234.858292 220.543911,238.337594 C219.89244,239.487777 218.80426,240.461838 218.41787,241.675819 C217.402475,244.86488 215.54511,244.211613 211.93731,242.802639 L211.93731,242.802639 Z M224.456329,251.684205 C223.249535,250.009252 222.353651,248.766515 221.457767,247.523779 C220.4244,246.863323 219.391931,246.202866 218.173456,245.423797 C222.188312,240.352211 225.221919,235.139548 232.170639,232.054722 C229.996075,236.190886 228.395704,239.237073 226.795333,242.28326 C225.016144,244.030099 223.236955,245.776939 221.457767,247.523779 C223.236955,245.776939 225.016144,244.030099 226.795333,242.28326 C228.614957,240.646945 230.345623,238.893815 232.28386,237.413854 C233.673963,236.351732 235.342627,235.654434 237.311416,235.331844 C235.380367,242.634604 228.825225,245.927901 224.456329,251.684205 L224.456329,251.684205 Z M241.180702,185.481314 C238.785986,184.213418 236.320282,183.029089 233.782692,182.090972 C231.317886,181.18071 229.705834,182.039753 229.893637,184.939471 C230.051787,187.386304 230.536122,189.826848 230.516353,192.266493 C230.492091,195.237199 230.289911,198.245645 229.705834,201.144465 C229.565655,201.83727 227.590576,202.62173 226.482627,202.588483 C207.815523,202.037653 189.15471,201.237018 170.484911,200.765264 C159.7963,200.49569 149.09511,200.71674 137.643604,200.71674 C137.448613,195.642458 137.083789,191.247503 137.168256,186.860635 C137.248229,182.692122 138.481081,181.929227 142.582201,182.773892 C147.518101,183.791085 147.349168,183.692241 147.595379,178.617061 C147.660976,177.268292 149.74658,175.710154 151.244513,174.82056 C152.84129,173.873456 154.837037,173.148302 156.664748,173.132128 C160.989615,173.093489 162.724773,170.235105 162.8973,166.901373 C163.078813,163.393316 165.070966,162.117333 167.598671,161.005789 C169.419195,160.205154 171.235225,159.654325 170.686193,157.036761 C170.596335,156.606341 170.945882,155.909941 171.312503,155.582858 C176.140574,151.265181 181.112418,147.10116 185.794919,142.632521 C187.017886,141.465266 187.865247,139.43717 188.035978,137.719984 C188.57243,132.297053 188.70542,126.833686 189.051373,120.31898 C191.843262,121.222053 194.583931,121.374811 195.998296,122.823323 C196.948994,123.797383 196.022558,126.604548 195.906641,129.244576 C197.612146,130.719146 199.697751,132.631325 203.534688,133.229779 C206.835172,133.743767 209.575842,137.896105 212.545649,140.460653 C213.145901,140.979134 213.592495,141.985544 214.231385,142.103258 C220.94288,143.33611 227.647187,144.732503 234.418886,145.475629 C239.804976,146.066895 245.098511,146.255596 248.832112,150.985722 C249.302069,151.580582 250.226708,151.794444 250.874584,152.274286 C254.228085,154.757961 256.975045,157.329698 256.124089,162.293454 C255.176087,167.825114 254.957732,173.481675 254.416787,179.131049 C246.961268,174.280513 239.550677,169.786714 232.553434,164.722316 C230.229706,163.040174 229.314053,159.513247 227.129604,157.51211 C224.527316,155.128176 221.375996,152.062221 218.243546,151.786357 C210.1087,151.071986 202.734053,147.975479 194.997278,146.077677 C193.849791,145.796422 192.618736,145.859323 191.294229,146.313105 C193.013213,147.008606 194.683673,147.886519 196.461065,148.365462 C201.411343,149.698057 206.420927,150.808702 211.370306,152.143093 C212.459385,152.43603 213.408286,153.273507 214.402116,153.89173 C215.44357,154.539606 216.502996,155.856925 217.484245,155.793126 C224.561462,155.33485 226.887886,161.180114 230.96744,165.052994 C234.763043,168.655402 239.826542,170.908142 244.270919,173.847398 C246.283738,175.178195 248.115943,176.778566 250.089225,178.172264 C252.077783,179.576744 254.226288,180.763769 256.145655,182.251817 C258.076704,183.748852 259.811862,185.498387 262.252406,187.694517 C253.895611,190.922217 247.48514,188.820438 241.180702,185.481314 L241.180702,185.481314 Z" id="Fill-44" sketch:type="MSShapeGroup"></path>
                <path d="M223.403193,93.1216552 C227.542053,103.255842 234.36587,108.239367 244.387734,108.831531 C239.608187,100.975245 231.640477,97.622643 223.403193,93.1216552" id="Fill-45" sketch:type="MSShapeGroup"></path>
                <path d="M164.352101,110.343842 C157.171548,111.880414 152.789172,115.543026 149.548892,122.197911 C156.414045,120.21115 161.406556,117.371637 164.352101,110.343842" id="Fill-46" sketch:type="MSShapeGroup"></path>
                <path d="M152.79097,111.392485 C164.120268,110.164126 170.908142,103.272915 176.960978,95.3725984 C167.31472,98.1150649 159.859201,103.947748 152.79097,111.392485" id="Fill-47" sketch:type="MSShapeGroup"></path>
                <path d="M279.858286,141.235229 C282.406659,143.308254 284.455422,146.300525 285.946166,149.274826 C287.16554,151.706383 288.543063,152.300345 291.01326,152.2653 C298.186625,152.162862 305.363584,152.288663 312.538746,152.326404 C322.443795,152.37942 332.349742,152.516004 342.252994,152.390203 C343.580197,152.374028 345.708034,151.319994 346.072858,150.265061 C348.158462,144.242777 349.821734,138.074024 351.732116,131.603349 L276.474233,131.603349 C276.194775,135.642467 276.646761,138.622158 279.858286,141.235229" id="Fill-48" sketch:type="MSShapeGroup"></path>
                <path d="M106.423337,202.979365 C100.517868,194.693558 108.423576,186.282848 103.317844,178.583813 L53.3235416,178.583813 C54.3506187,187.102353 55.3309696,195.226416 56.2663915,202.979365 L106.423337,202.979365" id="Fill-49" sketch:type="MSShapeGroup"></path>
                <path d="M247.094258,119.142738 C246.064485,111.640493 244.96642,110.732028 235.235696,109.447957 C238.930657,113.52212 241.322677,118.076124 247.094258,119.142738" id="Fill-50" sketch:type="MSShapeGroup"></path>
                <path d="M391.94088,93.4047079 C384.620148,85.1449594 377.430609,76.7171765 369.503335,69.0621724 C357.875708,57.8335152 345.291093,47.5753245 331.076454,39.8124909 C315.761055,31.4485071 300.403422,22.7879919 284.175963,16.5797018 C269.929874,11.1298134 255.086229,6.87144219 239.674682,4.53153955 C216.7537,1.05223732 193.899213,-0.602947262 170.934201,2.30935091 C157.012499,4.07506085 143.072826,6.48055984 129.503367,9.99670385 C118.073428,12.9584239 107.06043,17.6786653 96.0761866,22.1446085 C91.4296288,24.0343225 59.5345274,43.6862698 50.0041866,50.3770974 C41.7911643,56.143286 33.8513103,62.373142 26.2906572,68.9705172 C19.851432,74.5902373 14.0699675,80.9746491 8.10339554,87.1227343 C5.2800568,90.0305396 2.70382759,93.1773671 0.418738337,95.760785 C14.3485274,109.810984 28.1408337,122.71729 35.1569473,140.88658 C37.2236815,146.238523 39.8035051,151.552726 40.8027262,157.124822 C43.1273529,170.090434 44.7618702,183.185442 46.4305335,196.259783 C47.7271846,206.416434 48.5889229,216.627 49.7588742,226.800724 C51.2028925,239.362874 53.0368945,251.885487 54.2167302,264.471 C56.288856,286.593144 57.9844767,308.751231 59.8535233,330.892245 C61.0396491,344.955024 62.2536308,359.015108 63.4370609,372.862227 C71.4092637,376.691077 79.0957181,380.436359 86.8297972,384.082797 L113.60389,397.394363 C118.880353,400.058653 124.252065,402.534241 129.524034,405.207517 C152.350665,416.780331 175.347128,428.044931 197.830501,440.251243 C203.414278,443.283053 207.312318,443.098844 212.085576,440.108369 L312.404858,389.083396 L319.801071,384.816937 C324.880744,382.524659 329.867864,379.97988 335.084122,378.05602 C341.226815,375.7907 344.593795,373.396882 344.298162,365.237775 C343.48315,342.690602 344.135519,320.075138 344.689045,297.499211 C345.184162,277.277564 346.071061,257.055917 347.264375,236.863024 C347.988631,224.604594 350.580136,212.402775 350.607093,200.171302 C350.640341,184.631258 353.771892,169.799294 357.359923,154.899937 C362.832276,132.177542 392.627396,94.179284 391.94088,93.4047079 L391.94088,93.4047079 Z M357.187396,126.111227 C351.005164,135.65954 347.868221,146.464067 346.270546,157.746639 C345.252454,164.930787 343.226156,171.997221 342.556714,179.201138 C340.866485,197.392892 339.678562,215.632272 338.30643,233.85368 C337.3764,246.203765 335.997978,258.542168 335.65472,270.909327 C334.788489,302.161045 334.367953,333.425343 333.85756,364.686945 C333.818022,367.11401 332.985937,368.256105 330.77543,369.344286 C307.072684,381.014146 283.440026,392.827779 259.800181,404.625237 C242.126907,413.4457 224.429371,422.221233 206.84326,431.213325 C203.549065,432.898162 201.002489,432.830769 197.696613,431.164801 C170.787732,417.600734 143.759341,404.27569 116.801937,390.807771 C102.106558,383.466371 87.4668905,376.012649 72.8478905,368.520288 C71.8630467,368.015286 70.6850081,366.82287 70.5780771,365.843418 C69.8403428,359.053746 68.602998,350.834434 68.2022312,343.902787 C68.0953002,342.079568 67.9955578,340.371367 67.9092941,338.883318 L65.788645,317.196986 C65.670931,315.994686 65.553217,314.797777 65.4364016,313.603564 L65.3034118,312.244012 L65.3043103,312.244911 C64.0498925,299.383533 62.8547809,286.984026 61.5617241,274.603389 C60.4322089,263.793471 59.0546856,253.009611 57.8505882,242.20688 C56.766002,232.466272 55.8251886,222.709489 54.7145436,212.971576 C53.1573043,199.314955 51.6485882,185.651146 49.8370507,172.027773 C48.5520811,162.369834 47.1332231,152.704706 45.1680284,143.168075 C42.9494341,132.407578 37.7673225,123.048866 30.4250243,114.776538 C24.9239168,108.57903 19.9251156,101.934929 14.725931,95.4714422 C12.5882089,92.8143408 12.5819189,90.354927 14.9263144,87.5935903 C26.4353286,74.0340162 39.7424016,62.4728844 54.1035091,52.0906897 C71.5530365,39.4773205 90.4483793,29.7205375 110.499296,21.7159858 C127.456402,14.9469817 144.852913,10.2572921 162.69512,7.52560852 C173.372049,5.8901927 184.443454,6.48145842 195.329753,6.63691278 C213.201613,6.89121095 231.185795,7.09518864 248.609264,11.4910426 C260.485797,14.4869087 272.211369,18.4011237 283.599974,22.9218803 C294.556361,27.2710081 305.482197,32.1215436 315.537308,38.2103225 C328.487645,46.0522312 341.039012,54.7459939 352.864327,64.1954625 C363.196201,72.4516166 372.285339,82.2623144 381.491292,90.9767444 C372.918838,103.301669 364.713004,114.486296 357.187396,126.111227 L357.187396,126.111227 Z" id="Fill-51" sketch:type="MSShapeGroup"></path>
                <path d="M282.457878,176.872917 C281.969051,177.696016 281.166619,178.475984 281.048006,179.349404 C280.548396,183.025495 279.945448,186.733037 279.997566,190.420809 C280.029915,192.684333 281.180996,194.93258 282.110128,198.162976 C288.548454,189.86369 289.039079,185.612507 285.039499,178.804864 C284.537193,177.950314 283.334892,177.507314 282.457878,176.872917" id="Fill-52" sketch:type="MSShapeGroup"></path>
                <path d="M285.297391,58.6512231 C284.467103,61.1609574 283.95042,62.726284 282.988041,65.6349878 C286.15284,65.608929 288.55744,65.6960913 290.926097,65.4453874 C291.253181,65.4112414 291.876795,63.1342394 291.558698,62.8727525 C289.787596,61.4152556 287.768487,60.2596815 285.297391,58.6512231" id="Fill-53" sketch:type="MSShapeGroup"></path>
                <path d="M124.665412,50.7113692 C123.376848,51.1723408 121.661458,53.2004361 121.79355,54.3658945 C122.226665,58.1983387 123.100984,62.064929 124.477609,65.6610467 C124.95116,66.8983915 127.636118,68.2902921 128.882448,67.9668032 C130.318379,67.5929939 131.27986,65.3977627 132.575613,63.8414219 C131.103738,59.6342698 130.091937,55.9905274 128.498755,52.6217505 C127.988361,51.5425558 125.642168,50.3627201 124.665412,50.7113692" id="Fill-54" sketch:type="MSShapeGroup"></path>
                <path d="M77.597785,70.3911724 C75.31,70.762286 73.0797241,71.4829473 70.4289128,72.2000142 C71.5179919,74.4024341 72.2063043,75.7952333 73.5433915,78.500858 C75.8114077,76.1384909 77.5133185,74.5471055 78.9151034,72.724785 C79.14514,72.4255578 77.9311582,70.3372576 77.597785,70.3911724" id="Fill-55" sketch:type="MSShapeGroup"></path>
                <path d="M364.565637,77.2284686 C351.957659,63.9294828 337.203872,53.3540933 321.715945,43.767142 C302.732542,32.0164097 282.520779,22.8607769 261.093237,16.5967748 C240.923708,10.7002921 220.144941,8.57694726 199.222402,8.40172414 C186.600945,8.29659026 173.753047,7.95333266 161.390381,10.0146755 C137.666968,13.9720223 114.558183,20.8227972 92.7810933,31.2373408 C82.0412637,36.3736247 71.5701095,42.3006592 61.6812353,48.920499 C52.0008316,55.4010588 42.9853773,62.9500304 34.1145943,70.5403367 C28.0249168,75.7521014 22.6621907,81.8157201 17.0173103,87.540574 C14.7483955,89.8409391 13.88486,92.1143469 16.8645517,94.7552738 C18.6131886,96.3062231 19.8532292,98.4340609 21.308929,100.312093 C26.562927,107.094576 32.04786,113.713517 37.0017323,120.708963 C43.3448093,129.665112 43.1606004,129.870886 54.5348276,129.776535 C74.4401744,129.6094 94.3437241,129.264345 114.249071,129.169994 C119.096012,129.146631 123.053359,129.006452 126.407759,124.182874 C129.601312,119.59113 135.410633,116.841475 138.712915,112.295558 C142.327903,107.318323 147.015795,104.432982 152.086483,101.664456 C154.869385,100.144957 157.558836,98.7234037 160.868306,100.502592 C161.529661,100.85843 162.943128,100.151247 163.852491,99.6498398 C167.213181,97.7969675 170.289919,94.9484686 173.868065,94.0588742 C185.324961,91.2094767 196.963371,88.9899838 208.892022,89.9433773 C214.063351,90.3567241 219.345205,90.5831663 224.330527,91.8573529 C231.868716,93.7848073 237.207181,100.580769 245.823665,101.140584 C249.618369,101.387694 253.214487,105.622702 256.771067,108.22499 C258.442426,109.447957 259.609682,112.011606 261.343941,112.38272 C268.090481,113.824941 270.752075,118.791394 272.454884,124.456043 C273.712897,128.641629 276.043813,129.891554 280.259951,129.872684 C303.295951,129.771144 326.333748,129.816073 349.367951,130.10272 C352.862529,130.145852 354.08999,128.435854 355.168286,125.927018 C360.544491,113.410696 369.132221,103.072531 378.295941,91.6641582 C373.849767,86.990643 369.199615,82.1167444 364.565637,77.2284686 L364.565637,77.2284686 Z M90.7637809,91.1672434 C89.7178337,91.5698073 87.9422394,91.2741744 87.0292819,90.5894564 C84.7046552,88.8471095 82.7727079,86.5871805 80.4867201,84.7837302 C79.5998215,84.0846349 78.1827606,84.0576775 75.89857,83.4098012 C78.2896917,88.240568 79.9682394,91.6318093 81.9415213,95.6188093 C78.8764645,97.1472941 75.8608296,98.6515172 72.5351846,100.310296 C67.5426734,90.288432 62.7487485,80.6655375 57.6924381,70.5151765 C64.0157465,67.4626998 70.0164645,64.1720994 76.3289899,61.6677566 C80.0868519,60.1761136 84.2850183,60.5813732 87.136213,64.1595193 C90.2605761,68.0800243 90.6883002,72.3617586 87.5396755,76.8843124 C91.5149939,80.4094422 95.0814584,83.5724442 98.9812961,87.0319777 C95.9297181,88.610783 93.4415497,90.1347748 90.7637809,91.1672434 L90.7637809,91.1672434 Z M102.955716,85.561002 C98.9139026,75.3010142 94.9520629,65.2476998 90.7682738,54.6282799 C94.2215172,53.2822069 97.1643671,52.1356187 100.560101,50.8120101 C104.640554,61.1672475 108.615872,71.2538093 112.694527,81.6045538 C109.440769,82.9263651 106.5096,84.1169838 102.955716,85.561002 L102.955716,85.561002 Z M126.545241,76.694712 C117.701416,76.6740446 110.596343,68.4825882 110.513673,58.2091217 C110.438193,48.9564422 117.094874,42.4183732 126.631505,42.3788357 C135.793428,42.3401968 142.529185,50.0275497 142.632521,60.6406795 C142.723278,69.8079939 135.800617,76.7162779 126.545241,76.694712 L126.545241,76.694712 Z M188.010817,62.4450284 C185.554998,58.6934564 183.078511,54.9553631 180.61101,51.2109797 C180.352219,51.3035335 180.092529,51.3969858 179.83284,51.4895396 C179.875972,56.7246673 179.919103,61.9588966 179.961337,67.0808032 C179.576744,67.3647546 179.370071,67.644213 179.128353,67.6774604 C171.368215,68.7521623 171.330475,68.7494665 171.231631,61.1465801 C171.11841,52.5624442 171.080669,43.9774097 171.012377,35.3923753 C177.063416,33.7075375 181.937314,34.5378256 184.903527,40.9698621 C186.277456,43.946858 188.538284,46.5158986 190.753284,49.7984118 C190.707456,44.2784341 190.667919,39.4755233 190.626584,34.3679939 C193.381631,34.3455294 195.929105,34.3248621 199.113673,34.2988032 C199.203531,45.1527525 199.291592,55.8988722 199.380552,66.7573144 C192.895499,68.5508803 191.730041,68.1267505 188.010817,62.4450284 L188.010817,62.4450284 Z M232.388994,44.8822799 C227.526777,44.4851075 222.935931,44.1103996 218.280387,43.7294016 C216.505692,47.2913732 218.331606,48.0327018 221.37959,48.1728803 C223.826424,48.2852028 226.256185,48.7291014 229.105582,49.0759533 C228.960911,51.5138012 228.827921,53.7701359 228.664379,56.5251826 C224.573144,56.250217 220.871892,56.0022089 216.999012,55.7416207 C216.763584,57.2638154 216.571288,58.5074503 216.299917,60.2632759 C221.233122,60.8329757 225.935391,61.3766166 230.976426,61.9588966 C230.630473,64.7597708 230.336637,67.145501 229.986191,69.9814199 C221.806416,69.2454828 213.872852,68.5320101 205.197959,67.751144 C206.234022,56.5368641 207.22246,45.8356734 208.257625,34.6366694 C216.655755,35.4184341 224.714221,36.1687485 233.26511,36.965789 C232.952404,39.7900264 232.690018,42.1622779 232.388994,44.8822799 L232.388994,44.8822799 Z M261.440089,78.3795497 C258.968994,76.9517059 257.058613,75.8482495 254.483282,74.3602008 C245.899146,76.4961258 238.956716,73.4616207 236.189988,65.6520609 C233.316329,57.5396795 237.542351,45.8446592 244.967318,42.5486673 C250.532225,40.0784706 256.213947,40.8404665 261.26217,44.2362008 C265.312071,46.9597972 266.687797,51.1283103 266.734523,56.4847465 C263.189625,56.0435436 260.07874,55.6571542 256.765675,55.2447059 C256.633584,54.354213 256.74411,53.513142 256.385576,53.0009513 C255.469024,51.6908215 254.531805,49.879284 253.243241,49.5036775 C252.155061,49.1864787 249.738779,50.283645 249.339809,51.3098235 C247.941619,54.9113327 246.810306,58.7096308 246.340349,62.5267992 C246.180402,63.8189574 248.008114,65.9818398 249.44045,66.6557748 C250.683187,67.2416491 252.651976,66.2864584 254.299972,66.0123915 C254.278406,65.5990446 254.25684,65.1856978 254.235274,64.7723509 C252.806531,64.2314057 251.378688,63.691359 249.498858,62.9796836 C250.031716,60.7952353 250.56098,58.6287586 251.188189,56.0597181 C256.142959,57.2242779 260.754473,58.3079655 265.870988,59.5102657 C264.429665,65.6493651 263.050345,71.5233834 261.440089,78.3795497 L261.440089,78.3795497 Z M293.870744,74.56957 C293.912079,79.5692698 293.951617,84.3578032 293.991154,89.2326004 C293.505921,89.3799675 293.351365,89.486 293.235448,89.4536511 C283.333994,86.7129817 283.371734,86.710286 283.080594,76.5356633 C283.034767,74.9496694 282.471357,73.3789513 282.147868,71.8019432 C281.660838,71.8199148 281.172909,71.838785 280.685878,71.8567566 C279.198728,75.545428 277.71068,79.2332008 276.106714,83.211215 C272.822404,82.0026247 269.859785,80.9117485 266.402947,79.6402576 C270.257856,69.2095396 274.010327,59.0564828 277.966775,48.3516978 C284.746562,51.0402495 291.170511,53.3540933 297.382396,56.1396917 C301.129475,57.8209351 303.18902,61.2013935 302.742426,65.3824868 C302.186205,70.5987444 299.19573,73.9046207 293.870744,74.56957 L293.870744,74.56957 Z M316.648852,100.628394 C308.22646,100.608625 300.814073,93.3606775 300.757462,85.090146 C300.692765,75.5580081 308.75213,66.4643773 317.406355,66.3035314 C326.188178,66.1399899 333.867444,73.3295294 333.85127,81.6998032 C333.8324,91.2912475 325.329136,100.648162 316.648852,100.628394 L316.648852,100.628394 Z" id="Fill-56" sketch:type="MSShapeGroup"></path>
                <path d="M321.573071,75.618213 C320.505558,75.0610933 317.998519,75.0988337 317.611231,75.7547972 C315.23269,79.7912191 312.621416,83.8977302 311.404738,88.3412089 C310.578943,91.3568438 315.020625,93.4226795 317.06759,90.9794402 C319.895422,87.6043732 321.900154,83.5382982 324.267014,79.750783 C323.090773,77.8350101 322.62441,76.1672454 321.573071,75.618213" id="Fill-57" sketch:type="MSShapeGroup"></path>
                <path d="M295.095509,202.484247 C295.095509,205.329152 296.003075,208.612564 294.92388,210.996497 C291.78514,217.931738 287.971566,224.574941 284.179558,231.192984 C282.269176,234.527615 279.252643,237.315909 277.785262,240.794312 C276.043813,244.922389 272.916755,246.347538 269.240663,247.864341 C266.829773,248.859069 264.86368,250.925803 262.685521,252.494724 C259.600696,254.716014 256.519465,256.945391 253.398696,259.116361 C252.567509,259.695047 251.195377,259.835225 250.753276,260.580148 C247.246118,266.504487 241.31459,267.798442 235.286016,268.997148 C234.144819,269.224489 232.854458,269.309854 231.927124,269.911903 C223.431049,275.429185 219.083718,284.009726 215.652041,293.038659 C214.468611,296.150442 214.668994,299.791489 214.261937,303.194412 C213.098276,312.921542 211.994819,322.656759 210.779041,332.377598 C209.137335,345.507651 207.526181,358.643994 205.578957,371.729118 C205.339037,373.339373 203.115051,374.654895 201.810312,376.107 C200.586446,374.738462 198.676065,373.547844 198.265414,371.967241 C196.959777,366.940584 196.077371,361.790822 195.275838,356.650045 C192.918862,341.547609 190.631077,326.433491 188.429556,311.307692 C187.899394,307.663949 186.362822,303.148584 187.858059,300.467221 C190.09103,296.463148 188.430454,293.427744 186.942406,291.01955 C183.866566,286.037822 179.68098,281.738116 175.925813,277.179619 C175.370491,276.504785 174.748673,275.834444 174.029809,275.351008 C170.657438,273.082093 167.240138,270.879673 163.527205,268.449913 C160.755984,269.538093 157.590286,269.674677 154.683379,266.967256 C150.29112,262.875122 145.808103,258.879136 141.357436,254.849903 C139.598915,253.259416 137.964398,251.480227 136.022566,250.154822 C132.42555,247.698103 128.05845,246.091442 125.078759,243.076706 C120.744907,238.691635 117.910785,232.779876 113.434957,228.588899 C106.284057,221.890882 103.919892,213.99416 104.57316,205.455852 L56.2394341,205.455852 C56.7480304,212.126911 57.0274888,217.757414 57.6313347,223.351974 C59.4024361,239.77083 61.4215456,256.162728 63.1117748,272.588773 C64.2341014,283.49484 65.0167647,294.435951 65.9126491,305.365381 C74.0582779,309.811556 82.207501,314.260426 90.624501,318.854866 C89.4347809,321.368195 88.3546876,323.647892 87.1712576,326.146844 C88.201929,326.673412 89.1445396,327.155051 90.2183428,327.704083 C91.6192292,325.45943 92.8871258,323.425943 94.3850588,321.024937 C105.727836,327.146065 116.896288,333.17374 128.469101,339.419771 C127.206596,341.887272 126.064501,344.117548 124.725617,346.734213 C126.15346,347.551022 127.440227,348.287858 128.893231,349.119045 C130.258174,346.768359 131.464069,344.692639 132.908087,342.204471 C144.320953,348.415456 155.549611,354.525801 166.987637,360.751164 C165.726929,363.314813 164.674692,365.453434 163.494856,367.851744 C164.655822,368.590377 165.685594,369.245442 167.081089,370.133239 C168.522412,367.82928 169.845122,365.714921 171.336765,363.329191 C180.425004,368.298339 189.395529,373.049132 198.189034,378.108138 C200.670014,379.535982 202.429434,379.324815 204.781917,377.997613 C213.511623,373.068002 222.365333,368.356746 231.655753,363.300436 C232.982057,365.524422 234.255345,367.660347 235.651738,370.001148 C236.889982,369.346083 237.979061,368.770093 239.439254,367.998213 C238.287274,365.696949 237.221558,363.57001 235.835947,360.802383 C247.126606,354.639022 258.349872,348.512503 269.893032,342.211659 C271.29931,344.553359 272.526771,346.598527 273.9636,348.992345 C275.295296,348.289655 276.611716,347.595951 278.135708,346.792621 C276.899262,344.37544 275.800298,342.229631 274.396716,339.485367 C285.742189,333.321108 296.979832,327.217053 308.549949,320.930586 C309.986779,323.351361 311.203456,325.399225 312.563907,327.689706 C313.624231,327.160442 314.574929,326.685992 315.693661,326.127075 C314.520116,323.700909 313.472371,321.534432 312.20088,318.904288 C319.202617,315.065554 326.087538,311.290619 332.969763,307.516582 C333.571811,291.571278 333.897996,275.616089 334.487465,259.669886 C334.911594,248.204903 335.593617,236.748006 336.246884,225.292008 C336.674609,217.801444 337.25599,210.319866 337.793341,202.484247 L295.095509,202.484247" id="Fill-58" sketch:type="MSShapeGroup"></path>
                <path d="M291.713254,165.249783 C293.446615,172.690925 291.008767,180.614604 295.365982,188.011716 C297.323988,191.335564 296.225024,196.460166 296.533237,201.07168 C309.130432,201.07168 322.046623,201.116609 334.961915,200.989909 C336.012355,200.979126 337.84456,199.927787 337.969462,199.146022 C338.896797,193.314237 339.486266,187.427639 340.290495,180.637968 L294.111564,180.637968 C294.10168,180.052992 294.091795,179.467118 294.081911,178.881243 L340.301278,178.881243 C341.817183,170.600828 343.319609,162.39769 344.846296,154.06246 L287.370416,154.06246 C288.906988,157.923659 290.832645,161.464963 291.713254,165.249783" id="Fill-59" sketch:type="MSShapeGroup"></path>
                <path d="M269.503049,239.701639 C271.662337,235.051487 273.821625,230.400436 276.492205,224.650422 C270.445659,227.259 267.642089,233.134815 269.503049,239.701639" id="Fill-60" sketch:type="MSShapeGroup"></path>
                <path d="M293.930051,188.392714 C289.516225,192.705899 287.708282,201.486824 290.339325,204.64713 C294.791789,199.536905 295.401026,196.88789 293.930051,188.392714" id="Fill-61" sketch:type="MSShapeGroup"></path>
                <path d="M287.411751,223.786886 C282.106533,223.935152 274.798381,231.006978 272.843071,237.576497 C280.640949,235.769452 283.245933,229.302371 287.411751,223.786886" id="Fill-62" sketch:type="MSShapeGroup"></path>
                <path d="M293.852773,206.795635 C285.75387,209.999972 280.430682,217.160757 281.508978,223.010513 C290.27912,219.168185 292.486032,216.322381 293.852773,206.795635" id="Fill-63" sketch:type="MSShapeGroup"></path>
                <path d="M265.419901,246.961268 C269.549775,247.536359 274.900819,243.494546 276.422116,237.584584 C271.923824,239.943357 268.438231,241.699183 265.046091,243.61855 C264.443144,243.959112 263.974085,244.968217 263.930953,245.698763 C263.905793,246.104921 264.843012,246.881294 265.419901,246.961268" id="Fill-64" sketch:type="MSShapeGroup"></path>
                <path d="M272.374012,224.745671 C277.125704,218.609268 282.565708,212.988649 281.584458,204.048675 C273.28068,208.540677 269.427568,217.264992 272.374012,224.745671" id="Fill-65" sketch:type="MSShapeGroup"></path>
                <path d="M289.963718,188.617359 C284.501249,196.157345 282.781367,203.843799 282.896385,212.864645 C283.708702,211.907657 284.404203,211.451178 284.552469,210.857217 C286.334353,203.741361 288.035365,196.604838 289.963718,188.617359" id="Fill-66" sketch:type="MSShapeGroup"></path>
                <path d="M272.882609,205.657134 C275.70415,199.434467 280.00745,193.320527 274.261929,186.510189 C269.433858,191.651864 268.805751,200.138953 272.882609,205.657134" id="Fill-67" sketch:type="MSShapeGroup"></path>
                <path d="M273.266302,163.268414 C269.981992,167.678645 272.468363,175.925813 279.09,181.96517 C279.548276,178.498448 281.052499,174.993986 280.098207,172.391698 C278.850978,168.992369 275.658323,166.307412 273.266302,163.268414" id="Fill-68" sketch:type="MSShapeGroup"></path>
                <path d="M251.175609,125.696982 C255.069156,129.997586 256.059391,135.837458 262.546241,136.001 C262.470761,131.246613 257.524976,126.424832 251.175609,125.696982" id="Fill-69" sketch:type="MSShapeGroup"></path>
                <path d="M260.62328,118.557763 C265.119775,123.960925 269.61627,129.364087 274.588114,135.338746 C272.693008,126.892992 268.692529,121.101643 260.62328,118.557763" id="Fill-70" sketch:type="MSShapeGroup"></path>
                <path d="M243.503531,103.016819 C248.25702,107.535779 253.010509,112.05384 257.499815,116.322095 C258.119836,110.16772 253.750939,105.284836 243.503531,103.016819" id="Fill-71" sketch:type="MSShapeGroup"></path>
                <path d="M249.054061,113.571542 C249.483582,120.830272 255.714337,121.613834 260.215325,124.307777 C258.069515,119.164304 253.617949,116.397576 249.054061,113.571542" id="Fill-72" sketch:type="MSShapeGroup"></path>
                <path d="M284.822941,157.482456 C284.255039,166.54284 282.629507,174.655221 290.234191,180.662229 C290.01943,172.931744 292.753809,164.495874 284.822941,157.482456" id="Fill-73" sketch:type="MSShapeGroup"></path>
                <path d="M270.865296,148.921684 C267.256598,145.016454 264.075625,141.573994 260.07245,137.242838 C261.491308,145.290521 266.221434,150.643363 270.865296,148.921684" id="Fill-74" sketch:type="MSShapeGroup"></path>
                <path d="M276.901957,142.821223 C278.248929,147.66457 279.596799,152.507917 281.104617,157.928152 C283.446316,155.999799 284.706126,154.961939 286.459256,153.518819 C283.840793,149.61359 281.288826,145.807205 278.736858,142.000819 C278.124925,142.274886 277.51389,142.548055 276.901957,142.821223" id="Fill-75" sketch:type="MSShapeGroup"></path>
                <path d="M262.772684,124.959247 C264.645325,135.367501 267.02117,145.516963 276.844448,151.904071 C275.825458,140.980032 271.31189,131.932229 262.772684,124.959247" id="Fill-76" sketch:type="MSShapeGroup"></path>
                <path d="M281.280738,171.600947 C284.190341,162.948519 281.939398,157.694521 273.376828,153.083907 C273.714694,160.21414 277.459077,165.482515 281.280738,171.600947" id="Fill-77" sketch:type="MSShapeGroup"></path>
            </g>
        </g>
    </g>
</svg>