<?xml version="1.0" encoding="UTF-8" standalone="no"?>
<svg width="371px" height="480px" viewBox="0 0 371 480" version="1.1" xmlns="http://www.w3.org/2000/svg" xmlns:xlink="http://www.w3.org/1999/xlink" xmlns:sketch="http://www.bohemiancoding.com/sketch/ns">
    <!-- Generator: Sketch 3.3 (11970) - http://www.bohemiancoding.com/sketch -->
    <title>santa-fe</title>
    <desc>Created with Sketch.</desc>
    <defs></defs>
    <g id="Page-1" stroke="none" stroke-width="1" fill="none" fill-rule="evenodd" sketch:type="MSPage">
        <g id="santa-fe" sketch:type="MSArtboardGroup" fill="#4DB9DF">
            <g id="Imported-Layers" sketch:type="MSLayerGroup" transform="translate(2.500000, 13.227405)">
                <path d="M181.758294,6.31141399 C112.515773,6.31141399 56.3834548,83.7786735 56.3834548,179.341633 C56.3834548,274.903528 112.515773,352.370787 181.758294,352.370787 C250.999752,352.370787 307.131006,274.903528 307.131006,179.341633 C307.131006,83.7786735 250.999752,6.31141399 181.758294,6.31141399 L181.758294,6.31141399 Z M285.829052,156.508382 L279.812405,152.137959 L273.794694,156.508382 L276.093236,149.435044 L270.076589,145.062493 L277.514927,145.063557 L279.812405,137.990219 L282.109883,145.063557 L289.548222,145.063557 L283.531574,149.435044 L285.829052,156.508382 L285.829052,156.508382 Z M274.606633,103.565292 L276.904111,110.63863 L284.342449,110.63863 L278.325802,115.010117 L280.624344,122.082391 L274.606633,117.711968 L268.59105,122.082391 L270.888528,115.010117 L264.870816,110.63863 L272.310219,110.63863 L274.606633,103.565292 L274.606633,103.565292 Z M256.919563,73.9524052 L259.218105,66.8790671 L261.515583,73.9524052 L268.951793,73.9524052 L262.935146,78.3238921 L265.234752,85.3961662 L259.218105,81.0257434 L253.202522,85.3961662 L255.5,78.3238921 L249.482289,73.9513411 L256.919563,73.9524052 L256.919563,73.9524052 Z M236.411458,51.3404956 L238.708936,44.2671574 L241.008542,51.3404956 L248.444752,51.3404956 L242.428105,55.7119825 L244.724519,62.7853207 L238.708936,58.4138338 L232.692289,62.7853207 L234.990831,55.7119825 L228.975248,51.3404956 L236.411458,51.3404956 L236.411458,51.3404956 Z M209.990991,31.5059913 L212.288469,24.4326531 L214.587012,31.5059913 L222.024286,31.5059913 L216.006574,35.8785423 L218.305117,42.9518805 L212.288469,38.5803936 L206.271822,42.9518805 L208.570364,35.8785423 L202.551589,31.5059913 L209.990991,31.5059913 L209.990991,31.5059913 Z M148.928513,31.5059913 L151.225991,24.4326531 L153.525598,31.5059913 L160.963936,31.5059913 L154.946224,35.8785423 L157.244767,42.9518805 L151.225991,38.5803936 L145.211472,42.9518805 L147.50895,35.8785423 L141.492303,31.5059913 L148.928513,31.5059913 L148.928513,31.5059913 Z M135.449052,112.707318 L138.140262,101.875437 L142.056297,106.920525 L139.547055,118.40898 L142.218047,121.980233 L178.65207,163.61258 L179.476778,63.5121283 C177.896531,63.5993878 172.698207,58.8394898 179.145831,54.9883673 C179.145831,54.9883673 176.658936,40.8406268 173.335627,37.1746647 C178.164694,33.5938338 184.388848,13.5039359 184.388848,13.5039359 C184.388848,13.5039359 190.08519,30.3907726 195.309052,37.7205685 C191.864431,41.3024636 189.037012,53.2484985 188.269767,55.6715452 C189.719125,57.0347085 192.40395,60.9294606 187.05984,63.2205539 L185.96484,163.380598 C185.96484,163.380598 212.435321,132.334315 222.93519,118.336618 L220.423819,106.849227 L224.33879,101.80414 L227.033192,112.634956 L228.437857,110.645015 L225.685991,100.106837 L229.666939,95.1309184 L232.478397,105.668032 L233.824534,103.735554 L231.100335,93.4900146 L235.18344,88.8248251 L237.749082,98.4659329 L238.919636,96.8867493 L236.225233,86.6986735 L240.724417,81.8845044 L243.370933,91.8512391 L246.267522,93.8411808 L258.475335,93.8422449 L253.910175,99.6971429 C253.033324,99.6971429 243.134694,99.7546064 243.134694,99.7546064 L241.96414,101.277391 L253.032259,101.277391 C252.973732,101.511501 248.582026,106.48742 248.582026,106.48742 L237.924665,106.48742 L236.694519,108.127259 L248.015904,108.129388 L243.779563,113.338353 L232.850845,113.37879 L231.657945,115.151647 L242.475991,115.1293 L238.744052,120.479796 L227.308805,120.378703 C215.352128,137.583717 187.945204,170.282609 187.945204,170.282609 C187.945204,170.282609 184.381399,169.731385 182.061574,169.765437 C179.488484,169.802682 176.911137,171.736224 176.911137,171.736224 C176.680219,171.043469 149.028542,139.366152 138.5457,125.252464 C137.325131,123.531749 135.888542,122.124956 134.866968,120.656443 L123.738192,120.551093 L120.00519,115.200598 L130.822172,115.224009 L129.629271,113.451152 L118.700554,113.408586 L114.464213,108.202813 L125.786662,108.199621 L124.556516,106.559781 L113.900219,106.559781 C113.900219,106.559781 109.509577,101.583863 109.449985,101.348688 L120.517041,101.348688 L119.346487,99.8269679 C119.346487,99.8269679 109.446793,99.7673761 108.57207,99.7673761 L104.004781,93.9135423 L116.213659,93.9124781 L119.111312,91.9225364 L121.754636,81.9568659 L126.253819,86.7720991 L123.561545,96.9580466 L124.732099,98.5393586 L127.296676,88.8971866 L131.379781,93.5623761 L128.655583,103.807915 L130.002784,105.739329 L132.813178,95.2022157 L136.796254,100.17707 L134.042259,110.716312 L135.449052,112.707318 L135.449052,112.707318 Z M243.661443,187.631283 C236.635991,183.767391 227.85258,180.020554 221.763571,182.478717 C221.191064,182.7107 213.330262,185.861618 212.74605,185.874388 C201.971633,186.109563 196.466837,181.074052 187.216268,181.074052 C187.216268,181.074052 188.985933,178.341341 188.972099,176.390773 C188.958265,174.542362 187.333324,171.941603 187.333324,171.941603 C196.466837,169.834606 209.817536,177.21016 218.014606,176.858994 C224.744227,176.570612 228.039869,173.314344 234.763105,172.879111 C239.076064,172.598178 245.808878,172.832289 245.808878,172.832289 L240.114665,178.04551 C242.263163,179.012813 244.464869,186.292595 243.661443,187.631283 L243.661443,187.631283 Z M127.607405,172.760991 C127.607405,172.760991 140.606939,178.614825 148.568834,177.093105 C156.714825,175.536268 166.648571,173.639971 177.37723,172.760991 C177.37723,172.760991 175.920423,175.377711 175.856574,177.21016 C175.787405,179.103265 177.144184,181.89344 177.144184,181.89344 C176.249242,181.94984 174.202901,182.630889 173.162172,182.712828 C162.570787,183.558819 158.523863,186.577784 146.814067,187.280117 C141.123047,187.621706 125.013032,186.83637 119.099606,183.396006 C120.927799,182.537245 127.765962,179.844971 128.779023,178.614825 C128.779023,178.614825 128.074563,174.283776 127.607405,172.760991 L127.607405,172.760991 Z M176.909009,177.21016 C176.97605,175.217026 178.665904,172.409825 178.665904,172.409825 C180.882507,171.555321 180.540918,170.65293 186.279825,171.239271 C186.279825,171.239271 187.967551,174.594504 187.801545,176.858994 C187.670656,178.644621 186.279825,181.192172 186.279825,181.192172 C186.279825,181.192172 184.101531,181.962609 182.64898,182.127551 C180.919752,182.323353 178.198746,181.89344 178.198746,181.89344 C178.198746,181.89344 176.847289,179.103265 176.909009,177.21016 L176.909009,177.21016 Z M122.508047,51.3404956 L124.805525,44.2671574 L127.104067,51.3404956 L134.541341,51.3404956 L128.524694,55.7119825 L130.8243,62.7853207 L124.805525,58.4138338 L118.788878,62.7853207 L121.088484,55.7119825 L115.071837,51.3404956 L122.508047,51.3404956 L122.508047,51.3404956 Z M101.999942,73.9524052 L104.298484,66.8790671 L106.597026,73.9524052 L114.033236,73.9513411 L108.016589,78.3238921 L110.314067,85.3961662 L104.298484,81.0257434 L98.2807726,85.3961662 L100.580379,78.3238921 L94.5616035,73.9524052 L101.999942,73.9524052 L101.999942,73.9524052 Z M86.611414,110.63863 L88.9088921,103.565292 L91.2063703,110.63863 L98.6447085,110.63863 L92.6280612,115.010117 L94.9255394,122.082391 L88.9088921,117.711968 L82.8922449,122.082391 L85.189723,115.010117 L79.1730758,110.63863 L86.611414,110.63863 L86.611414,110.63863 Z M81.4045773,145.063557 L83.7041837,137.990219 L86.0016618,145.063557 L93.44,145.062493 L87.4212245,149.435044 L89.7208309,156.508382 L83.7041837,152.137959 L77.6864723,156.508382 L79.9850146,149.435044 L73.9683673,145.063557 L81.4045773,145.063557 L81.4045773,145.063557 Z M181.758294,350.128644 C113.781035,350.128644 58.6766764,273.665933 58.6766764,179.341633 L58.7086006,175.386224 L127.106195,175.386224 C127.312638,176.724913 127.421181,177.744359 127.421181,177.744359 C126.318732,179.084111 118.355773,182.244606 116.363703,183.183178 C122.804942,186.92895 138.731924,188.801837 144.940117,188.56879 C157.047901,188.112274 162.88258,185.288047 173.241983,183.784417 L117.951399,257.624023 C117.951399,257.624023 117.060714,247.348688 113.238324,247.498732 C111.273921,258.218878 109.088178,268.790044 104.883761,278.132128 L105.042318,279.628309 C113.982157,271.91223 123.558353,267.42156 133.833688,261.668819 C130.624242,258.753076 127.380743,259.110627 123.334883,259.334096 L178.997915,185.25293 L179.547012,306.127522 C179.547012,308.459052 181.005948,309.919052 183.338542,310.209563 C185.07309,310.065904 187.636603,309.698776 187.801545,306.127522 L187.10879,187.379082 L241.375671,259.568207 C237.331939,259.344738 234.084184,258.985058 230.87793,261.90293 C241.153265,267.655671 250.729461,272.146341 259.668236,279.863484 L259.827857,278.365175 C255.622376,269.024155 253.435569,258.454052 251.473294,247.731778 C247.650904,247.583863 246.75809,257.859198 246.75809,257.859198 L190.28312,182.435087 C200.812784,183.216166 208.114913,190.439548 218.366837,185.289111 C218.968076,184.987959 219.278805,184.765554 219.882172,184.471851 C228.786895,180.12484 237.25,185.771166 244.833061,189.271122 C245.708848,187.812187 243.895554,178.965991 241.553382,177.912493 L243.77105,175.386224 L304.806924,175.386224 L304.838848,179.341633 C304.838848,273.665933 249.73449,350.128644 181.758294,350.128644 L181.758294,350.128644 Z" id="Fill-1" sketch:type="MSShapeGroup"></path>
                <path d="M93.4634111,194.25449 L87.4467638,198.624913 L89.7453061,205.698251 L83.7265306,201.326764 L77.7130758,205.698251 L80.0105539,198.624913 L73.9939067,194.25449 L81.4301166,194.25449 L83.7265306,187.180087 L86.0272012,194.25449 L93.4634111,194.25449" id="Fill-2" sketch:type="MSShapeGroup"></path>
                <path d="M101.405087,241.11602 L95.3895044,245.485379 L97.6859184,252.559781 L91.6703353,248.188294 L85.653688,252.559781 L87.9522303,245.485379 L81.9366472,241.11602 L89.371793,241.11602 L91.6703353,234.040554 L93.9699417,241.11602 L101.405087,241.11602" id="Fill-3" sketch:type="MSShapeGroup"></path>
                <path d="M125.02793,288.426618 L119.011283,292.797041 L121.309825,299.871443 L115.293178,295.499956 L109.276531,299.871443 L111.575073,292.797041 L105.55949,288.426618 L112.994636,288.426618 L115.293178,281.35328 L117.59172,288.426618 L125.02793,288.426618" id="Fill-4" sketch:type="MSShapeGroup"></path>
                <path d="M150.802464,312.218659 L144.784752,316.590146 L147.08223,323.664548 L141.066647,319.291997 L135.05,323.664548 L137.347478,316.590146 L131.329767,312.219723 L138.767041,312.219723 L141.066647,305.145321 L143.363061,312.219723 L150.802464,312.218659" id="Fill-5" sketch:type="MSShapeGroup"></path>
                <path d="M191.491983,329.258732 L185.476399,333.631283 L187.776006,340.703557 L181.75723,336.33207 L175.740583,340.703557 L178.038061,333.631283 L172.021414,329.258732 L179.459752,329.258732 L181.75723,322.185394 L184.056837,329.258732 L191.491983,329.258732" id="Fill-6" sketch:type="MSShapeGroup"></path>
                <path d="M270.05105,194.25449 L276.067697,198.624913 L273.770219,205.698251 L279.786866,201.326764 L285.803513,205.698251 L283.506035,198.624913 L289.521618,194.25449 L282.086472,194.25449 L279.786866,187.180087 L277.489388,194.25449 L270.05105,194.25449" id="Fill-7" sketch:type="MSShapeGroup"></path>
                <path d="M262.110437,241.11602 L268.127085,245.485379 L265.828542,252.559781 L271.844125,248.188294 L277.862901,252.559781 L275.563294,245.485379 L281.579942,241.11602 L274.143732,241.11602 L271.844125,234.040554 L269.546647,241.11602 L262.110437,241.11602" id="Fill-8" sketch:type="MSShapeGroup"></path>
                <path d="M238.487595,288.426618 L244.504242,292.797041 L242.204636,299.871443 L248.221283,295.499956 L254.240058,299.871443 L251.941516,292.797041 L257.957099,288.426618 L250.520889,288.426618 L248.221283,281.35328 L245.923805,288.426618 L238.487595,288.426618" id="Fill-9" sketch:type="MSShapeGroup"></path>
                <path d="M212.714125,312.218659 L218.730773,316.590146 L216.433294,323.664548 L222.451006,319.291997 L228.466589,323.664548 L226.169111,316.590146 L232.185758,312.219723 L224.74742,312.219723 L222.451006,305.145321 L220.152464,312.219723 L212.714125,312.218659" id="Fill-10" sketch:type="MSShapeGroup"></path>
                <path d="M190.320364,39.465758 C188.384694,44.2384257 186.881064,49.541035 185.805219,54.5786735 C185.805219,54.5786735 184.387784,53.974242 183.450277,53.9838192 C182.805408,53.9902041 181.816822,54.2924198 181.816822,54.2924198 C180.742041,48.7259038 180.246152,43.5190671 178.005073,38.8176968 C180.974023,33.5065743 182.884155,27.5782507 184.393105,21.0944461 C185.683907,27.9879446 188.384694,33.3661079 190.320364,39.465758" id="Fill-11" sketch:type="MSShapeGroup"></path>
                <path d="M179.117099,58.8245918 C179.117099,57.1538921 180.856968,55.799242 183.004402,55.799242 C185.152901,55.799242 186.89277,57.1538921 186.89277,58.8245918 C186.89277,60.498484 185.152901,61.85207 183.004402,61.85207 C180.856968,61.85207 179.117099,60.498484 179.117099,58.8245918" id="Fill-12" sketch:type="MSShapeGroup"></path>
                <path d="M175.928936,182.19672 C176.016195,182.225452 176.11516,182.245671 176.223703,182.25844 L175.928936,182.19672" id="Fill-13" sketch:type="MSShapeGroup"></path>
                <path d="M300.921749,37.945102 L299.73949,34.6941545 C298.558294,30.2588192 299.443659,25.2318222 297.080204,21.3892128 C295.304155,19.9111224 294.714621,17.8413703 293.235466,16.067449 C289.393921,11.041516 287.322041,4.83332362 281.70551,1.28548105 L281.113848,8.67699708 C283.775262,14.2945918 289.688688,17.8413703 293.531297,22.8673032 C294.122959,25.5287172 294.41879,27.8932362 295.89688,29.9629883 C295.89688,31.146312 298.853061,32.0327405 297.080204,33.5108309 C295.009388,33.2160641 294.41879,30.850481 293.531297,29.3713265 C292.350102,22.2767055 284.958586,16.9549417 280.226356,11.041516 C275.792085,8.08639942 271.357813,4.83332362 266.03605,4.24166181 C264.263192,5.71975219 266.03605,7.19784257 266.03605,8.97176385 C271.357813,16.3622157 278.157668,28.1890671 288.506429,28.7807289 C290.574052,30.2588192 294.41879,32.6244023 293.235466,34.9889213 L300.921749,37.945102 L300.921749,37.945102 Z M293.531297,21.0944461 L284.661691,7.49367347 C284.958586,6.9030758 285.253353,6.9030758 285.84395,6.9030758 L294.41879,20.5027843 C294.41879,21.0944461 293.826064,21.0944461 293.531297,21.0944461 L293.531297,21.0944461 Z M288.210598,26.7109767 C282.297172,21.9808746 276.679577,15.7726822 271.061983,10.4498542 C270.767216,9.5644898 271.949475,9.26865889 272.244242,9.5644898 C277.862901,14.8851895 283.480496,20.5027843 288.801195,25.8245481 C288.801195,26.1193149 288.506429,26.7109767 288.210598,26.7109767 L288.210598,26.7109767 Z" id="Fill-14" sketch:type="MSShapeGroup"></path>
                <path d="M84.2139067,26.4151458 C79.4838047,29.0754956 73.8672741,29.9629883 70.0225364,34.3972595 C69.1361079,34.3972595 69.4308746,33.5108309 69.1361079,33.2160641 C71.4995627,30.553586 74.7526385,28.1890671 77.7088192,27.0057434 C83.326414,26.7109767 86.8753207,20.797551 90.71793,17.5455394 C93.9699417,13.70293 97.2230175,9.5644898 97.8136152,4.53749271 C96.040758,2.46880466 93.3782799,5.42498542 91.0137609,6.01558309 C82.4410496,8.08639942 78.8921429,17.2507726 72.0933528,22.2767055 C70.0225364,25.5287172 70.0225364,30.850481 66.4746939,32.6244023 C66.1799271,32.9191691 65.2924344,32.3275073 65.5872012,31.7369096 C68.5433819,29.3713265 68.8413411,25.8245481 70.0225364,22.8673032 L80.9629592,10.1550875 C82.1441545,7.78950437 81.8483236,3.65106414 81.5524927,0.694883382 C80.0754665,1.58131195 78.596312,2.46880466 77.4129883,3.94689504 C72.9797813,9.26865889 69.7267055,15.4757872 65.8830321,21.9808746 C63.2237464,26.4151458 64.9976676,32.9191691 62.9289796,37.6503353 C65.8830321,36.1722449 70.0225364,34.3972595 73.2745481,34.3972595 C83.6211808,33.2160641 91.3095918,25.2318222 98.1094461,17.2507726 C90.71793,15.1810204 89.2398397,23.7547959 84.2139067,26.4151458 L84.2139067,26.4151458 Z M90.1273324,9.5644898 L91.3095918,10.4498542 L75.6401312,26.1193149 L74.4568076,25.5287172 C79.1869096,19.9111224 84.8045044,15.1810204 90.1273324,9.5644898 L90.1273324,9.5644898 Z M76.2307289,7.49367347 L77.4129883,7.49367347 C77.1182216,10.4498542 74.1620408,12.2248397 73.2745481,14.8851895 L69.7267055,20.2069534 L68.8413411,19.9111224 L76.2307289,7.49367347 L76.2307289,7.49367347 Z" id="Fill-15" sketch:type="MSShapeGroup"></path>
                <path d="M279.931589,27.5974052 C284.071093,29.9629883 289.688688,29.6671574 292.350102,34.3972595 C281.113848,35.5805831 272.835904,25.5287172 264.85379,18.1382653 C266.33188,18.1382653 267.809971,18.1382653 269.288061,17.2507726 L279.931589,27.5974052" id="Fill-16" sketch:type="MSShapeGroup"></path>
                <path d="M56.422828,38.8304665 L56.422828,39.7190233 C55.2395044,38.5367638 52.2833236,39.1273615 52.8749854,36.7617784 C52.2833236,35.2847522 54.3541399,35.5805831 55.2395044,35.5805831 L56.422828,38.8304665" id="Fill-17" sketch:type="MSShapeGroup"></path>
                <path d="M310.086122,37.0586735 C309.791356,38.5367638 308.905991,39.7190233 307.722668,40.3106851 L307.427901,40.3106851 C307.131006,38.8304665 306.835175,37.6503353 307.722668,36.4670117 C308.609096,35.2847522 310.086122,35.5805831 310.086122,37.0586735" id="Fill-18" sketch:type="MSShapeGroup"></path>
                <path d="M60.5623324,42.3804373 L62.9289796,42.971035 C61.15293,43.2658017 58.7894752,44.1532945 57.3103207,45.3366181 L56.7186589,45.3366181 C56.422828,42.3804373 59.084242,40.606516 61.4498251,39.4231924 C61.745656,40.606516 59.9696064,41.4929446 60.5623324,42.3804373" id="Fill-19" sketch:type="MSShapeGroup"></path>
                <path d="M305.948746,44.7449563 C303.878994,43.8585277 301.514475,43.5616327 301.809242,40.606516 L302.39984,39.7190233 C304.173761,40.9012828 307.427901,41.4929446 305.948746,44.7449563" id="Fill-20" sketch:type="MSShapeGroup"></path>
                <path d="M300.626983,43.5616327 C298.558294,42.6752041 297.374971,49.1792274 295.89688,44.7449563 C295.602114,43.2658017 297.670802,42.971035 298.558294,42.6752041 C299.443659,42.971035 300.921749,42.0835423 300.626983,43.5616327" id="Fill-21" sketch:type="MSShapeGroup"></path>
                <path d="M67.9538484,44.1532945 C67.9538484,45.3366181 67.0652915,45.6313848 66.4746939,45.9272157 C65.2924344,46.2219825 65.2924344,45.3366181 64.7018367,44.4491254 C64.1091108,43.2658017 65.2924344,43.2658017 65.8830321,42.971035 C67.3611224,42.3804373 67.3611224,43.5616327 67.9538484,44.1532945" id="Fill-22" sketch:type="MSShapeGroup"></path>
                <path d="M309.496589,62.78 C310.384082,67.8048688 311.565277,72.8297376 313.93086,76.6734111 C316.297507,81.1098105 321.322376,84.360758 324.278557,88.4991983 L323.686895,89.0908601 C313.636093,84.6555248 307.722668,76.0828134 302.105073,67.8048688 L296.192711,57.457172 C301.514475,57.1613411 304.766487,62.1862099 309.496589,62.78" id="Fill-23" sketch:type="MSShapeGroup"></path>
                <path d="M332.260671,97.0719096 C332.260671,92.9345335 330.486749,88.2033673 331.670073,83.7690962 C337.285539,70.4652187 334.034592,53.3187318 324.278557,42.971035 L321.912974,57.1613411 C323.686895,61.0050146 327.234738,64.5528571 329.30449,68.3954665 C334.329359,74.3088921 327.826399,81.1098105 330.78258,87.6117055 C330.78258,88.2033673 330.191983,88.7950292 329.599257,88.4991983 C326.937843,84.360758 328.713892,78.7420991 329.599257,74.3088921 C328.121166,71.6485423 327.826399,68.0996356 325.459752,65.7351166 C320.730714,59.8227551 318.070364,51.5448105 310.679913,48.2927988 C308.905991,47.1094752 308.609096,48.8833965 307.722668,50.065656 C309.19863,56.5696793 312.45277,62.1862099 313.043367,68.9881924 C314.818353,71.9443732 313.93086,76.0828134 317.182872,77.5609038 C319.549519,81.1098105 323.391064,84.6555248 326.051414,88.2033673 C324.278557,90.2741837 327.234738,89.9772886 327.826399,91.1595481 C332.555437,94.116793 332.260671,99.7333236 331.670073,103.872828 C333.443994,104.760321 334.329359,108.897697 336.696006,107.123776 C336.105408,103.576997 335.807449,99.7333236 332.260671,97.0719096 L332.260671,97.0719096 Z M324.869155,82.8826676 L316.297507,59.8227551 C315.999548,58.9363265 316.590146,58.6394315 317.182872,58.9363265 C320.730714,66.6215452 323.096297,74.604723 326.051414,82.5857726 C325.756647,83.1784985 325.16605,82.8826676 324.869155,82.8826676 L324.869155,82.8826676 Z" id="Fill-24" sketch:type="MSShapeGroup"></path>
                <path d="M53.4655831,63.0747668 C51.6927259,65.7351166 51.9885569,69.2829592 51.1021283,72.5349708 C48.4407143,77.8567347 44.5970408,82.8826676 39.8680029,86.4305102 L39.2763411,85.8377843 C42.8231195,80.2212536 49.031312,76.969242 49.9198688,69.8724927 C49.3271429,66.9173761 51.6927259,64.848688 51.396895,62.1862099 C52.5802187,57.457172 56.7186589,52.4312391 54.6499708,47.4053061 C46.6678571,51.5448105 41.6408601,58.6394315 38.0930175,66.3267784 C33.0681487,71.3516472 34.5441108,78.7420991 35.4316035,84.9524198 C35.1368367,85.5430175 34.5441108,86.4305102 33.6587464,85.8377843 C33.3629155,82.5857726 32.4754227,79.0389942 32.4754227,75.1963848 C32.180656,67.8048688 38.9794461,63.0747668 41.3450292,57.1613411 C41.0502624,52.4312391 40.4575364,47.1094752 38.9794461,42.971035 L37.7982507,43.5616327 C31.8848251,51.2489796 29.8140087,60.7081195 28.6328134,70.1693878 C28.9286443,77.5609038 32.4754227,84.6555248 32.180656,92.0470408 C33.0681487,98.5510641 23.6068805,102.394738 27.7453207,108.601866 C29.8140087,108.011268 30.7025656,105.941516 31.8848251,104.463426 L31.58793,100.029155 C30.7025656,93.819898 37.2055248,89.9772886 41.6408601,87.6117055 C53.4655831,81.4045773 60.8581633,68.3954665 67.0652915,56.8665743 C62.0404227,58.0477697 57.9009184,60.4133528 53.4655831,63.0747668 L53.4655831,63.0747668 Z M37.7982507,79.3337609 L45.7793003,58.9363265 C46.369898,58.9363265 46.9626239,59.2300292 46.9626239,59.8227551 C44.005379,67.213207 41.6408601,74.8994898 38.0930175,81.699344 C36.6149271,81.4045773 37.7982507,80.2212536 37.7982507,79.3337609 L37.7982507,79.3337609 Z" id="Fill-25" sketch:type="MSShapeGroup"></path>
                <path d="M25.6766327,99.7333236 L25.6766327,100.029155 C23.9016472,99.4385569 20.0590379,101.212478 20.3538047,97.3688047 C20.0590379,96.7771429 21.2423615,96.185481 21.8329592,95.8907143 C24.1985423,95.2990525 25.0839067,97.9604665 25.6766327,99.7333236" id="Fill-26" sketch:type="MSShapeGroup"></path>
                <path d="M343.198965,97.3688047 C343.496924,98.846895 342.312536,100.029155 341.130277,100.620816 C339.652187,100.916647 339.061589,100.916647 337.878265,100.916647 C337.582434,98.846895 339.652187,96.7771429 341.130277,95.8907143 C342.904198,95.2990525 342.312536,97.0719096 343.198965,97.3688047" id="Fill-27" sketch:type="MSShapeGroup"></path>
                <path d="M40.4575364,100.620816 C40.1627697,102.098907 39.2763411,103.576997 37.7982507,103.281166 C37.5002915,102.689504 35.4316035,103.281166 35.7274344,101.80414 C36.0222012,100.620816 37.2055248,100.029155 38.0930175,99.4385569 C38.9794461,99.7333236 40.1627697,99.4385569 40.4575364,100.620816" id="Fill-28" sketch:type="MSShapeGroup"></path>
                <path d="M327.826399,100.916647 C327.530569,102.394738 326.347245,103.576997 324.574388,103.281166 C323.981662,103.281166 322.503571,102.689504 323.096297,101.507245 C323.096297,100.324985 324.278557,100.324985 324.869155,99.4385569 C326.051414,99.1416618 326.937843,100.620816 327.826399,100.916647" id="Fill-29" sketch:type="MSShapeGroup"></path>
                <path d="M354.434155,119.246458 L354.434155,109.489359 C349.704052,111.558047 348.81656,116.880875 345.564548,120.427653 L345.564548,122.793236 C346.15621,127.227507 347.931195,130.77535 349.704052,134.619023 C349.408222,134.027362 349.999883,133.436764 349.999883,132.549271 C350.887376,129.297259 350.589417,125.157755 351.477974,121.315146 C352.067507,121.315146 352.365466,121.609913 352.661297,121.906808 C352.956064,129.297259 351.182143,135.505452 351.477974,142.896968 L347.042638,150.878017 C345.860379,152.062405 348.225962,155.018586 345.564548,155.018586 C343.496924,152.357172 345.564548,149.10516 347.338469,146.740641 L347.6343,135.505452 C345.860379,130.77535 343.496924,126.045248 343.198965,121.019315 C342.01777,116.880875 339.652187,113.037201 337.285539,110.08102 C332.851268,112.74137 333.148163,118.654796 332.555437,123.679665 L333.148163,124.271327 C332.555437,131.071181 336.105408,136.097114 336.696006,142.601137 L342.904198,153.243601 C342.904198,153.835262 342.312536,154.426924 341.720875,154.131093 C339.356356,151.174913 337.285539,147.922901 335.512682,144.376122 C334.329359,138.165802 331.373178,132.25344 331.373178,125.45465 L323.391064,118.950627 C322.800466,118.654796 321.912974,117.175641 321.025481,118.358965 C323.391064,127.227507 325.459752,136.392945 330.191983,144.376122 C334.626254,151.470743 342.01777,156.791443 344.975015,164.477726 C345.860379,167.434971 344.975015,170.391152 343.496924,172.756735 C342.608367,173.051501 341.720875,171.27758 341.130277,172.756735 C344.086458,174.825423 345.269781,178.078499 345.860379,181.329446 L347.6343,172.45984 C341.720875,159.747624 352.956064,150.878017 356.502843,139.940787 C359.459023,132.844038 355.321647,126.045248 354.434155,119.246458 L354.434155,119.246458 Z M342.904198,147.922901 C341.720875,140.235554 341.425044,132.549271 338.468863,125.749417 C338.174096,125.157755 339.061589,124.567157 339.652187,124.862988 C342.904198,131.662843 343.198965,139.644956 344.086458,147.62707 C343.791691,147.922901 343.496924,147.922901 342.904198,147.922901 L342.904198,147.922901 Z" id="Fill-30" sketch:type="MSShapeGroup"></path>
                <path d="M42.8231195,118.654796 L42.5283528,118.358965 C38.6846793,119.83812 36.3190962,123.679665 32.7712536,125.157755 C32.180656,134.619023 29.2234111,142.896968 24.4943732,150.583251 C23.6068805,152.357172 23.6068805,154.721691 21.8329592,155.610248 C20.9465306,154.721691 21.5371283,153.243601 21.8329592,152.062405 C27.154723,144.670889 29.2234111,135.801283 30.9973324,126.931676 C31.8848251,121.019315 29.2234111,116.585044 28.6328134,111.26328 C28.0400875,110.968513 26.857828,110.376851 26.2672303,110.968513 C23.6068805,115.402784 19.170481,119.246458 20.3538047,124.862988 C17.3976239,130.184752 15.6247668,136.687711 16.5101312,142.896968 C18.5809475,146.740641 18.5809475,151.470743 19.170481,155.905015 L18.5809475,156.496676 C17.9903499,156.496676 17.3976239,156.199781 17.101793,155.610248 C17.101793,151.470743 16.5101312,147.922901 15.0341691,144.376122 C13.8508455,137.869971 14.4414431,131.071181 17.9903499,125.749417 C21.5371283,119.246458 13.5560787,115.697551 11.7800292,110.376851 L10.0061079,109.78519 L9.12074344,121.019315 C6.16456268,127.523338 4.98123907,137.279373 9.41657434,143.783397 C12.3727551,148.218732 13.8508455,153.540496 17.3976239,158.269534 C17.6934548,161.226778 18.2851166,164.477726 18.2851166,168.025569 C14.7372741,171.869242 17.9903499,176.894111 18.2851166,181.329446 L18.5809475,181.033615 C19.4684402,178.078499 20.6496356,175.121254 23.6068805,172.756735 L22.7204519,171.869242 L22.1277259,172.756735 C20.9465306,173.051501 20.3538047,172.45984 19.4684402,171.573411 C16.8080904,161.521545 25.9713994,155.018586 30.9973324,148.514563 C37.7982507,139.940787 38.6846793,128.410831 42.8231195,118.654796 L42.8231195,118.654796 Z M20.0590379,147.330175 C20.6496356,139.940787 21.8329592,132.549271 23.6068805,124.862988 L24.4943732,124.862988 C24.1985423,132.25344 22.1277259,139.644956 21.2423615,147.035408 C20.9465306,147.330175 20.6496356,147.330175 20.0590379,147.330175 L20.0590379,147.330175 Z" id="Fill-31" sketch:type="MSShapeGroup"></path>
                <path d="M28.9286443,170.095321 C27.7453207,170.981749 26.2672303,172.165073 24.7891399,171.573411 C24.4943732,170.095321 24.1985423,168.321399 25.3818659,167.434971 C27.4505539,166.546414 29.519242,167.434971 28.9286443,170.095321" id="Fill-32" sketch:type="MSShapeGroup"></path>
                <path d="M340.242784,170.391152 C340.242784,171.27758 338.764694,171.573411 338.468863,172.45984 C336.696006,172.165073 334.92102,171.27758 334.329359,169.208892 C335.512682,166.252711 340.242784,167.13914 340.242784,170.391152" id="Fill-33" sketch:type="MSShapeGroup"></path>
                <path d="M356.502843,169.79949 C357.095569,172.165073 354.729985,172.756735 352.956064,173.347332 C351.772741,173.347332 350.589417,173.051501 349.704052,172.45984 C350.589417,170.391152 352.956064,169.79949 354.729985,168.616166 C355.321647,168.616166 356.208076,168.913061 356.502843,169.79949" id="Fill-34" sketch:type="MSShapeGroup"></path>
                <path d="M14.7372741,171.869242 C12.9622886,172.756735 10.5988338,173.051501 8.8238484,172.165073 C7.93848397,171.27758 8.52908163,170.391152 8.52908163,169.208892 C10.8936006,168.025569 12.9622886,170.981749 14.7372741,171.869242" id="Fill-35" sketch:type="MSShapeGroup"></path>
                <path d="M35.1368367,210.598615 C36.0222012,207.345539 37.7982507,204.389359 37.7982507,201.137347 C36.3190962,195.815583 34.8410058,190.197988 34.8410058,184.285627 L34.249344,184.285627 C29.2234111,186.65121 28.6328134,191.97191 26.5630612,196.11035 C28.3359184,202.911268 31.58793,208.82363 31.58793,216.214082 C30.7025656,221.535845 27.154723,225.379519 27.7453207,230.997114 C27.7453207,231.587711 27.154723,231.883542 26.5630612,231.883542 C24.7891399,227.15344 27.7453207,222.720233 28.9286443,218.579665 C30.9973324,210.30172 26.2672303,203.207099 24.4943732,195.520816 C22.7204519,191.97191 19.763207,188.720962 18.2851166,184.877289 C13.8508455,191.381312 13.5560787,199.659257 12.3727551,207.64137 C15.9195335,211.189213 15.6247668,216.806808 15.6247668,221.241079 L22.7204519,232.475204 C23.3110496,233.06793 22.7204519,234.249125 22.1277259,233.953294 C15.3289359,225.67535 9.41657434,215.623484 5.57183673,205.276851 C5.57183673,204.979956 6.16456268,204.093528 6.75516035,204.389359 C9.41657434,208.82363 10.8936006,214.145394 13.5560787,218.875496 L13.8508455,214.737055 C12.0769242,210.893382 8.8238484,206.16328 11.4852624,201.729009 C10.3019388,196.702012 4.6864723,194.041662 0.54696793,191.97191 C-0.636355685,198.772828 2.02399417,204.68519 3.20731778,210.598615 C5.27600583,214.441224 5.86766764,218.875496 7.34575802,223.015 L14.7372741,230.405452 C18.8757143,234.544956 25.3818659,239.570889 25.6766327,246.664446 C25.6766327,249.031093 23.0152187,247.551939 23.6068805,249.621691 C25.9713994,250.214417 27.154723,252.874767 28.9286443,254.647624 C28.9286443,249.031093 28.0400875,242.822901 26.857828,237.205306 C25.9713994,229.814854 33.6587464,225.379519 35.7274344,218.875496 L35.1368367,210.598615 L35.1368367,210.598615 Z M22.4224927,228.3357 C19.170481,223.015 20.9465306,215.623484 19.170481,209.710058 C18.2851166,206.459111 17.3976239,202.911268 17.6934548,199.659257 L18.2851166,199.659257 C21.5371283,208.82363 20.9465306,218.875496 23.6068805,228.039869 C23.6068805,228.632595 22.7204519,228.3357 22.4224927,228.3357 L22.4224927,228.3357 Z" id="Fill-36" sketch:type="MSShapeGroup"></path>
                <path d="M352.956064,200.841516 C356.502843,207.345539 350.887376,212.666239 350.29465,218.875496 C353.251895,215.328717 355.025816,209.710058 357.095569,204.68519 C357.390335,204.389359 357.980933,204.979956 358.277828,205.276851 C355.617478,215.623484 349.999883,225.379519 342.312536,233.06793 L341.425044,232.180437 L348.225962,223.606662 C348.81656,219.467157 348.225962,213.850627 351.477974,210.006953 C353.546662,202.911268 349.408222,196.11035 348.81656,189.312624 L346.453105,184.877289 C345.564548,186.355379 343.791691,188.1293 343.496924,190.197988 C337.285539,196.998907 337.582434,207.64137 334.034592,215.919315 L337.582434,222.423338 L338.174096,230.997114 L337.582434,231.292945 C336.990773,231.587711 336.696006,231.292945 336.400175,230.997114 C337.582434,224.49309 334.329359,221.831676 332.260671,216.806808 C333.148163,209.415292 335.512682,202.615437 337.582434,195.815583 C336.105408,191.086545 334.626254,186.355379 329.895087,183.989796 C328.121166,185.172055 329.599257,187.833469 329.008659,189.607391 C329.30449,196.11035 323.981662,202.02484 328.121166,208.231968 L328.713892,220.353586 C331.670073,226.857609 338.468863,230.997114 337.285539,238.978163 C336.105408,240.456254 336.400175,242.52707 334.92102,244.00516 C336.105408,247.84777 334.034592,251.691443 335.216851,255.239286 C335.807449,253.465364 337.582434,251.987274 338.764694,250.80395 C339.652187,249.326924 344.086458,249.918586 342.312536,247.551939 C341.425044,247.551939 339.356356,249.031093 338.468863,247.551939 C338.468863,244.00516 339.652187,241.04898 341.130277,238.092799 C345.860379,232.769971 352.067507,227.744038 357.095569,223.015 C358.86949,215.919315 361.235073,209.415292 363.894359,202.911268 L364.487085,191.677143 C359.164257,192.268805 356.208076,196.702012 352.956064,200.841516 L352.956064,200.841516 Z M340.539679,227.448207 C340.242784,225.67535 341.425044,224.49309 342.01777,223.015 C342.904198,215.623484 343.496924,207.64137 345.564548,200.250918 C346.15621,199.659257 347.931195,199.363426 347.6343,200.841516 C345.269781,208.231968 344.381224,216.214082 343.198965,223.901429 C342.312536,225.083688 342.312536,227.744038 340.539679,227.448207 L340.539679,227.448207 Z" id="Fill-37" sketch:type="MSShapeGroup"></path>
                <path d="M334.034592,242.52707 C331.965904,245.186356 328.713892,241.936472 326.347245,241.04898 C325.459752,240.456254 325.459752,239.273994 325.756647,238.092799 C326.643076,236.613644 328.415933,236.318878 329.895087,236.613644 C331.965904,238.092799 332.555437,240.456254 334.034592,242.52707" id="Fill-38" sketch:type="MSShapeGroup"></path>
                <path d="M38.0930175,238.092799 C39.5711079,241.34481 35.4316035,241.34481 34.249344,242.821837 C32.7712536,242.230175 31.58793,243.413499 30.4067347,243.413499 C30.7025656,240.752085 31.2931633,238.387566 33.6587464,236.909475 C35.1368367,237.205306 38.0930175,235.136618 38.0930175,238.092799" id="Fill-39" sketch:type="MSShapeGroup"></path>
                <path d="M22.1277259,247.84777 C20.9465306,249.326924 17.9903499,248.440496 15.9195335,248.735262 C15.0341691,248.142536 14.7372741,246.664446 15.0341691,245.778017 L15.6247668,243.708265 C18.8757143,243.117668 19.763207,246.369679 22.1277259,247.84777" id="Fill-40" sketch:type="MSShapeGroup"></path>
                <path d="M349.999883,246.664446 C349.704052,247.551939 349.704052,248.735262 348.521793,249.326924 C346.747872,249.918586 344.677055,249.326924 344.086458,247.551939 C344.086458,246.073848 344.975015,244.00516 346.747872,243.708265 C348.521793,244.00516 349.999883,244.890525 349.999883,246.664446" id="Fill-41" sketch:type="MSShapeGroup"></path>
                <path d="M46.6678571,251.691443 C47.2584548,257.899636 52.2833236,262.334971 54.6499708,267.950437 C54.3541399,275.637784 57.6061516,281.848105 58.1967493,288.940598 L54.058309,299.289359 C51.6927259,296.92484 54.3541399,293.375933 53.761414,290.123921 L54.058309,284.507391 L41.9356268,265.586983 C41.6397959,260.264155 42.5283528,254.943455 46.0751312,251.691443 L46.6678571,251.691443" id="Fill-42" sketch:type="MSShapeGroup"></path>
                <path d="M322.207741,265.586983 C317.775598,275.047187 306.244577,282.438703 311.269446,294.855087 C310.974679,296.037347 310.384082,297.219606 310.086122,298.698761 C308.313265,293.671764 304.766487,289.236429 306.540408,283.324067 C309.496589,278.298134 308.609096,272.089942 309.791356,266.473411 C312.158003,261.447478 317.775598,257.602741 317.775598,251.987274 C322.207741,254.943455 321.912974,260.559985 322.207741,265.586983" id="Fill-43" sketch:type="MSShapeGroup"></path>
                <path d="M53.4655831,301.358047 C48.4407143,297.219606 53.1708163,290.715583 52.2833236,285.099052 L39.8680029,265.881749 C36.0222012,264.698426 33.3629155,260.559985 30.1087755,257.602741 L29.2234111,257.899636 C27.154723,266.473411 30.9973324,274.751356 31.58793,283.324067 L36.9096939,287.758338 C37.5002915,291.603076 38.6846793,294.263426 40.1627697,297.810204 L39.5711079,298.400802 C36.3190962,296.333178 36.3190962,292.193673 35.1368367,288.645831 C29.519242,286.577143 28.9286443,280.663717 28.3359184,275.637784 C26.5630612,275.047187 25.0839067,273.863863 23.6068805,272.682668 C20.6496356,272.089942 17.6934548,269.429592 14.4414431,270.317085 C16.2153644,281.255379 25.6766327,289.236429 30.9973324,298.698761 C39.2763411,304.314227 51.6927259,305.20172 55.5374636,316.141079 C56.422828,317.915 54.3541399,318.506662 53.761414,317.915 C53.1708163,319.097259 52.2833236,318.209767 51.396895,318.506662 C51.6927259,319.097259 51.1021283,319.982624 51.9885569,319.982624 C54.058309,319.687857 57.0155539,319.097259 57.6061516,317.028571 L58.1967493,317.323338 L58.7894752,316.731676 C59.6748397,310.523484 51.396895,308.158965 53.4655831,301.358047 L53.4655831,301.358047 Z M46.0751312,296.92484 C43.4137172,289.829155 39.2763411,283.028236 36.0222012,275.933615 C35.4316035,274.751356 32.7712536,272.682668 35.4316035,272.089942 C39.5711079,279.776224 44.5970408,287.167741 46.6678571,295.444621 C47.5532216,296.627945 49.3271429,296.627945 49.3271429,298.400802 C47.8490525,299.584125 47.2584548,297.219606 46.0751312,296.92484 L46.0751312,296.92484 Z" id="Fill-44" sketch:type="MSShapeGroup"></path>
                <path d="M332.851268,299.289359 C338.174096,289.534388 348.521793,281.550146 349.999883,270.021254 C346.747872,269.726487 343.496924,270.906618 340.539679,272.089942 C336.696006,273.273265 334.626254,277.707536 334.92102,281.848105 C333.738761,286.280248 327.826399,287.758338 327.530569,293.081166 C331.077347,290.715583 335.216851,285.394883 338.174096,281.255379 C338.764694,280.663717 339.946953,280.959548 339.946953,281.848105 C333.148163,291.307245 325.459752,298.698761 316.297507,304.611122 C315.40895,304.906953 314.521458,304.611122 314.521458,303.72363 C317.477638,301.358047 321.025481,299.584125 323.686895,296.92484 C326.643076,292.786399 326.937843,286.280248 332.260671,283.620962 C333.443994,277.115875 334.92102,271.204577 335.807449,264.107828 C335.807449,262.037012 334.329359,259.968324 334.92102,257.899636 L334.034592,257.602741 C331.077347,259.968324 328.415933,263.516166 324.574388,265.586983 C319.844286,274.161822 308.017434,282.142872 313.043367,293.968659 C313.043367,296.92484 312.45277,299.584125 310.974679,301.654942 C311.269446,308.158965 304.47172,311.115146 304.766487,317.323338 L306.835175,316.435845 L307.427901,319.392026 L312.158003,319.392026 L312.158003,318.209767 L309.496589,318.209767 C308.609096,317.619169 308.313265,316.435845 308.609096,315.25465 C313.636093,305.792318 323.686895,303.428863 332.851268,299.289359 L332.851268,299.289359 Z M316.590146,295.741516 C320.139052,287.758338 323.981662,279.776224 329.008659,272.089942 C329.30449,272.089942 330.191983,272.385773 329.895087,272.977434 C325.756647,280.663717 321.322376,288.351064 318.366195,296.627945 C316.887041,297.515437 315.999548,299.584125 314.521458,298.698761 C313.93086,297.219606 315.704781,296.92484 316.590146,295.741516 L316.590146,295.741516 Z" id="Fill-45" sketch:type="MSShapeGroup"></path>
                <path d="M65.5872012,305.792318 C64.4049417,308.454796 62.3351895,309.931822 59.6748397,311.115146 C57.9009184,308.454796 59.6748397,305.497551 60.8581633,302.836137 C62.6310204,301.654942 66.1799271,303.133032 65.5872012,305.792318" id="Fill-46" sketch:type="MSShapeGroup"></path>
                <path d="M304.766487,305.20172 C304.766487,306.680875 304.173761,308.749563 305.061254,309.931822 L305.061254,310.820379 C302.695671,309.637055 298.263528,308.158965 297.670802,305.20172 C297.670802,303.72363 299.443659,303.428863 300.332216,302.836137 C302.105073,302.54137 304.173761,303.428863 304.766487,305.20172" id="Fill-47" sketch:type="MSShapeGroup"></path>
                <path d="M87.7617493,325.89605 C89.5346064,328.85223 88.9450729,333.287566 93.0835131,334.469825 C96.040758,338.90516 95.1522012,345.40812 93.6741108,350.138222 C91.0137609,346.295612 91.9012536,340.973848 88.9450729,337.131239 L89.2398397,336.538513 C84.2139067,331.808411 78.0057143,328.85223 72.6839504,322.938805 C70.6152624,319.097259 69.4308746,312.593236 72.3881195,308.749563 C76.2307289,315.550481 85.1003353,318.209767 87.7617493,325.89605" id="Fill-48" sketch:type="MSShapeGroup"></path>
                <path d="M291.462609,323.531531 C285.253353,328.557464 277.862901,331.808411 273.42863,338.609329 C272.244242,342.451939 273.132799,347.183105 270.472449,349.843455 C269.583892,346.000845 267.219373,340.973848 269.583892,336.836472 C274.905656,332.991735 275.497318,326.192945 278.748265,320.870117 C282.88777,316.435845 288.506429,314.071327 291.757376,308.749563 C295.602114,313.183834 291.462609,318.506662 291.462609,323.531531" id="Fill-49" sketch:type="MSShapeGroup"></path>
                <path d="M320.434883,317.323338 C320.730714,319.097259 319.844286,320.870117 318.070364,321.462843 C316.590146,322.052376 315.112055,320.870117 314.521458,319.687857 C313.341327,318.506662 314.521458,317.028571 315.704781,316.141079 C317.182872,314.957755 319.844286,315.25465 320.434883,317.323338" id="Fill-50" sketch:type="MSShapeGroup"></path>
                <path d="M49.3271429,317.028571 C49.6240379,319.097259 49.9198688,321.462843 47.5532216,321.757609 C45.4845335,322.348207 44.8918076,320.57535 44.005379,319.687857 C44.005379,318.209767 43.7106122,315.845248 45.7793003,315.845248 C46.9626239,316.141079 48.4407143,316.141079 49.3271429,317.028571" id="Fill-51" sketch:type="MSShapeGroup"></path>
                <path d="M102.542653,364.92019 C101.360394,363.73793 101.657289,361.965073 99.8833673,361.373411 C96.3355248,360.485918 93.6741108,356.643309 93.9699417,352.799636 C89.5346064,350.138222 90.4220991,344.522755 88.649242,340.08742 C84.2139067,333.287566 76.2307289,330.923047 71.2047959,324.122128 L62.9289796,321.757609 C62.0404227,320.57535 60.5623324,319.687857 59.084242,320.870117 C58.7894752,323.531531 58.7894752,326.192945 60.2665015,328.557464 L67.3611224,342.451939 C72.0933528,345.705015 78.300481,348.069534 80.3702332,353.981895 C78.596312,356.050583 78.300481,351.914271 76.2307289,352.503805 C75.3443003,351.914271 76.5276239,351.616312 76.2307289,351.026778 C72.3881195,346.000845 63.814344,345.705015 63.2237464,338.313499 C61.15293,334.469825 55.8332945,336.836472 52.5802187,334.765656 L48.1459475,336.538513 C51.396895,344.818586 59.9696064,349.252857 67.0652915,353.391297 C70.9100292,357.824504 77.1182216,360.191152 83.0316472,359.303659 C89.2398397,360.191152 96.6302915,360.485918 99.5875364,366.989942 C100.179198,369.060758 96.3355248,368.764927 98.1094461,370.833615 C101.360394,369.060758 105.499898,370.243017 108.75191,371.129446 L109.048805,370.243017 C106.979052,368.764927 104.021808,367.581603 102.542653,364.92019 L102.542653,364.92019 Z M89.5346064,352.799636 C86.2825948,352.503805 83.6211808,349.252857 81.2577259,346.590379 C78.596312,340.382187 71.7964577,337.131239 67.6580175,332.10637 C67.3611224,331.217813 68.2486152,330.923047 68.8413411,331.217813 C75.0495335,336.538513 80.0754665,342.451939 85.3961662,348.95809 C86.5773615,349.843455 88.056516,351.321545 89.5346064,351.616312 C89.8325656,351.914271 89.8325656,352.503805 89.5346064,352.799636 L89.5346064,352.799636 Z" id="Fill-52" sketch:type="MSShapeGroup"></path>
                <path d="M305.061254,335.357318 C301.809242,335.94898 300.332216,338.609329 298.853061,341.56551 C296.784373,346.590379 290.279286,345.705015 287.914767,351.026778 L302.39984,342.749898 C302.992566,343.044665 302.992566,343.635262 303.288397,343.930029 C295.009388,350.730948 284.958586,354.572493 274.905656,357.528673 C274.018163,357.824504 272.244242,359.007828 271.949475,357.233907 C272.244242,355.459985 274.313994,356.643309 274.905656,355.165219 C279.636822,353.095466 286.436676,353.391297 288.210598,347.183105 C289.983455,344.226924 293.235466,343.930029 295.89688,342.157172 C299.73949,335.357318 304.47172,328.85223 305.948746,320.870117 C301.809242,318.801429 298.558294,324.122128 294.122959,323.827362 C287.914767,328.85223 279.931589,332.401137 275.497318,338.90516 C274.313994,344.522755 274.018163,350.138222 269.878659,354.277726 C270.176618,360.780685 262.192376,361.078644 260.123688,365.808746 C259.235131,368.173265 255.984184,368.173265 255.39465,370.537784 C258.645598,368.764927 263.671531,369.946122 266.627711,371.129446 C267.809971,369.060758 263.966297,368.764927 264.559023,366.694111 C269.288061,356.93914 281.409679,360.485918 289.983455,358.711997 C292.939636,355.755816 297.374971,354.277726 300.332216,350.730948 C307.427901,348.660131 312.45277,341.861341 316.590146,335.94898 C313.043367,335.062551 308.609096,334.175058 305.061254,335.357318 L305.061254,335.357318 Z M277.270175,350.138222 C283.182536,343.635262 288.506429,336.538513 295.89688,331.51258 L296.192711,332.401137 C289.983455,337.721837 284.36586,344.818586 278.157668,351.026778 C276.974344,351.321545 275.497318,353.391297 274.610889,351.914271 C274.610889,350.730948 276.679577,351.321545 277.270175,350.138222 L277.270175,350.138222 Z" id="Fill-53" sketch:type="MSShapeGroup"></path>
                <path d="M106.092624,352.209038 C106.387391,355.459985 103.725977,357.824504 101.657289,360.485918 C100.475029,357.824504 98.9969388,354.572493 100.179198,352.209038 C101.065627,349.547624 104.614534,351.026778 106.092624,352.209038" id="Fill-54" sketch:type="MSShapeGroup"></path>
                <path d="M264.264257,353.095466 C264.559023,355.459985 264.264257,358.122464 263.3757,360.191152 C260.714286,360.780685 259.827857,357.528673 258.645598,356.050583 C258.052872,354.870452 257.463338,353.391297 258.349767,352.209038 C259.827857,350.435117 263.966297,350.138222 264.264257,353.095466" id="Fill-55" sketch:type="MSShapeGroup"></path>
                <path d="M90.71793,356.93914 C90.71793,357.233907 90.71793,358.122464 90.1273324,357.824504 C89.2398397,356.93914 85.987828,357.824504 87.4659184,355.755816 C88.9450729,355.459985 89.8325656,356.346414 90.71793,356.93914" id="Fill-56" sketch:type="MSShapeGroup"></path>
                <path d="M244.751122,361.668178 C243.567799,365.21602 241.496983,368.764927 238.837697,371.424213 C232.627376,374.380394 225.533819,374.085627 219.91516,378.519898 C217.549577,381.476079 216.369446,385.023921 213.706968,387.389504 C213.412201,383.840598 214.002799,379.110496 216.95898,376.45121 C221.984913,374.085627 224.941093,369.060758 229.080598,365.21602 C233.8107,362.25984 239.724125,362.25984 244.158397,358.41723 C245.34172,358.713061 245.045889,360.485918 244.751122,361.668178" id="Fill-57" sketch:type="MSShapeGroup"></path>
                <path d="M133.882638,364.92019 C134.770131,366.399344 137.428353,366.694111 137.133586,368.764927 C140.682493,374.678353 150.143761,374.678353 149.552099,382.659402 L150.438528,386.796778 C146.59379,385.023921 147.186516,380.293819 143.934504,377.9293 C137.726312,374.974184 131.221224,372.606472 124.717201,370.833615 C121.76102,367.877434 119.987099,363.147332 119.987099,358.713061 C124.422434,361.078644 128.85777,364.034825 133.882638,364.92019" id="Fill-58" sketch:type="MSShapeGroup"></path>
                <path d="M275.201487,371.129446 C275.497318,372.902303 274.018163,374.085627 272.835904,374.678353 C271.357813,375.26895 269.878659,374.085627 268.697464,372.606472 C268.99223,371.424213 268.105802,370.243017 269.583892,369.355525 C271.949475,369.650292 274.905656,367.581603 275.201487,371.129446" id="Fill-59" sketch:type="MSShapeGroup"></path>
                <path d="M96.3355248,370.537784 C96.040758,372.606472 94.5616035,373.495029 93.0835131,374.380394 C91.3095918,374.380394 90.1273324,373.199198 89.2398397,372.311706 C88.9450729,371.129446 89.2398397,369.946122 90.4220991,369.355525 C92.7887464,369.355525 94.5616035,369.650292 96.3355248,370.537784" id="Fill-60" sketch:type="MSShapeGroup"></path>
                <path d="M156.208294,394.48519 C153.549009,390.936283 149.409504,388.571764 146.453324,384.72809 C146.453324,382.659402 144.679402,381.476079 143.79191,379.703222 C137.287886,376.154315 130.486968,374.678353 123.689242,372.311706 L111.270729,372.016939 C113.340481,379.110496 121.618426,383.251064 126.348528,388.867595 C131.079694,389.163426 135.218134,390.345685 138.767041,393.30293 C142.906545,393.597697 148.226181,392.710204 152.070918,394.189359 C152.070918,394.48519 151.776152,395.076851 151.478192,395.371618 C141.130496,395.076851 129.602668,396.553878 121.027828,391.82484 L121.618426,390.936283 C126.053761,392.119606 131.079694,393.30293 135.81086,393.30293 C133.148382,390.936283 129.304708,391.529009 126.053761,390.641516 L120.733061,385.616647 C115.705,385.318688 110.680131,386.502012 107.72395,390.050918 C115.705,396.553878 126.645423,396.553878 135.218134,400.989213 C139.356574,400.989213 142.906545,398.918397 146.74809,398.033032 C151.183426,396.553878 157.095787,396.849708 160.940525,400.10172 C161.531122,400.693382 161.531122,402.76207 160.64363,403.057901 C163.59981,402.172536 168.035146,401.874577 170.695496,403.945394 L170.695496,402.467303 C165.374796,400.693382 162.12172,395.076851 156.208294,394.48519 L156.208294,394.48519 Z M146.59379,391.529009 C138.31691,388.275933 130.630627,383.840598 122.351618,380.293819 L122.944344,379.110496 C131.221224,382.067741 138.907507,387.094738 147.777114,390.345685 C148.075073,390.936283 147.186516,391.82484 146.59379,391.529009 L146.59379,391.529009 Z" id="Fill-61" sketch:type="MSShapeGroup"></path>
                <path d="M249.185394,386.207245 C244.453163,383.545831 241.793878,388.275933 238.837697,390.641516 L235.880452,390.936283 C233.220102,391.232114 229.671195,391.529009 228.49,393.893528 C233.514869,392.710204 238.837697,391.82484 243.567799,391.529009 C243.273032,392.119606 243.273032,392.710204 242.680306,393.008163 C238.540802,394.189359 234.105466,394.189359 230.263921,395.666385 C224.941093,395.666385 219.027668,395.076851 213.412201,395.076851 C212.524708,394.48519 212.524708,393.597697 213.412201,393.30293 L224.941093,393.597697 C227.01191,393.008163 227.897274,389.752959 230.559752,390.050918 C233.220102,390.050918 235.28879,388.571764 237.950204,388.867595 C242.680306,382.955233 250.958251,379.703222 253.026939,371.721108 C251.254082,372.016939 249.481224,371.721108 247.705175,372.016939 C238.244971,371.424213 229.671195,375.563717 221.690146,379.110496 C218.731837,382.362507 217.549577,387.094738 213.706968,389.163426 C212.524708,395.076851 206.020685,394.48519 202.471778,397.737201 C203.064504,399.805889 200.40309,400.989213 199.515598,402.172536 C202.177012,400.989213 203.949869,404.535991 205.133192,404.241224 C205.133192,402.467303 201.881181,402.172536 203.655102,399.805889 C211.341385,392.119606 220.506822,400.693382 228.785831,400.989213 C232.924271,399.511122 236.76688,398.033032 241.202216,396.849708 C247.410408,396.553878 251.844679,392.415437 256.871676,389.752959 C255.096691,387.094738 251.844679,386.796778 249.185394,386.207245 L249.185394,386.207245 Z M216.369446,390.050918 C225.23586,387.684271 232.036778,382.067741 240.906385,379.110496 L241.202216,379.703222 L240.906385,380.588586 L219.325627,390.936283 C218.142303,390.345685 216.071487,392.119606 216.369446,390.050918 L216.369446,390.050918 Z" id="Fill-62" sketch:type="MSShapeGroup"></path>
                <path d="M162.418615,389.163426 C161.825889,391.232114 161.531122,393.30293 160.347799,394.48519 C160.64363,392.710204 157.984344,390.936283 157.686385,388.867595 C157.984344,387.980102 158.279111,386.796778 159.462434,386.502012 C161.531122,386.207245 162.418615,387.389504 162.418615,389.163426" id="Fill-63" sketch:type="MSShapeGroup"></path>
                <path d="M159.167668,404.830758 C158.869708,406.309913 158.869708,407.788003 157.390554,408.675496 C156.50519,409.266093 154.434373,409.561924 153.84484,408.380729 C152.661516,407.492172 153.84484,406.309913 153.254242,405.126589 C155.027099,403.945394 157.095787,403.353732 159.167668,404.830758" id="Fill-64" sketch:type="MSShapeGroup"></path>
                <path d="M211.341385,406.901574 C211.046618,408.084898 209.567464,408.675496 208.090437,408.971327 C206.907114,408.675496 206.020685,407.492172 205.72379,406.309913 C206.316516,404.535991 211.341385,403.945394 211.341385,406.901574" id="Fill-65" sketch:type="MSShapeGroup"></path>
                <path d="M176.455685,411.631676 C159.012303,421.682478 140.385598,429.369825 123.239111,440.605015 C125.013032,436.169679 127.08172,432.030175 127.673382,427.301137 C132.404548,425.527216 137.726312,425.232449 142.751181,424.638659 C146.003192,422.275204 149.84793,421.980437 153.098878,420.501283 C160.786224,417.839869 167.289184,414.587857 174.385933,410.744184 C175.273426,411.03895 176.15879,410.744184 176.455685,411.631676" id="Fill-66" sketch:type="MSShapeGroup"></path>
                <path d="M229.080598,425.232449 L239.133528,427.301137 C239.133528,432.326006 241.496983,436.169679 243.273032,440.605015 C227.01191,429.66672 209.272697,422.275204 192.124082,413.700364 L190.351224,411.927507 L191.533484,411.03895 C203.949869,416.362843 215.77672,422.569971 229.080598,425.232449" id="Fill-67" sketch:type="MSShapeGroup"></path>
                <path d="M125.013032,429.961487 C123.829708,435.873848 120.281866,441.785146 115.552828,445.039286 C115.552828,439.421691 120.577697,433.804096 124.717201,429.961487 L125.013032,429.961487" id="Fill-68" sketch:type="MSShapeGroup"></path>
                <path d="M251.254082,444.742391 C249.481224,445.629883 248.888499,443.2643 247.410408,442.378936 C244.453163,439.12586 242.089708,434.396822 242.089708,430.257318 C245.34172,434.98742 250.663484,438.831093 251.254082,444.742391" id="Fill-69" sketch:type="MSShapeGroup"></path>
                <path d="M215.186122,435.790845 C207.49984,431.651341 201.289519,426.625408 195.968819,419.827682 C193.896939,416.870437 188.577303,416.277711 187.099213,412.436166 C185.620058,408.295598 191.829315,409.478921 191.238717,405.932143 C192.420977,405.04465 192.716808,403.56656 193.307405,402.975962 C195.672988,400.609315 198.925,399.427055 199.810364,396.175044 C204.542595,393.217799 211.046618,389.672085 210.158061,382.575335 C210.158061,381.393076 208.976866,380.802478 208.089373,379.913921 C195.968819,377.254636 180.89102,376.367143 169.065233,379.913921 C167.88191,378.73379 168.767274,377.550466 169.950598,376.66191 C176.750452,374.298455 185.620058,374.593222 193.307405,374.298455 C199.220831,374.887988 206.020685,374.002624 209.863294,378.73379 C210.750787,377.550466 209.567464,376.072376 209.272697,374.298455 C206.020685,370.749548 200.40309,372.525598 196.559417,370.749548 C193.012638,371.637041 188.577303,369.864184 184.732566,371.046443 C178.524373,372.227638 170.83809,371.637041 166.698586,376.959869 C164.038236,382.575335 168.767274,387.601268 171.428688,391.740773 C173.202609,391.740773 173.202609,393.51363 172.906778,394.992784 C178.229606,399.131224 170.245364,401.497872 172.317245,406.522741 C173.794271,406.817507 174.385933,409.184155 176.15879,408.295598 C177.342114,409.478921 180.003528,408.295598 179.114971,410.958076 C178.569067,412.593659 177.927391,412.846924 177.826297,413.144883 C175.220219,415.075233 171.77879,417.509985 168.453353,418.84016 C157.279883,422.721079 147.88672,434.091414 139.31188,441.187099 C137.83379,442.368294 134.770131,443.476064 133.882638,444.659388 C135.359665,446.138542 137.726312,446.72914 140.090831,446.433309 L150.438528,434.904417 C159.308134,426.03481 170.543324,421.600539 179.707697,415.095452 C180.299359,415.095452 181.186851,413.026764 181.776385,414.800685 C180.299359,418.051633 177.63688,419.827682 175.273426,421.89637 C169.36,426.329577 156.830816,430.698936 153.282974,438.090452 L146.089388,444.882857 L145.412595,447.026035 C147.186516,448.501997 148.960437,450.276983 150.733294,449.685321 C150.733294,441.704271 158.419577,439.635583 162.264315,433.722157 C170.245364,427.808732 178.524373,423.07863 185.325292,416.277711 C190.94395,419.827682 193.012638,426.625408 195.968819,432.243003 C198.037507,438.156429 203.064504,440.225117 208.089373,442.591764 C212.524708,444.659388 214.593397,449.38949 214.890292,454.415423 C215.186122,457.076837 211.934111,458.259096 213.706968,460.623615 C215.77672,459.44242 218.43707,459.145525 219.325627,457.076837 C217.25481,455.302915 218.142303,452.641501 217.549577,450.276983 C216.369446,444.659388 211.934111,439.93035 206.611283,438.451195 C200.697857,432.834665 195.672988,426.921239 191.829315,419.529723 C191.829315,418.939125 192.420977,418.939125 193.012638,418.939125 L207.202945,434.607522 C212.819475,436.085612 216.071487,440.225117 220.506822,444.069854 C222.281808,445.843776 223.463003,448.501997 224.941093,449.981152 C225.828586,449.38949 226.419184,447.616633 226.71395,446.72914 C222.872405,443.181297 219.620394,438.747026 215.186122,435.790845 L215.186122,435.790845 Z M197.44691,397.737201 C196.282741,398.20223 195.12602,399.214227 194.393892,400.059155 C194.22363,400.354985 194.060816,400.58484 193.896939,400.693382 C194.023571,400.505029 194.195962,400.28688 194.393892,400.059155 C195.15156,398.740685 196.052886,396.071822 197.741676,396.553878 L197.44691,397.737201 L197.44691,397.737201 Z M204.2457,390.936283 L200.108324,393.893528 C199.515598,389.163426 203.655102,386.207245 205.72379,382.659402 C210.158061,385.023921 203.949869,387.684271 204.2457,390.936283 L204.2457,390.936283 Z M176.614242,382.381662 C180.16102,380.016079 184.891122,381.788936 189.030627,380.903571 L201.743907,381.199402 C202.039738,383.859752 198.196064,384.45035 199.083557,387.407595 C197.014869,388.589854 196.717974,390.954373 195.831545,392.432464 C192.579534,394.50328 191.101443,398.051122 188.145262,400.118746 C185.778615,399.233382 183.117201,398.051122 180.16102,398.051122 C179.275656,396.571968 181.049577,394.50328 180.16102,392.432464 C178.092332,389.476283 175.726749,386.521166 176.614242,382.381662 L176.614242,382.381662 Z M177.342114,398.033032 C174.977595,397.44137 177.047347,393.893528 175.568192,392.415437 C173.794271,389.163426 170.245364,387.094738 169.065233,383.545831 L171.133921,382.659402 C174.090102,387.094738 179.41293,392.415437 177.342114,398.033032 L177.342114,398.033032 Z M184.322872,405.350058 C184.322872,406.448251 184.820889,406.507843 184.820889,407.606035 C184.820889,408.579723 183.721633,408.68188 183.122522,409.429971 C182.722405,409.953528 182.774548,410.452609 182.722405,411.127274 C182.497872,410.153586 182.247799,409.478921 181.525248,408.829796 C180.673936,408.055102 177.927391,406.998411 177.927391,405.84914 C177.927391,404.500875 178.401997,404.524286 178.826589,403.251574 C179.002172,402.701414 179.125612,401.751137 179.526793,401.352085 L185.119913,402.451341 L187.019402,404.050743 C186.768265,405.024431 184.322872,404.350831 184.322872,405.350058 L184.322872,405.350058 Z" id="Fill-70" sketch:type="MSShapeGroup"></path>
            </g>
        </g>
    </g>
</svg>