<?xml version="1.0" encoding="UTF-8"?>
<svg width="150px" height="150px" viewBox="0 0 150 150" version="1.1" xmlns="http://www.w3.org/2000/svg" xmlns:xlink="http://www.w3.org/1999/xlink">
    <!-- Generator: Sketch 41.1 (35376) - http://www.bohemiancoding.com/sketch -->
    <title>icon_santafe</title>
    <desc>Created with Sketch.</desc>
    <defs></defs>
    <g id="Provincias" stroke="none" stroke-width="1" fill="none" fill-rule="evenodd">
        <g id="icon_santafe" fill="#FFFFFF">
            <path d="M39.0000165,144.944116 L59.0419794,145 L73.7082305,126.53068 C74.8789316,125.084943 76.5750045,125.858678 78.0405602,126.363755 C79.0544524,127.018563 79.997985,127.302981 80.5977347,125.749783 L83.3117345,121.95562 L84.8255324,119.779134 L81.1720348,116.598945 L78.4057744,113.251112 L76.8396995,109.009903 L76.6835603,105.885594 C76.6835603,105.885594 76.2660692,104.937054 76.3183516,104.71353 C76.3706121,104.490007 76.3706121,100.639964 76.3706121,100.639964 C76.3706121,100.639964 76.3706121,99.0774513 76.6835493,98.6311225 C76.9971672,98.184792 77.6230581,95.2832884 77.7282653,94.8921229 C77.8321385,94.5016744 77.2585137,91.8236959 77.2585137,91.8236959 L77.5714618,88.8663114 L82.2174095,84.1787749 L86.4451963,81.8912424 L89.0553119,78.3205993 L93.2301685,69.4484503 L97.2488748,61.8594113 L97.1449961,58.7902651 L96.5184465,54.1593265 L97.405014,49.4717966 L97.5095515,47.0166147 L96.4132338,44.9518961 L97.4043388,41.2128993 L98.0315801,35.4664915 C98.0315801,35.4664915 99.1794886,32.8995511 99.3356333,32.6201408 C99.4917616,32.3407426 102.676177,30.723067 102.676177,30.723067 L105.285629,27.7656825 C105.285629,27.7656825 106.225138,25.4222618 106.225138,24.4178462 C106.225138,23.4134279 106.538086,21.0141384 106.590346,20.5119271 C106.642607,20.0097212 107.477589,18.5030817 107.477589,18.5030817 L107.582126,13.2574557 L108.318593,9.89242838 L109.461139,7.56692387 L110.765867,6.28310511 L111.392422,5.66984569 L111.392422,5.33456053 L59.30399,5 L58.6251525,11.8633026 L57.6333612,19.4523399 L56.5370654,26.3708146 L54.136689,42.8320026 L51.4333224,56.0565271 L57.8947241,65.0961979 L57.4256312,66.7145975 L51.8924572,84.1794891 C51.4769808,85.5937022 51.4582175,87.0064869 52.1537927,88.4206995 C52.9391769,89.7804623 52.0579616,90.6072125 51.5272376,91.5450096 C50.7706735,92.5451285 50.5790224,93.6319405 50.796134,94.7817951 L56.3293244,103.598064 L56.4331812,104.937054 L56.5893259,106.387805 L57.1636205,108.229005 C57.1636205,108.229005 57.5288347,109.45695 57.5811007,109.791518 C57.6327025,110.126803 58.31154,112.134929 58.31154,112.134929 L58.2599383,113.92025 L57.7379097,115.594524 L57.3726845,116.710706 L53.4055799,120.61663 L51.4220304,123.462253 L49.6482255,126.865965 L46.2554045,132.223356 L39,144.944116 L39.0000165,144.944116 Z" id="Santa_F__ss"></path>
        </g>
    </g>
</svg>