<?xml version="1.0" encoding="UTF-8" standalone="no"?>
<svg width="48px" height="48px" viewBox="0 0 48 48" version="1.1" xmlns="http://www.w3.org/2000/svg" xmlns:xlink="http://www.w3.org/1999/xlink" xmlns:sketch="http://www.bohemiancoding.com/sketch/ns">
    <!-- Generator: Sketch 3.1.1 (8761) - http://www.bohemiancoding.com/sketch -->
    <title>icono_industria</title>
    <desc>Created with Sketch.</desc>
    <defs></defs>
    <g id="Page-1" stroke="none" stroke-width="1" fill="none" fill-rule="evenodd" sketch:type="MSPage">
        <g id="icono_industria" sketch:type="MSArtboardGroup" fill="#FFFFFF">
            <g id="Imported-Layers" sketch:type="MSLayerGroup" transform="translate(11.000000, 5.000000)">
                <path d="M18.489,27.476 L18.489,20.465 L11.478,27.476 L11.478,20.789 L4.976,27.291 L4.298,13.107 L1.311,13.107 L0.143,37.539 L25.533,37.539 L25.533,20.432 L18.489,27.476" id="Fill-1" sketch:type="MSShapeGroup"></path>
                <path d="M2.804,11.992 C3.297,11.992 3.706,11.641 3.797,11.175 C4.098,11.321 4.434,11.405 4.791,11.405 C5.561,11.405 6.24,11.023 6.654,10.439 C6.764,10.459 6.877,10.474 6.993,10.474 C7.374,10.474 7.728,10.359 8.028,10.169 C8.48,10.468 9.022,10.642 9.604,10.642 C11.188,10.642 12.473,9.358 12.473,7.774 C12.473,7.572 12.452,7.377 12.412,7.187 C12.65,7.239 12.895,7.267 13.148,7.267 C15.058,7.267 16.607,5.719 16.607,3.808 C16.607,1.898 15.058,0.349 13.148,0.349 C11.668,0.349 10.409,1.279 9.915,2.586 C9.434,2.141 8.792,1.868 8.085,1.868 C6.594,1.868 5.386,3.076 5.386,4.567 C5.386,5.428 5.789,6.193 6.416,6.687 C6.167,6.765 5.942,6.89 5.747,7.054 C5.456,6.919 5.133,6.842 4.791,6.842 C3.531,6.842 2.509,7.863 2.509,9.124 C2.509,9.427 2.57,9.716 2.677,9.98 C2.179,10.043 1.792,10.464 1.792,10.98 C1.792,11.539 2.245,11.992 2.804,11.992" id="Fill-2" sketch:type="MSShapeGroup"></path>
            </g>
        </g>
    </g>
</svg>