<?xml version="1.0" encoding="UTF-8"?>
<svg width="150px" height="150px" viewBox="0 0 150 150" version="1.1" xmlns="http://www.w3.org/2000/svg" xmlns:xlink="http://www.w3.org/1999/xlink">
    <!-- Generator: Sketch 41.1 (35376) - http://www.bohemiancoding.com/sketch -->
    <title>icon_santacruz</title>
    <desc>Created with Sketch.</desc>
    <defs></defs>
    <g id="Provincias" stroke="none" stroke-width="1" fill="none" fill-rule="evenodd">
        <g id="icon_santacruz" fill="#FFFFFF">
            <path d="M95.7850157,144.12111 L97.6635428,143.93308 L97.2525139,144.874293 L97.6044463,145 L98.1921029,143.995484 L98.3096234,142.427258 L97.3109488,141.674075 L95.1395912,138.975819 L93.6136527,136.779338 L92.3805663,134.646035 L91.089045,131.884563 L89.9741461,130.127483 L89.0936482,128.746787 L88.5650935,128.872413 L88.0371788,129.562417 L87.3326579,130.691898 L86.3930636,129.248717 L87.274223,129.374305 L87.9189967,128.244857 L88.4475514,128.244857 L89.7981745,128.308041 L89.7981745,127.74297 L85.8651596,117.326563 L86.1002223,116.259562 L85.6891935,115.631312 L85.0437636,115.443157 L84.9262323,115.003675 L85.6891935,114.062462 L85.982691,112.493574 L85.2781646,110.736499 L85.5132219,108.728903 L85.982691,106.658107 L86.6281316,104.775471 L87.3910874,102.390883 L88.5059863,100.947648 L90.2078856,99.5669039 L94.0233745,97.371159 L94.6110257,96.7429143 C94.6110257,96.7429143 94.1409005,96.6804292 94.0824602,96.3666645 C94.0233745,96.0528783 92.9084649,95.4878018 92.9084649,95.4878018 L92.2045894,94.7352969 L91.3241023,92.8526282 L90.619576,90.2167554 L90.7961983,90.2799451 L93.4370304,94.7352969 L94.4934836,95.9904094 L95.8434667,95.9272358 L97.7804125,94.8602456 L99.0719445,93.4170109 C99.0719445,93.4170109 101.243297,91.1573986 101.184862,90.7186692 C101.126432,90.2792459 101.654331,88.208455 101.654331,88.208455 L101.888737,85.6989508 L101.654331,83.0006037 L102.241982,80.2390831 L102.476389,77.1013127 L102.769886,75.4699505 L102.124451,74.9048739 L102.065365,72.897262 L103.767915,69.256884 L105.234757,67.0611498 L106.701589,66.4335936 L107.99311,63.9858591 L108.111297,62.8571045 L109.930733,61.2882112 L111.574187,60.2212371 L114.215024,57.0834613 L115.624066,56.8953391 L115.683163,56.5183794 L116.504575,56.3302465 L116.387038,55.7020017 L116.622101,54.9495023 L117.912966,55.0119658 L117.972062,53.1924868 L119.733058,51.56113 L120.67198,49.9297678 L121.72845,49.8041199 L122.257015,49.239038 L123.489445,49.1765637 L123.313468,48.5483028 L122.608953,47.9832209 L123.137507,47.6069712 L122.961531,45.5993646 L124.545904,45.5361857 L124.663435,46.2893952 L125.250436,45.7243132 L125.016029,44.5323743 L123.90113,44.0929564 L124.135526,43.1516194 L123.725153,42.3991145 L123.31413,41.2064871 L123.95956,41.5202625 L124.193966,40.3908087 L124.722526,38.6969722 L124.898498,37.1905586 L125.132904,36.0610994 L125.132904,35.182952 L125.015373,34.2409158 L125.426396,33.3002941 L125.074459,32.8608547 L124.663435,31.542574 L124.60499,29.8487429 L124.897836,29.4093142 L124.134875,28.9698855 L122.432976,27.2760544 L121.199884,26.9622736 L120.084985,26.7116771 L117.209101,27.2767536 L115.50654,26.6484928 L114.626048,27.0254525 L112.982589,26.9622736 L112.748177,27.464182 L111.985221,26.7741514 L111.222255,27.0254525 L110.22422,26.460376 L109.343738,25.3309114 L108.111297,23.9501564 L106.349645,22.1931464 L105.880182,21.8168912 L105.703565,21.8793656 L105.410707,21.2518147 L104.354249,19.8710598 L103.532858,20.0598919 L103.297785,19.369856 L102.476389,19.1810185 L102.358863,18.7423052 L101.5368,19.1185495 L101.008901,17.9266214 L100.36281,17.8634424 L98.7784417,13.909999 L97.6044463,12.0905146 L97.1349826,9.39146288 L97.0758808,7.32138199 L97.6044463,6.12944308 L97.4284747,5.81567303 L97.9563787,5 C79.0083253,5.82830775 59.2644788,8.01632335 39.5554276,10.1453824 L39.73205,11.964856 L36.3276006,14.9144988 L38.792461,16.7971675 L39.6145187,19.0560913 L40.5534514,23.6370856 L40.788514,26.460376 L39.6729535,27.0879268 L37.149002,28.8449369 L37.3256244,30.4762884 L37.8541845,32.6102582 L38.2645571,33.9903193 L37.7950881,34.8067023 L38.6164948,35.9354569 L38.7931172,36.311712 L35.5061938,41.7083901 L33.3341746,44.3435583 L33.6867686,45.0335834 L34.0971412,47.7319306 L33.1582084,48.9870323 L32.3952419,50.8696902 L31.8666818,51.8110272 L31.9842131,53.8186338 L33.6867686,55.8894301 L34.8601077,57.2701796 L35.2126963,59.7796946 L36.5035668,61.6623525 L36.9736866,62.6668631 L36.9736866,63.733848 L35.6821653,64.7383532 L33.8042999,66.6834909 L33.3341746,68.566848 L33.6276721,69.3193637 L34.2146725,71.4526235 L33.9218312,73.9628376 L33.2172995,75.2179393 L31.4563108,76.5987051 L29.9894741,78.0419451 L28.9907919,80.6146228 L28.9323549,81.5559652 L33.0997736,82.3716436 L32.8653671,82.8110616 L25.8214014,82.6222455 L25.0584365,83.3122761 L25,85.6968316 L25.293498,88.6457806 L25.7629639,90.842214 L26.1739932,92.787357 L25.8214014,95.7369998 L25.4694664,97.1802237 L25.6460904,100.505422 L26.349961,103.455049 L28.3453572,109.604275 L28.8154804,111.361258 L30.6349088,113.432076 L31.749812,117.385482 L32.2777106,118.389992 L35.9756628,115.50355 L37.2087493,113.99711 L39.9080161,113.683329 L42.2560069,112.554623 L43.0189734,111.864581 L43.9579062,112.240809 L44.5455574,115.252954 L44.8390549,119.080733 L44.6624325,121.6534 L46.012394,125.919957 L45.7779876,127.36388 L45.5435812,128.807099 L45.015021,130.501694 L45.9546154,132.697358 L48.7720698,135.835134 L53.2914181,140.039249 L58.9263269,139.600503 L72.5434844,137.969136 L77.7082625,137.529691 L79.4101618,138.533508 L82.2276162,139.726135 L86.0430944,139.914284 L88.0975823,139.914284 L90.680641,141.231839 L93.7909313,141.734462 L95.6103566,142.55013 L95.7850157,144.12111 L95.7850157,144.12111 Z" id="Santa_Cruzonan_ss"></path>
        </g>
    </g>
</svg>