<?xml version="1.0" encoding="UTF-8"?>
<svg width="150px" height="150px" viewBox="0 0 150 150" version="1.1" xmlns="http://www.w3.org/2000/svg" xmlns:xlink="http://www.w3.org/1999/xlink">
    <!-- Generator: Sketch 41.1 (35376) - http://www.bohemiancoding.com/sketch -->
    <title>icono_cultura</title>
    <desc>Created with Sketch.</desc>
    <defs></defs>
    <g id="Provincias" stroke="none" stroke-width="1" fill="none" fill-rule="evenodd">
        <g id="icono_cultura" fill="#FFFFFF">
            <path d="M30.7857143,22.1427857 C27.9797614,22.1427857 24.8333329,25.1189857 24.8333329,28.0951714 L24.8333329,69.7619143 C24.8333329,82.9524286 30.7857143,99.524 54.5952386,99.524 C56.7302386,99.524 58.6796429,99.4225714 60.5476186,99.1548571 L60.5476186,81.6697143 L36.7380943,81.6697143 C36.7380943,81.6697143 39.7142857,69.7648857 54.5952386,69.7648857 C57.5714286,69.7648857 58.74125,70.2053714 60.5476186,70.8809571 L60.5476186,57.8601143 C60.5476186,52.4035571 62.7219643,47.8446143 66.5,45.9553286 C72.4523814,42.9791286 74.8554757,44.1809143 78.4047614,45.9553286 L84.3571429,48.9315286 L84.3571429,28.0981571 C84.3571429,25.1219571 81.2107143,22.1457571 78.4047614,22.1457571 C72.4523814,22.1457571 66.5,28.0981571 54.5952386,28.0981571 C42.6904757,28.0981571 36.7380943,22.1457571 30.7857143,22.1457571 L30.7857143,22.1427857 Z M41.20238,42.9761571 C45.3116657,42.9761571 48.6428571,46.3071143 48.6428571,50.4166429 C48.6428571,54.5261714 45.3116657,57.8571286 41.20238,57.8571286 C37.0930943,57.8571286 33.7619043,54.5261714 33.7619043,50.4166429 C33.7619043,46.3071143 37.0930943,42.9761571 41.20238,42.9761571 Z M72.4523814,51.9047429 C69.6464286,51.9047429 66.5,54.8809429 66.5,57.8571143 L66.5,99.524 C66.5,112.714429 72.4523814,129.285857 96.2619043,129.285857 C120.071429,129.285857 126.02381,112.714429 126.02381,99.524 L126.02381,57.8571143 C126.02381,54.8809286 122.877381,51.9047429 120.071429,51.9047429 C114.119049,51.9047429 108.166667,57.8571143 96.2619043,57.8571143 C84.3571429,57.8571143 78.4047614,51.9047429 72.4523814,51.9047429 L72.4523814,51.9047429 Z M82.8690471,72.7381429 C86.9783329,72.7381429 90.3095243,76.0691429 90.3095243,80.1787143 C90.3095243,84.2881429 86.9783329,87.6191429 82.8690471,87.6191429 C78.7597614,87.6191429 75.4285714,84.2881429 75.4285714,80.1787143 C75.4285714,76.0691429 78.7597614,72.7381429 82.8690471,72.7381429 Z M109.654761,72.7381429 C113.764047,72.7381429 117.095239,76.0691429 117.095239,80.1787143 C117.095239,84.2881429 113.764047,87.6191429 109.654761,87.6191429 C105.545476,87.6191429 102.214286,84.2881429 102.214286,80.1787143 C102.214286,76.0691429 105.545476,72.7381429 109.654761,72.7381429 Z M78.4047614,105.476286 L114.119049,105.476286 C114.119049,105.476286 111.142857,117.381143 96.2619043,117.381143 C81.3809529,117.381143 78.4047614,105.476286 78.4047614,105.476286 L78.4047614,105.476286 Z" id="path6342"></path>
        </g>
    </g>
</svg>