<?xml version="1.0" encoding="UTF-8"?>
<svg width="150px" height="150px" viewBox="0 0 150 150" version="1.1" xmlns="http://www.w3.org/2000/svg" xmlns:xlink="http://www.w3.org/1999/xlink">
    <!-- Generator: Sketch 41.1 (35376) - http://www.bohemiancoding.com/sketch -->
    <title>icon_chaco</title>
    <desc>Created with Sketch.</desc>
    <defs></defs>
    <g id="Provincias" stroke="none" stroke-width="1" fill="none" fill-rule="evenodd">
        <g id="icon_chaco" fill="#FFFFFF">
            <path d="M53.0633585,138.511393 L131.252269,139.031912 L132.324391,136.112775 L132.422767,131.735148 L132.520141,126.212417 L131.741152,123.605582 C131.741152,123.605582 132.813265,119.43618 132.910631,118.811586 C133.008012,118.18589 138.174817,115.47604 138.174817,115.47604 C138.305315,114.691517 138.434809,113.612948 138.565315,112.557989 C137.796367,110.099258 138.050348,109.196704 139.541066,107.242381 C140.681434,106.442842 142.214322,106.130524 141.880031,103.49045 L145,101.40628 L143.146891,98.9046223 L141.197437,96.6111738 C139.407542,96.598263 137.974051,94.2909005 136.420086,92.7551341 C136.420086,92.7551341 132.13165,88.1693062 131.935883,87.7518356 C131.740132,87.3343568 127.548059,83.7916955 127.548059,83.7916955 L121.406514,81.6034247 L118.774409,81.0818537 C116.833967,80.3434803 115.4336,78.1627092 113.997082,76.0796161 C111.447301,73.5060612 109.254902,75.7222423 107.465031,73.6820672 C107.66579,72.5766575 107.955921,71.5678401 107.65977,69.9301361 L105.222437,67.4295559 L104.246702,64.0940181 L100.054612,60.8625889 L93.6199272,57.006541 L93.3278063,53.4617416 L91.280962,51.7939809 L89.2330898,49.6056936 L87.8688476,47.937933 L86.5036269,48.0420334 L85.3341402,44.6024116 L80.3620579,41.058673 L72.5621522,36.9944243 L70.3205525,33.3465936 L66.1284706,30.8449444 C65.8755015,26.5553326 63.7624092,26.2462386 62.0337623,25.112935 L59.0111753,25.112935 L51.2112532,17.7131485 C47.5933722,17.598333 51.9902421,14.5085606 48.0922876,13.5437468 C48.231831,14.7757891 43.370181,12.3793093 42.6333536,11.4595846 C40.958932,10.0880154 37.7305454,10.3777679 35.1255441,10 L35.3202996,18.4429449 L5,60.9677583 L52.8696227,61.071867 L53.0633585,138.511393 L53.0633585,138.511393 Z" id="Chaco"></path>
        </g>
    </g>
</svg>