<?xml version="1.0" encoding="UTF-8" standalone="no"?>
<svg width="48px" height="48px" viewBox="0 0 48 48" version="1.1" xmlns="http://www.w3.org/2000/svg" xmlns:xlink="http://www.w3.org/1999/xlink" xmlns:sketch="http://www.bohemiancoding.com/sketch/ns">
    <!-- Generator: Sketch 3.1.1 (8761) - http://www.bohemiancoding.com/sketch -->
    <title>icono_economia</title>
    <desc>Created with Sketch.</desc>
    <defs></defs>
    <g id="Page-1" stroke="none" stroke-width="1" fill="none" fill-rule="evenodd" sketch:type="MSPage">
        <g id="icono_economia" sketch:type="MSArtboardGroup" fill="#FFFFFF">
            <path d="M17.265,29.011 C17.265,29.011 20.14,31.638 23.335,31.638 C24.612,31.638 25.996,31.141 25.996,29.615 C25.996,26.776 14.461,26.527 14.461,18.896 C14.461,14.921 17.301,12.081 21.24,11.336 L21.24,8 L25.109,8 L25.109,11.23 C29.439,11.727 31.604,13.998 31.604,13.998 L28.978,19.074 C28.978,19.074 26.422,16.837 23.37,16.837 C22.092,16.837 20.672,17.406 20.672,18.825 C20.672,21.842 32.208,21.629 32.208,29.473 C32.208,33.235 29.652,36.5 25.109,37.21 L25.109,40.44 L21.24,40.44 L21.24,37.21 C16.555,36.536 14,33.732 14,33.732 L17.265,29.011" id="Imported-Layers" sketch:type="MSShapeGroup"></path>
        </g>
    </g>
</svg>