<?xml version="1.0" encoding="UTF-8"?>
<svg width="150px" height="150px" viewBox="0 0 150 150" version="1.1" xmlns="http://www.w3.org/2000/svg" xmlns:xlink="http://www.w3.org/1999/xlink">
    <!-- Generator: Sketch 41.1 (35376) - http://www.bohemiancoding.com/sketch -->
    <title>icon_entrerios</title>
    <desc>Created with Sketch.</desc>
    <defs></defs>
    <g id="Provincias" stroke="none" stroke-width="1" fill="none" fill-rule="evenodd">
        <g id="icon_entrerios" fill="#FFFFFF">
            <path d="M97.2570361,144.408841 L95.3763566,136.840638 L97.0351978,125.370333 L98.6951602,119.813944 L100.79549,112.954889 L105.883521,111.653403 L108.316065,109.05279 L107.321636,97.8184777 L105.440929,90.723432 L107.431994,84.1027266 L108.980477,81.2649456 L107.210147,76.4177065 L107.763115,72.3976143 L107.210147,70.0329899 L106.98943,67.3120257 L111.413031,63.8842694 L112.740778,58.4446935 L113.18224,55.9620782 L112.18781,54.1886125 L112.298196,52.0599798 L115.395143,47.8038978 L117.38732,41.1820063 L118.713956,30.1860454 L118.271382,25.3387992 L116.83437,22.2650311 L113.627037,16.4714634 L113.847781,12.3321972 L109.091957,9.84722636 L106.546856,6.77347187 L103.671711,5.8271377 L98.3629453,5 L94.7130208,5.70914011 L90.9527467,7.36462704 L88.8512958,7.71976716 L85.4232456,7.36462704 L83.4321533,8.42892716 L80.0029911,9.84722636 L75.3575339,10.0832288 L73.4768544,10.55638 L69.8269208,9.25489219 L64.9607465,11.9746856 L65.4022079,22.143483 L63.8548372,27.2290896 L60.8682304,32.7866559 C60.8682304,32.7866559 54.563941,42.9554722 54.563941,43.4286361 C54.563941,43.9018001 50.5829136,51.7059877 50.5829136,51.7059877 L42.6197649,57.9738921 L36.7569369,63.1762947 L34.3233072,68.614688 L34.2129125,74.763414 L33.2173889,82.5676115 L32,90.2538114 L33.3277565,98.2939978 C33.3277565,98.2939978 33.9921863,103.378407 34.4336658,103.141236 C34.8751452,102.904066 39.1905755,109.761941 39.1905755,109.761941 L44.1671536,114.492365 L53.7902466,124.780358 L61.5326692,128.800451 L63.4122638,131.519058 L68.610653,133.293705 L72.2616806,137.195803 L76.795649,137.906134 L81.1089003,139.560424 L86.9706253,140.624743 L90.2894109,142.634198 L93.6071296,144.880826 L96.1511359,145 L97.2570361,144.408841 L97.2570361,144.408841 Z" id="Entre_R__os"></path>
        </g>
    </g>
</svg>