<?xml version="1.0" encoding="UTF-8"?>
<svg width="150px" height="150px" viewBox="0 0 150 150" version="1.1" xmlns="http://www.w3.org/2000/svg" xmlns:xlink="http://www.w3.org/1999/xlink">
    <!-- Generator: Sketch 41.1 (35376) - http://www.bohemiancoding.com/sketch -->
    <title>icon_corrientes</title>
    <desc>Created with Sketch.</desc>
    <defs></defs>
    <g id="Provincias" stroke="none" stroke-width="1" fill="none" fill-rule="evenodd">
        <g id="icon_corrientes" fill="#FFFFFF">
            <path d="M52.9989994,5 C46.3723241,6.04467249 40.9503904,8.17752567 36.3030849,10.999199 C36.0550504,11.5321701 34.9395852,14.0548658 34.9395852,14.0548658 L35.30133,21.5118142 C35.30133,21.5118142 35.92801,26.0601893 36.0526461,26.7260713 C36.1760445,27.3932809 34.9395852,33.6424682 34.9395852,34.5754906 C34.9395852,35.5085129 32.4630245,38.3039648 32.4630245,38.3039648 L29.2629742,42.4249099 L26.7864136,50.835002 L26.647281,57.619143 L25.9237913,62.2727273 L25.2837813,64.1509812 L24.6715977,69.8698438 L23.5585368,77.7192631 L17.1306097,84.1109331 C14.477473,85.5436988 10.6300754,86.6052992 9.95136644,90.1101322 C9.95136644,90.1101322 9.23150984,97.4397674 9.47831553,98.2398879 C9.72635003,99.0386717 7.36955474,107.035866 6.75131615,107.967561 C6.13307757,108.899256 6.48878514,112.095432 6.61218353,112.761314 C6.73681965,113.427196 8.22612194,117.954462 8.22612194,118.620344 C8.22612194,119.286226 7.11306097,123.414097 7.11306097,123.414097 L6,131.263516 L7.25219359,130.871045 L10.8139887,128.880657 L15.5166713,129.945935 L21.3324148,129.805767 L25.4229139,128.348018 L29.0125355,126.7501 L34.188269,127.394874 L39.6422678,124.731678 L45.5693174,123.806568 L51.2737549,125.404485 L53.7503155,127.142571 L55.7259988,129.805767 L60.2895487,132.609131 L60.2895487,137.935523 L64.1296091,145 C64.1296091,145 64.8675952,141.006368 64.9922313,140.206247 C65.1156297,139.407464 66.9679145,137.010412 66.9679145,137.010412 L69.5557813,132.468963 L71.0584136,127.67521 L72.5332194,124.871846 L75.1210861,123.554265 L78.0985242,122.068482 C78.0985242,122.068482 81.1945434,119.278637 81.6881458,119.012815 C82.1817483,118.746994 82.1890233,116.097317 82.1890233,116.097317 C82.1890233,116.097317 82.3039624,113.546587 82.5507681,113.013616 C82.7988026,112.481973 84.6377574,112.088506 84.6377574,112.088506 L85.3890736,110.350421 C86.3022466,108.912335 87.6139132,107.809729 89.8413174,107.434922 L93.6813778,104.379255 L96.4083771,102.10853 C96.5071012,100.251779 96.3174623,97.9685222 97.994489,98.4921906 L100.721488,97.8474169 C100.721488,97.8474169 102.454008,95.7026685 102.94761,94.9038847 C103.441213,94.1037642 106.175487,91.1754105 106.175487,91.1754105 L107.038109,87.0544654 L109.264231,83.9987986 L110.989476,81.5879055 L114.690404,80.1301562 C114.690404,80.1301562 117.53715,76.8093315 118.280025,76.0092111 C119.021671,75.2104272 120.64528,71.6079295 120.64528,71.6079295 L124.234901,66.5338406 L126.461023,63.8706448 C126.461023,63.8706448 128.927887,62.6655302 129.299329,62.1325591 C129.669533,61.6009157 131.024573,58.9367241 131.024573,58.9367241 L133.61244,57.7593112 C133.61244,57.7593112 135.090879,55.741221 135.337685,55.2082499 C138.303289,52.1100258 138.337197,53.5580956 140.290806,49.3492191 L143.017805,46.0412495 L142.266489,42.7052463 L140.290806,39.7617141 L136.951623,35.7809371 L136.589878,33.1177413 L134.475062,31.2394874 L131.525451,26.5859031 L130.662828,23.3900681 C130.662828,23.3900681 130.774135,19.5366042 130.774135,18.7364838 C130.774135,17.9377 130.41239,15.9331197 130.41239,15.9331197 L132.499379,12.3448138 L126.683635,9.6535843 L120.00527,12.7372847 L116.554781,18.2038446 L114.07822,19.5214257 L112.102537,14.8678414 C109.99935,13.3969051 108.319661,13.7196642 107.038109,15.7929515 C106.429603,17.2769672 104.40597,17.6472445 105.285038,20.3344013 L101.584111,19.8017621 L93.2918064,16.1854225 L87.7265016,13.2699239 L76.9854632,10.999199 L65.9661597,6.20544654 L52.9989994,5 Z" id="Corrientes"></path>
        </g>
    </g>
</svg>