<?xml version="1.0" encoding="utf-8"?>
<!-- Generator: Adobe Illustrator 17.1.0, SVG Export Plug-In . SVG Version: 6.00 Build 0)  -->
<!DOCTYPE svg PUBLIC "-//W3C//DTD SVG 1.1//EN" "http://www.w3.org/Graphics/SVG/1.1/DTD/svg11.dtd">
<svg version="1.1" id="Layer_1" xmlns:sketch="http://www.bohemiancoding.com/sketch/ns"
	 xmlns="http://www.w3.org/2000/svg" xmlns:xlink="http://www.w3.org/1999/xlink" x="0px" y="0px" viewBox="0 0 48 48"
	 enable-background="new 0 0 48 48" xml:space="preserve">
<title>icono_religion</title>
<desc>Created with Sketch.</desc>
<g id="_x35_07-church.png">
	<g>
		<path fill="#FFFFFF" d="M12.2,25.8l2.4,2.4l9.7-9.7l9.7,9.7l2.4-2.4L25.5,14.9v-3.6h2.4V8.9h-2.4V6.5h-2.4v2.4h-2.4v2.4h2.4v3.6
			L12.2,25.8z M24.3,21l-4.8,4.8L12.2,33v8.5h8.5v-6c0-2,1.6-3.6,3.6-3.6s3.6,1.6,3.6,3.6v6h8.5V33l-7.3-7.3L24.3,21z M26.7,29.4
			h-4.8V27c0-1.3,1.1-2.4,2.4-2.4s2.4,1.1,2.4,2.4V29.4z"/>
	</g>
</g>
</svg>
