<?xml version="1.0" encoding="utf-8"?>
<!-- Generator: Adobe Illustrator 17.1.0, SVG Export Plug-In . SVG Version: 6.00 Build 0)  -->
<!DOCTYPE svg PUBLIC "-//W3C//DTD SVG 1.1//EN" "http://www.w3.org/Graphics/SVG/1.1/DTD/svg11.dtd">
<svg version="1.1" id="Layer_1" xmlns:sketch="http://www.bohemiancoding.com/sketch/ns"
	 xmlns="http://www.w3.org/2000/svg" xmlns:xlink="http://www.w3.org/1999/xlink" x="0px" y="0px" viewBox="0 0 128 128"
	 enable-background="new 0 0 128 128" xml:space="preserve">
<title>icono_religion</title>
<desc>Created with Sketch.</desc>
<path fill="#FFFFFF" d="M75.8,114.6c0.3,0,0.3-0.3,0.3-0.3s0.6,0,0.6-0.3v-0.3c0,0,0.3,0,0.3-0.3c0.3,0.3,0,0,0.3,0
	c0.3,0,0.6,0.3,0.6-0.3c0.3-0.6,0-0.3,0.6-0.6c0.3-0.3,0.3-0.6,0.3-0.6c0.3-0.3,0.3,0,0.6-0.3l0.3-0.6c0,0,0,0,0-0.3
	c0,0,0,0.3-0.3,0.3c-0.3,0-0.6,0-0.9,0s-0.6-0.3-0.9,0c0,0,0.3,0,0,0.3c-0.6,0.3-0.9-0.3-1.2-0.3c0,0-0.6-0.3-0.6,0
	c0.3,0.3,0.6,0,0.6,0.6c-0.6,0,0,0,0,0.3l0.6,0.6c0,0,0.3,0.3,0,0.3c0,0,0,0.3-0.3,0.6c0,0,0,0.3-0.3,0.3l-0.3-0.3l0,0
	c0,0.3,0.3,0.6,0,0.9l-0.6,0.3c-0.3,0-0.9,0-0.6,0.3C75.5,114,75.5,114,75.8,114.6L75.8,114.6L75.8,114.6z M74.9,113.1L74.9,113.1
	C74.9,113.4,74.6,113.4,74.9,113.1c-0.3,0.3-0.3,0-0.3,0s0,0-0.3,0v-0.3v0.3C74.6,113.1,74.9,112.8,74.9,113.1
	C74.9,112.8,74.9,113.1,74.9,113.1L74.9,113.1z M76.4,112.2L76.4,112.2C76.7,112.2,76.4,112.2,76.4,112.2c-0.3,0.3-0.3,0.3-0.3,0.3
	l-0.3-0.3h0.3C76.1,112.2,76.1,112.2,76.4,112.2L76.4,112.2L76.4,112.2z M80.3,112.2L80.3,112.2c0,0.6,0.6,0.6,0.6,0.9
	c0,0.3,0.3,0.3,0.6,0.3s0,0.6-0.3,0.3c-0.3-0.3-0.3,0-0.6,0c-0.3,0-0.3-0.6-0.6-0.3c0,0.3,0.3,0.3,0,0.3c0,0.3,0.3,0.6,0,0.6
	s-0.3-0.3-0.3-0.3s-0.3,0-0.3,0.3c0,0,0.3,0.9-0.3,0.3c0,0-0.6-0.6-0.3-0.6l0.3-0.3c0-0.3,0-0.3,0-0.6l0.3-0.3
	c0.3-0.3,0.3,0,0.3-0.3H80C80.3,112.2,80.3,111.9,80.3,112.2L80.3,112.2z M80.6,112.2L80.6,112.2c0.3,0.3,0.3,0.6,0.3,0.6
	s0.3,0,0.6,0s0.6,0,0.9,0s0.3-0.3,0.3-0.6H83c0.6,0,0.6-0.3,0.9-0.6c0.3,0-0.3-0.3-0.3-0.3L83,111c0-0.3,0.6-0.3,0.6-0.3
	c0.3,0,0-0.6,0-0.6h-0.9c0,0.3-0.3,0.3-0.3,0.3c0.3,0.3,0.3,0,0.3,0.3c0,0.6-0.6,0-0.6,0c0-0.3-0.3-0.3-0.6-0.6
	c-0.3-0.3-0.3-0.3-0.6-0.3l-0.3-0.3c0,0.3,0.3,0.6,0,0.6c-0.6,0-0.3,0.3-0.3,0.6C80.3,111.6,80.6,111.9,80.6,112.2L80.6,112.2z
	 M82.4,110.4l0.3,0.3c0,0,0,0-0.3,0c0,0,0,0-0.3,0C82.1,110.7,82.1,110.7,82.4,110.4c-0.3,0.3-0.3,0.3-0.6,0.3v-0.3
	C81.8,110.4,82.1,110.1,82.4,110.4C82.1,110.4,82.4,110.4,82.4,110.4z"/>
<g>
	<path fill="#FFFFFF" d="M95.8,16c-0.3-0.3-0.3-0.9,0-1.2c0.3-0.3,0.3-0.6,0.3-0.9c0-0.6-0.3-1.2-0.6-1.5h-0.3c-0.3,0-0.3,0-0.3-0.3
		l0,0l0,0l0,0l0,0c0,0,0,0-0.3,0l0,0l0,0l0,0l0,0c0,0,0,0.3-0.3,0.3c0,0,0,0-0.3,0l0,0l0,0c0,0,0,0,0,0.3l0,0v0.3
		c-0.6,0.3-0.6,0.3-0.6,0.3v0.3l0,0l0,0V14c0,0-0.3,0.6-0.3,0.9v0.3l-0.3,0.3l0,0l0,0v0.3c0,0,0,0-0.3,0l0,0l0,0l0,0V16h-0.3l0,0
		l0,0v0.3h-0.3l0,0c0,0,0,0-0.3,0c0,0,0,0-0.3,0.3c0,0,0,0.3-0.3,0.3l0,0c0,0,0,0-0.3,0l0,0v0.3c0,0.3-0.6,0.3-0.9,0.3l0,0
		c-0.3,0-0.3-0.3-0.3-0.3l0,0l0,0h-0.3c0,0,0,0,0-0.3l0,0l0,0l0,0c-0.3,0-0.3,0-0.3,0.3l0,0L88,17.5l0,0l0,0h-0.3h-0.3
		c0,0,0,0-0.3,0c0,0,0,0-0.3,0h-0.3l0,0c0,0-1.2,0-1.5-0.3c-0.3-0.3-0.9-0.3-1.2-0.3h-0.3c-0.3,0-0.3,0-0.6,0c-0.3,0-0.3,0-0.6,0
		l-0.9,0.6l0,0v-0.3c0,0,0,0,0.3-0.3l0,0c0-0.3,0.3-0.6,0.3-0.6l0,0v-0.6l0,0l0,0l0,0l0,0l0,0l0,0l0,0l0,0l0,0l0,0c0,0,0,0,0.3-0.3
		l0,0v-0.3v-0.3v-0.3c0,0,0.3-1.2,0.6-1.2c0.3,0,0.3-0.3,0.3-0.3s0-0.3,0.3-0.6l0.3-0.3c0.3,0.3,0.6,0,0.6-0.3c0,0,0,0,0-0.3l0,0
		l0,0L83.9,11c-0.3-0.3-0.3-0.3-0.3-0.3l0,0h-0.3c0,0,0,0,0-0.3l0,0l0,0c0,0,0,0-0.3,0c0,0,0,0-0.3,0c-0.3,0-0.3,0-0.3-0.3
		c-0.3-0.3-0.3,0-0.3,0l0,0h-0.3l0,0l0,0l0,0c0,0,0,0-0.3,0c-0.3,0-0.3-0.3-0.3-0.3c0-0.3-0.3-0.3-0.3-0.3l0,0l0,0
		c0,0-0.3,0-0.3-0.3l-0.3-0.3l0,0l0,0c-0.6-0.6-2.1-1.5-3-1.5l0,0c-0.3,0-0.3,0-0.6-0.3h-0.3h-0.3L72,3.2h-0.3V2.6
		c0,0-0.3,0-0.3-0.3c0,0,0,0-0.3,0l-0.3-0.3c0,0,0,0-0.3-0.3l0,0l0,0l0,0h-0.3V1.5l0,0l0,0h-3l-1.5,0c0,0.3-0.3,0.3-0.3,0.6
		c0,0.3,0,0.3-0.3,0.6c-0.3,0-0.3,0.6-0.3,0.9l0,0c0,0,0,0.3-0.3,0.3l0,0c-0.3,0-0.3-0.3-0.3-0.3s0,0,0-0.3s0-0.3-0.3-0.3
		c0-0.3,0-0.3-0.3-0.3l0,0l-0.3-0.6V1.8c0,0,0,0-0.3,0l0,0c0.6-0.3,0.3-0.3,0-0.3s-0.6,0-0.9-0.3l0,0l0,0l0,0l0,0l0,0l0,0l0,0l0,0
		h-0.3c0,0,0,0,0-0.3l0,0l0,0l0,0c0,0,0,0-0.3,0c-0.3,0-0.3,0-0.6,0l0,0h-0.3c0,0,0,0-0.3,0c-0.3,0-0.3-0.3-0.3-0.3l0,0
		c0,0,0,0-0.3,0c0,0,0,0-0.3,0c0,0-0.3,0-0.3-0.3l0,0v0.3l0,0l0,0l0,0c0,0.3,0,0.3-0.3,0.6c0,0-0.3,0-0.3,0.3c0,0-0.3,0-0.3,0.3l0,0
		l0,0H58l0,0l0,0l0,0c0,0,0,0,0,0.3s-0.3,0.3-0.6,0.6l0,0c0,0,0,0-0.3,0l0,0v0.3l-0.3,0.3l0,0l0.6,0.6l-0.6,2.4l0,0c0,0,0,0,0.3,0.3
		l-0.3,0.3c0,0,0-0.3-0.3-0.3l0,0l-0.3,0.9l-2.7,1.2l-0.3,0.3l0,0c0,0,0,0,0,0.3l-0.3,0.3c0,0.3,0,0.3,0,0.3c0,0.3,0,0.3,0.3,0.3
		c0.3,0.3,0.3,0.3,0.3,0.6l0,0l0,0V11h-0.3c0,0.3-0.3,0.6-0.3,0.9v0.3l0,0c0.3,0.3,0.3,0.6,0.3,0.6v0.3l0,0c0,0.6,0.3,0.9,0,0.9
		c0,0,0,0-0.3,0l-0.3,0.3c0,0,0,0,0,0.3v0.3l0.3,0.3c0,0.3,0.3,0.3,0.3,0.6l0,0l0.3,0.3c0,0,0,0.3-0.3,0.3h-0.3l0,0l0,0
		c0,0,0,0.3-0.3,0.3l0,0l0,0c0,0,0,0-0.3,0H52h-0.3l0,0l0,0c0,0,0.3,0.3,0,0.6c0,0,0,0-0.3,0.3c0,0,0,0,0,0.3c0,0.3,0,0.3-0.3,0.6
		c0,0,0,0,0,0.3c0,0,0,0,0,0.3l0.6,0.3l-0.3,0.3h-0.3c0,0.3,0,0.3-0.6,0.6v0.3v0.3l-0.3,0.3c0,0,0,0-0.3,0l0,0l0,0l0,0l-0.3,0.3l0,0
		c0,0,0,0-0.3,0c0,0,0,0,0,0.3v0.6l0,0l0,0l0,0c0,0,0,0,0,0.3v0.3c0,0,0,0,0,0.3v0.3c0,0.3,0,0.6-0.3,0.6h-0.3l0,0c0,0,0,0-0.3,0
		l0,0v0.3c0,0,0,0.3,0,0.6c0,0,0,0,0,0.3c0,0.3,0,0.3,0,0.6c0,0.3,0,0.3,0,0.6v0.3l0,0v0.9L48.1,28l0,0c0,0,0,0,0,0.3
		c0,0-0.3,0.3-0.3,0.6c0,0.3,0,0.3-0.3,0.6v0.3V30c0,0,0,0.3-0.3,0.3l0,0l0,0c0,0,0,0,0,0.3H47c0,0,0,0-0.3,0v0.3c0,0,0,0,0,0.3v0.3
		l0,0v0.3c0,0,0,0,0,0.3L47,33l0,0l0,0l0,0c0.3,0,0.3,0,0.3,0.3v0.3L47,33.9v0.3l0,0c0,0,0,0,0,0.3l0,0v0.3l0,0l0,0l0,0l0.3,0.9l0,0
		c0,0,0,0.3,0.3,0.3c0.3,0.3,0.6,0.6,0,0.9l0,0c0,0,0,0.3,0,0.6l0,0l0,0l0,0c0.3,0,0.6,0,0.6,0.3c0,0.3,0,0.6,0,0.9
		c0.6,0.6,0.6,0.6,0.6,0.9l0,0v0.3v0.3c0,0.3,0,0.6,0,0.6v0.3c0.3,0.3,0,0.6,0,0.6s0,0-0.3,0.3l0,0c0,0.3-0.3,0.3-0.3,0.3l0,0
		c0,0,0,0.3-0.3,0.3c0,0.3-0.3,0.6-0.3,0.6c0.3,0.3,0,0.6,0,0.6l0,0l0,0c0,0,0,0.3-0.3,0.3l0,0c0,0.3,0,0.3-0.3,0.6c0,0,0,0-0.3,0
		l0,0c0,0,0.3,0,0.3,0.6l0,0l0,0c0.3,0.3,0,0.6,0,0.6l0,0l0,0l0.3,0.3c0,0.3,0,0.3,0,0.3s0,0,0,0.3s0,0.3,0,0.6l0,0L47,47.6
		c0,0,0,0-0.3,0l0,0c0,0,0,0-0.3,0.3l0,0c0,0,0,0,0,0.3s0,0.3-0.3,0.3c0,0,0,0-0.3,0c0,0.3,0,0.3-0.3,0.3h-0.3l0,0l0,0
		c0,0.3,0,0.3,0,0.3h-0.3l0,0c0,0,0,0,0,0.3v0.3l0,0l0,0V50l0,0c0,0,0,0,0,0.3c0,0.3,0,0.3,0,0.6c0,0,0,0,0,0.3s0,0.3,0,0.3
		c0.3,0.3,0.3,0.9,0,1.2c0,0.3,0,0.6,0.3,1.2c0,0,0,0,0,0.3s0.3,0.6,0.3,0.9c0,0.3,0,0.3,0,0.6c0,0.3,0,0.3,0.3,0.3l0.3,0.3
		c0,0,0,0.3-0.3,0.3l0,0v0.3h-0.3c0,0,0,0-0.3,0l0,0c-0.3,0-0.6,0.3-0.6,0.6l0,0c0.3,0.3,0.3,0.9,0,1.2c0,0,0,0.3-0.3,0.3l0,0
		c0,0,0,0.3-0.3,0.3l0,0v0.3c0,0,0,0.3-0.3,0.3l0,0c0,0-0.3,0-0.3-0.3l0,0v0.3c0,0,0,0,0,0.3c0,0,0.3,0.3,0,0.6l0,0c0,0,0,0,0,0.3
		v0.3h-0.3l0,0l0,0v0.3l0,0l0,0c0,0,0,0,0.3,0c0,0,0.3,0,0.3,0.3v0.3c0,0,0,0.3-0.3,0.3l0,0l0,0l0,0l0,0l0,0c0,0,0,0,0,0.3
		c0,0.3,0,0.3-0.3,0.6v0.3V64v0.9l0,0c0,0,0,0,0,0.3l0,0v0.3c0,0,0,0.3,0,0.6v0.3v0.3c0,0,0,0,0,0.3v0.3v0.6v0.3l0,0V69
		c0,0.3-0.3,0.3-0.3,0.3l0,0h-0.3c0,0,0,0-0.3,0h-0.3c0,0,0,0.3,0.3,0.9c0,0,0,0,0,0.3s0,0.6,0,0.9l0,0c0,0.3,0,0.6,0,0.9l0,0v0.3
		l0,0l0.3,0.3c0,0.3,0,0.3,0.3,0.3s0.3,0.3,0.3,0.6l0,0c0,0.3-0.3,0.3-0.3,0.3s0,0-0.3,0c0,0.3,0,0.3,0.3,0.6l0,0c0,0,0.3,0,0.3,0.3
		c0.3,0,0.3,0.3,0.3,0.3c0,0.3-0.3,0.3-0.3,0.3l0,0l-0.3,0.3c0.3,0.3,0.3,0.3,0,0.9l0,0c0,0.3,0,0.3-0.3,0.3l0,0c0,0,0,0,0,0.3
		c0,0,0,0,0,0.3c0,0,0,0.3,0,0.6h0.3c0,0,0,0,0.3,0c0,0,0,0,0.3,0c0,0,0.3,0,0.6,0c0.6,0,0.6,0.3,0.9,0.6v0.3l-0.3,0.3l0,0l0,0v0.3
		c0,0.3-0.3,0.3-0.6,0.3h-0.3c0,0,0,0-0.3,0l0,0c-0.3,0-0.3,0-0.6,0c0,0,0,0-0.3,0h-0.3h-0.3l0.3,0.3c0,0,0,0,0.3,0
		c0.3,0,0.3,0,0.6,0c0,0,0,0,0.3,0s0.3,0.3,0.3,0.6l0,0l0,0c0.3,0.3,0.6,0.6,0.3,0.9c0,0,0,0-0.3,0c0,0,0,0.3-0.3,0.3l0,0l0,0l0,0
		v0.3l-0.3,0.3c-0.3,0-0.3,0-0.3,0.3v0.3v0.3c0,0,0,0,0,0.3c0,0.3,0.3,0.3,0.3,0.6v0.3l0,0c0,0,0,0.3-0.3,0.3c0,0-0.3,0-0.3,0.3l0,0
		l0,0c0,0,0,0,0.3,0l0.3,0.3l0,0c0,0.3,0,0.6,0,0.9c0,0.3,0,0.6,0,0.9c0,0.3-0.3,0.6-0.6,0.6c0,0,0,0-0.3,0c0,0,0,0,0,0.3v0.3
		c0,0.3,0,0.3,0,0.3l0,0l0,0c0.3,0.3,0.3,0.6,0.3,0.9c0,0,0,0.3-0.3,0.3l0,0l0,0l0,0c0,0,0,0.3-0.3,0.3l0,0
		c-0.3,0.3-0.3,0.3-0.6,0.3c0,0,0,0-0.3,0l0,0c0,0,0,0,0,0.3v0.3c0,0.3-0.3,0.3-0.3,0.6l-0.3,0.3v0.3l0,0l0,0c0,0,0,0,0,0.3l0,0l0,0
		l0,0c0,0,0.3,0,0.3,0.3l0,0l0,0H41v0.3v0.3l0.3,0.3c0,0.3,0,0.3-0.3,0.3l0,0c0,0,0,0.3-0.3,0.3l0,0c0,0,0,0.3-0.3,0.3l0,0
		c0,0.3,0,0.6,0,0.6l0,0l0,0c0,0.3,0,0.6-0.3,0.6l-0.3,0.3l0,0c0,0,0,0.3-0.3,0.3c0,0,0,0-0.3,0c0,0-0.3,0.3-0.3,0.6c0,0,0,0,0,0.3
		v0.3h-0.3h-0.9l0,0l0,0v0.3l0,0v0.3c0,0.3,0,0.3,0,0.3c0.3,0.3,0.3,0.3,0.3,0.6l0,0v0.3c0,0,0.3,0.3,0,0.6v0.3c0,0.3,0,0.3,0,0.6
		l0,0v0.3v0.3c0,0,0.3,0.3,0.3,0.6v0.3v0.3l0,0c0,0.3,0,0.3,0.3,0.3c0.3,0.3,0.3,0.6,0.3,0.9c0,0,0,0,0,0.3l0,0l0.3-0.3l0,0l0.6-0.6
		h0.3c0.3,0,0.3,0,0.3,0.3h0.3c0,0,0.3-0.3,0.6,0c0,0,0.3,0,0.3,0.3c0,0,0,0.3,0,0.6v0.3l0,0c0.3,0,0.3,0.6,0.3,0.9l0,0
		c0,0.3,0,0.3-0.3,0.3c0,0-0.3,0-0.3,0.3l0,0c0.6,0.3,0.3,0.6,0.3,0.9v0.3l0,0v0.3c0,0,0,0.3-0.3,0.3l0,0l0,0l0,0c0,0,0.3,0,0.3,0.3
		v0.3l0,0c0,0,0,0,0.3,0.3c0.3,0.3,0.6,0.6,0.6,0.6v0.3l0,0l0,0l0,0h5.7l1.5,0.6h1.2l0,0c0.3,0,0.3,0.3,0.3,0.3s0.3,0,0.3,0.3
		c0.3,0,0.6,0.3,0.6,0.3s0.3,0,0.6,0.3l0,0l0,0l-0.3-0.3c0-0.3-0.3-0.3-0.3-0.6l0,0c0,0,0-0.3-0.3-0.3l-0.3-0.3l0,0c0,0,0,0,0-0.3
		c0,0,0,0,0-0.3c0,0,0,0,0-0.3c0,0,0-0.3-0.3-0.3l0,0l-0.3,0.3l0,0l0,0l0,0c0-0.3,0-0.6,0.3-0.6l0,0c0,0,0,0,0-0.3l0,0
		c0-0.3,0-0.6-0.3-0.9c0-0.3,0-0.3-0.3-0.6c0-0.3,0-0.3,0-0.6v-0.3l0,0l0,0l0,0c-0.3,0.3-0.3,0.3-0.3,0.3l0,0l0,0v-0.3l0.3-0.3
		c0,0,0-0.3,0.3-0.3c0.3-0.3,0.3-0.3,0.3-0.6l0,0l0,0c0.3-0.9,0.3-2.1,1.5-2.7h0.3h0.3l0,0l-0.3-0.3l0,0c0,0,0,0-0.3,0l0,0l0,0h-0.3
		c-0.3,0-0.3-0.3-0.3-0.3c0-0.3,0.3-0.3,0.6-0.3h0.3l0,0v-0.3v-0.3h0.3c0.3,0,0.3,0.3,0.6,0.6c0,0.3,0.3,0.6,0.3,0.6
		c0.6,0,1.2-0.6,1.5-1.2c0-0.3,0-0.6,0-0.9c0-0.3,0-0.3,0-0.6v-0.3l0,0h-0.9v-0.3c0-0.3,0-0.3,0.3-0.6c0,0,0,0,0-0.3
		s0.3-0.9,0.6-1.2c0-0.3,0.3-0.3,0.3-0.3l0.3-0.3l0,0l0,0c0.3,0,0.3-0.3,0.6-0.3c0-0.3,0-0.3,0.3-0.6c0,0,0,0,0.3,0
		c0,0,0.3-0.3,0.6-0.3c0.3-0.3,0.6-0.6,0.6-0.6l0,0c0,0,0,0,0.3,0c0,0,0-0.3,0.3-0.3c0-0.3,0.3-0.3,0.3-0.6c0.3,0,0.3-0.3,0.3-0.3
		l0,0l0,0h0.3v-0.3l0,0c0-0.3,0-0.3,0.3-0.3l0,0v-0.3l0,0c0,0,0,0-0.3,0s-0.3,0-0.6,0l0,0V92l0,0l0.6-0.3h0.3l0,0c0,0,0,0,0-0.3l0,0
		c0,0,0,0,0-0.3c0-0.6,0.3-1.5-0.3-1.8l0,0h-0.3h-0.3c-0.3,0-0.6,0-0.9-0.3h-0.3H58c-0.3,0-0.3,0-0.6-0.3c0,0-0.3-0.3-0.3-0.6l0,0
		c-0.3-0.3-0.6-0.9-0.9-0.9s-0.6-0.3-0.6-0.6c-0.3-0.3-0.6-0.9-0.6-1.2s0-0.3,0-0.6v-0.3l0,0l0,0c0,0,0,0,0-0.3l0,0l0.3-0.3l0,0
		c0-0.3,0.3-0.6,0.6-0.9l0,0v-0.3c0,0,0,0,0-0.3v-0.3l0.3-0.3c0,0,0-0.3,0.3-0.3c0.3-0.6,0.9-0.6,1.2-0.9c0,0,0,0,0.3,0l0,0l0,0
		c0-0.3,0-0.3,0.3-0.3l0,0l0.9-0.6c0.3,0,0.3,0,0.6,0l0,0c0,0,0,0,0.3,0h0.3h0.3c0,0,0,0,0-0.3c0,0-0.3,0-0.3-0.3s0-0.6,0-0.6
		s0-0.3,0.3-0.3c0,0,0.3-0.3,0.6-0.3l0,0l0.3-0.3l0,0l0.3-0.3v-0.3l0,0l0,0l0,0l0,0c0,0,0-0.3,0.3-0.3l0,0c0,0,0,0,0-0.3l0,0
		c0-0.3-0.3-0.6-0.3-0.9c0,0,0,0,0-0.3c0-0.6,0.3-0.9,0.6-1.2c0.3-0.3,0.3-0.3,0.3-0.6l0,0l0,0c0.3-0.6,0.6-0.6,0.9-0.9h0.3l0,0
		c0.3,0,0.6-0.3,0.6-0.3c-0.6,0-0.9-0.3-1.2-0.3s-0.3-0.3-0.6-0.3c0,0,0,0,0-0.3v-0.3c0.3,0,0.6,0,0.9-0.3c0-0.3,0-0.3,0.3-0.3
		c0.3,0,1.2,0,1.2,0.6c0,0.3,0,0.3,0,0.6s0.3,0.6,0.6,0.6c0.3,0,0.6-0.3,0.9-0.3c0.3,0,0.3-0.9,0.3-1.2c0-0.3,0-0.6,0-1.2
		c0,0,0-0.3-0.3-0.3L66.3,69c-0.3,0-0.3,0.3-0.6,0c-0.3,0-0.6,0.3-0.6,0.3s-0.6,0-0.6,0.3c0.3,0,0.6,0,0.6,0c0.3,0,0.3,0,0.3,0.3
		c-0.3,0.6-0.9,0.3-1.2,0.3c-0.6,0-0.3-0.3-0.3-0.6c0-0.3,0.3-0.3,0.3-0.3h-0.3l0,0l0,0c-0.3,0-0.6,0-0.9,0
		c-0.3-0.3-0.6-0.6-0.6-0.9v-0.3l0,0c0,0,0,0,0-0.3l0,0l0,0c0.3-0.6,0-1.2,0-1.8c-0.3-0.9-0.6-1.8,0.3-2.7c0.3-0.3,0.3-0.3,0.6-0.3
		c0.3,0,0.3,0,0.3,0.3c0,0,0,0,0.3,0.3h0.3c0.3,0.3,0.9,0.3,1.2,0.6c0,0,0,0,0.3,0c0,0,0,0,0.3,0l0.6,0.3c0,0,0.3,0,0.6,0
		c0.3,0,0.3,0,0.6,0l0,0h0.3c0.3,0,0.6,0,0.9-0.3l0,0l0.6-0.3l0,0l0,0c0,0,0,0,0.3,0l0,0c0,0,0,0,0.3,0l0,0l0,0
		c0.3-0.3,0.6-0.6,0.6-1.2v-0.3l0,0c0-0.3-0.3-0.3-0.3-0.6l0,0c-0.3-0.3,0-0.6,0.3-0.6l0,0V61c0,0,0,0,0-0.3c0,0,0,0,0-0.3
		c0-0.3,0-0.6,0-0.6s0.3-0.3,0.6-0.3c0-0.3,0.3-0.9,0-1.2c0,0,0,0-0.3-0.3l0,0c0,0-0.3,0-0.3-0.3v-0.3l0,0c0-0.3,0-0.6,0-0.6
		c0-0.3,0-0.3,0-0.3s0-0.3,0-0.6l0,0v-0.3c0,0,0,0,0.3,0h0.3c0,0,0,0,0.3,0c0.3,0,0.3,0.3,0.6,0.3c0,0.3,0.3,0.3,0.6,0.3h0.3
		c0.3,0,0.6,0,0.9,0l5.7-0.9c0.3,0,0.3,0,0.6-0.3c0.3,0,0.6-0.3,0.9-0.3l0,0l0,0c0.3,0,0.6-0.3,0.9-0.3s0.3,0,0.3,0
		c0.3,0,0.6-0.3,0.9-0.3c0.9-0.3,1.5-0.9,1.8-1.5c0-0.3,0-0.3,0-0.3c-0.3-0.3,0-0.3,0.3-0.6l0,0v-0.3c0-0.3,0-0.3,0.3-0.3l0,0
		c0.3-0.3,0.6-0.6,0.6-0.9c0-0.3,0.3-0.6,0.6-0.9c0.3-0.3,0.3-0.3,0.3-0.6c0.3-0.3,0.3-0.3,0.3-0.9c0,0,0,0,0-0.3l0,0
		c0-0.9,0-1.2,0-1.2h-0.3c-0.3,0-0.6,0-0.6,0c-0.6-0.3-0.9-0.9-1.2-1.5c0-0.6,0-0.9,0.3-1.2c0.3-0.3,0.3-0.3,0.3-0.6l-0.3-0.3
		c0-0.3-0.3-0.3-0.3-0.6c0,0,0,0-0.3,0c-0.3,0-0.3-0.3-0.6-0.3c-0.3,0-0.3-0.3-0.6-0.3c-0.3-0.3-0.6-0.3-0.9-0.6
		c-0.3,0-0.3-0.3-0.6-0.3l0,0l0,0l0,0l0,0l0,0l0,0l0,0l0,0l0,0c-0.3,0-0.3-0.3-0.3-0.3s0,0,0-0.3l0,0l0,0l0,0l0,0l0,0l0,0v-0.3
		c0,0-0.3-0.3,0-0.3c0,0,0,0,0.3-0.3l0,0l0,0c0,0,0,0,0-0.3v-0.3l0,0l0,0l0,0v-0.3l0,0l0,0l0,0c0-0.3,0-0.6,0-0.6v-0.3
		c0-0.3,0-0.6,0-0.9c0-0.3,0-0.3,0-0.6c0-0.6,0.3-0.6,0.6-0.9c0.3,0,0.3-0.3,0.3-0.6c0-0.3-0.3-0.9-0.3-1.5v-0.3v-0.3l0,0v-0.3v-0.3
		c0-0.3,0-0.3,0-0.6c0,0,0,0,0.3-0.3l0,0c0,0,0-0.3,0-0.6c0,0,0,0,0-0.3c0,0-0.3-0.3,0-0.3c0,0,0-0.3,0.3-0.3l0.3-0.3v-0.3
		c0-0.3,0-0.3,0-0.6l0.3-0.6l0,0v-0.3l0,0l0,0v-0.9l0.3-0.3l0,0c0,0,0,0,0-0.3c0,0,0-0.3,0.3-0.3l0,0l0.3-0.3c0,0,0,0,0.3-0.3
		c0-0.3,0.3-0.6,0.6-0.6c0.3,0,0.9-1.2,1.5-1.8c0-0.3,0.3-0.3,0.3-0.3C87.7,22,88,22,88,22s0,0,0.3-0.3c0,0,0,0,0.3-0.3l0,0
		c0,0,0,0,0-0.3c0-0.3,0-0.3,0.3-0.3c0,0,0.3-0.3,0.3-0.6l0,0c0,0,0-0.3,0.3-0.3l0,0l0,0l0.3-0.3l0,0c0,0,0,0,0.3,0v-0.3l0.6-0.6
		l0,0c0,0,0,0,0.3-0.3c0-0.3,0.3-0.3,0.6-0.3c0.3,0,0.3,0,0.6-0.3c0,0,0,0,0.3-0.3c0,0,0,0,0.3-0.3c0-0.3,0.3-0.3,0.6-0.3
		c0,0,0,0,0.3,0c0,0,0.3,0,0.3-0.3h0.3l0,0c0,0,0,0,0.3,0c0,0,0.3,0,0.3-0.3l0,0c0.3,0,0.3,0,0.3-0.3c0.3-0.3,0.3-0.3,0.6-0.3
		c0,0,0,0,0.3,0l0,0l0,0l0,0c0.3,0,0.3-0.3,0.6-0.6v-0.3C96.1,16.3,96.1,16.3,95.8,16C96.1,16,95.8,16,95.8,16z"/>
	<path fill="#FFFFFF" d="M60.4,126.5c-0.9-0.3-1.8-0.9-2.4-1.5s-1.2-0.9-1.8-1.2c0,0,0-0.3-0.3-0.3c0,0-0.6-0.6-0.6-0.9
		c0-0.3-0.3-0.3-0.6-0.6c-0.3-0.3-0.9-1.2-0.9-1.8c0-0.6-0.3-0.6-0.6-0.6c-0.6,0-0.9-0.6-0.6-0.9c0.3-0.3,0.6-0.6,0.6-0.9
		c-0.3-0.3-0.6-0.9-0.9-1.5v10.7h0.3c0.3,0,0.6,0,1.2,0c0.3,0,0.6,0.3,0.9,0.3c0.9,0.3,2.4-0.3,3,0.3L58,128h0.3
		c0.3,0,0.6,0,0.6-0.3c0-0.3,0.3,0,0.6,0h0.3c0.3,0,0.3,0,0.3-0.3h0.6c0.3,0,0.3,0.3,0.3,0.3h0.3c0.3,0,0.3,0,0.3-0.3
		c0,0,0,0.3,0.3,0.3c0,0,0-0.3,0.3-0.6c0-0.3,0.3-0.6,0.3-0.9c-0.3,0-0.3,0-0.6,0C61.2,126.5,60.9,126.5,60.4,126.5z"/>
</g>
</svg>
