<?xml version="1.0" encoding="utf-8"?>
<!-- Generator: Adobe Illustrator 17.1.0, SVG Export Plug-In . SVG Version: 6.00 Build 0)  -->
<!DOCTYPE svg PUBLIC "-//W3C//DTD SVG 1.1//EN" "http://www.w3.org/Graphics/SVG/1.1/DTD/svg11.dtd">
<svg version="1.1" id="Layer_1" xmlns:sketch="http://www.bohemiancoding.com/sketch/ns"
	 xmlns="http://www.w3.org/2000/svg" xmlns:xlink="http://www.w3.org/1999/xlink" x="0px" y="0px" viewBox="0 0 48 48"
	 enable-background="new 0 0 48 48" xml:space="preserve">
<g>
	<path fill="#FFFFFF" d="M6.4,33.2c0,0.2,0.1,0.4,0.3,0.5L24,41.8v-0.4v-0.9V22.4v0L6.4,14.7V33.2z M11.1,21.4
		c0-0.2,0.1-0.4,0.3-0.5c0.2-0.1,0.4-0.1,0.6,0l8.2,3.5c0.2,0.1,0.4,0.3,0.4,0.5v7.6c0,0.2-0.1,0.4-0.3,0.5
		c-0.1,0.1-0.2,0.1-0.3,0.1c-0.1,0-0.2,0-0.2,0l-8.2-3.5c-0.2-0.1-0.4-0.3-0.4-0.5V21.4z"/>
	<polygon fill="#FFFFFF" points="15.3,10.4 7.1,13.7 24.6,21.4 32,17.9 	"/>
	<path fill="#FFFFFF" d="M25.2,22.4L25.2,22.4v18.1v1v0.4l16.1-8.1c0.2-0.1,0.3-0.3,0.3-0.5V14.7L25.2,22.4z"/>
	<path fill="#FFFFFF" d="M41,13.7L24.8,6.8c-0.1-0.1-0.3-0.1-0.4,0l-7.5,3l16.5,7.5L41,13.7z"/>
</g>
</svg>
