<?xml version="1.0" encoding="UTF-8"?>
<svg width="150px" height="150px" viewBox="0 0 150 150" version="1.1" xmlns="http://www.w3.org/2000/svg" xmlns:xlink="http://www.w3.org/1999/xlink">
    <!-- Generator: Sketch 41.1 (35376) - http://www.bohemiancoding.com/sketch -->
    <title>icono_mundo</title>
    <desc>Created with Sketch.</desc>
    <defs></defs>
    <g id="Provincias" stroke="none" stroke-width="1" fill="none" fill-rule="evenodd">
        <g id="icono_mundo" fill="#FFFFFF">
            <g id="Group" transform="translate(20.000000, 20.000000)">
                <path d="M55,0 C24.75,0 0,24.75 0,55 C0,85.25 24.75,110 55,110 C85.25,110 110,85.25 110,55 C110,24.75 85.25,0 55,0 Z M55,100.833333 C43.5416667,100.833333 33,96.7083333 25.2083333,89.375 L25.2083333,89.375 C33,76.5416667 27.9583333,68.75 24.2916667,65.5416667 C23.375,64.625 22.4583333,63.7083333 21.0833333,62.7916667 C18.3333333,60.5 16.5,59.125 16.5,55 C16.5,53.1666667 17.4166667,52.25 22.9166667,50.4166667 C26.5833333,49.0416667 31.1666667,47.6666667 33.9166667,44 C40.3333333,35.75 33.4583333,22.9166667 32.0833333,20.625 C31.1666667,19.25 30.25,17.875 29.3333333,16.9583333 C36.2083333,12.375 44.4583333,9.625 53.1666667,9.16666667 C55,11.4583333 57.2916667,13.75 59.5833333,15.5833333 C61.4166667,17.4166667 64.625,17.875 66.4583333,20.1666667 C67.375,21.5416667 66.9166667,23.375 66.9166667,25.2083333 C66.9166667,27.9583333 68.75,32.0833333 74.7083333,32.0833333 L75.625,32.0833333 C77.9166667,32.0833333 85.25,30.25 92.125,27.9583333 C97.625,35.75 101.291667,44.9166667 101.291667,55 C100.833333,80.2083333 80.2083333,100.833333 55,100.833333 Z" id="Shape"></path>
                <path d="M71.0416667,40.7916667 C63.7083333,40.7916667 56.375,44 52.7083333,49.5 C50.4166667,52.7083333 49.5,56.8333333 50.4166667,60.5 C52.7083333,67.8333333 53.1666667,72.4166667 51.3333333,77.4583333 C49.9583333,82.0416667 49.9583333,88.4583333 57.2916667,91.2083333 C58.6666667,91.6666667 60.0416667,92.125 61.875,92.125 C67.375,92.125 74.25,88.4583333 79.75,82.5 C87.0833333,75.1666667 91.2083333,66.4583333 90.75,58.6666667 C91.6666667,49.0416667 82.5,40.7916667 71.0416667,40.7916667 Z" id="Shape"></path>
            </g>
        </g>
    </g>
</svg>