<?xml version="1.0" encoding="UTF-8"?>
<svg width="150px" height="150px" viewBox="0 0 150 150" version="1.1" xmlns="http://www.w3.org/2000/svg" xmlns:xlink="http://www.w3.org/1999/xlink">
    <!-- Generator: Sketch 41.1 (35376) - http://www.bohemiancoding.com/sketch -->
    <title>icon_buenosaires</title>
    <desc>Created with Sketch.</desc>
    <defs></defs>
    <g id="Provincias" stroke="none" stroke-width="1" fill="none" fill-rule="evenodd">
        <g id="icon_buenosaires" fill="#FFFFFF">
            <path d="M73.7343648,5 L69.7196868,10.491201 L68.8044866,10.0152969 L67.6696385,9.67362216 L66.3517502,9.1489074 C66.3517502,9.1489074 65.1452323,9.41715915 64.9850513,9.50278479 C64.8248703,9.58841043 64.5457553,10.1373236 64.5457553,10.1373236 L64.3871206,10.8694837 L53.3803133,25.0367822 L30,24.9513635 L30.9640108,139.119533 L32.5381551,139.119533 L33.2581126,139.766274 L34.4173661,140.02253 L36.7114678,141.523459 L39.1153936,144.86699 L39.9207697,144.86699 C39.9207697,144.86699 40.2468055,145.130439 40.2868498,144.915801 C40.326894,144.701163 40.2868498,144.574126 40.2868498,144.574126 C40.2868498,144.574126 40.7728713,144.488707 40.9335912,144.488707 C41.0943111,144.488707 41.3240766,143.793155 41.3240766,143.793155 L42.3735061,143.58571 L42.5687488,143.280643 L43.1788823,143.073198 L43.9842584,143.073198 C44.1850265,143.073198 44.1062851,142.633902 44.1062851,142.633902 L44.4601625,142.597294 L44.8994586,142.1702 L45.4607813,141.645485 L45.7048347,140.876717 C45.7048347,140.876717 46.1895052,139.505793 46.2295494,139.204952 C46.2695937,138.90411 46.2743811,138.73624 46.3149681,138.521602 C46.3555552,138.306964 46.5956295,138.338562 46.5956295,138.338562 L46.9495069,137.82605 L46.9495069,136.971863 C46.9495069,136.971863 46.9515921,136.581585 46.7908722,136.495959 C46.6301523,136.410333 46.5102108,136.117676 46.5102108,136.117676 L45.7048347,135.67838 L45.3509573,135.214679 L44.3015278,134.873004 C44.3015278,134.873004 44.0940824,134.263859 44.0940824,134.092033 C44.0940824,133.920208 43.9844536,133.966192 43.703597,133.494103 C43.4227404,133.022014 43.4961516,132.847361 43.4961516,132.847361 L43.3009089,132.115201 L43.4961516,131.431852 L43.740205,131.004758 L44.1428931,130.528854 L44.4967705,131.090177 L44.5821892,130.187179 C44.5821892,130.187179 44.8262425,130.05336 44.8262425,129.882113 C44.8262425,129.710865 44.8994586,129.418411 44.8994586,129.418411 L45.3875653,129.076736 L44.8628505,128.515414 L44.7408239,127.014485 L44.8628505,126.282325 L45.2655386,126.318933 L44.9482692,125.89184 L45.0214852,125.550165 L45.4607813,125.379328 L45.0214852,125.123072 L44.9848772,124.781397 L45.4241733,124.42752 L46.1075228,124.256682 L46.6322375,124.342101 L46.7542642,124.000426 L46.9861149,124.134656 L47.388803,124.390912 L47.754883,124.256682 L47.791491,123.829589 L47.6694644,123.622144 L47.9135177,123.573333 L47.8769097,123.182847 C47.8769097,123.182847 47.718275,123.318272 47.718275,123.060821 L47.718275,122.27985 C47.718275,122.06579 47.8280991,122.023594 47.8280991,122.023594 L47.9501257,121.559893 L47.718275,121.169407 C47.718275,121.169407 47.756773,120.786114 47.8769097,120.571476 C47.9970465,120.356838 47.953562,119.925723 47.9135177,119.753898 C47.8734735,119.582072 47.9135177,118.936319 47.9135177,118.936319 L48.2307871,118.765481 C48.2307871,118.765481 48.1907428,118.468185 48.2307871,118.252969 C48.2708314,118.037753 48.4382325,117.947903 48.4382325,117.947903 L48.3528138,117.301161 L48.4748405,116.70323 L48.6334752,116.446974 L48.4016245,116.190718 C48.4016245,116.190718 48.2363125,116.1053 48.0355444,116.1053 C47.8347764,116.1053 47.9135177,115.885652 47.9135177,115.885652 L47.4376137,115.629395 L46.9861149,115.42195 L46.9861149,114.775209 L46.4736028,114.555561 L45.9122801,114.604371 L45.8268614,114.128467 L46.4247921,114.006441 L46.7054535,114.213886 L47.1935603,114.555561 L47.4742217,114.68979 L47.4376137,115.251113 L48.0355444,115.251113 L48.0721524,115.458558 L48.4748405,115.678206 L49.1581899,115.629395 L48.9141366,114.775209 L48.5236512,114.470142 L47.9135177,113.921022 L47.6694644,113.737982 L47.315587,113.95763 L47.2301683,113.481726 L46.8762909,113.481726 L46.3149681,113.481726 L45.9000774,113.237672 L46.0587121,112.786174 L45.7414427,112.456702 L45.582808,112.737363 L45.3143493,112.566526 L45.1679173,112.224851 L45.1069039,111.834365 L44.6920132,111.382867 L44.8994586,111.212029 L44.9482692,110.882557 L44.6309998,110.760531 L44.4845678,110.479869 L44.8506479,110.321235 L45.1679173,109.97956 L45.0092826,109.528061 L45.5339973,109.186386 L45.9976987,108.576253 L45.2655386,108.51524 L44.7408239,107.953917 C44.7408239,107.953917 44.5893507,107.622539 45.0092826,107.453607 C45.4297573,107.285253 44.7896345,106.892285 44.7896345,106.892285 L44.6920132,106.379773 L44.1672984,106.269948 L44.1672984,105.427964 L44.4235545,104.866642 L44.6309998,105.147303 L44.5821892,105.537788 L44.8506479,105.366951 L44.8506479,104.927655 L45.3143493,104.58598 L45.9000774,104.866642 L46.5834268,104.976466 L47.2667763,105.708626 C47.2667763,105.708626 47.9507466,106.826445 48.1087604,107.050919 C48.2662354,107.275394 48.6278913,107.277366 49.0483659,107.502418 C49.4682978,107.72747 50.3174435,107.905106 50.3174435,107.905106 L52.0502224,108.234578 L53.2582867,108.124754 L53.7830014,108.966738 C53.7830014,108.966738 54.5126429,108.520136 54.7226069,108.576253 C54.9325709,108.632951 55.5615296,107.790385 55.7720364,107.734269 C55.9825432,107.67757 57.041114,108.185767 57.041114,108.185767 L58.8837169,107.953917 L60.8239413,108.063741 C60.8239413,108.063741 62.7094508,107.505409 64.3383099,107.392594 C65.967169,107.279779 65.4974424,107.229644 66.1809129,107.172946 C66.8643834,107.116829 67.2894541,106.887388 67.6574358,106.831271 C68.0248747,106.775155 68.6590933,106.662847 69.5000388,106.55061 C70.3409842,106.438951 70.8667377,106.0503 70.8667377,106.0503 C70.8667377,106.0503 72.6963961,105.708626 73.2218527,105.708626 C73.7478483,105.708626 74.3350368,105.208316 75.3329144,105.208316 C76.3307921,105.208316 77.3219494,105.08629 77.3219494,105.08629 C77.3219494,105.08629 78.5848261,104.415143 78.847283,104.415143 C79.1108216,104.415143 80.1681116,103.91235 80.6410753,103.743996 C81.1140391,103.575642 81.3713338,103.629275 81.7393155,103.573159 C82.1067545,103.51646 82.7928451,103.45902 83.4232838,103.402321 C84.0537225,103.346783 84.0474005,103.063638 84.3628893,102.950823 C84.6783781,102.838585 85.3079538,102.787291 85.5709535,102.731175 C85.8339532,102.674476 86.3103532,102.567065 86.8888417,102.511526 C87.4673302,102.455988 88.20673,102.230865 88.20673,102.230865 L89.9883196,101.547516 L91.7210986,100.986193 L93.2952428,100.534694 C93.2952428,100.534694 93.6154526,100.540098 94.0884163,100.315046 C94.56138,100.091153 94.6202926,99.9757846 95.0402245,99.8635474 C95.461238,99.7513101 95.5556769,99.7488266 96.0286406,99.69271 C96.5016044,99.6360115 96.7874163,99.3970423 97.2977182,99.1557926 C98.0748076,98.7872642 98.0816294,98.9141524 98.5545931,98.8019152 C99.0275568,98.6902559 99.0793078,98.5212538 99.0793078,98.5212538 C99.0793078,98.5212538 99.3495472,98.1844055 99.6650359,97.959931 C99.9799858,97.7348787 99.9279107,97.8964342 100.348385,97.7280803 C100.768317,97.5597264 100.708265,97.5626473 100.970721,97.3375949 C101.233178,97.1125426 101.288612,97.1056739 101.446626,96.8250828 C101.604101,96.5444917 101.663755,96.6664481 101.873719,96.6664481 C102.084226,96.6664481 102.547185,96.3789884 102.862135,96.153936 C103.177624,95.9288837 103.388631,95.8756879 103.704119,95.7634506 C104.019608,95.6512134 104.387469,95.4217759 104.387469,95.4217759 C104.387469,95.4217759 105.235455,94.9238797 105.497912,94.8116425 C105.76145,94.6994052 106.49853,93.7378076 106.49853,93.7378076 C106.49853,93.7378076 106.752268,93.4082653 106.962232,93.1276742 C107.172196,92.8470831 107.389325,92.6151621 107.389325,92.6151621 C107.389325,92.6151621 107.702374,92.1104675 107.755405,91.7731779 C107.807898,91.4364702 107.755405,91.1508418 107.755405,91.1508418 L107.389325,90.7115457 L107.865229,90.369871 L108.011661,89.6987242 L108.011661,89.0763881 C108.011661,89.0763881 108.277059,88.1245097 108.487565,87.8439186 C108.698072,87.5633275 109.017661,87.2269868 109.122104,87.0019344 C109.227086,86.77746 109.69563,86.5504357 109.69563,86.5504357 C109.69563,86.5504357 110.064029,85.5430185 110.378979,85.3179661 C110.694468,85.0929138 110.964707,84.9762914 110.964707,84.9762914 L111.172153,84.5247927 C111.172153,84.5247927 111.328269,84.4173818 111.538233,84.3051446 C111.748197,84.1929074 111.901251,84.1928371 112.111758,84.0244832 C112.322265,83.8555514 112.465635,83.6462005 112.465635,83.6462005 L113.014756,83.0116617 L113.954361,81.5473415 L114.381454,81.047032 L114.747535,80.3636826 L114.686521,79.9243865 C114.686521,79.9243865 114.796966,79.3556875 114.95498,79.131213 C115.112455,78.9067386 115.479695,79.021389 115.479695,79.021389 C115.479695,79.021389 115.68714,78.4654706 115.68714,78.2404182 C115.68714,78.0159438 116.05322,77.5570688 116.05322,77.5570688 C116.05322,77.5570688 116.640108,76.7766056 116.797583,76.4954366 C116.955058,76.2148455 117.480932,75.7022631 117.480932,75.7022631 L117.798202,74.7504549 L118.371727,74.5308069 C118.371727,74.5308069 119.052015,73.2963615 119.262522,72.8468386 C119.472486,72.3973157 119.689615,72.4441505 119.689615,72.4441505 L120.104506,71.5533557 L120.311951,70.6503582 L119.994682,69.9792114 L120.21433,69.4666993 L120.311951,68.9053766 L120.311951,68.2342298 C120.311951,68.2342298 120.153317,67.7783459 120.153317,67.4410563 L120.153317,66.3794241 C120.153317,66.1549497 120.311951,65.757088 120.311951,65.757088 L120.263141,65.2567786 L119.836047,61.8278287 L119.579791,60.9858445 L119.421157,61.1566819 L119.469967,61.7668153 L119.213711,61.7668153 L118.579173,61.4373433 L117.944634,61.3763299 L117.737188,61.888842 L117.578554,61.6081806 L117.053839,61.5471673 L115.748153,61.2054926 C115.748153,61.2054926 114.901327,60.7545014 114.796345,60.4733324 C114.691363,60.1927413 114.22282,59.6313483 114.22282,59.6313483 L113.112377,58.6795401 L112.795108,57.4958812 L112.380217,56.9345585 L111.745678,55.7020889 L111.330787,54.8601048 L111.281977,53.9571073 L111.281977,53.1151231 L111.330787,52.163315 L111.587043,51.4311548 L112.331406,50.1986853 L112.587662,49.5275385 L113.17339,48.9052024 L113.17339,48.404893 L113.795726,47.8923809 L114.381454,47.0503967 L114.95498,46.4280606 L115.272249,45.5372658 L115.113615,44.573255 L114.5889,43.5116228 L113.063566,41.3151424 L112.587662,40.6439956 L111.904313,39.9728488 L111.428409,39.0698513 L110.439992,38.1180432 L109.69563,37.9472058 L109.073294,37.4468964 L108.389944,36.9953976 L108.328931,36.5438989 L107.54796,36.2632375 L106.120248,35.3114293 L105.656546,34.7501066 L105.070818,34.4084318 L104.070199,34.1277705 L103.496674,33.627461 L102.813324,33.1759623 L102.496055,32.8953009 L101.812706,32.8953009 C101.812706,32.8953009 101.132418,32.8342876 100.921911,32.8342876 C100.711947,32.8342876 100.763276,31.9923034 100.763276,31.9923034 L100.128737,31.7726554 L99.8724813,31.5408047 L99.3965772,31.3699673 L99.1403212,30.8696579 L97.5051636,28.3925161 L97.3953395,28.0020307 L97.3465289,27.6725587 L96.8706248,27.2698706 L96.7119901,26.6597371 L97.1390835,26.3180624 L97.0292595,25.927577 L97.2977182,25.6469156 L97.2977182,25.0245795 L96.9316381,24.8049315 L96.9316381,24.2924194 L97.5539742,23.9629473 L97.9200543,24.4144461 L98.5057824,24.121582 L98.7132278,23.4504352 L98.9206731,22.3277897 L99.1891319,21.2661575 L99.2379425,20.4241734 L99.2501452,19.887256 L98.8718625,18.7280024 L97.2977182,19.0208665 L95.9310193,18.227693 L93.7711469,16.6535487 L92.8803521,16.7633727 L89.5124155,15.3112551 L87.5233805,15.4210792 L85.8882229,14.3472443 L84.0578226,12.8341134 L82.312841,12.553452 L81.8491396,11.5406305 L79.8479019,10.1983369 L77.6880295,9.1855154 L73.7343648,5 Z M100.641249,22.5474378 L100.50702,22.8769098 L100.616844,23.0233418 L100.702263,23.2063819 L100.836492,23.0233418 L100.763276,22.8403018 L100.641249,22.5474378 Z M45.582808,105.366951 L45.9488881,106.013692 L46.1441308,106.062503 L45.9122801,105.586599 L45.582808,105.366951 Z M45.509592,107.221757 L45.1801199,107.64885 L45.2655386,108.124754 L45.582808,107.990525 L45.5462,107.685458 L45.7902534,107.392594 L45.509592,107.221757 Z M47.2301683,107.783079 L47.1935603,108.3322 L47.4376137,108.637266 L47.1081416,108.808104 L47.791491,108.893522 L48.2795978,108.722685 L49.2070006,109.284008 L49.3168246,109.576872 L49.8049314,109.149778 L49.3656353,108.844712 L48.8043126,108.722685 L48.7188939,108.295592 L47.6328564,108.38101 L47.2301683,108.075943 L47.2301683,107.783079 Z M48.0355444,109.66229 L48.0355444,110.309032 L48.2429898,110.784936 L48.2429898,111.212029 L48.6822859,111.248637 L49.2070006,111.773352 L49.3656353,111.80996 L50.0001741,111.895379 L50.3296462,112.115027 L50.5248889,112.883795 L50.8543609,112.798376 L51.1716303,111.602515 L50.8543609,111.041192 L50.6103075,110.650707 L50.2808355,110.394451 L50.0001741,110.138194 L48.1941791,109.918546 L48.0355444,109.66229 Z M47.5962483,111.773352 L47.1081416,111.944189 L46.9495069,112.456702 L47.6328564,112.712958 L48.0355444,113.22547 L48.3528138,113.018024 L48.0355444,112.67635 C48.0355444,112.67635 48.1209631,112.372271 48.1209631,112.200446 C48.1209631,112.02862 47.754883,112.200446 47.754883,112.200446 L47.5962483,111.773352 Z M48.7188939,112.505512 L49.2436086,112.969214 L49.2436086,112.590931 L48.7188939,112.505512 Z M45.8268614,126.026069 L45.509592,126.148096 L45.9488881,126.624 L45.9854961,126.282325 L45.8268614,126.026069 Z M47.791491,128.600832 L47.718275,129.540438 L47.754883,130.101761 L47.9135177,129.455019 L47.791491,128.600832 Z M44.9482692,131.51727 L44.6676078,131.907756 L44.6676078,132.554497 L45.0702959,132.298241 L45.3509573,132.164012 L44.9482692,131.51727 Z M47.791491,132.505686 L47.4376137,132.93278 L47.0715336,132.591105 L47.0349256,133.372076 L46.7542642,133.628332 L46.7542642,134.226263 L46.7542642,134.738775 L46.5102108,135.165868 L46.2661575,134.995031 L46.2295494,135.385516 L46.5468188,135.690583 L46.8762909,135.214679 L47.2301683,134.653356 L47.1081416,134.177452 L47.0349256,133.884588 L47.388803,133.884588 L47.5962483,133.494103 L47.315587,133.408684 L47.388803,133.201239 L47.718275,133.494103 L47.791491,132.505686 Z" id="path3199"></path>
        </g>
    </g>
</svg>