<?xml version="1.0" encoding="UTF-8"?>
<svg width="150px" height="150px" viewBox="0 0 150 150" version="1.1" xmlns="http://www.w3.org/2000/svg" xmlns:xlink="http://www.w3.org/1999/xlink">
    <!-- Generator: Sketch 41.1 (35376) - http://www.bohemiancoding.com/sketch -->
    <title>icon_cordoba</title>
    <desc>Created with Sketch.</desc>
    <defs></defs>
    <g id="Provincias" stroke="none" stroke-width="1" fill="none" fill-rule="evenodd">
        <g id="icon_cordoba" fill="#FFFFFF">
            <path d="M108.805652,24.607704 L99.7988629,24.688306 L99.9496284,22.5911934 L99.1942219,21.3806001 L99.1188296,20.3312158 L99.948858,18.7176619 L99.7980798,17.3459052 L94.5902426,14.6023695 L94.2879158,13.5529853 L94.2879158,10.9714609 C89.7904292,10.5892699 85.3037912,10.192944 81.0036857,9.60052103 L80.2490496,9.19672526 L80.0221278,7.66377341 L78.1351556,7.3405663 L76.8520284,7.8249641 L74.8142779,7.74353188 L72.4742133,6.6143707 L70.7387832,6.53295631 L69.6826034,7.01735919 L68.4748813,5.80677025 L65.3047946,5 L57.2283954,5.16119514 L51.1143672,6.04855851 L49.152792,6.61354942 L49.6058844,9.11529304 L51.1143672,13.8753526 L50.6620643,16.2965165 L45.90653,20.2506227 L41.2271583,21.1379905 L33,43.0048419 L33.7546425,66.8898713 L38.2832295,67.8578367 L42.1325791,71.0051733 L44.5472402,74.2331042 L45.7557645,78.2669797 L49.5289386,77.864009 L50.2081888,78.3484055 L50.1328029,79.3163703 L50.282798,80.5269478 L50.9628186,81.0105147 L51.2643623,82.5443012 L50.434353,84.3198709 L50.2835748,86.3372243 L50.434353,89.0807581 L49.8312655,90.936092 L49.5289386,93.0340398 L48.9250744,95.4551954 L48.9250744,97.3911237 L47.8688882,99.0046737 L46.28423,99.8122799 L47.1142584,111.0282 C47.6427367,121.68245 48.1704383,133.568051 48.6989166,145 C61.3007768,144.524739 74.0759719,144.069419 84.9284276,143.386444 L84.7014931,127.570829 L95.1171611,127.732017 L109.155251,103.120806 L112.099192,99.0055052 L115.948529,95.1328185 L116.778551,92.7124925 L117.080101,90.775734 L116.174687,87.6283975 L115.269279,83.2713124 L114.590022,80.5277786 L113.306914,77.8648398 L111.419929,74.4757201 L109.834494,71.8127794 L108.476007,69.9574462 L108.174469,68.2633011 L108.476007,67.1333168 L110.136821,64.7935889 L110.362979,63.1800376 L109.306799,60.7597103 L109.004485,59.6297278 L109.457571,57.451185 L112.174565,49.3826033 L116.174687,36.7134909 L116.627785,35.5843348 L108.805652,24.607704 L108.805652,24.607704 Z" id="C__rdoban_ss-Copy"></path>
        </g>
    </g>
</svg>