<?xml version="1.0" encoding="UTF-8"?>
<svg width="150px" height="150px" viewBox="0 0 150 150" version="1.1" xmlns="http://www.w3.org/2000/svg" xmlns:xlink="http://www.w3.org/1999/xlink">
    <!-- Generator: Sketch 41.1 (35376) - http://www.bohemiancoding.com/sketch -->
    <title>icon_chubut</title>
    <desc>Created with Sketch.</desc>
    <defs></defs>
    <g id="Provincias" stroke="none" stroke-width="1" fill="none" fill-rule="evenodd">
        <g id="icon_chubut" fill="#FFFFFF">
            <path d="M87.0068261,119.253088 L86.9563017,118.436927 L87.6172749,117.675537 L88.4817252,116.587831 L88.6346837,115.608893 L89.4991341,114.684721 L89.3461756,113.868565 L89.4991341,112.835614 L89.2956454,111.855934 L89.7026113,110.876996 L90.7705446,109.354205 L92.0426621,106.961245 L92.6025864,105.32968 L95.04437,102.556412 L96.8750093,101.359173 L97.7913809,101.52272 L98.3000968,101.196403 L98.7070627,101.30516 L99.0122842,100.761318 L101.708771,100.815349 L101.555806,100.434278 L101.250573,100.162728 L101.047113,99.5101004 L100.334915,99.5101004 L100.385439,99.1290347 L101.505288,99.2385561 L101.454074,99.5101004 L101.963485,99.7276428 L101.912271,99.2385561 L102.472195,98.9114924 L101.454786,98.8027298 L101.251303,98.0960949 L102.115748,97.7150121 L102.776715,97.4434563 L102.980905,97.0083772 L103.743611,96.7368386 L103.794136,96.1922268 L104.251632,96.8988617 L104.9133,96.844831 L105.523744,95.3768006 L106.999338,94.9417101 L108.118486,95.485569 L108.627202,95.0504842 L109.136607,95.4315498 L109.543573,95.5943315 L110.102785,96.6280416 L110.306279,96.2477117 L110.713239,95.8666461 L110.815691,95.2680266 L111.324389,95.1592583 L111.781874,95.2680266 L111.629611,95.7031114 L112.036577,95.9746672 L112.087101,95.3220342 L113.257474,95.5403239 L113.15504,96.0841827 L113.562,96.4652541 L114.477665,95.5943315 L114.935149,95.7038586 L114.833405,96.3024724 L115.189852,96.1929625 L115.545592,95.5410826 L115.088119,95.2687681 L115.088119,94.6709073 L115.597513,94.6709073 L115.190559,94.2358282 L115.444561,93.8007492 L115.902039,93.2561374 L116.411451,92.6582823 L115.953972,92.3859793 L116.259182,92.277211 L116.156748,91.7326106 L115.953972,92.0596628 L115.749782,92.277211 L115.190559,92.1684426 L115.190559,91.7873713 L113.409737,91.6785972 L113.257474,91.1347383 L113.257474,90.2645745 L113.663745,90.3186052 L113.663745,88.2519611 L113.409737,87.9248974 L114.477665,86.8919518 L115.800996,86.3473457 L117.073114,84.8253077 L117.53061,84.5530104 L117.683568,85.0976165 L118.446274,84.8260664 L118.344536,83.9558911 L117.93757,84.1186728 L118.344536,83.6843468 L118.548013,82.9777004 L119.107242,83.4120437 L119.565428,82.9777004 L119.259493,82.5418799 L119.106546,82.2155635 L119.310018,81.3994131 L120.276914,80.4204752 L120.175169,79.1152323 L119.818722,78.4625994 L119.564726,77.3748989 L119.055309,76.5594957 L118.648343,75.7433281 L119.361238,74.6556276 L120.022211,74.7651547 L120.022211,74.2753092 L120.276207,74.2753092 L120.072724,73.5686744 L119.767502,72.9708021 L120.072724,72.4262132 L120.988394,72.0998968 L119.768204,72.1539274 L119.564726,70.9574587 L119.818722,70.4128526 L119.208279,70.3588794 L118.801319,69.2711559 L118.394359,68.1294478 L118.496793,66.3343537 L117.835119,65.6817266 L117.886333,64.321723 L118.445556,62.6361503 C118.445556,62.6361503 118.852516,61.1673785 119.310006,61.1673785 C119.768192,61.1673785 120.53091,59.5358076 120.53091,59.5358076 L120.836125,58.7196572 L121.803723,57.468422 L122.36294,56.8165363 L122.108944,56.1639207 L122.108944,55.0762029 L122.922169,53.7709716 L124.347239,52.7920222 L126.127365,51.6495553 L128.517935,49.85522 L130.04406,49.528162 L130.705723,49.2566062 L132.12939,47.9513634 L133.198025,47.0811881 L133.604979,46.4825858 L133.146799,46.1562693 L131.163201,45.9927461 L130.654497,46.2650376 L130.043353,45.5028892 L128.466709,45.5028892 L127.652783,45.5028892 L126.533636,44.4152002 L125.363263,43.7085538 L124.142365,43.8180751 L124.040626,43.3289769 L123.17617,43.1106931 L122.311726,42.5668457 L121.751796,41.9682262 L122.362244,40.88052 L123.125646,39.2489606 L124.752802,38.9226499 L127.703302,36.0398382 L129.230122,35.713539 C129.230122,35.713539 130.80676,36.311394 131.112683,36.2573921 C131.417904,36.2033614 132.588277,36.6377162 132.588277,36.6377162 L133.808474,38.0524804 L134.266654,39.2489606 L133.910218,40.5001901 L134.113689,41.8054445 L134.774663,42.7843766 L135.639113,43.8720828 L137.012963,44.4159417 L139.149525,43.7093011 L142.201758,42.4580716 L144.287801,40.88052 L144.542504,39.0314183 L145,37.5093745 L144.593028,36.5296951 L144.542504,34.8981358 L144.389551,33.1578024 L144.389551,32.0160885 L144.236593,30.9823842 L144.186068,30.1669925 L143.626851,29.7318905 L142.812919,28.1543446 L142.151245,26.359262 L141.744279,25.2715501 L141.439069,25.5978665 L140.981579,25 L140.828614,25.3803184 L139.964164,25.7073878 L139.40424,25.7614185 L138.590314,26.4140399 L137.36941,27.120669 L137.01367,27.7192828 L135.690333,28.2631474 L133.960742,28.9697822 L132.74054,29.4048555 L131.824175,29.5683845 L131.722436,29.7319135 L132.739845,29.8954597 L133.756558,29.7319135 L135.842596,29.4603692 C135.842596,29.4603692 136.046085,29.6779116 136.300075,29.6779116 C136.554783,29.6779116 136.656522,30.6568495 136.656522,30.6568495 L137.012969,31.7445557 L137.368709,32.2884088 L137.012969,32.7234878 L136.453045,33.0505515 L136.046085,33.5944104 L134.011957,33.7039259 L133.198031,33.3228546 L132.536356,33.4863893 L132.28236,34.1382635 L131.26494,34.3017925 L128.823863,34.3017925 L128.009932,34.1382635 L127.806449,33.7039259 L128.722119,33.376868 L128.925608,32.3979301 L128.875083,31.691301 L129.587282,30.44006 L130.401202,29.6786703 L128.264634,29.6786703 L127.043748,29.4063557 L126.331561,29.8414463 L125.415885,29.3523538 L124.702991,29.1348114 L123.889076,28.8077477 L123.431592,28.7537171 L122.567147,28.2646304 L121.956698,27.7755379 L121.193291,26.9053683 L120.735801,25.3825831 C101.762836,24.1838553 58.2506037,28.9960159 11.5128354,33.3235903 L11.4110939,35.0091688 L10.1389793,35.8253077 L9.32505052,36.0968578 L7.13726506,37.4568728 L6.01811242,38.544579 L5.50940684,39.9585959 L5,41.6989293 L5.15296196,43.5487783 L6.06863224,44.1466448 L7.08604342,43.8750947 L7.95049264,43.9838631 C7.95049264,43.9838631 7.89997397,44.8540269 7.95049264,45.1810906 C8.00101131,45.5073955 7.59474958,48.1178985 7.59474958,48.1178985 L7.03482235,49.4231471 L6.67837747,51.0547065 L6.6278588,52.3599551 L7.34004674,54.3725915 L8.91738457,56.058147 L10.8504672,57.7984862 L11.4609137,58.8321847 L11.2574307,59.8111226 L11.8678772,60.6272788 L13.2410332,61.4966838 L14.4619261,62.0952976 L14.4114074,63.1830153 L14.0044427,64.6517872 L13.4957372,65.5759702 C13.4957372,65.5759702 12.9358099,66.2825993 13.037552,66.6089157 C13.1399941,66.9359679 12.8347697,68.5667858 12.8347697,68.5667858 L13.2410343,69.7084939 L14.6654102,71.2860513 L16.5479678,72.9183579 L17.0054523,73.6797534 L17.2089353,74.985002 L17.4636381,79.6073712 L17.4636381,81.1849343 L17.3611983,82.2186271 L17.4117227,83.0340303 L17.0047568,83.1975593 L16.4455337,83.4151017 L16.2420508,84.0137154 L16.4455337,84.8298716 L16.9542382,85.6452805 L16.7002366,89.0171675 L17.056678,90.0508603 L17.5141625,90.4859508 L17.9211284,90.4319201 L20.3116978,89.6157582 C20.3116978,89.6157582 21.0751051,89.5069957 21.4820652,89.4522235 C21.889031,89.3982503 22.6517428,89.2346984 22.6517428,89.2346984 L25.2464907,89.4522235 L27.1290512,90.1588699 L28.0447215,91.4641127 L28.4011686,92.4978113 L28.0447215,94.2929053 L27.6377556,97.3384816 L27.0778313,98.0458637 L26.4673825,98.0458637 L25.3994549,97.9363424 L24.5350046,97.0121709 L23.7722985,96.5230784 L23.0594099,96.9033968 L22.6019254,97.3384816 L22.0932152,97.9371011 L21.6862494,98.5897225 L20.7698836,98.5897225 L14.6148955,98.9160275 L14.0044485,99.1883363 L13.6992258,99.7861913 L14.1054881,100.711127 L14.461933,101.580532 L15.8863095,102.940547 L17.3619053,102.940547 L19.2949844,102.451455 L20.9228421,102.506233 L21.6350294,102.886557 L22.9071469,104.246566 L23.9238545,105.38828 L26.8238297,109.250013 L27.1802711,110.065433 L26.9767939,110.718049 L26.4168638,110.989599 L25.5011935,110.989599 L24.6367489,111.424678 L24.3820403,112.404357 L24.8914517,113.437314 L25.0444102,114.089947 L24.5350046,114.362239 L23.3653327,114.416269 L21.737475,114.687819 L21.2287706,115.394448 L21.0758063,116.373386 L21.0245922,119.527731 L21.6862551,121.649141 L21.9914824,122.682087 L21.9914824,123.009151 L22.9583726,123.77054 L24.3315274,124.750226 C48.1515774,122.239507 67.3820617,120.685206 87.0068663,119.253192 L87.0068261,119.253088 Z" id="Chubutonan_ss"></path>
        </g>
    </g>
</svg>