<?xml version="1.0" encoding="UTF-8"?>
<svg width="150px" height="150px" viewBox="0 0 150 150" version="1.1" xmlns="http://www.w3.org/2000/svg" xmlns:xlink="http://www.w3.org/1999/xlink">
    <!-- Generator: Sketch 41.1 (35376) - http://www.bohemiancoding.com/sketch -->
    <title>icono_cooperativismo</title>
    <desc>Created with Sketch.</desc>
    <defs></defs>
    <g id="Provincias" stroke="none" stroke-width="1" fill="none" fill-rule="evenodd">
        <g id="icono_cooperativismo" fill="#FFFFFF">
            <path d="M75.1501733,87.487594 L59.2782748,87.487594 L59.2782748,101.743797 L55.0220718,101.743797 L55.0220718,87.487594 L39,87.487594 L57.1501733,46 L75.1501733,87.1443285 L75,87.487594 L75.1501733,87.487594 Z M75,130 C105.375661,130 130,105.375661 130,75 C130,44.6243388 105.375661,20 75,20 C44.6243388,20 20,44.6243388 20,75 C20,105.375661 44.6243388,130 75,130 Z M75.1501733,87.487594 L75.3003466,87.487594 L75.1501733,87.1443285 L93.1501733,46 L111.300347,87.487594 L95.2782748,87.487594 L95.2782748,101.743797 L91.0220718,101.743797 L91.0220718,87.487594 L75.1501733,87.487594 Z" id="Combined-Shape"></path>
        </g>
    </g>
</svg>