<?xml version="1.0" encoding="UTF-8"?>
<svg width="150px" height="150px" viewBox="0 0 150 150" version="1.1" xmlns="http://www.w3.org/2000/svg" xmlns:xlink="http://www.w3.org/1999/xlink">
    <!-- Generator: Sketch 41.1 (35376) - http://www.bohemiancoding.com/sketch -->
    <title>icon_sanluis</title>
    <desc>Created with Sketch.</desc>
    <defs></defs>
    <g id="Provincias" stroke="none" stroke-width="1" fill="none" fill-rule="evenodd">
        <g id="icon_sanluis" fill="#FFFFFF">
            <path d="M68.0900804,145 L69.7895161,140.939318 L70.6891569,120.6337 L70.4894737,114.541573 L69.6896788,112.404489 L69.3901246,106.205618 L66.2908157,100.96855 L64.59138,98.1909977 L63.3922019,92.2067267 L62.9917816,89.7483079 L61.1925001,88.038197 L61.1925001,85.4730349 L63.0926477,79.8089939 L63.2923561,75.4280737 L58.2938863,72.0089565 L54.8950232,67.9482764 L54.1950825,63.5662626 L50.0962534,53.4134526 L48.6973921,46.5730199 L48.2969718,39.6258422 L47.5970311,32.1438433 L45.0977919,27.9764182 L44.8981004,24.6629439 L41.7987747,20.2820296 L41,6.60116425 L57.9943489,6.28093005 L60.3937423,9.05847929 L64.2918342,8.52475844 L67.8904057,10.1281235 L68.790038,9.80789014 L68.9897296,7.35057172 L68.9897296,6.49551626 L71.688635,6.70900545 L75.5877641,7.77754924 L77.1873625,7.45731673 L78.9866356,5.64046165 L85.1842919,5 L90.6829941,6.17418503 L95.4807437,9.27416844 L98.8796152,13.2281069 L100.979454,18.0370991 L101.379875,20.4955179 L106.877557,19.9606958 L107.577497,20.8157505 L107.078268,22.4191147 L108.677867,24.7707893 L108.677867,26.0528198 L107.977909,27.6561848 L107.377797,31.9314562 L107.67838,35.5651605 L106.778739,37.1674243 L106.479202,39.9460764 L105.679407,43.0449595 L105.479724,46.4651762 L104.779783,47.9606958 L101.979978,48.9224946 L103.479714,69.1213636 C104.54713,93.2004372 105.763822,118.880661 106.677865,143.398833 L68.0900804,145 L68.0900804,145 Z" id="San_Luisan_ss"></path>
        </g>
    </g>
</svg>