<?xml version="1.0" encoding="utf-8"?>
<!-- Generator: Adobe Illustrator 17.1.0, SVG Export Plug-In . SVG Version: 6.00 Build 0)  -->
<!DOCTYPE svg PUBLIC "-//W3C//DTD SVG 1.1//EN" "http://www.w3.org/Graphics/SVG/1.1/DTD/svg11.dtd">
<svg version="1.1" id="Layer_1" xmlns:sketch="http://www.bohemiancoding.com/sketch/ns"
	 xmlns="http://www.w3.org/2000/svg" xmlns:xlink="http://www.w3.org/1999/xlink" x="0px" y="0px" viewBox="0 0 48 48"
	 enable-background="new 0 0 48 48" xml:space="preserve">
<g>
	<path fill="#FFFFFF" d="M24,13.3c2.6,0,4.7-2.1,4.7-4.7c0-2.6-2.1-4.7-4.7-4.7c-2.6,0-4.7,2.1-4.7,4.7C19.3,11.1,21.4,13.3,24,13.3
		z"/>
	<path fill="#FFFFFF" d="M14.4,16.6c-0.3,0.1-0.5,0.3-0.5,0.6V30c0,0.4,0.3,0.7,0.7,0.7h2.8l1.9,12.9c0,0.3,0.3,0.6,0.7,0.6H28
		c0.3,0,0.6-0.2,0.7-0.6l1.5-9.7L15.1,16.4L14.4,16.6z"/>
	<path fill="#FFFFFF" d="M33.6,16.6l-6-2c-0.3-0.1-0.7,0-0.8,0.4L24,21l-2.7-6c-0.1-0.3-0.5-0.5-0.8-0.4l-2.8,0.9l13.1,15.2h2.6
		c0.4,0,0.7-0.3,0.7-0.7V17.3C34.1,17,33.9,16.7,33.6,16.6z"/>
</g>
</svg>
