<?xml version="1.0" encoding="UTF-8" standalone="no"?>
<svg width="48px" height="48px" viewBox="0 0 48 48" version="1.1" xmlns="http://www.w3.org/2000/svg" xmlns:xlink="http://www.w3.org/1999/xlink" xmlns:sketch="http://www.bohemiancoding.com/sketch/ns">
    <!-- Generator: Sketch 3.1.1 (8761) - http://www.bohemiancoding.com/sketch -->
    <title>icono_pueblo</title>
    <desc>Created with Sketch.</desc>
    <defs></defs>
    <g id="Page-1" stroke="none" stroke-width="1" fill="none" fill-rule="evenodd" sketch:type="MSPage">
        <g id="icono_pueblo" sketch:type="MSArtboardGroup" fill="#FFFFFF">
            <g id="Imported-Layers" sketch:type="MSLayerGroup" transform="translate(8.000000, 10.000000)">
                <path d="M-0.101,13.706 C-0.101,15.144 0.346,16.004 1.228,16.272 L1.228,21.675 L6.54,21.675 L6.54,16.271 C7.421,16.003 7.867,15.144 7.869,13.706 L7.869,9.057 L-0.101,9.057 L-0.101,13.706" id="Fill-1" sketch:type="MSShapeGroup"></path>
                <path d="M23.807,9.057 L23.807,13.706 C23.807,15.144 24.254,16.004 25.136,16.272 L25.136,21.675 L30.448,21.675 L30.448,16.271 C31.329,16.003 31.775,15.144 31.777,13.706 L31.777,9.057 L23.807,9.057" id="Fill-2" sketch:type="MSShapeGroup"></path>
                <path d="M10.525,16.362 C10.525,17.966 11.668,19.308 13.182,19.616 L13.182,27.652 L18.494,27.652 L18.494,19.616 C20.008,19.308 21.151,17.966 21.151,16.362 L21.151,9.057 L10.525,9.057 L10.525,16.362" id="Fill-3" sketch:type="MSShapeGroup"></path>
                <path d="M27.792,7.729 C29.257,7.729 30.448,6.537 30.448,5.073 C30.448,3.608 29.257,2.416 27.792,2.416 C26.327,2.416 25.136,3.608 25.136,5.073 C25.136,6.537 26.327,7.729 27.792,7.729" id="Fill-4" sketch:type="MSShapeGroup"></path>
                <path d="M3.884,7.729 C5.349,7.729 6.54,6.537 6.54,5.073 C6.54,3.608 5.349,2.416 3.884,2.416 C2.419,2.416 1.228,3.608 1.228,5.073 C1.228,6.537 2.419,7.729 3.884,7.729" id="Fill-5" sketch:type="MSShapeGroup"></path>
                <path d="M15.838,7.729 C18.035,7.729 19.823,5.942 19.823,3.744 C19.823,1.547 18.035,-0.24 15.838,-0.24 C13.641,-0.24 11.853,1.547 11.853,3.744 C11.853,5.942 13.641,7.729 15.838,7.729" id="Fill-6" sketch:type="MSShapeGroup"></path>
            </g>
        </g>
    </g>
</svg>