<?xml version="1.0" encoding="utf-8"?>
<!-- Generator: Adobe Illustrator 17.1.0, SVG Export Plug-In . SVG Version: 6.00 Build 0)  -->
<!DOCTYPE svg PUBLIC "-//W3C//DTD SVG 1.1//EN" "http://www.w3.org/Graphics/SVG/1.1/DTD/svg11.dtd">
<svg version="1.1" id="Layer_1" xmlns:sketch="http://www.bohemiancoding.com/sketch/ns"
	 xmlns="http://www.w3.org/2000/svg" xmlns:xlink="http://www.w3.org/1999/xlink" x="0px" y="0px" viewBox="0 0 25 25"
	 enable-background="new 0 0 25 25" xml:space="preserve">
<title>Artboard 1</title>
<desc>Created with Sketch.</desc>
<g id="Page-1" sketch:type="MSPage">
	<g id="Artboard-1" sketch:type="MSArtboardGroup">
		<path id="Imported-Layers" sketch:type="MSShapeGroup" fill="#FFD500" d="M12.5,0C5.7,0,0.1,5.5,0.1,12.4s5.5,12.4,12.4,12.4
			c6.2,0,11.4-4.6,12.2-10.6c0.1-0.4,0.1-0.8,0.1-1.3c0-0.2,0-0.3,0-0.5C24.9,5.5,19.3,0,12.5,0L12.5,0z M18.2,10.1
			c0,0.1,0,0.2,0,0.4c0,3.6-2.7,7.6-7.6,7.6c-1.5,0-2.9-0.4-4.1-1.2c0.2,0,0.4,0,0.6,0c1.2,0,2.4-0.4,3.3-1.1C9.3,15.8,8.3,15,8,14
			C8.1,14,8.3,14,8.5,14c0.2,0,0.5,0,0.7-0.1C7.9,13.7,7,12.6,7,11.3v0c0.4,0.2,0.8,0.3,1.2,0.3c-0.7-0.5-1.2-1.3-1.2-2.2
			c0-0.5,0.1-0.9,0.4-1.3c1.3,1.6,3.3,2.7,5.5,2.8c-0.1-0.2-0.1-0.4-0.1-0.6c0-1.5,1.2-2.7,2.7-2.7c0.8,0,1.5,0.3,2,0.9
			c0.6-0.1,1.2-0.3,1.7-0.7C19,8.3,18.5,8.8,18,9.2c0.5-0.1,1-0.2,1.5-0.4C19.1,9.3,18.7,9.8,18.2,10.1L18.2,10.1z"/>
	</g>
</g>
</svg>
