<?xml version="1.0" encoding="UTF-8"?>
<svg width="150px" height="150px" viewBox="0 0 150 150" version="1.1" xmlns="http://www.w3.org/2000/svg" xmlns:xlink="http://www.w3.org/1999/xlink">
    <!-- Generator: Sketch 41.1 (35376) - http://www.bohemiancoding.com/sketch -->
    <title>icon_tucuman</title>
    <desc>Created with Sketch.</desc>
    <defs></defs>
    <g id="Provincias" stroke="none" stroke-width="1" fill="none" fill-rule="evenodd">
        <g id="icon_tucuman" fill="#FFFFFF">
            <path d="M33.7165795,18.6041935 L27.6709547,16.2960426 L27.2395823,26.9145643 C27.2395823,26.9145643 25.0783672,32.4555764 24.8649123,33.8414032 C24.6492352,35.2248803 24,41.6906392 24,41.6906392 L24.4313542,46.3069411 L31.3418912,46.3069411 C31.3418912,46.3069411 35.2285412,48.6150738 36.3069084,49.5373797 C48.6627589,51.3986578 42.2725171,58.8484878 42.1368561,69.3932956 L37.6032295,78.8565123 C37.6032295,78.8565123 32.6359537,85.3221983 32.6359537,86.7056937 L32.6359537,91.5549581 L39.9800852,95.9406836 L44.2980712,97.7876815 L44.7272032,104.481613 C43.8711431,108.636761 42.1790953,112.665958 45.1585938,117.408267 L49.2631066,127.565599 C53.6477574,145.291611 54.4837815,130.753289 56.8206931,129.873768 C61.0341646,131.228722 59.4154663,132.645458 60.2759707,136.567681 C60.923002,138.414679 63.7312301,142.108693 63.7312301,142.108693 C67.5956221,147.699613 68.9808296,143.553936 71.2888166,143.033367 L76.0381567,137.725318 C80.9075299,128.08145 83.3111245,135.999555 86.6196484,137.492373 C95.7514536,133.92198 99.5869393,129.643192 104.327391,125.488007 C103.896037,123.177488 100.222841,120.408184 100.222841,120.408184 L99.5758284,117.405881 L101.090012,107.018009 L101.737044,98.0135405 L103.46246,93.8583733 C109.352443,96.2307302 107.380202,90.1952508 107.998345,86.9338658 L114.475306,63.1557636 L118.79331,57.6147697 L121.815012,52.3067019 L120.952285,48.6103198 C120.952285,48.6103198 122.679924,46.071556 123.542614,45.1493047 C124.407563,44.2245762 125.485948,38.9165448 125.485948,38.9165448 L123.542614,32.9143615 C121.995116,29.1632997 133.988517,14.6273275 118.144057,16.2936929 L114.473066,16.2936929 C113.610376,16.2936929 108.2118,14.6772532 108.2118,14.6772532 C108.2118,14.6772532 103.246783,18.3688995 102.166157,18.599476 C101.08779,18.8300525 97.8481896,17.9077465 97.8481896,17.9077465 L91.3689886,16.5219015 L85.9703768,13.7525612 L80.1404838,13.519635 L74.7418539,9.13387318 C71.9291632,7.97860466 69.8991466,2.7276209 67.6156215,6.13157026 L60.9207798,5.43985901 L52.9318027,5.89862589 L51.417637,11.209098 C51.417637,11.209098 51.417637,16.0559764 52.0668904,16.9806684 C54.5682965,27.4731644 49.852307,25.9114591 43.2130557,21.1358356 L33.7165795,18.6041935 L33.7165795,18.6041935 Z" id="Tucum__n_ss"></path>
        </g>
    </g>
</svg>