<?xml version="1.0" encoding="UTF-8"?>
<svg width="150px" height="150px" viewBox="0 0 150 150" version="1.1" xmlns="http://www.w3.org/2000/svg" xmlns:xlink="http://www.w3.org/1999/xlink">
    <!-- Generator: Sketch 41.1 (35376) - http://www.bohemiancoding.com/sketch -->
    <title>icon_catamarca</title>
    <desc>Created with Sketch.</desc>
    <defs></defs>
    <g id="Provincias" stroke="none" stroke-width="1" fill="none" fill-rule="evenodd">
        <g id="icon_catamarca" fill="#FFFFFF">
            <path d="M120.463351,143.374761 C122.546206,141.525477 124.346421,139.900254 125.530914,138.770602 C125.002166,135.188228 124.152499,131.606798 123.41937,128.024418 L126.291016,128.294979 L126.037934,122.696909 C125.330901,121.834076 125.283931,121.060519 126.376243,120.439439 L125.869217,119.084782 L125.193495,117.188059 L125.277846,114.028737 C121.809586,112.492775 125.738786,109.108452 120.464206,106.352642 C117.014226,105.030536 119.758918,101.371916 119.704118,98.7685832 L118.944017,88.8350298 L117.508201,87.3901731 L117.002065,83.32713 L116.40979,80.8892941 C115.052248,79.3412354 113.72772,77.3822495 111.934459,81.4313505 L109.822024,83.1467509 L107.964402,83.2378701 C107.526965,81.8580936 106.104186,81.2258726 106.051132,80.0822652 C105.936339,77.650948 104.775313,76.0294454 103.149906,80.1677919 L102.051509,76.916437 L99.771219,71.8604004 L99.771219,68.9716275 C101.990632,65.7109611 99.0032952,65.4255277 97.7440112,63.9156051 C91.7467532,63.1736563 98.2945098,58.4114099 98.6728364,55.7885571 C99.5346722,53.2707799 99.5503171,50.2499588 99.9399357,47.8428072 C97.5031186,46.6657371 94.8688812,45.0665619 92.84515,44.7718242 C91.2840895,43.8922774 92.3572594,41.7603359 92.6764476,39.9872789 C95.1610827,32.7992936 91.2780054,27.4847889 87.8627854,35.4723582 C86.8591839,37.5327152 86.3208678,40.2848022 84.1466865,37.459257 C82.7865159,34.5602679 81.4202541,31.6556933 79.8391887,28.5205493 L76.4605161,26.2630925 L75.4473539,20.9355718 C75.19601,17.7715888 76.826646,18.1276949 78.3190072,18.2271709 L81.1915369,18.6781008 L82.1194716,15.3365456 L81.9516383,8.74454024 L81.5289631,7.93286632 L70.3806238,7.29971207 L58.4721973,7.84174705 L49.604148,8.38379627 L43.3538149,6.66745547 L35.9207267,5.13335321 C33.2316966,4.59130399 32.4220317,5.68935174 32.8803566,8.65435425 C32.9647079,9.01603862 32.9647079,11.1833023 32.9647079,11.5431272 C32.9647079,11.9047973 33.1334245,16.5098897 33.1334245,16.5098897 L33.8935188,19.0388519 L36.4277459,22.19819 C35.9529069,24.3273174 35.9850872,26.6972947 37.5261428,29.7831603 L37.8635762,34.207902 L33.388245,39.2639244 L33.4725963,43.9601574 L40.0603698,53.6212792 C41.3605328,54.9843209 41.0961444,56.87916 38.2018716,59.4908634 C37.4417844,59.6703021 31.8680565,60.5740357 31.5297468,60.6651478 C31.1914442,60.7553338 27.3909728,59.0390073 27.6440549,62.2903622 C27.8971229,65.5408124 27.5596966,69.2431187 27.5596966,69.2431187 L24.0966585,74.1187762 L23.1687167,77.5495983 L23,80.3490972 L27.2222561,80.8911464 C30.1182744,80.6280262 32.9942735,80.2291603 35.6685208,78.5435037 C37.5844121,78.6188213 37.4096041,79.3533182 37.5270119,81.2528237 C38.5271367,83.6209415 39.529869,82.8724598 39.4689922,86.1284883 C40.1742939,89.5063202 45.5558307,89.1334721 49.604148,89.8298755 C51.1860896,91.5527065 52.7688933,93.2727733 53.9116458,95.6994454 C55.626633,96.5139121 57.4903462,96.444187 59.6549596,94.6162803 C61.0099153,95.2587388 59.9689186,95.6120522 62.7805714,97.1452283 C65.9748682,97.143091 70.8102522,99.8182858 70.0440667,93.352736 C70.0440667,93.352736 70.6354372,91.2765774 71.3955386,91.2765774 C72.15564,91.2765774 81.1941372,92.721434 81.1941372,92.721434 L82.9674009,94.0751572 L85.0789742,97.5970986 L87.2748916,100.305478 L88.034993,101.209212 L87.4436083,105.452627 L87.7810345,107.710099 C87.7810345,107.710099 89.3020994,108.613809 89.9769662,108.703071 C90.6527021,108.793266 92.8486338,110.689969 92.8486338,110.689969 C92.8486338,110.689969 95.1297858,111.412385 95.7211563,111.682961 C96.3125339,111.953512 106.869496,122.428191 106.869496,122.428191 L107.798299,129.381879 L112.697175,138.320591 C113.632063,140.169885 114.317367,142.4264 114.804381,145 L120.463351,143.374761 Z" id="Catamarcan_ss"></path>
        </g>
    </g>
</svg>