<?xml version="1.0" encoding="utf-8"?>
<!-- Generator: Adobe Illustrator 17.1.0, SVG Export Plug-In . SVG Version: 6.00 Build 0)  -->
<!DOCTYPE svg PUBLIC "-//W3C//DTD SVG 1.1//EN" "http://www.w3.org/Graphics/SVG/1.1/DTD/svg11.dtd">
<svg version="1.1" id="Layer_1" xmlns:sketch="http://www.bohemiancoding.com/sketch/ns"
	 xmlns="http://www.w3.org/2000/svg" xmlns:xlink="http://www.w3.org/1999/xlink" x="0px" y="0px" viewBox="0 0 48 48"
	 enable-background="new 0 0 48 48" xml:space="preserve">
<title>icono_religion</title>
<desc>Created with Sketch.</desc>
<path fill-rule="evenodd" clip-rule="evenodd" fill="#FFFFFF" d="M9.4,32.7c1.3,0.2,0.7-0.9,0.9-1.7c0.1-0.4,2.1,0.4,3-0.9
	c0.3-0.4-0.2-1.1,0.3-1.7c0.4-0.4,0.8-0.4,1.3-0.8c1,0.8,0.5,0,1.2-0.4c0.6-0.4,2.3,1,3-0.8c0.8-1.9,0.6-1.6,2.3-2.8
	c1-0.7,0.7-2.2,1.5-2.9c0.9-0.8,1.4-0.5,2-1.8c0.3-0.6,1.8-2.2,0.8-2.9c-0.3-0.2-0.2-0.5-0.5-0.7c-0.5-0.3,0,1.4-0.8,1.5
	c-1.4,0.2-2.6,0.6-4.1,0.2c-0.9-0.2-2.5-0.8-3.3-0.6c0,0.4,1,0.5,0.1,1.1c-2.2,1.5-3.6-0.7-5.4-1.4c-0.3-0.1-2.7-1.1-2.1-0.1
	c0.7,1.1,2.7,0.3,2.7,2.1c-2.4,0-0.3,0.5,0.6,1.2l2.4,1.9c0.3,0.2,1,0.8,0.2,0.9c-0.6,0.1-0.3,1.6-1.7,2c-0.5,0.2-0.4,1-1,1.2
	c-0.3,0.1-0.7-0.8-0.8-1h-0.2c-0.3,1,0.8,2.4-0.6,3.3C10.9,28,9,29.1,8.8,29c-0.7-0.3-3.4,0.5-2.5,0.9c2.2,0.9,1.6,0.3,2.4,2.3
	L9.4,32.7L9.4,32.7z M5.8,26.4l-0.4,0.7c-0.2,0.1-0.4,0.2-0.7,0.2c-0.3,0-0.3-0.3-0.3-0.5c-0.1-0.3-0.5-0.3-0.8-0.5
	c-0.6-0.5-0.5-1.6,0.5-1.4c0.6,0.1,0.1,0.7,0.4,1c0.2,0.3,0.7-0.3,1-0.3C5.8,25.6,5.7,26.1,5.8,26.4L5.8,26.4z M12.3,22l0.6,0.6
	c-0.2,0.3-0.7,0.4-1.1,0.5c-0.4,0.1-0.7,0.3-1.1,0.4c-0.5,0.2-1.5-0.7-1-1.2c0.3-0.4,0.7,0.1,1.1,0.1c0.2,0,0.4,0,0.6,0
	C11.8,22.4,11.9,22.1,12.3,22L12.3,22z M28.9,23l0.4,0.9c-0.4,1.4,1.9,1.6,2.4,2.6c0.4,0.8,1.1,1.6,1.9,1.8c0.7,0.2-0.5,2.1-1.2,1
	c-0.8-1.1-1.6,0.2-2.4,0c-0.9-0.3-1.6-2.4-2.9-0.9c-0.6,0.7,0.7,1.3,0.4,1.8c-0.3,0.7,1.4,2.1-0.4,2c-1.1,0-1.1-1.7-1.8-1.3
	c-0.3,0.1-0.9,0.6-1.1,0.8c-0.6,0.6,1.2,3.5-0.8,1.9c-0.4-0.3-2.4-2.9-1.7-3.1c0.6-0.2,0.8-1,1.1-1.6c0.4-0.8-0.2-1.2,0.6-2
	c0.4-0.5,0.7-1.5,1-1.8c0.9-0.6,1.3-0.6,1.8-1.6c0.1-0.2,0.9-0.3,1.1-0.4C28.2,22.5,28.8,20.8,28.9,23L28.9,23z M29.8,22.6l0.6,0.8
	c0.4,0.3,0.2,1.6,1.1,2.2c0.4,0.3,1.5,0.3,2,0.2c1.2-0.2,3,0.1,4.1-0.3c1.5-0.5,1.1-0.9,1.2-2.1c0-0.6,1.2-0.3,1.5-0.2
	c2.5,0.4,2.3-1.4,4.1-2c1.4-0.5-0.9-0.8-1-0.8c-0.4-0.1-2.8-0.7-2.7-1.2c0.3-0.8,2.1-0.8,2.7-0.7c1,0.1-0.1-2.1-0.5-2.4
	c-0.5-0.4-3.4-0.1-3.8,0.5c-0.5,0.8-1.4,0.7-0.9,1.5c0.7,1.1,1.1,0.1,1.3,1.3c0.5,3.2-1.9,0.5-2.6-0.5c-0.6-0.9-1.6-1.4-2-2.3
	c-0.8-1.8-1.1-1.2-2.6-1.9c-0.3-0.1-1.1-0.9-1.3-0.9c0,1,1.1,2.2-0.6,2.6c-2,0.4-1.5,1.5-1.7,3.1C28.6,20.5,29.5,21.7,29.8,22.6
	L29.8,22.6z M37.2,14.7l0.7,1.5c-0.1,0.5-0.5,0.5-0.9,0.5c-0.4,0-0.6-0.1-0.8-0.5c-0.1-0.1-0.1-0.3-0.1-0.4
	c-0.2-0.2-0.7-0.2-0.9-0.3c-0.3-0.2-0.2-0.7,0.1-0.9c0.2-0.2,0.5-0.5,0.9-0.4C36.4,14.3,36.8,14.6,37.2,14.7z"/>
</svg>
