<?xml version="1.0" encoding="UTF-8"?>
<svg width="150px" height="150px" viewBox="0 0 150 150" version="1.1" xmlns="http://www.w3.org/2000/svg" xmlns:xlink="http://www.w3.org/1999/xlink">
    <!-- Generator: Sketch 41.1 (35376) - http://www.bohemiancoding.com/sketch -->
    <title>icon_tierradelfuego</title>
    <desc>Created with Sketch.</desc>
    <defs></defs>
    <g id="Provincias" stroke="none" stroke-width="1" fill="none" fill-rule="evenodd">
        <g id="icon_tierradelfuego">
            <g id="Group" transform="translate(26.000000, 5.000000)">
                <path d="M15.990433,70.4477204 L16.0417276,70.4477204 C18.28074,69.9539677 15.4838189,67.6544589 15.0662006,66.4427386 C14.864682,65.6366 16.1185824,65.3134905 16.4011965,64.7483262 C16.8554122,63.8398598 18.2704579,65.5157876 18.4036612,65.8265876 C19.4071882,67.2437013 20.048516,68.3943793 21.0223002,69.0100365 C21.6355699,69.397761 23.3208562,71.8650199 23.024823,73.5798224 C22.9508147,74.0083793 22.2562172,73.9989685 22.7090969,74.1796847 C23.6342587,74.5489129 23.2235533,74.9185187 23.0761757,75.0688589 C22.9067815,75.2415643 22.7767152,75.0921942 22.7436612,75.1343627 C22.6307318,75.2784813 22.6819683,75.4806158 22.583155,75.5323635 C21.8021757,75.9414191 22.2383832,76.2227959 22.5626488,76.403849 C22.8380015,76.5575585 22.2696944,77.703717 21.9580347,77.8624282 C21.7705741,77.9578838 21.64196,77.2630191 21.381711,77.3280755 C20.980184,77.7302589 20.5590222,77.995556 20.1043417,78.286878 C18.4743002,79.3312722 17.1761923,79.1848706 20.0980679,76.301161 C20.2048977,75.2326589 18.2227649,74.4550548 17.8388396,75.2228938 C17.5726073,75.7554108 15.982184,78.1942863 15.4256114,77.2253818 C14.9820264,76.4531162 13.9679558,75.7443096 14.9121425,75.1715469 C16.0449807,74.4843909 16.5748313,73.5039378 17.4794288,73.1690589 C18.3957027,72.8298755 19.616433,70.6407751 17.941545,71.1152183 C16.9670637,71.3912623 14.8998853,71.7007843 16.2471384,70.2423328" id="path3854"></path>
                <path d="M14.3587311,75.5146581 C14.3587311,75.4461975 14.3587311,75.4461975 14.3587311,75.5146581 C14.3587311,75.8071535 12.4597967,75.3181178 12.2021909,74.385044 C11.9425054,73.4444357 13.0051344,73.3360199 12.8696888,73.3581295 C12.5237668,73.4146 10.4564315,71.6018672 10.4564315,70.7394846 C10.920912,68.947839 13.866268,68.6792598 15.4883162,67.966805" id="path3856"></path>
                <path d="M18.0860267,57.0944182 C18.5550558,56.0593361 18.7756865,55.3303601 17.2644998,56.0674979 C16.7227985,56.3317493 15.9052799,58.1450456 15.7241512,58.532102 C15.4609396,59.0945593 16.5796035,59.3450373 17.1104998,59.9184448 C18.7435039,61.682195 18.0679023,57.612941 18.0860267,57.1457651" id="path3858"></path>
                <path d="M19.426888,58.8519336 C19.426888,58.9511982 19.3694095,59.0316681 19.2985062,59.0316681 C19.2276029,59.0316681 19.1701245,58.9511982 19.1701245,58.8519336 C19.1701245,58.752669 19.2276029,58.6721992 19.2985062,58.6721992 C19.3694095,58.6721992 19.426888,58.752669 19.426888,58.8519336 Z" id="path3860" fill="#FFFFFF"></path>
                <path d="M20.0078008,58.8519336 C20.0078008,58.9511982 19.9503224,59.0316681 19.8794191,59.0316681 C19.8085158,59.0316681 19.7510373,58.9511982 19.7510373,58.8519336 C19.7510373,58.752669 19.8085158,58.6721992 19.8794191,58.6721992 C19.9503224,58.6721992 20.0078008,58.752669 20.0078008,58.8519336 Z" id="path3862" fill="#FFFFFF"></path>
                <path d="M20.0078008,59.4328465 C20.0078008,59.5321111 19.9503224,59.6125809 19.8794191,59.6125809 C19.8085158,59.6125809 19.7510373,59.5321111 19.7510373,59.4328465 C19.7510373,59.3335819 19.8085158,59.253112 19.8794191,59.253112 C19.9503224,59.253112 20.0078008,59.3335819 20.0078008,59.4328465 Z" id="path3864" fill="#FFFFFF"></path>
                <path d="M20.0078008,51.8809793 C20.0078008,51.9802438 19.9503224,52.0607137 19.8794191,52.0607137 C19.8085158,52.0607137 19.7510373,51.9802438 19.7510373,51.8809793 C19.7510373,51.7817147 19.8085158,51.7012448 19.8794191,51.7012448 C19.9503224,51.7012448 20.0078008,51.7817147 20.0078008,51.8809793 Z" id="path3866" fill="#FFFFFF"></path>
                <path d="M20.0078008,51.3000664 C20.0078008,51.399331 19.9503224,51.4798008 19.8794191,51.4798008 C19.8085158,51.4798008 19.7510373,51.399331 19.7510373,51.3000664 C19.7510373,51.2008018 19.8085158,51.120332 19.8794191,51.120332 C19.9503224,51.120332 20.0078008,51.2008018 20.0078008,51.3000664 Z" id="path3868" fill="#FFFFFF"></path>
                <path d="M20.5887137,50.7191535 C20.5887137,50.8184181 20.5312352,50.898888 20.460332,50.898888 C20.3894287,50.898888 20.3319502,50.8184181 20.3319502,50.7191535 C20.3319502,50.6198889 20.3894287,50.5394191 20.460332,50.5394191 C20.5312352,50.5394191 20.5887137,50.6198889 20.5887137,50.7191535 Z" id="path3870" fill="#FFFFFF"></path>
                <path d="M22.9123651,46.6527635 C22.9123651,46.7520281 22.8548867,46.8324979 22.7839834,46.8324979 C22.7130801,46.8324979 22.6556017,46.7520281 22.6556017,46.6527635 C22.6556017,46.5534989 22.7130801,46.473029 22.7839834,46.473029 C22.8548867,46.473029 22.9123651,46.5534989 22.9123651,46.6527635 Z" id="path3872" fill="#FFFFFF"></path>
                <path d="M22.3314523,46.0718506 C22.3314523,46.1711152 22.2739738,46.2515851 22.2030705,46.2515851 C22.1321673,46.2515851 22.0746888,46.1711152 22.0746888,46.0718506 C22.0746888,45.972586 22.1321673,45.8921162 22.2030705,45.8921162 C22.2739738,45.8921162 22.3314523,45.972586 22.3314523,46.0718506 Z" id="path3874" fill="#FFFFFF"></path>
                <path d="M22.3314523,44.9100249 C22.3314523,45.0092895 22.2739738,45.0897593 22.2030705,45.0897593 C22.1321673,45.0897593 22.0746888,45.0092895 22.0746888,44.9100249 C22.0746888,44.8107603 22.1321673,44.7302905 22.2030705,44.7302905 C22.2739738,44.7302905 22.3314523,44.8107603 22.3314523,44.9100249 Z" id="path3876" fill="#FFFFFF"></path>
                <path d="M22.9123651,44.9100249 C22.9123651,45.0092895 22.8548867,45.0897593 22.7839834,45.0897593 C22.7130801,45.0897593 22.6556017,45.0092895 22.6556017,44.9100249 C22.6556017,44.8107603 22.7130801,44.7302905 22.7839834,44.7302905 C22.8548867,44.7302905 22.9123651,44.8107603 22.9123651,44.9100249 Z" id="path3878" fill="#FFFFFF"></path>
                <path d="M23.493278,45.4909378 C23.493278,45.5902024 23.4357995,45.6706722 23.3648963,45.6706722 C23.293993,45.6706722 23.2365145,45.5902024 23.2365145,45.4909378 C23.2365145,45.3916732 23.293993,45.3112033 23.3648963,45.3112033 C23.4357995,45.3112033 23.493278,45.3916732 23.493278,45.4909378 Z" id="path3880" fill="#FFFFFF"></path>
                <path d="M24.0741909,45.4909378 C24.0741909,45.5902024 24.0167124,45.6706722 23.9458091,45.6706722 C23.8749058,45.6706722 23.8174274,45.5902024 23.8174274,45.4909378 C23.8174274,45.3916732 23.8749058,45.3112033 23.9458091,45.3112033 C24.0167124,45.3112033 24.0741909,45.3916732 24.0741909,45.4909378 Z" id="path3882" fill="#FFFFFF"></path>
                <path d="M24.0741909,44.9100249 C24.0741909,45.0092895 24.0167124,45.0897593 23.9458091,45.0897593 C23.8749058,45.0897593 23.8174274,45.0092895 23.8174274,44.9100249 C23.8174274,44.8107603 23.8749058,44.7302905 23.9458091,44.7302905 C24.0167124,44.7302905 24.0741909,44.8107603 24.0741909,44.9100249 Z" id="path3884" fill="#FFFFFF"></path>
                <path d="M24.6551037,44.9100249 C24.6551037,45.0092895 24.5976253,45.0897593 24.526722,45.0897593 C24.4558187,45.0897593 24.3983402,45.0092895 24.3983402,44.9100249 C24.3983402,44.8107603 24.4558187,44.7302905 24.526722,44.7302905 C24.5976253,44.7302905 24.6551037,44.8107603 24.6551037,44.9100249 Z" id="path3886" fill="#FFFFFF"></path>
                <path d="M24.0741909,43.1672863 C24.0741909,43.2665509 24.0167124,43.3470207 23.9458091,43.3470207 C23.8749058,43.3470207 23.8174274,43.2665509 23.8174274,43.1672863 C23.8174274,43.0680217 23.8749058,42.9875519 23.9458091,42.9875519 C24.0167124,42.9875519 24.0741909,43.0680217 24.0741909,43.1672863 Z" id="path3888" fill="#FFFFFF"></path>
                <path d="M24.6551037,43.1672863 C24.6551037,43.2665509 24.5976253,43.3470207 24.526722,43.3470207 C24.4558187,43.3470207 24.3983402,43.2665509 24.3983402,43.1672863 C24.3983402,43.0680217 24.4558187,42.9875519 24.526722,42.9875519 C24.5976253,42.9875519 24.6551037,43.0680217 24.6551037,43.1672863 Z" id="path3890" fill="#FFFFFF"></path>
                <path d="M24.6551037,43.7481992 C24.6551037,43.8474638 24.5976253,43.9279336 24.526722,43.9279336 C24.4558187,43.9279336 24.3983402,43.8474638 24.3983402,43.7481992 C24.3983402,43.6489346 24.4558187,43.5684647 24.526722,43.5684647 C24.5976253,43.5684647 24.6551037,43.6489346 24.6551037,43.7481992 Z" id="path3892" fill="#FFFFFF"></path>
                <path d="M25.2360166,43.1672863 C25.2360166,43.2665509 25.1785381,43.3470207 25.1076349,43.3470207 C25.0367316,43.3470207 24.9792531,43.2665509 24.9792531,43.1672863 C24.9792531,43.0680217 25.0367316,42.9875519 25.1076349,42.9875519 C25.1785381,42.9875519 25.2360166,43.0680217 25.2360166,43.1672863 Z" id="path3894" fill="#FFFFFF"></path>
                <path d="M25.2360166,42.5863734 C25.2360166,42.685638 25.1785381,42.7661079 25.1076349,42.7661079 C25.0367316,42.7661079 24.9792531,42.685638 24.9792531,42.5863734 C24.9792531,42.4871089 25.0367316,42.406639 25.1076349,42.406639 C25.1785381,42.406639 25.2360166,42.4871089 25.2360166,42.5863734 Z" id="path3896" fill="#FFFFFF"></path>
                <path d="M22.9123651,40.262722 C22.9123651,40.3619866 22.8548867,40.4424564 22.7839834,40.4424564 C22.7130801,40.4424564 22.6556017,40.3619866 22.6556017,40.262722 C22.6556017,40.1634574 22.7130801,40.0829876 22.7839834,40.0829876 C22.8548867,40.0829876 22.9123651,40.1634574 22.9123651,40.262722 Z" id="path3898" fill="#FFFFFF"></path>
                <path d="M22.3314523,40.262722 C22.3314523,40.3619866 22.2739738,40.4424564 22.2030705,40.4424564 C22.1321673,40.4424564 22.0746888,40.3619866 22.0746888,40.262722 C22.0746888,40.1634574 22.1321673,40.0829876 22.2030705,40.0829876 C22.2739738,40.0829876 22.3314523,40.1634574 22.3314523,40.262722 Z" id="path3900" fill="#FFFFFF"></path>
                <path d="M22.9123651,39.6818091 C22.9123651,39.7810737 22.8548867,39.8615436 22.7839834,39.8615436 C22.7130801,39.8615436 22.6556017,39.7810737 22.6556017,39.6818091 C22.6556017,39.5825445 22.7130801,39.5020747 22.7839834,39.5020747 C22.8548867,39.5020747 22.9123651,39.5825445 22.9123651,39.6818091 Z" id="path3902" fill="#FFFFFF"></path>
                <path d="M23.493278,40.262722 C23.493278,40.3619866 23.4357995,40.4424564 23.3648963,40.4424564 C23.293993,40.4424564 23.2365145,40.3619866 23.2365145,40.262722 C23.2365145,40.1634574 23.293993,40.0829876 23.3648963,40.0829876 C23.4357995,40.0829876 23.493278,40.1634574 23.493278,40.262722 Z" id="path3904" fill="#FFFFFF"></path>
                <path d="M22.9123651,40.262722 C22.9123651,40.3619866 22.8548867,40.4424564 22.7839834,40.4424564 C22.7130801,40.4424564 22.6556017,40.3619866 22.6556017,40.262722 C22.6556017,40.1634574 22.7130801,40.0829876 22.7839834,40.0829876 C22.8548867,40.0829876 22.9123651,40.1634574 22.9123651,40.262722 Z" id="path3906" fill="#FFFFFF"></path>
                <path d="M29.6089701,34.8561987 C29.3437253,35.4196958 28.5155178,34.9890826 28.3595427,35.2981108 C28.0825634,35.846812 27.4283975,36.3069415 27.2884556,37.2586917 C26.666995,37.9051548 26.5762564,37.4902436 26.1085053,36.8774676 C25.8595842,36.6907797 25.5518746,36.6438477 25.2915676,36.7140859 C25.0312605,36.7843241 24.8288124,36.9588361 24.6380406,37.1497705 C24.0089701,37.6858834 23.6749452,38.3321025 23.8755925,38.9651232 C24.0427211,39.4923133 24.8905634,39.6792336 24.8377004,39.2374261 C25.510107,38.5420153 25.7692522,38.764929 25.890663,38.8925091 C27.0126381,40.3979041 27.181858,39.2013747 27.7604473,38.0937539 C27.9203726,37.869812 28.1530282,37.69609 28.5228954,37.6036087 C28.9028124,37.5086353 28.7443975,37.0076328 28.9237253,36.7969589 C29.2214431,36.3955714 29.7529203,36.2408626 29.9438082,36.7010444 C29.995219,36.8249473 30.2927626,36.8617016 30.2914846,36.733256 C30.2894514,36.5325622 30.6158082,35.634378 31.4274597,35.9516377 C32.3301983,34.8434768 31.6784141,35.0642992 31.1006962,34.9350402 C29.8517917,36.1382502 30.1520655,34.8053456 29.6089701,34.8561987 Z" id="path3908" fill="#FFFFFF"></path>
                <path d="M33.3687967,42.0054606 C33.3687967,42.1047252 33.3113182,42.185195 33.2404149,42.185195 C33.1695117,42.185195 33.1120332,42.1047252 33.1120332,42.0054606 C33.1120332,41.906196 33.1695117,41.8257261 33.2404149,41.8257261 C33.3113182,41.8257261 33.3687967,41.906196 33.3687967,42.0054606 Z" id="path3910" fill="#FFFFFF"></path>
                <path d="M33.3687967,42.5863734 C33.3687967,42.685638 33.3113182,42.7661079 33.2404149,42.7661079 C33.1695117,42.7661079 33.1120332,42.685638 33.1120332,42.5863734 C33.1120332,42.4871089 33.1695117,42.406639 33.2404149,42.406639 C33.3113182,42.406639 33.3687967,42.4871089 33.3687967,42.5863734 Z" id="path3912" fill="#FFFFFF"></path>
                <path d="M33.9497095,40.8436349 C33.9497095,40.9428994 33.8922311,41.0233693 33.8213278,41.0233693 C33.7504245,41.0233693 33.6929461,40.9428994 33.6929461,40.8436349 C33.6929461,40.7443703 33.7504245,40.6639004 33.8213278,40.6639004 C33.8922311,40.6639004 33.9497095,40.7443703 33.9497095,40.8436349 Z" id="path3914" fill="#FFFFFF"></path>
                <path d="M33.3687967,40.8436349 C33.3687967,40.9428994 33.3113182,41.0233693 33.2404149,41.0233693 C33.1695117,41.0233693 33.1120332,40.9428994 33.1120332,40.8436349 C33.1120332,40.7443703 33.1695117,40.6639004 33.2404149,40.6639004 C33.3113182,40.6639004 33.3687967,40.7443703 33.3687967,40.8436349 Z" id="path3916" fill="#FFFFFF"></path>
                <path d="M32.7878838,40.262722 C32.7878838,40.3619866 32.7304054,40.4424564 32.6595021,40.4424564 C32.5885988,40.4424564 32.5311203,40.3619866 32.5311203,40.262722 C32.5311203,40.1634574 32.5885988,40.0829876 32.6595021,40.0829876 C32.7304054,40.0829876 32.7878838,40.1634574 32.7878838,40.262722 Z" id="path3918" fill="#FFFFFF"></path>
                <path d="M31.6260581,39.6818091 C31.6260581,39.7810737 31.5685796,39.8615436 31.4976763,39.8615436 C31.4267731,39.8615436 31.3692946,39.7810737 31.3692946,39.6818091 C31.3692946,39.5825445 31.4267731,39.5020747 31.4976763,39.5020747 C31.5685796,39.5020747 31.6260581,39.5825445 31.6260581,39.6818091 Z" id="path3920" fill="#FFFFFF"></path>
                <path d="M35.6924481,40.8436349 C35.6924481,40.9428994 35.6349697,41.0233693 35.5640664,41.0233693 C35.4931631,41.0233693 35.4356846,40.9428994 35.4356846,40.8436349 C35.4356846,40.7443703 35.4931631,40.6639004 35.5640664,40.6639004 C35.6349697,40.6639004 35.6924481,40.7443703 35.6924481,40.8436349 Z" id="path3922" fill="#FFFFFF"></path>
                <path d="M36.273361,40.262722 C36.273361,40.3619866 36.2158825,40.4424564 36.1449793,40.4424564 C36.074076,40.4424564 36.0165975,40.3619866 36.0165975,40.262722 C36.0165975,40.1634574 36.074076,40.0829876 36.1449793,40.0829876 C36.2158825,40.0829876 36.273361,40.1634574 36.273361,40.262722 Z" id="path3924" fill="#FFFFFF"></path>
                <path d="M34.5306224,33.2917676 C34.5306224,33.3910322 34.4731439,33.4715021 34.4022407,33.4715021 C34.3313374,33.4715021 34.2738589,33.3910322 34.2738589,33.2917676 C34.2738589,33.192503 34.3313374,33.1120332 34.4022407,33.1120332 C34.4731439,33.1120332 34.5306224,33.192503 34.5306224,33.2917676 Z" id="path3926" fill="#FFFFFF"></path>
                <path d="M34.5306224,32.7108548 C34.5306224,32.8101194 34.4731439,32.8905892 34.4022407,32.8905892 C34.3313374,32.8905892 34.2738589,32.8101194 34.2738589,32.7108548 C34.2738589,32.6115902 34.3313374,32.5311203 34.4022407,32.5311203 C34.4731439,32.5311203 34.5306224,32.6115902 34.5306224,32.7108548 Z" id="path3928" fill="#FFFFFF"></path>
                <path d="M35.1115353,32.7108548 C35.1115353,32.8101194 35.0540568,32.8905892 34.9831535,32.8905892 C34.9122502,32.8905892 34.8547718,32.8101194 34.8547718,32.7108548 C34.8547718,32.6115902 34.9122502,32.5311203 34.9831535,32.5311203 C35.0540568,32.5311203 35.1115353,32.6115902 35.1115353,32.7108548 Z" id="path3930" fill="#FFFFFF"></path>
                <path d="M35.6924481,32.7108548 C35.6924481,32.8101194 35.6349697,32.8905892 35.5640664,32.8905892 C35.4931631,32.8905892 35.4356846,32.8101194 35.4356846,32.7108548 C35.4356846,32.6115902 35.4931631,32.5311203 35.5640664,32.5311203 C35.6349697,32.5311203 35.6924481,32.6115902 35.6924481,32.7108548 Z" id="path3932" fill="#FFFFFF"></path>
                <path d="M31.6260581,30.9681162 C31.6260581,31.0673808 31.5685796,31.1478506 31.4976763,31.1478506 C31.4267731,31.1478506 31.3692946,31.0673808 31.3692946,30.9681162 C31.3692946,30.8688516 31.4267731,30.7883817 31.4976763,30.7883817 C31.5685796,30.7883817 31.6260581,30.8688516 31.6260581,30.9681162 Z" id="path3934" fill="#FFFFFF"></path>
                <path d="M31.0451452,30.9681162 C31.0451452,31.0673808 30.9876668,31.1478506 30.9167635,31.1478506 C30.8458602,31.1478506 30.7883817,31.0673808 30.7883817,30.9681162 C30.7883817,30.8688516 30.8458602,30.7883817 30.9167635,30.7883817 C30.9876668,30.7883817 31.0451452,30.8688516 31.0451452,30.9681162 Z" id="path3936" fill="#FFFFFF"></path>
                <path d="M31.0451452,30.3872033 C31.0451452,30.4864679 30.9876668,30.5669378 30.9167635,30.5669378 C30.8458602,30.5669378 30.7883817,30.4864679 30.7883817,30.3872033 C30.7883817,30.2879387 30.8458602,30.2074689 30.9167635,30.2074689 C30.9876668,30.2074689 31.0451452,30.2879387 31.0451452,30.3872033 Z" id="path3938" fill="#FFFFFF"></path>
                <path d="M31.6260581,30.3872033 C31.6260581,30.4864679 31.5685796,30.5669378 31.4976763,30.5669378 C31.4267731,30.5669378 31.3692946,30.4864679 31.3692946,30.3872033 C31.3692946,30.2879387 31.4267731,30.2074689 31.4976763,30.2074689 C31.5685796,30.2074689 31.6260581,30.2879387 31.6260581,30.3872033 Z" id="path3940" fill="#FFFFFF"></path>
                <path d="M35.667077,30.6241419 C35.0541558,31.0128714 34.8945791,31.0215618 34.2874089,30.660449 C33.4090106,30.9366904 33.596355,31.0073469 34.25116,31.2958224 C34.4392015,32.0125295 34.5990106,31.9521203 35.2721724,31.7478365 C35.9200064,31.7824763 35.6025376,31.627117 35.7760562,31.1869012 C35.8597077,30.9746996 36.0628529,31.1617303 36.1391268,31.2050548 C36.2153425,31.2483792 36.4102969,31.3684365 36.7200396,31.3684365 C37.223633,31.3684365 37.7366952,31.4612664 38.2085708,31.350283 C39.7963799,30.9768373 37.7039317,30.3690398 36.8146703,30.2089693 C36.6593923,30.1810216 36.028521,30.5518705 35.667077,30.6241419 Z" id="path3942" fill="#FFFFFF"></path>
                <path d="M33.4270456,38.6701588 C33.5162157,38.6295066 33.9387136,38.4512593 33.7606638,38.35847 C32.2178755,37.554231 33.8955518,37.1407082 34.0175435,37.1811281 C34.2242323,37.2496003 34.5135269,37.7440443 35.0701576,37.5918916 C36.0233195,37.3313406 35.3954107,38.5706252 36.1227136,38.9012169 C37.0950456,39.3431696 35.3588713,39.5975514 35.0957759,39.4660211 C34.8963485,39.3663016 35.2178838,40.2493066 35.2241576,40.2618833 C35.3127468,40.4390966 33.60678,39.9965165 33.60678,39.517368 C33.60678,38.9797389 33.1729543,39.2297464 33.4783983,38.618812" id="path3944"></path>
                <path d="M54.1147635,28.5628732 C54.2859004,28.2151736 55.4326224,28.8758226 55.7321411,29.2303712 C55.9776929,29.521089 56.9076183,29.5635653 56.5921826,29.7438284 C56.3174108,29.9008143 55.3070871,29.7836035 55.0389959,30.013401 C53.9953859,30.8370193 54.2561577,30.1137421 54.0248963,29.3459031 C54.0248963,29.0242923 54.0524315,28.565923 54.1917344,28.4730234" id="path3946"></path>
                <path d="M28.9537091,44.7302905 C29.3563978,45.5625759 30.1804808,46.076312 29.775236,46.8868191 C29.562041,47.3132149 30.1346468,48.009166 30.1346468,48.5298846 C30.1346468,49.0717427 28.827651,49.1460357 28.4402402,49.1460357 C27.326514,49.4084631 27.6070949,49.4659967 27.310597,50.4810315 C27.1717588,51.3141303 28.9510369,52.0214091 29.5185306,52.0214091 C31.086763,52.1247826 31.7388958,53.9488954 30.3914103,55.1021643 C30.1236676,55.6375743 31.2043398,56.3686763 31.41829,56.7965826 C31.997402,57.9547544 31.7263481,59.9754481 31.7263481,61.3150216 C31.7263481,62.4783228 32.1977008,63.3542639 32.4965804,64.5498174 C32.6100327,66.0196083 32.7836095,67.4784373 32.393875,68.9142216 C32.3162651,69.1081942 31.6173688,69.8961037 31.4696427,70.0438357" id="path3948"></path>
                <path d="M30.3132664,100.315994 C30.7544697,99.2492346 31.9435983,98.8899807 32.8805527,98.4161939 C33.7694655,97.96673 36.351507,96.5203441 35.0371336,99.032345 C34.3633328,100.32002 34.1206855,101.028983 33.2913743,101.65099 C30.2185776,103.43075 28.8122456,102.284928 30.1078556,100.264647" id="path3952"></path>
                <path d="M93.2028216,23.9971618 C93.2028216,24.0964264 93.1453431,24.1768963 93.0744398,24.1768963 C93.0035366,24.1768963 92.9460581,24.0964264 92.9460581,23.9971618 C92.9460581,23.8978972 93.0035366,23.8174274 93.0744398,23.8174274 C93.1453431,23.8174274 93.2028216,23.8978972 93.2028216,23.9971618 Z" id="path3956" fill="#FFFFFF"></path>
                <path d="M93.7837344,24.5780747 C93.7837344,24.6773393 93.726256,24.7578091 93.6553527,24.7578091 C93.5844494,24.7578091 93.526971,24.6773393 93.526971,24.5780747 C93.526971,24.4788101 93.5844494,24.3983402 93.6553527,24.3983402 C93.726256,24.3983402 93.7837344,24.4788101 93.7837344,24.5780747 Z" id="path3958" fill="#FFFFFF"></path>
                <path d="M94.9455602,23.416249 C94.9455602,23.5155136 94.8880817,23.5959834 94.8171784,23.5959834 C94.7462751,23.5959834 94.6887967,23.5155136 94.6887967,23.416249 C94.6887967,23.3169844 94.7462751,23.2365145 94.8171784,23.2365145 C94.8880817,23.2365145 94.9455602,23.3169844 94.9455602,23.416249 Z" id="path3960" fill="#FFFFFF"></path>
                <path d="M95.526473,23.416249 C95.526473,23.5155136 95.4689946,23.5959834 95.3980913,23.5959834 C95.327188,23.5959834 95.2697095,23.5155136 95.2697095,23.416249 C95.2697095,23.3169844 95.327188,23.2365145 95.3980913,23.2365145 C95.4689946,23.2365145 95.526473,23.3169844 95.526473,23.416249 Z" id="path3962" fill="#FFFFFF"></path>
                <path d="M96.1073859,23.416249 C96.1073859,23.5155136 96.0499074,23.5959834 95.9790041,23.5959834 C95.9081009,23.5959834 95.8506224,23.5155136 95.8506224,23.416249 C95.8506224,23.3169844 95.9081009,23.2365145 95.9790041,23.2365145 C96.0499074,23.2365145 96.1073859,23.3169844 96.1073859,23.416249 Z" id="path3964" fill="#FFFFFF"></path>
                <path d="M96.1073859,25.1589876 C96.1073859,25.2582521 96.0499074,25.338722 95.9790041,25.338722 C95.9081009,25.338722 95.8506224,25.2582521 95.8506224,25.1589876 C95.8506224,25.059723 95.9081009,24.9792531 95.9790041,24.9792531 C96.0499074,24.9792531 96.1073859,25.059723 96.1073859,25.1589876 Z" id="path3966" fill="#FFFFFF"></path>
                <path d="M96.1073859,25.7399004 C96.1073859,25.839165 96.0499074,25.9196349 95.9790041,25.9196349 C95.9081009,25.9196349 95.8506224,25.839165 95.8506224,25.7399004 C95.8506224,25.6406358 95.9081009,25.560166 95.9790041,25.560166 C96.0499074,25.560166 96.1073859,25.6406358 96.1073859,25.7399004 Z" id="path3968" fill="#FFFFFF"></path>
                <path d="M95.526473,26.9017261 C95.526473,27.0009907 95.4689946,27.0814606 95.3980913,27.0814606 C95.327188,27.0814606 95.2697095,27.0009907 95.2697095,26.9017261 C95.2697095,26.8024616 95.327188,26.7219917 95.3980913,26.7219917 C95.4689946,26.7219917 95.526473,26.8024616 95.526473,26.9017261 Z" id="path3970" fill="#FFFFFF"></path>
                <path d="M96.6882988,26.3208133 C96.6882988,26.4200779 96.6308203,26.5005477 96.559917,26.5005477 C96.4890137,26.5005477 96.4315353,26.4200779 96.4315353,26.3208133 C96.4315353,26.2215487 96.4890137,26.1410788 96.559917,26.1410788 C96.6308203,26.1410788 96.6882988,26.2215487 96.6882988,26.3208133 Z" id="path3972" fill="#FFFFFF"></path>
                <path d="M96.1073859,26.3208133 C96.1073859,26.4200779 96.0499074,26.5005477 95.9790041,26.5005477 C95.9081009,26.5005477 95.8506224,26.4200779 95.8506224,26.3208133 C95.8506224,26.2215487 95.9081009,26.1410788 95.9790041,26.1410788 C96.0499074,26.1410788 96.1073859,26.2215487 96.1073859,26.3208133 Z" id="path3974" fill="#FFFFFF"></path>
                <path d="M95.526473,28.6444647 C95.526473,28.7437293 95.4689946,28.8241992 95.3980913,28.8241992 C95.327188,28.8241992 95.2697095,28.7437293 95.2697095,28.6444647 C95.2697095,28.5452001 95.327188,28.4647303 95.3980913,28.4647303 C95.4689946,28.4647303 95.526473,28.5452001 95.526473,28.6444647 Z" id="path3976" fill="#FFFFFF"></path>
                <path d="M95.526473,29.2253776 C95.526473,29.3246422 95.4689946,29.405112 95.3980913,29.405112 C95.327188,29.405112 95.2697095,29.3246422 95.2697095,29.2253776 C95.2697095,29.126113 95.327188,29.0456432 95.3980913,29.0456432 C95.4689946,29.0456432 95.526473,29.126113 95.526473,29.2253776 Z" id="path3978" fill="#FFFFFF"></path>
                <path d="M94.9455602,28.6444647 C94.9455602,28.7437293 94.8880817,28.8241992 94.8171784,28.8241992 C94.7462751,28.8241992 94.6887967,28.7437293 94.6887967,28.6444647 C94.6887967,28.5452001 94.7462751,28.4647303 94.8171784,28.4647303 C94.8880817,28.4647303 94.9455602,28.5452001 94.9455602,28.6444647 Z" id="path3980" fill="#FFFFFF"></path>
                <path d="M96.1073859,28.6444647 C96.1073859,28.7437293 96.0499074,28.8241992 95.9790041,28.8241992 C95.9081009,28.8241992 95.8506224,28.7437293 95.8506224,28.6444647 C95.8506224,28.5452001 95.9081009,28.4647303 95.9790041,28.4647303 C96.0499074,28.4647303 96.1073859,28.5452001 96.1073859,28.6444647 Z" id="path3982" fill="#FFFFFF"></path>
                <path d="M94.9455602,31.549029 C94.9455602,31.6482936 94.8880817,31.7287635 94.8171784,31.7287635 C94.7462751,31.7287635 94.6887967,31.6482936 94.6887967,31.549029 C94.6887967,31.4497645 94.7462751,31.3692946 94.8171784,31.3692946 C94.8880817,31.3692946 94.9455602,31.4497645 94.9455602,31.549029 Z" id="path3984" fill="#FFFFFF"></path>
                <path d="M93.7837344,33.2917676 C93.7837344,33.3910322 93.726256,33.4715021 93.6553527,33.4715021 C93.5844494,33.4715021 93.526971,33.3910322 93.526971,33.2917676 C93.526971,33.192503 93.5844494,33.1120332 93.6553527,33.1120332 C93.726256,33.1120332 93.7837344,33.192503 93.7837344,33.2917676 Z" id="path3986" fill="#FFFFFF"></path>
                <path d="M94.3646473,33.2917676 C94.3646473,33.3910322 94.3071688,33.4715021 94.2362656,33.4715021 C94.1653623,33.4715021 94.1078838,33.3910322 94.1078838,33.2917676 C94.1078838,33.192503 94.1653623,33.1120332 94.2362656,33.1120332 C94.3071688,33.1120332 94.3646473,33.192503 94.3646473,33.2917676 Z" id="path3988" fill="#FFFFFF"></path>
                <path d="M92.6219087,33.8726805 C92.6219087,33.9719451 92.5644302,34.0524149 92.493527,34.0524149 C92.4226237,34.0524149 92.3651452,33.9719451 92.3651452,33.8726805 C92.3651452,33.7734159 92.4226237,33.6929461 92.493527,33.6929461 C92.5644302,33.6929461 92.6219087,33.7734159 92.6219087,33.8726805 Z" id="path3990" fill="#FFFFFF"></path>
                <path d="M91.460083,34.4535934 C91.460083,34.552858 91.4026045,34.6333278 91.3317012,34.6333278 C91.260798,34.6333278 91.2033195,34.552858 91.2033195,34.4535934 C91.2033195,34.3543288 91.260798,34.2738589 91.3317012,34.2738589 C91.4026045,34.2738589 91.460083,34.3543288 91.460083,34.4535934 Z" id="path3992" fill="#FFFFFF"></path>
                <path d="M92.0409959,33.2917676 C92.0409959,33.3910322 91.9835174,33.4715021 91.9126141,33.4715021 C91.8417108,33.4715021 91.7842324,33.3910322 91.7842324,33.2917676 C91.7842324,33.192503 91.8417108,33.1120332 91.9126141,33.1120332 C91.9835174,33.1120332 92.0409959,33.192503 92.0409959,33.2917676 Z" id="path3994" fill="#FFFFFF"></path>
                <path d="M73.7833693,9.25846148 C74.2873112,8.49349799 74.8467303,8.60701998 75.5442324,9.14954031 C75.8856929,9.41512787 76.3706971,9.50057434 76.6515685,9.89383492 C77.6309295,11.2649171 78.5478423,10.7454357 79.356473,12.3627146 C79.8259087,13.3016034 79.671444,13.8650714 78.7574357,13.4882333 C77.3319336,12.9005005 77.7678506,12.218288 77.0328216,12.1085652 C75.8713444,10.9350748 76.0190705,11.500576 74.7636598,10.4021337 C74.4974274,10.2246648 73.8924647,9.85808554 73.7833693,9.58522496 C73.766639,9.54342828 73.7833693,9.33763409 73.7833693,9.25846148 Z" id="path3996"></path>
                <path d="M6.64680498,18.1880332 C6.64680498,18.2872978 6.58932652,18.3677676 6.51842324,18.3677676 C6.44751996,18.3677676 6.39004149,18.2872978 6.39004149,18.1880332 C6.39004149,18.0887686 6.44751996,18.0082988 6.51842324,18.0082988 C6.58932652,18.0082988 6.64680498,18.0887686 6.64680498,18.1880332 Z" id="path3998" fill="#FFFFFF"></path>
                <path d="M6.64680498,18.7689461 C6.64680498,18.8682107 6.58932652,18.9486805 6.51842324,18.9486805 C6.44751996,18.9486805 6.39004149,18.8682107 6.39004149,18.7689461 C6.39004149,18.6696815 6.44751996,18.5892116 6.51842324,18.5892116 C6.58932652,18.5892116 6.64680498,18.6696815 6.64680498,18.7689461 Z" id="path4000" fill="#FFFFFF"></path>
                <path d="M6.06589212,18.7689461 C6.06589212,18.8682107 6.00841365,18.9486805 5.93751037,18.9486805 C5.86660709,18.9486805 5.80912863,18.8682107 5.80912863,18.7689461 C5.80912863,18.6696815 5.86660709,18.5892116 5.93751037,18.5892116 C6.00841365,18.5892116 6.06589212,18.6696815 6.06589212,18.7689461 Z" id="path4002" fill="#FFFFFF"></path>
                <path d="M5.48497925,18.7689461 C5.48497925,18.8682107 5.42750079,18.9486805 5.35659751,18.9486805 C5.28569423,18.9486805 5.22821577,18.8682107 5.22821577,18.7689461 C5.22821577,18.6696815 5.28569423,18.5892116 5.35659751,18.5892116 C5.42750079,18.5892116 5.48497925,18.6696815 5.48497925,18.7689461 Z" id="path4004" fill="#FFFFFF"></path>
                <path d="M4.90406639,18.1880332 C4.90406639,18.2872978 4.84658793,18.3677676 4.77568465,18.3677676 C4.70478137,18.3677676 4.6473029,18.2872978 4.6473029,18.1880332 C4.6473029,18.0887686 4.70478137,18.0082988 4.77568465,18.0082988 C4.84658793,18.0082988 4.90406639,18.0887686 4.90406639,18.1880332 Z" id="path4006" fill="#FFFFFF"></path>
                <path d="M4.32315353,18.1880332 C4.32315353,18.2872978 4.26567506,18.3677676 4.19477178,18.3677676 C4.12386851,18.3677676 4.06639004,18.2872978 4.06639004,18.1880332 C4.06639004,18.0887686 4.12386851,18.0082988 4.19477178,18.0082988 C4.26567506,18.0082988 4.32315353,18.0887686 4.32315353,18.1880332 Z" id="path4008" fill="#FFFFFF"></path>
                <path d="M3.1613278,18.7689461 C3.1613278,18.8682107 3.10384934,18.9486805 3.03294606,18.9486805 C2.96204278,18.9486805 2.90456432,18.8682107 2.90456432,18.7689461 C2.90456432,18.6696815 2.96204278,18.5892116 3.03294606,18.5892116 C3.10384934,18.5892116 3.1613278,18.6696815 3.1613278,18.7689461 Z" id="path4010" fill="#FFFFFF"></path>
                <path d="M2.58041494,18.1880332 C2.58041494,18.2872978 2.52293647,18.3677676 2.4520332,18.3677676 C2.38112992,18.3677676 2.32365145,18.2872978 2.32365145,18.1880332 C2.32365145,18.0887686 2.38112992,18.0082988 2.4520332,18.0082988 C2.52293647,18.0082988 2.58041494,18.0887686 2.58041494,18.1880332 Z" id="path4012" fill="#FFFFFF"></path>
                <path d="M0.256763485,18.1880332 C0.256763485,18.2872978 0.199285021,18.3677676 0.128381743,18.3677676 C0.0574784641,18.3677676 0,18.2872978 0,18.1880332 C0,18.0887686 0.0574784641,18.0082988 0.128381743,18.0082988 C0.199285021,18.0082988 0.256763485,18.0887686 0.256763485,18.1880332 Z" id="path4014" fill="#FFFFFF"></path>
                <path d="M11.8750207,14.1216432 C11.8750207,14.2209077 11.8175423,14.3013776 11.746639,14.3013776 C11.6757357,14.3013776 11.6182573,14.2209077 11.6182573,14.1216432 C11.6182573,14.0223786 11.6757357,13.9419087 11.746639,13.9419087 C11.8175423,13.9419087 11.8750207,14.0223786 11.8750207,14.1216432 Z" id="path4044" fill="#FFFFFF"></path>
                <path d="M12.4559336,13.5407303 C12.4559336,13.6399949 12.3984551,13.7204647 12.3275519,13.7204647 C12.2566486,13.7204647 12.1991701,13.6399949 12.1991701,13.5407303 C12.1991701,13.4414657 12.2566486,13.3609959 12.3275519,13.3609959 C12.3984551,13.3609959 12.4559336,13.4414657 12.4559336,13.5407303 Z" id="path4046" fill="#FFFFFF"></path>
                <path d="M13.0368465,12.9598174 C13.0368465,13.059082 12.979368,13.1395519 12.9084647,13.1395519 C12.8375615,13.1395519 12.780083,13.059082 12.780083,12.9598174 C12.780083,12.8605528 12.8375615,12.780083 12.9084647,12.780083 C12.979368,12.780083 13.0368465,12.8605528 13.0368465,12.9598174 Z" id="path4048" fill="#FFFFFF"></path>
                <path d="M14.1986722,12.9598174 C14.1986722,13.059082 14.1411937,13.1395519 14.0702905,13.1395519 C13.9993872,13.1395519 13.9419087,13.059082 13.9419087,12.9598174 C13.9419087,12.8605528 13.9993872,12.780083 14.0702905,12.780083 C14.1411937,12.780083 14.1986722,12.8605528 14.1986722,12.9598174 Z" id="path4050" fill="#FFFFFF"></path>
                <path d="M1.74273859,11.6182573 C1.89248631,13.6781859 3.44870539,15.1471867 4.42946058,16.846473" id="path4052"></path>
                <path d="M18.7627458,0.367176339 C18.9219159,1.27746679 19.3833931,1.84893982 19.9245715,0.766553932 C20.3589201,-0.102160591 19.8135591,0.00410579914 21.4131607,0.00410579914 C22.4313848,0.00410579914 21.8350197,0.441196256 21.8125383,1.23854563 C21.7416089,3.75501368 21.0288869,2.31949667 20.7233267,2.79974895 C20.4759159,3.18864688 20.2221732,3.78733567 19.8156504,3.88896057 C19.091891,4.06990331 18.9063475,3.45245684 18.3270612,3.16281949 C17.1982894,2.59842779 19.4007043,2.4722419 19.7793433,2.36406431 C20.0186794,2.29569086 20.0549865,1.41097219 19.7067292,1.27485269 C18.8554595,0.942158081 18.9185466,-0.414749803 18.6901317,0.802860986" id="path4056"></path>
                <path d="M22.7406675,2.98865744 C22.7406675,2.94024998 22.7406675,2.94024998 22.7406675,2.98865744 C22.7406675,3.00645081 22.6840285,2.05914458 22.9222028,1.46376118 C23.115124,0.981394374 23.7573231,0.665005993 24.3018709,0.665005993 C25.1881696,0.665005993 25.5611738,-0.339165792 26.4802941,0.120400184 C27.1332402,0.446879022 27.1201115,1.56971388 26.6255223,1.89944583 C25.9523024,2.34824168 25.2498045,2.32969313 24.8464767,3.09757861 C24.2878709,4.16116035 22.2133148,4.30969396 22.7406675,2.87973628" id="path4058"></path>
                <path d="M34.2158193,108.789358 C33.5368774,108.557888 32.5232368,108.299492 31.9632774,108.215132 L30.9451812,108.061765 L27.5499139,100.797583 C24.051709,93.313183 24.0405322,93.2825398 24.8054608,93.2756618 C25.7397197,93.267256 26.7917762,92.3336651 28.5606907,89.9432726 C29.874948,88.1672768 30.1515787,87.871778 30.6382907,87.7239647 C31.458377,87.4749158 31.9201098,86.9269174 32.2971222,85.7552046 C32.6018866,84.808061 32.611948,84.680417 32.4184052,84.2172029 L32.207348,83.7120643 L33.1752708,83.6639124 C34.1222401,83.6168004 34.2029753,83.6428834 36.9025413,84.8679938 C39.5463861,86.067817 39.7105056,86.1669149 40.8237032,87.2356145 C41.6825596,88.0601448 42.7997538,88.8633149 45.1079355,90.3156319 C46.8252592,91.3961763 48.345543,92.3839025 48.4863446,92.5105763 C48.7272202,92.7272801 48.6961646,92.7820602 47.9609496,93.4373473 C46.5230973,94.7188934 45.2531637,96.9793066 45.2531637,98.2571 C45.2531637,98.5259639 45.3504841,99.0667589 45.4694376,99.4588635 C45.5883795,99.850968 45.6864144,100.252292 45.6872799,100.350698 C45.6881397,100.449111 45.3238666,100.873898 44.877772,101.294682 C44.4316832,101.715472 43.8108675,102.49587 43.4981911,103.028916 C43.1855148,103.561956 42.7301372,104.150136 42.4862467,104.33597 C42.2423563,104.521804 41.7932583,104.886245 41.4882675,105.145844 C40.6488077,105.860343 40.7380127,105.946556 39.9358359,103.645508 C39.4824741,102.345036 38.7237148,102.079867 37.8526475,102.917473 C37.3436749,103.406893 37.3303197,103.410471 36.5917762,103.255141 C35.8727571,103.103917 35.8178666,103.115762 35.0986268,103.577303 C33.8142459,104.401491 33.7792517,104.95603 34.9734517,105.561179 C35.3932658,105.773921 35.8567065,105.906096 36.051928,105.868778 C36.2402019,105.83279 36.3942426,105.828172 36.3942426,105.858519 C36.3942426,105.888872 36.1001961,106.288261 35.7408085,106.746061 C35.02445,107.658576 34.9816716,107.843504 35.3069363,108.621974 C35.4278011,108.911239 35.509489,109.161927 35.4884716,109.179058 C35.46746,109.196189 34.8947612,109.020823 34.2158193,108.789358 L34.2158193,108.789358 Z M32.76065,102.339814 C33.8619853,101.845556 34.3679314,101.274629 35.1761612,99.6140311 C35.8690044,98.1905041 35.9423214,97.7800195 35.5702119,97.4079158 C35.1937397,97.0314436 34.5013845,97.2174519 32.4730807,98.2399921 C31.10786,98.9282519 30.5857065,99.2708278 30.3672716,99.6215772 C30.2075206,99.8780909 30.0056127,100.09049 29.9185919,100.093569 C29.723382,100.10047 29.4692675,100.639058 29.3567505,101.284359 C29.0969895,102.774156 30.6912525,103.268496 32.76065,102.339808 L32.76065,102.339814 Z" id="path4093" fill="#FFFFFF"></path>
                <path d="M41.4574959,112.604144 C41.3418419,112.218133 41.0386229,111.812789 40.526827,111.360037 C39.5297482,110.477985 39.0475789,110.231794 38.5368112,110.34398 C38.2168386,110.414259 38.0769374,110.364382 37.9048361,110.118679 C37.6694735,109.782632 37.716359,109.485251 38.069554,109.074012 C38.3556187,108.740928 38.7046834,108.753226 39.4272287,109.121844 C39.7886668,109.306237 40.1523125,109.390406 40.36111,109.338002 C40.8763042,109.208702 41.4329291,108.52581 41.5342868,107.898709 C41.7207191,106.745283 42.7631034,106.041339 44.9959233,105.56097 C45.6349274,105.423491 46.4800395,105.218243 46.8739449,105.104855 C47.2678444,104.991466 47.8039341,104.8987 48.0652403,104.8987 C48.3265465,104.8987 48.6982668,104.826749 48.8912809,104.738804 C49.5227274,104.451101 51.4585789,100.783903 51.4585789,99.8754191 C51.4585789,99.655468 51.3586909,99.3651394 51.2366121,99.2302398 C51.0031083,98.9722216 51.1256635,98.3513419 51.4496212,98.1511245 C51.6957946,97.9989776 51.6284204,97.4172979 51.3190901,97.0240432 L51.0343731,96.662088 L51.4111299,96.4904282 C51.771598,96.3261809 51.7845465,96.2797776 51.7106834,95.4168199 C51.6682361,94.9207552 51.5906843,94.4097378 51.5383614,94.281234 C51.4585092,94.0850946 51.5909166,94.0357286 52.3629092,93.9737568 C53.0411424,93.9193137 53.5044436,93.7747303 54.127676,93.4229992 L54.9727648,92.9460581 L55.5756303,93.260634 C55.9072096,93.4336473 56.4665241,93.7376158 56.8185573,93.9361195 C57.6666668,94.4143502 58.2420146,94.3982763 58.941422,93.8767909 C59.4764544,93.4778606 59.521115,93.4686531 59.8220685,93.6952556 C60.1355465,93.9312863 60.1274544,93.9407668 59.1027822,94.5383112 C57.0488021,95.7361129 56.0812743,96.8985311 56.0617614,98.1918871 C56.0426552,99.4583469 57.7595141,102.140108 58.5885872,102.138818 C58.780666,102.138522 59.1383922,102.015978 59.3835083,101.866504 C59.6286245,101.717029 59.9880644,101.546305 60.1822635,101.487121 C60.3764627,101.427932 60.7421067,101.224694 60.9948038,101.035467 C61.4419324,100.700652 61.4691888,100.697835 62.0114013,100.930496 L62.5685374,101.169571 L61.6716253,101.337292 C59.8483141,101.678259 59.3923673,102.625292 60.4178121,103.941501 C61.0223681,104.717467 60.9926834,104.782988 59.9086129,105.065248 C59.1164917,105.27149 58.9049407,105.600373 58.780422,106.819158 C58.6988444,107.617611 58.6192884,107.835837 58.3440403,108.016187 C58.1470527,108.14526 57.967783,108.448055 57.9118585,108.74615 C57.8007764,109.338292 57.6864527,109.366676 57.0985922,108.948081 C56.8444892,108.767144 56.3113274,108.598697 55.8030112,108.538764 C54.9869739,108.442548 54.8902112,108.387291 54.0525465,107.539176 C53.0346187,106.508549 52.6742901,106.424625 51.6011756,106.968202 C51.0187988,107.263202 50.7290336,107.563841 49.3917955,109.260554 L48.9951307,109.763846 L48.6858876,109.400775 C47.8203797,108.38466 46.9400527,108.267693 45.8721839,109.026917 C45.4085457,109.356556 44.9264519,109.558261 44.4434984,109.624688 C43.9646229,109.690546 43.6105274,109.83768 43.4112627,110.053588 C42.7649274,110.753924 42.1904917,111.68378 41.9529158,112.414261 C41.8165291,112.833604 41.6878685,113.176709 41.6669905,113.176709 C41.6461125,113.176709 41.5518419,112.919056 41.4574901,112.604144 L41.4574959,112.604144 Z" id="path4095" fill="#FFFFFF"></path>
                <path d="M67.2847668,91.8866364 L66.8049793,91.5794207 L67.2847668,91.1686572 C67.7517917,90.7688323 69.674468,89.9212281 69.8090656,90.0558257 C69.8460581,90.0928124 69.6625884,90.5874887 69.4013519,91.1550987 C68.9289129,92.1816472 68.9233187,92.1871369 68.3454846,92.1904887 C67.9971112,92.1925045 67.5725104,92.070873 67.2847668,91.8866364 Z" id="path4097" fill="#FFFFFF"></path>
                <path d="M30.4049761,66.0416471 C30.0155031,64.7417325 29.2520035,63.366584 28.7082981,62.9857608 C28.1646043,62.6049375 27.618494,61.7732678 27.4947363,61.1376155 C27.330216,60.2925906 26.8040135,59.9818778 25.5373794,59.9818778 C23.8141131,59.9818778 23.8051089,59.9643691 23.8195853,56.6432089 C23.8312906,53.9630977 24.0928699,53.0464056 25.1457687,51.995906 C25.9559039,51.1876006 26.6166575,50.9138977 26.8739496,51.2800064 C27.1030674,51.6060321 27.9770276,52.1738396 28.8161097,52.5418421 C30.0387106,53.0780595 30.2847272,53.5090155 30.0548019,54.7117782 C29.8970027,55.5372321 30.0311413,56.5378836 30.3528799,56.9354255 C30.9783255,57.7082487 31.9939703,68.4051143 31.4418882,68.4051143 C31.2610442,68.4051143 30.7944317,67.34155 30.4049703,66.0416413 L30.4049761,66.0416471 Z" id="path4099" fill="#FFFFFF"></path>
                <path d="M13.9795215,72.1609111 C13.2891414,70.6779858 12.7499787,69.4408563 12.7813887,69.411741 C12.8127987,69.3826198 13.4705779,69.1571733 14.2431223,68.9107501 C15.8556551,68.3963808 15.6343796,68.3554555 16.1807339,69.2690746 C16.6454758,70.0462256 16.599787,70.4322248 16.039636,70.4612123 C15.8413007,70.4714771 15.4598617,71.0994439 15.4598617,71.415687 C15.4598675,72.0826796 16.1291082,72.2274372 17.7194734,71.9044439 C18.0476891,71.8377841 18.3368617,71.8038879 18.362085,71.8291111 C18.4584526,71.9254729 18.2252277,72.4028962 17.9111107,72.7522688 C17.7309638,72.9526314 17.3928028,73.218248 17.159636,73.3425227 C16.9264634,73.4668032 16.414319,73.8589717 16.021529,74.2140082 C15.6287447,74.5690505 15.2910368,74.8589958 15.2710651,74.8583335 C15.2510991,74.8576771 14.6699016,73.6438306 13.9795215,72.1609111 L13.9795215,72.1609111 Z" id="path4103" fill="#FFFFFF"></path>
                <path d="M25.560166,51.160839 C25.560166,51.1370274 25.6990448,50.9527967 25.8687759,50.7514349 C26.2816307,50.2616672 26.2803237,49.9640656 25.8613925,49.0662938 C25.6957162,48.7112515 25.560166,48.3648822 25.560166,48.2965842 C25.560166,48.000673 26.2845353,47.1732498 27.2302905,46.388849 C27.5697643,46.1072979 27.9811668,45.7496473 28.1445195,45.594073 L28.4415286,45.3112033 L28.8162,45.8819037 C29.2152232,46.4896896 29.2390232,46.5888398 29.1056224,47.0876 C29.0208788,47.4044531 29.069327,47.6173809 29.4546407,48.6214888 C29.5140158,48.7762091 29.1243917,48.937761 28.5648739,48.9904149 C27.9030398,49.0527004 27.3392058,49.215571 27.1136083,49.4096191 C26.9275129,49.5696954 26.6493776,50.382044 26.6493776,50.7655162 C26.6493776,50.9348639 26.6209303,50.9522216 26.3219983,50.9652282 C26.1419328,50.9730647 25.8968631,51.030029 25.7773925,51.0918091 C25.6579162,51.1535892 25.560166,51.1846564 25.560166,51.160839 L25.560166,51.160839 Z" id="path4105" fill="#FFFFFF"></path>
                <path d="M23.8336174,92.4534556 C23.7640589,92.4061983 19.1701245,82.695444 19.1701245,82.5956664 C19.1701245,82.5850647 19.3925734,82.5088199 19.6644465,82.4262373 C20.8010141,82.0810183 22.1325129,81.136117 24.4261892,79.0470614 C25.1498033,78.3880041 25.387629,77.9796747 25.4619336,77.2687942 C25.5015925,76.8893303 25.4885975,76.8343295 25.3149627,76.6469793 C24.9929627,76.2995353 25.0709328,75.9491344 25.6710622,75.0466805 C25.9968905,74.5567095 26.0074515,74.5241029 25.96379,74.1424083 C25.8728249,73.3470398 25.0753477,71.97619 23.3216763,69.6006224 C21.0643187,66.5427552 20.4917303,65.6813544 20.5739876,65.4670033 C20.5947842,65.4128158 20.8470224,65.2750639 21.134522,65.1608971 C21.4220158,65.0467303 21.7675079,64.8514332 21.9022739,64.7269029 C22.1090033,64.5358755 22.1472564,64.4507485 22.146995,64.1822971 C22.1467394,63.9249469 22.092517,63.7926672 21.8633992,63.4904763 L21.580117,63.1168448 L21.8260349,62.8784905 C22.149127,62.5653378 22.264473,62.2226979 22.1443867,61.9327876 C22.0950963,61.8137992 21.996283,61.6851386 21.92479,61.6468797 C21.801805,61.5810564 21.8042971,61.5531087 21.9710598,61.1275842 C22.1956813,60.5544149 22.1927768,60.3579676 21.9557004,60.0881743 C21.7046705,59.8025104 21.2499029,59.1051942 21.1372349,58.8331876 C21.0565112,58.6383029 21.0657419,58.5988124 21.2346133,58.4166033 C21.5260805,58.1021029 21.4755992,57.8659618 21.0042523,57.3389693 C20.6806315,56.9771477 20.5496938,56.6555718 20.5501992,56.2238025 C20.5508324,55.6827867 20.6679676,55.3698257 20.950483,55.1543419 C21.2988622,54.8886149 21.2966664,54.5957768 20.94321,54.1828407 L20.6830946,53.8789535 L21.6511975,52.8559485 C23.6108896,50.7850988 23.9232581,50.1743444 23.6344398,48.9782158 C23.5148008,48.4827203 23.5004523,48.1522274 23.592283,48.0072548 C23.6310066,47.9461253 23.8716324,47.8864946 24.2153759,47.8528365 C24.9764299,47.7783228 25.0965859,47.6761751 25.4200846,46.8287162 C25.9062855,45.5550241 26.390151,44.803439 27.1247909,44.1808515 C27.9753461,43.4600257 28.1742739,43.2377743 28.1742739,43.0083602 C28.1742739,42.7519917 28.0144415,42.5902714 27.6248523,42.4524498 L27.3392116,42.3514058 L27.629668,42.3017842 C28.0365627,42.2322722 28.2432573,42.1375195 28.2977469,41.9955212 C28.3234813,41.9284722 28.2531386,41.6163884 28.1414349,41.3020041 C28.0297369,40.9876257 27.9556008,40.7131444 27.9766938,40.6920456 C28.0557037,40.6130415 28.4730025,41.328912 28.6139552,41.7852598 C28.8244722,42.4668274 29.0576564,42.5641187 29.5376066,42.1706432 C29.6959286,42.040844 30.0110506,41.8039419 30.2378855,41.6441909 C30.4647145,41.4844398 30.7630075,41.1985203 30.9007593,41.0088174 C31.1187527,40.7085959 31.1847851,40.6639004 31.4102548,40.6639004 C32.3018282,40.6639004 32.0706249,41.2516797 30.8010863,42.212556 L30.3417992,42.5601801 L30.5404481,42.8206207 C30.6699627,42.9904216 30.7504888,43.1996141 30.7718315,43.4217261 C30.8028523,43.7445743 30.7899793,43.7744158 30.5257801,43.9921942 C30.1288133,44.3194108 30.0196365,44.2939784 29.8127154,43.8260938 C29.6378199,43.4306315 29.6373668,43.4302772 29.3965784,43.4993303 C29.2639967,43.5373568 29.1518747,43.5684647 29.1474133,43.5684647 C29.1429519,43.5684647 28.9967012,43.7726905 28.8224158,44.0223029 C28.3710697,44.6687137 27.9600913,45.0928556 27.0476515,45.8539154 C25.8985071,46.8124041 25.1970954,47.6949386 25.1970954,48.1823245 C25.1970954,48.3393685 25.3317801,48.7587876 25.5238589,49.1999212 C25.7035817,49.6126598 25.8506224,49.9731743 25.8506224,50.0010639 C25.8506224,50.0665967 25.3834465,50.6094017 24.5435743,51.5197095 C23.3392896,52.8249975 23.0771817,53.3228456 22.9067593,54.6287261 C22.8433527,55.1146365 22.7413793,55.7412207 22.6801627,56.0211394 C22.6189461,56.3010581 22.5517461,56.9058581 22.5308216,57.3651452 C22.4937942,58.1780515 22.4996324,58.2204349 22.7508423,58.9626556 C22.8927768,59.3819992 23.0603934,59.9108216 23.1233353,60.1378075 C23.2959477,60.7603253 23.4850232,60.9380382 24.225844,61.1740166 C25.130395,61.462161 25.5176025,61.4295485 26.0545228,61.0200224 C26.2900133,60.8404041 26.2987386,60.8393004 26.4467029,60.9705461 C26.5299303,61.0443685 26.6909768,61.2318058 26.8045859,61.3870722 L27.0111469,61.6693668 L26.685034,61.9730564 C26.3519618,62.283229 26.2898739,62.4738846 26.4341436,62.7434631 C26.5261892,62.9154539 27.0545934,63.1881693 27.6000763,63.3452191 C27.8234199,63.4095203 28.096873,63.5334871 28.2077402,63.6206938 C28.6546656,63.9722448 29.171922,65.0437328 29.8723519,67.0689112 C30.7350772,69.563351 31.0289087,70.2201021 31.5608216,70.8428929 C31.9262797,71.2707876 31.9614075,71.5147012 31.7307734,72.022971 C31.6517751,72.1970705 31.5874448,72.425805 31.5878224,72.5312697 C31.5886299,72.7603062 31.9327046,73.3797394 32.1941909,73.6229212 L32.3810183,73.7966664 L32.2382299,73.9971975 C31.9676755,74.3771552 32.0404755,74.5384224 32.7100415,75.0423527 C33.3060523,75.490922 33.3802988,75.6686523 33.2527245,76.3413552 C33.1946216,76.6477344 33.1199627,76.7724797 32.8281178,77.0508415 C32.2298357,77.621478 32.2703718,78.0165743 32.997849,78.705351 L33.4108548,79.0963925 L33.2325378,79.2862639 C33.1344564,79.3906946 32.9691925,79.603239 32.8652846,79.7585751 C32.5586324,80.2169967 32.6012598,80.5035959 33.1379303,81.5916515 C33.820834,82.9761876 33.8594008,82.8330332 32.7953427,82.8633162 C32.0324705,82.8850249 31.869083,82.9104166 31.7399402,83.0273311 C31.5294929,83.2178473 31.5408788,83.6376033 31.7686722,84.0871369 C31.8685195,84.284171 31.9502075,84.5123419 31.9502075,84.5941867 C31.9502075,84.6760315 31.8321253,85.0848315 31.6878033,85.5026357 C31.3476498,86.4873353 31.17739,86.6639967 30.2883552,86.9546739 C29.827517,87.105351 29.4384158,87.4355012 29.1062614,87.9576722 C28.5452971,88.8395502 26.9454573,90.9195842 26.4288224,91.4387461 C25.7331444,92.1378282 25.1167668,92.4579344 24.3983402,92.4932481 C24.1387477,92.5060108 23.8846216,92.4881012 23.8336174,92.4534498 L23.8336174,92.4534556 Z" id="path4109" fill="#FFFFFF"></path>
                <path d="M34.5526796,39.9370573 C34.2242954,39.787937 34.1708514,39.7270747 34.0373402,39.3501785 C33.9533112,39.1129685 33.9593236,39.0871527 34.1275211,38.9628955 C34.4294448,38.7398482 34.3726257,38.4578208 33.9699427,38.1807718 C33.6557328,37.9645851 33.6415004,37.9415403 33.7659842,37.8505171 C33.9600033,37.7086465 34.1214622,37.7291992 34.4235601,37.9342034 C34.6308763,38.0748947 34.7834357,38.1157386 35.1016249,38.1157386 L35.5121908,38.1157386 L35.5964174,38.5173295 C35.642751,38.7381984 35.7497494,39.0159503 35.8341967,39.1345494 L35.9877377,39.3501785 L35.4758838,39.3501785 C34.9894564,39.3501785 34.9617411,39.3592639 34.9181203,39.5330556 C34.8928796,39.6336349 34.8877269,39.7970166 34.9066705,39.8961262 C34.9476597,40.1105644 34.9373834,40.1117494 34.5526796,39.9370573 L34.5526796,39.9370573 Z" id="path4111" fill="#FFFFFF"></path>
                <path d="M19.1110284,78.5014268 C19.3454732,78.1408194 19.9927089,77.363953 20.3335711,77.0340235 C20.6325844,76.7446011 20.6680259,76.6760243 20.6680259,76.3868808 C20.6680259,75.6363414 19.9178931,74.9662758 18.9162948,74.8221223 C18.3711197,74.7436642 18.0384135,74.9200526 17.7145197,75.4592733 C17.4210135,75.9479082 16.8969662,76.6584459 16.7245512,76.8015364 C16.6103379,76.8963239 16.5883272,76.8594999 16.0553338,75.682065 L15.8884608,75.3134235 L16.6449778,74.6291604 C17.0610682,74.2528102 17.6218176,73.8252932 17.891094,73.6791181 C18.9609786,73.0983331 19.6715803,71.776338 19.2202284,71.2064102 C18.9951944,70.9222567 18.6858989,70.8911546 17.8547404,71.0691115 C16.9904467,71.2541613 16.4564077,71.2710426 16.4564077,71.1133131 C16.4564077,71.0536127 16.5993064,70.9375928 16.7739579,70.8554982 C17.2595255,70.6272517 17.4192359,70.4169845 17.4575006,69.9555712 C17.4997039,69.4466451 17.275001,68.9541297 16.4955205,67.8471015 C15.8234334,66.8925862 15.6353164,66.5414999 15.6950691,66.3532202 C15.7195952,66.2759646 15.9254301,66.0686484 16.1524915,65.8925214 C16.6490965,65.5073065 16.8610832,65.3100285 16.9509504,65.1494351 C17.0497753,64.9728492 17.3158276,65.0658418 17.7136425,65.4160102 C17.8992442,65.5793862 18.4324757,66.2581596 18.898606,66.9244086 C19.8783272,68.3247571 20.3951653,68.9415704 20.9570823,69.3810949 C21.4374508,69.7568293 21.9153213,70.3723936 22.3281645,71.147221 C22.7445803,71.9287405 22.9171811,72.4634185 22.9696724,73.1344542 L23.0142052,73.7036849 L22.7089413,73.9695223 C22.4142209,74.2261638 22.4077263,74.2410293 22.5209404,74.3996999 C22.5854392,74.4900957 22.7667537,74.6296368 22.9238616,74.7097853 C23.2592516,74.8808932 23.2872981,74.9792011 23.0098309,75.0111281 C22.8737985,75.0267779 22.7747355,75.1035455 22.6990599,75.2519455 C22.6379595,75.3717588 22.4827512,75.5734692 22.3541429,75.7001953 C22.037772,76.0119364 22.0319687,76.3543903 22.3381504,76.643377 C22.5979985,76.8886326 22.5984807,76.8936982 22.3999014,77.2913214 L22.2438101,77.6038642 L22.1110774,77.4351264 C21.8809894,77.1426136 21.6208857,77.1498459 21.2489388,77.4591007 C20.510494,78.0730965 19.4357645,78.6987339 19.1166284,78.7004069 C18.9858243,78.7010924 18.9856326,78.6943015 19.1110284,78.5014268 L19.1110284,78.5014268 Z" id="path4113" fill="#FFFFFF"></path>
                <path d="M38.593597,124.07187 C34.5956094,115.546567 31.3447455,108.540978 31.3694343,108.503887 C31.3941289,108.466802 32.3202899,108.695536 33.4275737,109.012186 C36.2311696,109.813944 36.2776426,109.804249 36.0630534,108.462276 C35.9235762,107.589948 36.0132692,107.17111 36.4616177,106.601113 C37.2622318,105.583272 37.2265057,104.651436 36.3866509,104.645719 C36.0272111,104.643274 35.5635555,104.533702 35.3563148,104.402236 C34.7311073,104.005641 35.6835721,103.428382 36.5884019,103.655484 C37.1219123,103.78939 37.5271571,103.690972 37.9250243,103.33091 C38.6007131,102.719406 38.7754517,102.852273 39.3589206,104.421284 C40.0518916,106.284771 40.5329746,106.404439 42.1161364,105.107162 C42.858543,104.498806 43.7690658,103.526254 44.1394849,102.945939 C44.509904,102.365619 45.1589289,101.570634 45.5817463,101.17929 C46.2892401,100.524474 46.3362941,100.339215 46.1722733,98.8556388 C45.9593397,96.9295525 46.253514,96.0591359 47.6336758,94.5314745 C48.6318293,93.4266422 48.7075223,93.3965915 49.7965596,93.6730189 C50.6811447,93.8975534 50.9587629,94.1260496 51.0808418,94.7301293 C51.1839538,95.240409 51.0789538,95.6218073 50.7700243,95.8589824 C50.3987339,96.1440364 50.3672194,96.3570687 50.6156468,96.9023252 C50.8097588,97.3283376 50.82707,97.7421451 50.6614227,97.9964164 C50.5148874,98.2213285 50.4621696,98.8628189 50.5442526,99.4219476 C50.6550617,100.176832 50.4820949,100.844197 49.8723687,102.01426 L49.0512484,103.589974 L45.946792,104.399581 C42.460821,105.308704 41.5579082,105.827453 41.0941945,107.187614 C40.6948169,108.359036 40.4113314,108.540804 39.6332277,108.124377 C38.1166385,107.312725 36.5455887,108.935075 37.4748459,110.35327 C37.7224019,110.731078 38.1879455,111.040205 38.5093646,111.040205 C39.4203231,111.040205 40.513543,111.901245 40.9603812,112.970654 C41.5216011,114.313887 42.1779165,114.204031 42.8415513,112.655782 C43.5335638,111.041407 44.3900326,110.168836 45.2826343,110.168836 C45.6624351,110.168836 46.1359082,109.972777 46.3347837,109.733151 C46.8353853,109.12996 47.5985596,109.188667 48.2227505,109.878379 C48.5118999,110.197881 48.8915845,110.460349 49.0665264,110.461639 C49.2414393,110.462928 50.0514061,109.744049 50.8664268,108.864128 C51.6814476,107.984208 52.4973397,107.264271 52.679543,107.264271 C52.8617173,107.264271 53.3601696,107.656387 53.7871986,108.135641 C54.2796094,108.688292 54.844431,109.00701 55.3314393,109.00701 C55.7537339,109.00701 56.3529746,109.198914 56.6630949,109.433458 C57.5425389,110.098667 58.5077546,109.985116 58.8136924,109.180453 C58.9596177,108.796586 59.2178044,108.396767 59.3874019,108.291941 C59.5569704,108.187115 59.6957795,107.654958 59.6957795,107.109359 C59.6957795,106.283034 59.8534393,106.036587 60.6397629,105.633695 C62.1088625,104.880966 62.230738,104.319374 61.1880866,103.107538 C60.7939953,102.649505 60.7903065,102.547346 61.1596219,102.317258 C61.6628376,102.003733 64.0193687,101.615533 64.2173729,101.813537 C64.3585638,101.954762 54.3715098,122.631386 48.9067173,133.511692 L45.8626468,139.572391 L38.593597,124.07187 Z" id="path4115" fill="#FFFFFF"></path>
                <path d="M30.36962,101.584559 C30.1370109,101.351956 30.1573951,100.75401 30.4131885,100.306551 C30.5273379,100.106862 30.6230549,99.990778 30.6258839,100.048579 C30.628713,100.106385 30.9159163,99.8776511 31.2641097,99.5402801 C31.9121238,98.9124121 34.8997354,97.410671 35.1008068,97.6117365 C35.2637993,97.7747291 33.8424159,100.41219 33.3834599,100.798375 C32.8824748,101.219926 31.5143146,101.758833 30.9450839,101.758833 C30.72443,101.758833 30.4654707,101.68041 30.36962,101.584559 L30.36962,101.584559 Z" id="path4117" fill="#FFFFFF"></path>
                <path d="M64.2311983,101.765983 C64.1539369,101.666141 64.0492274,101.46816 63.9984846,101.326028 C63.9046672,101.063177 61.9858539,100.058767 61.5808589,100.06051 C61.4587917,100.061038 61.1628631,100.19337 60.9232365,100.354579 C60.68361,100.515794 60.0707004,100.855227 59.5612282,101.108883 L58.6348755,101.57007 L58.3671444,101.23942 C57.801527,100.540901 56.9294606,98.774932 56.9294606,98.3280299 C56.9294606,98.0742988 57.0255842,97.6808174 57.1430739,97.4536166 C57.7285643,96.3214058 60.629829,94.4752763 62.8524888,93.8206108 C63.4343311,93.6492357 64.4425809,93.2516473 65.0930581,92.937083 L66.2757676,92.3651452 L66.9069295,92.7350415 C67.254083,92.938483 67.7973237,93.150278 68.1141361,93.2056913 L68.6901577,93.306439 L66.6220498,97.6211577 C65.4845934,99.9942506 64.5129295,101.93849 64.4627967,101.941697 C64.4126755,101.944898 64.3084481,101.86583 64.2311983,101.765983 Z" id="path4119" fill="#FFFFFF"></path>
                <path d="M17.678073,59.9697014 C17.5601651,59.8464607 17.1941145,59.5679944 16.8646266,59.350884 C16.5351444,59.1337736 16.2655602,58.9360367 16.2655602,58.9114699 C16.2655602,58.80464 17.0936979,57.2910599 17.3268241,56.9718134 C17.5659743,56.6443122 18.1205718,56.2920931 18.2962224,56.3561562 C18.3310075,56.3688433 18.2820423,56.5687529 18.1874174,56.8003977 L18.0153685,57.2215769 L18.1752183,57.2859421 L18.3350622,57.3503072 L18.1633154,57.3549081 C17.9994282,57.3592998 17.9935494,57.3769595 18.0348407,57.7407329 C18.1824797,59.041362 18.1529228,60.1069479 17.9674954,60.168757 C17.9262216,60.182513 17.7959809,60.0929363 17.678073,59.9697014 L17.678073,59.9697014 Z" id="path4121" fill="#FFFFFF"></path>
                <path d="M12.2815972,72.272473 C11.1742262,71.4658116 10.7718685,70.6579826 11.2128279,70.1266622 C11.4032279,69.8972481 11.6562793,69.7095436 11.7751689,69.7095436 C11.9886138,69.7095436 13.3074196,72.6341203 13.1603092,72.7812307 C13.1185241,72.8230274 12.7230967,72.5940838 12.2815972,72.272473 L12.2815972,72.272473 Z" id="path4123" fill="#FFFFFF"></path>
                <path d="M14.3254448,75.5094979 C13.8217817,75.4158374 13.299088,75.1511502 13.0303344,74.8536706 C12.5883934,74.3644955 12.7285676,74.0586158 13.4765743,73.8799328 C13.7100606,73.8241594 13.9371569,73.777361 13.9812249,73.7759378 C14.025293,73.7745145 14.2320456,74.1372656 14.4406747,74.5820531 C14.8734954,75.5048042 14.8605527,75.6090141 14.3254448,75.5094979 L14.3254448,75.5094979 Z" id="path4125" fill="#FFFFFF"></path>
                <path d="M23.2563135,2.46068603 C23.3504679,1.48623375 23.9048737,1.05366861 25.5983683,0.633354914 C26.6907459,0.362225454 26.6902405,1.2029574 25.5976828,1.76794164 C25.1579957,1.99531093 24.5495592,2.45613749 24.2456081,2.79199807 C23.463926,3.65575159 23.150965,3.55093749 23.2563135,2.46068023 L23.2563135,2.46068603 Z" id="path4139" fill="#FFFFFF"></path>
                <path d="M19.0401394,2.86157095 L18.5892116,2.54149378 L19.3328033,2.39626556 C19.9747701,2.27088714 20.091278,2.19477012 20.1853162,1.83929793 C20.2452199,1.61284066 20.2433784,1.29007967 20.1812207,1.12205643 C20.1190689,0.954027386 20.1375535,0.632829046 20.2223145,0.408277178 C20.3543037,0.0586082988 20.4562772,-6.59472477e-14 20.9327071,-6.59472477e-14 L21.4889892,-6.59472477e-14 L21.3899145,0.907676349 C21.2764622,1.94709212 21.2747892,1.95037427 20.8562357,1.95621826 C20.6644241,1.95889627 20.4113726,2.15667386 20.2006523,2.46859502 C19.7250473,3.17260913 19.5580174,3.22917261 19.0401394,2.86157095 L19.0401394,2.86157095 Z" id="path4141" fill="#FFFFFF"></path>
                <path d="M79.2491598,13.4559422 C78.7119607,13.273158 78.3914594,13.0164003 78.0124777,12.4652069 C77.919642,12.3301854 77.7699582,12.1944028 77.6530553,12.1391638 C77.5428735,12.0871024 77.3050594,11.911504 77.1245872,11.748953 C76.944115,11.5863962 76.5871615,11.3305505 76.3313623,11.180402 C76.0755573,11.0302534 75.6889134,10.7683198 75.4721457,10.5983331 C75.2553839,10.4283464 74.9242403,10.1795588 74.7362627,10.0454783 C74.548291,9.91139781 74.3798146,9.7634335 74.3618702,9.71667001 C74.3396154,9.65867748 74.3909275,9.57511898 74.5232594,9.45384761 C74.6945648,9.2968501 74.7412295,9.27926005 74.9220445,9.30351317 C75.0346719,9.31862271 75.2342503,9.40118786 75.3655482,9.48699449 C75.4968461,9.57280113 75.7775607,9.74063267 75.9893615,9.85994055 C76.2618154,10.0134235 76.532149,10.2356634 76.9135881,10.619763 C77.3524503,11.0616866 77.5470968,11.2151347 77.960149,11.4448045 C78.2392312,11.5999837 78.5842005,11.8309256 78.7267507,11.9580061 C79.1671291,12.3506103 79.5662511,13.081753 79.5229673,13.4165912 L79.5065565,13.5435264 L79.2491598,13.4559422 Z" id="path4143" fill="#FFFFFF"></path>
                <path d="M3.46556605,14.7406639 C2.10006066,12.4739942 2.03545153,12.1991701 2.86808555,12.1991701 C3.27955775,12.1991701 4.20373203,12.7400755 5.10130049,13.5062241 C6.42518929,14.6362797 6.8161785,14.8160432 7.98850132,14.8336971 C9.01319095,14.8491261 9.20253949,14.9150888 8.76354364,15.1037344 C8.44404157,15.2410332 7.71746481,15.3625485 7.1489312,15.3737776 C6.5804092,15.3850008 5.86151792,15.5860954 5.55142082,15.820639 C4.67129717,16.4863419 4.44736688,16.3704033 3.46556605,14.7406639 L3.46556605,14.7406639 Z" id="path2953" fill="#FFFFFF"></path>
                <path d="M54.7231314,30.1904363 C54.6519464,29.9642928 54.5877439,29.4238928 54.6104576,29.2420961 C54.6361804,29.0362148 54.6390385,29.0318811 54.7336285,29.0553152 C54.9808418,29.116555 55.5911489,29.4916214 55.7875904,29.7030272 L55.8733447,29.7953168 L55.7331298,29.8180654 C55.3732775,29.8764529 55.2367804,29.925877 55.0229812,30.0752123 C54.7758783,30.2478015 54.7449273,30.2596928 54.7231314,30.1904363 L54.7231314,30.1904363 Z" id="path2981" fill="#FFFFFF"></path>
                <path d="M18.7627458,0.367176339 C18.9219159,1.27746679 19.3833931,1.84893982 19.9245715,0.766553932 C20.3589201,-0.102160591 19.8135591,0.00410579914 21.4131607,0.00410579914 C22.4313848,0.00410579914 21.8350197,0.441196256 21.8125383,1.23854563 C21.7416089,3.75501368 21.0288869,2.31949667 20.7233267,2.79974895 C20.4759159,3.18864688 20.2221732,3.78733567 19.8156504,3.88896057 C19.091891,4.06990331 18.9063475,3.45245684 18.3270612,3.16281949 C17.1982894,2.59842779 19.4007043,2.4722419 19.7793433,2.36406431 C20.0186794,2.29569086 20.0549865,1.41097219 19.7067292,1.27485269 C18.8554595,0.942158081 18.9185466,-0.414749803 18.6901317,0.802860986" id="path4056-9" fill="#FFFFFF"></path>
                <path d="M22.7406675,2.98865744 C22.7406675,2.9402674 22.7406675,2.9402674 22.7406675,2.98865744 C22.7406675,3.00643338 22.6840285,2.05914458 22.9222028,1.46376118 C23.115124,0.981394374 23.7573231,0.665005993 24.3018709,0.665005993 C25.1881696,0.665005993 25.5611738,-0.339165792 26.4802941,0.120400184 C27.1332402,0.446879022 27.1201115,1.56971388 26.6255223,1.89944583 C25.9523024,2.34824168 25.2498045,2.32969313 24.8464767,3.09757861 C24.2878709,4.16116035 22.2133148,4.30969396 22.7406675,2.87973628" id="path4058-2" fill="#FFFFFF"></path>
                <path d="M73.7833693,9.25846148 C74.2873112,8.49349799 74.8467303,8.60701998 75.5442324,9.14954031 C75.8856929,9.41512787 76.3706971,9.50057434 76.6515685,9.89383492 C77.6309295,11.2649171 78.5478423,10.7454357 79.356473,12.3627146 C79.8259087,13.3016034 79.671444,13.8650714 78.7574357,13.4882333 C77.3319336,12.9005005 77.7678506,12.218288 77.0328216,12.1085652 C75.8713444,10.9350748 76.0190705,11.500576 74.7636598,10.4021337 C74.4974274,10.2246648 73.8924647,9.85808554 73.7833693,9.58522496 C73.766639,9.54339924 73.7833693,9.33763409 73.7833693,9.25846148 Z" id="path3996-6" fill="#FFFFFF"></path>
                <path d="M93.2028216,23.9971618 C93.2028216,24.0964264 93.1453431,24.1768963 93.0744398,24.1768963 C93.0035366,24.1768963 92.9460581,24.0964264 92.9460581,23.9971618 C92.9460581,23.8978972 93.0035366,23.8174274 93.0744398,23.8174274 C93.1453431,23.8174274 93.2028216,23.8978972 93.2028216,23.9971618 Z" id="path3956-8" fill="#FFFFFF"></path>
                <path d="M93.7837344,24.5780747 C93.7837344,24.6773393 93.726256,24.7578091 93.6553527,24.7578091 C93.5844494,24.7578091 93.526971,24.6773393 93.526971,24.5780747 C93.526971,24.4788101 93.5844494,24.3983402 93.6553527,24.3983402 C93.726256,24.3983402 93.7837344,24.4788101 93.7837344,24.5780747 Z" id="path3958-9" fill="#FFFFFF"></path>
                <path d="M94.9455602,23.416249 C94.9455602,23.5155136 94.8880817,23.5959834 94.8171784,23.5959834 C94.7462751,23.5959834 94.6887967,23.5155136 94.6887967,23.416249 C94.6887967,23.3169844 94.7462751,23.2365145 94.8171784,23.2365145 C94.8880817,23.2365145 94.9455602,23.3169844 94.9455602,23.416249 Z" id="path3960-7" fill="#FFFFFF"></path>
                <path d="M95.526473,23.416249 C95.526473,23.5155136 95.4689946,23.5959834 95.3980913,23.5959834 C95.327188,23.5959834 95.2697095,23.5155136 95.2697095,23.416249 C95.2697095,23.3169844 95.327188,23.2365145 95.3980913,23.2365145 C95.4689946,23.2365145 95.526473,23.3169844 95.526473,23.416249 Z" id="path3962-8" fill="#FFFFFF"></path>
                <path d="M96.1073859,23.416249 C96.1073859,23.5155136 96.0499074,23.5959834 95.9790041,23.5959834 C95.9081009,23.5959834 95.8506224,23.5155136 95.8506224,23.416249 C95.8506224,23.3169844 95.9081009,23.2365145 95.9790041,23.2365145 C96.0499074,23.2365145 96.1073859,23.3169844 96.1073859,23.416249 Z" id="path3964-2" fill="#FFFFFF"></path>
                <path d="M96.1073859,25.1589876 C96.1073859,25.2582521 96.0499074,25.338722 95.9790041,25.338722 C95.9081009,25.338722 95.8506224,25.2582521 95.8506224,25.1589876 C95.8506224,25.059723 95.9081009,24.9792531 95.9790041,24.9792531 C96.0499074,24.9792531 96.1073859,25.059723 96.1073859,25.1589876 Z" id="path3966-7" fill="#FFFFFF"></path>
                <path d="M96.1073859,25.7399004 C96.1073859,25.839165 96.0499074,25.9196349 95.9790041,25.9196349 C95.9081009,25.9196349 95.8506224,25.839165 95.8506224,25.7399004 C95.8506224,25.6406358 95.9081009,25.560166 95.9790041,25.560166 C96.0499074,25.560166 96.1073859,25.6406358 96.1073859,25.7399004 Z" id="path3968-9" fill="#FFFFFF"></path>
                <path d="M95.526473,26.9017261 C95.526473,27.0009907 95.4689946,27.0814606 95.3980913,27.0814606 C95.327188,27.0814606 95.2697095,27.0009907 95.2697095,26.9017261 C95.2697095,26.8024616 95.327188,26.7219917 95.3980913,26.7219917 C95.4689946,26.7219917 95.526473,26.8024616 95.526473,26.9017261 Z" id="path3970-6" fill="#FFFFFF"></path>
                <path d="M96.6882988,26.3208133 C96.6882988,26.4200779 96.6308203,26.5005477 96.559917,26.5005477 C96.4890137,26.5005477 96.4315353,26.4200779 96.4315353,26.3208133 C96.4315353,26.2215487 96.4890137,26.1410788 96.559917,26.1410788 C96.6308203,26.1410788 96.6882988,26.2215487 96.6882988,26.3208133 Z" id="path3972-6" fill="#FFFFFF"></path>
                <path d="M96.1073859,26.3208133 C96.1073859,26.4200779 96.0499074,26.5005477 95.9790041,26.5005477 C95.9081009,26.5005477 95.8506224,26.4200779 95.8506224,26.3208133 C95.8506224,26.2215487 95.9081009,26.1410788 95.9790041,26.1410788 C96.0499074,26.1410788 96.1073859,26.2215487 96.1073859,26.3208133 Z" id="path3974-0" fill="#FFFFFF"></path>
                <path d="M95.526473,28.6444647 C95.526473,28.7437293 95.4689946,28.8241992 95.3980913,28.8241992 C95.327188,28.8241992 95.2697095,28.7437293 95.2697095,28.6444647 C95.2697095,28.5452001 95.327188,28.4647303 95.3980913,28.4647303 C95.4689946,28.4647303 95.526473,28.5452001 95.526473,28.6444647 Z" id="path3976-3" fill="#FFFFFF"></path>
                <path d="M95.526473,29.2253776 C95.526473,29.3246422 95.4689946,29.405112 95.3980913,29.405112 C95.327188,29.405112 95.2697095,29.3246422 95.2697095,29.2253776 C95.2697095,29.126113 95.327188,29.0456432 95.3980913,29.0456432 C95.4689946,29.0456432 95.526473,29.126113 95.526473,29.2253776 Z" id="path3978-9" fill="#FFFFFF"></path>
                <path d="M94.9455602,28.6444647 C94.9455602,28.7437293 94.8880817,28.8241992 94.8171784,28.8241992 C94.7462751,28.8241992 94.6887967,28.7437293 94.6887967,28.6444647 C94.6887967,28.5452001 94.7462751,28.4647303 94.8171784,28.4647303 C94.8880817,28.4647303 94.9455602,28.5452001 94.9455602,28.6444647 Z" id="path3980-1" fill="#FFFFFF"></path>
                <path d="M96.1073859,28.6444647 C96.1073859,28.7437293 96.0499074,28.8241992 95.9790041,28.8241992 C95.9081009,28.8241992 95.8506224,28.7437293 95.8506224,28.6444647 C95.8506224,28.5452001 95.9081009,28.4647303 95.9790041,28.4647303 C96.0499074,28.4647303 96.1073859,28.5452001 96.1073859,28.6444647 Z" id="path3982-8" fill="#FFFFFF"></path>
                <path d="M94.9455602,31.549029 C94.9455602,31.6482936 94.8880817,31.7287635 94.8171784,31.7287635 C94.7462751,31.7287635 94.6887967,31.6482936 94.6887967,31.549029 C94.6887967,31.4497645 94.7462751,31.3692946 94.8171784,31.3692946 C94.8880817,31.3692946 94.9455602,31.4497645 94.9455602,31.549029 Z" id="path3984-0" fill="#FFFFFF"></path>
                <path d="M93.7837344,33.2917676 C93.7837344,33.3910322 93.726256,33.4715021 93.6553527,33.4715021 C93.5844494,33.4715021 93.526971,33.3910322 93.526971,33.2917676 C93.526971,33.192503 93.5844494,33.1120332 93.6553527,33.1120332 C93.726256,33.1120332 93.7837344,33.192503 93.7837344,33.2917676 Z" id="path3986-9" fill="#FFFFFF"></path>
                <path d="M94.3646473,33.2917676 C94.3646473,33.3910322 94.3071688,33.4715021 94.2362656,33.4715021 C94.1653623,33.4715021 94.1078838,33.3910322 94.1078838,33.2917676 C94.1078838,33.192503 94.1653623,33.1120332 94.2362656,33.1120332 C94.3071688,33.1120332 94.3646473,33.192503 94.3646473,33.2917676 Z" id="path3988-5" fill="#FFFFFF"></path>
                <path d="M92.6219087,33.8726805 C92.6219087,33.9719451 92.5644302,34.0524149 92.493527,34.0524149 C92.4226237,34.0524149 92.3651452,33.9719451 92.3651452,33.8726805 C92.3651452,33.7734159 92.4226237,33.6929461 92.493527,33.6929461 C92.5644302,33.6929461 92.6219087,33.7734159 92.6219087,33.8726805 Z" id="path3990-3" fill="#FFFFFF"></path>
                <path d="M91.460083,34.4535934 C91.460083,34.552858 91.4026045,34.6333278 91.3317012,34.6333278 C91.260798,34.6333278 91.2033195,34.552858 91.2033195,34.4535934 C91.2033195,34.3543288 91.260798,34.2738589 91.3317012,34.2738589 C91.4026045,34.2738589 91.460083,34.3543288 91.460083,34.4535934 Z" id="path3992-4" fill="#FFFFFF"></path>
                <path d="M92.0409959,33.2917676 C92.0409959,33.3910322 91.9835174,33.4715021 91.9126141,33.4715021 C91.8417108,33.4715021 91.7842324,33.3910322 91.7842324,33.2917676 C91.7842324,33.192503 91.8417108,33.1120332 91.9126141,33.1120332 C91.9835174,33.1120332 92.0409959,33.192503 92.0409959,33.2917676 Z" id="path3994-5" fill="#FFFFFF"></path>
                <path d="M16.795823,64.4838508 C16.6578852,64.4985072 16.5360736,64.5676649 16.450906,64.7380002 C16.1682919,65.3031645 14.9241798,65.6201396 15.1256985,66.4262782 C15.5393666,67.6265371 18.2663923,69.8973836 16.142296,70.4200541 C15.1446479,71.6617437 17.0638969,71.3733495 17.9939558,71.1098881 C19.6688437,70.635445 18.4563915,72.8220533 17.5401176,73.1612367 C16.7179749,73.4655944 16.1898321,74.2924076 15.2527732,74.9584359 L16.3056778,77.2276267 C16.9583915,76.7458002 17.7088147,75.5650657 17.8850346,75.2125852 C18.2689599,74.4447462 20.2610554,75.2332948 20.1542255,76.3017969 C17.23235,79.1855064 18.524184,79.3249255 20.1542255,78.2805313 C20.608906,77.9892093 21.0415989,77.7205778 21.4431259,77.3183944 C21.7033749,77.2533379 21.8184247,77.9584558 22.0058852,77.8630002 C22.317545,77.704289 22.8984579,76.546274 22.6231052,76.3925645 C22.2988396,76.2115114 21.8602794,75.9302508 22.6412587,75.5211952 C22.740072,75.4694475 22.691711,75.2659363 22.8046404,75.1218176 C22.8376944,75.0796666 22.9620097,75.2400624 23.1314039,75.067357 C23.2787815,74.9170168 23.6934952,74.5470624 22.7683334,74.1778342 C22.3154537,73.997118 23.002935,74.0073247 23.0769433,73.5787678 C23.3729765,71.8639653 21.6933251,69.3918035 21.0800554,69.004079 C20.1062711,68.3884217 19.4694745,67.2443255 18.4659475,65.8272118 C18.3577176,65.574689 17.3935649,64.4203396 16.795823,64.4838508 Z M16.142296,70.4200541 C16.1899483,70.3607429 16.2442579,70.3050043 16.3056778,70.2385188 L16.0515284,70.4382076 L16.0878354,70.4382076 C16.1090213,70.4335371 16.1220106,70.4250442 16.142296,70.4200541 Z" id="path3854-6" fill="#FFFFFF"></path>
                <path d="M18.0860267,57.0944182 C18.5550558,56.0593361 18.7756865,55.3303601 17.2644998,56.0674979 C16.7227985,56.3317493 15.9052799,58.1450456 15.7241512,58.532102 C15.4609396,59.0945593 16.5796035,59.3450373 17.1104998,59.9184448 C18.7435039,61.682195 18.0679023,57.612941 18.0860267,57.1457651" id="path3858-9" fill="#FFFFFF"></path>
                <path d="M33.4270456,38.6701588 C33.5162157,38.6294949 33.9387136,38.4512593 33.7606638,38.35847 C32.2178755,37.554231 33.8955518,37.1407082 34.0175435,37.1811281 C34.2242323,37.2496003 34.5135269,37.7440443 35.0701576,37.5918916 C36.0233195,37.3313406 35.3954107,38.5706252 36.1227136,38.9012169 C37.0950456,39.3431696 35.3588713,39.5975514 35.0957759,39.4660211 C34.8963485,39.3663016 35.2178838,40.2493066 35.2241576,40.2618833 C35.3127468,40.4390966 33.60678,39.9965165 33.60678,39.517368 C33.60678,38.9797389 33.1729543,39.2297464 33.4783983,38.618812" id="path3944-7" fill="#FFFFFF"></path>
                <path d="M54.1147635,28.5628732 C54.2859004,28.2151736 55.4326224,28.8758226 55.7321411,29.2303712 C55.9776929,29.521089 56.9076183,29.5635653 56.5921826,29.7438284 C56.3174108,29.9008143 55.3070871,29.7836209 55.0389959,30.013401 C53.9953859,30.8370193 54.2561577,30.1137421 54.0248963,29.3459031 C54.0248963,29.0242923 54.0524315,28.565923 54.1917344,28.4730234" id="path3946-4" fill="#FFFFFF"></path>
                <path d="M38.593597,124.07187 C34.5956094,115.546567 31.3447455,108.540978 31.3694343,108.503887 C31.3941231,108.466825 32.3202899,108.695536 33.4275737,109.012186 C36.2311696,109.813944 36.2776426,109.804249 36.0630534,108.462276 C35.9235762,107.589948 36.0132692,107.17111 36.4616177,106.601113 C37.2622318,105.583272 37.2265057,104.651436 36.3866509,104.645719 C36.0272111,104.643396 35.5635555,104.533702 35.3563148,104.402236 C34.7311073,104.005641 35.6835721,103.428382 36.5884019,103.655484 C37.1219123,103.78939 37.5271571,103.690977 37.9250243,103.33091 C38.6007131,102.719406 38.7754517,102.852273 39.3589206,104.421284 C40.0518916,106.284771 40.5329746,106.404439 42.1161364,105.107162 C42.858543,104.498806 43.7690658,103.526254 44.1394849,102.945939 C44.509904,102.365619 45.1589289,101.570634 45.5817463,101.17929 C46.2892401,100.524474 46.3362941,100.339215 46.1722733,98.8556388 C45.9593397,96.9295525 46.253514,96.0591359 47.6336758,94.5314745 C48.6318293,93.4266422 48.7075223,93.3965915 49.7965596,93.6730189 C50.6811447,93.8975534 50.9587629,94.1260496 51.0808418,94.7301293 C51.1839538,95.240409 51.079099,95.6218073 50.7700243,95.8589824 C50.3987339,96.1440364 50.3672194,96.3570687 50.6156468,96.9023252 C50.8097588,97.3283376 50.82707,97.7421451 50.6614227,97.9964164 C50.5148874,98.2213285 50.4621696,98.8628189 50.5442526,99.4219476 C50.6550617,100.176832 50.4820949,100.844197 49.8723687,102.01426 L49.0512484,103.589974 L45.946792,104.399581 C42.460821,105.308704 41.5579082,105.827453 41.0941945,107.187614 C40.6948169,108.359036 40.4113314,108.540804 39.6332277,108.124377 C38.1166385,107.312725 36.5455887,108.935075 37.4748459,110.35327 C37.7224019,110.731078 38.1879455,111.040205 38.5093646,111.040205 C39.4203231,111.040205 40.513543,111.901245 40.9603812,112.970654 C41.5216011,114.313887 42.1779165,114.204031 42.8415513,112.655782 C43.5335638,111.041407 44.3900326,110.168836 45.2826343,110.168836 C45.6624351,110.168836 46.1359082,109.972777 46.3347837,109.733151 C46.8353853,109.12996 47.5985596,109.188667 48.2227505,109.878379 C48.5118999,110.197881 48.8915845,110.460349 49.0665264,110.461639 C49.2414393,110.462801 50.0514061,109.744049 50.8664268,108.864128 C51.6814476,107.984208 52.4973397,107.264271 52.679543,107.264271 C52.8617173,107.264271 53.3601696,107.656387 53.7871986,108.135641 C54.2796094,108.688292 54.844431,109.00701 55.3314393,109.00701 C55.7537339,109.00701 56.3529746,109.198914 56.6630949,109.433458 C57.5425389,110.098667 58.5077546,109.985116 58.8136924,109.180453 C58.9596177,108.796586 59.2178044,108.396767 59.3874019,108.291941 C59.5569704,108.187115 59.6957795,107.654958 59.6957795,107.109359 C59.6957795,106.283034 59.8534393,106.036587 60.6397629,105.633695 C62.1088625,104.880966 62.230738,104.319374 61.1880866,103.107538 C60.7939953,102.649505 60.7903065,102.547346 61.1596219,102.317258 C61.6628376,102.003733 64.0193687,101.615533 64.2173729,101.813537 C64.3585638,101.954762 54.3715098,122.631386 48.9067173,133.511692 L45.8626468,139.572391 L38.593597,124.07187 L38.593597,124.07187 Z" id="path4115-3" fill="#FFFFFF"></path>
                <path d="M30.36962,101.584559 C30.1370109,101.351956 30.1573951,100.75401 30.4131885,100.306551 C30.5273379,100.106862 30.6230549,99.990778 30.6258839,100.048579 C30.6287885,100.10638 30.9159163,99.8776511 31.2641097,99.5402801 C31.9121238,98.9124121 34.8997354,97.410671 35.1008068,97.6117365 C35.2637993,97.7747291 33.8424159,100.41219 33.3834599,100.798375 C32.8824748,101.219926 31.5143146,101.758833 30.9450839,101.758833 C30.72443,101.758833 30.4654707,101.68041 30.36962,101.584559 L30.36962,101.584559 L30.36962,101.584559 Z" id="path4117-6" fill="#FFFFFF"></path>
                <path d="M64.2311983,101.765983 C64.1539369,101.666141 64.0492274,101.46816 63.9984846,101.326028 C63.9046672,101.063177 61.9858539,100.058767 61.5808589,100.06051 C61.4587917,100.061038 61.1628631,100.19337 60.9232365,100.354579 C60.68361,100.515794 60.0707004,100.855227 59.5612282,101.108883 L58.6348755,101.57007 L58.3671444,101.23942 C57.801527,100.540901 56.9294606,98.774932 56.9294606,98.3280299 C56.9294606,98.0742988 57.0255842,97.6808174 57.1430739,97.4536166 C57.7285643,96.3214058 60.629829,94.4752763 62.8524888,93.8206108 C63.4343311,93.6492357 64.4425809,93.2516473 65.0930581,92.937083 L66.2757676,92.3651452 L66.9069295,92.7350415 C67.254083,92.938483 67.7973237,93.150278 68.1141361,93.2056913 L68.6901577,93.306439 L66.6220498,97.6211577 C65.4845934,99.9942506 64.5129295,101.93849 64.4627967,101.941697 C64.4126639,101.945183 64.3084481,101.86583 64.2311983,101.765983 L64.2311983,101.765983 Z" id="path4119-0" fill="#FFFFFF"></path>
                <path d="M3.46556605,14.7406639 C2.10006066,12.4739942 2.03545153,12.1991701 2.86808555,12.1991701 C3.27955775,12.1991701 4.20373203,12.7400755 5.10130049,13.5062241 C6.42518929,14.6362797 6.8161785,14.8160432 7.98850132,14.8336971 C9.01319095,14.8491494 9.20253949,14.9150888 8.76354364,15.1037344 C8.44404157,15.2410332 7.71746481,15.3625485 7.1489312,15.3737776 C6.5804092,15.3849892 5.86151792,15.5860954 5.55142082,15.820639 C4.67129717,16.4863419 4.44736688,16.3704033 3.46556605,14.7406639 L3.46556605,14.7406639 L3.46556605,14.7406639 Z" id="path2953-9" fill="#FFFFFF"></path>
                <path d="M22.3314523,40.2626988 C22.3314523,40.3619477 22.2739419,40.44241 22.2030705,40.44241 C22.1321992,40.44241 22.0746888,40.3619477 22.0746888,40.2626988 C22.0746888,40.163444 22.1321992,40.0829876 22.2030705,40.0829876 C22.274,40.0829876 22.3314523,40.163444 22.3314523,40.2626988 Z" id="path3900-8" fill="#FFFFFF"></path>
                <path d="M22.9123651,39.6817859 C22.9123651,39.7810349 22.8548548,39.8614971 22.7839834,39.8614971 C22.713112,39.8614971 22.6556017,39.7810349 22.6556017,39.6817859 C22.6556017,39.5825311 22.713112,39.5020747 22.7839834,39.5020747 C22.8549129,39.5020747 22.9123651,39.5825311 22.9123651,39.6817859 Z" id="path3902-1" fill="#FFFFFF"></path>
                <path d="M23.493278,40.2626988 C23.493278,40.3619477 23.4357676,40.44241 23.3648963,40.44241 C23.2940249,40.44241 23.2365145,40.3619477 23.2365145,40.2626988 C23.2365145,40.163444 23.2940249,40.0829876 23.3648963,40.0829876 C23.4358257,40.0829876 23.493278,40.163444 23.493278,40.2626988 Z" id="path3904-7" fill="#FFFFFF"></path>
                <path d="M22.9123651,40.2626988 C22.9123651,40.3619477 22.8548548,40.44241 22.7839834,40.44241 C22.713112,40.44241 22.6556017,40.3619477 22.6556017,40.2626988 C22.6556017,40.163444 22.713112,40.0829876 22.7839834,40.0829876 C22.8549129,40.0829876 22.9123651,40.163444 22.9123651,40.2626988 Z" id="path3906-7" fill="#FFFFFF"></path>
                <path d="M29.6089701,34.8561697 C29.3437253,35.4196668 28.5155178,34.9890535 28.3595427,35.2980817 C28.0825634,35.846783 27.4283975,36.3069124 27.2884556,37.2586626 C26.666995,37.9051257 26.5762564,37.4902145 26.1085053,36.8774386 C25.8595842,36.6907506 25.5518746,36.6438187 25.2915676,36.7140568 C25.0312605,36.784295 24.8288124,36.958807 24.6380406,37.1497415 C24.0089701,37.6858543 23.6749452,38.3320734 23.8755925,38.9650942 C24.0427211,39.4922842 24.8905634,39.6792046 24.8377004,39.2373971 C25.510107,38.5419863 25.7692522,38.7649 25.890663,38.8924801 C27.0126381,40.3978751 27.181858,39.2013456 27.7604473,38.0937249 C27.9203726,37.869783 28.1530282,37.696061 28.5228954,37.6035797 C28.9028124,37.5086062 28.7443975,37.0076037 28.9237253,36.7969299 C29.2214431,36.3955423 29.7529203,36.2408336 29.9438082,36.7010153 C29.995219,36.8249182 30.2927626,36.8616726 30.2914846,36.733256 C30.2897419,36.5325622 30.6158082,35.634378 31.4274597,35.9516377 C32.3301983,34.8434768 31.6784141,35.0642992 31.1006962,34.9350402 C29.8517917,36.1382502 30.1520655,34.8053456 29.6089701,34.8561987 L29.6089701,34.8561697 Z" id="path3908-8" fill="#FFFFFF"></path>
                <path d="M34.5306224,33.2917444 C34.5306224,33.3909934 34.473112,33.4714556 34.4022407,33.4714556 C34.3313693,33.4714556 34.2738589,33.3909934 34.2738589,33.2917444 C34.2738589,33.1924896 34.3313693,33.1120332 34.4022407,33.1120332 C34.4731701,33.1120332 34.5306224,33.1924896 34.5306224,33.2917444 Z" id="path3926-8" fill="#FFFFFF"></path>
                <path d="M34.5306224,32.7108315 C34.5306224,32.8100805 34.473112,32.8905427 34.4022407,32.8905427 C34.3313693,32.8905427 34.2738589,32.8100805 34.2738589,32.7108315 C34.2738589,32.6115768 34.3313693,32.5311203 34.4022407,32.5311203 C34.4731701,32.5311203 34.5306224,32.6115768 34.5306224,32.7108315 Z" id="path3928-1" fill="#FFFFFF"></path>
                <path d="M35.1115353,32.7108315 C35.1115353,32.8100805 35.0540249,32.8905427 34.9831535,32.8905427 C34.9122822,32.8905427 34.8547718,32.8100805 34.8547718,32.7108315 C34.8547718,32.6115768 34.9122822,32.5311203 34.9831535,32.5311203 C35.054083,32.5311203 35.1115353,32.6115768 35.1115353,32.7108315 Z" id="path3930-3" fill="#FFFFFF"></path>
                <path d="M35.6924481,32.7108315 C35.6924481,32.8100805 35.6349378,32.8905427 35.5640664,32.8905427 C35.493195,32.8905427 35.4356846,32.8100805 35.4356846,32.7108315 C35.4356846,32.6115768 35.493195,32.5311203 35.5640664,32.5311203 C35.6349959,32.5311203 35.6924481,32.6115768 35.6924481,32.7108315 Z" id="path3932-3" fill="#FFFFFF"></path>
                <path d="M31.6260581,30.9680929 C31.6260581,31.0673419 31.5685477,31.1478041 31.4976763,31.1478041 C31.426805,31.1478041 31.3692946,31.0673419 31.3692946,30.9680929 C31.3692946,30.8688382 31.426805,30.7883817 31.4976763,30.7883817 C31.5686058,30.7883817 31.6260581,30.8688382 31.6260581,30.9680929 Z" id="path3934-3" fill="#FFFFFF"></path>
                <path d="M31.0451452,30.9680929 C31.0451452,31.0673419 30.9876349,31.1478041 30.9167635,31.1478041 C30.8458921,31.1478041 30.7883817,31.0673419 30.7883817,30.9680929 C30.7883817,30.8688382 30.8458921,30.7883817 30.9167635,30.7883817 C30.9876929,30.7883817 31.0451452,30.8688382 31.0451452,30.9680929 Z" id="path3936-3" fill="#FFFFFF"></path>
                <path d="M31.0451452,30.3871801 C31.0451452,30.486429 30.9876349,30.5668913 30.9167635,30.5668913 C30.8458921,30.5668913 30.7883817,30.486429 30.7883817,30.3871801 C30.7883817,30.2879253 30.8458921,30.2074689 30.9167635,30.2074689 C30.9876929,30.2074689 31.0451452,30.2879253 31.0451452,30.3871801 Z" id="path3938-9" fill="#FFFFFF"></path>
                <path d="M31.6260581,30.3871801 C31.6260581,30.486429 31.5685477,30.5668913 31.4976763,30.5668913 C31.426805,30.5668913 31.3692946,30.486429 31.3692946,30.3871801 C31.3692946,30.2879253 31.426805,30.2074689 31.4976763,30.2074689 C31.5686058,30.2074689 31.6260581,30.2879253 31.6260581,30.3871801 Z" id="path3940-1" fill="#FFFFFF"></path>
                <path d="M35.667077,30.6241413 C35.0541558,31.0128708 34.8945791,31.0215612 34.2874089,30.6604484 C33.4090106,30.9366899 33.596355,31.0073463 34.25116,31.2958218 C34.4392015,32.0125289 34.5990106,31.9521197 35.2721724,31.7478359 C35.9200064,31.7824583 35.6025376,31.6271164 35.7760562,31.1869007 C35.8597077,30.974699 36.0628529,31.1617471 36.1391268,31.2050251 C36.2153425,31.2483612 36.4102969,31.3684069 36.7200396,31.3684069 C37.223633,31.3684069 37.7366952,31.4612368 38.2085708,31.3502824 C39.7963799,30.9768368 37.7039317,30.3690392 36.8146703,30.2089687 C36.6593923,30.1810268 36.028521,30.5518699 35.667077,30.6241413 Z" id="path3942-1" fill="#FFFFFF"></path>
            </g>
        </g>
    </g>
</svg>