<?xml version="1.0" encoding="UTF-8"?>
<svg width="150px" height="150px" viewBox="0 0 150 150" version="1.1" xmlns="http://www.w3.org/2000/svg" xmlns:xlink="http://www.w3.org/1999/xlink">
    <!-- Generator: Sketch 41.1 (35376) - http://www.bohemiancoding.com/sketch -->
    <title>icono_voz</title>
    <desc>Created with Sketch.</desc>
    <defs></defs>
    <g id="Provincias" stroke="none" stroke-width="1" fill="none" fill-rule="evenodd">
        <g id="icono_voz" fill="#FFFFFF">
            <g id="Group" transform="translate(20.000000, 25.000000)">
                <path d="M75.4169935,0.571895425 C73.9712418,-0.22875817 72.1869281,-0.187581699 70.7732026,0.695424837 L35.2882353,22.875817 L18.3006536,22.875817 C8.20784314,22.875817 0,31.0836601 0,41.1764706 C0,51.269281 8.20784314,59.4771242 18.3006536,59.4771242 L35.2882353,59.4771242 L70.7777778,81.6575163 C71.5189542,82.1196078 72.3562092,82.3529412 73.2026144,82.3529412 C73.9666667,82.3529412 74.730719,82.1607843 75.4169935,81.7810458 C76.8764706,80.9712418 77.7777778,79.4385621 77.7777778,77.7777778 L77.7777778,4.5751634 C77.7777778,2.91437908 76.8764706,1.38169935 75.4169935,0.571895425 Z" id="Shape"></path>
                <rect id="Rectangle-path" x="91.503268" y="36.6013072" width="18.3006536" height="9.1503268"></rect>
                <rect id="Rectangle-path" transform="translate(94.527264, 18.302557) rotate(-29.992901) translate(-94.527264, -18.302557) " x="85.3745155" y="13.7273269" width="18.3054962" height="9.15046048"></rect>
                <rect id="Rectangle-path" transform="translate(94.525470, 64.050110) rotate(-60.007099) translate(-94.525470, -64.050110) " x="89.9502399" y="54.8973615" width="9.15046048" height="18.3054962"></rect>
                <path d="M35.2379085,68.627451 L19.1699346,68.627451 L31.6830065,96.2934641 C33.3392157,100.003922 37.6856209,101.664706 41.3960784,100.013072 C45.1065359,98.3568627 46.7673203,94.0104575 45.1156863,90.3 L35.2379085,68.627451 Z" id="Shape"></path>
            </g>
        </g>
    </g>
</svg>