<?xml version="1.0" encoding="UTF-8"?>
<svg width="150px" height="150px" viewBox="0 0 150 150" version="1.1" xmlns="http://www.w3.org/2000/svg" xmlns:xlink="http://www.w3.org/1999/xlink">
    <!-- Generator: Sketch 41.1 (35376) - http://www.bohemiancoding.com/sketch -->
    <title>icon_neuquen</title>
    <desc>Created with Sketch.</desc>
    <defs></defs>
    <g id="Provincias" stroke="none" stroke-width="1" fill="none" fill-rule="evenodd">
        <g id="icon_neuquen" fill="#FFFFFF">
            <path d="M42.2643329,145 L55.0895514,143.977599 C56.0188159,143.428682 56.9480871,142.953424 57.8765386,141.082223 L56.68153,139.123335 L56.3624785,136.227966 C57.7748353,131.580649 58.2899093,131.579775 60.4248452,130.011958 C64.0968129,128.91239 68.1288373,128.198626 71.0191604,126.265175 L72.6119655,123.624982 L74.4442506,120.814653 L73.8857056,118.770718 L75.0807142,117.494021 L75.8771133,116.812709 L75.0019759,111.021971 L75.6384395,110.086364 C77.3788712,110.297692 78.0842299,109.124466 78.9692037,108.01349 C79.8328585,106.927945 81.4355067,106.61316 83.206274,105.913432 L85.1976817,104.039597 L87.507328,101.229282 L93.8801606,96.3759118 L98.2607524,88.711346 L99.7748057,85.0495976 L100.969821,84.5384004 L102.642177,84.4533464 L104.633585,83.4309317 L106.545442,82.4093972 L109.015017,81.5571039 L110.129641,81.2168813 L109.174119,79.3430535 L108.776336,76.8738278 L107.50095,74.4046088 L106.704544,71.0831032 L105.19131,40.1705379 L102.642177,38.723747 L100.332538,37.871447 L97.6242955,38.2125296 L96.1102355,37.1910018 L94.676553,36.5096899 L92.5260227,36.6797911 L90.0564543,36.9349665 L88.8622721,35.8274911 L86.5526259,32.9321288 L85.1181305,32.3358776 L77.1524995,32.080709 C77.1524995,32.080709 74.6837509,30.0367598 74.2055768,29.6956705 C73.7274161,29.3545677 73.5691132,27.3115122 73.5691132,27.3115122 L73.0909458,25.8638142 L71.4981475,23.9899931 L67.7548323,19.902975 L65.523931,18.2001285 C65.523931,18.2001285 64.8070898,17.7739853 63.3734074,16.6665166 C61.939725,15.5599214 61.4615576,14.2823583 60.8251008,13.7711543 C60.1878108,13.2599436 59.5497078,13.8570817 59.6300855,12.4944512 C59.7096434,11.1309539 58.9928089,9.34304681 58.9928089,9.34304681 L57.6395041,5 L56.6831694,5.25603535 C56.6831694,5.25603535 55.5980611,5.74970312 55.0108131,6.36262382 C54.0429959,7.37275643 52.9259058,11.853486 53.4180148,11.6421512 C53.4180148,11.6421512 54.8516972,12.2384091 52.9398474,13.0047817 C51.02882,13.7711543 50.6302106,13.8570817 50.6302106,13.8570817 L48.7987385,13.6019131 L48.7191805,14.7085016 L47.0460059,17.0076127 L46.6482155,18.2001285 L47.2855001,19.9880356 L46.4882806,21.0955043 L45.2932734,21.6917622 L44.815106,23.9058059 L44.9742212,27.6517146 L45.4523886,30.0367598 L46.1692291,33.1881642 L45.4523886,35.2312332 L44.8946633,37.871447 L44.6559894,39.8303288 L45.850177,40.8518633 L46.8065124,43.9173335 L46.6473965,45.4500787 L45.6910617,48.0902657 L46.4882806,51.3258573 L47.4437956,54.3913477 L48.7191805,56.8605533 L50.3915368,58.8194485 L50.9492614,62.1400873 L50.9492614,65.5466536 L51.108378,67.9316921 L52.7807316,69.8046465 L55.1707487,72.3597929 L55.0116328,76.8729543 L54.9312552,78.0645968 L50.3119788,80.2786539 C48.4977318,82.4330745 45.4417251,83.7588722 45.1341575,86.9208051 L45.5327662,88.6236582 L46.4087226,89.3040832 L47.2846797,91.9442903 L46.8065124,94.7545987 C45.9043094,96.2531516 44.5083554,97.6473473 44.5756111,99.3528141 L44.5756111,103.099603 C44.7281667,105.509199 42.7679264,104.155343 41.7878062,104.546414 L40.5132397,105.398707 L40.1154506,106.846399 C38.8146389,110.290671 41.3629509,111.090369 42.8236989,112.63713 L42.9040766,113.828772 L42.3463512,115.872721 L41.2309013,117.235345 L39.7972195,118.001704 L39.3198725,119.704564 L39.7176616,121.663453 L41.1513433,122.855095 L42.5850244,124.472881 L41.5491324,126.771985 C40.6772771,128.106565 38.7933146,129.441137 40.2745665,130.774823 L39.5577253,133.584258 L39,135.969296 L40.0358927,139.375869 L41.5491324,141.930142 L42.2643329,145 L42.2643329,145 Z" id="Neuqu__nan_ss"></path>
        </g>
    </g>
</svg>