<?xml version="1.0" encoding="UTF-8"?>
<svg width="150px" height="150px" viewBox="0 0 150 150" version="1.1" xmlns="http://www.w3.org/2000/svg" xmlns:xlink="http://www.w3.org/1999/xlink">
    <!-- Generator: Sketch 41.1 (35376) - http://www.bohemiancoding.com/sketch -->
    <title>icon_formosa</title>
    <desc>Created with Sketch.</desc>
    <defs></defs>
    <g id="Provincias" stroke="none" stroke-width="1" fill="none" fill-rule="evenodd">
        <g id="icon_formosa" fill="#FFFFFF">
            <path d="M9,5 C11.6255049,8.35584999 13.2083461,11.9898036 16.8785244,15.0664073 C17.4552509,16.2308573 18.0320097,16.1399065 18.6077475,18.7638474 C22.0642568,21.4427897 25.6622288,23.6659087 28.8882128,27.0841267 C30.1178753,29.0671496 31.0072202,31.9935789 34.1728621,32.4250905 C38.2288781,32.7889178 36.7222303,33.8560554 38.0161653,34.6852202 C40.0293431,35.3472894 42.2987032,35.771394 42.3392716,38.280056 C44.1802969,41.4719466 46.0797031,44.6257811 51.1783747,45.6749198 L55.7903304,51.3247093 C60.7337057,52.7630731 63.524426,59.5889498 65.6859711,55.638731 C70.1841715,53.8767436 71.1269377,55.9158297 72.4110021,57.590035 L75.1018249,57.590035 L78.1754707,58.8232309 C91.6799508,61.345629 92.231952,66.8346764 100.946408,72.0730683 L103.443319,72.7922219 L108.247201,75.8741337 C113.656514,75.4796329 116.231579,78.4240448 121.216488,82.2420556 L123.714387,82.3446274 L131.688855,86.1457171 L137.356367,92.0006664 L139.277525,93.9519866 L139.277525,95.4929384 L141.391589,97.9571745 L141.968339,99.3955302 C134.668527,110.749049 136.437354,101.856614 134.089815,111.104432 C130.400836,119.358064 125.761189,122.075087 123.041678,128.257915 L122.560894,131.647591 C122.856689,138.166749 121.637918,135.54596 119.775117,141.507736 L117.66205,145 L114.010665,140.993767 C111.351512,140.055652 109.490705,136.985378 107.285634,134.832074 L104.019073,131.133581 C102.486695,129.524961 99.5693426,127.916317 96.5253654,126.306611 C92.0034284,125.583211 90.652093,125.499667 88.071087,122.506591 C87.3182696,120.433663 85.7156628,119.271344 83.1702656,119.116923 C79.833468,119.079969 81.2392296,116.299443 80.5764148,114.083723 C80.2885297,113.672318 78.3673886,112.337612 78.3673886,112.337612 L75.8694725,107.819467 C75.0563049,106.450911 73.9572296,105.462033 72.1231332,105.456758 C72.1231332,105.456758 70.4898529,103.402858 70.009053,103.095085 C69.5282775,102.787321 67.1273415,101.965539 67.1273415,101.965539 C67.1471151,99.9010796 66.8997904,98.1602435 65.7829188,97.0359973 L62.4204073,93.6463295 C60.8652654,93.8927628 59.8473107,92.2238332 59.0578796,89.7437296 L55.7913191,86.9706516 L53.2934273,85.8411216 L47.4330159,82.2462777 L44.839157,79.3706198 L40.6120097,76.08354 C38.7541768,75.0777494 40.6087681,71.0270658 33.1183181,69.9207942 L30.2356097,67.3529004 C28.4014971,65.5073693 26.5901404,63.4354784 24.6412919,62.6993875 C24.1456698,62.5132558 23.7380974,63.1309072 23.1267265,62.4222969 C24.3504488,58.9395551 22.1651592,58.3938263 18.8036364,58.724865 C18.2446901,56.5726152 16.1138104,55.8915178 13.5199515,55.6429694 L9.09990562,55.7455574 L9,5 L9,5 Z" id="Formosa"></path>
        </g>
    </g>
</svg>