<?xml version="1.0" encoding="UTF-8"?>
<svg width="150px" height="150px" viewBox="0 0 150 150" version="1.1" xmlns="http://www.w3.org/2000/svg" xmlns:xlink="http://www.w3.org/1999/xlink">
    <!-- Generator: Sketch 41.1 (35376) - http://www.bohemiancoding.com/sketch -->
    <title>icono_salud</title>
    <desc>Created with Sketch.</desc>
    <defs></defs>
    <g id="Provincias" stroke="none" stroke-width="1" fill="none" fill-rule="evenodd">
        <g id="icono_salud" fill="#FFFFFF">
            <path d="M130,84.1666667 C130,74.0833333 121.75,65.8333333 111.666667,65.8333333 C101.583333,65.8333333 93.3333333,74.0833333 93.3333333,84.1666667 C93.3333333,92.875 99.2916667,99.75 107.083333,102.041667 L107.083333,120.833333 L61.25,120.833333 L61.25,97.9166667 L71.7916667,97.9166667 C78.6666667,97.9166667 84.625,92.875 85.5416667,86 L92.875,35.125 C93.3333333,32.375 92.4166667,29.625 90.5833333,27.7916667 C88.75,25.9583333 86,24.5833333 83.25,24.5833333 L75,24.5833333 C75,21.8333333 73.1666667,20 70.4166667,20 C67.6666667,20 65.8333333,21.8333333 65.8333333,24.5833333 L65.8333333,33.75 C65.8333333,36.5 67.6666667,38.3333333 70.4166667,38.3333333 C73.1666667,38.3333333 75,36.5 75,33.75 L83.25,33.75 L75.9166667,84.625 C75.4583333,86.9166667 73.625,88.75 71.3333333,88.75 L41.5416667,88.75 C39.25,88.75 37.4166667,86.9166667 36.9583333,84.625 L30.0833333,33.75 L38.3333333,33.75 C38.3333333,36.5 40.1666667,38.3333333 42.9166667,38.3333333 C45.6666667,38.3333333 47.5,36.5 47.5,33.75 L47.5,24.5833333 C47.5,21.8333333 45.6666667,20 42.9166667,20 C40.1666667,20 38.3333333,21.8333333 38.3333333,24.5833333 L30.0833333,24.5833333 C27.3333333,24.5833333 24.5833333,25.9583333 22.75,27.7916667 C20.9166667,29.625 20,32.375 20.4583333,35.125 L27.7916667,86 C29.1666667,92.875 35.125,97.9166667 41.5416667,97.9166667 L52.0833333,97.9166667 L52.0833333,125.416667 C52.0833333,128.166667 53.9166667,130 56.6666667,130 L111.666667,130 C114.416667,130 116.25,128.166667 116.25,125.416667 L116.25,102.041667 C124.041667,99.75 130,92.875 130,84.1666667 Z" id="Shape"></path>
        </g>
    </g>
</svg>