<?xml version="1.0" encoding="UTF-8"?>
<svg width="150px" height="150px" viewBox="0 0 150 150" version="1.1" xmlns="http://www.w3.org/2000/svg" xmlns:xlink="http://www.w3.org/1999/xlink">
    <!-- Generator: Sketch 41.1 (35376) - http://www.bohemiancoding.com/sketch -->
    <title>icon_lapampa</title>
    <desc>Created with Sketch.</desc>
    <defs></defs>
    <g id="Provincias" stroke="none" stroke-width="1" fill="none" fill-rule="evenodd">
        <g id="icon_lapampa" fill="#FFFFFF">
            <path d="M20.6304047,92.1671264 L22.7592375,92.3647564 L25.3502294,92.6612208 L26.6452413,92.7610623 L29.3286666,92.1671264 L30.6246387,92.2669523 L32.6600701,95.0369719 L33.0307638,96.7189457 L32.6600701,99.291312 L30.5322053,102.061316 L28.958933,105.425271 L28.0336546,107.403686 L29.792746,109.97606 L33.1241574,112.153135 L35.2520222,113.834102 L40.1567058,113.141348 L42.7476977,114.92214 L45.801801,114.229386 L48.1155006,115.020944 L48.5786042,117.889782 L50.2443099,119.37411 L54.2237151,119.571756 L59.4981401,123.23216 L61.4420982,125.310432 L62.6456214,126.793745 L64.8659352,127.585319 L75.4166508,127.981625 L78.1000838,129.168474 L80.8759347,129.861236 L82.5416482,128.773198 L84.4855985,128.279096 C84.4855985,128.279096 85.7806105,128.17927 86.6134711,128.773198 C87.4463318,129.367134 91.6105881,129.367134 91.6105881,129.367134 L99.6618163,128.674372 L107.991297,129.762418 L118.356217,133.720285 L125.204843,137.380705 L129.647352,142.525438 L133.071197,145 L134.921777,144.504875 C134.868382,97.7733545 133.943112,51.7335737 133.440938,5 L89.1110773,6.68197382 L90.2221982,38.6384303 C55.4301109,40.2174948 15.9048737,41.9341204 16.000172,42.4974793 L16.1850388,46.6530005 C16.5385666,48.4684294 17.1284354,49.9456462 18.220478,50.708688 C18.9075341,64.4028647 19.4793003,77.9747805 20.6304047,92.1671264 L20.6304047,92.1671264 Z" id="La_Pampaan_ss"></path>
        </g>
    </g>
</svg>