<?xml version="1.0" encoding="UTF-8"?>
<svg width="150px" height="150px" viewBox="0 0 150 150" version="1.1" xmlns="http://www.w3.org/2000/svg" xmlns:xlink="http://www.w3.org/1999/xlink">
    <!-- Generator: Sketch 41.1 (35376) - http://www.bohemiancoding.com/sketch -->
    <title>icon_misiones</title>
    <desc>Created with Sketch.</desc>
    <defs></defs>
    <g id="Provincias" stroke="none" stroke-width="1" fill="none" fill-rule="evenodd">
        <g id="icon_misiones" fill="#FFFFFF">
            <path d="M21.9053422,101.671367 L20.1378741,104.775642 L19,108.286642 C19,108.286642 19.2525071,111.390918 19.2525071,112.740611 C19.2525071,114.092088 19,117.87123 19,118.409312 C19,118.94742 20.8953818,121.378624 20.8953818,121.378624 L27.0814249,129.883457 C27.0814249,129.883457 26.9569131,132.987732 27.2077057,133.6626 C27.4601719,134.33744 29.6063871,137.844847 30.6180076,138.791409 C31.6263215,139.736188 33.7725094,143.515344 33.7725094,143.515344 C33.7725094,143.515344 35.7941039,145 37.1828114,144.190143 C38.5715324,143.380354 41.8539479,145 41.8539479,145 L44.5067694,142.705514 L47.5366777,137.711667 L52.9652811,132.716025 L56.3755831,131.096392 L61.1729732,131.096392 L64.9603621,125.967569 L68.2444105,124.887842 L69.506878,121.376855 L74.6829743,116.78791 L79.9853105,113.953587 L85.287674,112.064002 L88.5700895,110.579332 L92.4837455,108.959714 L93.1149316,108.149897 L97.4073211,108.014907 L100.186396,107.746765 L103.721305,100.9965 L107.382454,100.186697 L110.033629,98.9719934 L110.286109,97.4855408 L112.812718,95.0578883 L116.221359,94.2480584 L117.61008,92.6284395 L120.261255,95.1928508 L122.15661,94.5162145 L122.409103,92.2217556 L126.952326,86.6880044 L128.719767,83.313804 L129.098514,80.3444641 L128.593527,78.994784 L127.585213,78.0500052 L127.836033,74.9457163 L126.573579,73.3260974 L126.321072,68.8721284 L128.088513,59.8274317 L128.970573,57.5329455 L130.487194,53.753803 C130.487194,53.753803 130.234715,48.2200926 130.234715,47.4102627 L130.234715,41.4698548 L127.078553,36.0710934 L124.301138,32.831842 C124.301138,32.831842 124.174857,29.3226246 124.174857,28.3778594 C124.174857,27.433067 123.796137,21.4944416 123.796137,20.9527543 C123.796137,20.412904 124.174857,17.7135165 123.669856,17.3086016 C123.163209,16.9037003 120.385781,13.124585 120.385781,13.124585 L118.113353,9.07547647 L116.598378,6.37611618 L114.578444,6.91600729 C114.578444,6.91600729 112.684749,7.72582354 112.053509,7.32090861 C111.420622,6.91600729 109.779407,5.29637478 109.779407,5.29637478 C109.779407,5.29637478 109.14984,4.89145985 108.516953,5.02820505 C107.88574,5.16142582 105.362452,7.86256874 105.362452,7.86256874 L103.847491,8.94055473 L101.825896,8.53562619 C101.825896,8.53562619 101.068416,6.91600729 100.437189,7.59083376 C99.8059481,8.26570104 96.7760397,10.0202825 96.7760397,10.0202825 L93.1148772,8.13071126 L91.726197,6.78100389 L88.696275,6.78100389 C88.696275,6.78100389 88.9487549,8.53562619 88.9487549,9.34544244 C88.9487549,10.1552587 88.5683749,12.3147687 87.9387945,13.3944965 C87.3092413,14.4742651 85.6663666,17.3086016 85.6663666,17.3086016 C85.6663666,17.3086016 85.5400858,19.4681252 85.7926474,20.6828292 C86.0451409,21.897574 88.5700759,24.4619581 88.5700759,24.4619581 C88.5700759,24.4619581 88.445428,27.026383 88.0650889,27.7012503 C87.6863418,28.3760632 86.5501279,30.6705357 86.5501279,30.6705357 C86.5501279,30.6705357 85.4139003,32.8300457 85.2876604,33.909828 C85.1613796,34.9895694 85.1613796,35.799372 85.1613796,37.1490522 L85.1613796,40.5232933 C85.1613796,42.2761194 85.0350988,43.2226809 84.9088725,43.8957383 C84.7825917,44.5687821 83.9005723,47.6766362 83.646405,48.3514763 C83.392265,49.02633 82.8889245,50.3760373 82.636431,51.9956426 C82.3855977,53.6152888 81.8789641,54.1551799 81.5002171,54.6968128 C81.1214836,55.2366767 79.7327762,57.5311492 79.7327762,57.5311492 C79.7327762,57.5311492 78.5965623,59.1507954 78.2178016,59.6906593 C77.8390546,60.2323194 76.9553477,61.4452679 76.9553477,61.4452679 C76.9553477,61.4452679 76.829067,62.120108 76.829067,63.334812 L76.829067,65.8974679 C76.829067,66.7072705 76.7027862,67.3839069 76.7027862,67.3839069 L74.3040911,67.7888082 L71.4004363,67.3839069 C71.4004363,67.3839069 69.2559086,69.8115594 69.2559086,70.6213892 C69.2559086,71.4311919 69.8854753,71.9728656 69.8854753,71.9728656 L67.8655137,74.8072293 L64.0781385,74.6722395 C64.0781385,74.6722395 61.6811036,76.2918856 61.1744701,76.5617972 C60.6694967,76.8317495 59.5349429,77.1016883 59.0282821,78.1814297 C58.5232815,79.2611983 58.3970416,83.3102523 58.3970416,83.3102523 L55.9983601,83.7169363 C55.9983601,83.7169363 47.4136084,83.4469839 46.908635,83.7169363 C46.4019879,83.986875 45.1411942,84.9316811 45.1411942,85.6047385 C45.1411942,86.2813612 46.2773809,90.7353302 46.2773809,90.7353302 L42.2375121,91.005269 L40.3421439,93.164779 L39.4601109,95.7292039 C39.4601109,95.7292039 37.8188691,95.7292039 37.9451226,96.538993 C38.0714034,97.3488364 39.2076174,98.8334655 39.3338437,99.5083328 C39.4601245,100.183159 37.0614158,101.937768 36.5564152,102.342656 C36.0497817,102.749353 35.2922876,103.962302 34.1577338,104.368959 C33.0198733,104.773914 31.6311659,105.313751 30.8736718,104.773914 C30.1162049,104.23401 27.7191836,102.749353 27.7191836,102.749353 L23.0463869,99.780027 L21.9052061,101.671367 L21.9053422,101.671367 Z" id="Misiones"></path>
        </g>
    </g>
</svg>