<?xml version="1.0" encoding="UTF-8"?>
<svg width="150px" height="150px" viewBox="0 0 150 150" version="1.1" xmlns="http://www.w3.org/2000/svg" xmlns:xlink="http://www.w3.org/1999/xlink">
    <!-- Generator: Sketch 41.1 (35376) - http://www.bohemiancoding.com/sketch -->
    <title>icon_sanjuan</title>
    <desc>Created with Sketch.</desc>
    <defs></defs>
    <g id="Provincias" stroke="none" stroke-width="1" fill="none" fill-rule="evenodd">
        <g id="icon_sanjuan" fill="#FFFFFF">
            <path d="M38.3260684,143.753193 L40.5624298,145 L42.7977826,143.960815 L45.1312466,143.753193 C46.7799901,144.302216 48.4037055,144.543016 49.7971743,142.088996 L50.0894826,136.893069 L50.6720982,134.606006 L53.7833836,130.86451 L56.6023525,128.681256 C59.9599002,129.142523 60.3352964,127.325286 60.1020484,125.044644 L62.7268202,124.837021 L65.8371052,125.667512 L70.1146224,127.954577 C70.1146224,127.954577 70.4069307,129.721513 70.1146224,130.553075 C69.532999,133.71986 71.2157747,134.975231 75.5583631,133.983136 L78.4754433,133.879325 C81.7418912,131.63614 82.6248271,127.040606 88.8784369,127.746954 L92.0868167,127.331708 L93.4472455,126.396334 L94.7115722,128.578517 L96.849847,130.656887 C96.849847,130.656887 100.156322,132.320012 100.544732,132.320012 C100.933143,132.320012 102.585896,132.112389 102.585896,132.112389 L104.529941,131.593331 L105.113565,129.51496 L107.932542,130.761767 L110.167887,133.048833 C113.170072,135.78539 112.190026,133.486554 112.598454,132.94502 L111.238025,130.138899 L109.488193,127.644213 L109.002672,117.874157 L125.334903,117.874157 L123.974466,112.573348 L121.251599,108.00029 L119.404641,104.986542 C119.404641,104.986542 118.626827,101.557554 118.626827,101.037428 C118.626827,100.518369 117.6538,95.1126732 117.6538,95.1126732 L116.390466,89.9167485 L116.292355,81.6011242 C114.183126,78.2534746 112.030853,74.9272194 107.639242,72.662635 L104.333727,71.9338094 L97.4304535,61.9571988 L87.0274763,51.3555906 L79.2492546,45.1194176 L76.5273883,43.6649696 L74.6794373,43.0410478 L71.3739549,43.0410478 L68.1655587,43.2486436 L66.8051299,43.7677043 L64.8610685,43.3513956 L63.5006397,41.169216 L63.5977423,37.0114062 L64.0832554,30.8790249 C67.9112927,29.424595 64.4976943,27.9691071 64.1813585,26.5146599 C64.1813585,26.5146599 63.8890502,24.1237855 63.7919394,23.7085462 C64.3385218,21.096135 63.2623894,19.785098 61.7507918,18.8229867 C60.684664,18.6710069 59.5044175,18.3681298 56.403145,15.4977951 C53.7493432,12.8490006 52.5791095,10.9932345 50.8612929,8.84638193 L48.1394266,6.0391726 L45.7078595,5 L44.0561146,6.55823407 L43.9580116,9.46924585 C44.6056985,11.7209833 43.6396747,13.4793598 42.5004719,15.1863656 L41.9168558,17.8875944 C41.6465742,20.0012979 41.5945171,22.1139091 40.8477266,24.2286762 L41.1390345,26.9299165 C42.3553142,31.0213658 39.5573632,31.2610988 38.7084678,33.7900474 L36.569209,36.077107 L35.7923881,36.7010345 L35.5000798,39.4022814 L37.2509282,43.2486436 C37.2509282,43.2486436 38.0277491,44.28784 38.0277491,44.9117864 L38.0277491,47.9255256 C38.0277491,48.3407641 38.902673,50.9392647 38.902673,50.9392647 L38.902673,54.3693298 C38.902673,54.7845748 38.3190569,58.4222604 38.3190569,59.0461944 C38.3190569,59.6701343 38.41716,61.333259 38.5132621,61.7485041 C40.6615333,62.2440202 42.0680164,62.3810069 39.8746996,66.425368 L38.9997756,68.8151845 C38.5593164,70.1048107 39.0538172,72.7268378 35.6932845,69.8543702 L33.9434399,70.8946245 C33.9434399,70.8946245 32.9714142,72.0376307 32.9714142,72.4539336 C32.9714142,72.8702538 33.3608242,75.1551854 33.3608242,75.1551854 L33.0685168,77.8574893 L30.5408483,81.7038696 L29.8601304,89.2917448 L31.0273627,93.3446689 L26.0691292,98.6454788 L25,104.362604 L25.1942052,109.558535 L26.2633344,114.340285 L27.7218737,117.457837 C27.7218737,117.457837 28.4025916,118.081783 28.4986937,118.809531 C29.3455866,121.709833 31.3336865,121.927086 33.4569264,121.823274 L34.6241554,123.589142 L34.721258,125.876205 L33.1656186,127.746954 C30.5868993,129.956961 33.239694,131.042168 34.0405433,132.736328 C34.0405433,132.736328 36.9566189,135.334826 37.2489272,135.750073 C37.5402351,136.16639 37.4431325,139.59645 37.4431325,139.59645 C37.9937168,140.868944 40.5514165,141.245663 38.3260684,143.753193 L38.3260684,143.753193 Z" id="San_Juann_ss"></path>
        </g>
    </g>
</svg>