<?xml version="1.0" encoding="UTF-8"?>
<svg width="150px" height="150px" viewBox="0 0 150 150" version="1.1" xmlns="http://www.w3.org/2000/svg" xmlns:xlink="http://www.w3.org/1999/xlink">
    <!-- Generator: Sketch 41.1 (35376) - http://www.bohemiancoding.com/sketch -->
    <title>icon_larioja</title>
    <desc>Created with Sketch.</desc>
    <defs></defs>
    <g id="Provincias" stroke="none" stroke-width="1" fill="none" fill-rule="evenodd">
        <g id="icon_larioja" fill="#FFFFFF">
            <path d="M30.7265919,7.70833912 L27.4169808,7.70833912 L27.0270835,10.3100903 L26.0528329,12.2870829 C24.5994913,14.2652086 22.9857766,16.2411585 23.0358952,18.2192513 C22.7011251,20.346296 21.026273,22.1872277 19.4336025,24.0464038 L17,27.4807367 L26.9288579,38.7192245 C34.6315834,45.3050411 34.148469,40.2805117 34.9102245,50.3745935 C37.9381975,52.6516452 36.3234811,53.620342 34.5203272,54.53759 C34.5203272,54.53759 33.9369839,60.6776193 33.8387583,62.1349367 C34.5012864,64.250198 33.3035301,67.4177232 38.0253878,67.2345003 L43.4759445,66.1940174 L50.3878483,68.7957514 L57.8830872,75.2475992 L67.9091854,85.1338021 L73.8468469,93.772708 L75.4054261,95.4368394 L77.9352672,96.6862662 L80.5643029,97.1031129 C80.5643029,97.1031129 81.3420858,98.456485 81.7319913,98.5593653 C82.1218886,98.6622398 86.9881002,104.803334 86.9881002,104.803334 L86.6964285,108.966342 L87.0863176,115.1053 L87.8641087,118.435699 L88.35022,121.037448 L89.1290211,125.200453 L89.2272467,127.802196 C91.9214431,132.861023 94.7890348,138.256323 96.2353727,140.91486 C97.2918132,144.094175 99.2843899,143.514463 101.687925,143.284077 C104.27488,143.037617 107.117429,147.526378 106.747574,142.891887 C107.844091,140.719833 109.831676,142.299313 111.711995,142.787946 C112.782459,141.912482 113.699571,143.66448 115.404491,141.820327 C116.544115,140.588038 120.571382,140.435874 123.1022,140.08226 L122.127966,107.924783 L132.93284,81.179761 L132.251271,78.578009 C131.609796,74.994721 129.451837,72.059713 127.578522,69.0036419 L125.14492,64.2159024 L124.074455,61.510229 C124.444302,59.6757271 124.679844,57.9826495 124.034386,56.7353706 C121.297083,51.4440104 115.678148,48.6761666 111.420348,43.6109158 L107.331944,41.737829 L105.287228,39.9686874 L102.075843,39.5529114 L101.29705,38.7203133 L101.686939,30.394317 L100.421033,29.145933 L99.1551193,28.4172751 L96.8187325,23.9424552 L94.9694914,21.5485847 L88.9345897,20.3002253 L81.3421104,20.4041492 C80.8780533,24.3314247 82.283288,28.5522933 75.3072416,26.8560109 L71.8031663,26.0234046 L70.0511327,24.0464038 L67.9092101,24.0464038 L65.4755993,25.5026356 C58.6959959,25.8005229 62.7022099,16.2850944 49.7063121,17.0737566 C44.693768,16.1329239 46.1701655,13.7326407 45.7161174,11.7663221 L43.8658582,8.85169903 C44.0543039,6.71928449 43.7064951,4.93942459 40.5562471,5.00158023 L36.0779376,7.70726351 L30.7266165,7.70726351 L30.7266165,7.70808459 L30.7265919,7.70833912 Z" id="La_Riojan_ss"></path>
        </g>
    </g>
</svg>