<?xml version="1.0" encoding="UTF-8"?>
<svg width="150px" height="150px" viewBox="0 0 150 150" version="1.1" xmlns="http://www.w3.org/2000/svg" xmlns:xlink="http://www.w3.org/1999/xlink">
    <!-- Generator: Sketch 41.1 (35376) - http://www.bohemiancoding.com/sketch -->
    <title>icon_salta</title>
    <desc>Created with Sketch.</desc>
    <defs></defs>
    <g id="Provincias" stroke="none" stroke-width="1" fill="none" fill-rule="evenodd">
        <g id="icon_salta" fill="#FFFFFF">
            <path d="M8.07466292,102.723459 L9.45841946,101.244109 L9.76636045,100.58651 L7.07563482,97.2173296 L5,93.4368395 L5.69187827,90.7243765 L9.76636045,86.2854506 L9.45841946,83.902225 L10.3038726,82.998356 L14.5327209,80.4500902 L29.908396,72.8882603 L33.3677809,71.1626145 L34.6747564,65.6556095 L37.519057,66.2311166 L40.4409297,69.4369621 L44.3618434,72.6428141 L45.8223874,74.6155858 L47.7444343,76.0128439 L51.2038322,75.6015469 L54.7407957,73.7938024 L54.2024923,64.9167807 L53.510614,60.1494734 C52.8219069,57.94822 53.3887113,56.5534716 53.6641825,54.9708627 L55.0479585,54.6424943 C57.50672,55.8688045 59.3995006,56.6508031 61.0444811,58.0946226 L61.5060035,60.6420389 L61.1980625,65.1622204 L61.5060035,67.7104862 L62.2746627,68.2859738 C63.7708346,67.9770666 64.8015219,68.2656762 65.2733358,69.2719284 L67.8097019,73.2174717 L70.5779931,78.8065429 C70.9730066,80.4441695 72.4636404,81.442828 75.1132001,81.7661187 L79.1876757,82.2595142 L81.340098,82.6699747 L84.4155521,85.3824311 L87.0294903,85.8758397 L87.6445746,83.903068 L88.6444003,82.6699747 L90.8736036,82.9171005 L92.2573601,83.9860096 L93.4107608,84.0680887 L94.8712918,82.2595142 L97.2548741,81.3556582 L98.3306832,79.5470707 L99.7920248,78.7253003 L102.021241,76.0128439 L104.173657,73.2183212 L103.943294,57.1907472 L102.098028,56.7802867 L99.176934,56.7802867 L98.101112,56.9444839 L96.6397833,59.1635253 L95.5639742,59.4097951 C95.5639742,59.4097951 94.6417271,57.6020636 94.4105736,57.1907472 C94.1802112,56.7802867 92.4885137,56.0406149 92.4885137,56.0406149 L89.7210006,56.534004 L87.4917973,56.8632283 L86.4919651,55.4659638 L84.7242713,53.2469159 L83.1101653,51.2733077 L82.6486494,49.1363453 L83.724465,46.7531262 L83.5708965,44.2048539 L82.1103525,42.8075959 L80.1882862,42.5613131 L78.6509547,40.3422717 L78.2662327,38.8620655 L76.8824762,36.972229 L76.8056887,35.4107802 L75.9602291,34.5069048 C74.5970685,33.8823136 74.8772931,32.7558836 74.8836224,31.7123692 L76.5753199,28.5894588 L77.1144144,26.8629828 C76.303798,23.7383734 78.6288024,22.4671943 78.6517523,19.8766342 L81.9575558,18.8898171 L84.9554378,19.5474098 L87.0310726,21.0267664 L89.5682233,21.6022671 L91.6438516,23.0816237 L93.5659115,25.3006651 L94.105006,27.1092461 L95.4119816,29.1641099 C94.8475507,31.3010592 95.719125,34.0956013 98.0251157,37.5477361 L99.6400257,34.4248127 C99.6400257,34.4248127 100.178336,30.9726909 100.101548,30.644329 C100.023963,30.3150982 100.178336,27.849774 100.178336,27.849774 L103.560939,23.5758818 L106.097299,17.7396718 L112.479348,17.9868106 L114.247048,20.4521218 L116.322683,17 L131.929511,18.1501388 L132.929344,19.8766342 L135.620056,22.0135705 C137.56744,23.8162308 139.515634,25.8820929 141.463011,28.3423395 C142.656786,28.4125772 144.203624,27.9792576 144.845621,28.8357415 L144.922408,31.3019152 L145,78.8090785 L119.321337,115.303127 L113.324801,114.234237 L106.482015,113.987954 C106.584138,116.234083 104.860775,115.942938 102.945064,115.384376 C101.972942,115.012837 101.024573,114.789407 100.25513,115.713594 C100.25513,115.713594 100.023963,118.179754 100.023963,118.755261 C100.023963,119.330749 99.7936071,120.645085 99.7936071,120.645085 C99.0186057,121.328066 98.2174831,122.001735 98.640213,123.111252 C97.4218987,124.554216 97.7963421,127.391078 96.2566307,128.864527 C95.7959189,128.864527 92.0285801,128.535309 92.0285801,128.535309 L89.6450043,128.124836 L87.7997448,129.274981 C86.5695502,128.344881 85.3401727,128.573375 84.1091869,128.453204 L80.1890773,127.4664 L79.3416916,126.672858 C77.4315185,123.254581 76.9695552,125.002775 75.8066542,125.57657 C74.9651632,126.42035 73.9281402,126.020038 72.8855726,125.57657 L70.5019968,124.672707 L69.963687,125.905788 L70.8859341,128.454047 L70.8859341,130.673101 L69.5021841,131.823247 L67.4265428,130.836436 L63.5056485,128.864527 L61.7379417,128.617395 L59.8158818,126.809663 C58.5374267,126.868027 57.904911,127.543421 57.1251626,128.28902 C57.1251626,128.28902 56.2797159,130.836436 56.2021308,131.247753 C55.7501153,132.345422 54.8152097,133.935644 53.8193527,133.220524 C52.9738995,132.727103 51.5125578,129.028698 51.5125578,129.028698 C48.2962003,122.618687 49.7535797,124.677779 45.9775381,121.302665 C44.9777189,120.315867 45.1320914,117.110865 45.1320914,117.110865 C45.1320914,117.110865 45.1320914,115.631501 45.6703883,115.138093 C46.2086982,114.644697 48.9762048,114.891823 48.9762048,114.891823 C48.9762048,114.891823 50.5143209,115.54856 51.0526372,113.658723 C51.5909211,111.768906 51.205408,105.193024 51.205408,105.193024 L42.2869932,104.699622 L29.7556122,105.110089 L22.7592639,105.685583 L16.6859278,104.61753 L12.6114521,103.87699 L8.07466292,102.723459 L8.07466292,102.723459 Z" id="Salta"></path>
        </g>
    </g>
</svg>