<?xml version="1.0" encoding="UTF-8"?>
<svg width="150px" height="150px" viewBox="0 0 150 150" version="1.1" xmlns="http://www.w3.org/2000/svg" xmlns:xlink="http://www.w3.org/1999/xlink">
    <!-- Generator: Sketch 41.1 (35376) - http://www.bohemiancoding.com/sketch -->
    <title>icon_santiagodelestero</title>
    <desc>Created with Sketch.</desc>
    <defs></defs>
    <g id="Provincias" stroke="none" stroke-width="1" fill="none" fill-rule="evenodd">
        <g id="icon_santiagodelestero" fill="#FFFFFF">
            <path d="M97.5261782,144.510596 C97.45049,143.723835 97.083904,143.139855 96.8805422,142.477902 C96.647098,141.719426 96.9279781,140.678235 96.7036326,140.114723 C99.8925638,134.395902 95.1798501,135.301593 92.683042,133.960117 C90.7753502,132.629364 91.4209712,130.12775 91.0379731,128.097985 L85.7370695,128.097985 L79.3400683,128.196447 C76.8660743,128.085312 75.4498779,127.165005 74.6802363,125.753313 C74.8334281,124.221749 74.0127201,124.424514 73.4920236,124.093059 C68.4792836,125.742611 67.995968,125.352633 65.9040606,123.020644 C63.51761,122.322623 63.9033346,125.3575 61.2469627,122.627764 L57.5008578,121.649919 L52.8410258,121.84588 L47.3577368,122.13836 L41.051932,123.116205 L41.2352213,119.598713 L39.9558196,116.863121 C43.445681,113.462642 40.1874411,115.570396 40.4126757,111.294427 C41.1613558,109.455751 39.6330016,108.538372 38.3107507,107.191049 L38.3107507,103.674537 C38.1420433,102.906311 34.8537134,100.232132 33.1010285,98.495822 L33.5588035,93.61151 C33.7411813,90.6477983 33.9235816,87.6840568 34.1077823,84.7213013 L32.9186506,81.0078787 L31.6401678,79.8360406 L31.2744931,75.0492299 L31,73.3879805 C33.1995233,72.2765914 35.0269701,72.4579235 38.1283579,68.2102383 L36.1176144,65.670596 L37.3970161,56.1934897 C38.6071166,56.2315131 39.8409127,56.3290069 39.8637193,53.0669572 C40.2065873,50.7534906 41.5087881,46.6842167 42.1489484,43.1014331 C42.91859,41.5171943 45.7072072,40.4867226 44.794384,38.1040444 C44.6338938,37.6867805 45.0387796,37.1106026 44.7981191,36.5558792 C47.2648148,35.795441 46.7213116,32.88925 46.351999,30.1078341 L46.9912405,23.2688351 L49.7333406,16.7232811 C49.7333406,16.7232811 50.7382492,15.1595256 51.0118385,14.7695653 C51.2863167,14.3786189 51.1942089,11.253065 51.1942089,11.253065 L52.0167396,8.32151266 L53.3873527,8.02806011 L54.9412251,8.71245902 L58.0480886,9.29836311 L58.4128443,7.63809982 L63.9873223,6.95467203 L69.6529742,7.83307996 L72.942223,8.61495027 L75.6843157,5.09845747 L79.064746,5.29343761 L118.725303,5 L119.273363,75.5376551 C116.353434,98.6917733 113.459046,121.84588 108.857572,145 L97.5261782,144.510596 Z" id="Santiago_del_Estero_ss"></path>
        </g>
    </g>
</svg>