<?xml version="1.0" encoding="UTF-8"?>
<svg width="150px" height="150px" viewBox="0 0 150 150" version="1.1" xmlns="http://www.w3.org/2000/svg" xmlns:xlink="http://www.w3.org/1999/xlink">
    <!-- Generator: Sketch 41.1 (35376) - http://www.bohemiancoding.com/sketch -->
    <title>icon_jujuy</title>
    <desc>Created with Sketch.</desc>
    <defs></defs>
    <g id="Provincias" stroke="none" stroke-width="1" fill="none" fill-rule="evenodd">
        <g id="icon_jujuy" fill="#FFFFFF">
            <path d="M48.063809,5.75744668 C44.8580323,3.8874789 41.6537795,6.06860004 41.6537795,6.06860004 L41.3627552,14.3232209 L41.6537795,18.3727246 C45.8811026,21.4631951 43.8229559,23.2995283 39.6150983,25.2256315 L35.680274,26.4717688 C32.9965517,26.2488615 31.9029804,27.7291257 30.7268649,29.1195831 L29.7067809,32.0785507 C29.984312,35.9548678 28.4271934,36.0334181 27.2316001,37.218615 C24.7863919,38.1937342 21.5311281,38.5898403 21.2580947,41.1126034 L18.9269145,45.0065427 L14.1190176,49.0560586 L10.3327162,52.015014 L8,56.5312354 L11.0602646,61.9824407 C15.1180878,65.525165 17.4823126,68.7680048 16.8882333,71.4831865 L16.3047102,80.3616502 L15.1390771,89.082952 L11.6438123,98.2725567 L9.45814427,106.684327 L15.5771496,109.332154 L20.6745347,114.472243 L27.2316001,119.456742 L30.8739009,124.752396 L35.3907613,126.465238 C38.4975145,125.849371 41.6072785,126.011362 44.715531,124.28569 L47.1907117,122.104594 L47.0452119,118.055065 L46.1706522,113.848363 L46.0251401,104.969899 L45.1505558,97.1819716 L43.9849596,95.7803068 C43.2453928,94.8565303 45.2225684,83.9027647 47.1907117,85.1889758 L60.5943062,93.4435967 L59.5742467,98.5836978 L58.990699,106.216024 L61.0308794,111.824404 C68.2074498,111.954321 68.1819504,116.231574 70.7921609,118.988427 L74.2889495,125.996923 L77.931238,135.34208 C82.4781201,136.928212 86.9394841,138.211241 91.6258567,138.769338 L96.5792781,138.613786 L102.552771,143.442734 C103.458852,144.857241 105.656514,144.807545 108.086717,145 C111.427499,142.074716 110.533425,138.001139 113.769186,139.548782 C121.797852,142.316868 121.496346,143.256693 123.821517,137.212072 L128.191353,137.367649 L131.106106,132.538701 C134.803927,131.404835 136.410533,128.033724 138.681744,125.374666 L141.156961,121.014009 L140.720413,90.3306868 L130.084547,90.1751101 L125.278125,95.3152112 C125.278125,95.3152112 123.528993,92.9785256 123.092457,92.2006914 C122.654433,91.4228449 120.906789,89.8639936 120.906789,89.8639936 C118.647572,87.8817304 115.92938,88.1110647 112.893127,89.8639936 L108.668778,89.3973004 L106.483098,87.0605903 L104.007868,83.788884 L101.5312,80.2076834 L100.658115,78.1821266 L100.511092,75.6898521 C104.306413,70.2194025 102.380261,63.7706386 98.0703933,64.0994264 C95.6086935,64.2870646 94.0260756,63.5830003 93.0810025,60.7379133 L90.8968215,56.3772686 L88.7111289,51.5483208 C89.5587023,50.4577602 88.2566017,49.3687726 86.8164851,48.2782244 C84.2722657,45.2214498 86.0769306,44.1565361 85.9419132,42.2031394 L88.8566533,35.3502447 L89.5842139,29.2751597 C91.0273289,26.4701712 94.9696494,23.8880899 92.2064306,20.7094224 L88.1260942,20.5538703 C85.6989014,18.1706592 83.2701848,19.6284594 80.842992,19.9299783 L78.8028115,21.0205389 L71.0816736,20.0855673 L67.2953846,19.9299783 C64.8471778,14.6968876 61.2648712,15.1250921 57.6795906,15.5693336 L54.329838,15.4137569 C54.4108214,10.5960534 51.6085856,7.93058008 48.063809,5.75744668 L48.063809,5.75744668 Z" id="Jujuy"></path>
        </g>
    </g>
</svg>