<?xml version="1.0" encoding="UTF-8"?>
<svg width="150px" height="150px" viewBox="0 0 150 150" version="1.1" xmlns="http://www.w3.org/2000/svg" xmlns:xlink="http://www.w3.org/1999/xlink">
    <!-- Generator: Sketch 41.1 (35376) - http://www.bohemiancoding.com/sketch -->
    <title>icon_mendoza</title>
    <desc>Created with Sketch.</desc>
    <defs></defs>
    <g id="Provincias" stroke="none" stroke-width="1" fill="none" fill-rule="evenodd">
        <g id="icon_mendoza" fill="#FFFFFF">
            <path d="M39.4917742,111.665897 L40.9028486,116.031452 L41.7184631,117.777837 L41.5701696,119.286409 L43.2778374,120.397001 L44.4657137,122.381193 L47.8061386,124.682467 L54.4877522,131.428547 L54.7843393,133.492027 L55.5273287,135.158322 L58.1996686,136.904707 L61.020302,137.618942 L66.3649754,137.301046 L68.8897919,140.475932 L70.1510386,141.587326 L75.1991312,141.428782 L77.2033986,142.778007 L79.3559346,142.619476 L82.3990146,144.206496 L83.8100827,145 L84.1808166,144.603661 L81.8792232,111.269552 L80.5430533,108.889009 L80.2456897,104.445005 L82.3982444,104.603543 L110.534239,103.492137 L111.277235,103.095792 L112.390194,100.08027 L113.206566,84.8425216 L113.059043,80.4769726 L112.538494,79.4448227 L112.018703,74.3658465 L108.603354,68.2539126 L107.415491,62.3021511 L106.302525,60.7935794 L106.005174,59.0471945 L107.563784,55.1580797 L107.712078,51.2689587 L103.926008,49.0469599 L101.253675,45.951356 L101.031222,42.8565711 L97.9132498,34.9990688 L96.874431,30.4757953 L96.0580587,19.2856987 L94.2762316,16.1900954 L94.0530336,13.8888244 L91.6038918,10.6354997 L90.9358318,10.9533959 L85.2937885,10.3968743 L80.6164236,8.1748723 L80.6913406,6.26994817 L79.5034642,5 L78.5380282,6.0321387 L74.5295184,6.42848865 L69.1099404,11.1903882 L67.4022664,13.0152237 C65.5218462,12.9359541 63.641426,12.8566844 61.7610058,12.7774148 L61.389508,8.25332412 C60.192458,7.46144515 59.2109665,6.72350154 55.5250369,5.31707846 C54.4693986,5.77308397 53.4168224,6.25360469 52.5553459,8.57040445 C49.5359733,9.14571984 48.8013873,10.3045299 46.9874682,12.6973293 C44.7431896,15.396582 46.5204205,18.6114977 44.3900391,20.5548303 C41.7750329,18.8378661 38.4453096,22.3919252 36.8912893,20.1584828 C36.0512096,21.421893 36.133766,22.3763977 37.9308658,24.9996508 C40.277576,28.0184354 39.6224844,31.3943418 40.3800014,34.6027201 C40.7316241,36.0312088 40.8210623,37.4596968 41.7161713,38.8881842 C42.6036408,39.0769614 43.3657415,39.4005766 45.2056536,38.571107 C48.1699907,39.7282789 46.5211844,42.9636246 45.9478854,45.7135471 L46.0220322,49.3648562 L45.7995918,51.9832062 L46.6159703,55.634514 C46.8705153,57.4356527 47.0661987,59.4296443 47.5064956,60.6342211 L46.2452364,61.4285516 L44.2409816,64.9196808 L44.8341558,67.7774784 L43.2006348,69.7616765 C43.2006348,69.7616765 41.9393756,71.5080552 42.0127584,71.8251374 C42.0876691,72.1422071 41.1963799,73.8093167 41.1963799,73.8093167 C41.1963799,73.8093167 39.4894761,74.6028457 39.4145653,74.9199154 C39.3404186,75.2378117 38.9696847,76.5069358 38.9696847,76.5069358 L40.2309439,77.9354369 L40.5282949,79.2053876 L40.0085035,81.2688422 L39.7860632,84.2843575 L38.226689,85.9506594 L36.5939382,88.1734785 L36,89.8397804 L38.3749825,92.3788614 L38.3749825,93.9667021 L39.7860632,96.8236731 L40.0085035,99.2842992 L41.492967,103.64904 L41.7154074,106.744639 L40.7507353,110.31587 L39.4917742,111.665897 L39.4917742,111.665897 Z" id="Mendozaan_ss"></path>
        </g>
    </g>
</svg>