<?xml version="1.0" encoding="UTF-8"?>
<svg width="150px" height="150px" viewBox="0 0 150 150" version="1.1" xmlns="http://www.w3.org/2000/svg" xmlns:xlink="http://www.w3.org/1999/xlink">
    <!-- Generator: Sketch 41.1 (35376) - http://www.bohemiancoding.com/sketch -->
    <title>icon_caba</title>
    <desc>Created with Sketch.</desc>
    <defs></defs>
    <g id="Provincias" stroke="none" stroke-width="1" fill="none" fill-rule="evenodd">
        <g id="icon_caba" fill="#FFFFFF">
            <path d="M67.0958997,5.99187888 L68.3533636,6.22675002 L70.756818,5 L72.2563799,5.18789691 L73.0946892,6.27191754 L72.7207021,9.05423717 L72.3232279,9.73717016 L73.8444701,12.4960027 L74.3738335,12.5502037 L75.4325604,11.0650954 L76.4027588,11.2782862 L76.8002331,14.4143579 L77.8589599,14.6257419 L78.1679058,12.5037715 L78.74063,12.5941065 L79.7108285,14.1027019 L79.7288955,15.3764262 L80.9863594,17.3571125 L83.522787,18.8187337 L87.2942755,19.5034734 L88.5517394,21.1060172 L87.8688064,26.5291918 L97.5727784,33.9800269 L101.74156,39.9217247 L102.977344,40.1096216 L103.616916,41.0527195 C103.689184,41.0707865 103.743385,41.0707865 103.815653,41.1069206 C104.057751,41.1249876 104.366697,41.1972556 104.543754,41.1791886 C104.8527,41.1611216 105.116478,41.3056577 105.226687,41.4628407 C105.335089,41.6254438 105.20862,42.004851 105.190553,42.1710675 C105.154419,42.4547196 105.100218,42.7130778 105.064084,42.9732428 C105.046017,43.2334077 104.991816,43.4682788 104.955682,43.7284438 C104.937615,43.9886087 104.883414,44.2234799 104.84728,44.4836448 C104.811146,44.8377582 104.829213,44.9317067 104.883414,45.1665778 C104.955682,45.3111139 105.345929,45.3797686 105.457945,45.4267428 C105.700042,45.5532119 105.810251,45.6616139 105.987308,45.8043433 C106.252893,45.9922402 106.229406,45.9669464 106.252893,46.2993794 C106.27096,46.3897145 106.6052,46.6769799 106.650367,46.7474413 C106.831037,46.9823124 106.849104,47.2189902 107.134563,47.3834 C107.376661,47.5460031 107.707287,47.5460031 107.994553,47.5947841 C108.281818,47.6670521 108.523916,47.7212531 108.811182,47.7573871 C109.141808,47.8296552 109.275504,47.8838562 109.472434,48.0410392 C109.544702,48.1133073 109.803061,48.1133073 109.913269,48.1313743 L113.861092,53.2481323 L114.258566,50.6307645 L110.24498,46.1980235 C110.281114,45.8673972 110.407583,45.5620647 110.443717,45.2079513 C110.461784,45.0634152 110.479851,44.9008121 110.515985,44.7598894 L111.861977,45.0435415 L113.4049,47.0005601 L114.441946,47.1270292 L116.492733,46.2778797 L117.59482,47.6690395 L115.433464,48.4712147 L116.116397,49.5317483 L119.071437,48.3519725 L121.872546,51.7707929 L119.821399,52.5964553 L120.681388,53.8466924 L123.195413,52.5964553 L125.378811,54.6477836 L121.894227,56.4868246 L123.041482,57.7370618 L126.261565,55.8508659 L127.320292,57.4299226 L124.452877,59.3869412 L125.224338,60.566717 L128.025267,58.6568533 L127.844597,60.5432298 L125.573212,62.0753123 L126.035728,63.2532814 L128.108736,61.9795572 L128.571252,63.4881526 L124.99832,65.2804 L125.836629,67.9445614 L123.234257,68.817198 L123.143922,69.7368088 L125.393265,70.1613836 L124.797053,74.2877081 L126.495352,89.0479137 C126.513419,89.1201818 126.513419,89.1924498 126.513419,89.2611044 C126.549553,89.5917307 126.800685,89.5212694 127.064463,89.5917307 C127.306561,89.6459318 127.526979,89.6820658 127.770883,89.7362668 C128.079829,89.7904678 128.168357,89.6639988 128.432136,89.5917307 C128.630873,89.5194627 128.894651,89.6097977 129.115069,89.6639988 C129.402334,89.7181998 129.555904,89.8085349 129.709473,89.8771895 C129.872077,89.9494575 130.171989,90.0650864 130.349046,90.1608416 C130.657991,90.3053776 130.833241,90.4914679 131.077146,90.6089034 C131.340924,90.7534395 131.716718,90.7968003 132.003984,90.8437746 C132.246082,90.8979756 132.466499,90.9341096 132.710404,90.9883106 C132.997669,91.0425117 133.1946,91.0605787 133.371656,91.1996947 C133.53426,91.3442308 133.40779,91.9296019 133.389723,92.1427926 C133.353589,92.4029576 133.299388,92.6378287 133.263254,92.8979937 C133.22712,93.2521071 133.190986,93.3460555 133.55052,93.3930297 C133.792618,93.4472308 134.013035,93.4833648 134.25694,93.5375658 C134.419543,93.5556328 134.719455,93.3026947 134.807984,93.2069395 C134.988654,93.0624035 135.071762,92.8763132 135.270499,92.7119034 C135.490917,92.5493004 135.864904,92.6577024 136.108809,92.7119034 C136.417754,92.7841715 136.616492,92.8383725 136.85859,93.0190426 C137.189216,93.2539138 137.476481,93.4436174 137.873956,93.5140787 C138.072693,93.5682797 138.712265,94.1265504 138.822474,94.2223055 C139.003144,94.3487746 139.021211,94.4824705 139.042891,94.7173416 C139.079025,95.0949421 138.952556,95.2123777 138.667097,95.2358648 C138.336471,95.2900659 138.116053,95.2177978 137.807108,95.3081329 C137.56501,95.3804009 137.344592,95.4346019 137.277744,95.6622463 C137.205476,95.8501432 137.630051,95.9224112 137.630051,96.1103081 C137.557783,96.4644215 137.539716,96.5818571 137.895636,96.6053442 C138.247943,96.6776123 138.27143,97.1003803 138.381638,97.2665968 C138.544242,97.4797875 138.690584,97.7146587 138.800793,97.8555814 C139.021211,98.1627205 138.927262,98.4915401 139.109739,98.8456535 C139.200074,99.0082566 139.073605,99.4581252 139.037471,99.6478288 C138.965203,100.001942 139.019404,100.095891 138.706845,100.119378 C138.397899,100.137445 138.088953,100.04711 137.736646,99.9929087 C137.472868,99.9206407 137.207283,99.8664396 136.920017,99.8303056 C136.6996,99.7761046 136.522543,99.3587566 136.500863,99.2413211 C136.482796,99.029937 136.237084,98.8167463 136.148556,98.6758236 C135.985953,98.4644396 135.884778,98.5493546 135.707721,98.8203597 C135.527051,99.1022051 135.398775,99.150986 135.355414,99.5267798 C135.31928,99.833919 135.31928,100.021816 135.089829,100.188032 C134.909159,100.332568 134.780883,100.332568 134.582146,100.399416 C134.318368,100.489751 134.119631,99.8808932 134.052783,99.7634577 C133.854046,99.4798056 133.765517,99.1979602 133.655309,98.9143082 C133.546906,98.5836819 133.546906,98.5601948 133.192793,98.4897334 C132.950695,98.4716664 132.840486,99.0317437 132.773638,99.1979602 C132.665236,99.5050994 132.647169,99.8104319 132.592968,100.141058 C132.5207,100.542146 132.394231,100.636094 132.130453,100.943233 C131.778146,101.297347 131.512561,101.532218 131.160254,101.792383 C130.961517,101.936919 130.695932,101.98028 130.542363,102.050741 C130.255097,102.123009 130.101528,102.35788 129.837749,102.451829 C129.573971,102.524097 129.351747,102.50603 129.087968,102.524097 C129.051834,102.524097 128.997633,102.50603 128.961499,102.469896 L122.631722,94.2644017 L122.279415,96.6929692 L126.734559,102.328431 L126.770694,103.837027 L123.705083,106.076974 C123.596681,106.058907 123.506346,106.004706 123.396137,105.986639 C123.154039,105.914371 122.911941,106.317266 122.778246,106.387727 C122.536148,106.575624 122.227202,106.441928 121.874895,106.36966 C121.522588,106.315459 121.191962,106.243191 120.859529,106.181763 C120.507222,106.109495 120.176596,106.055294 119.822483,105.993866 C119.448495,105.921598 119.359967,106.156469 119.338287,106.559364 C119.266019,107.007426 119.266019,107.26759 119.32022,107.643384 C119.356354,108.13842 119.482823,108.185395 119.916431,108.255856 C120.225377,108.328124 120.079034,108.868328 120.079034,109.175467 C120.079034,109.412145 120.498189,109.670503 120.543356,109.977642 C120.561423,110.402217 120.362686,110.662382 120.256091,110.944227 C120.093488,111.321828 119.858617,111.439263 119.594838,111.62716 C119.329253,111.838544 119.154003,111.934299 118.955266,112.239632 C118.882998,112.329967 118.162124,112.167364 117.985068,112.113163 C117.544233,112.040895 117.609274,112.396815 117.367176,112.608199 C117.03655,112.84307 116.837812,113.009286 116.507186,113.173696 C116.308449,113.300165 115.999503,113.336299 115.779086,113.408567 C115.381611,113.535036 115.029305,113.786168 114.720359,113.880116 C114.368052,114.006585 114.190995,114.0915 113.88205,114.375152 C113.573104,114.658805 113.374367,114.729266 113.04374,114.94065 C112.669753,115.200815 112.669753,115.365225 112.228918,115.600096 C111.898292,115.762699 111.654387,116.283029 111.412289,116.472732 C111.103343,116.685923 110.904606,116.779872 110.640828,117.03823 C110.331882,117.345369 110.068104,117.486292 109.845879,117.627214 C109.558614,117.838598 109.316516,117.789817 109.074418,118.12225 C108.83232,118.452877 108.676944,118.570312 108.391485,118.593799 L103.495144,118.075276 L100.297284,119.750088 C100.225016,119.840423 100.098547,119.768155 99.9883377,119.768155 C99.9160697,119.894624 99.7462398,119.894624 99.6125439,119.930758 C99.5041419,120.118655 97.6495632,119.553158 97.164464,119.459209 C96.7669898,119.386941 96.4146831,119.314673 95.9955284,119.247825 C95.6649021,119.175557 95.3342758,119.121356 94.9801624,119.059928 C94.6278557,118.98766 94.2972294,118.915392 93.943116,118.872031 C93.5908093,118.799763 93.2818634,118.727495 92.92775,118.684134 C92.662165,118.629933 92.4417474,118.593799 92.1779691,118.539598 C91.9575516,118.485397 91.5383969,117.619988 91.2077706,117.479065 C91.1716366,117.460998 91.1174356,117.460998 91.0813015,117.460998 L80.9803973,115.621957 L78.5762202,116.776439 L63.4908084,131.843242 L49.7506662,145 L36.518207,127.575272 L12.5664098,95.8624287 L11,81.5974399 L15.9843269,51.7469444 L41.6781452,12.7950117 L67.1071012,6.00452579 L67.0958997,5.99187888 Z" id="Ciudad_Auton__ma_de_Buenos_Airess"></path>
        </g>
    </g>
</svg>