<?xml version="1.0" encoding="UTF-8"?>
<svg width="150px" height="150px" viewBox="0 0 150 150" version="1.1" xmlns="http://www.w3.org/2000/svg" xmlns:xlink="http://www.w3.org/1999/xlink">
    <!-- Generator: Sketch 41.1 (35376) - http://www.bohemiancoding.com/sketch -->
    <title>icon_rionegro</title>
    <desc>Created with Sketch.</desc>
    <defs></defs>
    <g id="Provincias" stroke="none" stroke-width="1" fill="none" fill-rule="evenodd">
        <g id="icon_rionegro" fill="#FFFFFF">
            <path d="M111.19927,119.36224 C110.999279,118.186324 111.14926,116.635549 111.14926,116.635549 L111.349251,116.4752 L111.099255,116.260696 L111.149265,115.833791 L111.799215,115.085486 L111.749206,113.375068 L111.54922,113.107823 L111.398571,109.41972 L111.899197,108.884517 L111.799205,108.296562 L111.249242,107.494798 L110.549292,106.264739 L110.049334,105.249873 L109.949341,104.020503 L109.599369,103.699799 L109.699351,102.30939 L109.349379,102.042134 L109.399389,101.774883 L109.199403,101.721424 L109.149394,99.8506513 L108.849431,99.6368484 L108.899441,98.3540363 L108.549469,98.4074951 L108.699461,96.7505252 L109.349401,94.8263043 L109.699373,93.7038363 L110.49932,92.9013775 L110.799299,92.0461604 L112.449834,92.2065153 L112.099857,91.5658125 L111.69988,91.0840527 L112.599826,90.9771512 L114.500335,91.5123591 C114.433231,92.1636189 114.09906,92.6798467 113.116237,92.5687095 C112.450497,92.4934522 112.267611,93.8065182 113.651068,93.6503829 L113.700377,93.2762305 L115.350918,93.2227716 L115.500899,93.7045261 C117.179732,93.7650014 117.154069,93.4689247 118.601316,94.3986661 L119.300613,94.3459079 L119.300613,94.7728185 L120.100555,94.8797146 L120.901155,95.5211234 L121.901083,95.8418224 L122.801007,96.8573889 L124.000926,96.9101472 L124.350898,97.3377638 L125.150834,97.1774035 L127.750646,98.6740185 L128.700575,99.6361317 L135.850691,99.5826729 C136.750626,99.0481656 140.550998,99.475766 140.550998,99.475766 L141.750901,98.7281672 C142.838981,97.8384875 143.427093,96.9340581 145,96.3911171 L143.150142,94.1813496 L141.664062,92.129124 L140.028018,91.267591 C138.244584,89.823718 134.973783,89.4390032 135.050097,88.0366363 L134.913912,60.4420699 L131.520091,59.1655845 L129.950471,56.4986795 L125.750139,53.6665103 L122.200398,52.3829922 L118.350033,50.8863664 L113.600384,49.6042602 L107.950154,49.3363033 L103.650481,49.9249538 L100.600058,49.2301024 L99.5501254,48.9093873 L98.7002004,49.2835504 L97.1503043,49.8180685 L95.7004227,49.8180685 L93.9505519,48.9628407 L88.1003362,48.6948892 L85.8498442,48.2679893 L84.8499165,48.0000431 L83.6500032,46.5568707 L82.9500592,45.5420101 L79.0003691,42.9763805 L77.4504677,42.9229217 L76.2005661,42.4952997 L75.3506249,41.9073551 L75.0013157,40.4641935 L74.2007161,39.6089765 L72.1008841,39.502075 L69.4510676,39.6089765 L68.1011733,39.2882775 L64.8007652,38.4858079 L64.1014787,37.7375084 L62.8515664,36.1874346 L61.6016648,34.2097711 L63.7015076,30.5209782 L64.5014498,28.0622339 L64.3514633,26.5656296 L63.8508366,25.6035219 L63.1008989,24.6414034 L62.3509504,24 L61.4010218,24.1610555 L60.551086,24.5879661 L59.3011898,24.4276058 L58.051935,24.053448 L56.0514221,24.267251 L57.3013344,49.925649 L58.201264,51.5284595 L59.0012007,53.3464903 L59.25118,55.2700052 L60.1511149,56.8200629 L59.9011303,57.5149143 L58.000621,57.5683731 L56.5507339,58.3708265 L54.8008577,59.6001906 L52.6510159,59.8139989 L51.5011071,60.6692052 L50.2005598,63.3424423 L47.7007352,67.9391889 L40.5006198,74.1936167 L38.9007409,76.3850832 L36.8008981,77.3471963 L36.0003039,77.2937375 L35.2003617,78.3634472 L34.400425,79.3248598 L32.4999049,80.1807667 L31.8999536,81.3566827 L32.4505686,85.7937858 L31.3006545,86.7558935 L31.1500052,88.5197649 L30.1494254,91.2991974 L28.2995619,93.1172282 L23.4492685,94.6138379 L20.2495107,96.003546 L19.2495884,96.4853059 L17.7497022,98.3026361 L16.899761,100.281006 L17.3997248,102.686286 L17.8503524,104.98537 L17.2003967,105.946772 L15.9504952,107.123383 L12.9007222,107.176842 L5.70060577,107.978595 L5.25063938,109.582106 L5,112.094282 L6.24990585,115.568577 L6.84986139,118.348004 L7.4498164,122.785113 L8.89970725,125.190382 L8.99970056,126.901506 C56.7053387,123.036956 76.2084664,119.507117 111.19927,119.36224 Z" id="R__o_Negronan_ss"></path>
        </g>
    </g>
</svg>