<?xml version="1.0" encoding="UTF-8" standalone="no"?>
<svg width="32px" height="32px" viewBox="0 0 32 32" version="1.1" xmlns="http://www.w3.org/2000/svg" xmlns:xlink="http://www.w3.org/1999/xlink" xmlns:sketch="http://www.bohemiancoding.com/sketch/ns">
    <!-- Generator: Sketch 3.1 (8751) - http://www.bohemiancoding.com/sketch -->
    <title>Artboard 1</title>
    <desc>Created with Sketch.</desc>
    <defs></defs>
    <g id="Page-1" stroke="none" stroke-width="1" fill="none" fill-rule="evenodd" sketch:type="MSPage">
        <g id="Artboard-1" sketch:type="MSArtboardGroup" fill="#FFFFFF">
            <path d="M2.742,24.26 L2.742,26.26 C2.742,26.536 2.966,26.76 3.242,26.76 L28.242,26.76 C28.519,26.76 28.742,26.536 28.742,26.26 L28.742,24.26 C28.742,23.984 28.519,23.76 28.242,23.76 L3.242,23.76 C2.966,23.76 2.742,23.984 2.742,24.26" id="Fill-1" sketch:type="MSShapeGroup"></path>
            <path d="M30.242,27.76 L1.242,27.76 C0.966,27.76 0.742,27.984 0.742,28.26 L0.742,30.26 C0.742,30.536 0.966,30.76 1.242,30.76 L30.242,30.76 C30.518,30.76 30.742,30.536 30.742,30.26 L30.742,28.26 C30.742,27.984 30.518,27.76 30.242,27.76" id="Fill-2" sketch:type="MSShapeGroup"></path>
            <path d="M7.242,22.76 C7.519,22.76 7.742,22.536 7.742,22.26 L7.742,13.26 C7.742,12.984 7.519,12.76 7.242,12.76 L5.242,12.76 C4.966,12.76 4.742,12.984 4.742,13.26 L4.742,22.26 C4.742,22.536 4.966,22.76 5.242,22.76 L7.242,22.76" id="Fill-3" sketch:type="MSShapeGroup"></path>
            <path d="M13.242,22.76 C13.519,22.76 13.742,22.536 13.742,22.26 L13.742,13.26 C13.742,12.984 13.519,12.76 13.242,12.76 L11.242,12.76 C10.966,12.76 10.742,12.984 10.742,13.26 L10.742,22.26 C10.742,22.536 10.966,22.76 11.242,22.76 L13.242,22.76" id="Fill-4" sketch:type="MSShapeGroup"></path>
            <path d="M20.242,22.76 C20.519,22.76 20.742,22.536 20.742,22.26 L20.742,13.26 C20.742,12.984 20.519,12.76 20.242,12.76 L18.242,12.76 C17.966,12.76 17.742,12.984 17.742,13.26 L17.742,22.26 C17.742,22.536 17.966,22.76 18.242,22.76 L20.242,22.76" id="Fill-5" sketch:type="MSShapeGroup"></path>
            <path d="M26.242,22.76 C26.519,22.76 26.742,22.536 26.742,22.26 L26.742,13.26 C26.742,12.984 26.519,12.76 26.242,12.76 L24.242,12.76 C23.966,12.76 23.742,12.984 23.742,13.26 L23.742,22.26 C23.742,22.536 23.966,22.76 24.242,22.76 L26.242,22.76" id="Fill-6" sketch:type="MSShapeGroup"></path>
            <path d="M2.242,11.76 L29.242,11.76 C29.519,11.76 29.742,11.536 29.742,11.26 L29.742,8.26 C29.742,7.984 29.519,7.76 29.242,7.76 L2.242,7.76 C1.966,7.76 1.742,7.984 1.742,8.26 L1.742,11.26 C1.742,11.536 1.966,11.76 2.242,11.76" id="Fill-7" sketch:type="MSShapeGroup"></path>
            <path d="M2.242,6.76 L29.242,6.76 L29.252,6.76 C29.528,6.76 29.752,6.536 29.752,6.26 C29.752,6.024 29.588,5.826 29.369,5.774 L15.916,0.791 C15.804,0.75 15.681,0.75 15.569,0.791 L2.069,5.791 C1.841,5.875 1.708,6.11 1.75,6.348 C1.793,6.587 2,6.76 2.242,6.76" id="Fill-8" sketch:type="MSShapeGroup"></path>
        </g>
    </g>
</svg>