<?xml version="1.0" encoding="utf-8"?>
<!-- Generator: Adobe Illustrator 17.0.0, SVG Export Plug-In . SVG Version: 6.00 Build 0)  -->
<!DOCTYPE svg PUBLIC "-//W3C//DTD SVG 1.1//EN" "http://www.w3.org/Graphics/SVG/1.1/DTD/svg11.dtd">
<svg version="1.1" id="Layer_1" xmlns:sketch="http://www.bohemiancoding.com/sketch/ns"
	 xmlns="http://www.w3.org/2000/svg" xmlns:xlink="http://www.w3.org/1999/xlink" x="0px" y="0px" width="1280px" height="1000px"
	 viewBox="0 0 1280 1000" enable-background="new 0 0 1280 1000" xml:space="preserve">
<g>
	<rect x="314.494" y="80.723" fill="#FFF6D9" width="659.237" height="839.028"/>
	<rect x="404.39" y="290.48" fill="#E2D6B3" width="479.445" height="29.965"/>
	<rect x="404.39" y="380.376" fill="#E2D6B3" width="479.445" height="29.965"/>
	<rect x="404.39" y="470.272" fill="#E2D6B3" width="479.445" height="29.965"/>
	<rect x="404.39" y="560.168" fill="#E2D6B3" width="479.445" height="29.965"/>
	<rect x="404.39" y="650.064" fill="#E2D6B3" width="479.445" height="29.965"/>
	<rect x="404.39" y="739.96" fill="#E2D6B3" width="479.445" height="29.965"/>
	<g>
		<path fill="#4DBADF" d="M31.668,401.963l87.524,147.807L12.836,645.033c118.858,37.678,181.796,31.341,301.658,29.195V442.876
			C224.598,444.667,131.49,435.472,31.668,401.963z"/>
		<path fill="#FFFFFF" d="M88.564,498.047l30.628,51.724l-32.476,29.088c78.586,17.966,137.881,19.564,227.777,18.077v-76.884
			C224.598,521.494,165.278,516.201,88.564,498.047z"/>
		<path fill="#4DBADF" d="M1248.527,652.773l-91.539-147.807l112.378-95.262c-118.858-37.678-205.739-31.341-295.635-29.195V611.86
			C1063.627,610.068,1148.705,619.264,1248.527,652.773z"/>
		<path fill="#FFFFFF" d="M1188.095,554.612l-31.107-49.647l35.525-29.638c-78.586-17.966-158.852-19.014-218.782-17.527v76.884
			C1033.661,533.242,1111.38,536.458,1188.095,554.612z"/>
		<path fill="#009AC4" d="M171.887,505.069l142.607-62.955v54.592C224.598,510.587,171.887,505.069,171.887,505.069z"/>
		<path fill="#009AC4" d="M1094.066,546.778L973.731,611.86v-67.906C973.731,543.954,1056.334,540.543,1094.066,546.778z"/>
		<path fill="#88D1EA" d="M202.345,726.159c-14.477,0-29.132-0.43-44.003-1.362l13.545-219.728
			c122.513,7.31,229.618-31.569,354.067-76.79c159.744-58.085,340.701-123.982,586.659-100.655l-20.712,219.155
			c-196.616-18.526-339.411,33.432-490.734,88.4C477.973,679.97,350.909,726.159,202.345,726.159z"/>
		<path fill="#FFFFFF" d="M202.847,652.773c-13.151,0-26.481-0.394-39.99-1.218l4.515-73.243
			c137.277,8.313,256.995-35.045,383.665-81.054c152.434-55.47,325.221-118.213,554.66-96.57l-6.88,73.028
			C885.575,453.72,728.375,510.874,576.12,566.2C453.965,610.633,337.973,652.773,202.847,652.773z"/>
	</g>
</g>
</svg>
