<?xml version="1.0" encoding="utf-8"?>
<!-- Generator: Adobe Illustrator 17.1.0, SVG Export Plug-In . SVG Version: 6.00 Build 0)  -->
<!DOCTYPE svg PUBLIC "-//W3C//DTD SVG 1.1//EN" "http://www.w3.org/Graphics/SVG/1.1/DTD/svg11.dtd">
<svg version="1.1" id="Layer_1" xmlns="http://www.w3.org/2000/svg" xmlns:xlink="http://www.w3.org/1999/xlink" x="0px" y="0px"
	 viewBox="0 0 300 50" enable-background="new 0 0 300 50" xml:space="preserve">
<g>
	<g>
		<path fill="#264F64" d="M86.1,17c4.4,0,6.5,2.5,6.5,2.5l-1.6,2.3c0,0-1.9-2-4.8-2c-3.5,0-6.1,2.6-6.1,6.2c0,3.5,2.5,6.3,6.2,6.3
			c3.2,0,5.4-2.3,5.4-2.3l1.3,2.4c0,0-2.4,2.8-7,2.8c-5.5,0-9.3-3.9-9.3-9.1C76.8,20.9,80.6,17,86.1,17z"/>
		<path fill="#264F64" d="M104.1,17c5.2,0,9.4,3.8,9.4,9.1c0,5.3-4.2,9.2-9.4,9.2c-5.2,0-9.4-3.9-9.4-9.2
			C94.7,20.8,98.9,17,104.1,17z M104.1,32.3c3.3,0,6-2.6,6-6.3c0-3.6-2.7-6.2-6-6.2c-3.3,0-6,2.6-6,6.2
			C98.1,29.7,100.8,32.3,104.1,32.3z"/>
		<path fill="#264F64" d="M116.6,17.4h3.2v2.3c0,0.7-0.1,1.3-0.1,1.3h0.1c0.7-1.5,2.8-4,6.5-4c4.1,0,6,2.2,6,6.7v11.2H129V24.4
			c0-2.4-0.5-4.4-3.3-4.4c-2.7,0-4.8,1.8-5.5,4.3c-0.2,0.7-0.3,1.5-0.3,2.3v8.2h-3.3V17.4z"/>
		<path fill="#264F64" d="M136.7,30.3c0,0,2,2,5,2c1.4,0,2.9-0.8,2.9-2.2c0-3.2-9-2.5-9-8.2c0-3.2,2.8-5,6.3-5
			c3.8,0,5.6,1.9,5.6,1.9l-1.3,2.5c0,0-1.5-1.5-4.3-1.5c-1.4,0-2.9,0.6-2.9,2.1c0,3.1,9,2.4,9,8.2c0,2.9-2.5,5.1-6.3,5.1
			c-4.3,0-6.6-2.5-6.6-2.5L136.7,30.3z"/>
		<path fill="#264F64" d="M151.8,20.3h-2.3v-2.7h2.4v-5h3.2v5h4.2v2.7h-4.2v7.7c0,3.5,2.4,3.9,3.7,3.9c0.5,0,0.8-0.1,0.8-0.1v3
			c0,0-0.5,0.1-1.2,0.1c-2.2,0-6.7-0.7-6.7-6.5V20.3z"/>
		<path fill="#264F64" d="M162.5,10.5h3.4v3.4h-3.4V10.5z M162.5,17.4h3.3v17.4h-3.3V17.4z"/>
		<path fill="#264F64" d="M171,20.3h-2.3v-2.7h2.4v-5h3.2v5h4.2v2.7h-4.2v7.7c0,3.5,2.4,3.9,3.7,3.9c0.5,0,0.8-0.1,0.8-0.1v3
			c0,0-0.5,0.1-1.2,0.1c-2.2,0-6.7-0.7-6.7-6.5V20.3z"/>
		<path fill="#264F64" d="M181.5,17.4h3.3v10.4c0,2.4,0.5,4.3,3.3,4.3c3.5,0,5.6-3.1,5.6-6.6v-8.2h3.3v17.4h-3.2v-2.3
			c0-0.7,0.1-1.3,0.1-1.3h-0.1c-0.7,1.7-3,4-6.4,4c-3.9,0-6-2.1-6-6.7V17.4z"/>
		<path fill="#264F64" d="M209.5,17c4.4,0,6.5,2.5,6.5,2.5l-1.6,2.3c0,0-1.9-2-4.8-2c-3.5,0-6.1,2.6-6.1,6.2c0,3.5,2.5,6.3,6.2,6.3
			c3.2,0,5.4-2.3,5.4-2.3l1.3,2.4c0,0-2.4,2.8-7,2.8c-5.5,0-9.3-3.9-9.3-9.1C200.2,20.9,204,17,209.5,17z"/>
		<path fill="#264F64" d="M219.4,10.5h3.4v3.4h-3.4V10.5z M219.4,17.4h3.3v17.4h-3.3V17.4z"/>
		<path fill="#264F64" d="M235.2,17c5.2,0,9.4,3.8,9.4,9.1c0,5.3-4.2,9.2-9.4,9.2s-9.4-3.9-9.4-9.2C225.8,20.8,230,17,235.2,17z
			 M235.2,32.3c3.3,0,6-2.6,6-6.3c0-3.6-2.7-6.2-6-6.2c-3.3,0-6,2.6-6,6.2C229.2,29.7,232,32.3,235.2,32.3z"/>
		<path fill="#264F64" d="M247.7,17.4h3.2v2.3c0,0.7-0.1,1.3-0.1,1.3h0.1c0.7-1.5,2.8-4,6.5-4c4.1,0,6,2.2,6,6.7v11.2h-3.3V24.4
			c0-2.4-0.5-4.4-3.3-4.4c-2.7,0-4.8,1.8-5.5,4.3c-0.2,0.7-0.3,1.5-0.3,2.3v8.2h-3.3V17.4z"/>
		<path fill="#264F64" d="M267.6,31.3h3.5v3.5h-3.5V31.3z"/>
		<path fill="#264F64" d="M285.2,24.3h1.1v-0.6c0-3.8-2-5.1-4.7-5.1c-3,0-4.9,1.7-4.9,1.7l-0.8-1.2c0,0,2.1-1.9,5.8-1.9
			c4,0,6.1,2.2,6.1,6.5v11.1h-1.4v-2.3c0-0.9,0.1-1.5,0.1-1.5h-0.1c0,0-1.5,4.2-6,4.2c-2.8,0-5.9-1.5-5.9-5
			C274.5,24.4,282.1,24.3,285.2,24.3z M280.4,33.9c3.8,0,5.9-3.9,5.9-7.3v-0.9h-1.1c-2.9,0-9.2,0-9.2,4.5
			C276,32,277.5,33.9,280.4,33.9z"/>
		<path fill="#264F64" d="M293.4,10.7h1.4v20.2c0,2.4,1.2,2.7,2,2.7c0.3,0,0.5,0,0.5,0v1.3c0,0-0.3,0.1-0.6,0.1
			c-1,0-3.4-0.4-3.4-3.6V10.7z"/>
	</g>
</g>
<g>
	<rect x="17" y="2.8" fill="#FFF6D9" width="34" height="44"/>
	<rect x="21" y="13.8" fill="#E2D6B3" width="25" height="2"/>
	<rect x="21" y="18.8" fill="#E2D6B3" width="25" height="1"/>
	<rect x="21" y="22.8" fill="#E2D6B3" width="25" height="2"/>
	<rect x="21" y="27.8" fill="#E2D6B3" width="25" height="2"/>
	<rect x="21" y="32.8" fill="#E2D6B3" width="25" height="1"/>
	<rect x="21" y="36.8" fill="#E2D6B3" width="25" height="2"/>
	<g>
		<path fill="#4DBADF" d="M2.1,19.6l4.5,7.7l-5.4,5c6.2,2,8.9,1.6,15.9,1.5V21.7C12,21.8,7.3,21.4,2.1,19.6z"/>
		<path fill="#FFFFFF" d="M5,24.6l1.5,2.7L5,28.8c4.1,0.9,7,1,12,0.9v-4C12,25.8,9.1,25.6,5,24.6z"/>
		<path fill="#4DBADF" d="M65.4,32.7L60.7,25l5.8-5C60.3,18,56,18.4,51,18.5v12.1C56,30.5,60.2,31,65.4,32.7z"/>
		<path fill="#FFFFFF" d="M62.2,27.6L60.7,25l1.8-1.5c-4.1-0.9-8.5-1-11.5-0.9v4C54,26.5,58.2,26.6,62.2,27.6z"/>
		<path fill="#009AC4" d="M9.6,25l7.4-3.3v2.9C12,25.3,9.6,25,9.6,25z"/>
		<path fill="#009AC4" d="M57.3,27.2L51,30.6V27C51,27,55.3,26.8,57.3,27.2z"/>
		<path fill="#88D1EA" d="M10.8,36.5c-0.8,0-1.5,0-2.3-0.1L9.2,25c6.4,0.4,12-1.6,18.5-4c8.3-3,17.8-6.5,30.6-5.3l-1.1,11.4
			c-10.3-1-17.7,1.7-25.6,4.6C25.2,34.1,18.6,36.5,10.8,36.5z"/>
		<path fill="#FFFFFF" d="M10.9,32.7c-0.7,0-1.4,0-2.1-0.1L9,28.8c7.2,0.4,13.4-1.8,20-4.2c8-2.9,17-6.2,29-5l-0.4,3.8
			c-11.1-1-19.3,1.9-27.3,4.8C24,30.5,17.9,32.7,10.9,32.7z"/>
	</g>
</g>
</svg>
