<?xml version="1.0" encoding="utf-8"?>
<!-- Generator: Adobe Illustrator 17.1.0, SVG Export Plug-In . SVG Version: 6.00 Build 0)  -->
<!DOCTYPE svg PUBLIC "-//W3C//DTD SVG 1.1//EN" "http://www.w3.org/Graphics/SVG/1.1/DTD/svg11.dtd">
<svg version="1.1" id="Layer_1" xmlns="http://www.w3.org/2000/svg" xmlns:xlink="http://www.w3.org/1999/xlink" x="0px" y="0px"
	 viewBox="0 0 500 100" enable-background="new 0 0 500 100" xml:space="preserve">
<path fill="#264F64" d="M138,31.7c4.7,0,8.3,1.9,11.1,5.4c0.5,0.6,0.4,1.6-0.3,2.1l-2.5,2.3c-0.9,0.9-1.5,0.3-2-0.3
	c-1.4-1.5-3.7-2.9-6.2-2.9c-5.1,0-9,4.2-9,9.5s3.8,9.5,8.8,9.5c3.9,0,5.6-2,7.2-3.5c0.6-0.6,1.4-0.6,2-0.1l2,1.6
	c0.8,0.6,1.1,1.4,0.5,2.1c-2.4,3.9-6.6,6.4-11.9,6.4c-8.6,0-16-6.8-16-16C121.9,38.9,129.6,31.7,138,31.7z"/>
<path fill="#264F64" d="M168,31.7c8.6,0,15.5,7.3,15.5,16c0,8.8-6.9,16.2-15.5,16.2s-15.5-7.3-15.5-16.2
	C152.5,39,159.4,31.7,168,31.7z M168,57.3c4.8,0,8.7-4.3,8.7-9.6c0-5.2-3.8-9.3-8.7-9.3s-8.7,4.2-8.7,9.3
	C159.3,53,163.2,57.3,168,57.3z"/>
<path fill="#264F64" d="M188.3,33.9c0-0.8,0.6-1.5,1.5-1.5h2.3c0.6,0,1.1,0.4,1.3,0.9l0.9,2.7c0.5-0.6,4.7-4.3,10.7-4.3
	c9.3,0,12.9,6.6,12.9,14.7v15.4c0,0.8-0.6,1.5-1.5,1.5H212c-0.9,0-1.5-0.6-1.5-1.5V45.9c0-4.9-2.4-7.6-6.4-7.6
	c-4.8,0-8.2,3.5-8.6,4.7v18.7c0,1-0.5,1.5-1.8,1.5h-4c-0.8,0-1.5-0.6-1.5-1.5L188.3,33.9L188.3,33.9z"/>
<path fill="#264F64" d="M222.8,59.2l1.6-3c0.3-0.6,1.1-0.9,1.9-0.4c0,0,3.4,2,7.2,2c2.3,0,3.8-0.9,3.8-2.7c0-2-1.6-3-5.9-5.1
	c-4.8-2-8.7-5.1-8.7-10.1c0-3.8,3.2-8.5,10.5-8.5c4.3,0,7.6,1.4,9.1,2.4c0.6,0.5,1.1,1.5,0.6,2.3l-1.4,2.7c-0.4,0.6-1.4,0.9-2,0.6
	c0,0-3.4-1.6-6.3-1.6c-2.7,0-3.4,1.1-3.4,2.3c0,2,1.9,2.9,4.9,4.2c5.6,2.4,10.2,4.8,10.2,10.6c0,4.8-4.5,9-11.4,9
	c-5.2,0-8.6-1.9-10.1-3.2C222.8,60.5,222.5,59.8,222.8,59.2z"/>
<path fill="#264F64" d="M251.4,38.9h-3.3c-0.9,0-1.5-0.6-1.5-1.5V34c0-0.9,0.6-1.5,1.5-1.5h3.3v-8.6c0-0.8,0.6-1.5,1.5-1.5l4.4-0.1
	c0.8,0,1.4,0.6,1.4,1.5v8.6h7.8c0.9,0,1.5,0.6,1.5,1.5v3.4c0,0.8-0.6,1.5-1.5,1.5h-7.8V54c0,2.7,1,3,2.4,3c1.6,0,3.8-0.9,4.7-1.4
	c1-0.5,1.5,0,1.8,0.6l1.4,3.4c0.4,0.9,0.1,1.5-0.6,1.9c-0.8,0.5-5.3,2.3-9,2.3c-6.1,0-7.8-3.7-7.8-9.1L251.4,38.9L251.4,38.9z"/>
<path fill="#264F64" d="M271.2,24.2c0-2.5,1.9-4.5,4.4-4.5s4.5,2,4.5,4.5c0,2.4-2,4.4-4.5,4.4C273.1,28.7,271.2,26.7,271.2,24.2z
	 M272.1,33.9c0-0.8,0.6-1.5,1.5-1.5h4.4c0.8,0,1.5,0.6,1.5,1.5v27.8c0,0.8-0.6,1.5-1.5,1.5h-4.4c-0.8,0-1.5-0.6-1.5-1.5V33.9z"/>
<path fill="#264F64" d="M288.5,38.9h-3.3c-0.9,0-1.5-0.6-1.5-1.5V34c0-0.9,0.6-1.5,1.5-1.5h3.3v-8.6c0-0.8,0.6-1.5,1.5-1.5l4.4-0.1
	c0.8,0,1.4,0.6,1.4,1.5v8.6h7.8c0.9,0,1.5,0.6,1.5,1.5v3.4c0,0.8-0.6,1.5-1.5,1.5h-7.8V54c0,2.7,1,3,2.4,3c1.6,0,3.8-0.9,4.7-1.4
	c1-0.5,1.5,0,1.8,0.6l1.4,3.4c0.4,0.9,0.1,1.5-0.6,1.9c-0.8,0.5-5.3,2.3-9,2.3c-6.1,0-7.8-3.7-7.8-9.1L288.5,38.9L288.5,38.9z"/>
<path fill="#264F64" d="M310.3,33.9c0-0.8,0.6-1.5,1.5-1.5h4.4c0.8,0,1.5,0.6,1.5,1.5v15.8c0,5.1,2.4,7.7,6.3,7.7
	c4.5,0,7.3-3.7,7.6-5.1V33.9c0-1.3,0.6-1.5,1.6-1.5h4c0.8,0,1.5,0.6,1.5,1.5v27.8c0,0.8-0.6,1.5-1.5,1.5h-2.1
	c-0.8,0-1.1-0.5-1.4-1.3l-0.8-2.3c-0.6,0.6-3.9,4.2-10.1,4.2c-9.2,0-12.5-6.6-12.5-14.5V33.9L310.3,33.9z"/>
<path fill="#264F64" d="M359.7,31.7c4.7,0,8.3,1.9,11.1,5.4c0.5,0.6,0.4,1.6-0.3,2.1l-2.5,2.3c-0.9,0.9-1.5,0.3-2-0.3
	c-1.4-1.5-3.7-2.9-6.2-2.9c-5.1,0-9,4.2-9,9.5s3.8,9.5,8.8,9.5c3.9,0,5.6-2,7.2-3.5c0.6-0.6,1.4-0.6,2-0.1l2,1.6
	c0.8,0.6,1.1,1.4,0.5,2.1c-2.4,3.9-6.6,6.4-11.9,6.4c-8.6,0-16-6.8-16-16C343.5,38.9,351.1,31.7,359.7,31.7z"/>
<path fill="#264F64" d="M375.5,24.2c0-2.5,1.9-4.5,4.4-4.5s4.5,2,4.5,4.5c0,2.4-2,4.4-4.5,4.4C377.5,28.7,375.5,26.7,375.5,24.2z
	 M376.3,33.9c0-0.8,0.6-1.5,1.5-1.5h4.4c0.8,0,1.5,0.6,1.5,1.5v27.8c0,0.8-0.6,1.5-1.5,1.5h-4.4c-0.8,0-1.5-0.6-1.5-1.5V33.9z"/>
<path fill="#264F64" d="M404,31.7c8.6,0,15.5,7.3,15.5,16c0,8.8-6.9,16.2-15.5,16.2s-15.5-7.3-15.5-16.2
	C388.5,39,395.4,31.7,404,31.7z M404,57.3c4.8,0,8.7-4.3,8.7-9.6c0-5.2-3.8-9.3-8.7-9.3s-8.7,4.2-8.7,9.3
	C395.4,53,399.2,57.3,404,57.3z"/>
<path fill="#264F64" d="M424.5,33.9c0-0.8,0.6-1.5,1.5-1.5h2.3c0.6,0,1.1,0.4,1.3,0.9l0.9,2.7c0.5-0.6,4.7-4.3,10.7-4.3
	c9.3,0,12.9,6.6,12.9,14.7v15.4c0,0.8-0.6,1.5-1.5,1.5h-4.4c-0.9,0-1.5-0.6-1.5-1.5V45.9c0-4.9-2.4-7.6-6.4-7.6
	c-4.8,0-8.2,3.5-8.6,4.7v18.7c0,1-0.5,1.5-1.8,1.5h-4c-0.8,0-1.5-0.6-1.5-1.5L424.5,33.9L424.5,33.9z"/>
<path fill="#264F64" d="M473,43.3c3.5,0,6.9,1.1,7.7,1.4c0-6.8-0.6-10.1-6.8-10.1c-5.1,0-8.6,1.9-9.2,2c-0.6,0.3-1-0.1-1.1-0.6
	l-0.4-0.9c-0.3-0.6,0.1-1,0.5-1.1c0.3-0.1,4.2-2.3,10.5-2.3c9.3,0,9.7,5.6,9.7,13.5v17.1c0,0.5-0.5,1-1,1H482
	c-0.5,0-0.8-0.3-0.9-0.9l-0.3-2.8c-2,1.9-5.8,4.4-10.7,4.4c-5.7,0-10.1-3.9-10.1-10.2C460.1,47.8,464.9,43.3,473,43.3z M470.6,61
	c4.7,0,8.7-2.9,10.2-4.8v-8.5c-1-0.5-4-1.6-7.7-1.6c-5.8,0-9.7,3-9.7,7.6C463.3,58.1,466.3,61,470.6,61z"/>
<path fill="#264F64" d="M492.6,10.3c0-0.5,0.5-1,1-1h1.4c0.5,0,1,0.5,1,1v51.8c0,0.6-0.3,1-1,1h-1.5c-0.5,0-0.9-0.5-0.9-1V10.3
	L492.6,10.3z"/>
<g>
	<rect x="27.8" y="6.6" fill="#FFF6D9" width="57.1" height="73.1"/>
	<rect x="35.8" y="34" fill="#E2D6B3" width="42.3" height="2.3"/>
	<rect x="35.8" y="26" fill="#E2D6B3" width="42.3" height="2.3"/>
	<rect x="35.8" y="50" fill="#E2D6B3" width="42.3" height="2.3"/>
	<rect x="35.8" y="58" fill="#E2D6B3" width="42.3" height="2.3"/>
	<rect x="35.8" y="66" fill="#E2D6B3" width="42.3" height="2.3"/>
	<g>
		<path fill="#4DBADF" d="M3.6,35.4l7.5,12.7l-9.2,8.2C12,59.5,18.5,59,27.7,58.8V38.9C20.9,39.2,12.1,38.4,3.6,35.4z"/>
		<path fill="#FFFFFF" d="M8.5,43.7l2.7,4.5l-2.9,2.5c6.7,1.5,12.6,1.6,19.4,1.5v-6.6C20.9,45.7,15.1,45.2,8.5,43.7z"/>
		<path fill="#4DBADF" d="M108.4,57l-7.9-12.7l9.7-8.2c-10.3-3.2-17.4-2.6-25.4-2.5v19.9C92.9,53.3,99.8,54.1,108.4,57z"/>
		<path fill="#FFFFFF" d="M103.1,48.5l-2.6-4.2l3.1-2.5c-6.7-1.6-14.2-1.7-18.7-1.6v6.6C89.4,46.7,96.6,47,103.1,48.5z"/>
		<path fill="#009AC4" d="M15.6,44.3l12.2-5.4v4.7C20.9,44.7,15.6,44.3,15.6,44.3z"/>
		<path fill="#009AC4" d="M95.3,47.8l-10.4,5.6v-5.8C84.9,47.6,92,47.4,95.3,47.8z"/>
		<path fill="#88D1EA" d="M18.4,63.2c-1.3,0-2.5,0-3.8-0.1l1.1-18.8c10.5,0.6,19.8-2.7,30.4-6.6c13.7-5,29.2-10.6,50.4-8.7
			l-1.8,18.8c-16.9-1.6-29.1,2.9-42.1,7.7C42.1,59.4,31.2,63.2,18.4,63.2z"/>
		<path fill="#FFFFFF" d="M18.4,57c-1.1,0-2.3,0-3.4-0.1l0.3-6.3c11.8,0.7,22-3,33-7c13.1-4.8,28-10.2,47.6-8.3l-0.6,6.3
			c-18.3-1.7-31.9,3.2-44.9,8C40,53.3,30.1,57,18.4,57z"/>
	</g>
</g>
</svg>
