<?xml version="1.0" encoding="utf-8"?>
<!-- Generator: Adobe Illustrator 17.1.0, SVG Export Plug-In . SVG Version: 6.00 Build 0)  -->
<!DOCTYPE svg PUBLIC "-//W3C//DTD SVG 1.1//EN" "http://www.w3.org/Graphics/SVG/1.1/DTD/svg11.dtd">
<svg version="1.1" id="Layer_1" xmlns:sketch="http://www.bohemiancoding.com/sketch/ns"
	 xmlns="http://www.w3.org/2000/svg" xmlns:xlink="http://www.w3.org/1999/xlink" x="0px" y="0px" viewBox="0 0 1280 1000"
	 enable-background="new 0 0 1280 1000" xml:space="preserve">
<path fill="#4DB8DE" d="M641.2,733.6c-48.6,29.8-107,44.9-169.3,39.3c-128.5-11.6-234.2-114.9-248.3-243.1
	c-18.4-166.3,111.3-307,273.9-307c51.9,0,100.5,14.4,141.9,39.4c33,19.9,75.6,12.9,102.8-14.3l19.7-19.7
	c46.9-46.9,25.3-129.4-39.6-143.2c-0.5-0.1-0.9-0.2-1.4-0.3l-2.1-0.4c-30.3-6.2-59.1-18.2-85-35.2l-1.8-1.2
	C591.2,21,544.3,7.5,497.4,7.5c-46.9,0-93.7,13.4-134.6,40.3L361,49c-25.8,17-54.7,28.9-85,35.2l-2.1,0.4
	c-95.7,19.7-170.6,94.6-190.3,190.3l-0.4,2.1C77,307.4,65.1,336.2,48,362l-1.2,1.8c-53.7,81.6-53.7,187.4,0,269l1.2,1.8
	c17,25.9,29,54.8,35.3,85.1l0.4,2.1c19.7,95.7,94.6,170.6,190.3,190.3l2.1,0.4c30.3,6.2,59.1,18.2,85,35.2l1.8,1.2
	c81.7,53.7,187.5,53.7,269.1,0l1.8-1.2c25.8-17,54.7-28.9,85-35.2l2.1-0.4c1.8-0.4,3.6-0.8,5.4-1.2c65.2-15,87.2-97.3,39.9-144.6
	l-19.9-19.9C718.3,718.5,674.9,712.9,641.2,733.6z"/>
<g opacity="0.5">
	<linearGradient id="SVGID_1_" gradientUnits="userSpaceOnUse" x1="323.9128" y1="324.8307" x2="472.449" y2="176.2945">
		<stop  offset="0" style="stop-color:#FFFFFF;stop-opacity:0"/>
		<stop  offset="0.2584" style="stop-color:#C1C1C1;stop-opacity:0.2584"/>
		<stop  offset="0.8528" style="stop-color:#272727;stop-opacity:0.8528"/>
		<stop  offset="1" style="stop-color:#000000"/>
	</linearGradient>
	<path opacity="0.3" fill="url(#SVGID_1_)" d="M351.3,55.1C310.2,79.4,274,84.6,274,84.6c-47.9,9.9-90.5,33.5-123.6,66.7
		l347.1,347.1L351.3,55.1z"/>
	<linearGradient id="SVGID_2_" gradientUnits="userSpaceOnUse" x1="252.0314" y1="498.3678" x2="252.0314" y2="288.3059">
		<stop  offset="0" style="stop-color:#FFFFFF;stop-opacity:0"/>
		<stop  offset="0.2584" style="stop-color:#C1C1C1;stop-opacity:0.2584"/>
		<stop  offset="0.8528" style="stop-color:#272727;stop-opacity:0.8528"/>
		<stop  offset="1" style="stop-color:#000000"/>
	</linearGradient>
	<path opacity="0.3" fill="url(#SVGID_2_)" d="M80.7,288.3c-11.9,46.2-33.8,75.5-33.8,75.5C20,404.6,6.6,451.5,6.6,498.4h490.8
		L80.7,288.3z"/>
	<linearGradient id="SVGID_3_" gradientUnits="userSpaceOnUse" x1="337.3042" y1="688.5904" x2="198.6447" y2="523.3424">
		<stop  offset="0" style="stop-color:#FFFFFF;stop-opacity:0"/>
		<stop  offset="0.2584" style="stop-color:#C1C1C1;stop-opacity:0.2584"/>
		<stop  offset="0.8528" style="stop-color:#272727;stop-opacity:0.8528"/>
		<stop  offset="1" style="stop-color:#000000"/>
	</linearGradient>
	<path opacity="0.3" fill="url(#SVGID_3_)" d="M54.2,644.5c24.3,41.1,29.5,77.3,29.5,77.3c9.9,47.9,33.5,90.5,66.7,123.6
		l347.1-347.1L54.2,644.5z"/>
	<linearGradient id="SVGID_4_" gradientUnits="userSpaceOnUse" x1="539.0954" y1="753.0217" x2="322.7054" y2="714.8663">
		<stop  offset="0" style="stop-color:#FFFFFF;stop-opacity:0"/>
		<stop  offset="0.2584" style="stop-color:#C1C1C1;stop-opacity:0.2584"/>
		<stop  offset="0.8528" style="stop-color:#272727;stop-opacity:0.8528"/>
		<stop  offset="1" style="stop-color:#000000"/>
	</linearGradient>
	<path opacity="0.3" fill="url(#SVGID_4_)" d="M287.4,915.2c46.2,11.9,75.5,33.8,75.5,33.8c40.8,26.9,87.7,40.3,134.6,40.3V498.4
		L287.4,915.2z"/>
</g>
<g>
	<linearGradient id="SVGID_5_" gradientUnits="userSpaceOnUse" x1="795.3198" y1="818.2231" x2="782.3243" y2="825.7261">
		<stop  offset="0" style="stop-color:#FFFFFF;stop-opacity:0"/>
		<stop  offset="0.1225" style="stop-color:#FBFBFB;stop-opacity:6.124549e-02"/>
		<stop  offset="0.2476" style="stop-color:#EFEFEF;stop-opacity:0.1238"/>
		<stop  offset="0.374" style="stop-color:#DADADA;stop-opacity:0.187"/>
		<stop  offset="0.5013" style="stop-color:#BDBDBD;stop-opacity:0.2507"/>
		<stop  offset="0.6294" style="stop-color:#989898;stop-opacity:0.3147"/>
		<stop  offset="0.7582" style="stop-color:#6B6B6B;stop-opacity:0.3791"/>
		<stop  offset="0.8849" style="stop-color:#373737;stop-opacity:0.4424"/>
		<stop  offset="1" style="stop-color:#000000;stop-opacity:0.5"/>
	</linearGradient>
	<path opacity="0.3" fill="url(#SVGID_5_)" d="M788.6,836.6c1.2-10,2.6-19.7,0.4-29.3C791.3,817.1,789.7,826.8,788.6,836.6z"/>
	<linearGradient id="SVGID_6_" gradientUnits="userSpaceOnUse" x1="659.6023" y1="598.9563" x2="533.3987" y2="671.8199">
		<stop  offset="0" style="stop-color:#FFFFFF;stop-opacity:0"/>
		<stop  offset="0.1225" style="stop-color:#FBFBFB;stop-opacity:6.124549e-02"/>
		<stop  offset="0.2476" style="stop-color:#EFEFEF;stop-opacity:0.1238"/>
		<stop  offset="0.374" style="stop-color:#DADADA;stop-opacity:0.187"/>
		<stop  offset="0.5013" style="stop-color:#BDBDBD;stop-opacity:0.2507"/>
		<stop  offset="0.6294" style="stop-color:#989898;stop-opacity:0.3147"/>
		<stop  offset="0.7582" style="stop-color:#6B6B6B;stop-opacity:0.3791"/>
		<stop  offset="0.8849" style="stop-color:#373737;stop-opacity:0.4424"/>
		<stop  offset="1" style="stop-color:#000000;stop-opacity:0.5"/>
	</linearGradient>
	<path opacity="0.3" fill="url(#SVGID_6_)" d="M497.4,498.4L583,757.7c20.1-6.7,40.4-13.2,58.2-24.1c32.8-20.1,74.5-14.9,102.5,11
		L497.4,498.4z"/>
	<linearGradient id="SVGID_7_" gradientUnits="userSpaceOnUse" x1="778.6131" y1="782.8" x2="776.1087" y2="784.246">
		<stop  offset="0" style="stop-color:#FFFFFF;stop-opacity:0"/>
		<stop  offset="0.1225" style="stop-color:#FBFBFB;stop-opacity:6.124549e-02"/>
		<stop  offset="0.2476" style="stop-color:#EFEFEF;stop-opacity:0.1238"/>
		<stop  offset="0.374" style="stop-color:#DADADA;stop-opacity:0.187"/>
		<stop  offset="0.5013" style="stop-color:#BDBDBD;stop-opacity:0.2507"/>
		<stop  offset="0.6294" style="stop-color:#989898;stop-opacity:0.3147"/>
		<stop  offset="0.7582" style="stop-color:#6B6B6B;stop-opacity:0.3791"/>
		<stop  offset="0.8849" style="stop-color:#373737;stop-opacity:0.4424"/>
		<stop  offset="1" style="stop-color:#000000;stop-opacity:0.5"/>
	</linearGradient>
	<path opacity="0.3" fill="url(#SVGID_7_)" d="M770.3,771.2l-3.2-3.2c9.2,9.6,14.4,20.8,18.3,32.3
		C781.9,789.9,778.4,779.3,770.3,771.2z"/>
	<linearGradient id="SVGID_8_" gradientUnits="userSpaceOnUse" x1="790.0839" y1="856.4982" x2="775.2173" y2="865.0814">
		<stop  offset="0" style="stop-color:#FFFFFF;stop-opacity:0"/>
		<stop  offset="0.1225" style="stop-color:#FBFBFB;stop-opacity:6.124549e-02"/>
		<stop  offset="0.2476" style="stop-color:#EFEFEF;stop-opacity:0.1238"/>
		<stop  offset="0.374" style="stop-color:#DADADA;stop-opacity:0.187"/>
		<stop  offset="0.5013" style="stop-color:#BDBDBD;stop-opacity:0.2507"/>
		<stop  offset="0.6294" style="stop-color:#989898;stop-opacity:0.3147"/>
		<stop  offset="0.7582" style="stop-color:#6B6B6B;stop-opacity:0.3791"/>
		<stop  offset="0.8849" style="stop-color:#373737;stop-opacity:0.4424"/>
		<stop  offset="1" style="stop-color:#000000;stop-opacity:0.5"/>
	</linearGradient>
	<path opacity="0.3" fill="url(#SVGID_8_)" d="M777.7,869.4c3.3-5.9,8-10.8,9.9-17.2C785.7,858.6,781,863.6,777.7,869.4z"/>
	<linearGradient id="SVGID_9_" gradientUnits="userSpaceOnUse" x1="765.0846" y1="889.7397" x2="745.0234" y2="901.322">
		<stop  offset="0" style="stop-color:#FFFFFF;stop-opacity:0"/>
		<stop  offset="0.1225" style="stop-color:#FBFBFB;stop-opacity:6.124549e-02"/>
		<stop  offset="0.2476" style="stop-color:#EFEFEF;stop-opacity:0.1238"/>
		<stop  offset="0.374" style="stop-color:#DADADA;stop-opacity:0.187"/>
		<stop  offset="0.5013" style="stop-color:#BDBDBD;stop-opacity:0.2507"/>
		<stop  offset="0.6294" style="stop-color:#989898;stop-opacity:0.3147"/>
		<stop  offset="0.7582" style="stop-color:#6B6B6B;stop-opacity:0.3791"/>
		<stop  offset="0.8849" style="stop-color:#373737;stop-opacity:0.4424"/>
		<stop  offset="1" style="stop-color:#000000;stop-opacity:0.5"/>
	</linearGradient>
	<path opacity="0.3" fill="url(#SVGID_9_)" d="M744.7,900.8c7-3.7,14.9-5.9,20.3-11.2C759.6,894.8,751.6,897.1,744.7,900.8z"/>
</g>
<linearGradient id="SVGID_10_" gradientUnits="userSpaceOnUse" x1="497.4475" y1="360.5483" x2="620.5956" y2="360.5483">
	<stop  offset="0" style="stop-color:#FFFFFF;stop-opacity:0"/>
	<stop  offset="0.2584" style="stop-color:#C1C1C1;stop-opacity:0.1292"/>
	<stop  offset="0.8528" style="stop-color:#272727;stop-opacity:0.4264"/>
	<stop  offset="1" style="stop-color:#000000;stop-opacity:0.5"/>
</linearGradient>
<path opacity="0.3" fill="url(#SVGID_10_)" d="M497.4,222.7v275.6L620.6,254C583.3,235.1,542.1,222.7,497.4,222.7z"/>
<circle fill="#FFD500" cx="497.4" cy="498.4" r="125.5"/>
</svg>
