<?xml version="1.0" encoding="UTF-8" standalone="no"?>
<svg width="480px" height="600px" viewBox="0 0 480 600" version="1.1" xmlns="http://www.w3.org/2000/svg" xmlns:xlink="http://www.w3.org/1999/xlink" xmlns:sketch="http://www.bohemiancoding.com/sketch/ns">
    <!-- Generator: Sketch 3.2.2 (9983) - http://www.bohemiancoding.com/sketch -->
    <title>Artboard 1</title>
    <desc>Created with Sketch.</desc>
    <defs>
        <linearGradient x1="49.9892826%" y1="60.8460862%" x2="92.7827715%" y2="27.3391608%" id="linearGradient-1">
            <stop stop-color="#FFFFFF" stop-opacity="0" offset="0%"></stop>
            <stop stop-color="#C1C1C1" stop-opacity="0.2584" offset="25.84%"></stop>
            <stop stop-color="#272727" stop-opacity="0.8528" offset="85.28%"></stop>
            <stop stop-color="#000000" offset="100%"></stop>
        </linearGradient>
        <linearGradient x1="50.0063977%" y1="99.984674%" x2="50.0063977%" y2="0.00280818658%" id="linearGradient-2">
            <stop stop-color="#FFFFFF" stop-opacity="0" offset="0%"></stop>
            <stop stop-color="#C1C1C1" stop-opacity="0.2584" offset="25.84%"></stop>
            <stop stop-color="#272727" stop-opacity="0.8528" offset="85.28%"></stop>
            <stop stop-color="#000000" offset="100%"></stop>
        </linearGradient>
        <linearGradient x1="63.8628919%" y1="54.8229329%" x2="32.5839612%" y2="7.21475079%" id="linearGradient-3">
            <stop stop-color="#FFFFFF" stop-opacity="0" offset="0%"></stop>
            <stop stop-color="#C1C1C1" stop-opacity="0.2584" offset="25.84%"></stop>
            <stop stop-color="#272727" stop-opacity="0.8528" offset="85.28%"></stop>
            <stop stop-color="#000000" offset="100%"></stop>
        </linearGradient>
        <linearGradient x1="119.797906%" y1="51.8683439%" x2="16.8040933%" y2="44.0958036%" id="linearGradient-4">
            <stop stop-color="#FFFFFF" stop-opacity="0" offset="0%"></stop>
            <stop stop-color="#C1C1C1" stop-opacity="0.2584" offset="25.84%"></stop>
            <stop stop-color="#272727" stop-opacity="0.8528" offset="85.28%"></stop>
            <stop stop-color="#000000" offset="100%"></stop>
        </linearGradient>
        <linearGradient x1="426.86218%" y1="37.2802048%" x2="-398.651594%" y2="62.8877133%" id="linearGradient-5">
            <stop stop-color="#FFFFFF" stop-opacity="0" offset="0%"></stop>
            <stop stop-color="#FBFBFB" stop-opacity="0.06124549" offset="12.25%"></stop>
            <stop stop-color="#EFEFEF" stop-opacity="0.1238" offset="24.76%"></stop>
            <stop stop-color="#DADADA" stop-opacity="0.187" offset="37.4%"></stop>
            <stop stop-color="#BDBDBD" stop-opacity="0.2507" offset="50.13%"></stop>
            <stop stop-color="#989898" stop-opacity="0.3147" offset="62.94%"></stop>
            <stop stop-color="#6B6B6B" stop-opacity="0.3791" offset="75.82%"></stop>
            <stop stop-color="#373737" stop-opacity="0.4424" offset="88.49%"></stop>
            <stop stop-color="#000000" stop-opacity="0.5" offset="100%"></stop>
        </linearGradient>
        <linearGradient x1="65.8555826%" y1="38.7799074%" x2="14.6157937%" y2="66.8800231%" id="linearGradient-6">
            <stop stop-color="#FFFFFF" stop-opacity="0" offset="0%"></stop>
            <stop stop-color="#FBFBFB" stop-opacity="0.06124549" offset="12.25%"></stop>
            <stop stop-color="#EFEFEF" stop-opacity="0.1238" offset="24.76%"></stop>
            <stop stop-color="#DADADA" stop-opacity="0.187" offset="37.4%"></stop>
            <stop stop-color="#BDBDBD" stop-opacity="0.2507" offset="50.13%"></stop>
            <stop stop-color="#989898" stop-opacity="0.3147" offset="62.94%"></stop>
            <stop stop-color="#6B6B6B" stop-opacity="0.3791" offset="75.82%"></stop>
            <stop stop-color="#373737" stop-opacity="0.4424" offset="88.49%"></stop>
            <stop stop-color="#000000" stop-opacity="0.5" offset="100%"></stop>
        </linearGradient>
        <linearGradient x1="62.9131148%" y1="45.8204334%" x2="49.2278689%" y2="50.2972136%" id="linearGradient-7">
            <stop stop-color="#FFFFFF" stop-opacity="0" offset="0%"></stop>
            <stop stop-color="#FBFBFB" stop-opacity="0.06124549" offset="12.25%"></stop>
            <stop stop-color="#EFEFEF" stop-opacity="0.1238" offset="24.76%"></stop>
            <stop stop-color="#DADADA" stop-opacity="0.187" offset="37.4%"></stop>
            <stop stop-color="#BDBDBD" stop-opacity="0.2507" offset="50.13%"></stop>
            <stop stop-color="#989898" stop-opacity="0.3147" offset="62.94%"></stop>
            <stop stop-color="#6B6B6B" stop-opacity="0.3791" offset="75.82%"></stop>
            <stop stop-color="#373737" stop-opacity="0.4424" offset="88.49%"></stop>
            <stop stop-color="#000000" stop-opacity="0.5" offset="100%"></stop>
        </linearGradient>
        <linearGradient x1="125.089899%" y1="24.9895349%" x2="-25.0777778%" y2="74.8918605%" id="linearGradient-8">
            <stop stop-color="#FFFFFF" stop-opacity="0" offset="0%"></stop>
            <stop stop-color="#FBFBFB" stop-opacity="0.06124549" offset="12.25%"></stop>
            <stop stop-color="#EFEFEF" stop-opacity="0.1238" offset="24.76%"></stop>
            <stop stop-color="#DADADA" stop-opacity="0.187" offset="37.4%"></stop>
            <stop stop-color="#BDBDBD" stop-opacity="0.2507" offset="50.13%"></stop>
            <stop stop-color="#989898" stop-opacity="0.3147" offset="62.94%"></stop>
            <stop stop-color="#6B6B6B" stop-opacity="0.3791" offset="75.82%"></stop>
            <stop stop-color="#373737" stop-opacity="0.4424" offset="88.49%"></stop>
            <stop stop-color="#000000" stop-opacity="0.5" offset="100%"></stop>
        </linearGradient>
        <linearGradient x1="100.416749%" y1="1.24732143%" x2="1.59310345%" y2="104.660714%" id="linearGradient-9">
            <stop stop-color="#FFFFFF" stop-opacity="0" offset="0%"></stop>
            <stop stop-color="#FBFBFB" stop-opacity="0.06124549" offset="12.25%"></stop>
            <stop stop-color="#EFEFEF" stop-opacity="0.1238" offset="24.76%"></stop>
            <stop stop-color="#DADADA" stop-opacity="0.187" offset="37.4%"></stop>
            <stop stop-color="#BDBDBD" stop-opacity="0.2507" offset="50.13%"></stop>
            <stop stop-color="#989898" stop-opacity="0.3147" offset="62.94%"></stop>
            <stop stop-color="#6B6B6B" stop-opacity="0.3791" offset="75.82%"></stop>
            <stop stop-color="#373737" stop-opacity="0.4424" offset="88.49%"></stop>
            <stop stop-color="#000000" stop-opacity="0.5" offset="100%"></stop>
        </linearGradient>
        <linearGradient x1="0.0385551948%" y1="50.0175254%" x2="99.9964286%" y2="50.0175254%" id="linearGradient-10">
            <stop stop-color="#FFFFFF" stop-opacity="0" offset="0%"></stop>
            <stop stop-color="#C1C1C1" stop-opacity="0.1292" offset="25.84%"></stop>
            <stop stop-color="#272727" stop-opacity="0.4264" offset="85.28%"></stop>
            <stop stop-color="#000000" stop-opacity="0.5" offset="100%"></stop>
        </linearGradient>
    </defs>
    <g id="Page-1" stroke="none" stroke-width="1" fill="none" fill-rule="evenodd" sketch:type="MSPage">
        <g id="Artboard-1" sketch:type="MSArtboardGroup">
            <g id="constitucional_iso" sketch:type="MSLayerGroup" transform="translate(3.000000, 3.000000)">
                <path d="M384.019134,439.354573 C354.613013,457.386202 319.277263,466.523035 281.581762,463.13454 C203.831009,456.115517 139.875721,393.609901 131.344316,316.037589 C120.211134,215.411414 198.687963,130.275499 297.071406,130.275499 C328.474239,130.275499 357.88036,138.988769 382.930019,154.115975 C402.897138,166.157231 428.672874,161.921614 445.130621,145.463213 L457.050386,133.542975 C485.427898,105.164336 472.358511,55.2445565 433.089843,46.8943388 C432.787311,46.8338299 432.545285,46.7733211 432.242753,46.7128123 L430.972118,46.470777 C412.638672,42.7192299 395.212822,35.458171 379.541659,25.1716709 L378.452543,24.445565 C353.765923,8.16869127 325.388411,0 297.010899,0 C268.633387,0 240.316382,8.10818244 215.569255,24.3850562 L214.48014,25.111162 C198.869483,35.3976622 181.383127,42.5982122 163.049681,46.4102682 L161.779046,46.6523035 C103.8744,58.5725418 58.55509,103.893651 46.6353248,161.800596 L46.3932991,163.071281 C42.641901,181.465964 35.4416367,198.892505 25.0950386,214.503782 L24.3689615,215.592941 C-8.12298716,264.968141 -8.12298716,328.986477 24.3689615,378.361678 L25.0950386,379.450837 C35.3811303,395.122622 42.641901,412.609672 46.4538055,430.943846 L46.6958312,432.214531 C58.6155964,490.121476 103.934907,535.442585 161.839552,547.362824 L163.110187,547.604859 C181.443633,551.356406 198.869483,558.617465 214.540646,568.903965 L215.629762,569.630071 C265.063509,602.12331 329.079303,602.12331 378.452543,569.630071 L379.541659,568.903965 C395.152316,558.617465 412.638672,551.416915 430.972118,547.604859 L432.242753,547.362824 C433.331868,547.120788 434.420984,546.878753 435.5101,546.636718 C474.960287,537.560394 488.2717,487.761632 459.652162,459.140958 L447.611384,447.099702 C430.669586,430.21774 404.409799,426.829246 384.019134,439.354573 L384.019134,439.354573 Z" id="Shape" fill="#4DB8DE" sketch:type="MSShapeGroup"></path>
                <g id="Group" transform="translate(0.000000, 29.000000)" opacity="0.3" sketch:type="MSShapeGroup">
                    <path d="M209.547105,0 C184.681072,14.7455448 162.779602,17.90097 162.779602,17.90097 C133.799481,23.9084142 108.025929,38.2291902 88,58.3753666 L298,269 L209.547105,0 L209.547105,0 Z" id="Shape" fill="url(#linearGradient-1)"></path>
                    <path d="M44.8404645,142 C37.6393643,169.926702 24.3869193,187.637792 24.3869193,187.637792 C8.10880196,212.300333 0,240.650167 0,269 L297,269 L44.8404645,142 L44.8404645,142 Z" id="Shape" fill="url(#linearGradient-2)"></path>
                    <path d="M29,357.452895 C43.7455448,382.318928 46.90097,404.220398 46.90097,404.220398 C52.9084142,433.200519 67.2291902,458.974071 87.3753666,479 L298,269 L29,357.452895 L29,357.452895 Z" id="Shape" fill="url(#linearGradient-3)"></path>
                    <path d="M171,521.16867 C198.926702,528.368303 216.637792,541.618048 216.637792,541.618048 C241.300333,557.89285 269.650167,566 298,566 L298,269 L171,521.16867 L171,521.16867 Z" id="Shape" fill="url(#linearGradient-4)"></path>
                </g>
                <g id="Group" transform="translate(297.000000, 297.000000)" opacity="0.3" sketch:type="MSShapeGroup">
                    <path d="M177,205 C177.762277,198.856655 178.651599,192.897611 177.254092,187 C178.715122,193.020478 177.698754,198.979522 177,205 L177,205 Z" id="Shape" fill="url(#linearGradient-5)"></path>
                    <path d="M0,0 L51.7840032,156 C63.9435648,151.969148 76.2241169,148.058619 86.9922858,141.500964 C106.834754,129.408407 132.061307,132.53683 149,148.118781 L0,0 L0,0 Z" id="Shape" fill="url(#linearGradient-6)"></path>
                    <path d="M165.923497,163.882353 L164,162 C169.530055,167.647059 172.655738,174.235294 175,181 C172.896175,174.882353 170.79235,168.647059 165.923497,163.882353 L165.923497,163.882353 Z" id="Shape" fill="url(#linearGradient-7)"></path>
                    <path d="M170,224 C172,220.569767 174.848485,217.72093 176,214 C174.848485,217.72093 172,220.627907 170,224 L170,224 Z" id="Shape" fill="url(#linearGradient-8)"></path>
                    <path d="M150,243 C154.137931,240.6875 158.807882,239.3125 162,236 C158.807882,239.25 154.078818,240.6875 150,243 L150,243 Z" id="Shape" fill="url(#linearGradient-9)"></path>
                </g>
                <path d="M297,130 L297,297 L372,148.966255 C349.293019,137.513788 324.211851,130 297,130 L297,130 Z" id="Shape" opacity="0.3" fill="url(#linearGradient-10)" sketch:type="MSShapeGroup"></path>
                <circle id="Oval" fill="#FFD500" sketch:type="MSShapeGroup" cx="297" cy="297" r="76"></circle>
            </g>
        </g>
    </g>
</svg>