<?xml version="1.0" encoding="utf-8"?>
<!-- Generator: Adobe Illustrator 17.1.0, SVG Export Plug-In . SVG Version: 6.00 Build 0)  -->
<!DOCTYPE svg PUBLIC "-//W3C//DTD SVG 1.1//EN" "http://www.w3.org/Graphics/SVG/1.1/DTD/svg11.dtd">
<svg version="1.1" id="Layer_1" xmlns="http://www.w3.org/2000/svg" xmlns:xlink="http://www.w3.org/1999/xlink" x="0px" y="0px"
	 viewBox="0.3 0 500.7 100.5" enable-background="new 0.3 0 500.7 100.5" xml:space="preserve">
<path fill="#4DB8DE" d="M64.7,73.1C59.9,76,54.1,77.5,48,77c-12.7-1.1-23.2-11.4-24.6-24.1c-1.8-16.5,11-30.4,27.1-30.4
	c5.1,0,9.9,1.4,14,3.9c3.3,2,7.5,1.3,10.2-1.4l2-2c4.6-4.6,2.5-12.8-3.9-14.2c0,0-0.1,0-0.1,0l-0.2,0c-3-0.6-5.9-1.8-8.4-3.5
	l-0.2-0.1c-4-2.7-8.7-4-13.3-4c-4.6,0-9.3,1.3-13.3,4L37,5.4c-2.6,1.7-5.4,2.9-8.4,3.5l-0.2,0c-9.5,2-16.9,9.4-18.8,18.8l0,0.2
	c-0.6,3-1.8,5.9-3.5,8.4l-0.1,0.2c-5.3,8.1-5.3,18.5,0,26.6L6,63.3c1.7,2.6,2.9,5.4,3.5,8.4l0,0.2c2,9.5,9.4,16.9,18.8,18.8l0.2,0
	c3,0.6,5.9,1.8,8.4,3.5l0.2,0.1c8.1,5.3,18.6,5.3,26.6,0l0.2-0.1c2.6-1.7,5.4-2.9,8.4-3.5l0.2,0c0.2,0,0.4-0.1,0.5-0.1
	c6.5-1.5,8.6-9.6,3.9-14.3l-2-2C72.4,71.6,68.1,71.1,64.7,73.1z"/>
<g opacity="0.5">
	<linearGradient id="SVGID_1_" gradientUnits="userSpaceOnUse" x1="33.3295" y1="32.6455" x2="48.0275" y2="17.9476">
		<stop  offset="0" style="stop-color:#FFFFFF;stop-opacity:0"/>
		<stop  offset="0.2584" style="stop-color:#C1C1C1;stop-opacity:0.2584"/>
		<stop  offset="0.8528" style="stop-color:#272727;stop-opacity:0.8528"/>
		<stop  offset="1" style="stop-color:#000000"/>
	</linearGradient>
	<path opacity="0.3" fill="url(#SVGID_1_)" d="M36,6c-4.1,2.4-7.6,2.9-7.6,2.9c-4.7,1-9,3.3-12.2,6.6l34.3,34.3L36,6z"/>
	<linearGradient id="SVGID_2_" gradientUnits="userSpaceOnUse" x1="26.2167" y1="49.8173" x2="26.2167" y2="29.0313">
		<stop  offset="0" style="stop-color:#FFFFFF;stop-opacity:0"/>
		<stop  offset="0.2584" style="stop-color:#C1C1C1;stop-opacity:0.2584"/>
		<stop  offset="0.8528" style="stop-color:#272727;stop-opacity:0.8528"/>
		<stop  offset="1" style="stop-color:#000000"/>
	</linearGradient>
	<path opacity="0.3" fill="url(#SVGID_2_)" d="M9.3,29c-1.2,4.6-3.3,7.5-3.3,7.5c-2.7,4-4,8.7-4,13.3h48.6L9.3,29z"/>
	<linearGradient id="SVGID_3_" gradientUnits="userSpaceOnUse" x1="34.6546" y1="68.6402" x2="20.934" y2="52.2886">
		<stop  offset="0" style="stop-color:#FFFFFF;stop-opacity:0"/>
		<stop  offset="0.2584" style="stop-color:#C1C1C1;stop-opacity:0.2584"/>
		<stop  offset="0.8528" style="stop-color:#272727;stop-opacity:0.8528"/>
		<stop  offset="1" style="stop-color:#000000"/>
	</linearGradient>
	<path opacity="0.3" fill="url(#SVGID_3_)" d="M6.6,64.3c2.4,4.1,2.9,7.6,2.9,7.6c1,4.7,3.3,9,6.6,12.2l34.3-34.3L6.6,64.3z"/>
	<linearGradient id="SVGID_4_" gradientUnits="userSpaceOnUse" x1="54.6222" y1="75.0158" x2="33.21" y2="71.2402">
		<stop  offset="0" style="stop-color:#FFFFFF;stop-opacity:0"/>
		<stop  offset="0.2584" style="stop-color:#C1C1C1;stop-opacity:0.2584"/>
		<stop  offset="0.8528" style="stop-color:#272727;stop-opacity:0.8528"/>
		<stop  offset="1" style="stop-color:#000000"/>
	</linearGradient>
	<path opacity="0.3" fill="url(#SVGID_4_)" d="M29.7,91.1c4.6,1.2,7.5,3.3,7.5,3.3c4,2.7,8.7,4,13.3,4V49.8L29.7,91.1z"/>
</g>
<circle fill="#FFD500" cx="50.5" cy="49.8" r="12.4"/>
<g>
	<linearGradient id="SVGID_5_" gradientUnits="userSpaceOnUse" x1="79.9761" y1="81.4676" x2="78.6902" y2="82.21">
		<stop  offset="0" style="stop-color:#FFFFFF;stop-opacity:0"/>
		<stop  offset="0.1225" style="stop-color:#FBFBFB;stop-opacity:6.124549e-02"/>
		<stop  offset="0.2476" style="stop-color:#EFEFEF;stop-opacity:0.1238"/>
		<stop  offset="0.374" style="stop-color:#DADADA;stop-opacity:0.187"/>
		<stop  offset="0.5013" style="stop-color:#BDBDBD;stop-opacity:0.2507"/>
		<stop  offset="0.6294" style="stop-color:#989898;stop-opacity:0.3147"/>
		<stop  offset="0.7582" style="stop-color:#6B6B6B;stop-opacity:0.3791"/>
		<stop  offset="0.8849" style="stop-color:#373737;stop-opacity:0.4424"/>
		<stop  offset="1" style="stop-color:#000000;stop-opacity:0.5"/>
	</linearGradient>
	<path opacity="0.3" fill="url(#SVGID_5_)" d="M79.3,83.3c0.1-1,0.3-1.9,0-2.9C79.6,81.4,79.4,82.3,79.3,83.3z"/>
	<linearGradient id="SVGID_6_" gradientUnits="userSpaceOnUse" x1="66.5466" y1="59.7707" x2="54.0585" y2="66.9807">
		<stop  offset="0" style="stop-color:#FFFFFF;stop-opacity:0"/>
		<stop  offset="0.1225" style="stop-color:#FBFBFB;stop-opacity:6.124549e-02"/>
		<stop  offset="0.2476" style="stop-color:#EFEFEF;stop-opacity:0.1238"/>
		<stop  offset="0.374" style="stop-color:#DADADA;stop-opacity:0.187"/>
		<stop  offset="0.5013" style="stop-color:#BDBDBD;stop-opacity:0.2507"/>
		<stop  offset="0.6294" style="stop-color:#989898;stop-opacity:0.3147"/>
		<stop  offset="0.7582" style="stop-color:#6B6B6B;stop-opacity:0.3791"/>
		<stop  offset="0.8849" style="stop-color:#373737;stop-opacity:0.4424"/>
		<stop  offset="1" style="stop-color:#000000;stop-opacity:0.5"/>
	</linearGradient>
	<path opacity="0.3" fill="url(#SVGID_6_)" d="M50.5,49.8L59,75.5c2-0.7,4-1.3,5.8-2.4c3.2-2,7.4-1.5,10.1,1.1L50.5,49.8z"/>
	<linearGradient id="SVGID_7_" gradientUnits="userSpaceOnUse" x1="78.323" y1="77.9624" x2="78.0751" y2="78.1055">
		<stop  offset="0" style="stop-color:#FFFFFF;stop-opacity:0"/>
		<stop  offset="0.1225" style="stop-color:#FBFBFB;stop-opacity:6.124549e-02"/>
		<stop  offset="0.2476" style="stop-color:#EFEFEF;stop-opacity:0.1238"/>
		<stop  offset="0.374" style="stop-color:#DADADA;stop-opacity:0.187"/>
		<stop  offset="0.5013" style="stop-color:#BDBDBD;stop-opacity:0.2507"/>
		<stop  offset="0.6294" style="stop-color:#989898;stop-opacity:0.3147"/>
		<stop  offset="0.7582" style="stop-color:#6B6B6B;stop-opacity:0.3791"/>
		<stop  offset="0.8849" style="stop-color:#373737;stop-opacity:0.4424"/>
		<stop  offset="1" style="stop-color:#000000;stop-opacity:0.5"/>
	</linearGradient>
	<path opacity="0.3" fill="url(#SVGID_7_)" d="M77.5,76.8l-0.3-0.3c0.9,0.9,1.4,2.1,1.8,3.2C78.6,78.7,78.3,77.6,77.5,76.8z"/>
	<linearGradient id="SVGID_8_" gradientUnits="userSpaceOnUse" x1="79.458" y1="85.255" x2="77.9869" y2="86.1043">
		<stop  offset="0" style="stop-color:#FFFFFF;stop-opacity:0"/>
		<stop  offset="0.1225" style="stop-color:#FBFBFB;stop-opacity:6.124549e-02"/>
		<stop  offset="0.2476" style="stop-color:#EFEFEF;stop-opacity:0.1238"/>
		<stop  offset="0.374" style="stop-color:#DADADA;stop-opacity:0.187"/>
		<stop  offset="0.5013" style="stop-color:#BDBDBD;stop-opacity:0.2507"/>
		<stop  offset="0.6294" style="stop-color:#989898;stop-opacity:0.3147"/>
		<stop  offset="0.7582" style="stop-color:#6B6B6B;stop-opacity:0.3791"/>
		<stop  offset="0.8849" style="stop-color:#373737;stop-opacity:0.4424"/>
		<stop  offset="1" style="stop-color:#000000;stop-opacity:0.5"/>
	</linearGradient>
	<path opacity="0.3" fill="url(#SVGID_8_)" d="M78.2,86.5c0.3-0.6,0.8-1.1,1-1.7C79,85.5,78.6,86,78.2,86.5z"/>
	<linearGradient id="SVGID_9_" gradientUnits="userSpaceOnUse" x1="76.9843" y1="88.5443" x2="74.9992" y2="89.6904">
		<stop  offset="0" style="stop-color:#FFFFFF;stop-opacity:0"/>
		<stop  offset="0.1225" style="stop-color:#FBFBFB;stop-opacity:6.124549e-02"/>
		<stop  offset="0.2476" style="stop-color:#EFEFEF;stop-opacity:0.1238"/>
		<stop  offset="0.374" style="stop-color:#DADADA;stop-opacity:0.187"/>
		<stop  offset="0.5013" style="stop-color:#BDBDBD;stop-opacity:0.2507"/>
		<stop  offset="0.6294" style="stop-color:#989898;stop-opacity:0.3147"/>
		<stop  offset="0.7582" style="stop-color:#6B6B6B;stop-opacity:0.3791"/>
		<stop  offset="0.8849" style="stop-color:#373737;stop-opacity:0.4424"/>
		<stop  offset="1" style="stop-color:#000000;stop-opacity:0.5"/>
	</linearGradient>
	<path opacity="0.3" fill="url(#SVGID_9_)" d="M75,89.6c0.7-0.4,1.5-0.6,2-1.1C76.4,89,75.7,89.3,75,89.6z"/>
</g>
<linearGradient id="SVGID_10_" gradientUnits="userSpaceOnUse" x1="50.5011" y1="36.1798" x2="62.6868" y2="36.1798">
	<stop  offset="0" style="stop-color:#FFFFFF;stop-opacity:0"/>
	<stop  offset="0.2584" style="stop-color:#C1C1C1;stop-opacity:0.1292"/>
	<stop  offset="0.8528" style="stop-color:#272727;stop-opacity:0.4264"/>
	<stop  offset="1" style="stop-color:#000000;stop-opacity:0.5"/>
</linearGradient>
<path opacity="0.3" fill="url(#SVGID_10_)" d="M50.5,22.5v27.3l12.2-24.2C59,23.8,54.9,22.5,50.5,22.5z"/>
<g>
	<path fill="#264F64" d="M113.1,64.5c-2.2,0-4.2-0.4-6-1.2c-1.9-0.8-3.5-1.9-4.8-3.2c-1.4-1.4-2.4-3-3.2-4.8c-0.8-1.9-1.1-3.8-1.1-6
		v-0.1c0-2.1,0.4-4.1,1.1-5.9c0.8-1.8,1.8-3.5,3.2-4.9c1.4-1.4,3-2.5,4.9-3.3c1.9-0.8,4-1.2,6.3-1.2c1.4,0,2.6,0.1,3.8,0.3
		c1.1,0.2,2.2,0.5,3.1,0.9s1.8,0.9,2.6,1.4c0.8,0.6,1.5,1.2,2.2,1.9l-4.1,4.8c-1.2-1-2.3-1.9-3.5-2.5c-1.2-0.6-2.5-0.9-4-0.9
		c-1.2,0-2.4,0.2-3.4,0.7c-1.1,0.5-2,1.1-2.7,2c-0.8,0.8-1.4,1.8-1.8,2.9c-0.4,1.1-0.6,2.3-0.6,3.6v0.1c0,1.3,0.2,2.5,0.6,3.6
		c0.4,1.1,1,2.1,1.8,3c0.7,0.8,1.6,1.5,2.7,2c1.1,0.5,2.2,0.7,3.5,0.7c1.7,0,3.1-0.3,4.3-0.9c1.2-0.6,2.3-1.5,3.5-2.5l4.1,4.2
		c-0.8,0.8-1.5,1.6-2.4,2.2c-0.8,0.6-1.7,1.2-2.7,1.7c-1,0.5-2,0.8-3.2,1.1C115.9,64.4,114.6,64.5,113.1,64.5z"/>
	<path fill="#264F64" d="M144.8,64.5c-2.3,0-4.4-0.4-6.3-1.2c-1.9-0.8-3.6-1.9-5-3.3c-1.4-1.4-2.5-3-3.3-4.8
		c-0.8-1.8-1.2-3.8-1.2-5.9v-0.1c0-2.1,0.4-4.1,1.2-5.9c0.8-1.8,1.9-3.5,3.3-4.9c1.4-1.4,3.1-2.5,5-3.3c1.9-0.8,4-1.2,6.3-1.2
		c2.3,0,4.4,0.4,6.3,1.2c1.9,0.8,3.6,1.9,5,3.3s2.5,3,3.3,4.8s1.2,3.8,1.2,5.9v0.1c0,2.1-0.4,4.1-1.2,5.9c-0.8,1.8-1.9,3.5-3.3,4.9
		c-1.4,1.4-3.1,2.5-5,3.3C149.2,64.1,147.1,64.5,144.8,64.5z M144.9,58.6c1.3,0,2.5-0.2,3.6-0.7c1.1-0.5,2-1.1,2.8-2
		c0.8-0.8,1.4-1.8,1.8-2.9c0.4-1.1,0.6-2.3,0.6-3.6v-0.1c0-1.3-0.2-2.5-0.6-3.6c-0.4-1.1-1.1-2.1-1.9-3c-0.8-0.8-1.8-1.5-2.9-2
		c-1.1-0.5-2.3-0.7-3.6-0.7c-1.3,0-2.5,0.2-3.6,0.7c-1.1,0.5-2,1.1-2.8,2c-0.8,0.8-1.4,1.8-1.8,2.9c-0.4,1.1-0.7,2.3-0.7,3.6v0.1
		c0,1.3,0.2,2.5,0.7,3.6c0.4,1.1,1.1,2.1,1.9,3c0.8,0.8,1.7,1.5,2.8,2S143.6,58.6,144.9,58.6z"/>
	<path fill="#264F64" d="M166.3,34.5h6l13.9,18.2V34.5h6.4V64h-5.5l-14.3-18.8V64h-6.4V34.5z"/>
	<path fill="#264F64" d="M210.3,64.5c-2.3,0-4.5-0.4-6.6-1.2s-4.1-2-5.9-3.6l3.8-4.6c1.4,1.1,2.7,2,4.2,2.6c1.4,0.6,3,1,4.7,1
		c1.4,0,2.4-0.2,3.1-0.7c0.7-0.5,1.1-1.2,1.1-2v-0.1c0-0.4-0.1-0.8-0.2-1.1c-0.2-0.3-0.5-0.6-0.9-0.9c-0.4-0.3-1-0.6-1.8-0.9
		c-0.8-0.3-1.8-0.6-3-0.9c-1.5-0.4-2.8-0.8-4.1-1.2c-1.2-0.4-2.2-1-3.1-1.7c-0.9-0.7-1.5-1.5-2-2.5c-0.5-1-0.7-2.2-0.7-3.7V43
		c0-1.4,0.3-2.6,0.8-3.7c0.5-1.1,1.2-2,2.1-2.8c0.9-0.8,2-1.4,3.3-1.8c1.3-0.4,2.7-0.6,4.2-0.6c2.2,0,4.2,0.3,6,1
		c1.8,0.6,3.5,1.6,5,2.8l-3.4,4.9c-1.3-0.9-2.6-1.6-3.9-2.1c-1.3-0.5-2.5-0.8-3.8-0.8c-1.3,0-2.2,0.2-2.8,0.7
		c-0.6,0.5-0.9,1.1-0.9,1.8v0.1c0,0.5,0.1,0.9,0.3,1.2c0.2,0.4,0.5,0.7,1,1c0.5,0.3,1.1,0.5,2,0.8c0.8,0.3,1.9,0.6,3.1,0.9
		c1.5,0.4,2.8,0.8,4,1.3c1.2,0.5,2.1,1.1,3,1.8c0.8,0.7,1.4,1.5,1.8,2.4c0.4,0.9,0.6,2,0.6,3.3v0.1c0,1.5-0.3,2.8-0.8,3.9
		c-0.5,1.1-1.3,2.1-2.2,2.9c-1,0.8-2.1,1.4-3.4,1.8C213.3,64.3,211.9,64.5,210.3,64.5z"/>
	<path fill="#264F64" d="M233.6,40.5h-9v-6h24.5v6h-9V64h-6.5V40.5z"/>
	<path fill="#264F64" d="M254.4,34.5h6.5V64h-6.5V34.5z"/>
	<path fill="#264F64" d="M275.2,40.5h-9v-6h24.5v6h-9V64h-6.5V40.5z"/>
	<path fill="#264F64" d="M308,64.5c-4,0-7.1-1.1-9.4-3.3c-2.3-2.2-3.4-5.5-3.4-9.8V34.5h6.5v16.7c0,2.4,0.6,4.2,1.7,5.5
		c1.1,1.2,2.7,1.8,4.7,1.8s3.6-0.6,4.7-1.8c1.1-1.2,1.7-3,1.7-5.3V34.5h6.5v16.7c0,2.3-0.3,4.2-0.9,5.9c-0.6,1.7-1.5,3.1-2.6,4.2
		c-1.1,1.1-2.5,1.9-4.1,2.5C311.8,64.2,310,64.5,308,64.5z"/>
	<path fill="#264F64" d="M341.5,64.5c-2.2,0-4.2-0.4-6-1.2c-1.9-0.8-3.5-1.9-4.8-3.2c-1.4-1.4-2.4-3-3.2-4.8c-0.8-1.9-1.1-3.8-1.1-6
		v-0.1c0-2.1,0.4-4.1,1.1-5.9c0.7-1.8,1.8-3.5,3.2-4.9c1.3-1.4,3-2.5,4.8-3.3c1.9-0.8,4-1.2,6.3-1.2c1.4,0,2.6,0.1,3.8,0.3
		c1.1,0.2,2.2,0.5,3.1,0.9c0.9,0.4,1.8,0.9,2.6,1.4c0.8,0.6,1.5,1.2,2.2,1.9l-4.1,4.8c-1.1-1-2.3-1.9-3.5-2.5
		c-1.2-0.6-2.5-0.9-4-0.9c-1.2,0-2.4,0.2-3.4,0.7c-1.1,0.5-2,1.1-2.7,2c-0.8,0.8-1.3,1.8-1.8,2.9c-0.4,1.1-0.6,2.3-0.6,3.6v0.1
		c0,1.3,0.2,2.5,0.6,3.6c0.4,1.1,1,2.1,1.8,3c0.7,0.8,1.6,1.5,2.7,2c1.1,0.5,2.2,0.7,3.5,0.7c1.7,0,3.1-0.3,4.3-0.9
		c1.2-0.6,2.3-1.5,3.5-2.5l4.1,4.2c-0.8,0.8-1.6,1.6-2.4,2.2c-0.8,0.6-1.7,1.2-2.7,1.7c-1,0.5-2,0.8-3.2,1.1
		C344.2,64.4,342.9,64.5,341.5,64.5z"/>
	<path fill="#264F64" d="M359.1,34.5h6.5V64h-6.5V34.5z"/>
	<path fill="#264F64" d="M387.3,64.5c-2.3,0-4.4-0.4-6.3-1.2c-1.9-0.8-3.6-1.9-5-3.3c-1.4-1.4-2.5-3-3.3-4.8s-1.2-3.8-1.2-5.9v-0.1
		c0-2.1,0.4-4.1,1.2-5.9c0.8-1.8,1.9-3.5,3.3-4.9c1.4-1.4,3.1-2.5,5-3.3c1.9-0.8,4-1.2,6.3-1.2c2.3,0,4.4,0.4,6.3,1.2
		c1.9,0.8,3.6,1.9,5,3.3c1.4,1.4,2.5,3,3.3,4.8c0.8,1.8,1.2,3.8,1.2,5.9v0.1c0,2.1-0.4,4.1-1.2,5.9c-0.8,1.8-1.9,3.5-3.3,4.9
		c-1.4,1.4-3.1,2.5-5,3.3C391.7,64.1,389.6,64.5,387.3,64.5z M387.4,58.6c1.3,0,2.5-0.2,3.6-0.7c1.1-0.5,2-1.1,2.8-2
		c0.8-0.8,1.4-1.8,1.8-2.9c0.4-1.1,0.7-2.3,0.7-3.6v-0.1c0-1.3-0.2-2.5-0.7-3.6c-0.4-1.1-1.1-2.1-1.9-3c-0.8-0.8-1.7-1.5-2.8-2
		c-1.1-0.5-2.3-0.7-3.6-0.7c-1.3,0-2.5,0.2-3.6,0.7c-1.1,0.5-2,1.1-2.8,2c-0.8,0.8-1.4,1.8-1.8,2.9s-0.7,2.3-0.7,3.6v0.1
		c0,1.3,0.2,2.5,0.7,3.6c0.4,1.1,1.1,2.1,1.8,3c0.8,0.8,1.7,1.5,2.8,2S386.1,58.6,387.4,58.6z"/>
	<path fill="#264F64" d="M408.9,34.5h6l13.9,18.2V34.5h6.4V64h-5.5l-14.3-18.8V64h-6.4V34.5z"/>
	<path fill="#264F64" d="M454.3,34.3h2.1L470.2,64h-2.4l-3.8-8.3h-17.5l-3.8,8.3h-2.3L454.3,34.3z M463.1,53.8l-7.8-17.1l-7.8,17.1
		H463.1z"/>
	<path fill="#264F64" d="M476.5,34.5h2.2v27.6H496v2h-19.6V34.5z"/>
</g>
<g>
	<path fill="#264F64" d="M386.5,32.8c0,0,0.4-0.7,1.1-1.6c0.3-0.5,0.7-1,1.1-1.6c0.4-0.6,0.9-1.2,1.3-1.8c0.5-0.6,0.8-1.3,1.3-1.8
		c0.5-0.5,1.1-0.8,1.6-1.1c0.5-0.2,1-0.4,1.4-0.5c0.4-0.1,0.6-0.1,0.6-0.1l0.2,0.2c0,0,0,0.3-0.1,0.6c-0.1,0.4-0.2,0.9-0.5,1.4
		c-0.3,0.5-0.6,1.1-1.1,1.6c-0.5,0.5-1.2,0.8-1.8,1.3c-0.6,0.5-1.2,0.9-1.8,1.3c-0.6,0.4-1.1,0.8-1.6,1.1c-0.9,0.7-1.6,1.1-1.6,1.1
		L386.5,32.8z"/>
</g>
</svg>
