<?xml version="1.0" encoding="utf-8"?>
<!-- Generator: Adobe Illustrator 17.1.0, SVG Export Plug-In . SVG Version: 6.00 Build 0)  -->
<!DOCTYPE svg PUBLIC "-//W3C//DTD SVG 1.1//EN" "http://www.w3.org/Graphics/SVG/1.1/DTD/svg11.dtd">
<svg version="1.1" id="Layer_1" xmlns="http://www.w3.org/2000/svg" xmlns:xlink="http://www.w3.org/1999/xlink" x="0px" y="0px"
	 viewBox="0 0 25 25" enable-background="new 0 0 25 25" xml:space="preserve">
<path fill="#4DB8DE" d="M5,5C4.7,5.1,4.3,5.2,3.9,5.2C3.1,5.1,2.4,4.5,2.3,3.6c-0.1-1.1,0.7-2,1.8-2c0.3,0,0.7,0.1,0.9,0.3
	C5.2,2,5.5,2,5.7,1.8l0.1-0.1C6.1,1.4,6,0.8,5.6,0.7c0,0,0,0,0,0l0,0C5.3,0.7,5.2,0.6,5,0.5l0,0C4.7,0.3,4.4,0.2,4.1,0.2
	c-0.3,0-0.6,0.1-0.9,0.3l0,0C3.1,0.6,2.9,0.7,2.7,0.7l0,0C2,0.9,1.6,1.4,1.4,2l0,0c0,0.2-0.1,0.4-0.2,0.6l0,0
	c-0.3,0.5-0.3,1.2,0,1.7l0,0c0.1,0.2,0.2,0.4,0.2,0.6l0,0C1.6,5.5,2,6,2.7,6.1l0,0c0.2,0,0.4,0.1,0.6,0.2l0,0c0.5,0.3,1.2,0.3,1.7,0
	l0,0c0.2-0.1,0.4-0.2,0.6-0.2l0,0c0,0,0,0,0,0C6,6,6.2,5.5,5.8,5.2L5.7,5C5.5,4.9,5.3,4.8,5,5z"/>
<g opacity="0.5">
	<linearGradient id="SVGID_1_" gradientUnits="userSpaceOnUse" x1="2.981" y1="2.3033" x2="3.9431" y2="1.3412">
		<stop  offset="0" style="stop-color:#FFFFFF;stop-opacity:0"/>
		<stop  offset="0.2584" style="stop-color:#C1C1C1;stop-opacity:0.2584"/>
		<stop  offset="0.8528" style="stop-color:#272727;stop-opacity:0.8528"/>
		<stop  offset="1" style="stop-color:#000000"/>
	</linearGradient>
	<path opacity="0.3" fill="url(#SVGID_1_)" d="M3.2,0.6C2.9,0.7,2.7,0.7,2.7,0.7C2.3,0.8,2.1,1,1.9,1.2l2.2,2.2L3.2,0.6z"/>
	<linearGradient id="SVGID_2_" gradientUnits="userSpaceOnUse" x1="2.5154" y1="3.4273" x2="2.5154" y2="2.0667">
		<stop  offset="0" style="stop-color:#FFFFFF;stop-opacity:0"/>
		<stop  offset="0.2584" style="stop-color:#C1C1C1;stop-opacity:0.2584"/>
		<stop  offset="0.8528" style="stop-color:#272727;stop-opacity:0.8528"/>
		<stop  offset="1" style="stop-color:#000000"/>
	</linearGradient>
	<path opacity="0.3" fill="url(#SVGID_2_)" d="M1.4,2.1C1.3,2.4,1.2,2.6,1.2,2.6C1,2.8,0.9,3.1,0.9,3.4h3.2L1.4,2.1z"/>
	<linearGradient id="SVGID_3_" gradientUnits="userSpaceOnUse" x1="3.0677" y1="4.6594" x2="2.1696" y2="3.5891">
		<stop  offset="0" style="stop-color:#FFFFFF;stop-opacity:0"/>
		<stop  offset="0.2584" style="stop-color:#C1C1C1;stop-opacity:0.2584"/>
		<stop  offset="0.8528" style="stop-color:#272727;stop-opacity:0.8528"/>
		<stop  offset="1" style="stop-color:#000000"/>
	</linearGradient>
	<path opacity="0.3" fill="url(#SVGID_3_)" d="M1.2,4.4c0.2,0.3,0.2,0.5,0.2,0.5c0.1,0.3,0.2,0.6,0.4,0.8l2.2-2.2L1.2,4.4z"/>
	<linearGradient id="SVGID_4_" gradientUnits="userSpaceOnUse" x1="4.3747" y1="5.0768" x2="2.9731" y2="4.8296">
		<stop  offset="0" style="stop-color:#FFFFFF;stop-opacity:0"/>
		<stop  offset="0.2584" style="stop-color:#C1C1C1;stop-opacity:0.2584"/>
		<stop  offset="0.8528" style="stop-color:#272727;stop-opacity:0.8528"/>
		<stop  offset="1" style="stop-color:#000000"/>
	</linearGradient>
	<path opacity="0.3" fill="url(#SVGID_4_)" d="M2.7,6.1C3,6.2,3.2,6.3,3.2,6.3c0.3,0.2,0.6,0.3,0.9,0.3V3.4L2.7,6.1z"/>
</g>
<circle fill="#FFD500" cx="4.1" cy="3.4" r="0.8"/>
<g>
	<linearGradient id="SVGID_5_" gradientUnits="userSpaceOnUse" x1="6.0344" y1="5.4991" x2="5.9502" y2="5.5477">
		<stop  offset="0" style="stop-color:#FFFFFF;stop-opacity:0"/>
		<stop  offset="0.1225" style="stop-color:#FBFBFB;stop-opacity:6.124549e-02"/>
		<stop  offset="0.2476" style="stop-color:#EFEFEF;stop-opacity:0.1238"/>
		<stop  offset="0.374" style="stop-color:#DADADA;stop-opacity:0.187"/>
		<stop  offset="0.5013" style="stop-color:#BDBDBD;stop-opacity:0.2507"/>
		<stop  offset="0.6294" style="stop-color:#989898;stop-opacity:0.3147"/>
		<stop  offset="0.7582" style="stop-color:#6B6B6B;stop-opacity:0.3791"/>
		<stop  offset="0.8849" style="stop-color:#373737;stop-opacity:0.4424"/>
		<stop  offset="1" style="stop-color:#000000;stop-opacity:0.5"/>
	</linearGradient>
	<path opacity="0.3" fill="url(#SVGID_5_)" d="M6,5.6c0-0.1,0-0.1,0-0.2C6,5.5,6,5.6,6,5.6z"/>
	<linearGradient id="SVGID_6_" gradientUnits="userSpaceOnUse" x1="5.1553" y1="4.0788" x2="4.3378" y2="4.5508">
		<stop  offset="0" style="stop-color:#FFFFFF;stop-opacity:0"/>
		<stop  offset="0.1225" style="stop-color:#FBFBFB;stop-opacity:6.124549e-02"/>
		<stop  offset="0.2476" style="stop-color:#EFEFEF;stop-opacity:0.1238"/>
		<stop  offset="0.374" style="stop-color:#DADADA;stop-opacity:0.187"/>
		<stop  offset="0.5013" style="stop-color:#BDBDBD;stop-opacity:0.2507"/>
		<stop  offset="0.6294" style="stop-color:#989898;stop-opacity:0.3147"/>
		<stop  offset="0.7582" style="stop-color:#6B6B6B;stop-opacity:0.3791"/>
		<stop  offset="0.8849" style="stop-color:#373737;stop-opacity:0.4424"/>
		<stop  offset="1" style="stop-color:#000000;stop-opacity:0.5"/>
	</linearGradient>
	<path opacity="0.3" fill="url(#SVGID_6_)" d="M4.1,3.4l0.6,1.7C4.8,5.1,4.9,5,5,5C5.2,4.8,5.5,4.9,5.7,5L4.1,3.4z"/>
	<linearGradient id="SVGID_7_" gradientUnits="userSpaceOnUse" x1="5.9261" y1="5.2696" x2="5.9099" y2="5.279">
		<stop  offset="0" style="stop-color:#FFFFFF;stop-opacity:0"/>
		<stop  offset="0.1225" style="stop-color:#FBFBFB;stop-opacity:6.124549e-02"/>
		<stop  offset="0.2476" style="stop-color:#EFEFEF;stop-opacity:0.1238"/>
		<stop  offset="0.374" style="stop-color:#DADADA;stop-opacity:0.187"/>
		<stop  offset="0.5013" style="stop-color:#BDBDBD;stop-opacity:0.2507"/>
		<stop  offset="0.6294" style="stop-color:#989898;stop-opacity:0.3147"/>
		<stop  offset="0.7582" style="stop-color:#6B6B6B;stop-opacity:0.3791"/>
		<stop  offset="0.8849" style="stop-color:#373737;stop-opacity:0.4424"/>
		<stop  offset="1" style="stop-color:#000000;stop-opacity:0.5"/>
	</linearGradient>
	<path opacity="0.3" fill="url(#SVGID_7_)" d="M5.9,5.2L5.9,5.2c0,0,0.1,0.1,0.1,0.2C5.9,5.3,5.9,5.2,5.9,5.2z"/>
	<linearGradient id="SVGID_8_" gradientUnits="userSpaceOnUse" x1="6.0004" y1="5.747" x2="5.9041" y2="5.8026">
		<stop  offset="0" style="stop-color:#FFFFFF;stop-opacity:0"/>
		<stop  offset="0.1225" style="stop-color:#FBFBFB;stop-opacity:6.124549e-02"/>
		<stop  offset="0.2476" style="stop-color:#EFEFEF;stop-opacity:0.1238"/>
		<stop  offset="0.374" style="stop-color:#DADADA;stop-opacity:0.187"/>
		<stop  offset="0.5013" style="stop-color:#BDBDBD;stop-opacity:0.2507"/>
		<stop  offset="0.6294" style="stop-color:#989898;stop-opacity:0.3147"/>
		<stop  offset="0.7582" style="stop-color:#6B6B6B;stop-opacity:0.3791"/>
		<stop  offset="0.8849" style="stop-color:#373737;stop-opacity:0.4424"/>
		<stop  offset="1" style="stop-color:#000000;stop-opacity:0.5"/>
	</linearGradient>
	<path opacity="0.3" fill="url(#SVGID_8_)" d="M5.9,5.8c0,0,0.1-0.1,0.1-0.1C6,5.8,5.9,5.8,5.9,5.8z"/>
	<linearGradient id="SVGID_9_" gradientUnits="userSpaceOnUse" x1="5.8385" y1="5.9623" x2="5.7086" y2="6.0373">
		<stop  offset="0" style="stop-color:#FFFFFF;stop-opacity:0"/>
		<stop  offset="0.1225" style="stop-color:#FBFBFB;stop-opacity:6.124549e-02"/>
		<stop  offset="0.2476" style="stop-color:#EFEFEF;stop-opacity:0.1238"/>
		<stop  offset="0.374" style="stop-color:#DADADA;stop-opacity:0.187"/>
		<stop  offset="0.5013" style="stop-color:#BDBDBD;stop-opacity:0.2507"/>
		<stop  offset="0.6294" style="stop-color:#989898;stop-opacity:0.3147"/>
		<stop  offset="0.7582" style="stop-color:#6B6B6B;stop-opacity:0.3791"/>
		<stop  offset="0.8849" style="stop-color:#373737;stop-opacity:0.4424"/>
		<stop  offset="1" style="stop-color:#000000;stop-opacity:0.5"/>
	</linearGradient>
	<path opacity="0.3" fill="url(#SVGID_9_)" d="M5.7,6c0,0,0.1,0,0.1-0.1C5.8,6,5.8,6,5.7,6z"/>
</g>
<linearGradient id="SVGID_10_" gradientUnits="userSpaceOnUse" x1="4.105" y1="2.5346" x2="4.9026" y2="2.5346">
	<stop  offset="0" style="stop-color:#FFFFFF;stop-opacity:0"/>
	<stop  offset="0.2584" style="stop-color:#C1C1C1;stop-opacity:0.1292"/>
	<stop  offset="0.8528" style="stop-color:#272727;stop-opacity:0.4264"/>
	<stop  offset="1" style="stop-color:#000000;stop-opacity:0.5"/>
</linearGradient>
<path opacity="0.3" fill="url(#SVGID_10_)" d="M4.1,1.6v1.8l0.8-1.6C4.7,1.7,4.4,1.6,4.1,1.6z"/>
</svg>
