<?xml version="1.0" encoding="utf-8"?>
<!-- Generator: Adobe Illustrator 17.1.0, SVG Export Plug-In . SVG Version: 6.00 Build 0)  -->
<!DOCTYPE svg PUBLIC "-//W3C//DTD SVG 1.1//EN" "http://www.w3.org/Graphics/SVG/1.1/DTD/svg11.dtd">
<svg version="1.1" id="Layer_1" xmlns:sketch="http://www.bohemiancoding.com/sketch/ns"
	 xmlns="http://www.w3.org/2000/svg" xmlns:xlink="http://www.w3.org/1999/xlink" x="0px" y="0px" viewBox="-16.4 0 132.8 100"
	 enable-background="new -16.4 0 132.8 100" xml:space="preserve">
<path fill="#88D1EA" d="M-12,41.4l9.2,15l-11.3,9.7c12.1,3.8,19.8,3.2,30.1,3V45.6C7.3,45.7-1.9,44.8-12,41.4z"/>
<path fill="#FFFFFF" d="M-5.9,51.4l3.1,5l-3.5,3c8,1.8,14.6,1.9,22.3,1.8v-7.8C8.8,53.5,1.9,53.2-5.9,51.4z"/>
<path fill="#88D1EA" d="M112.2,66.9l-9.2-15l11.3-9.7c-12.1-3.8-19.8-3.2-30.1-3v23.5C93,62.5,102.1,63.5,112.2,66.9z"/>
<path fill="#FFFFFF" d="M106.1,56.9l-3.1-5l3.5-3c-8-1.8-14.6-1.9-22.3-1.8v7.8C91.5,54.7,98.3,55.1,106.1,56.9z"/>
<path fill="#29ACD9" d="M3,51.9L16,45.5V51C9.6,52.4,3,51.9,3,51.9z"/>
<path fill="#29ACD9" d="M96.4,56.1l-12.2,6.6v-6.9C84.2,55.8,92.6,55.5,96.4,56.1z"/>
<rect x="16" y="6.5" fill="#FFF6D9" width="68.2" height="87"/>
<g>
	<rect x="23.5" y="30.9" fill="#E2D6B3" width="53.3" height="2.4"/>
	<rect x="23.5" y="38.7" fill="#E2D6B3" width="53.3" height="2.4"/>
	<rect x="23.5" y="46.6" fill="#E2D6B3" width="53.3" height="2.4"/>
	<rect x="23.5" y="54.4" fill="#E2D6B3" width="53.3" height="2.4"/>
	<rect x="23.5" y="62.3" fill="#E2D6B3" width="53.3" height="2.4"/>
	<rect x="23.5" y="70.1" fill="#E2D6B3" width="53.3" height="2.4"/>
	<rect x="23.5" y="78" fill="#E2D6B3" width="53.3" height="2.4"/>
</g>
<path fill="#C1E7F4" d="M6.1,74.3c-1.5,0-3,0-4.5-0.1L3,51.9c12.4,0.7,23.3-3.2,36-7.8c16.2-5.9,34.6-12.6,59.6-10.2l-2.1,22.3
	c-20-1.9-34.5,3.4-49.9,9C34.1,69.6,21.1,74.3,6.1,74.3z"/>
<path fill="#FFFFFF" d="M6.1,66.9c-1.3,0-2.7,0-4.1-0.1l0.5-7.4c13.9,0.8,26.1-3.6,39-8.2c15.5-5.6,33-12,56.4-9.8l-0.7,7.4
	c-21.7-2-37.6,3.8-53.1,9.4C31.6,62.6,19.8,66.9,6.1,66.9z"/>
</svg>
