<?xml version="1.0" encoding="UTF-8" standalone="no"?>
<svg width="300px" height="570px" viewBox="0 0 300 570" version="1.1" xmlns="http://www.w3.org/2000/svg" xmlns:xlink="http://www.w3.org/1999/xlink" xmlns:sketch="http://www.bohemiancoding.com/sketch/ns">
    <!-- Generator: Sketch 3.2.1 (9971) - http://www.bohemiancoding.com/sketch -->
    <title>Artboard 2</title>
    <desc>Created with Sketch.</desc>
    <defs></defs>
    <g id="Page-1" stroke="none" stroke-width="1" fill="none" fill-rule="evenodd" sketch:type="MSPage">
        <g id="Artboard-2" sketch:type="MSArtboardGroup" fill="#E3F3F7">
            <path d="M173.425,296.196 L173.609,296.149 L173.82,295.998 L173.879,295.937 L173.915,295.847 L173.855,295.687 L173.648,295.517 L173.278,295.367 L172.792,295.192 L172.473,295.107 L172.242,295.103 L171.648,295.178 L171.529,295.305 L171.477,295.484 L171.529,295.55 L171.664,295.663 L171.816,295.762 L173.318,296.205 L173.425,296.196" id="Fill-1" sketch:type="MSShapeGroup"></path>
            <path d="M175.162,297.893 L175.138,297.808 L175.007,297.487 L174.951,297.421 L174.871,297.379 L174.182,297.096 L173.991,297.025 L172.246,296.554 L172.099,296.521 L172.015,296.573 L171.979,296.658 L171.959,296.776 L171.999,296.955 L172.079,297.105 L172.477,297.855 L172.533,297.921 L174.716,299.137 L174.8,299.179 L174.911,299.193 L175.118,299.174 L175.293,299.104 L175.365,299.052 L175.405,298.962 L175.393,298.764 L175.162,297.893" id="Fill-2" sketch:type="MSShapeGroup"></path>
            <path d="M208.178,504.31 L208.409,504.362 L209.115,504.376 L209.696,504.339 L210.015,504.032 L209.939,503.834 L209.62,503.193 L209.533,503.142 L209.417,503.114 L208.035,503.019 L205.908,502.944 L205.055,502.882 L204.892,502.944 L204.824,503.01 L204.772,503.226 L204.848,503.288 L204.948,503.33 L208.178,504.31" id="Fill-3" sketch:type="MSShapeGroup"></path>
            <path d="M197.952,505.121 L197.996,505.211 L198.216,505.404 L198.414,505.484 L198.546,505.498 L200.391,505.578 L200.478,505.526 L201.306,504.532 L201.378,504.362 L201.362,504.249 L201.088,503.867 L200.924,503.754 L198.203,503.16 L198.088,503.137 L197.952,503.156 L197.829,503.189 L197.757,503.255 L197.789,503.358 L197.917,503.5 L198.056,504.819 L197.973,505.024 L197.952,505.121" id="Fill-4" sketch:type="MSShapeGroup"></path>
            <path d="M202.279,504.329 L202.729,504.574 L202.988,504.603 L203.111,504.57 L203.374,504.405 L203.426,504.334 L203.485,503.858 L203.41,503.792 L203.323,503.74 L202.936,503.57 L202.645,503.443 L202.506,503.462 L202.209,503.601 L201.701,503.702 L201.709,503.797 L201.769,503.872 L202.279,504.329" id="Fill-5" sketch:type="MSShapeGroup"></path>
            <path d="M234.052,509.254 L233.897,509.131 L233.809,509.08 L233.705,509.042 L233.59,509.019 L232.511,508.83 L231.172,508.623 L231.044,508.608 L230.917,508.623 L230.794,508.656 L230.69,508.703 L230.55,508.726 L230.419,508.717 L230.184,508.67 L230.064,508.632 L229.228,508.349 L229.128,508.312 L228.77,508.109 L228.698,508.048 L228.694,507.939 L228.85,507.821 L230.176,507.176 L230.299,507.162 L230.634,507.246 L230.738,507.284 L231.04,507.539 L231.311,507.689 L231.511,507.76 L231.745,507.812 L232.112,507.869 L232.486,507.916 L233.415,507.977 L233.745,507.968 L234.008,507.901 L234.092,507.85 L234.164,507.784 L234.084,507.261 L234.06,507.143 L232.554,505.465 L232.263,505.201 L232.188,505.135 L232.009,505.036 L231.909,504.999 L231.678,504.951 L231.407,504.965 L227.706,505.347 L227.551,505.366 L227.268,505.413 L227.045,505.493 L226.941,505.54 L226.802,505.672 L226.738,505.734 L225.631,507.091 L225.615,507.185 L225.663,507.275 L225.734,507.341 L225.85,507.364 L225.989,507.341 L226.164,507.228 L226.232,507.162 L226.284,507.086 L227.057,507.652 L228.037,508.58 L228.125,508.985 L227.734,509.603 L227.686,509.674 L227.599,509.73 L227.491,509.754 L227.359,509.744 L227.208,509.617 L226.73,508.99 L226.682,508.901 L225.929,508.264 L225.547,508.274 L224.714,508.095 L223.591,507.138 L223.312,506.728 L222.854,506.007 L223.487,505.427 L223.575,505.376 L223.667,505.343 L223.794,505.352 L223.882,505.404 L223.958,505.47 L224.101,505.738 L224.121,505.851 L224.188,506.059 L224.233,506.148 L224.328,506.328 L224.432,506.365 L225.555,506.191 L225.894,506.031 L226.065,505.917 L226.152,505.781 L226.148,505.672 L226.117,505.569 L225.874,504.994 L225.762,504.829 L224.985,504.216 L224.898,504.164 L224.81,504.117 L224.627,504.051 L224.101,503.877 L223.985,503.853 L223.009,503.834 L222.866,503.839 L222.432,503.9 L222.133,504.049 L221.894,504.221 L221.846,504.296 L221.858,504.391 L220.755,504.362 L220.034,504.225 L219.83,504.15 L218.575,503.594 L217.982,504.141 L218.146,504.386 L218.333,504.852 L218.285,505.032 L218.197,505.088 L216.532,505.531 L215.19,505.635 L215.217,506.596 L215.448,506.648 L215.743,506.775 L216.416,507.081 L216.592,507.185 L216.608,507.275 L216.277,508.307 L216.122,508.533 L216.014,508.576 L215.875,508.599 L215.775,508.561 L215.7,508.495 L215.457,508.189 L215.349,508.024 L215.197,507.765 L214.847,507.369 L213.927,508.415 L213.907,508.51 L214.026,508.665 L214.106,508.731 L215.281,509.372 L216.062,510.135 L216.692,512.035 L216.676,512.133 L216.624,512.204 L216.48,512.336 L216.393,512.393 L215.903,512.529 L215.791,512.525 L215.775,512.435 L215.815,511.888 L215.847,511.804 L215.922,511.738 L216.022,511.483 L215.704,510.498 L215.656,510.409 L215.58,510.343 L215.493,510.291 L214.628,510.404 L214.365,510.461 L213.337,510.772 L213.126,510.861 L212.27,511.323 L208.975,513.5 L208.278,514.216 L206.131,517.304 L206.095,517.393 L206.078,517.488 L206.107,517.671 L206.167,517.751 L208.166,519.268 L210.963,521.177 L211.413,521.436 L211.556,521.121 L211.565,520.046 L211.532,519.947 L211.485,519.858 L211.333,519.726 L210.891,519.471 L210.417,519.368 L210.238,519.264 L210.194,519.174 L209.911,518.397 L209.891,518.175 L209.911,518.081 L209.963,518.006 L210.051,517.949 L210.78,517.633 L210.887,517.591 L211.091,517.666 L212.21,518.288 L212.951,518.779 L213.624,519.123 L215.297,519.547 L215.445,519.542 L215.66,519.349 L215.695,519.264 L215.899,518.057 L215.871,517.954 L214.771,516.78 L214.532,516.601 L213.7,516.139 L213.608,516.092 L213.138,515.989 L213.023,515.965 L212.775,515.927 L212.612,515.937 L212.437,516.05 L212.329,516.092 L212.198,516.078 L212.11,516.031 L212.09,515.913 L212.11,515.814 L212.162,515.744 L212.25,515.687 L212.796,515.465 L214.297,515.362 L214.429,515.371 L215.927,516.031 L216.644,516.757 L216.708,516.837 L217.401,517.318 L217.528,517.327 L217.671,517.304 L218.305,516.931 L218.48,516.823 L218.532,516.639 L218.914,516.417 L219.38,516.201 L219.512,516.191 L220.173,516.375 L220.245,516.441 L220.958,517.12 L221.021,517.195 L221.468,516.757 L222.085,515.64 L221.762,515.079 L221.687,515.018 L221.583,514.98 L220.659,514.768 L220.424,514.716 L220.281,514.721 L218.93,514.179 L217.456,513.547 L216.819,513.203 L216.759,513.123 L216.771,513.029 L216.855,512.657 L216.891,512.572 L216.942,512.496 L217.086,512.364 L217.257,512.256 L217.401,512.233 L217.448,512.43 L217.556,512.704 L217.707,512.831 L217.99,512.982 L219.5,513.717 L219.719,513.783 L219.85,513.792 L222.049,513.925 L224.651,513.934 L224.794,513.929 L225.057,513.872 L225.165,513.825 L227.379,512.779 L226.654,512.685 L226.308,512.798 L226.144,512.817 L225.902,512.779 L225.607,512.675 L227.073,512.129 L227.34,512.091 L227.877,512.119 L228.256,512.166 L227.678,511.903 L227.029,511.601 L226.969,511.526 L227.029,511.493 L227.168,511.469 L227.296,511.479 L227.909,511.577 L229.14,511.601 L230.28,511.502 L231.12,511.351 L233.12,510.927 L234.546,510.47 L234.598,510.395 L234.116,509.329 L234.052,509.254" id="Fill-6" sketch:type="MSShapeGroup"></path>
            <path d="M208.119,510.329 L209.76,509.108 L209.832,509.174 L209.919,509.226 L210.051,509.24 L210.21,509.226 L210.612,508.934 L210.772,508.816 L213.385,505.616 L213.353,505.536 L210.839,504.419 L210.74,504.381 L210.481,504.357 L209.967,504.73 L209.975,505.432 L210.035,505.512 L210.122,505.564 L210.429,505.677 L210.704,505.818 L210.819,505.95 L210.752,506.016 L210.664,506.068 L209.827,506.422 L209.039,506.488 L205.637,506.271 L205.251,506.233 L204.76,506.153 L204.645,506.13 L204.541,506.087 L204.482,506.012 L204.501,505.917 L204.641,505.894 L204.561,505.559 L203.924,505.116 L203.645,504.975 L203.518,504.961 L201.785,505.098 L201.677,505.14 L201.167,505.79 L201.318,506.285 L201.578,506.309 L202.051,506.403 L202.155,506.441 L202.243,506.492 L202.283,506.587 L202.163,506.62 L200.167,507.044 L199,506.921 L198.741,506.893 L198.395,506.813 L197.57,506.511 L197.279,506.379 L196.433,505.889 L196.295,505.782 L195.128,505.187 L193.359,504.565 L192.853,504.683 L192.814,504.768 L193.04,505.526 L193.1,505.606 L193.172,505.672 L193.26,505.724 L193.933,506.026 L194.037,506.068 L194.295,506.097 L194.75,506.049 L194.877,506.064 L195.498,506.163 L195.614,506.186 L195.717,506.229 L196.162,506.505 L196.215,506.536 L196.336,506.66 L196.37,506.705 L196.554,506.902 L196.538,507.001 L196.307,507.053 L196.263,508.005 L197.841,508.806 L199.717,510.201 L198.494,509.942 L197.132,509.937 L196.833,509.975 L196.456,510.131 L196.216,510.244 L195.861,510.456 L195.753,510.498 L195.506,510.564 L195.056,510.574 L194.538,510.517 L194.072,510.409 L193.786,510.277 L193.435,510.069 L193.336,510.027 L193.204,510.013 L193.064,510.036 L192.957,510.079 L192.905,510.154 L192.885,510.249 L192.849,510.828 L192.909,510.904 L193.052,511.035 L194.088,511.808 L195.678,511.587 L196.534,511.285 L196.853,510.819 L196.889,510.734 L196.981,510.677 L197.104,510.644 L198.801,510.531 L199.179,510.583 L199.498,510.687 L199.51,510.781 L199.494,511.219 L199.474,511.526 L199.434,511.61 L199.363,511.677 L198.869,512.016 L198.407,511.827 L198.335,511.766 L197.606,512.416 L197.112,513.255 L196.67,512.756 L196.729,512.577 L196.889,512.355 L196.909,512.256 L196.893,512.143 L196.733,511.686 L196.646,511.63 L196.503,511.653 L195.889,511.827 L195.777,511.87 L195.709,511.936 L195.618,512.096 L195.582,512.181 L195.522,512.463 L195.618,513.632 L195.869,514.165 L196.084,514.08 L196.207,514.047 L196.323,514.075 L196.351,514.155 L196.239,514.41 L196.188,514.485 L195.829,514.909 L195.686,515.037 L195.471,515.122 L194.407,515.235 L192.869,515.192 L192.371,515.089 L191.921,514.966 L191.005,514.867 L189.993,514.876 L189.921,514.942 L189.961,515.032 L190.272,515.409 L190.344,515.475 L190.431,515.527 L190.547,515.555 L190.969,515.574 L191.232,515.602 L191.332,515.64 L191.388,515.696 L191.399,515.791 L191.348,515.866 L190.563,516.139 L190.164,516.205 L188.997,516.144 L187.997,516.667 L189.69,517.643 L191.519,518.632 L192.527,519.382 L192.746,519.58 L193.005,519.702 L193.208,519.782 L193.351,519.759 L193.606,519.693 L196.785,518.317 L197.554,517.813 L198.04,517.247 L198.259,516.974 L198.279,516.771 L198.263,516.653 L198.155,516.356 L199.339,515.249 L201.068,514.612 L201.199,514.603 L202.737,515.329 L203.039,515.084 L204.477,513.807 L206.744,511.742 L208.119,510.329" id="Fill-7" sketch:type="MSShapeGroup"></path>
            <path d="M183.364,511.333 L183.539,511.436 L183.639,511.479 L183.747,510.918 L183.766,510.823 L183.807,510.739 L183.934,510.602 L184.038,510.56 L184.165,510.531 L184.452,510.536 L184.567,510.56 L184.843,510.578 L184.914,510.517 L184.843,510.451 L184.655,510.357 L184.237,510.197 L183.95,510.239 L183.348,510.409 L183.257,510.461 L183.205,510.946 L183.193,511.097 L183.221,511.2 L183.364,511.333" id="Fill-8" sketch:type="MSShapeGroup"></path>
            <path d="M188.981,514.664 L189.427,514.504 L189.599,514.071 L189.619,513.976 L189.511,512.902 L189.288,512.661 L189.053,512.84 L188.77,512.991 L188.448,513.128 L188.113,513.246 L187.488,513.406 L187.344,513.43 L187.229,513.401 L187.248,513.302 L187.304,513.232 L187.523,513.038 L187.806,512.878 L188.344,512.666 L188.503,512.548 L188.611,512.402 L188.619,512.322 L188.575,512.228 L188.18,511.903 L187.79,511.86 L187.679,511.856 L187.535,511.879 L186.002,512.553 L185.926,512.619 L185.727,512.822 L185.619,512.968 L185.579,513.052 L186.061,513.792 L186.129,513.858 L186.205,513.925 L187.3,514.721 L187.822,515.037 L188.18,514.933 L188.981,514.664" id="Fill-9" sketch:type="MSShapeGroup"></path>
            <path d="M184.838,512.383 L184.727,512.228 L184.639,512.176 L184.496,512.171 L183.325,512.6 L183.221,512.642 L183.249,512.746 L183.305,512.826 L183.663,513.156 L183.766,513.194 L184.097,513.288 L184.344,513.335 L184.504,513.321 L184.615,513.279 L184.866,513.109 L184.934,513.048 L184.926,512.567 L184.838,512.383" id="Fill-10" sketch:type="MSShapeGroup"></path>
            <path d="M224.456,515.423 L223.878,515.428 L223.735,515.451 L223.647,515.508 L223.331,515.956 L223.193,515.984 L223.089,516.031 L223.165,516.469 L223.229,516.549 L224.312,517.2 L224.4,517.252 L224.507,517.209 L224.599,517.153 L224.663,517.087 L224.742,515.668 L224.543,515.451 L224.456,515.423" id="Fill-11" sketch:type="MSShapeGroup"></path>
            <path d="M206.597,518.548 L206.521,518.486 L206.298,518.42 L206.143,518.434 L205.601,518.5 L205.432,519.913 L205.43,520.051 L205.446,520.169 L205.49,520.258 L205.569,520.324 L205.696,520.338 L206.486,519.735 L206.625,519.603 L206.681,519.533 L206.716,519.339 L206.617,518.665 L206.597,518.548" id="Fill-12" sketch:type="MSShapeGroup"></path>
            <path d="M293.097,78.335 L293.042,78.057 L292.982,77.892 L292.867,77.676 L291.859,75.993 L290.62,73.788 L290.592,73.703 L290.58,73.613 L290.48,72.492 L290.54,71.799 L290.62,71.526 L290.644,71.436 L290.636,71.229 L290.616,71.134 L290.118,69.235 L290.07,69.094 L289.732,68.321 L289.683,68.26 L286.704,65.927 L286.616,65.917 L286.537,65.95 L286.413,66.045 L285.871,66.624 L285.564,67.072 L284.365,67.166 L284.286,67.025 L284.194,66.893 L284.122,66.851 L284.035,66.846 L283.935,66.851 L283.616,66.959 L282.661,67.336 L282.545,67.444 L281.621,68.278 L281.386,68.066 L280.39,67.232 L280.302,67.204 L280.203,67.209 L279.521,67.263 L279.171,68.542 L279.338,70.804 L279.441,73.547 L278.729,74.019 L278.657,74.061 L278.601,74.118 L278.573,74.207 L278.617,77.087 L278.621,77.19 L278.669,77.369 L278.832,77.544 L278.896,77.596 L278.996,77.718 L279.027,77.902 L278.964,78.072 L278.872,78.208 L278.537,78.557 L278.673,79.24 L278.669,79.353 L278.637,79.561 L278.203,81.677 L278.175,81.771 L278.095,81.941 L276.111,85.692 L275.952,85.626 L275.625,85.602 L275.534,85.616 L275.37,85.664 L275.092,85.833 L274.86,86.05 L274.765,86.182 L274.725,86.258 L274.697,86.352 L274.681,86.455 L274.649,86.917 L274.598,87.228 L274.514,87.502 L274.478,87.577 L274.382,87.709 L274.207,87.874 L273.968,87.964 L273.785,87.983 L273.275,87.992 L273.107,88.039 L273.036,88.082 L272.9,88.176 L272.841,88.232 L271.964,89.165 L271.92,89.231 L271.881,89.311 L271.853,89.533 L270.168,90.386 L269.881,90.409 L268.327,90.9 L268.088,90.989 L267.953,91.069 L267.833,91.178 L267.726,91.3 L265.917,93.374 L265.547,94.298 L265.435,95.117 L265.554,95.334 L265.626,95.593 L265.63,95.702 L265.603,95.918 L265.399,96.8 L265.371,96.889 L265.216,97.205 L265.168,97.281 L265.057,97.403 L263.34,98.831 L263.212,98.925 L263.133,98.954 L262.953,98.987 L262.854,98.991 L262.667,98.939 L261.686,98.388 L261.623,98.336 L261.467,98.148 L261.432,98.077 L261.372,97.7 L261.3,97.436 L261.264,97.365 L261.161,97.238 L261.033,97.134 L260.886,97.054 L260.798,97.026 L260.579,97.007 L260.48,97.012 L259.926,97.102 L259.009,96.673 L258.822,96.621 L258.503,96.607 L258.014,96.64 L257.544,96.692 L257.452,96.71 L257.297,96.767 L257.157,96.847 L255.643,97.992 L255.584,98.044 L255.536,98.11 L255.492,98.19 L255.476,98.294 L255.536,98.68 L255.572,99.081 L255.544,99.298 L255.424,99.533 L254.472,101.145 L254.373,101.277 L254.253,101.381 L254.006,101.451 L253.719,101.385 L253.424,101.22 L252.935,100.815 L252.831,100.693 L252.397,100.108 L252.293,99.877 L252.197,99.533 L252.046,99.345 L251.887,99.269 L251.54,99.147 L251.245,99.09 L251.026,99.072 L250.724,99.076 L250.186,99.171 L249.776,99.298 L249.497,99.463 L249.377,99.566 L249.299,99.672 L249.018,100.014 L248.859,100.071 L248.565,100.033 L248.305,99.938 L248.154,99.859 L247.967,99.698 L247.764,99.448 L247.441,99.095 L247.154,98.812 L246.963,98.657 L246.891,98.614 L246.704,98.562 L246.397,98.558 L246.306,98.572 L246.055,98.647 L245.593,98.836 L245.107,99.119 L244.569,99.467 L244.437,99.561 L244.234,99.741 L244.059,99.816 L243.884,99.825 L243.454,99.797 L243.231,99.778 L242.728,99.684 L242.115,99.477 L241.792,99.331 L241.573,99.203 L241.227,98.972 L240.828,98.784 L240.446,98.69 L240.14,98.699 L239.163,98.558 L236.375,97.818 L236.104,97.733 L235.944,97.658 L235.733,97.521 L235.299,97.153 L234.992,96.889 L234.709,96.71 L234.538,96.649 L233.737,96.428 L231.666,96.145 L230.586,96.055 L228.503,96.032 L226.591,96.117 L223.866,96.324 L223.495,96.366 L223.157,96.446 L222.822,96.541 L222.579,96.616 L222.075,96.847 L222.177,95.815 L222.157,95.626 L222.113,95.537 L222.014,95.41 L221.842,95.24 L221.476,94.92 L221.384,94.787 L221.342,94.721 L221.293,94.552 L221.325,94.33 L221.352,94.241 L221.384,94.156 L221.516,93.934 L221.739,93.694 L222.057,93.59 L222.348,93.581 L222.44,93.567 L222.655,93.463 L223.966,91.352 L224.012,91.155 L225.089,89.91 L225.687,89.525 L226.204,89.311 L228.141,85.635 L228.324,84.731 L228.332,84.636 L228.2,84.335 L228.045,84.052 L227.65,83.75 L227.619,83.675 L227.603,83.581 L227.714,81.738 L227.73,81.63 L227.782,81.436 L228.423,79.603 L228.862,78.868 L228.67,78.015 L230.052,76.526 L230.602,76.342 L230.805,76.2 L232.638,74.707 L232.813,74.537 L232.841,74.447 L232.829,74.353 L232.789,74.273 L232.658,74.188 L232.482,74.122 L232.371,74.113 L232.22,74.037 L232.168,73.972 L232.128,73.797 L232.16,73.703 L232.259,73.571 L232.841,72.883 L233.443,71.926 L233.562,71.7 L233.57,71.577 L233.562,71.483 L233.456,70.655 L233.614,70.606 L233.817,70.484 L234.287,70.064 L234.407,69.956 L236.817,66.86 L237.143,65.484 L237.151,65.145 L237.143,65.06 L237.116,64.97 L237.024,64.838 L236.837,64.687 L236.693,64.603 L236.602,64.57 L236.474,64.485 L236.096,64.178 L236.036,64.122 L235.861,63.896 L235.498,62.732 L235.44,62.531 L234.956,62.142 L234.578,61.619 L234.498,61.492 L234.398,61.252 L234.355,61.077 L234.315,60.795 L234.244,60.54 L234.1,60.356 L232.781,59.192 L232.594,59.027 L232.363,58.928 L232.064,58.862 L231.67,58.853 L229.889,58.123 L228.893,57.675 L228.168,57.152 L228.109,57.095 L226.706,57.175 L225.75,57.109 L225.638,56.878 L224.396,55.234 L224.284,55.111 L224.133,55.045 L223.205,54.729 L223.009,54.687 L222.544,54.597 L222.432,54.588 L222.077,54.63 L221.141,54.522 L219.225,53.876 L219.094,53.787 L218.106,52.957 L217.516,52.411 L217.285,52.203 L216.552,51.68 L215.564,51.068 L214.943,50.893 L212.25,49.314 L211.545,48.867 L211.329,48.636 L211.242,48.504 L211.007,48.075 L210.812,47.834 L209.68,46.619 L209.624,46.562 L208.788,45.949 L208.716,45.907 L206.792,44.536 L202.311,41.298 L201.517,40.737 L201.107,40.85 L200.805,40.982 L200.402,41.119 L200.064,41.213 L199.729,41.279 L198.148,41.241 L197.956,41.208 L195.518,40.384 L193.841,39.743 L193.789,39.682 L193.658,39.479 L193.614,39.408 L193.566,39.234 L193.57,39.116 L193.542,39.031 L193.26,38.781 L191.563,38.404 L191.153,38.409 L189.511,38.023 L187.918,37.547 L187.611,37.405 L187.547,37.358 L187.507,37.283 L187.368,36.943 L187.224,36.401 L186.161,33.979 L186.117,33.908 L186.065,33.847 L185.105,33.018 L183.496,31.906 L182.5,31.345 L181.257,30.699 L179.265,28.696 L179.138,28.597 L178.759,28.418 L178.676,28.39 L178.405,28.437 L178.245,28.489 L178.146,28.494 L178.05,28.479 L177.915,28.395 L177.114,27.74 L177.074,27.669 L177.015,27.504 L176.998,27.41 L177.03,26.844 L177.01,26.75 L176.883,26.547 L176.831,26.486 L175.457,25.133 L175.031,24.893 L174.959,24.855 L174.871,24.827 L174.576,24.789 L174.513,24.742 L173.577,23.781 L173.525,23.719 L173.393,23.517 L173.282,23.187 L173.302,22.895 L173.326,22.805 L173.329,22.711 L173.302,22.626 L173.067,22.013 L172.959,21.773 L172.776,21.509 L171.919,20.491 L171.163,19.469 L169.971,16.377 L169.975,16.259 L169.936,15.849 L169.84,15.614 L169.74,15.491 L169.29,15.053 L168.852,14.798 L168.486,14.619 L168.262,14.605 L168.075,14.572 L167.852,14.459 L167.657,14.322 L165.904,12.932 L164.522,11.316 L164.149,10.694 L163.988,10.675 L163.924,10.623 L162.41,9.265 L162.06,8.724 L161.976,8.474 L161.972,8.37 L162.044,8.092 L162.012,7.64 L161.92,7.018 L161.904,6.923 L161.849,6.758 L161.789,6.625 L161.737,6.589 L161.648,6.587 L161.474,6.584 L160.673,6.603 L157.172,6.65 L150.531,6.697 L149.205,6.692 L148.527,6.688 L145.544,6.655 L144.799,8.243 L143.858,10.877 L142.883,13.601 L142.269,14.553 L142.178,14.69 L141.91,14.973 L141.795,15.086 L141.743,15.124 L141.54,15.27 L141.46,15.416 L141.198,15.967 L141.066,16.273 L140.716,17.475 L140.663,17.659 L140.648,17.763 L140.596,18.983 L140.628,19.44 L140.377,20.765 L140.162,21.241 L140.043,21.462 L139.843,21.429 L139.767,21.391 L139.74,21.307 L139.708,20.944 L139.712,20.453 L139.644,19.657 L139.536,19.209 L139.501,19.139 L139.397,19.016 L138.727,18.239 L138.262,17.701 L138.21,17.64 L138.182,17.555 L138.15,17.367 L138.162,17.136 L138.178,17.032 L138.333,16.481 L138.075,15.369 L137.154,13.578 L136.903,11.711 L136.963,11.537 L136.979,11.433 L136.971,11.33 L136.919,11.165 L136.792,10.957 L136.23,10.283 L136.17,10.232 L135.067,9.52 L134.949,9.592 L134.859,9.647 L134.708,9.708 L134.537,9.741 L134.334,9.718 L130.868,8.507 L130.725,8.427 L130.526,8.182 L127.63,8.248 L121.769,8.337 L120.929,8.488 L119.829,8.563 L119.63,8.535 L119.546,8.507 L119.403,8.427 L118.702,7.852 L117.917,6.735 L117.077,5.509 L114.905,3.789 L113.224,3.049 L112.819,2.917 L112.655,3.083 L112.603,3.309 L112.245,4.982 L111.973,6.268 L111.842,7.183 L111.838,7.296 L111.615,7.946 L111.064,8.619 L110.248,8.917 L108.91,9.374 L107.99,9.666 L107.177,9.897 L106.138,9.968 L105.452,10.5 L104.954,13.003 L104.907,13.884 L103.823,14.327 L102.732,14.751 L101.353,15.529 L101.417,16.377 L101.489,17.254 L101.501,17.546 L99.911,18.823 L99.871,18.875 L99.043,20.581 L100.174,21.919 L101.664,23.653 L100.995,25.713 L100.333,27.697 L99.688,29.686 L99.513,30.256 L98.939,32.575 L98.078,36.046 L96.859,40.94 L92.499,43.076 L88.781,44.88 L84.61,46.873 L83.718,47.297 L83.678,47.373 L83.355,48.16 L82.921,48.928 L82.793,49.018 L82.714,49.036 L82.614,49.031 L82.172,48.876 L82.08,48.867 L81.929,48.919 L81.754,49.083 L81.71,49.154 L80.694,50.832 L80.049,51.944 L79.579,52.948 L79.232,53.711 L79.173,53.909 L79.153,54.022 L79.137,54.329 L79.157,54.414 L79.427,55.257 L79.515,55.394 L80.12,55.738 L80.2,55.776 L82.256,59.352 L82.287,59.527 L82.283,59.631 L82.252,59.73 L82.2,59.791 L82.056,59.852 L81.308,60.13 L80.366,60.295 L80.284,60.338 L80.132,60.545 L79.965,60.861 L79.937,60.959 L79.734,61.812 L79.667,62.117 L79.599,62.185 L79.303,62.887 L79.168,63.259 L79.081,63.561 L78.83,64.72 L78.766,65.06 L78.734,65.677 L78.754,65.861 L78.802,66.115 L79.399,68.015 L80.148,69.725 L80.26,70.14 L80.818,72.902 L81.622,76.959 L81.63,77.153 L81.61,77.266 L81.538,77.454 L81.32,77.69 L80.515,78.491 L80.395,78.595 L79.882,78.971 L79.575,79.236 L79.455,79.339 L79.343,79.457 L79.252,79.603 L79.212,79.693 L79.153,79.891 L79.057,80.452 L79.001,80.984 L78.941,81.912 L78.937,82.407 L78.965,83.077 L79.021,83.336 L79.069,83.501 L79.128,83.651 L79.244,83.868 L79.575,84.42 L80.877,86.064 L81.076,86.319 L81.248,86.592 L83.092,89.632 L83.2,89.948 L83.216,90.032 L82.698,91.866 L82.26,92.153 L81.71,92.464 L81.511,92.568 L81.363,92.629 L78.153,93.911 L77.993,93.727 L77.495,93.383 L77.344,93.294 L77.141,93.261 L76.738,93.223 L76.197,93.251 L76.033,93.289 L75.886,93.35 L75.818,93.397 L75.707,93.515 L75.611,93.661 L75.177,94.458 L74.902,95.023 L74.755,95.386 L74.722,95.603 L74.735,95.796 L74.798,96.046 L74.83,96.121 L74.914,96.258 L74.918,96.357 L74.396,97.606 L74.36,97.691 L72.388,101.597 L72.344,101.682 L72.253,101.828 L72.026,102.064 L71.962,102.111 L71.854,102.243 L71.815,102.328 L71.787,102.427 L71.372,103.907 L71.265,104.606 L70.767,106.786 L70.635,107.173 L70.444,107.62 L70.329,107.856 L70.117,108.012 L69.668,108.045 L69.404,108.073 L69.153,108.125 L68.938,108.233 L68.743,108.37 L68.687,108.426 L68.628,108.497 L68.317,109.44 L68.181,110.085 L68.118,110.288 L68.034,110.457 L67.899,110.693 L67.273,111.494 L65.393,113.733 L65.337,113.794 L64.313,114.685 L63.595,115.238 L63.497,117.621 L63.437,118.153 L63.385,118.229 L63.322,118.271 L63.011,118.384 L62.895,118.502 L62.847,118.573 L62.31,119.643 L62.282,119.958 L62.29,120.637 L62.341,120.901 L62.433,121.132 L62.493,121.287 L62.572,121.509 L62.624,121.674 L62.632,121.961 L62.624,122.065 L62.6,122.178 L62.13,123.479 L61.68,125.689 L61.712,126.552 L61.704,126.655 L61.64,126.976 L61.609,127.074 L61.517,127.235 L61.353,127.423 L61.087,127.602 L60.943,127.678 L60.78,127.729 L60.122,127.739 L60.039,127.758 L59.971,127.8 L59.222,128.814 L58.262,130.185 L58.222,130.392 L58.202,130.6 L58.155,131.424 L58.207,131.684 L58.266,131.839 L58.609,132.593 L59.155,134.488 L59.219,134.738 L59.238,134.921 L59.274,135.487 L59.266,135.689 L59.219,135.916 L59.123,136.217 L59.099,136.425 L59.107,136.618 L59.171,136.868 L59.202,136.948 L59.334,137.155 L59.405,137.207 L59.84,137.504 L59.872,137.579 L59.888,137.669 L60.007,138.823 L60.019,139.111 L59.995,140.818 L59.963,141.141 L59.817,141.927 L59.729,142.367 L60.541,144.083 L60.681,144.182 L60.923,144.413 L61.039,144.63 L61.103,144.785 L61.13,144.865 L61.138,144.959 L61.067,145.6 L60.122,147.839 L60.083,147.924 L59.581,148.649 L59.525,148.706 L59.454,148.753 L58.76,149.055 L58.593,149.088 L58.227,149.116 L58.019,149.097 L57.808,149.041 L56.732,149.828 L55.617,151.859 L55.032,153.188 L54.792,153.876 L54.139,156.246 L54.091,156.473 L53.968,157.434 L53.956,157.542 L53.896,158.169 L53.904,158.461 L53.92,158.546 L53.952,158.626 L54.024,158.772 L54.474,159.262 L54.422,159.838 L53.462,160.912 L52.482,161.261 L52.362,161.044 L52.263,160.912 L52.191,160.86 L52.088,160.851 L52.012,160.884 L51.893,160.997 L51.183,162.034 L51.06,162.293 L51.008,162.524 L50.606,164.663 L50.613,164.856 L50.646,165.031 L50.514,167.293 L50.347,168.33 L50.231,168.759 L50.219,168.862 L50.235,168.947 L50.267,169.027 L52.072,173.457 L52.247,173.735 L52.482,174.07 L52.542,174.131 L52.685,174.235 L52.773,174.277 L52.984,174.334 L53.299,174.367 L53.693,174.358 L53.78,174.343 L53.944,174.292 L54.187,174.273 L54.398,174.334 L54.486,174.376 L54.661,174.555 L55.203,175.187 L55.29,175.324 L55.326,175.498 L55.334,175.691 L55.326,175.771 L55.294,175.875 L54.932,176.949 L54.888,177.039 L54.82,177.082 L54.741,177.115 L54.649,177.119 L54.351,177.115 L54.151,177.105 L53.649,177.774 L54.103,180.032 L54.111,180.319 L54.05,180.8 L54.048,180.946 L54.111,181.106 L54.167,181.163 L54.314,181.266 L55.149,181.556 L55.342,182.096 L56.442,184.372 L56.557,184.787 L56.545,184.989 L56.469,185.513 L56.35,186.021 L56.294,186.092 L56.254,186.182 L56.23,186.295 L56.199,186.611 L56.191,186.809 L56.215,187.091 L56.522,189.066 L56.585,189.221 L56.673,189.358 L57.904,190.73 L57.975,190.781 L58.234,190.909 L58.641,191.041 L58.724,191.083 L58.784,191.14 L58.832,191.21 L58.836,191.309 L58.804,191.408 L58.35,192.398 L57.625,193.364 L57.224,194.144 L57.41,194.429 L57.442,194.504 L57.477,194.679 L57.481,194.778 L57.469,194.881 L57.394,195.221 L57.326,195.423 L57.282,195.508 L57.219,195.711 L57.199,196.017 L57.234,196.191 L57.33,196.427 L58.581,198.275 L58.712,198.388 L58.82,198.397 L58.987,198.336 L59.051,198.279 L59.143,198.119 L59.23,197.935 L59.254,197.822 L59.29,197.723 L59.394,197.577 L59.577,197.398 L59.812,197.304 L59.995,197.285 L60.107,197.294 L60.31,197.36 L60.569,197.488 L61.409,197.912 L61.513,198.044 L61.545,198.119 L61.888,199.731 L61.892,199.825 L61.855,200.047 L61.784,200.23 L61.732,200.306 L61.485,200.541 L61.433,200.612 L61.385,200.683 L61.254,200.942 L60.533,202.629 L60.509,202.742 L60.031,206.314 L59.999,206.63 L60.027,207.304 L60.314,208.398 L60.828,211.88 L61.262,213.982 L61.337,214.128 L61.342,214.227 L61.31,214.326 L61.186,214.444 L61.114,214.486 L60.258,214.953 L59.589,214.911 L59.382,214.845 L59.147,214.797 L58.852,214.807 L58.31,214.896 L58.147,214.958 L57.97,215.083 L57.944,215.108 L57.868,215.292 L57.848,215.504 L57.904,216.254 L58.012,216.871 L58.016,216.97 L58.003,217.074 L57.972,217.173 L56.569,219.161 L56.466,219.308 L56.41,219.378 L55.318,221.461 L54.386,224.713 L53.493,227.144 L53.462,227.272 L53.45,227.772 L53.446,228.069 L53.462,228.54 L53.522,228.898 L53.494,229.402 L53.47,229.614 L53.45,229.704 L53.374,229.892 L53.259,230.02 L53.115,230.109 L52.187,230.561 L51.737,230.646 L51.247,230.675 L51.04,230.665 L50.96,230.698 L50.889,230.741 L50.717,230.943 L50.586,231.203 L50.514,231.4 L50.49,231.514 L50.494,231.707 L50.514,231.796 L50.578,231.952 L50.761,232.23 L50.972,232.395 L51.048,232.442 L52.602,233.38 L52.972,235.934 L52.884,237.527 L52.829,237.715 L52.705,237.833 L52.649,237.904 L52.625,238.116 L52.793,238.601 L53.283,239.671 L53.761,240.746 L53.792,240.826 L53.808,240.911 L53.78,241.024 L53.729,241.099 L53.665,241.156 L53.486,241.189 L53.406,241.222 L53.331,241.264 L53.207,241.382 L53.151,241.457 L52.884,241.971 L52.765,242.245 L52.741,242.452 L52.797,243.635 L52.829,243.71 L52.972,245.444 L52.568,246.47 L52.454,246.637 L52.346,246.783 L52.199,246.873 L52.04,246.929 L51.857,246.967 L51.546,246.962 L51.335,246.891 L51.243,246.849 L50.211,246.957 L48.546,248.753 L48.295,249.846 L48.299,249.945 L48.363,250.101 L48.399,250.176 L48.534,250.383 L48.662,250.699 L48.669,250.892 L48.642,251.005 L48.562,251.189 L48.498,251.25 L48.355,251.335 L45.073,252.41 L44.905,252.438 L44.57,252.367 L44.075,252.237 L43.893,252.292 L43.77,252.41 L43.722,252.495 L43.551,253.282 L43.515,253.503 L43.487,253.711 L42.348,256.745 L41.654,258.452 L41.63,258.565 L42.18,260.709 L42.694,263.07 L42.447,264.385 L42.316,264.932 L42.22,265.101 L42.168,265.177 L42.057,265.318 L41.734,265.605 L41.683,265.681 L41.591,265.851 L41.519,266.048 L41.491,266.162 L41.479,266.364 L41.495,266.449 L41.886,267.486 L41.918,267.566 L41.993,267.712 L42.132,267.92 L42.32,268.103 L42.619,268.509 L42.742,268.824 L42.762,268.909 L42.766,269.102 L42.654,270.959 L42.619,271.058 L42.563,271.134 L42.352,271.28 L42.129,271.412 L41.981,271.497 L41.85,271.614 L41.73,271.897 L41.695,272.213 L41.698,272.401 L41.71,272.788 L41.726,272.972 L41.782,273.231 L41.957,273.707 L42.053,273.848 L42.344,274.55 L42.443,274.941 L42.535,275.342 L42.91,276.025 L42.989,276.176 L44.316,279.225 L44.347,279.301 L44.363,279.39 L44.303,280.71 L44.212,281.403 L44.152,281.714 L44.12,281.907 L44.124,282.006 L44.272,282.93 L44.678,285.022 L44.73,285.187 L44.793,285.343 L44.957,285.639 L45.1,285.847 L45.527,286.266 L45.758,286.422 L46.02,286.558 L46.331,286.761 L46.55,286.926 L46.61,286.987 L46.706,287.124 L46.774,287.279 L46.81,287.454 L46.829,287.638 L46.833,287.732 L46.754,288.071 L46.319,289.768 L46.264,289.838 L45.443,290.635 L45.375,290.691 L45.224,290.781 L44.945,290.828 L44.511,290.814 L44.268,290.762 L44.037,290.738 L43.834,290.743 L43.631,290.762 L43.463,290.823 L42.91,291.092 L40.886,292.195 L39.515,292.954 L39.137,293.175 L38.748,293.514 L38.611,293.637 L38.555,293.708 L38.459,293.877 L38.392,294.052 L38.308,294.391 L38.253,295.296 L38.248,295.687 L38.264,295.777 L38.4,296.182 L38.543,297.261 L38.754,299.038 L38.747,299.24 L38.547,300.612 L38.511,300.711 L37.874,302.398 L37.834,302.497 L37.344,304.518 L37.36,304.702 L37.26,305.169 L37.232,305.282 L37.149,305.466 L37.089,305.537 L37.006,305.57 L36.91,305.584 L35.719,305.598 L35.488,305.574 L35.396,305.532 L35.273,305.409 L35.221,305.244 L34.811,304.707 L34.747,304.646 L34.631,304.632 L34.528,304.684 L34.48,304.721 L34.376,304.877 L34.337,304.976 L34.165,305.56 L34.122,305.871 L34.193,307.313 L34.209,307.492 L34.643,309.448 L34.711,309.603 L34.839,309.726 L35.229,311.187 L34.747,312.832 L33.556,313.544 L32.962,313.977 L32.572,315.452 L32.588,315.542 L32.962,316.197 L33.862,317.135 L34.05,317.187 L34.109,317.116 L34.177,316.786 L34.237,316.715 L34.345,316.748 L34.643,316.965 L34.707,317.026 L34.755,317.092 L34.787,317.172 L34.807,317.625 L34.791,317.728 L34.755,317.827 L34.249,318.888 L34.106,319.142 L33.99,319.284 L33.914,319.326 L33.799,319.317 L33.703,319.274 L33.62,319.218 L33.464,319.02 L33.4,318.958 L33.289,318.925 L33.173,318.916 L33.086,318.944 L32.962,319.072 L32.297,321.046 L32.233,321.72 L32.277,321.791 L32.317,321.96 L32.301,322.163 L32.274,322.267 L32.209,322.484 L32.042,322.865 L31.934,323.021 L31.703,323.308 L31.405,323.586 L31.058,323.86 L30.982,323.902 L30.779,324.076 L30.691,324.26 L30.68,324.458 L31.201,325.702 L31.867,327.027 L31.998,327.244 L32.082,327.394 L32.153,327.621 L32.289,328.125 L32.309,328.304 L32.285,328.393 L31.991,329.183 L32.257,329.892 L32.261,330.085 L31.958,333.092 L31.918,333.417 L31.867,333.587 L31.735,333.827 L31.68,333.893 L31.592,334.049 L31.56,334.143 L31.42,334.958 L31.413,335.076 L31.42,335.18 L31.504,335.557 L31.608,335.806 L31.703,335.962 L31.823,336.198 L31.91,336.471 L32.121,338.314 L31.516,339.237 L31.309,339.402 L31.197,339.539 L31.15,339.619 L31.13,339.723 L31.142,339.93 L31.249,340.18 L32.118,341.994 L32.978,343.521 L33.05,343.686 L33.161,344.044 L33.337,344.897 L33.388,345.19 L33.416,345.953 L33.795,346.396 L33.843,346.467 L33.851,346.57 L33.906,347.504 L33.898,347.598 L33.858,347.678 L33.205,348.149 L33.126,348.192 L31.397,348.917 L31.205,348.979 L30.942,348.964 L30.883,348.927 L30.827,348.856 L30.795,348.771 L30.755,348.587 L30.68,348.305 L30.628,348.229 L30.564,348.168 L30.488,348.121 L30.397,348.078 L30.162,348.045 L29.959,348.097 L29.795,348.182 L29.644,348.276 L29.449,348.455 L29.393,348.521 L28.13,350.661 L28.086,350.741 L28.078,350.859 L28.11,350.939 L28.309,351.231 L28.508,351.401 L28.799,351.613 L29.158,351.886 L29.285,352.009 L29.353,352.174 L29.349,352.292 L29.325,352.395 L28.401,354.865 L28.345,354.931 L28.162,355.246 L28.034,355.614 L27.975,355.925 L27.982,356.033 L28.074,357.155 L28.09,357.249 L28.162,357.414 L28.21,357.485 L28.281,357.655 L28.365,358.032 L28.397,358.333 L28.433,358.861 L28.508,360.459 L28.484,360.808 L28.457,361.029 L28.397,361.34 L28.289,361.599 L28.198,361.76 L28.118,361.934 L28.066,362.127 L28.046,362.231 L27.971,362.777 L27.987,362.985 L28.007,363.079 L28.078,363.244 L28.21,363.475 L28.345,363.701 L28.791,364.361 L28.903,364.498 L29.214,364.7 L29.859,364.974 L30.102,365.006 L30.56,364.978 L30.962,364.997 L31.863,365.073 L32.209,365.134 L32.317,365.162 L32.58,365.289 L33.627,365.803 L33.759,365.926 L33.803,366.114 L33.799,367.604 L33.791,367.698 L33.743,367.895 L33.651,368.051 L33.58,368.107 L33.496,368.15 L33.372,368.159 L33.265,368.131 L33.094,368.042 L32.99,368.013 L32.879,368.009 L32.664,368.046 L31.488,368.404 L31.444,368.48 L30.979,369.488 L30.735,370.511 L30.791,370.586 L30.958,370.676 L31.094,370.69 L32.138,371.416 L34.169,372.971 L34.233,373.032 L34.269,373.112 L34.321,373.409 L34.404,374.121 L34.416,374.333 L34.384,374.427 L34.293,374.583 L34.237,374.654 L34.01,374.804 L33.321,375.139 L33.137,375.214 L32.935,375.262 L32.763,375.346 L32.704,375.417 L32.675,375.634 L32.708,375.836 L32.731,375.931 L32.803,376.096 L33.468,376.826 L34.297,377.627 L34.99,378.429 L35.03,378.509 L35.042,378.782 L35.034,378.895 L34.958,379.069 L34.866,379.23 L33.604,380.888 L33.137,381.313 L32.5,382.538 L32.655,382.75 L32.779,382.99 L32.887,383.24 L32.926,383.547 L32.935,385.295 L32.926,385.413 L32.891,385.507 L32.759,385.63 L32.364,385.752 L32.281,385.794 L32.149,385.917 L32.102,385.997 L32.07,386.087 L32.05,386.195 L32.086,386.275 L32.289,386.563 L32.357,386.638 L32.512,386.737 L32.608,386.779 L33.146,386.812 L35.328,386.846 L36.364,386.85 L36.611,386.836 L37.42,386.718 L38.428,386.671 L38.69,386.695 L41.392,387.133 L41.618,387.246 L41.782,387.345 L41.993,387.515 L42.097,387.661 L42.73,388.848 L42.754,388.943 L42.762,389.046 L42.634,389.419 L42.499,389.659 L42.379,389.796 L42.296,389.838 L42.196,389.871 L42.057,389.866 L41.81,389.833 L41.575,389.857 L41.483,390.017 L41.037,390.833 L40.965,391.134 L40.961,391.252 L40.973,391.356 L41.029,391.53 L41.069,391.615 L41.137,391.898 L41.165,392.213 L41.157,392.331 L41.105,392.529 L41.013,392.689 L40.423,393.368 L40.352,393.424 L40.264,393.467 L39.93,393.523 L39.44,393.519 L39.113,393.434 L38.906,393.368 L38.635,393.241 L38.069,392.892 L37.854,392.722 L37.599,392.585 L37.504,392.543 L37.392,392.519 L37.129,392.496 L36.99,392.491 L36.767,392.529 L36.472,392.623 L36.213,392.75 L35.683,393 L35.488,393.062 L35.289,393.123 L34.938,393.17 L34.651,393.076 L34.364,392.958 L34.066,392.854 L33.516,392.713 L33.269,392.68 L33.157,392.699 L33.058,392.727 L32.97,392.769 L32.85,392.906 L32.711,393.146 L32.58,393.269 L32.369,393.321 L32.129,393.344 L30.719,393.189 L30.612,393.161 L30.341,393.057 L30.054,392.939 L29.691,392.769 L29.361,392.685 L29.222,392.68 L29.01,392.727 L28.891,392.864 L28.843,392.944 L28.811,393.033 L28.791,393.137 L28.803,393.349 L28.955,395.121 L29.07,395.253 L30.911,395.536 L32.743,395.682 L33.687,395.79 L35.826,396.37 L36.085,396.506 L36.368,396.742 L36.448,396.855 L36.468,396.883 L37.169,398.137 L39.46,400.597 L39.579,400.729 L39.655,400.894 L40.041,401.832 L40.057,402.044 L40.009,402.124 L37.607,404.956 L35.743,405.739 L35.492,405.706 L35.353,405.701 L35.221,405.706 L34.994,405.744 L34.668,405.81 L34.09,405.998 L33.755,406.182 L33.52,406.337 L33.46,406.403 L33.118,407.864 L33.078,408.072 L32.954,409.165 L32.946,409.283 L33.428,411.177 L33.484,411.248 L33.548,411.309 L33.827,411.436 L34.018,411.517 L34.353,411.597 L34.954,411.823 L35.034,411.87 L35.169,411.992 L35.277,412.139 L35.353,412.304 L35.663,413.298 L35.683,413.392 L35.651,413.486 L35.576,413.543 L35.153,413.769 L35.062,413.812 L40.009,413.818 L36.675,413.821 L35.062,413.812 L34.763,414.033 L34.277,414.575 L34.046,414.858 L33.902,415.098 L33.775,415.353 L33.604,415.57 L33.408,415.758 L33.245,415.857 L32.938,415.951 L32.492,416.036 L32.106,416.069 L31.528,416.159 L31.44,416.201 L31.365,416.258 L31.317,416.338 L31.313,416.432 L31.377,416.493 L32.249,417.186 L32.428,417.276 L32.727,417.346 L32.935,417.412 L33.229,417.53 L33.396,417.629 L33.5,417.775 L33.592,417.94 L33.651,418.119 L33.675,418.214 L33.687,418.425 L33.914,421.126 L34.321,421.937 L34.4,422.106 L34.476,422.271 L34.651,422.7 L34.699,422.898 L34.715,423.11 L34.755,424.891 L34.731,425.24 L34.711,425.344 L34.675,425.438 L34.532,425.678 L34.468,425.744 L32.791,427.073 L32.711,427.125 L32.532,427.215 L32.237,427.318 L32.002,427.356 L31.205,427.38 L31.106,427.413 L30.927,427.498 L30.827,427.658 L30.807,427.761 L30.309,431.371 L31.432,432.691 L31.584,432.804 L31.914,433.12 L31.97,433.195 L32.082,433.445 L32.098,433.657 L32.086,433.888 L31.974,434.284 L31.903,434.468 L31.855,434.548 L31.727,434.685 L31.652,434.736 L29.755,435.443 L29.687,435.547 L28.835,436.739 L28.771,436.805 L27.728,437.734 L27.652,437.79 L27.381,437.917 L27.234,437.908 L27.118,437.88 L27.007,437.851 L26.804,437.771 L26.545,437.738 L26.294,437.762 L25.768,437.913 L25.473,438.016 L25.198,438.148 L25.122,438.2 L24.991,438.337 L24.907,438.506 L24.804,438.761 L24.78,438.865 L24.816,438.949 L24.871,439.02 L24.955,439.072 L25.186,439.128 L25.485,439.246 L25.557,439.312 L25.588,439.393 L25.569,439.501 L25.274,440.797 L25.214,440.995 L25.143,441.179 L25.055,441.348 L24.907,441.589 L24.692,441.871 L24.521,442.088 L24.174,442.526 L23.947,442.823 L23.848,442.979 L23.748,443.139 L23.477,443.643 L23.389,443.827 L22.33,446.118 L22.294,446.212 L22.278,446.419 L22.286,446.528 L22.33,446.716 L22.37,446.801 L22.585,447.093 L22.999,447.465 L23.222,447.649 L23.393,447.753 L23.64,447.8 L23.939,447.809 L24.154,447.88 L24.222,447.941 L25.342,449.035 L25.366,449.129 L25.656,450.877 L25.672,451.089 L25.851,453.554 L25.815,453.649 L25.736,453.705 L23.859,454.629 L22.931,454.926 L22.079,455.293 L21.892,455.378 L21.72,455.477 L21.645,455.529 L21.513,455.666 L21.346,455.892 L21.306,456.029 L21.318,456.24 L21.39,456.528 L21.486,456.787 L21.565,456.957 L21.657,457.334 L21.744,457.716 L21.908,458.71 L21.935,458.908 L21.995,459.53 L22.051,460.157 L22.063,460.812 L22.043,461.047 L21.967,461.231 L21.88,461.401 L21.553,461.74 L19.804,463.083 L19.402,463.357 L19.139,463.498 L18.764,463.668 L18.342,463.8 L17.749,463.899 L17.625,463.913 L17.191,463.88 L17.056,463.885 L16.836,463.946 L16.322,464.12 L15.96,464.299 L15.8,464.408 L15.538,464.69 L14.546,465.831 L14.494,465.911 L13.112,468.371 L13.076,468.593 L13.104,468.795 L13.143,468.88 L13.225,469.005 L14.303,469.163 L14.39,469.215 L14.442,469.286 L14.406,469.356 L13.677,469.879 L13.219,469.889 L9.562,469.973 L8.965,470.002 L7.905,472.193 L7.865,472.283 L7.288,473.744 L7.26,473.847 L7.264,473.951 L7.304,474.036 L7.359,474.111 L7.583,474.3 L8.076,474.738 L8.243,474.955 L8.316,475.124 L9.255,477.994 L9.26,478.098 L9.224,478.188 L9.168,478.268 L9.021,478.39 L8.869,478.508 L8.543,478.725 L8.323,478.913 L8.172,479.045 L8.036,479.182 L7.981,479.257 L7.535,480.407 L7.539,480.511 L7.579,480.596 L7.702,480.733 L7.774,480.794 L8.248,481.152 L8.566,481.378 L8.638,481.44 L8.849,481.628 L8.929,481.798 L8.937,482.01 L8.873,482.203 L8.822,482.283 L8.682,482.415 L8.599,482.472 L8.463,482.604 L8.339,482.75 L8.14,483.08 L8.06,483.263 L7.945,483.664 L7.933,483.782 L7.997,484.069 L8.124,484.206 L8.212,484.267 L8.67,484.517 L9.371,484.932 L10.586,485.662 L10.662,485.723 L10.801,485.851 L10.933,485.987 L11.076,486.218 L11.614,487.161 L11.686,487.354 L11.749,487.528 L11.823,487.756 L11.833,487.792 L12.044,490.064 L12.056,490.28 L12.347,491.831 L13.06,494.15 L13.136,494.32 L13.247,494.465 L13.466,494.654 L13.558,494.706 L13.769,494.786 L14.064,494.791 L14.431,494.725 L14.88,494.607 L15.37,494.4 L15.785,494.126 L15.936,494.004 L16.076,493.867 L16.263,493.655 L16.318,493.575 L16.657,493.24 L16.729,493.174 L16.976,493.009 L17.45,492.788 L18.872,492.246 L19.095,492.185 L19.223,492.17 L19.358,492.189 L19.465,492.227 L19.553,492.279 L19.776,492.463 L19.832,492.538 L19.96,492.67 L20.163,492.844 L20.342,492.948 L20.661,493.066 L20.94,493.103 L21.079,493.099 L21.194,493.07 L21.306,493.038 L21.486,492.943 L21.553,492.877 L21.872,492.397 L22.142,492.128 L22.226,492.071 L22.418,491.987 L22.656,491.939 L22.784,491.921 L23.067,491.911 L24.66,492.109 L25.696,492.637 L25.752,492.708 L25.791,492.792 L25.784,492.91 L25.76,493.014 L25.724,493.103 L25.616,493.264 L25.549,493.33 L25.214,493.81 L25.098,494.084 L25.074,494.192 L25.071,494.305 L25.09,494.404 L25.262,494.621 L25.628,494.927 L25.891,495.196 L26.006,495.342 L26.278,495.714 L26.373,495.875 L26.497,496.124 L26.485,496.242 L26.174,498.721 L26.142,498.943 L26.066,499.126 L25.967,499.169 L25.839,499.188 L25.401,499.169 L25.158,499.216 L25.078,499.273 L24.354,500.286 L24.318,500.375 L24.266,500.587 L24.274,500.691 L24.445,501.129 L24.584,501.37 L24.64,501.445 L24.923,501.704 L25.286,501.907 L25.608,502.025 L25.807,502.114 L25.899,502.166 L26.226,502.388 L26.301,502.454 L26.417,502.595 L26.457,502.68 L26.453,502.798 L26.409,502.887 L26.305,503.047 L26.098,503.25 L25.851,503.415 L25.7,503.538 L25.537,503.778 L25.465,504.089 L25.477,504.749 L25.541,505.371 L25.517,505.475 L25.103,506.723 L24.995,506.879 L24.923,506.95 L24.672,507.114 L24.226,507.364 L25.74,510.376 L25.799,510.451 L25.875,510.512 L26.202,510.63 L26.329,510.658 L26.915,510.72 L27.038,510.748 L27.365,510.866 L27.66,511.007 L28.027,511.205 L28.716,511.62 L30.453,513.048 L30.648,513.25 L30.771,513.5 L30.823,513.694 L30.839,513.901 L30.823,514.113 L30.763,514.311 L31.253,515.546 L34.353,515.564 L52.419,515.574 L58.676,515.555 L59.469,515.8 L60.262,516.059 L62.011,516.644 L66.377,518.053 L68.791,518.062 L68.95,518.053 L69.644,518.048 L72.524,518.92 L73.117,519.113 L73.914,519.528 L74.715,519.957 L75.452,520.362 L76.902,520.536 L78.033,520.659 L79.081,520.796 L81.061,521.187 L81.109,521.201 L81,522.026 L81.105,522.087 L81.268,521.974 L81.411,521.842 L81.742,521.493 L81.837,521.333 L81.869,521.239 L81.885,521.135 L81.857,521.041 L81.566,520.551 L81.407,520.315 L81.025,519.763 L79.973,518.534 L79.236,517.897 L78.997,517.723 L78.79,517.52 L78.535,517.237 L77.79,516.37 L77.475,515.993 L76.276,514.325 L76.057,514.019 L75.902,513.788 L75.715,513.448 L74.954,512.016 L74.878,511.837 L74.101,510.545 L73.292,509.391 L73.165,509.249 L73.089,509.193 L72.994,509.146 L72.862,509.122 L72.739,509.117 L70.424,509.41 L69.305,508.99 L68.086,508.75 L67.954,508.726 L67.516,508.698 L67.353,508.693 L66.01,508.863 L65.756,508.915 L65.453,509.042 L65.114,509.141 L64.19,509.268 L64.238,509.212 L66.054,508.443 L66.166,508.411 L67.624,508.09 L68.672,508.104 L68.815,508.118 L70.042,508.726 L70.703,508.943 L70.83,508.971 L71.117,508.999 L71.827,508.467 L71.91,508.411 L72.101,508.316 L72.325,508.25 L72.723,508.194 L72.85,508.222 L72.946,508.269 L73.165,508.458 L73.272,508.495 L73.384,508.458 L73.452,508.387 L73.583,508.132 L73.647,507.949 L73.667,507.84 L73.671,507.727 L73.552,507.35 L73.46,507.067 L73.368,506.789 L73.261,506.516 L73.125,506.271 L72.878,505.753 L72.313,504.532 L72.165,504.179 L71.114,501.365 L71.082,501.271 L70.966,500.894 L70.91,500.474 L70.934,500.017 L70.954,499.913 L70.958,499.56 L70.946,499.456 L70.918,499.362 L70.695,498.834 L70.616,498.655 L70.36,498.151 L70.301,498.08 L70.189,498.042 L70.082,498.076 L68.779,498.74 L68.536,498.91 L67.831,499.442 L67.64,499.646 L67.253,500.064 L67.126,500.088 L67.13,499.97 L67.178,499.885 L67.568,499.471 L68.209,498.896 L68.528,498.665 L69.453,498.057 L70.524,497.1 L70.91,496.685 L70.958,496.6 L71.01,496.402 L71.014,496.172 L70.918,495.432 L70.906,495.21 L70.891,494.531 L70.895,494.296 L70.914,494.192 L71.504,491.803 L71.536,491.709 L71.834,490.87 L72.026,490.545 L73.587,488.546 L73.838,488.268 L74.718,487.411 L74.862,487.283 L75.113,487.123 L75.472,486.925 L75.659,486.836 L76.264,486.595 L77.694,486.044 L78.009,485.926 L79.479,485.526 L80.519,485.252 L80.953,485.115 L81.26,484.998 L81.602,484.79 L81.682,484.729 L81.929,484.451 L81.973,484.371 L82.005,484.276 L82.025,484.055 L81.997,483.961 L81.81,483.867 L81.335,483.64 L80.595,483.263 L80.336,483.112 L80.073,482.957 L79.997,482.886 L79.878,482.745 L79.786,482.58 L79.694,482.302 L79.682,482.194 L79.623,482.005 L79.591,481.916 L79.499,481.75 L79.316,481.539 L79.168,481.421 L78.965,481.336 L78.826,481.326 L78.535,481.336 L78.415,481.359 L78.121,481.486 L78.009,481.519 L77.75,481.552 L76.117,481.515 L75.659,481.397 L75.368,481.383 L75.089,481.402 L74.671,481.552 L74.3,481.736 L73.205,481.948 L72.942,481.991 L72.803,481.977 L72.834,481.887 L72.882,481.802 L73.038,481.689 L73.424,481.515 L73.531,481.482 L73.767,481.425 L75.089,481.157 L75.384,481.147 L76.878,481.218 L77.276,481.27 L77.539,481.232 L78.507,480.926 L78.619,480.888 L78.678,480.822 L78.77,480.657 L78.838,480.473 L80.073,481.322 L81.124,482.707 L81.248,482.849 L81.324,482.905 L82.443,483.692 L82.551,483.73 L82.674,483.753 L83.415,483.777 L83.845,483.758 L84.463,483.64 L84.785,483.537 L86.454,482.929 L86.729,482.787 L87.255,482.486 L87.594,482.274 L87.841,482.109 L88.41,481.722 L88.809,481.444 L89.115,481.208 L89.988,480.469 L90.123,480.341 L90.374,480.059 L90.526,479.71 L90.601,479.521 L90.693,479.244 L90.872,478.56 L90.964,478.164 L91.099,477.566 L91.219,476.722 L91.362,475.435 L91.781,473.588 L92.259,471.972 L92.999,469.417 L93.031,469.21 L92.999,469.116 L92.924,469.054 L92.832,469.021 L92.573,468.988 L92.454,469.012 L92.378,469.069 L92.318,469.139 L92.231,469.304 L91.852,470.068 L91.765,470.346 L91.717,470.548 L91.629,470.826 L91.541,470.991 L91.311,471.166 L91.207,471.203 L90.008,471.453 L89.884,471.43 L89.793,471.382 L89.733,471.194 L89.777,471.114 L90.307,470.351 L90.366,470.28 L90.61,470.115 L90.701,470.068 L91.259,469.54 L91.892,468.932 L92.012,468.791 L92.84,467.782 L92.884,467.697 L92.9,467.594 L92.836,467.41 L92.697,467.16 L92.641,467.094 L92.55,466.929 L92.497,466.731 L92.513,466.623 L93.187,465.51 L93.366,465.299 L93.637,465.039 L94.234,464.568 L94.386,464.45 L94.446,464.379 L94.697,464.111 L95.8,462.98 L95.951,462.862 L96.832,462.263 L97.19,462.07 L97.593,461.915 L97.955,461.844 L98.162,461.773 L98.238,461.712 L98.326,461.547 L98.736,460.727 L99.736,459.29 L99.851,459.148 L99.983,459.021 L100.325,458.701 L100.489,458.592 L100.768,458.46 L102.154,457.899 L102.568,457.753 L102.927,457.654 L103.401,457.555 L104.074,457.489 L104.162,457.442 L104.233,457.386 L105.245,456.424 L106.15,455.487 L106.444,455.246 L106.532,455.199 L106.843,455.076 L108.133,454.676 L109.201,454.563 L109.305,454.525 L109.38,454.469 L110.129,453.545 L111.205,452.564 L111.981,451.895 L114.878,449.525 L114.965,449.478 L115.188,449.412 L116.531,449.327 L116.806,448.643 L116.774,448.549 L116.391,447.39 L116.375,447.282 L116.383,447.178 L116.428,447.093 L116.571,446.975 L117.1,446.848 L117.228,446.834 L117.364,446.839 L117.678,446.938 L118.128,447.164 L118.411,447.286 L118.546,447.291 L118.945,447.249 L119.045,447.211 L119.068,446.66 L119.036,446.57 L117.555,444.685 L117.431,444.544 L117.28,444.43 L116.742,444.162 L116.531,444.096 L116.399,444.086 L116.284,444.115 L114.866,444.69 L114.197,444.964 L113.408,445.024 L112.98,445.106 L112.523,445.382 L112.731,445.045 L113.571,444.751 L114.384,444.656 L114.643,444.511 L114.79,444.393 L114.989,444.199 L115.16,443.987 L115.232,443.926 L115.391,443.818 L115.491,443.766 L115.694,443.695 L115.925,443.643 L116.061,443.629 L116.34,443.634 L116.578,443.686 L117.009,443.808 L117.379,443.855 L117.61,443.804 L117.71,443.766 L117.798,443.719 L117.854,443.648 L117.897,443.563 L119.1,441.16 L119.503,439.981 L119.55,439.793 L119.682,438.596 L119.802,437.493 L119.821,437.286 L119.849,436.852 L119.857,436.626 L119.849,436.395 L119.315,434.241 L119.284,434.152 L119.18,434.001 L117.686,432.62 L117.539,432.507 L117.451,432.46 L116.228,431.937 L116.113,431.918 L115.822,431.923 L115.344,432.017 L115.145,432.088 L114.802,432.286 L114.599,432.357 L114.455,432.361 L113.017,432.375 L111.153,432.201 L111.037,432.182 L110.874,432.078 L110.842,431.984 L110.798,431.904 L110.739,431.833 L110.651,431.791 L108.759,431.565 L107.743,431.579 L107.105,431.635 L106.815,431.64 L106.425,431.612 L105.942,431.536 L105.739,431.466 L105.476,431.329 L104.449,430.759 L104.301,430.646 L104.182,430.504 L102.337,428.586 L100.246,426.682 L99.106,425.848 L98.816,425.735 L98.557,425.598 L96.828,424.429 L96.553,424.184 L95.868,423.454 L95.358,422.837 L95.199,422.615 L94.533,421.743 L94.505,421.71 L94.417,421.607 L94.067,421.069 L93.98,420.904 L93.454,419.344 L93.334,418.967 L92.94,417.417 L92.824,416.927 L92.78,416.729 L92.776,416.027 L92.784,415.127 L92.844,414.938 L93.296,413.826 L90.893,413.813 L92.593,413.812 L93.296,413.826 L93.92,412.681 L94.031,412.539 L95.621,410.8 L95.764,410.682 L96.21,410.353 L96.908,407.907 L96.991,407.629 L97.059,407.454 L97.143,407.289 L97.362,407.007 L97.434,406.945 L97.76,406.747 L98.079,406.545 L98.776,406.073 L98.915,405.956 L99.043,405.824 L99.094,405.753 L100.226,404.014 L101.134,402.581 L101.696,401.771 L101.807,401.629 L101.875,401.568 L102.401,401.191 L102.484,401.144 L103.684,400.498 L103.875,400.423 L104.126,400.399 L106.181,400.22 L107.891,399.527 L108.492,398.934 L108.348,398.821 L108.316,398.726 L108.356,398.528 L108.464,398.387 L108.531,398.326 L108.687,398.217 L110.942,397.397 L113.396,396.252 L114.412,396.195 L118.276,396.624 L119.558,397.025 L119.658,397.058 L119.961,397.275 L120.443,397.562 L120.527,397.586 L121.455,397.294 L121.55,397.256 L121.685,397.133 L122.737,395.159 L122.749,395.074 L122.606,394.961 L122.518,394.918 L121.459,394.419 L121.244,394.367 L121.12,394.358 L120.857,394.376 L120.674,394.301 L120.248,394.08 L120.164,394.032 L120.104,393.966 L120.04,393.778 L120.021,393.561 L120.044,393.057 L120.439,392.053 L120.515,391.888 L121.16,390.927 L121.212,390.856 L121.399,390.663 L121.761,390.375 L121.841,390.328 L124.801,388.74 L125.494,387.142 L125.729,386.761 L126.781,385.201 L126.498,384.734 L125.968,383.561 L125.897,383.259 L125.876,383.061 L125.956,382.359 L125.996,382.274 L126.099,382.133 L126.163,382.071 L126.243,382.024 L126.573,381.94 L126.817,381.911 L126.928,381.883 L127.103,381.798 L127.139,381.713 L127.346,379.225 L127.343,379.131 L127.048,379.234 L126.653,379.376 L126.494,378.457 L126.442,378.263 L126.287,377.802 L126.136,377.453 L126.036,377.307 L125.92,377.17 L125.833,377.01 L125.769,376.826 L125.582,375.643 L125.542,375.318 L125.534,375.082 L125.598,374.347 L125.621,374.253 L125.733,374.003 L126.287,373.207 L126.697,372.636 L128.37,370.813 L128.549,370.619 L129.721,368.612 L129.757,368.409 L129.792,368.329 L129.956,368.089 L131.259,367.009 L131.47,366.84 L132.736,365.945 L132.812,365.893 L133.222,365.657 L133.668,365.454 L134.601,365.186 L136.218,364.903 L137.142,364.516 L139.078,363.696 L139.473,363.447 L140.405,362.848 L140.468,362.787 L140.456,362.73 L140.234,362.132 L140.174,362.066 L139.962,362.122 L139.624,362.297 L139.162,362.49 L139.054,362.518 L138.815,362.551 L138.704,362.532 L136.182,361.924 L135.788,361.811 L135.609,361.736 L135.282,361.562 L134.971,361.364 L134.358,360.855 L134.107,360.723 L133.187,360.256 L133.103,360.214 L131.21,359.568 L130.557,359.455 L130.461,359.422 L130.322,359.309 L130.223,359.163 L130.179,359.083 L130.083,358.715 L130.079,358.597 L130.099,358.503 L130.924,357.264 L131.119,357.085 L131.29,356.985 L131.47,356.905 L132.135,356.769 L132.657,356.736 L132.927,356.623 L133.473,356.279 L133.605,356.156 L133.716,356.048 L133.868,355.821 L133.899,355.737 L134.003,355.595 L134.13,355.473 L134.206,355.421 L135.78,354.78 L135.883,354.752 L137.075,354.591 L137.341,354.577 L137.608,354.568 L138.126,354.558 L138.25,354.568 L138.991,354.709 L139.767,355.063 L140.018,355.19 L140.157,355.303 L141.887,356.797 L141.867,356.891 L141.819,356.967 L141.472,357.688 L141.142,358.541 L141.066,358.814 L141.07,358.927 L141.126,359.125 L141.181,359.191 L142.664,360.713 L142.807,360.822 L143.137,360.991 L143.233,361.024 L143.329,361.053 L143.452,361.062 L143.692,361.029 L143.875,360.949 L147.018,360.266 L148.265,360.021 L148.623,359.969 L148.886,359.955 L149.101,359.898 L149.177,359.846 L149.308,359.724 L149.81,359.234 L149.934,359.111 L149.985,359.04 L150.065,358.885 L150.101,358.8 L150.715,356.543 L150.75,356.241 L150.627,351.646 L150.619,351.528 L150.567,351.335 L150.459,351.071 L150.38,350.901 L150.201,350.586 L149.898,350.265 L149.687,350.1 L149.627,350.034 L149.571,349.968 L149.436,349.728 L149.36,349.558 L149.217,349.205 L149.053,348.748 L148.579,347.734 L148.492,347.574 L148.328,347.494 L148.217,347.475 L147.954,347.485 L146.874,347.631 L146.536,347.697 L146.161,347.852 L144.504,348.766 L142.385,349.525 L140.452,349.855 L139.978,349.921 L139.903,349.973 L139.855,350.044 L139.895,350.124 L140.034,350.232 L140.118,350.274 L140.389,350.383 L140.604,350.421 L141.134,350.397 L141.504,350.355 L142.66,350.317 L143.113,350.369 L143.412,350.444 L143.588,350.52 L143.795,350.685 L143.974,351.005 L144.05,351.175 L144.106,351.368 L144.05,352.278 L143.994,352.457 L143.898,352.598 L143.707,352.782 L143.149,353.229 L142.994,353.328 L142.891,353.357 L142.624,353.366 L138.218,353.522 L136.302,353.376 L136.198,353.357 L136.102,353.324 L136.043,353.258 L136.003,353.178 L135.995,353.064 L136.015,352.97 L136.09,352.805 L136.138,352.73 L136.784,351.797 L137.043,351.439 L137.425,351.076 L137.704,350.854 L137.935,350.703 L138.062,350.586 L138.11,350.51 L138.066,350.43 L137.915,350.331 L137.628,350.241 L137.429,350.19 L137.118,350.119 L136.999,350.114 L136.879,350.143 L136.401,350.312 L136.282,350.331 L136.039,350.317 L134.119,349.832 L132.202,349.214 L132.039,349.129 L131.298,348.62 L130.888,348.286 L130.442,347.862 L130.163,347.522 L129.466,346.127 L129.307,345.797 L129.226,345.51 L129.211,345.406 L129.219,345.076 L129.291,344.799 L129.362,344.633 L129.784,343.747 L129.88,343.601 L130.027,343.271 L130.243,342.777 L130.489,342.202 L130.502,342.093 L130.41,341.933 L130.358,341.867 L130.227,341.627 L130.155,341.457 L130.063,341.179 L129.967,340.788 L129.94,340.453 L129.948,340.01 L129.987,339.709 L130.043,339.534 L130.083,339.449 L130.179,339.308 L130.262,339.152 L130.318,338.978 L130.386,338.695 L130.418,338.497 L130.465,338.092 L130.489,337.776 L130.486,337.659 L130.465,337.555 L130.37,337.409 L130.231,337.296 L130.083,337.197 L129.924,337.112 L129.788,336.999 L129.621,336.796 L129.47,336.579 L129.338,336.344 L128.454,332.828 L128.068,331.061 L128.011,330.797 L127.956,330.533 L127.781,328.935 L127.792,328.728 L127.94,327.931 L128,327.729 L128.43,326.409 L128.553,326.287 L130.557,324.336 L130.625,324.274 L131.259,324.086 L131.764,324.02 L132.011,324.043 L133.107,324.26 L133.218,324.289 L133.513,324.402 L133.581,324.458 L134.039,325.33 L134.075,325.406 L134.071,325.509 L133.955,325.646 L133.88,325.693 L134.334,326.145 L137.078,327.088 L137.389,327.192 L137.728,327.272 L140.409,328.304 L142.464,329.294 L142.66,329.364 L143.787,329.6 L144.795,329.892 L145.09,330 L145.273,330.085 L145.424,330.189 L145.699,330.415 L146.002,330.721 L146.304,331.032 L146.508,331.202 L146.579,331.254 L146.998,331.49 L147.46,331.692 L147.802,331.772 L148.057,331.805 L148.974,331.815 L149.312,331.81 L150.961,331.739 L152.742,331.683 L153.782,331.739 L157.005,331.716 L157.333,331.686 L158.164,331.598 L158.475,331.542 L158.562,331.508 L158.729,331.438 L158.913,331.249 L159.052,331.136 L159.821,330.816 L162.316,329.794 L162.466,329.812 L162.697,329.817 L162.912,329.798 L163.008,329.774 L164.856,328.737 L167.37,327.512 L167.633,327.413 L167.788,327.328 L168.561,326.885 L168.776,326.739 L168.84,326.678 L168.943,326.527 L169.378,325.283 L170.047,323.374 L170.087,323.285 L170.147,323.223 L170.294,323.12 L170.377,323.087 L170.481,323.077 L170.565,323.04 L170.637,322.988 L170.728,322.828 L170.744,322.71 L170.688,322.648 L170.573,322.644 L170.477,322.667 L169.78,322.917 L169.525,323.03 L168.697,323.535 L168.585,323.506 L168.529,323.445 L168.502,323.355 L168.398,322.422 L168.39,322.328 L168.45,322.267 L168.553,322.257 L168.637,322.3 L168.693,322.366 L168.816,322.592 L168.924,322.724 L168.995,322.776 L169.107,322.804 L169.453,322.832 L169.549,322.809 L169.633,322.771 L169.704,322.724 L169.752,322.648 L169.812,322.446 L169.844,322.215 L169.836,322.121 L169.653,321.527 L169.127,321.475 L167.398,319.882 L167.346,319.821 L167.302,319.745 L167.035,319.105 L166.37,317.304 L166.358,317.21 L166.362,317.106 L166.398,317.017 L166.541,316.776 L166.594,316.701 L167.183,316.051 L167.255,316.004 L167.422,315.928 L167.788,315.824 L167.872,315.787 L168.016,315.688 L168.163,315.462 L168.322,315.108 L168.35,315.004 L168.533,314.142 L168.474,313.77 L168.482,312.266 L168.948,310.197 L169.493,309.33 L169.561,309.387 L169.669,309.434 L169.756,309.458 L170.669,309.651 L170.908,309.67 L171.015,309.66 L171.648,309.363 L171.712,309.302 L171.724,309.184 L171.764,308.336 L171.804,307.686 L171.848,307.247 L172.039,305.951 L172.382,303.736 L172.409,303.637 L171.401,302.483 L171.151,302.346 L169.501,300.89 L169.445,300.824 L169.406,300.748 L169.592,300.482 L169.609,300.422 L169.728,300.403 L170.589,300.291 L170.685,300.324 L170.804,300.551 L170.856,300.72 L170.935,300.871 L171.111,301.069 L171.437,301.352 L172.29,301.997 L172.374,302.044 L172.469,302.078 L172.597,302.092 L172.676,302.054 L172.752,302.007 L172.931,301.818 L173.031,301.667 L173.071,301.578 L173.095,301.474 L173.059,301.295 L173.003,301.229 L172.441,300.692 L172.238,300.527 L171.051,299.938 L170.951,299.9 L170.233,299.761 L170.082,299.744 L169.884,299.746 L169.74,299.735 L169.372,299.682 L169.305,299.667 L169.245,299.645 L168.697,299.514 L168.673,299.429 L168.366,297.902 L168.549,296.394 L168.86,295.682 L169.382,294.311 L168.725,293.769 L168.123,293.038 L167.908,292.671 L167.701,292.063 L167.729,291.959 L167.804,291.78 L167.912,291.643 L168.147,291.521 L168.318,291.483 L168.441,291.497 L170.394,291.945 L171.764,292.76 L171.884,293.147 L172.027,293.566 L172.079,293.627 L172.162,293.675 L173.019,294.085 L173.078,294.103 L173.7,294.287 L175.656,294.749 L175.99,294.825 L178.628,295.154 L179.867,295.291 L180.082,295.282 L180.476,295.211 L181.221,294.891 L181.604,294.796 L181.703,294.782 L182.014,294.74 L182.221,294.716 L182.464,294.73 L182.655,294.801 L183.261,294.919 L184.93,295.018 L185.396,295.041 L186.368,294.989 L189.73,294.659 L190.248,294.598 L192.005,294.273 L195.363,293.84 L199.323,293.133 L203.366,292.416 L203.673,292.383 L205.079,292.294 L206.756,291.733 L209.31,291.106 L212.572,290.394 L213.943,290.131 L214.863,290.013 L215.082,289.999 L215.377,289.947 L215.572,289.909 L215.859,289.843 L216.03,289.777 L219.245,288.477 L219.747,288.269 L221.32,287.845 L226.427,286.323 L228.033,285.677 L228.431,285.479 L233.092,283.066 L235.414,281.554 L235.833,281.242 L236.108,281.03 L236.709,280.531 L236.889,280.352 L237.171,280.022 L237.374,279.739 L237.442,279.555 L237.466,279.456 L237.55,278.575 L237.534,278.481 L237.362,278.184 L237.335,278.104 L237.319,278.009 L237.315,277.901 L237.327,277.788 L237.462,277.039 L237.554,276.629 L237.689,276.138 L237.892,275.71 L238.095,275.295 L238.195,275.139 L239.183,273.942 L240.354,272.557 L241.163,271.76 L241.422,271.539 L242.067,270.983 L242.442,270.629 L243.366,269.493 L243.9,268.81 L244.549,267.872 L244.669,267.623 L244.712,267.42 L245.863,265.389 L247.656,262.533 L248.839,260.907 L249.062,260.643 L249.337,260.318 L249.7,259.832 L249.919,259.441 L249.951,259.093 L249.959,258.871 L249.815,254.13 L249.795,253.932 L249.481,251.486 L249.413,251.109 L248.875,249.71 L248.792,249.563 L248.68,249.436 L248.608,249.384 L248.529,249.347 L248.417,249.323 L248.333,249.328 L248.254,249.37 L246.919,250.082 L246.477,250.35 L246.043,250.416 L244.322,249.493 L243.653,249.054 L243.513,248.951 L242.991,248.508 L241.928,247.532 L241.693,247.287 L241.541,247.089 L240.677,245.845 L240.593,245.699 L239.84,243.941 L239.685,243.531 L239.566,242.98 L239.526,241.292 L239.558,240.944 L239.625,240.637 L239.693,240.454 L239.996,239.907 L240.641,238.875 L241.745,237.192 L242.434,236.443 L242.605,236.259 L243.051,235.491 L243.227,235.175 L243.354,234.45 L243.298,234.27 L243.143,233.964 L242.386,232.635 L240.601,230.213 L240.275,229.836 L238,228.021 L237.932,227.97 L233.673,225.142 L232.825,224.671 L230.726,223.714 L230.459,223.606 L229.634,223.309 L228.885,223.05 L228.391,222.913 L227.435,222.399 L226.164,221.494 L225.981,221.301 L225.802,221.023 L225.779,220.981 L225.595,220.443 L225.54,220.301 L225.499,220.198 L225.448,220.137 L225.368,220.094 L225.065,220.015 L224.954,220.019 L224.718,219.996 L224.623,219.963 L224.555,219.911 L224.105,219.524 L224.009,219.388 L223.918,218.521 L223.671,216.965 L223.591,215.773 L223.878,215.028 L223.977,215 L224.487,214.698 L224.551,214.647 L224.838,214.208 L225.296,213.501 L225.336,213.421 L225.348,213.308 L225.24,211.178 L225.201,210.994 L225.121,210.848 L224.985,210.73 L224.659,210.57 L224.317,210.408 L224.392,210.141 L224.432,209.939 L224.448,209.821 L224.444,209.717 L224.149,207.823 L224.121,207.738 L224.041,207.592 L223.906,207.483 L223.735,207.304 L223.177,206.475 L223.045,206.225 L222.91,205.806 L222.894,205.707 L222.862,204.906 L222.866,204.472 L223.117,202.035 L223.209,201.498 L223.452,200.254 L223.487,200.165 L223.91,199.373 L224.041,199.142 L224.212,198.958 L224.627,197.709 L224.591,195.079 L224.575,194.985 L224.623,194.91 L224.774,194.698 L224.846,194.66 L224.934,194.636 L225.037,194.632 L225.476,194.641 L226.826,194.759 L227.045,194.792 L227.136,194.825 L227.347,194.872 L227.463,194.881 L227.674,194.877 L227.961,194.834 L228.132,194.782 L228.208,194.745 L228.427,194.542 L228.483,194.476 L228.567,194.321 L228.635,194.142 L228.654,193.929 L228.586,192.318 L228.336,190.876 L227.897,188.27 L227.547,186.088 L227.519,185.899 L227.523,185.15 L227.543,184.707 L227.607,184.396 L227.67,184.217 L227.714,184.136 L227.854,183.915 L227.877,183.905 L227.889,183.939 L228.164,183.231 L228.252,183.076 L228.59,182.572 L228.805,182.308 L229.192,181.997 L229.296,181.865 L229.328,181.775 L229.339,181.657 L229.346,181.297 L229.324,180.696 L229.301,180.611 L229.208,180.474 L228.817,180.154 L228.658,179.966 L228.411,179.636 L228.172,179.194 L228.121,179.024 L228.104,178.929 L228.129,178.693 L228.172,178.486 L228.204,178.396 L228.332,178.165 L228.383,178.099 L228.477,178.017 L228.543,177.774 L228.578,177.426 L228.658,176.228 L228.646,176.134 L228.495,175.616 L228.415,175.361 L228.375,175.286 L227.957,174.777 L227.842,174.555 L227.826,174.461 L227.877,174.263 L228.017,174.032 L228.18,173.825 L228.419,173.603 L228.662,173.509 L228.842,173.467 L229.22,173.41 L229.463,173.321 L229.833,173.118 L230.02,172.963 L230.168,172.755 L230.212,172.675 L230.276,172.496 L230.977,169.998 L231.044,169.687 L231.064,169.456 L231.076,169.235 L231.072,169.126 L231.044,168.938 L230.937,168.707 L230.845,168.566 L230.65,168.302 L230.471,168.132 L230.234,167.939 L229.809,167.717 L229.682,167.614 L229.591,167.477 L229.575,167.378 L229.61,167.161 L229.706,167.015 L229.833,166.911 L230.116,166.727 L230.264,166.647 L230.575,166.515 L230.71,166.421 L230.869,166.228 L231.829,164.06 L231.901,163.891 L231.965,163.711 L232.845,160.445 L233.642,157.467 L233.673,157.245 L233.654,156.19 L233.638,155.884 L233.623,155.8 L233.594,155.497 L233.55,155.21 L233.522,155.061 L233.439,154.554 L233.391,154.399 L232.997,153.343 L232.917,153.197 L232.801,153.079 L232.61,152.919 L232.534,152.877 L232.407,152.773 L232.327,152.622 L232.323,152.415 L232.331,151.444 L232.363,151.223 L232.49,150.992 L232.542,150.926 L232.718,150.756 L233.59,150.021 L233.725,149.927 L234.387,149.451 L235.494,148.386 L236.012,147.476 L236.052,147.396 L236.112,147.217 L236.135,146.981 L236.06,146.401 L236.368,145.505 L236.733,145.435 L237.143,145.299 L237.434,145.138 L238.012,144.691 L238.195,144.531 L240.146,142.367 L240.377,142.106 L240.457,141.949 L240.464,141.835 L240.513,140.855 L240.5,140.36 L240.511,140.247 L240.555,140.039 L240.758,139.53 L240.885,139.295 L240.99,139.163 L241.155,138.979 L241.286,138.889 L241.502,138.767 L241.82,138.644 L242.92,138.593 L243.103,138.56 L243.501,138.409 L243.637,138.314 L243.748,138.197 L243.911,138.013 L244.075,137.829 L244.441,137.381 L246.333,134.884 L247.764,133.328 L249.405,131.297 L249.453,131.231 L249.532,131.076 L250.015,129.996 L250.046,129.798 L250.05,129.681 L250.03,129.374 L250.042,129.261 L250.15,128.884 L250.229,128.729 L250.465,128.361 L250.879,127.847 L250.99,127.729 L251.229,127.517 L251.767,127.155 L252.042,126.976 L253.244,126.65 L253.353,126.514 L253.504,126.188 L255.102,122.55 L255.129,122.206 L255.165,121.999 L255.193,121.905 L255.277,121.749 L255.392,121.641 L255.56,121.584 L256.99,120.792 L258.48,119.058 L259.268,117.955 L259.731,116.721 L260.937,114.741 L260.985,114.675 L261.105,114.567 L261.245,114.482 L261.324,114.454 L261.507,114.421 L261.822,114.426 L263.22,114.576 L263.296,114.619 L263.388,114.755 L263.419,114.944 L263.423,115.048 L263.507,115.302 L263.606,115.425 L263.694,115.453 L263.778,115.425 L263.838,115.373 L263.925,115.227 L263.981,115.043 L264.192,114.294 L264.212,114.063 L264.18,113.869 L264.152,113.789 L264.033,113.568 L263.981,113.506 L263.854,113.403 L263.476,113.2 L262.798,112.833 L262.746,112.771 L262.706,112.696 L262.679,112.616 L262.674,112.507 L262.742,112.338 L262.794,112.272 L262.921,112.168 L263.153,112.069 L263.595,111.975 L264.037,111.754 L264.634,111.202 L264.682,111.136 L264.762,110.981 L264.787,110.828 L265.419,110.693 L267.347,109.906 L268.295,108.912 L268.335,108.836 L268.359,108.615 L268.311,108.332 L268.307,108.228 L268.323,108.125 L268.403,107.988 L269.092,107.154 L269.231,107.074 L271.096,106.009 L271.287,105.985 L272.809,105.815 L272.9,105.82 L273.458,105.617 L275.028,103.977 L275.143,103.742 L275.179,103.535 L275.223,102.842 L276.323,100.693 L276.418,100.561 L276.478,100.504 L276.549,100.466 L276.637,100.448 L276.737,100.466 L276.8,100.518 L276.804,100.622 L276.776,100.712 L276.768,100.829 L276.788,100.924 L276.816,101.004 L276.888,101.046 L276.976,101.074 L277.167,101.055 L278.231,100.905 L278.31,100.876 L279.119,100.476 L280.513,99.797 L281.645,99.43 L282.975,99.222 L283.987,98.765 L284.051,98.723 L284.162,98.6 L284.752,97.941 L285.979,96.376 L286.066,96.404 L286.393,96.428 L286.565,96.381 L286.791,96.277 L287.094,96.018 L287.385,95.744 L287.441,95.688 L287.684,95.353 L287.779,95.221 L288.003,94.745 L288.05,94.679 L289.548,94.104 L290.15,94 L290.423,94.373 L290.867,93.661 L291.759,91.517 L291.922,91.098 L292.337,89.971 L292.432,89.373 L292.181,87.822 L292.154,87.742 L291.898,86.309 L292.042,85.645 L292.277,83.175 L292.229,80.932 L292.217,80.725 L292.233,80.621 L292.297,80.447 L292.508,80.206 L292.576,80.164 L292.859,79.763 L293.034,79.353 L293.113,79.071 L293.125,78.967 L293.133,78.849 L293.125,78.642 L293.097,78.335 L293.097,78.335 Z M126.964,10.486 L126.939,11.212 L126.932,11.066 L126.964,10.486 L126.964,10.486 Z M223.251,220.777 L223.1,220.57 L223.574,219.57 L223.251,220.777 L223.251,220.777 Z" id="Fill-13" sketch:type="MSShapeGroup"></path>
            <path d="M128.08,560.458 L127.286,560.317 L126.095,560.298 L125.621,560.331 L124.219,560.566 L120.698,560.967 L120.527,560.972 L120.236,560.943 L118.778,560.703 L115.336,559.605 L115.109,559.53 L112.755,558.742 L112.551,558.672 L112.241,558.54 L112.033,558.451 L111.412,558.177 L108.177,556.57 L108.093,556.513 L107.851,556.33 L106.651,555.123 L106.6,555.043 L106.185,554.628 L105.927,554.454 L105.739,554.35 L105.552,554.251 L105.157,554.044 L103.915,553.511 L103.54,553.422 L101.759,552.705 L97.844,550.755 L96.525,550.038 L94.637,548.836 L93.593,548.167 L93.454,548.026 L93.37,547.851 L93.267,547.573 L93.23,547.13 L93.298,546.942 L93.31,546.72 L93.247,546.654 L92.657,546.244 L92.29,546.037 L92.187,545.99 L91.08,545.259 L90.147,544.623 L87.761,542.908 L87.498,542.63 L87.379,542.479 L87.215,542.243 L86.718,541.451 L86.387,540.401 L86.139,539.397 L86.092,539.199 L86.008,539.024 L85.909,538.85 L85.168,537.742 L85.036,537.601 L84.952,537.53 L84.757,537.436 L84.459,537.413 L84.164,537.436 L84.028,537.46 L83.335,537.667 L83.208,537.691 L82.893,537.7 L82.116,537.686 L81.538,537.625 L81.16,537.545 L80.766,537.356 L80.192,537.059 L79.945,536.885 L79.798,536.758 L79.539,536.475 L79.34,536.145 L79.26,535.961 L79.196,535.773 L79.2,535.537 L79.252,535.226 L79.288,535.132 L79.539,534.726 L81.674,532.841 L81.758,532.785 L82.052,532.648 L82.773,532.483 L82.905,532.507 L83.1,532.601 L83.184,532.662 L83.248,532.733 L83.347,532.893 L83.443,533.176 L83.554,533.675 L83.634,533.968 L83.702,534.156 L83.849,534.519 L83.897,534.599 L83.977,534.66 L84.112,534.637 L84.14,534.543 L84.128,534.439 L84.112,534.331 L83.642,532.568 L83.578,532.38 L83.467,532.111 L83.208,531.597 L83.108,531.437 L82.993,531.281 L82.754,530.989 L82.57,530.768 L82.343,530.579 L81.451,529.934 L80.865,529.406 L79.814,528.176 L79.141,527.261 L78.478,526.5 L78.463,526.653 L78.447,527.818 L78.436,529.104 L78.399,534.938 L78.387,537.271 L78.396,538.322 L78.38,541.239 L78.344,546.838 L78.312,549.515 L78.276,555.227 L78.292,555.575 L78.27,558.813 L78.216,562.923 L79.081,563.729 L79.336,563.908 L79.435,563.955 L79.674,564.026 L79.949,564.073 L80.272,564.063 L82.562,563.884 L82.698,563.86 L82.785,563.804 L82.893,563.639 L82.909,563.535 L83.813,563.408 L85.148,563.554 L85.657,563.667 L85.897,563.738 L86.339,563.903 L86.38,563.922 L86.442,563.95 L86.92,564.091 L87.331,564.157 L89.828,564.435 L91.434,564.596 L91.932,564.605 L92.259,564.596 L92.721,564.558 L93.011,564.52 L94.665,564.435 L99.429,564.789 L101.365,564.945 L101.513,564.963 L101.776,565.011 L104.233,565.491 L104.596,565.59 L105.305,565.92 L105.588,566.08 L105.847,566.25 L106.058,566.458 L106.181,566.608 L106.341,566.735 L106.604,566.905 L106.703,566.952 L106.95,567.018 L107.691,567.207 L108.105,567.273 L109.448,567.391 L109.619,567.391 L110.496,566.363 L110.579,566.307 L110.683,566.259 L111.145,566.217 L112.276,566.245 L113.344,566.321 L113.651,566.292 L114.248,566.226 L114.523,566.175 L115.826,565.769 L115.925,565.717 L116.26,565.482 L116.674,565.171 L116.726,565.086 L116.933,564.794 L117.614,564.685 L117.766,564.671 L119.276,564.737 L119.415,564.756 L119.777,564.855 L119.881,564.897 L119.968,564.954 L120.112,565.091 L120.224,565.251 L121.65,565.373 L121.769,565.336 L123.391,564.86 L124.594,564.991 L124.602,565.109 L124.641,565.204 L124.697,565.284 L124.956,565.336 L125.283,565.312 L125.378,565.265 L125.526,565.133 L125.785,564.85 L126.94,563.352 L128.35,560.698 L128.378,560.604 L128.318,560.524 L128.08,560.458" id="Fill-14" sketch:type="MSShapeGroup"></path>
            <path d="M147.308,561.782 L147.185,561.754 L146.018,561.655 L145.847,561.665 L144.369,561.971 L142.285,562.15 L139.859,561.895 L139.269,562.239 L137.297,562.838 L136.118,563.111 L135.963,563.102 L135.752,563.017 L135.397,562.796 L135.186,562.706 L135.051,562.687 L134.764,562.729 L134.107,563.196 L134.043,563.267 L133.86,563.597 L133.868,563.714 L133.892,563.818 L134.27,563.875 L134.565,563.903 L134.668,563.945 L135.083,564.247 L135.119,564.341 L134.971,564.94 L135.529,564.841 L136.366,564.289 L136.485,564.252 L137.744,563.922 L138.054,563.936 L138.21,563.917 L138.576,563.813 L138.696,563.776 L139.692,563.173 L140.018,562.927 L140.895,563.224 L140.831,563.516 L140.855,563.62 L140.899,563.714 L140.955,563.795 L141.058,563.837 L142.755,563.441 L144.122,562.951 L144.536,562.758 L145.046,562.965 L145.349,563.323 L146.544,562.885 L146.623,562.824 L147.372,561.957 L147.368,561.862 L147.308,561.782" id="Fill-15" sketch:type="MSShapeGroup"></path>
            <path d="M78.368,563.309 L78.212,563.201 L78.196,564.563 L78.112,564.624 L78.607,564.671 L78.742,564.648 L79.12,564.558 L79.343,564.384 L78.436,563.375 L78.368,563.309" id="Fill-16" sketch:type="MSShapeGroup"></path>
        </g>
    </g>
</svg>