<?xml version="1.0" encoding="UTF-8" standalone="no"?>
<svg width="360px" height="480px" viewBox="0 0 360 480" version="1.1" xmlns="http://www.w3.org/2000/svg" xmlns:xlink="http://www.w3.org/1999/xlink" xmlns:sketch="http://www.bohemiancoding.com/sketch/ns">
    <!-- Generator: Sketch 3.3 (11970) - http://www.bohemiancoding.com/sketch -->
    <title>la-pampa</title>
    <desc>Created with Sketch.</desc>
    <defs></defs>
    <g id="Page-1" stroke="none" stroke-width="1" fill="none" fill-rule="evenodd" sketch:type="MSPage">
        <g id="la-pampa" sketch:type="MSArtboardGroup" fill="#4DB9DF">
            <g id="Imported-Layers" sketch:type="MSLayerGroup" transform="translate(5.500000, 12.845528)">
                <path d="M89.3713113,349.215037 C89.3553602,349.192369 89.3394092,349.169702 89.3234581,349.147035 C89.3159023,349.182295 89.3091861,349.218395 89.3016303,349.254494 L89.3713113,349.215037" id="Fill-1" sketch:type="MSShapeGroup"></path>
                <path d="M99.6228104,63.8638757 L103.900215,64.7621726 C107.961021,65.6629882 119.474333,70.1082987 119.463419,70.3039092 C119.463419,70.3039092 151.980929,69.1747415 173.384743,69.1747415 C194.788557,69.1747415 231.307266,69.6994477 231.307266,69.6994477 C231.259413,69.4769723 247.303668,60.0247056 251.785078,58.1172938 C251.731348,57.9032137 244.333411,58.050971 239.318899,59.3270563 C234.303548,60.6039812 226.636122,60.3244178 225.946028,59.7392655 C227.726671,59.2548568 232.006594,57.3281357 233.574836,55.5290233 C235.143917,53.7299108 240.903092,49.6531538 241.46054,48.2544971 C242.017148,46.8558403 242.97841,47.0052766 243.685294,46.4301987 C241.428638,45.3900212 240.204603,46.004557 239.115733,48.2200763 C238.444109,49.5868309 237.601221,50.5564879 235.271526,50.4658187 C232.534659,50.3591984 229.515709,51.7662504 227.007194,53.1968093 C224.580953,54.5820336 222.602181,54.4426716 220.823217,53.6316858 C223.436674,51.2054445 226.161787,48.8472051 228.667784,46.2757252 L234.284239,41.5307024 C236.199206,39.551091 237.869031,37.3355718 239.631204,35.2082031 C239.491842,35.0537296 233.150034,38.4160467 230.08659,40.2714077 L224.826935,42.8974571 C223.000118,44.1836168 220.838329,45.045814 218.730269,45.8484045 C218.099782,46.08851 213.196928,47.4947225 216.063083,45.2078432 C218.930077,42.9209639 222.760012,28.8067879 229.073277,23.7016069 C227.698127,24.2607338 224.320698,25.3596784 223.356918,26.3226191 C222.393138,27.2847203 216.903452,34.7498198 216.209161,35.5801148 C214.115374,38.0819138 211.72943,39.9893256 207.618252,40.8171021 C209.524824,37.1038615 216.697767,21.0528902 218.38942,17.4949627 C218.235786,17.3749099 211.982128,22.7613335 211.524584,23.3296952 C210.098223,25.1002636 209.197408,27.3258573 207.654352,28.9604219 C206.118852,30.5865912 204.051929,31.7107217 201.459461,33.6105778 C202.963059,25.7240343 204.238305,18.6669463 205.21048,11.5771167 C204.768888,11.4704964 197.298751,25.9381144 195.645717,27.4937633 C194.239504,28.8177018 193.071718,30.3951784 191.798991,31.8609976 C191.454784,31.7367471 191.411128,16.099664 191.777163,7.3727512 C190.594266,8.46162142 188.609617,13.2326696 187.904412,15.0687214 C186.904532,17.6737825 183.778962,25.4377546 182.224992,28.2417844 C181.7112,25.4495081 181.279682,23.3767088 180.956463,21.287119 C180.382224,17.5789157 180.416645,11.9633004 179.409209,10.1431997 C178.401773,8.32309899 179.329454,0.23506836 179.127967,0.23506836 C175.397096,4.29923239 175.371071,9.3103861 175.698487,14.3341328 C175.758094,15.2450227 174.365314,27.49964 172.938113,27.304869 C171.393378,27.094147 166.517389,10.7014871 164.139001,4.05828732 C163.775484,9.21384017 163.393498,14.3685535 163.059365,19.5266249 C162.925041,21.6002637 162.485127,26.7532979 162.3189,27.2511391 C161.888221,27.1050609 159.01451,24.167546 158.546892,22.2131205 C157.965098,19.781842 155.894818,17.6553129 154.248499,15.5699207 C154.248499,15.5699207 150.108778,11.8860637 150.094506,4.33952983 C149.274285,7.57088024 149.241543,10.7778843 150.96258,13.792636 C151.0331,13.9152074 151.35464,14.6053009 151.678699,15.2937154 C152.002757,15.9821299 153.719596,21.7127607 153.511392,24.6771406 C153.286398,27.8849842 157.903812,29.6144157 155.351642,33.8229788 C155.115734,32.0969055 143.949987,17.9239624 139.218396,10.487407 C139.222594,15.4901654 142.394338,22.412089 142.581553,23.3221394 C143.215398,26.4124488 144.076756,29.4557445 144.851642,32.5166704 C144.508274,32.774406 141.291196,31.2624128 140.241783,30.060206 C138.315902,27.8564402 136.621731,25.8314941 133.603621,24.5277043 C130.618253,23.2381864 128.35572,20.0043174 127.544734,16.3548811 C127.344086,15.4532261 126.953705,14.5935475 126.40801,13.8144638 C126.495322,19.2302709 128.757854,23.7276323 132.220076,27.6876946 C133.067161,27.6247299 134.12329,30.733509 134.313024,30.8082271 C137.671982,32.1330052 134.734468,36.5665624 137.849963,38.0382582 C137.94399,38.0827533 131.465338,37.5253055 128.752817,35.6959699 C128.438833,36.1526742 127.312184,33.8767087 126.003357,33.4586229 C123.311824,32.5989443 122.51595,29.0343005 119.146077,29.0250657 C118.276324,29.0233867 116.103621,26.587071 115.883664,26.7381864 C119.825257,32.7064041 123.76601,38.6746219 127.707603,44.6428396 C127.499399,44.7981526 116.040656,40.7381863 115.862676,40.7239143 C111.586111,40.3771884 104.679299,35.6556725 104.482009,35.8882223 C104.72967,36.4095703 104.884144,37.0089946 105.240944,37.4396735 C108.243103,41.0664424 112.369392,43.1745019 116.205204,45.7233145 C118.744782,47.40993 123.220316,53.8046289 123.352961,54.972415 C116.167425,52.0500115 102.450347,47.1253294 102.307627,47.3948185 C107.300311,51.4707359 112.293834,55.5458139 117.65927,59.9248016 C117.147157,62.3350918 114.678939,61.0388577 112.914247,61.3368908 L105.950347,60.5040772 C104.795993,60.7475408 103.48045,60.6224509 102.947349,61.2084427 C100.669704,63.7102417 98.9965211,62.8984163 97.4131678,60.1053005 C97.307387,62.3963775 97.953825,63.3500834 99.6228104,63.8638757 L99.6228104,63.8638757 Z M196.513791,63.3635159 C194.935474,64.4708558 193.378147,66.4051325 191.772126,66.4462695 C190.242503,66.4848879 188.662507,64.5480925 187.10434,63.4802105 C187.215158,63.183017 187.325976,62.8858234 187.435954,62.5886298 C186.160708,63.2946744 184.884623,64.000719 183.608538,64.7076032 C185.198607,61.7113211 187.910289,60.5376584 191.103021,60.2698484 C195.683496,59.8853437 198.977811,61.566922 200.570399,65.2188769 C198.982008,64.2341083 197.606858,63.3819855 196.231709,62.5298627 C196.325736,62.8077471 196.419763,63.0856315 196.513791,63.3635159 L196.513791,63.3635159 Z M185.238065,55.4484284 C189.718636,53.1304865 199.719955,52.6066198 204.135882,57.2786035 C201.410768,56.6783396 198.651234,55.6297668 195.874908,55.5844322 C193.204364,55.5399372 190.517029,56.5322614 187.865794,57.5363391 C193.367233,57.7747656 198.516069,58.347325 201.975772,62.943751 C199.253176,61.6693446 196.56836,59.6376824 193.673661,59.2724869 C190.681577,58.8946985 187.485486,60.1372026 184.364114,60.6736622 C184.72847,60.2538973 185.352241,59.5386179 185.840008,58.9778119 C184.955983,58.4615011 184.105539,57.9644994 183.255096,57.4683372 C183.909089,56.7816018 184.441351,55.8606376 185.238065,55.4484284 L185.238065,55.4484284 Z M159.764211,63.7295509 C158.153992,64.886423 156.611776,66.8123045 154.913407,66.9609013 C153.489565,67.0859913 151.884383,65.1366029 150.358958,64.1056603 C150.376588,63.7723669 150.393378,63.4399131 150.410169,63.1074593 C148.941831,64.1677855 147.473494,65.2281117 145.491364,66.6603496 C146.984887,62.718757 149.762891,61.4804504 153.047972,60.9020143 C157.275844,60.1565118 160.796832,61.4451902 163.58659,64.8729906 C162.198008,64.1946504 160.810265,63.5163103 159.422522,62.8379702 C159.536698,63.1351638 159.650874,63.4323573 159.764211,63.7295509 L159.764211,63.7295509 Z M162.584191,56.2703281 C163.183616,56.5767565 163.537897,57.3625565 164.006355,57.925881 C163.291076,58.3212996 162.613575,58.8653149 161.847084,59.0668021 C161.205683,59.2338685 160.459341,59.0029978 159.760013,58.9475888 C159.777643,58.9618608 159.796113,58.9736143 159.814582,58.9878863 C160.726312,59.627608 161.638881,60.2664902 162.55061,60.9053725 C162.506955,61.1673058 162.463299,61.4300786 162.419644,61.6920119 C156.607578,58.7553365 151.055767,58.1752214 145.755815,63.6355236 C147.844566,59.4496277 152.248739,57.6673058 156.942551,58.5538493 C157.913047,58.7368668 158.893618,58.8703521 159.861596,59.022307 C159.859917,59.0214675 159.844806,59.0105536 159.834731,59.0029978 C159.841447,59.0088745 159.848164,59.0122326 159.85488,59.0181093 L159.755815,58.9467493 C159.756655,58.9467493 159.758334,58.9467493 159.760013,58.9475888 C155.928399,55.9244418 151.674501,56.422283 147.371071,57.5724389 C145.853201,57.9779319 144.382345,58.559726 142.394338,59.2271523 C147.436554,54.7197165 157.037418,53.4327172 162.584191,56.2703281 L162.584191,56.2703281 Z" id="Fill-2" sketch:type="MSShapeGroup"></path>
                <path d="M345.597502,86.495082 C341.428397,90.2813617 337.391938,93.9475885 333.2455,97.7137195 C328.546651,96.6441584 323.979609,99.878867 323.612734,104.655792 C323.360875,107.940033 321.813622,110.147996 319.354639,112.073038 C317.598342,113.449028 316.044372,115.084432 314.400573,116.603141 C314.077354,116.484768 313.754135,116.366394 313.431755,116.24802 L313.431755,82.5811938 C313.063202,82.5602056 312.695488,82.5383778 312.327774,82.51655 C312.228709,83.5970249 312.033099,84.6791789 312.047371,85.7579748 C312.178337,95.309306 312.243821,104.863156 312.556126,114.40861 C312.671981,117.945549 310.665505,120.083832 308.716116,122.400095 C308.408848,122.369872 308.10242,122.339649 307.795152,122.310265 L307.795152,78.1409204 C307.435833,78.1274879 307.076514,78.1140554 306.717196,78.100623 C306.63828,78.859558 306.487165,79.6193325 306.489683,80.3774279 C306.540055,94.6746214 306.747419,108.975173 306.504795,123.267329 C306.472053,125.15879 304.168383,127.011632 302.916644,128.882944 C302.517867,128.746941 302.11993,128.611776 301.721993,128.475772 L301.721993,72.0946264 C301.402972,72.0979845 301.08395,72.1005031 300.765769,72.1038612 C300.765769,77.0537292 300.748138,82.0044368 300.769966,86.9543048 C300.794313,92.3633957 300.843845,97.771647 300.901772,103.179898 C300.987404,111.099183 301.10326,119.017629 301.181336,126.936914 C301.221633,131.01619 300.545812,131.843966 296.2088,132.769128 L296.2088,71.9712155 C296.2088,71.9712155 221.237945,71.3600378 171.286758,71.3600378 C121.335571,71.3600378 50.2811221,74.318541 50.2811221,74.318541 C50.2811221,80.1532735 50.3256172,81.8919398 50.2710478,86.987886 C50.1963296,93.9098097 49.9721751,100.829215 49.9520264,107.750299 C49.9377544,112.951186 50.1274882,118.152074 50.2584548,123.352961 C50.3642356,127.601822 50.5077952,131.846485 46.7819617,135.338089 C46.3899013,134.505276 45.7308703,133.753897 45.7291913,133.000838 C45.7090425,124.580354 45.8232186,116.15903 45.833293,107.737706 C45.8408487,102.012952 45.7241541,96.2873582 45.6947705,90.5617646 C45.6695846,85.7050844 45.6897334,80.8484042 45.6897334,75.9925635 C45.3514028,75.9883659 45.0130723,75.9850077 44.6747418,75.9816496 L44.6747418,132.484528 C41.5432954,130.239625 39.92804,128.254137 40.0094743,124.709642 C40.3091865,111.530702 40.2646914,98.3433669 40.3075074,85.1602295 C40.3142237,83.0924675 40.1051807,81.0238659 39.3059483,78.9728945 L39.3059483,126.544854 C36.0049169,124.759174 34.4408728,121.53454 34.4988004,118.340968 C34.5953463,113.042695 34.2754854,107.739385 34.2670901,102.437754 C34.2603739,98.219956 34.5038376,94.0013184 34.5340606,89.7826809 C34.5432955,88.4285193 34.2259532,87.0709995 33.6701844,85.7638515 L33.6701844,120.045214 C33.419165,120.208922 33.1681455,120.37347 32.9171261,120.537178 C31.2917963,119.075557 29.7008872,117.571959 28.0125927,116.187574 C27.6616692,115.900455 26.9573037,116.044854 26.4107697,115.996161 C26.4166464,115.976012 26.4183255,115.958382 26.4250417,115.938234 C25.7458621,114.157591 25.3630365,112.175461 24.3018707,110.672702 C22.733629,108.450467 21.0428158,105.565003 18.7634923,104.74814 C13.8875029,102.999399 11.3806667,98.9301982 7.9268409,95.7836403 C7.70604455,95.5821532 7.52302704,95.3386895 7.3223794,95.114535 C4.26984885,91.6934509 3.46725831,91.752218 0.671623885,95.9347557 C3.38078673,98.8193803 6.11681453,101.824058 8.96114168,104.722954 C10.2573758,106.043535 10.6939313,107.055168 10.0214679,109.120412 C9.05684809,112.082273 8.80079148,115.365674 8.77644511,118.51643 C8.75041969,121.808226 9.70664419,125.115974 9.60590061,128.397696 C9.45478524,133.329095 13.2914367,135.954304 15.2097624,140.251858 C16.3288557,138.227751 17.1457182,136.751018 18.1842167,134.87299 C18.7819619,136.655312 19.2881984,138.166466 19.8305347,139.7834 C23.3355719,137.669464 21.2963539,133.876468 22.5858717,130.770208 C22.9880065,131.595465 23.2591747,132.151234 23.5295033,132.707003 C23.7393857,132.737226 23.9492682,132.76661 24.1591507,132.795993 C24.631806,129.384983 25.1044613,125.974813 25.5771166,122.563803 C25.799592,122.420244 26.0220674,122.276684 26.2445428,122.133124 C27.3409688,123.645957 28.4399134,125.157111 29.5313022,126.673302 C29.9922041,127.313024 30.3212998,128.371671 30.9106498,128.541256 C33.9002156,129.400934 33.335212,131.677739 33.3839047,133.857998 C33.5518107,141.454904 33.547613,149.070279 34.1545931,156.635283 C34.4534658,160.352721 36.1938112,163.933316 36.8326934,167.652433 C37.4161666,171.044973 39.492324,173.616453 40.8372508,176.582512 C41.1780999,177.333891 41.4459099,178.117173 41.3443268,179.048211 C39.1539934,175.714438 36.9628205,172.380665 34.4702564,168.588509 C34.0328613,169.778962 33.3805466,170.716717 33.3956581,171.643558 C33.4980808,178.164187 33.3889419,184.717557 34.0395775,191.191171 C34.6112974,196.876467 36.6706641,202.155431 41.3141037,206.046652 C42.7152791,207.221154 43.8687931,208.690332 45.1322855,210.020147 C47.3855837,206.186014 49.4860874,202.613815 51.8258571,198.633603 C57.2668501,204.161068 60.0767565,210.418924 62.2183972,217.944469 C63.3139836,213.788796 64.166946,210.557446 65.0786754,207.101102 C63.7287114,207.694649 62.5323813,208.221034 61.2143194,208.80031 C61.1060201,206.327055 61.1060201,206.327055 67.332813,202.343486 C66.9147272,212.990404 70.1360032,223.53154 64.8780277,234.481528 C64.6345641,229.375508 64.4330769,225.151833 64.2307502,220.928158 C63.8907406,220.918084 63.550731,220.90717 63.2098819,220.896256 C63.7841203,226.008993 63.1679054,230.887501 60.9230026,235.446988 C60.5779558,235.524224 60.2337486,235.600622 59.8895413,235.677019 C59.0046769,232.971214 58.1189729,230.26457 57.1006232,227.150754 C56.8177016,228.698007 56.5650031,230.080713 56.3064279,231.492802 L54.1051806,231.492802 C53.5225469,222.124488 52.9373946,212.697408 52.3514028,203.271166 C47.9279199,207.65771 48.0941469,212.828374 48.3115851,217.968816 C48.4307983,220.780401 49.054569,223.583591 49.0067158,226.383423 C48.9638998,228.830653 48.2998317,231.267808 47.3503234,233.963538 C46.6996878,232.648835 45.8567998,231.390379 45.4454302,230.005155 C44.849364,227.997 44.1038615,225.866273 44.2331491,223.839648 C44.6428396,217.379466 40.0774763,213.244781 37.4002156,208.234467 C36.5598462,206.661188 35.486927,205.212159 34.4971213,203.669943 C32.5023984,209.912687 35.0503715,228.837369 40.265531,239.262651 C39.5149913,238.797551 38.7249937,238.314822 37.0644036,237.29983 C38.3933794,243.19249 38.9978409,248.47817 40.8120649,253.309664 C43.486807,260.433075 47.0019185,267.243341 50.2332689,274.152672 C50.4708559,274.660588 51.2717674,274.985486 51.8779079,275.226431 C54.1135759,276.115493 56.3475649,277.035618 58.6478767,277.726551 C59.5260249,277.990163 60.5813139,277.666105 61.3595581,277.621609 C64.2005271,286.502156 67.1833767,295.824296 70.1662263,305.147275 C70.073878,305.277402 69.9815297,305.40669 69.8883419,305.535977 C68.2722469,303.479129 66.3085866,301.60278 65.125689,299.320938 C63.6128562,296.403571 62.0781957,293.230988 61.7339884,290.040775 C61.2764447,285.793593 59.1373226,283.149914 56.0402969,280.742981 C53.2052046,278.540055 50.5229067,276.140679 47.0623647,274.137561 C48.1302466,277.35212 48.9194047,280.694289 50.3222591,283.754375 C53.7886779,291.315181 57.3885819,298.843245 63.4122086,304.830772 C65.0434151,306.452744 66.6930913,308.06632 68.4485482,309.549769 C68.9782916,309.997239 69.8858233,310.014029 70.6296468,310.19117 C72.2532975,310.577354 73.882825,310.94087 74.8625563,311.165025 C75.5509708,313.804507 76.0656026,315.7816 76.5810739,317.758692 C76.4375143,317.970254 76.2939547,318.181815 76.1503951,318.393377 C71.8117048,315.559124 67.4730145,312.724871 62.7792031,309.659748 C65.6545929,314.540774 68.4770922,319.331971 71.2995916,324.123168 C71.4834486,324.065241 71.6673057,324.007313 71.8511627,323.949386 L71.8511627,320.948066 C75.8456458,325.669582 79.309546,329.765648 82.7742857,333.860875 C82.6945303,333.9952 82.6139355,334.129525 82.5341801,334.26301 C81.7181571,333.900333 80.9021341,333.536816 80.0861111,333.1733 C79.9475887,333.378145 79.8082267,333.582151 79.6688647,333.786157 C82.4577829,336.089827 85.2458616,338.392657 88.2387855,340.865073 C86.9358352,341.08335 85.6824171,341.293233 83.9714553,341.579512 C85.9401528,344.363394 87.632645,346.756893 89.3234581,349.147035 C89.448548,348.51235 89.575317,347.86927 89.7398649,347.038136 C100.557207,350.711918 105.152794,362.302467 115.58731,366.178577 C115.420244,366.515228 115.253177,366.852719 115.085271,367.19021 C112.796713,366.340606 110.410769,365.682415 108.245622,364.587668 C106.077116,363.492081 104.129407,361.959939 102.085151,360.62005 C101.895418,360.896255 101.705684,361.171621 101.51595,361.447826 C103.762532,362.880064 105.983928,364.355118 108.264931,365.730268 C109.955744,366.750297 111.715398,367.659507 113.466658,368.576274 C113.889781,368.79791 114.454784,369.059004 114.861117,368.950704 C117.418325,368.269846 119.948668,367.489922 122.536099,366.729308 C121.49844,363.928637 120.307147,360.715756 118.843007,356.767447 C125.401414,357.415564 130.960781,358.741182 136.779562,362.224391 C135.469056,358.872988 134.501918,356.33341 133.481049,353.817339 C132.976492,352.573156 132.380426,351.366752 131.820459,350.146075 C131.831373,350.130124 131.840608,350.115852 131.851522,350.100741 C132.416526,349.901772 133.288797,349.364473 133.517149,349.564281 C139.599543,354.870949 146.047972,359.842645 150.286758,366.915684 C150.661188,367.539455 150.838329,368.641757 150.529382,369.205082 C150.270807,369.678577 149.168504,369.69033 148.298751,369.948066 C148.761332,370.811942 149.35488,371.921801 150.010553,373.146675 C150.419404,372.596783 150.738425,372.167783 151.223673,371.516308 C151.914606,375.222832 152.537538,378.56584 153.254496,382.409208 C142.4976,378.188891 135.47997,369.399853 126.396257,363.613813 C125.649915,365.78064 130.003717,372.653871 133.323218,375.311822 C125.732189,373.756173 118.14116,372.200524 109.841568,370.499637 C111.459342,372.49436 112.630486,373.939191 113.69501,375.251376 C112.519668,376.507313 110.791916,377.544972 110.501438,378.892417 C110.218517,380.2088 111.353561,381.860995 111.954664,383.329332 C112.706044,385.165384 113.547253,386.963657 114.42708,388.951664 C115.829934,388.29683 117.142959,387.683974 118.455144,387.071117 C119.546533,389.464616 120.579994,391.683494 121.572318,393.920841 C122.286758,395.532738 122.096185,396.874307 120.699207,398.18985 C119.815182,399.021824 119.379466,400.330651 118.31914,402.15411 C106.111537,406.623767 92.7705677,409.644396 78.5271041,408.116451 C83.3258568,411.080831 88.0364588,414.209759 92.9863268,416.896254 C94.2473007,417.579632 96.3394091,417.130483 97.9328368,416.734225 C104.714559,415.048449 111.471095,413.254374 118.196569,411.353678 C120.653033,410.659387 122.657831,409.780399 125.524825,411.067399 C128.01655,412.185652 131.367113,411.395655 134.33737,411.441829 C135.197888,411.455261 136.059246,411.443508 137.202685,412.077353 C135.125688,413.287955 133.136842,414.695847 130.955744,415.676418 C121.724273,419.830411 112.58683,424.305945 102.289997,425.304146 C101.69477,425.362074 101.092827,425.663465 100.521107,425.602179 C93.0308219,424.802107 86.7410642,427.995679 80.5209875,431.497358 C78.8360511,432.446026 77.0402968,433.199085 74.6140555,434.371068 C99.9611409,438.462097 121.738545,430.209519 142.409449,419.811102 C137.7828,425.613093 122.159989,444.963417 120.228231,447.419881 C120.477572,447.659147 120.726912,447.898413 120.976252,448.138519 C125.487886,447.837967 128.768768,445.463776 131.286518,441.716115 C138.501438,430.979368 147.325736,421.735305 157.177619,413.381143 C159.346964,411.541733 161.499519,411.145475 164.055048,411.281479 C167.869871,411.483805 171.692251,411.864113 175.502877,411.775962 C179.807146,411.675218 184.109737,411.221872 188.397216,410.768526 C192.165026,410.369749 194.588749,412.831251 197.196328,414.756293 C207.377307,422.273443 215.374668,431.871788 222.995081,441.860514 C224.280401,443.544611 226.576515,444.52938 228.546892,445.571236 C229.065721,445.845762 230.110936,445.125446 230.914366,444.862673 C230.65663,444.112133 230.55001,443.253294 230.110096,442.631203 C228.886062,440.900092 227.523505,439.266367 226.216357,437.594863 C225.988844,437.746818 225.762171,437.899612 225.534659,438.051567 C225.888101,438.642596 226.286877,439.211798 226.582392,439.830531 C226.892178,440.477809 227.101221,441.1721 227.135642,441.960418 C223.021946,438.642596 219.016549,435.304626 217.431516,430.008871 L217.433196,430.018106 C216.936194,426.604578 214.807146,424.153151 212.551329,421.787355 C211.88894,421.092225 211.135043,420.485245 210.519667,419.673419 C221.170782,424.799589 232.093905,429.04677 243.56776,431.891937 C255.213718,434.779919 266.915085,434.790833 279.529021,433.410646 C275.590787,431.420121 272.110096,430.115492 269.148235,428.062002 C264.431756,424.791193 259.116692,424.614052 253.777283,423.86855 C243.812063,422.478288 234.155791,419.810263 224.966297,415.615132 C222.255455,414.376825 219.559725,413.106617 216.958861,411.15387 C218.76469,411.008632 220.575556,410.698845 222.374668,410.759291 C224.762291,410.839886 227.149914,411.488003 228.984287,409.103738 C229.266369,408.737703 230.691891,409.069318 231.511272,409.325374 C240.950945,412.263729 250.614774,413.946147 260.481768,414.236624 C262.200286,414.287835 264.194169,413.515468 265.639,412.514748 C268.902252,410.254734 271.901053,407.614412 274.928398,404.772604 C260.600142,406.544851 246.685774,405.566799 233.237345,400.424679 C233.444709,400.232426 233.652073,400.040174 233.859437,399.848761 C232.958621,398.331731 232.057806,396.8147 230.968935,394.981167 C231.825256,392.667423 232.836889,389.933914 233.987045,386.825135 C235.155671,387.615132 236.251257,388.355597 237.466896,389.177497 C238.475172,386.780639 239.393617,384.465216 240.419523,382.198486 C241.37155,380.093784 240.933315,378.554086 238.90753,377.382942 C236.755815,376.139599 234.666225,374.789635 232.488484,373.448066 C232.920003,373.194528 233.470734,372.872148 234.143198,372.478409 C233.562243,371.517147 232.993881,370.576034 232.045213,369.006953 C235.107818,369.753295 237.69273,370.382942 240.277642,371.01175 C240.359077,370.859795 240.440511,370.707001 240.521946,370.555046 C239.888101,370.090786 239.254256,369.626526 238.933555,369.391458 C244.635642,364.889059 250.430077,360.312782 256.600621,355.44015 C260.222353,359.413645 264.044733,363.755694 268.035018,367.939071 C270.991003,371.038615 274.231588,373.865312 277.220314,376.934633 C280.082271,379.873827 282.657949,383.099301 285.592945,385.95874 C288.154351,388.452983 291.198486,390.453583 293.750657,392.957061 C297.975171,397.099301 301.864713,401.58323 306.100981,405.712877 C310.224751,409.734225 314.636481,413.45754 318.862674,417.376466 C321.198246,419.541613 323.377666,421.875506 325.706522,424.049049 C326.289155,424.593064 327.177378,424.811342 327.925399,425.179056 C328.290594,424.11873 331.320458,420.720313 331.322137,419.659987 C331.322976,419.015228 291.143917,381.238903 274.885582,366.204602 C274.355838,365.502755 273.151113,364.38786 273.078913,364.536456 C272.611295,364.105778 270.873468,362.289035 270.377306,362.060683 C269.025663,360.830772 268.238184,360.134801 268.176899,360.124727 C265.351041,357.125087 262.523505,354.123768 259.658189,351.081311 C261.396016,348.546771 263.195128,345.92324 265.295632,342.858956 C263.135522,342.339287 261.328014,341.904411 259.076395,341.362914 C273.292154,335.948786 278.864953,323.189611 285.8532,311.259892 C284.514989,310.921561 283.58563,310.686493 282.338928,310.371669 C293.323336,302.033459 297.218755,290.112135 301.022665,277.53094 C299.338568,277.783639 298.131324,277.964977 296.271765,278.244541 C306.671022,268.248259 310.577354,256.051569 311.599901,242.070878 C309.747898,242.600622 308.283758,243.019547 306.517388,243.524944 C315.408009,232.187093 315.389539,219.115613 314.840487,205.652913 C314.193209,205.69237 313.749937,205.708322 313.309184,205.748619 C312.809664,205.794793 312.313502,205.863635 311.286757,205.984527 C315.689251,194.723073 314.793473,183.188773 314.545812,171.108778 C312.829813,171.859317 311.438712,172.467976 310.157589,173.027943 C311.400933,168.4609 312.827294,163.863635 313.881743,159.181577 C315.229189,153.197408 314.982367,147.115854 314.492921,141.031781 C314.134442,136.578915 313.867471,132.103381 313.927918,127.642959 C313.94135,126.662388 315.473492,125.661668 316.381024,124.744902 C317.243221,123.87263 318.377426,123.224513 319.08515,122.254017 C320.624847,120.143439 321.968935,117.89014 323.392777,115.695609 C323.878865,115.845046 324.364113,115.994482 324.849362,116.143918 C324.437152,121.538737 324.024943,126.933556 323.612734,132.328375 C323.968695,132.33761 324.325495,132.347684 324.681456,132.356919 C324.849362,131.047252 325.017268,129.737586 325.185173,128.42708 C325.412686,128.359917 325.640199,128.291915 325.866872,128.223913 C326.195967,128.875389 326.525063,129.526864 327.149673,130.763491 C328.136121,128.163467 328.983207,125.930318 329.973012,123.321059 C331.054327,127.514511 330.005754,131.90945 332.703163,135.687334 C333.218635,130.456223 333.702204,125.559246 334.185773,120.661429 C334.632403,120.685775 335.079033,120.709282 335.525663,120.733628 L335.525663,132.886662 C336.541494,129.652793 337.271885,127.331493 337.998078,125.008514 C338.087908,124.721395 338.249098,124.416646 338.219714,124.137082 C337.703403,119.313983 339.54869,114.767089 339.839167,110.074957 C340.015468,107.219716 339.002156,104.290596 338.367471,100.454784 C340.301748,98.5893491 343.129285,96.0245854 345.767927,93.2776437 C349.461019,89.432597 349.361954,89.0875502 345.597502,86.495082 L345.597502,86.495082 Z M31.4202444,125.885823 C30.1936913,122.37239 24.8928998,120.911608 26.4074116,116.008754 C28.260254,118.026144 30.0484526,120.107339 31.9860875,122.039097 C33.6382823,123.685415 33.2705682,124.846485 31.4202444,125.885823 L31.4202444,125.885823 Z M34.8278961,177.906451 C41.7212757,184.714198 39.3210599,193.572917 40.054809,201.743222 C35.204845,195.861476 33.0741182,185.14068 34.8278961,177.906451 L34.8278961,177.906451 Z M57.7546169,140.994842 C63.295514,137.074237 61.6735423,131.050611 61.904413,125.809426 C62.2528179,117.902733 61.8221391,109.961621 61.7432233,102.03478 C61.7339884,101.103741 61.8548807,100.171863 62.5903089,99.2836403 C62.5903089,100.532861 62.5835926,101.781242 62.5919879,103.030462 C62.6591503,113.655552 62.7237941,124.280642 62.8211796,134.905732 C62.8245377,135.327176 63.1032616,135.746101 63.2820815,136.165866 C63.3341323,136.149075 63.3870227,136.132285 63.4399131,136.114655 C66.7233144,132.456823 66.6234103,128.135763 66.05253,123.590548 C65.7973129,121.561405 66.32034,119.434875 67.1397212,117.333532 C67.2832808,119.795873 67.543535,122.258214 67.5519303,124.721395 C67.5855115,135.041735 67.7147991,145.367953 67.429359,155.681577 C67.3386897,158.971694 66.0743578,162.22907 64.8654348,165.423481 C68.2109613,155.512831 66.6242498,145.324297 66.9844081,134.96282 C65.6730625,135.39014 64.5522902,135.754496 63.4399131,136.114655 C63.3987761,136.160829 63.3635159,136.207842 63.3215394,136.253177 L63.2459817,136.17678 C61.5224269,138.200047 59.7988721,140.224153 57.8326932,142.53286 C57.7881981,141.876348 57.5581669,141.134204 57.7546169,140.994842 L57.7546169,140.994842 Z M56.5456939,94.5495314 C56.8445665,94.550371 57.1434392,94.5512105 57.4423118,94.5528896 L57.4423118,140.064643 C57.1434392,140.090668 56.8445665,140.116693 56.5456939,140.142719 L56.5456939,94.5495314 L56.5456939,94.5495314 Z M51.1936911,132.67678 C53.9339165,137.855 56.674142,143.03322 59.5235063,148.417965 C61.5157107,144.552769 63.5901889,140.527224 65.6646672,136.501678 C65.2684091,146.973134 68.2218752,157.787957 61.8221391,167.771646 C62.6448783,163.670543 63.3895413,159.96234 64.1333648,156.253297 C64.1728227,156.056007 64.2265526,155.859557 64.2391455,155.659749 C64.4540652,152.260493 63.9142475,151.656031 60.3244178,151.465458 C60.0935471,157.558766 60.7131201,163.810745 57.7764447,169.481769 C57.4431513,169.513671 57.1090185,169.544733 56.7748856,169.575796 C56.1855356,163.991243 55.5953461,158.40753 55.0059962,152.822978 C54.7146793,152.786038 54.4233624,152.74826 54.1320456,152.71132 C53.7584548,156.554688 53.3857035,160.398056 53.0121128,164.240584 C52.5151111,164.241423 52.0189489,164.241423 51.5227868,164.242263 C51.2499396,153.794314 50.9779319,143.347204 50.7050847,132.899255 C50.8679535,132.825377 51.0308223,132.750658 51.1936911,132.67678 L51.1936911,132.67678 Z M35.219117,157.37323 C35.0688411,154.803429 34.9185653,152.233628 34.7682895,149.663827 C35.1427198,149.659629 35.5163106,149.654592 35.8907409,149.650394 C36.0393377,152.217677 36.188774,154.784959 36.3373708,157.352241 C35.9646195,157.358958 35.5918682,157.365674 35.219117,157.37323 L35.219117,157.37323 Z M35.3509232,129.055048 C35.4071717,128.818301 35.4642597,128.581553 35.5205082,128.343966 C36.569081,128.491724 38.1213717,128.253297 38.5814341,128.853561 C40.6567519,131.558526 44.4329572,132.994962 45.4017746,136.53274 C45.0550488,136.845046 44.7074834,137.157351 44.3607576,137.468816 C41.3577593,134.664787 38.3539215,131.859917 35.3509232,129.055048 L35.3509232,129.055048 Z M46.0121128,142.040056 C46.0121128,150.915566 46.0305825,159.938833 45.9667782,168.9621 C45.9634201,169.502757 45.3043891,170.038377 44.8124247,170.785559 C39.7273923,163.362436 40.9925638,144.273206 46.0121128,142.040056 L46.0121128,142.040056 Z M48.2125206,177.558046 C47.199208,185.306907 46.0557684,193.039816 44.8250176,201.717197 C43.9443508,199.233867 42.9033338,197.359197 42.6464376,195.382944 C41.7372268,188.405611 43.0678816,181.811104 46.7038854,175.724513 C47.2353078,174.834611 47.6391217,173.869152 48.0916283,172.931397 C48.1629883,174.477811 48.4106496,176.046892 48.2125206,177.558046 L48.2125206,177.558046 Z M58.2692487,199.538617 C57.7554564,197.42636 57.2567757,195.372869 56.7547369,193.305107 C56.0797548,193.900334 55.5349,194.560205 54.8397693,194.957302 C53.4310382,195.762411 52.2405848,195.696088 52.1809782,193.677859 C52.049172,189.166225 51.9862073,184.652913 51.879587,180.141279 C51.8443267,178.643558 51.6898532,177.146676 51.7150391,175.651474 C51.7586947,173.106859 50.431398,172.378986 48.2083229,172.716477 C49.2359075,171.303549 50.2945546,169.911608 51.3691528,168.499519 C59.922283,178.612495 63.8588385,192.332932 58.2692487,199.538617 L58.2692487,199.538617 Z M63.7790832,201.201725 C63.4164063,201.149674 63.0537294,201.098463 62.6902129,201.047252 C62.6902129,198.741063 62.2377063,196.31902 62.791796,194.153872 C63.7253532,190.506954 63.1234103,187.294913 61.5736382,184.035019 C61.1924917,183.233268 60.9834487,182.045333 61.2915562,181.272126 C62.8346121,177.395177 64.5766365,173.597144 66.6469171,169.841088 C66.6469171,177.210481 66.9248015,184.594985 66.51679,191.941711 C66.3430073,195.06896 64.7353077,198.117293 63.7790832,201.201725 L63.7790832,201.201725 Z M67.8911004,183.547252 C67.7752453,187.802829 67.6593902,192.059245 67.543535,196.316501 C67.2606135,196.305587 66.9768524,196.295513 66.6939308,196.284599 C67.0910284,192.037417 67.4881261,187.789396 67.8860632,183.533819 C67.8869027,183.527103 67.8911004,183.547252 67.8911004,183.547252 L67.8869027,183.527103 C67.6358833,182.533939 67.1858953,181.544134 67.1674257,180.546772 C67.0859913,176.308826 67.1330049,172.06836 67.1330049,167.828734 C67.3857034,167.823697 67.6384019,167.81866 67.8911004,167.813623 L67.8911004,183.547252 L67.8911004,183.547252 Z M40.0699205,233.610096 C39.592228,233.607578 39.1145355,233.60422 38.6376826,233.601701 C37.4245619,227.90717 36.2122808,222.211799 34.9991602,216.517268 C35.2535377,216.518108 35.5079153,216.519787 35.7622928,216.520627 C37.3960179,221.238784 39.0985845,225.935114 40.5971452,230.695249 C40.8599181,231.528902 40.26721,232.631205 40.0699205,233.610096 L40.0699205,233.610096 Z M40.4334369,239.430557 C42.1477569,240.298631 43.8494839,241.19273 45.581434,242.023865 C48.8060682,243.572797 47.9640197,246.163586 47.0841924,249.823936 C44.5941469,245.937753 42.5087547,242.682895 40.4334369,239.430557 L40.4334369,239.430557 Z M47.5677616,266.779081 C45.931518,263.033099 44.2952743,259.287117 42.6590306,255.541135 C42.8982966,255.439552 43.1384021,255.337969 43.3785077,255.236385 C45.1608295,258.905131 46.943991,262.574716 48.7271524,266.243461 C48.3401291,266.422281 47.9539454,266.600262 47.5677616,266.779081 L47.5677616,266.779081 Z M60.4570635,299.535857 C58.5933072,296.704123 56.729551,293.873228 54.8657947,291.041494 C55.1084188,290.881144 55.3510429,290.720794 55.5928275,290.560444 C57.4943627,293.333411 59.3958978,296.106378 61.2974329,298.879345 C61.0170299,299.097623 60.736627,299.31674 60.4570635,299.535857 L60.4570635,299.535857 Z M293.362794,389.709759 C291.900333,388.125566 290.761931,386.239982 289.475771,384.492921 C289.703284,384.202443 289.930796,383.912805 290.158309,383.623168 C291.069199,383.917003 291.979249,384.211678 293.555047,384.720433 C293.309904,384.415684 305.452864,395.971812 311.081911,401.411966 C309.507793,402.678816 308.304747,403.645955 307.328373,404.431755 C302.598462,399.464257 297.918923,394.643676 293.362794,389.709759 L293.362794,389.709759 Z M327.891818,418.60134 C327.60134,419.4585 327.292393,420.638879 327.070758,420.585988 C319.039815,418.691169 316.036817,411.189131 311.248138,405.723791 C310.908129,405.335928 311.414365,404.200044 311.72751,402.679656 C320.94135,411.585389 327.949745,418.430915 327.891818,418.60134 L327.891818,418.60134 Z M290.258213,381.358116 C289.420362,382.22703 288.751257,383.192489 287.909208,383.381383 C287.06632,383.570277 285.686973,382.919642 285.045572,382.195967 C281.375987,378.051208 273.360156,368.957421 272.272965,368.957421 C272.815301,368.19093 273.196448,367.652791 273.573397,367.11969 C274.431396,367.567999 284.876826,376.188291 290.258213,381.358116 L290.258213,381.358116 Z M272.769966,366.116452 C272.454303,366.766248 272.149554,367.392537 271.851521,368.007073 C271.581192,367.927317 271.310864,367.848402 271.039695,367.768646 C271.195848,366.837608 271.35368,365.892297 271.517388,364.912566 C271.908609,365.287836 272.325016,365.688291 272.769966,366.116452 L272.769966,366.116452 Z M265.882464,359.884621 C266.865553,360.196927 270.330293,363.278841 270.761811,364.097382 C270.525903,364.29719 270.289156,364.496999 270.053248,364.695967 C268.473253,363.40477 266.893257,362.113573 265.313262,360.822376 C265.502996,360.509232 265.69273,360.196927 265.882464,359.884621 L265.882464,359.884621 Z M308.61957,138.399015 C307.876586,134.817581 307.630604,131.407411 311.949985,129.473134 C313.006953,135.40945 312.532619,136.659509 308.61957,138.399015 L308.61957,138.399015 Z M311.63768,122.346365 C312.389059,125.877428 309.035138,127.002398 307.636481,129.023985 C306.324296,130.920483 304.668743,133.161189 301.272005,132.090788 C304.668743,128.897216 307.938712,125.823698 311.63768,122.346365 L311.63768,122.346365 Z M304.582271,143.452146 C301.706882,139.388821 301.736265,138.928759 306.587069,134.902373 C306.482967,137.945669 307.63816,141.0343 304.582271,143.452146 L304.582271,143.452146 Z M298.850801,213.947468 C298.758453,214.771046 298.666104,215.594625 298.574596,216.418204 C298.507433,216.410648 298.44111,216.402253 298.374788,216.394697 C298.558645,212.504316 298.743341,208.614774 298.927198,204.724393 C299.353679,204.635402 299.781,204.546412 300.208321,204.458262 C302.101461,211.71096 304.252336,218.909089 305.797911,226.235666 C306.838088,231.167064 304.186853,237.823697 301.219115,239.993881 C300.998318,231.325736 303.420362,222.373829 298.850801,213.947468 L298.850801,213.947468 Z M291.046531,219.33557 C291.37059,223.245261 290.437872,227.257374 290.063442,231.227511 C289.867831,233.294433 289.718395,235.364714 289.224752,237.403932 C285.438472,232.265169 289.169343,215.450226 293.385462,209.450946 C293.743941,209.551689 294.10242,209.652433 294.460899,209.753176 C294.062123,210.844565 293.826215,212.035019 293.230988,213.005515 C292.027942,214.967496 290.81734,216.564282 291.046531,219.33557 L291.046531,219.33557 Z M284.109496,228.584671 C284.158189,229.688652 284.441111,230.78256 284.617412,231.881504 C284.453703,232.179537 284.289995,232.47841 284.125447,232.777283 C283.360636,231.947827 282.220554,231.237585 281.910768,230.262891 C281.283639,228.288317 280.886541,226.181936 280.790835,224.110816 C280.619571,220.421922 280.742142,216.718756 280.742142,214.26481 C281.428038,215.672701 283.104579,218.147635 283.823217,220.875268 C284.462938,223.29983 283.99532,226.006474 284.109496,228.584671 L284.109496,228.584671 Z M281.006594,205.545453 C286.876587,206.826575 291.071717,213.125568 286.930317,217.377787 C284.916284,213.354759 282.957661,209.44255 281.006594,205.545453 L281.006594,205.545453 Z M287.686733,143.714079 C291.06752,144.739984 291.446148,147.69345 290.081072,152.526624 C286.298151,149.594146 282.818299,141.657231 284.874308,139.058046 C284.722353,141.796593 285.08419,142.924081 287.686733,143.714079 L287.686733,143.714079 Z M287.99568,183.583352 C285.849842,180.158909 283.238064,177.357398 283.575555,173.204244 C284.490643,176.820939 292.085869,177.190332 287.99568,183.583352 L287.99568,183.583352 Z M294.193089,175.899974 C294.193089,176.624489 294.231708,177.352361 294.180496,178.073517 C294.143557,178.599902 293.987404,179.117892 293.886661,179.64008 C293.163826,183.404532 292.268887,187.146316 291.767688,190.940991 C291.2455,194.890979 291.106138,198.892179 290.777882,202.869871 C290.767807,202.991603 290.520986,203.094026 290.027342,203.497 C287.471813,193.635882 289.741062,184.686494 293.361955,175.898295 C293.639,175.898295 293.916044,175.899135 294.193089,175.899974 L294.193089,175.899974 Z M289.743581,72.9601817 C289.903092,72.9056122 290.062602,72.8502033 290.222953,72.7947943 L290.222953,134.469176 C290.062602,134.472534 289.903092,134.475892 289.743581,134.47925 L289.743581,72.9601817 L289.743581,72.9601817 Z M279.654111,147.731229 C279.163826,142.656271 279.735546,137.486446 279.682655,132.360277 C279.62053,126.354281 279.326695,120.349963 279.259532,114.343966 C279.149554,104.489565 279.139479,94.634324 279.091626,84.7799225 C279.082391,82.9069314 279.089947,81.0339403 279.700285,79.0660823 C279.868191,79.5378981 280.17462,80.0063557 280.184694,80.4815296 C280.428158,91.6262885 280.690931,102.771047 280.837848,113.917485 C280.925159,120.546413 280.645596,127.185415 280.944469,133.80175 C281.008273,135.199567 282.877906,136.51511 283.914725,137.869272 C284.26397,137.69381 284.612375,137.519188 284.961619,137.344566 C284.633363,116.72991 284.305107,96.1160942 283.97685,75.5022781 C284.292514,75.4703759 284.607337,75.4376343 284.923001,75.4065717 C285.166464,77.0125923 285.612255,78.6177734 285.623169,80.2263126 C285.733147,96.2848397 285.755814,112.343367 285.843125,128.401894 C285.859916,131.406571 285.894337,134.429718 286.26289,137.401654 C286.377066,138.320939 287.538136,139.200766 288.375987,139.916046 C289.296951,140.701846 290.396735,141.276084 291.419283,141.942671 C291.277402,142.113935 291.135522,142.28436 290.993641,142.454784 C287.800909,140.591028 284.608177,138.726432 280.673301,136.428639 C280.612854,139.409809 280.575915,142.343127 280.622929,145.240344 C284.331972,152.951426 285.325135,161.374429 284.632523,167.900094 C281.133363,160.7112 281.464977,153.239385 280.623768,145.331013 C280.779921,154.680018 281.848642,163.633604 286.092466,172.441951 C284.072557,171.941591 282.523624,171.557926 280.419762,171.036578 C280.482727,173.523265 280.504555,175.99652 280.539815,178.458022 C285.111895,182.534779 287.79923,195.880785 284.766009,202.546652 C283.846723,200.965817 282.774644,199.901294 282.613454,198.713359 C281.844445,193.016309 281.318059,187.286518 280.714437,181.567641 C280.654831,180.99676 280.606978,180.42504 280.561643,179.855 C280.719475,188.89002 281.213958,197.752937 284.822257,206.435354 C283.467256,205.767928 282.283519,205.185294 280.616212,204.364234 C280.193929,216.147036 279.211679,227.541975 284.514989,238.30055 C282.377546,237.523985 282.425399,237.517268 282.040895,234.890379 C281.272725,229.650034 280.271166,224.437393 279.702804,219.176899 C279.26289,215.105179 279.312423,210.97889 279.189851,206.875268 C279.118491,204.524584 279.508033,202.613815 282.951785,204.455743 C279.658309,195.118492 279.722953,185.849243 279.118491,176.666465 C279.065601,175.865554 279.088268,175.055407 279.132763,174.251977 C279.365313,169.998919 279.579393,169.824297 282.914006,170.310385 C281.814222,162.930078 280.391218,155.363395 279.654111,147.731229 L279.654111,147.731229 Z M281.444828,254.519427 C282.221394,252.958741 282.78052,251.289756 283.438712,249.670302 C282.113094,245.21072 280.788316,240.751137 279.272125,235.648475 C281.471693,237.455983 283.103739,238.884023 284.827294,240.191171 C287.086469,241.904651 284.661067,243.381384 284.597263,244.965577 C284.533459,246.552289 283.848402,248.114654 283.435354,249.687093 C285.456942,247.355719 287.494481,244.992442 289.53202,242.629166 C289.179417,244.166345 289.003955,245.783279 288.368431,247.19285 C286.733867,250.821298 284.718155,254.28184 283.144876,257.934634 C282.134922,260.278602 281.663946,262.851761 280.897455,265.305706 C280.623768,266.184694 280.19225,267.01415 279.553368,267.775603 C278.337728,263.044013 279.357757,258.717076 281.444828,254.519427 L281.444828,254.519427 Z M271.930437,277.687932 C272.536577,281.966176 269.706522,284.223672 267.525423,287.044493 C271.53082,281.58503 271.054807,275.489204 269.720794,269.018947 L266.434035,275.194529 C266.234227,275.10302 266.033579,275.010672 265.833771,274.918323 C267.358357,271.469535 268.882104,268.020746 270.582152,264.173181 C271.148834,264.929597 271.547611,265.215037 271.556846,265.51307 C271.678578,269.575555 271.364593,273.69261 271.930437,277.687932 L271.930437,277.687932 Z M271.678578,270.010432 C272.15627,269.876947 272.633963,269.744301 273.111655,269.610816 C274.007433,271.22775 274.904051,272.844685 276.186013,275.157589 C274.734466,274.589228 274.021705,274.310504 273.734586,274.198007 C273.44243,275.749458 273.170422,277.199326 272.898415,278.648354 C272.699446,278.644996 272.501317,278.641638 272.302348,278.637441 C272.094145,275.762051 271.885942,272.886661 271.678578,270.010432 L271.678578,270.010432 Z M276.415205,278.99508 C272.590307,285.485486 268.617652,292.22691 264.744061,298.79875 C265.509712,290.741782 272.109256,279.820338 276.415205,278.99508 L276.415205,278.99508 Z M274.31638,269.037417 C270.689611,264.331012 274.166944,241.578074 278.627366,236.136242 C274.904051,246.796592 272.076515,257.56692 274.31638,269.037417 L274.31638,269.037417 Z M68.120292,201.24622 C68.2722469,201.231109 68.4242019,201.216837 68.5761568,201.201725 C68.8112251,206.370711 69.047133,211.540535 69.2830409,216.709521 C68.8951781,216.741423 68.5073153,216.774165 68.120292,216.806067 L68.120292,201.24622 L68.120292,201.24622 Z M67.3798267,236.337729 C67.9532256,239.790715 65.5916281,240.190331 63.6220911,241.088628 C63.4902849,238.570878 63.4902849,238.570878 67.3798267,236.337729 L67.3798267,236.337729 Z M52.5847921,239.242502 C53.833173,250.518228 55.0303425,261.331372 56.167066,271.597983 C51.1508751,266.872269 47.5803546,249.721514 52.5847921,239.242502 L52.5847921,239.242502 Z M59.5176296,255.648595 C58.3036694,251.618012 57.322259,247.517748 56.1418801,243.476251 C55.7540173,242.146436 55.0261449,240.919043 54.4989201,239.626167 C53.9154469,238.193929 53.384864,236.740703 52.8307743,235.296712 C53.2245138,235.071718 53.6190928,234.846724 54.0128323,234.62173 C56.6178935,237.204963 59.5411364,239.546412 61.7373465,242.440271 C63.8680733,245.24682 65.2516185,248.62089 66.9634199,251.74562 C67.2547368,251.770806 67.5460536,251.795992 67.83821,251.821178 C68.5266245,247.179417 69.215039,242.538496 69.8723909,238.112495 C73.5243457,243.964858 75.4057321,261.178578 72.2004071,266.045332 C71.53466,263.552768 71.0217072,261.632763 70.5087545,259.711919 C70.368553,259.719475 70.2283515,259.726191 70.0889896,259.732907 C69.8018703,261.940031 69.5147511,264.147155 69.1235302,267.157709 C67.5804743,264.279801 66.4361952,262.147395 65.1710237,259.787477 C64.3046288,260.734466 63.5616449,261.547131 62.2721271,262.956702 C61.2101218,260.171981 60.2127603,257.955623 59.5176296,255.648595 L59.5176296,255.648595 Z M71.0015585,288.946867 C68.5879102,283.891218 66.8887017,278.497239 64.7562959,273.300549 C64.3314938,272.267088 63.3425276,271.465337 62.6146552,270.556966 C62.3963775,270.679537 62.1789393,270.802948 61.961501,270.926359 C62.1982484,269.557086 62.4341563,268.188652 62.7456219,266.382823 C65.3439668,268.640319 67.7769243,270.754255 70.4802105,273.10242 C71.2475408,271.714677 71.9754131,270.398295 72.7032855,269.081912 C70.7555763,273.473492 72.9501073,276.325375 76.2385458,279.032859 C76.4668979,275.165985 76.6860152,271.453584 76.9538252,266.920122 C75.6601097,268.038376 74.9742138,268.631084 74.2874784,269.223792 C74.1321653,269.139839 73.9768523,269.055047 73.8206998,268.970254 C74.8189008,267.177019 75.8171018,265.384622 77.1914121,262.917244 C80.1138156,270.760971 83.0303423,277.679537 85.2122804,284.823097 C86.3263365,288.470014 86.2297906,292.515709 86.4144871,296.393497 C86.4472288,297.087788 85.1761806,297.844205 84.2392653,298.864233 C83.6692245,296.322977 83.2586944,294.496999 82.8490038,292.671022 C82.6920118,292.658429 82.5341801,292.645836 82.3771881,292.632403 C82.2269122,294.224991 82.0220669,295.814221 81.9431511,297.410168 C81.8524819,299.239503 81.0725587,299.320938 79.3792269,299.08419 C73.404293,298.2455 72.8930193,292.910288 71.0015585,288.946867 L71.0015585,288.946867 Z M74.3311339,266.505395 L74.3311339,249.467976 C76.0378981,255.029022 76.1940507,261.016548 74.3311339,266.505395 L74.3311339,266.505395 Z M84.6900928,331.011511 C80.2296707,324.67306 77.3047487,317.705802 76.9890854,309.804987 C76.8698722,306.820458 76.5088744,303.846004 76.204125,300.224272 C79.6075791,302.046052 82.4443504,303.564761 84.9730144,304.918083 C86.537898,301.075555 87.9776917,297.541974 89.7247534,293.251976 C96.2420236,303.029141 102.099423,312.108656 104.205804,323.437272 C103.656751,323.036817 102.865914,322.757253 102.597265,322.217435 C100.168505,317.342286 97.0790349,313.004435 92.89146,309.460779 C92.2710474,308.936913 91.8067874,307.97817 91.6850556,307.159628 C91.1737819,303.710839 90.8203398,300.238544 89.7919157,296.51355 C89.364595,297.573037 88.7802823,298.598942 88.5460534,299.698726 C88.1749812,301.44243 87.8928992,303.233147 87.8635157,305.008752 C87.8492437,305.860036 88.2908364,306.929597 88.8911002,307.541614 C90.7153986,309.402012 92.7260726,311.079393 94.6494355,312.844924 C97.7347077,315.677498 99.2794426,319.248018 99.8478044,323.532979 C98.1729423,321.867351 96.6584304,320.362914 95.1447581,318.857637 C94.7652906,319.06668 94.3858231,319.275723 94.0063556,319.484766 C94.2514983,322.164545 94.4966411,324.844324 94.7426233,327.524943 C94.4294787,327.621489 94.116334,327.719714 93.8040289,327.8171 C88.0876701,321.920242 84.8344919,314.229309 79.7259528,307.08407 C81.4209636,318.337968 83.4131679,324.648714 84.6162142,325.279201 C86.5891093,328.560083 88.561165,331.840966 90.5340601,335.121849 C90.2964732,335.363633 90.0588862,335.606258 89.8212993,335.848042 C88.0901887,334.250417 86.0148709,332.895416 84.6900928,331.011511 L84.6900928,331.011511 Z M102.772726,314.284718 C103.057327,314.222593 103.341928,314.161307 103.627368,314.100021 C104.71288,317.873708 105.799232,321.648234 106.884744,325.42276 C106.709282,325.472293 106.53382,325.521825 106.358358,325.571357 C105.163707,321.809424 103.968217,318.046651 102.772726,314.284718 L102.772726,314.284718 Z M124.037178,350.250177 C124.795274,351.559004 125.068121,353.149913 125.471095,354.339527 C122.896257,354.562842 120.678219,354.937272 118.476132,354.860035 C117.532501,354.827294 116.452026,354.021345 115.723314,353.281719 C111.005156,348.491362 106.370951,343.618731 101.69477,338.787236 C101.233029,338.309544 100.67726,337.92336 99.8368905,337.220673 C104.341808,347.174979 111.348524,354.698006 118.90849,361.810503 C118.693571,362.090906 118.47949,362.370469 118.26541,362.650872 C117.565242,362.562722 116.805468,362.620649 116.173302,362.364593 C110.579515,360.100381 106.221515,356.502156 103.395658,351.020026 C102.656032,349.58359 101.119692,348.275603 99.6354033,347.561163 C95.8499632,345.739383 91.8873823,344.285317 87.9340362,341.998438 L99.4423114,341.998438 C98.5473726,338.560563 97.6709034,335.19153 96.7239138,331.553847 C99.6832565,332.250657 102.347924,332.877786 105.446629,333.607337 C105.493643,329.455022 105.40885,325.480688 110.012832,324.072796 C118.202446,332.438711 126.013431,341.050609 128.528663,353.131443 C127.128327,350.933554 125.916885,348.582871 124.284839,346.574715 C121.875389,343.612014 119.167065,340.892777 116.585511,338.069438 C119.083112,342.121849 121.651234,346.133122 124.037178,350.250177 L124.037178,350.250177 Z M109.931397,321.683494 C118.448428,330.644636 127.188773,339.449625 130.241304,352.027462 C126.418085,339.92396 117.434276,331.296951 109.931397,321.683494 L109.931397,321.683494 Z M132.214199,357.505394 C129.068481,356.919402 128.966897,354.216955 131.775964,350.211558 C131.922043,352.632763 132.067281,355.053127 132.214199,357.505394 L132.214199,357.505394 Z M68.8641155,233.949266 C69.8883419,231.404651 70.4609013,220.96174 70.4609013,220.96174 L164.150754,219.951785 C164.150754,219.951785 164.568,209.080713 163.991243,203.38954 C160.984048,202.955503 158.504916,202.599542 156.026624,202.237705 C155.735307,202.194889 155.285319,202.213359 155.184575,202.041255 C153.246101,198.744421 150.520987,200.557806 148.003237,200.865074 C146.716238,201.022905 145.39062,201.124489 144.106979,200.999399 C140.647276,200.661908 137.180858,200.298391 133.761452,199.69309 C132.887502,199.538617 131.812904,198.580713 131.512352,197.74622 C131.278123,197.095585 131.889301,195.838809 132.507195,195.260372 C133.270327,194.545933 134.401174,194.178219 135.423722,193.796232 C137.8189,192.899615 140.186374,191.767089 142.672222,191.31878 C145.644158,190.78232 148.726912,190.844445 151.763491,190.679058 C152.749099,190.625328 153.739744,190.670663 155.002397,189.989804 C153.485367,189.39038 152.013671,188.518108 150.440392,188.254496 C148.001558,187.845645 145.470375,187.571119 143.020627,187.76505 C140.829454,187.938833 138.2479,188.248619 136.627607,189.511272 C133.058766,192.293474 128.871191,191.894697 124.929598,192.72835 C123.405012,193.05073 121.778843,192.857638 120.215638,193.040656 C118.0698,193.290835 114.310385,191.509353 113.832693,189.528902 C113.634564,188.705323 114.374189,187.048091 115.116334,186.709761 C118.507195,185.159989 122.061764,183.972894 125.534899,182.597744 C127.937634,181.645717 130.196809,181.62305 132.445909,183.083831 C133.021827,183.458262 133.906691,183.578315 134.610217,183.492683 C136.681337,183.240824 138.566082,182.634683 140.291316,184.850202 C140.923482,185.662028 143.180977,185.207002 144.698008,185.330413 C144.790356,185.008873 144.882704,184.687333 144.975053,184.364954 C142.019908,182.772366 138.983328,181.311584 136.130606,179.551929 C132.965578,177.600022 130.048212,177.22979 126.598584,179.096904 C124.184935,180.404052 119.732909,178.619212 118.214199,176.40873 C116.94483,174.561764 117.678579,170.910649 119.615374,168.573397 C120.139241,167.941231 120.53466,166.927919 120.470016,166.131205 C120.227392,163.126528 121.85524,162.416285 124.367953,162.671503 C125.358598,162.772246 126.329095,163.061884 127.316382,163.215518 C129.253177,163.517749 130.894458,163.603381 130.928879,160.779202 C130.971695,157.338809 133.800071,159.556847 135.243223,158.959102 C134.8201,155.589229 136.150754,153.214199 139.733868,152.070759 C142.719236,151.117893 145.892659,150.750179 148.986326,150.136482 C150.823218,149.771287 152.761692,149.684815 154.486086,149.029142 C158.274045,147.588509 161.94363,145.839768 165.681217,144.26481 C172.891099,141.226552 180.072438,141.241663 187.369631,144.166585 C191.340608,145.759174 192.081912,153.574357 188.875748,156.694889 C187.495561,158.038977 186.248019,159.393978 188.480329,161.097384 C189.473493,160.731349 190.488485,160.363635 191.498439,159.984167 C192.813982,159.489684 193.839888,158.953225 193.183376,157.131445 C192.981049,156.56812 193.617413,155.117413 194.115254,154.983088 C197.095585,154.179658 200.126288,153.393858 203.185534,153.133604 C204.472534,153.023625 205.845165,154.279562 207.224512,154.791675 C209.075676,155.480929 210.575076,156.953465 213.034059,156.030821 C215.614774,155.062843 217.696808,156.857758 218.29959,159.22943 C218.785678,161.145237 219.129885,163.473254 216.424081,164.87191 C213.719955,166.270567 211.320579,168.257734 208.164786,170.411128 C211.559845,170.923241 214.464618,171.387502 217.376947,171.792155 C219.982008,172.154832 222.651713,172.231229 223.294793,175.699327 C223.825376,178.555407 222.784359,179.918804 219.862795,179.807986 C218.615254,179.760133 217.363515,179.799591 216.005155,180.367952 C216.455983,180.524105 216.917724,180.654232 217.355959,180.839768 C219.397695,181.702805 219.982848,184.545453 218.380185,186.077595 C214.58551,189.704364 210.109137,191.919883 204.867952,192.620891 C203.416405,192.814822 202.027823,193.444469 200.587189,193.773565 C199.662867,193.985127 198.493402,194.410768 197.785678,194.05061 C195.331733,192.80055 193.217796,193.55109 190.985486,194.553488 C189.921802,195.030341 188.714558,195.225952 187.551809,195.437513 C186.002037,195.720435 184.059365,195.3905 182.945309,196.215757 C180.248739,198.21132 177.042575,200.298391 177.063563,204.140919 C177.087909,208.700406 179.996041,219.780521 179.996041,219.780521 L278.326815,218.72943 C279.026143,223.035378 279.026143,232.54977 279.026143,232.54977 C279.026143,232.54977 272.326695,250.376347 270.911247,259.748858 C266.993162,268.42456 256.918803,292.716356 256.918803,292.716356 C256.918803,292.716356 243.757494,312.640079 240.128206,320.140439 C233.511032,325.844204 220.259053,343.367711 220.259053,343.367711 C220.259053,343.367711 206.267448,357.360155 196.472654,364.076394 C196.472654,364.076394 186.227031,373.479968 175.415566,375.549409 C170.447228,373.311222 152.537538,364.355957 152.537538,364.355957 C152.537538,364.355957 143.302709,355.400693 132.108418,345.503475 C118.880786,327.546771 107.482489,319.581312 107.482489,319.581312 C107.482489,319.581312 98.5473726,302.323936 88.5787951,289.077834 C85.3961374,277.135522 77.8193805,261.373349 77.8193805,261.373349 C77.8193805,261.373349 72.4698962,238.455023 68.8641155,233.949266 L68.8641155,233.949266 Z M253.574956,314.000957 C254.305347,309.13756 255.007194,304.456342 255.70988,299.775963 C255.520146,304.625087 257.008633,309.684934 253.574956,314.000957 L253.574956,314.000957 Z M262.063442,304.552888 C259.811823,304.79803 258.423241,304.948306 257.141279,305.087668 C256.937273,306.292394 256.754255,307.371189 256.571238,308.449985 C256.315181,308.416404 256.059125,308.382823 255.803068,308.350081 L257.218515,296.155071 C257.505635,296.042574 257.793593,295.930077 258.080713,295.81758 C259.357637,298.618251 260.635402,301.419762 262.063442,304.552888 L262.063442,304.552888 Z M259.739624,293.468575 C260.825136,289.345644 261.903092,285.220194 262.984406,281.096424 C263.176659,281.148474 263.368072,281.200525 263.560324,281.252576 C262.421921,286.72799 261.284358,292.203404 260.151833,297.652792 C257.947227,296.795632 259.325735,295.041854 259.739624,293.468575 L259.739624,293.468575 Z M263.863394,304.633483 C264.133723,304.805586 264.404051,304.97769 264.67438,305.149793 C258.899254,312.909568 253.124128,320.669342 247.218875,328.603739 C248.671262,317.49592 256.151473,310.982007 263.863394,304.633483 L263.863394,304.633483 Z M241.770327,330.328973 C240.752816,328.433314 239.734467,326.537656 238.591027,324.408608 C237.83629,324.9585 237.187333,325.431156 236.537537,325.902971 C236.396496,325.743461 236.255455,325.583111 236.113574,325.4236 C236.90777,324.704962 237.701125,323.987164 238.680857,323.100621 C239.463298,324.246579 240.045093,325.097862 240.581552,325.883662 C242.19345,320.85236 243.78184,315.895776 245.369391,310.940031 C245.709401,311.034898 246.05025,311.128925 246.390259,311.223792 C243.74658,317.259172 241.450466,323.364233 241.770327,330.328973 L241.770327,330.328973 Z M245.698487,313.389779 C246.082991,313.499757 246.467496,313.609736 246.852001,313.719714 C246.412927,315.021825 246.020866,316.343245 245.521346,317.622689 C244.985726,318.997838 244.348523,320.33353 243.755815,321.686853 C243.519907,321.617172 243.283159,321.547491 243.047251,321.47781 C243.930437,318.782079 244.814462,316.085509 245.698487,313.389779 L245.698487,313.389779 Z M230.740583,331.991242 C231.061284,332.175099 231.381984,332.359796 231.703524,332.543653 C230.854759,334.847323 231.430677,337.615253 228.077595,339.031539 C226.701605,339.612494 226.073637,341.99508 225.14008,343.577594 C224.539816,344.595104 224.002517,345.649553 223.436674,346.688052 C223.115134,346.463897 222.793594,346.240582 222.471214,346.016428 C221.776923,348.207601 221.30007,350.53058 221.116213,353.034897 C220.169223,350.822736 219.455623,349.153751 218.660588,347.295871 C216.260372,349.399733 214.253896,351.157709 212.24742,352.916524 C212.113095,352.778001 211.977931,352.640318 211.843606,352.502635 C213.629286,350.60194 215.294073,348.556845 217.283759,346.902132 C217.796712,346.475651 219.331373,347.278241 220.540296,347.54773 C223.000958,341.180736 226.448907,335.152911 231.910048,330.452384 C228.117052,334.875867 224.757254,339.506713 222.807026,344.991362 C225.451545,340.657709 228.096064,336.324056 230.740583,331.991242 L230.740583,331.991242 Z M200.26397,379.335689 C200.220315,373.793113 204.114054,370.795151 207.537657,367.879464 C211.022546,364.910887 215.218516,362.776802 218.945189,359.966895 C217.699326,360.257373 216.453464,360.54869 214.839048,360.925639 C215.430077,357.742981 216.001797,354.665264 216.611296,351.384382 C215.416645,351.844444 214.54941,352.177737 213.703164,352.503475 C214.967496,351.179536 216.251137,349.837128 218.144277,347.858356 C219.345645,352.281 220.384982,356.105058 221.453704,360.037416 C223.877427,359.363273 226.652912,358.626166 229.40741,357.81602 C231.658189,357.153631 232.312183,358.197166 231.723673,360.121369 C230.416525,364.392897 228.944829,368.613213 227.892058,371.791673 C223.328374,372.739503 219.859437,373.459819 215.444349,374.375746 C219.757854,369.791913 223.604579,365.703403 227.982728,361.049889 C216.681816,364.945307 209.148715,373.11981 200.26397,379.335689 L200.26397,379.335689 Z M199.092826,372.388579 C198.768768,372.19045 198.444709,371.992321 198.120651,371.794192 C198.386782,370.775003 198.345645,369.486324 198.966897,368.78028 C203.738785,363.364473 208.637441,358.060323 213.49748,352.722592 C213.359797,354.139719 213.565481,355.749937 212.926599,356.884981 C210.97805,360.347202 208.524105,363.448426 205.035019,365.602659 C203.279562,366.686492 201.797791,367.99448 201.437633,370.343484 C201.31758,371.125926 199.911368,371.711918 199.092826,372.388579 L199.092826,372.388579 Z M143.905492,396.542693 C138.119452,395.036576 132.282201,394.463177 126.314823,395.253175 C125.491244,395.362314 124.195849,394.931635 123.751738,394.303667 C122.448788,392.462578 121.384264,390.435952 120.381865,388.40513 C119.547372,386.714317 120.666466,385.899133 122.127248,385.759771 C126.476012,385.344204 131.001918,384.183134 135.157591,384.947946 C141.486806,386.112374 147.56836,388.633482 153.743103,390.614772 C155.389421,391.142837 156.364954,391.971453 156.133244,394.105537 C155.948547,395.807264 156.663827,397.606377 157.081073,399.928517 C152.365434,398.717914 148.132524,397.643316 143.905492,396.542693 L143.905492,396.542693 Z M157.972654,381.02902 C156.250778,378.303907 154.63972,375.664425 155.245861,371.867231 C155.883904,372.538855 156.304508,372.925878 156.660469,373.365792 C159.220195,376.524103 161.767329,379.692489 164.316981,382.857516 C161.173781,384.968934 159.549291,383.524103 157.972654,381.02902 L157.972654,381.02902 Z M182.671622,383.61981 C185.824057,379.481767 188.685175,375.72655 191.546292,371.971333 C191.289396,371.698486 191.0325,371.425638 190.775604,371.153631 C188.506355,373.114772 186.249699,375.091865 183.962819,377.032019 C181.541615,379.085509 179.090188,381.103739 176.647156,383.141278 C176.937633,383.49388 177.039216,383.74406 177.181097,383.770085 C181.769128,384.607097 181.815302,384.598701 182.39038,389.286636 C183.171143,395.638519 182.919284,401.934153 181.088269,408.112254 C180.922042,408.674739 180.713839,409.693928 180.49808,409.700644 C178.017269,409.784597 175.471814,410.007072 173.076636,409.52854 C172.205204,409.353918 171.144877,407.430555 171.098703,406.267806 C170.861956,400.374307 170.90813,394.468214 170.909809,388.567159 C170.909809,387.377545 171.143198,386.187931 171.201126,385.647274 C169.391939,383.844804 168.063803,382.738303 166.99676,381.420241 C163.186134,376.713837 159.464498,371.936073 155.986326,367.536097 C156.253297,367.670421 157.242263,368.08431 158.142239,368.641757 C163.579034,372.01163 168.94447,375.502395 174.473613,378.711078 C175.295513,379.187931 177.066081,378.725351 178.044134,378.122568 C183.566561,374.719114 188.981529,371.141038 194.470375,367.597382 C196.289636,373.667183 194.596304,378.806785 192.331253,383.61981 L182.671622,383.61981 L182.671622,383.61981 Z M232.986326,386.152671 C231.990643,388.426118 231.12173,390.744899 229.94303,392.894096 C229.600502,393.518706 228.235426,394.134921 227.568839,393.945187 C219.382584,391.61969 211.645477,393.501916 203.958741,396.19093 C201.044733,397.210119 198.102181,398.149553 194.910289,399.212398 C194.359557,392.988123 194.83641,392.460059 199.897935,389.971692 C206.448787,386.752095 213.243942,384.429116 220.529382,383.985005 C224.685054,383.732307 229.000238,383.421681 232.986326,386.152671 L232.986326,386.152671 Z M262.838328,343.163705 C263.046532,343.392057 263.253896,343.62041 263.462099,343.848762 C261.284358,346.473132 259.46006,349.558404 256.823097,351.588387 C254.413646,353.442069 251.040415,353.987764 248.254855,355.425878 C246.440631,356.363633 244.751497,357.699325 243.29995,359.150872 C240.3532,362.096783 237.081552,364.362674 232.637081,365.647154 C234.060924,362.099301 236.417484,359.181095 234.592346,355.436792 C234.358117,354.957421 235.449506,353.736744 236.053968,352.9585 C239.867112,348.049769 243.727271,343.177977 247.541255,338.270086 C248.057566,337.605178 248.398415,336.804267 248.829094,336.052048 C238.462579,340.806306 230.105899,347.720673 224.381145,357.663225 C224.006714,357.42228 223.633124,357.181335 223.258693,356.939551 C224.438233,354.421801 225.349123,351.725231 226.872869,349.436672 C228.412567,347.123768 230.251977,344.759652 232.512831,343.239263 C235.743342,341.06656 236.127846,338.024943 236.527463,334.748258 C236.88846,331.795632 237.328374,328.853079 237.733867,325.90549 C238.056246,325.885341 238.379465,325.865193 238.701845,325.845883 C239.878026,328.733027 241.054208,331.61933 242.230389,334.506473 C241.825735,334.644996 241.420243,334.782679 241.015589,334.920362 C240.81746,334.076634 240.620171,333.233746 240.426239,332.40597 L238.127606,332.40597 C238.296352,333.980088 238.471814,335.61969 238.646436,337.259292 C239.49688,337.161067 240.434635,337.26181 241.182656,336.931875 C244.979849,335.251976 248.72751,333.460419 253.445668,331.265049 C252.003356,337.748738 250.733147,343.460059 249.280761,349.989083 C253.929237,348.022904 258.168024,346.230508 262.40597,344.438112 C254.736865,344.365912 254.736865,344.365912 253.259293,342.839647 C256.708081,341.224391 259.748019,343.454183 262.838328,343.163705 L262.838328,343.163705 Z M256.441111,337.014989 C258.372029,332.760251 260.145956,328.85224 261.919043,324.944228 C261.794793,324.831731 261.671382,324.719234 261.547131,324.606737 C259.810144,326.222832 258.073996,327.839767 256.337849,329.455862 C256.016309,329.208201 255.693929,328.961379 255.37155,328.713717 C260.71096,320.069918 266.04953,311.425279 271.38894,302.78148 C271.095944,302.532139 270.802948,302.282799 270.509952,302.033459 C269.296831,302.537177 268.083711,303.040894 266.87059,303.543773 C266.783279,303.346483 266.696807,303.148354 266.609496,302.950225 C268.265049,302.176179 269.921442,301.401293 271.648355,300.592825 C273.070518,313.809544 269.201125,330.276922 256.441111,337.014989 L256.441111,337.014989 Z M283.721633,312.541854 C283.291794,313.487164 282.971933,314.46018 282.445548,315.303068 C280.075555,319.093545 277.702204,322.884862 275.212159,326.595584 C274.161067,328.161307 272.925279,329.646435 271.546771,330.92336 C271.093425,331.342285 269.925639,330.988843 269.474812,330.988843 C270.021346,330.023384 270.65603,329.290474 270.848283,328.455982 C271.0674,327.503955 270.919643,326.460419 270.884382,325.458021 C270.785318,322.596063 271.592106,320.478769 274.405371,318.954183 C277.618251,317.213837 280.475171,314.817819 283.721633,312.541854 L283.721633,312.541854 Z M276.257373,307.88834 C276.416884,303.811583 279.935354,299.686973 274.561523,296.697407 C278.538376,288.171981 282.53202,279.612135 286.824536,270.410888 C286.824536,275.254975 287.153631,279.641518 286.733867,283.955023 C286.290595,288.517867 285.436793,293.096663 284.201005,297.510911 C283.027342,301.705202 280.510432,305.2094 276.257373,307.88834 L276.257373,307.88834 Z M299.413286,279.641518 C295.510312,290.365673 292.427558,301.076395 282.651233,307.832091 C286.413166,302.657229 286.703643,296.552168 287.764809,290.667903 C287.94279,289.682295 288.292034,288.471693 288.99556,287.879825 C292.266368,285.127006 295.689971,282.554687 299.413286,279.641518 L299.413286,279.641518 Z M295.229069,270.862555 C295.580832,268.003116 295.866272,265.683495 296.250777,262.558765 C293.426599,265.137801 293.711199,269.557925 289.599182,269.95922 C287.962099,268.58491 287.934394,266.840367 288.572437,264.728949 C290.532739,258.235186 292.383902,251.707002 294.162027,245.160348 C294.777402,242.895297 295.053607,240.538736 295.449866,238.411368 C293.630604,239.652193 291.797911,240.903932 289.964377,242.154831 C291.883543,240.090427 293.828733,238.015949 296.134082,235.556966 C299.179897,247.652912 303.019067,259.082272 295.229069,270.862555 L295.229069,270.862555 Z M310.540415,243.74658 C308.110815,254.805707 306.551808,265.375387 298.801269,273.524704 C298.47805,273.432356 298.154831,273.340007 297.831612,273.248498 C298.593065,270.686253 298.825615,267.767208 300.251976,265.654951 C301.97805,263.100262 302.568239,260.752936 302.004915,257.843126 C301.795872,256.760972 301.701005,255.285918 302.26349,254.490883 C304.708201,251.028662 307.414005,247.751137 310.540415,243.74658 L310.540415,243.74658 Z M313.957301,205.865314 C313.467855,217.738784 315.348402,228.963299 306.383902,238.06716 C306.681096,235.226191 307.007673,232.530461 307.224272,229.824656 C307.309904,228.755095 307.157949,227.665385 307.098342,226.58491 C307.04965,225.700886 306.955622,224.81854 306.919522,223.933675 C306.865792,222.60302 306.675219,221.248019 306.859076,219.947587 C307.045452,218.629526 307.44087,217.274524 308.055406,216.099183 C309.179537,213.953344 310.532859,211.927559 311.789635,209.852241 C311.589827,209.756535 311.389179,209.660828 311.188532,209.565961 C309.039335,210.632164 306.889299,211.699207 304.739263,212.766249 C304.552048,212.423721 304.364833,212.082032 304.176778,211.739504 C307.187332,209.931157 310.197886,208.123649 313.957301,205.865314 L313.957301,205.865314 Z M313.963178,172.178339 C313.47793,183.343246 315.260252,193.804628 309.90657,203.551569 C309.627846,199.517628 310.409448,195.3544 307.570158,191.485846 C306.986685,196.323217 306.470374,200.598103 305.954063,204.87215 C305.479729,204.893978 305.004555,204.914966 304.529381,204.936794 C303.900573,202.879106 303.270086,200.822258 302.642118,198.76457 C301.902492,196.341687 301.213238,196.199806 298.739143,198.683975 L298.739143,169.239984 C301.973012,174.308226 304.397575,179.975052 305.855838,187.031301 C307.957181,183.017509 309.683255,179.723193 311.556246,176.147636 L308.937752,176.147636 C310.724272,174.736386 311.944109,173.772606 313.963178,172.178339 L313.963178,172.178339 Z M312.567879,151.226192 C314.58359,158.76517 311.160827,165.118732 308.124248,171.638521 L308.124248,164.99784 C307.15627,167.56848 306.360396,169.681577 305.604819,171.687214 C304.981887,171.626768 304.693089,171.683856 304.610815,171.578075 C302.166944,168.470135 302.381864,164.814822 302.144277,160.519788 C300.952144,161.787478 299.90609,162.900694 298.687093,164.197768 L298.687093,134.777284 C301.588508,141.14008 304.177618,146.816142 306.823816,152.618133 C308.647275,148.464978 310.565601,144.096065 312.483087,139.726312 C312.824775,139.817821 313.166464,139.90933 313.508153,140.001678 C313.153032,142.254136 312.704723,144.49736 312.475531,146.762412 C312.325255,148.238305 312.193449,149.825856 312.567879,151.226192 L312.567879,151.226192 Z" id="Fill-3" sketch:type="MSShapeGroup"></path>
                <path d="M280.561643,179.855 C280.553248,179.3899 280.546532,178.923961 280.539815,178.458022 C280.507913,178.429478 280.476851,178.396736 280.444109,178.369032 C280.485246,178.860157 280.522185,179.357158 280.561643,179.855" id="Fill-4" sketch:type="MSShapeGroup"></path>
                <path d="M280.623768,145.331013 C280.622929,145.30079 280.622929,145.270567 280.622929,145.240344 C280.619571,145.232788 280.616212,145.226072 280.612854,145.218516 C280.617052,145.256295 280.619571,145.293235 280.623768,145.331013" id="Fill-5" sketch:type="MSShapeGroup"></path>
                <path d="M63.3215394,136.253177 C63.309786,136.224633 63.2946744,136.195249 63.2820815,136.165866 C63.2703281,136.170064 63.2594142,136.173422 63.2476608,136.177619 C63.2459817,136.17678 63.3215394,136.253177 63.3215394,136.253177" id="Fill-6" sketch:type="MSShapeGroup"></path>
                <path d="M222.471214,346.016428 C222.580353,345.67306 222.687813,345.328013 222.807026,344.991362 C222.627367,345.286037 222.447707,345.580712 222.268048,345.874547 C222.33605,345.9224 222.404052,345.969414 222.471214,346.016428" id="Fill-7" sketch:type="MSShapeGroup"></path>
                <path d="M90.1772599,349.31578 C90.0504909,349.178097 89.7046046,349.242741 89.418325,349.251136 C90.754017,351.153511 92.075437,353.0668 93.5085144,355.142117 C88.5871904,359.88798 83.8967371,364.411366 79.0098338,369.123648 C78.3709516,368.456221 77.5339403,367.579752 76.6969291,366.704122 C76.5877902,366.761211 88.7517383,353.429476 88.6980083,353.442069 C88.6795387,353.446267 88.3831846,352.549649 88.3831846,352.549649 C76.7153987,364.574235 24.617534,419.836288 24.4739744,419.869869 C24.7988724,421.754614 26.1035018,425.006113 26.5711199,427.719473 C34.4559843,419.610454 41.7842405,412.173059 48.9966415,404.625686 C54.8590784,398.491241 60.5695605,392.210719 66.3732304,386.019186 C72.6713834,379.300428 78.9997594,372.611055 85.3138635,365.908248 C88.5275838,362.496399 91.7387855,359.082031 94.9256408,355.695367 C97.0647629,357.414725 98.5406564,358.600141 100.01655,359.785557 C96.6055401,356.364473 93.4069313,352.825854 90.1772599,349.31578 L90.1772599,349.31578 Z M27.4543054,422.542932 C27.3930197,422.443028 26.9497479,421.718514 26.5064761,420.994839 C26.4451905,421.009111 33.1169342,413.76061 42.1108176,404.008632 C42.6884141,404.968214 43.2651711,405.927797 43.8427677,406.88738 C44.188654,407.160227 44.5353798,407.433913 44.8812661,407.706761 C39.0431755,412.676777 33.2050849,417.647634 27.4543054,422.542932 L27.4543054,422.542932 Z M45.0390977,405.519785 C44.1374426,404.503115 43.4952023,403.7786 42.9209639,403.130483 C47.7197165,397.927917 53.1195726,392.076394 58.488366,386.258452 C59.3589585,387.228948 60.2522182,388.224631 61.3167421,389.412566 C55.9378743,394.735185 50.5749576,400.041853 45.0390977,405.519785 L45.0390977,405.519785 Z M76.5466532,373.449745 C73.011393,377.218394 69.3879821,380.907289 65.6957298,384.522304 C64.9283995,385.273683 63.7429834,385.598581 62.311585,386.3508 C62.313264,386.361714 62.4324773,387.051808 62.649076,388.313621 C61.299112,387.222232 60.2219952,386.352479 59.1792991,385.509591 C65.1609493,379.027581 71.0603256,372.634561 75.9976007,367.278361 C76.5474927,368.44027 77.0957057,369.599661 77.5994236,370.663345 C77.2568955,371.61873 77.1704239,372.785677 76.5466532,373.449745 L76.5466532,373.449745 Z" id="Fill-8" sketch:type="MSShapeGroup"></path>
                <path d="M89.3016303,349.254494 C89.3377301,349.256174 89.3797066,349.252815 89.418325,349.251136 C89.4082506,349.236025 89.3973367,349.220913 89.3864228,349.205802 C89.3713113,349.215037 89.3016303,349.254494 89.3016303,349.254494" id="Fill-9" sketch:type="MSShapeGroup"></path>
                <path d="M210.90669,305.080952 C208.608897,303.444708 206.351401,302.009952 204.292874,300.330053 C201.278962,297.87107 200.92468,294.26277 200.40837,290.713238 C200.17582,289.118131 199.494961,287.589347 198.537897,286.204963 C197.998079,288.689971 197.340727,291.158189 196.980569,293.669223 C196.851282,294.575075 197.131685,295.896495 197.745381,296.494241 C201.627367,300.274644 205.72847,303.830053 209.606259,307.614653 C211.877187,309.831012 213.869391,312.33365 215.919523,314.837968 C210.361836,311.44123 206.404292,305.94231 200.991003,302.318059 C200.706403,302.491002 200.421802,302.664785 200.138041,302.837728 C202.070639,306.289875 204.003236,309.742022 206.070159,313.432595 C202.173901,314.429956 201.266369,311.230508 200.87179,309.69165 C199.469775,304.222952 194.624848,301.773204 191.328015,297.160827 C191.328015,298.146435 191.234827,298.514989 191.341447,298.810504 C193.605659,305.064161 188.561764,309.132523 186.62161,314.094145 C186.274045,314.982367 184.265889,315.221633 183.024225,315.759772 C182.832812,315.486925 182.64056,315.214077 182.449147,314.94123 C182.94447,314.172221 183.447348,313.409088 183.934275,312.635042 C185.366513,310.355718 186.954904,308.152792 188.137801,305.750897 C188.581912,304.847563 188.365314,303.358237 187.946388,302.344085 C186.999399,300.051329 186.118732,297.527702 184.475772,295.796591 C183.341567,294.60194 180.968216,294.117532 179.164067,294.148594 C177.145837,294.183854 175.143558,295.159388 173.072438,295.742861 C173.777643,299.814581 170.346484,299.418323 167.810265,300.194888 C168.5692,298.889419 169.328135,297.583111 170.135762,296.192849 C167.377907,295.605179 166.196688,296.368311 166.834731,299.232787 C167.64068,302.850321 168.2124,306.522425 169.082992,310.123168 C169.985487,313.85236 168.021826,316.479249 164.290956,316.139239 C164.276684,315.868911 164.145717,315.412206 164.26493,315.333291 C167.124369,313.435953 166.553489,310.609256 165.866753,308.104939 C164.916405,304.63768 163.490884,301.293833 162.147636,297.946627 C161.893258,297.313622 161.138521,296.594984 160.495441,296.452264 C157.494961,295.787357 152.895177,299.221034 152.626528,302.271885 C152.485487,303.866992 152.376348,305.504915 152.592107,307.077354 C152.709641,307.927798 153.526504,308.688412 154.05037,309.474212 C154.844566,310.665505 155.65891,311.842525 156.135763,313.226071 C150.880306,311.818179 149.777163,310.197886 150.029022,305.537656 C150.119692,303.856078 149.744422,302.145116 149.874549,300.471094 C149.958502,299.395656 150.433676,298.277402 150.995321,297.333771 C151.495681,296.492562 152.33605,295.845284 153.058886,295.145956 C154.411368,293.837129 156.870351,292.599662 156.929958,291.248019 C157.055887,288.364234 155.941831,285.425879 155.30043,282.333891 C151.595585,282.934994 148.529622,282.486685 146.10422,279.896735 C145.843127,279.617172 145.434276,279.445908 145.063203,279.303188 C140.57004,277.572917 140.376108,276.905491 142.092107,272.400573 C143.42612,268.897215 144.434395,265.269607 145.634084,261.555527 C146.12185,261.775483 146.895897,262.124728 147.69429,262.484886 C147.988965,261.872869 148.260973,261.310384 148.449867,260.918323 C151.225352,262.437033 153.968097,263.640919 156.366633,265.333411 C158.739145,267.007434 160.743102,269.196088 162.948547,271.114414 C164.190212,272.194049 165.415926,273.355958 166.838089,274.136721 C167.49712,274.498558 168.607818,274.039336 170.345645,273.87143 C164.9609,269.028182 160.436674,264.917844 155.862076,260.864594 C153.987406,259.203164 152.004436,257.664306 150.070159,256.070039 C150.429478,255.627606 150.788797,255.185174 151.148116,254.743581 C157.544494,260.463298 163.940872,266.183855 170.762052,272.283039 C171.207003,271.094265 171.619212,270.190091 171.880306,269.243941 C172.169104,268.195368 172.183376,267.056966 172.565362,266.052049 C173.054808,264.76421 173.536698,263.881024 172.639241,262.275004 C171.969296,261.075316 172.829814,258.862315 173.411608,257.24538 C173.540056,256.88858 175.867233,256.702205 176.315542,257.206762 C177.352361,258.374548 178.448787,260.007434 178.464738,261.462339 C178.507554,265.28136 177.991243,269.107937 177.686494,272.929477 C177.351522,277.134682 178.829934,278.851521 182.878147,278.06656 C188.064762,277.060804 192.659509,277.38906 196.431517,281.560684 C196.935235,282.118131 197.778123,282.511031 198.530341,282.677258 C202.073997,283.461379 203.918444,285.909448 205.198727,289.056006 C205.718396,290.333771 206.580593,291.467975 207.169943,292.722233 C207.886062,294.246819 208.619811,295.789036 209.091627,297.398414 C209.76493,299.695368 210.207362,302.060324 210.90669,305.080952 L210.90669,305.080952 Z M153.10422,279.367832 C153.289756,278.970734 153.476132,278.573636 153.662508,278.176539 C152.71216,277.016308 151.706403,274.869631 150.824897,274.919163 C149.374189,275.001437 148.003237,276.505874 146.599543,277.410887 C146.686854,277.787836 146.774165,278.165625 146.861476,278.542574 C148.941831,278.81794 151.023026,279.093305 153.10422,279.367832 L153.10422,279.367832 Z" id="Fill-10" sketch:type="MSShapeGroup"></path>
            </g>
        </g>
    </g>
</svg>