<?xml version="1.0" encoding="UTF-8" standalone="no"?>
<svg width="430px" height="480px" viewBox="0 0 430 480" version="1.1" xmlns="http://www.w3.org/2000/svg" xmlns:xlink="http://www.w3.org/1999/xlink" xmlns:sketch="http://www.bohemiancoding.com/sketch/ns">
    <!-- Generator: Sketch 3.3 (11970) - http://www.bohemiancoding.com/sketch -->
    <title>neuquen</title>
    <desc>Created with Sketch.</desc>
    <defs></defs>
    <g id="Page-1" stroke="none" stroke-width="1" fill="none" fill-rule="evenodd" sketch:type="MSPage">
        <g id="neuquen" sketch:type="MSArtboardGroup" fill="#4DB9DF">
            <g id="Imported-Layers" sketch:type="MSLayerGroup" transform="translate(10.000000, 15.000000)">
                <path d="M224.306,262.784 L224.306,257.955 C224.493,257.896 224.68,257.836 224.867,257.777 C225.342,258.562 225.957,259.295 226.269,260.14 C227.625,263.816 228.9,267.521 230.178,271.225 C230.29,271.55 230.204,271.944 230.21,272.305 C229.82,272.238 229.307,272.307 229.058,272.083 C225.987,269.317 222.897,266.567 219.934,263.688 C218.033,261.841 215.871,260.803 213.246,260.899 C212.108,260.941 211.524,260.603 211.581,259.462 C211.684,257.406 211.813,255.351 212.006,253.303 C212.026,253.089 212.6,252.709 212.817,252.769 C213.752,253.026 214.675,253.365 215.556,253.776 C216.803,254.357 217.044,255.778 216.13,256.795 C214.723,258.359 214.789,258.524 216.771,259.255 C219.281,260.18 222.017,260.672 223.857,262.941 C224.007,262.889 224.156,262.836 224.306,262.784" id="Fill-1" sketch:type="MSShapeGroup"></path>
                <path d="M189.835,263.876 C190.338,263.305 190.793,262.68 191.355,262.174 C192.552,261.094 193.772,260.034 195.057,259.064 C195.351,258.841 196.207,258.826 196.354,259.034 C197.076,260.053 197.646,261.18 198.411,262.516 C195.499,263.178 192.936,264.413 190.117,264.5 L189.835,263.876" id="Fill-2" sketch:type="MSShapeGroup"></path>
                <path d="M198.724,252.01 C198.588,253.195 198.813,254.527 198.25,255.193 C197.725,255.814 196.36,255.716 195.368,255.951 C194.803,256.086 194.251,256.347 193.683,256.376 C193.304,256.396 192.752,256.208 192.571,255.925 C192.425,255.696 192.593,255.049 192.838,254.824 C194.388,253.407 195.99,252.047 197.6,250.697 C197.784,250.542 198.344,250.496 198.351,250.518 C198.514,251.038 198.625,251.575 198.724,252.01" id="Fill-3" sketch:type="MSShapeGroup"></path>
                <path d="M224.632,443.201 C224.632,443.201 258.084,429.942 259.47,429.485 C260.856,429.028 262.874,428.728 264.088,429.335 C265.302,429.942 277.124,435.851 277.124,435.851 C277.124,435.851 243.098,448.362 242.024,448.755 C240.949,449.149 238.016,449.61 237.014,449.13 C236.012,448.65 224.632,443.201 224.632,443.201" id="Fill-4" sketch:type="MSShapeGroup"></path>
                <path d="M272.336,424.186 C272.336,424.186 305.788,410.927 307.174,410.47 C308.561,410.013 310.579,409.713 311.792,410.32 C313.006,410.927 324.829,416.836 324.829,416.836 C324.829,416.836 290.803,429.347 289.728,429.74 C288.653,430.134 285.72,430.595 284.718,430.115 C283.716,429.635 272.336,424.186 272.336,424.186" id="Fill-5" sketch:type="MSShapeGroup"></path>
                <path d="M320.864,404.861 C320.864,404.861 354.315,391.602 355.702,391.145 C357.088,390.688 359.106,390.388 360.32,390.995 C361.533,391.601 373.356,397.511 373.356,397.511 C373.356,397.511 339.33,410.021 338.255,410.415 C337.181,410.809 334.248,411.269 333.246,410.789 C332.244,410.31 320.864,404.861 320.864,404.861" id="Fill-6" sketch:type="MSShapeGroup"></path>
                <path d="M184.686,443.201 C184.686,443.201 151.235,429.942 149.848,429.485 C148.462,429.028 146.444,428.728 145.23,429.335 C144.017,429.942 132.194,435.851 132.194,435.851 C132.194,435.851 166.22,448.362 167.295,448.755 C168.369,449.149 171.302,449.61 172.304,449.13 C173.306,448.65 184.686,443.201 184.686,443.201" id="Fill-7" sketch:type="MSShapeGroup"></path>
                <path d="M136.982,424.186 C136.982,424.186 103.53,410.927 102.144,410.47 C100.758,410.013 98.74,409.713 97.526,410.32 C96.312,410.927 84.49,416.836 84.49,416.836 C84.49,416.836 118.516,429.347 119.59,429.74 C120.665,430.134 123.598,430.595 124.6,430.115 C125.602,429.635 136.982,424.186 136.982,424.186" id="Fill-8" sketch:type="MSShapeGroup"></path>
                <path d="M88.454,404.861 C88.454,404.861 55.003,391.602 53.617,391.145 C52.23,390.688 50.212,390.388 48.999,390.995 C47.785,391.601 35.962,397.511 35.962,397.511 C35.962,397.511 69.988,410.021 71.063,410.415 C72.138,410.809 75.071,411.269 76.073,410.789 C77.075,410.31 88.454,404.861 88.454,404.861" id="Fill-9" sketch:type="MSShapeGroup"></path>
                <path d="M359.368,379.315 C359.368,379.315 362.297,374.28 362.824,373.491 C363.35,372.702 364.819,371.603 365.538,371.272 C366.258,370.942 398.78,357.432 399.652,357.154 C400.524,356.876 402.639,356.214 403.974,356.744 C405.308,357.274 410.779,359.448 410.779,359.448 C410.779,359.448 408,364.894 407.625,365.732 C407.25,366.571 405.94,367.69 404.778,368.15 C403.617,368.611 371.468,381.317 370.31,381.811 C369.151,382.305 366.217,382.555 365.183,382.066 C364.148,381.576 359.368,379.315 359.368,379.315" id="Fill-10" sketch:type="MSShapeGroup"></path>
                <path d="M52.153,375.841 C52.153,375.841 49.223,370.807 48.697,370.018 C48.171,369.229 46.702,368.129 45.983,367.799 C45.264,367.468 12.741,353.958 11.869,353.681 C10.997,353.403 8.882,352.741 7.547,353.271 C6.213,353.801 0.742,355.974 0.742,355.974 C0.742,355.974 3.521,361.42 3.896,362.259 C4.271,363.098 5.581,364.217 6.743,364.677 C7.904,365.137 40.053,377.844 41.211,378.338 C42.37,378.832 45.304,379.082 46.338,378.592 C47.373,378.103 52.153,375.841 52.153,375.841" id="Fill-11" sketch:type="MSShapeGroup"></path>
                <path d="M319.769,281.83 C319.769,281.83 318.645,281.142 316.941,280.624 C315.702,280.206 314.151,279.894 312.515,279.722 C312.453,278.079 312.247,276.512 311.917,275.247 C311.519,273.512 310.914,272.343 310.914,272.343 C310.914,272.343 310.23,273.468 309.713,275.171 C309.297,276.411 308.983,277.962 308.808,279.597 C307.165,279.659 305.596,279.866 304.331,280.195 C302.596,280.593 301.427,281.199 301.427,281.199 C301.427,281.199 302.551,281.883 304.255,282.399 C305.494,282.815 307.044,283.129 308.678,283.304 C308.737,284.947 308.942,286.516 309.274,287.781 C309.673,289.517 310.282,290.685 310.282,290.685 C310.282,290.685 310.971,289.561 311.488,287.858 C311.906,286.619 312.218,285.069 312.391,283.435 C314.033,283.375 315.6,283.17 316.865,282.838 C318.601,282.439 319.769,281.83 319.769,281.83" id="Fill-12" sketch:type="MSShapeGroup"></path>
                <path d="M319.769,257.518 C319.769,257.518 318.645,256.83 316.941,256.312 C315.702,255.894 314.151,255.582 312.515,255.409 C312.453,253.767 312.247,252.2 311.917,250.935 C311.519,249.2 310.914,248.031 310.914,248.031 C310.914,248.031 310.23,249.155 309.713,250.859 C309.297,252.099 308.983,253.65 308.808,255.285 C307.165,255.347 305.596,255.553 304.331,255.883 C302.596,256.281 301.427,256.887 301.427,256.887 C301.427,256.887 302.551,257.571 304.255,258.087 C305.494,258.503 307.044,258.817 308.678,258.992 C308.737,260.635 308.942,262.204 309.274,263.469 C309.673,265.205 310.282,266.373 310.282,266.373 C310.282,266.373 310.971,265.249 311.488,263.546 C311.906,262.307 312.218,260.757 312.391,259.122 C314.033,259.063 315.6,258.858 316.865,258.526 C318.601,258.127 319.769,257.518 319.769,257.518" id="Fill-13" sketch:type="MSShapeGroup"></path>
                <path d="M313.747,233.554 C313.747,233.554 312.622,232.866 310.919,232.349 C309.679,231.93 308.128,231.618 306.492,231.446 C306.43,229.803 306.224,228.236 305.894,226.971 C305.496,225.236 304.891,224.067 304.891,224.067 C304.891,224.067 304.207,225.192 303.69,226.895 C303.274,228.135 302.961,229.686 302.786,231.321 C301.142,231.383 299.574,231.59 298.308,231.919 C296.573,232.318 295.404,232.923 295.404,232.923 C295.404,232.923 296.528,233.607 298.232,234.123 C299.471,234.539 301.021,234.853 302.655,235.028 C302.714,236.671 302.919,238.24 303.251,239.505 C303.651,241.241 304.26,242.41 304.26,242.41 C304.26,242.41 304.948,241.286 305.465,239.582 C305.883,238.343 306.195,236.793 306.368,235.159 C308.01,235.099 309.578,234.894 310.842,234.563 C312.578,234.163 313.747,233.554 313.747,233.554" id="Fill-14" sketch:type="MSShapeGroup"></path>
                <path d="M304.954,211.053 C304.954,211.053 303.829,210.364 302.126,209.847 C300.886,209.429 299.335,209.116 297.7,208.944 C297.637,207.302 297.431,205.734 297.101,204.47 C296.703,202.734 296.098,201.566 296.098,201.566 C296.098,201.566 295.414,202.69 294.897,204.394 C294.481,205.634 294.168,207.184 293.993,208.82 C292.349,208.882 290.781,209.088 289.515,209.418 C287.78,209.816 286.611,210.421 286.611,210.421 C286.611,210.421 287.735,211.105 289.439,211.622 C290.678,212.038 292.228,212.351 293.862,212.526 C293.921,214.17 294.127,215.738 294.458,217.004 C294.858,218.739 295.467,219.908 295.467,219.908 C295.467,219.908 296.155,218.784 296.672,217.08 C297.09,215.841 297.402,214.291 297.575,212.657 C299.217,212.597 300.785,212.393 302.049,212.061 C303.785,211.662 304.954,211.053 304.954,211.053" id="Fill-15" sketch:type="MSShapeGroup"></path>
                <path d="M288.836,193.709 C288.836,193.709 287.712,193.021 286.008,192.504 C284.769,192.085 283.218,191.773 281.582,191.601 C281.52,189.958 281.314,188.391 280.984,187.126 C280.586,185.391 279.981,184.222 279.981,184.222 C279.981,184.222 279.297,185.347 278.78,187.05 C278.364,188.29 278.05,189.841 277.875,191.476 C276.232,191.538 274.663,191.745 273.398,192.074 C271.663,192.473 270.494,193.078 270.494,193.078 C270.494,193.078 271.618,193.762 273.322,194.278 C274.561,194.694 276.111,195.008 277.745,195.183 C277.804,196.826 278.009,198.395 278.341,199.66 C278.74,201.396 279.349,202.565 279.349,202.565 C279.349,202.565 280.038,201.441 280.555,199.737 C280.973,198.498 281.285,196.948 281.458,195.314 C283.1,195.254 284.667,195.049 285.932,194.717 C287.667,194.318 288.836,193.709 288.836,193.709" id="Fill-16" sketch:type="MSShapeGroup"></path>
                <path d="M270.329,179.647 C270.329,179.647 269.205,178.958 267.501,178.441 C266.262,178.023 264.711,177.71 263.075,177.538 C263.013,175.896 262.807,174.328 262.477,173.064 C262.079,171.328 261.474,170.16 261.474,170.16 C261.474,170.16 260.79,171.284 260.273,172.988 C259.857,174.228 259.543,175.778 259.368,177.414 C257.725,177.475 256.156,177.682 254.891,178.012 C253.156,178.41 251.987,179.015 251.987,179.015 C251.987,179.015 253.111,179.699 254.815,180.216 C256.054,180.632 257.604,180.945 259.238,181.12 C259.297,182.764 259.502,184.332 259.834,185.598 C260.233,187.333 260.843,188.502 260.843,188.502 C260.843,188.502 261.531,187.378 262.048,185.674 C262.466,184.435 262.778,182.885 262.951,181.251 C264.593,181.191 266.16,180.987 267.425,180.655 C269.161,180.256 270.329,179.647 270.329,179.647" id="Fill-17" sketch:type="MSShapeGroup"></path>
                <path d="M249.893,170.563 C249.893,170.563 248.769,169.875 247.065,169.357 C245.826,168.939 244.275,168.626 242.639,168.454 C242.577,166.812 242.371,165.245 242.041,163.98 C241.643,162.245 241.038,161.076 241.038,161.076 C241.038,161.076 240.354,162.2 239.837,163.904 C239.421,165.144 239.107,166.694 238.932,168.33 C237.289,168.392 235.72,168.598 234.455,168.928 C232.72,169.326 231.551,169.931 231.551,169.931 C231.551,169.931 232.675,170.616 234.379,171.132 C235.618,171.548 237.168,171.862 238.802,172.036 C238.861,173.68 239.066,175.249 239.398,176.514 C239.797,178.25 240.407,179.418 240.407,179.418 C240.407,179.418 241.095,178.294 241.612,176.59 C242.03,175.351 242.342,173.802 242.515,172.167 C244.157,172.108 245.724,171.903 246.989,171.571 C248.725,171.172 249.893,170.563 249.893,170.563" id="Fill-18" sketch:type="MSShapeGroup"></path>
                <path d="M226.508,163.806 C226.508,163.806 225.361,163.157 223.64,162.698 C222.387,162.323 220.826,162.065 219.186,161.949 C219.067,160.309 218.807,158.75 218.433,157.498 C217.976,155.777 217.331,154.63 217.331,154.63 C217.331,154.63 216.686,155.777 216.228,157.498 C215.855,158.751 215.595,160.312 215.477,161.952 C213.836,162.071 212.276,162.331 211.022,162.704 C209.302,163.162 208.155,163.807 208.155,163.807 C208.155,163.807 209.302,164.452 211.023,164.91 C212.275,165.283 213.835,165.543 215.474,165.661 C215.59,167.301 215.849,168.862 216.224,170.116 C216.683,171.836 217.332,172.983 217.332,172.983 C217.332,172.983 217.981,171.836 218.439,170.115 C218.814,168.863 219.073,167.303 219.189,165.664 C220.828,165.548 222.388,165.289 223.64,164.914 C225.361,164.455 226.508,163.806 226.508,163.806" id="Fill-19" sketch:type="MSShapeGroup"></path>
                <path d="M201.184,163.806 C201.184,163.806 200.037,163.157 198.317,162.698 C197.063,162.323 195.502,162.065 193.862,161.949 C193.743,160.309 193.483,158.75 193.11,157.498 C192.652,155.777 192.007,154.63 192.007,154.63 C192.007,154.63 191.362,155.777 190.905,157.498 C190.531,158.751 190.271,160.312 190.153,161.952 C188.513,162.071 186.952,162.331 185.699,162.704 C183.978,163.162 182.831,163.807 182.831,163.807 C182.831,163.807 183.978,164.452 185.699,164.91 C186.952,165.283 188.511,165.543 190.15,165.661 C190.266,167.301 190.525,168.862 190.901,170.116 C191.359,171.836 192.008,172.983 192.008,172.983 C192.008,172.983 192.657,171.836 193.116,170.115 C193.491,168.863 193.749,167.303 193.865,165.664 C195.505,165.548 197.064,165.289 198.317,164.914 C200.037,164.455 201.184,163.806 201.184,163.806" id="Fill-20" sketch:type="MSShapeGroup"></path>
                <path d="M179.093,168.716 C179.093,168.716 177.945,168.067 176.225,167.609 C174.971,167.233 173.411,166.975 171.77,166.859 C171.651,165.22 171.391,163.66 171.018,162.408 C170.561,160.687 169.915,159.54 169.915,159.54 C169.915,159.54 169.27,160.687 168.813,162.408 C168.44,163.661 168.18,165.222 168.061,166.862 C166.421,166.981 164.86,167.241 163.607,167.615 C161.886,168.072 160.739,168.717 160.739,168.717 C160.739,168.717 161.887,169.362 163.607,169.82 C164.86,170.193 166.419,170.453 168.058,170.571 C168.174,172.212 168.434,173.772 168.809,175.026 C169.268,176.746 169.917,177.893 169.917,177.893 C169.917,177.893 170.566,176.746 171.024,175.025 C171.399,173.773 171.658,172.213 171.774,170.574 C173.413,170.458 174.972,170.199 176.225,169.824 C177.945,169.365 179.093,168.716 179.093,168.716" id="Fill-21" sketch:type="MSShapeGroup"></path>
                <path d="M158.114,177.893 C158.114,177.893 156.967,177.243 155.246,176.785 C153.993,176.41 152.432,176.151 150.792,176.035 C150.673,174.396 150.413,172.837 150.04,171.584 C149.582,169.864 148.937,168.717 148.937,168.717 C148.937,168.717 148.292,169.864 147.834,171.584 C147.461,172.838 147.201,174.398 147.083,176.039 C145.442,176.157 143.882,176.418 142.629,176.791 C140.908,177.249 139.761,177.894 139.761,177.894 C139.761,177.894 140.908,178.539 142.629,178.996 C143.881,179.369 145.441,179.629 147.08,179.748 C147.196,181.388 147.455,182.949 147.83,184.202 C148.289,185.923 148.938,187.07 148.938,187.07 C148.938,187.07 149.587,185.923 150.046,184.202 C150.42,182.949 150.679,181.39 150.795,179.75 C152.434,179.634 153.994,179.375 155.246,179 C156.967,178.542 158.114,177.893 158.114,177.893" id="Fill-22" sketch:type="MSShapeGroup"></path>
                <path d="M140.109,192.129 C140.109,192.129 138.962,191.48 137.242,191.022 C135.988,190.647 134.428,190.388 132.787,190.272 C132.668,188.633 132.408,187.074 132.035,185.821 C131.577,184.101 130.932,182.953 130.932,182.953 C130.932,182.953 130.287,184.101 129.83,185.821 C129.457,187.075 129.196,188.635 129.078,190.276 C127.438,190.394 125.877,190.655 124.624,191.028 C122.903,191.486 121.756,192.131 121.756,192.131 C121.756,192.131 122.903,192.776 124.624,193.233 C125.877,193.606 127.436,193.866 129.075,193.985 C129.191,195.625 129.45,197.186 129.826,198.439 C130.284,200.16 130.934,201.307 130.934,201.307 C130.934,201.307 131.583,200.16 132.041,198.439 C132.416,197.186 132.675,195.627 132.791,193.987 C134.43,193.871 135.989,193.612 137.242,193.237 C138.962,192.779 140.109,192.129 140.109,192.129" id="Fill-23" sketch:type="MSShapeGroup"></path>
                <path d="M123.738,209.891 C123.738,209.891 122.572,209.277 120.839,208.87 C119.575,208.533 118.007,208.321 116.364,208.254 C116.196,206.619 115.889,205.068 115.479,203.827 C114.97,202.121 114.291,200.994 114.291,200.994 C114.291,200.994 113.68,202.16 113.275,203.894 C112.939,205.158 112.726,206.725 112.656,208.368 C111.021,208.536 109.468,208.843 108.227,209.254 C106.521,209.763 105.394,210.442 105.394,210.442 C105.394,210.442 106.559,211.052 108.293,211.458 C109.556,211.793 111.123,212.006 112.765,212.076 C112.93,213.712 113.235,215.264 113.648,216.506 C114.158,218.212 114.841,219.339 114.841,219.339 C114.841,219.339 115.456,218.173 115.862,216.439 C116.2,215.176 116.412,213.609 116.478,211.967 C118.113,211.802 119.664,211.497 120.905,211.084 C122.611,210.574 123.738,209.891 123.738,209.891" id="Fill-24" sketch:type="MSShapeGroup"></path>
                <path d="M114.957,231.401 C114.957,231.401 113.791,230.786 112.057,230.38 C110.793,230.042 109.226,229.83 107.582,229.763 C107.415,228.129 107.108,226.578 106.697,225.337 C106.189,223.631 105.509,222.504 105.509,222.504 C105.509,222.504 104.899,223.67 104.493,225.403 C104.158,226.667 103.944,228.235 103.875,229.878 C102.239,230.046 100.687,230.353 99.446,230.763 C97.739,231.272 96.612,231.952 96.612,231.952 C96.612,231.952 97.778,232.562 99.512,232.968 C100.775,233.303 102.341,233.516 103.983,233.585 C104.148,235.221 104.454,236.774 104.867,238.015 C105.377,239.721 106.06,240.849 106.06,240.849 C106.06,240.849 106.674,239.682 107.081,237.949 C107.418,236.686 107.63,235.119 107.697,233.477 C109.332,233.312 110.883,233.006 112.124,232.594 C113.83,232.084 114.957,231.401 114.957,231.401" id="Fill-25" sketch:type="MSShapeGroup"></path>
                <path d="M108.895,254.71 C108.895,254.71 107.729,254.096 105.995,253.689 C104.731,253.352 103.163,253.14 101.52,253.073 C101.352,251.438 101.046,249.887 100.635,248.647 C100.126,246.941 99.447,245.813 99.447,245.813 C99.447,245.813 98.837,246.979 98.431,248.713 C98.095,249.977 97.882,251.544 97.813,253.187 C96.177,253.355 94.625,253.662 93.383,254.073 C91.677,254.582 90.55,255.261 90.55,255.261 C90.55,255.261 91.716,255.871 93.449,256.277 C94.713,256.612 96.279,256.826 97.921,256.895 C98.086,258.531 98.392,260.083 98.804,261.325 C99.314,263.031 99.998,264.158 99.998,264.158 C99.998,264.158 100.612,262.992 101.019,261.258 C101.356,259.995 101.568,258.429 101.635,256.786 C103.27,256.621 104.821,256.316 106.062,255.904 C107.768,255.394 108.895,254.71 108.895,254.71" id="Fill-26" sketch:type="MSShapeGroup"></path>
                <path d="M108.593,279.273 C108.593,279.273 107.427,278.659 105.694,278.252 C104.43,277.914 102.862,277.702 101.219,277.636 C101.051,276.001 100.744,274.45 100.334,273.209 C99.825,271.503 99.146,270.376 99.146,270.376 C99.146,270.376 98.535,271.542 98.129,273.275 C97.794,274.539 97.581,276.107 97.511,277.75 C95.875,277.918 94.323,278.225 93.082,278.635 C91.376,279.144 90.249,279.824 90.249,279.824 C90.249,279.824 91.414,280.434 93.148,280.84 C94.411,281.175 95.978,281.388 97.62,281.458 C97.785,283.094 98.09,284.646 98.503,285.887 C99.013,287.594 99.696,288.721 99.696,288.721 C99.696,288.721 100.311,287.555 100.717,285.821 C101.055,284.558 101.266,282.991 101.333,281.349 C102.968,281.184 104.519,280.879 105.76,280.466 C107.466,279.956 108.593,279.273 108.593,279.273" id="Fill-27" sketch:type="MSShapeGroup"></path>
                <path d="M190.874,358.302 C190.705,358.489 190.489,358.673 190.192,358.855 C191.396,358.118 191.238,358.116 190.874,358.302" id="Fill-28" sketch:type="MSShapeGroup"></path>
                <path d="M311.723,390.445 L308.687,391.3 L314.14,375.325 C314.665,373.884 318.428,371.017 319.491,370.537 L344.266,359.392 L398.889,170.938 L295.706,156.029 L295.705,156.028 C303.995,157.226 312.344,150.4 322.572,149.448 C332.8,148.497 339.996,152.358 340.038,152.282 C338.345,150.712 335.634,146.447 328.438,144.913 C321.242,143.379 319.364,143.728 314.685,143.482 C310.054,143.239 302.418,138.249 297.761,138.252 C297.774,137.614 297.812,136.983 297.812,136.342 C297.812,132.82 297.596,129.351 297.211,125.932 C298.172,125.041 302.296,124.882 306.788,122.493 C311.279,120.103 314.414,118.777 317.039,118.58 C316.994,118.453 302.876,117.151 295.672,116.612 C294.719,112.243 293.461,107.989 291.911,103.876 C291.969,103.562 295.204,98.703 299.602,97.031 C304.001,95.36 308.003,90.115 307.91,89.976 C306.658,91.209 304.126,90.183 300.306,91.85 C296.711,93.419 288.983,94.56 287.399,93.805 C285.378,89.93 283.09,86.219 280.558,82.692 C280.462,82.514 280.367,82.337 280.271,82.16 C283.227,80.055 284.034,77.646 285.188,76.026 C286.342,74.407 287.547,70.878 288.629,68.255 C290.701,63.231 293.805,57.875 297.697,54.023 C301.875,49.431 307.312,47.431 307.312,47.431 C307.312,47.431 301.875,46.94 296.86,49.313 C291.845,51.687 286.925,56.505 284.002,61.452 C281.371,65.905 273.69,69.067 270.315,70.704 C267.162,67.6 263.789,64.722 260.217,62.094 C260.183,61.729 260.262,61.315 260.509,60.815 C261.914,57.979 262.727,54.909 264.015,52.034 C264.656,50.605 267.228,42.286 267.067,41.952 C261.934,45.79 257.549,50.219 252.931,54.658 C252.13,55.427 251.481,55.869 250.873,56.062 C246.671,53.692 242.274,51.629 237.696,49.932 C237.693,49.903 237.675,49.88 237.677,49.85 C237.754,48.605 237.573,47.422 238.147,45.968 C238.72,44.514 238.906,34.271 239.111,28.4 C239.114,28.309 238.993,28.213 238.954,28.157 C237.595,30.631 236.609,36.008 234.165,38.203 C231.722,40.398 230.791,43.138 229.738,44.968 C229.063,46.141 228.191,46.611 227.209,46.762 C223.071,45.771 218.831,45.049 214.498,44.637 C214.389,44.434 214.296,44.199 214.235,43.898 C213.498,40.274 212.576,35.766 210.33,32.77 C209.351,31.465 209.127,30.02 208.181,28.701 C207.195,27.326 205.498,25.591 205.139,23.895 C204.294,19.906 203.636,15.664 203.642,11.581 C203.648,7.923 204.714,4.466 204.714,0.842 C204.008,1.684 203.433,2.671 202.616,3.414 C201.95,4.02 201.275,4.477 200.775,5.252 C199.844,6.697 199.576,8.426 199.039,10.03 C197.679,14.093 198.525,19.369 199.031,23.525 C199.534,27.657 200.817,31.883 199.954,35.954 C199.64,37.435 198.581,38.604 198.279,40.114 C197.984,41.587 197.887,43.086 197.694,44.573 C193.563,44.928 189.512,45.555 185.555,46.437 C184.958,46.402 184.45,46.238 184.167,45.805 C180.284,39.879 172.398,27.926 172.444,28.064 C173.592,31.507 173.869,35.988 174.075,37.616 C174.55,41.374 174.046,44.177 174.441,47.945 C174.507,48.575 173.923,49.632 173.356,49.908 C172.638,50.258 171.904,50.576 171.177,50.91 C168.944,51.812 166.755,52.797 164.613,53.866 C164.276,54.017 163.936,54.162 163.6,54.315 C162.653,54.747 161.755,54.853 161.029,54.072 C158.486,51.335 156.713,48.065 153.429,45.848 C150.146,43.632 147.309,41.795 145.065,37.913 C147.063,44.737 150.735,51.673 151.489,53.772 C152.242,55.871 153.034,59.892 152.694,60.563 C152.552,60.843 152.37,61.09 152.194,61.342 C149.919,62.968 147.722,64.693 145.607,66.514 C145.168,66.839 144.745,67.176 144.364,67.545 C142.872,68.992 141.699,68.602 140.231,67.898 C138.422,67.032 136.638,66.094 134.733,65.451 C133.03,64.875 131.357,64.849 129.611,64.555 C126.228,63.985 122.68,62.983 119.372,62.06 C112.58,60.165 107.389,54.502 102.49,49.731 C102.744,51.408 104.64,56.065 106.336,58.753 C108.031,61.44 117.489,66.31 123.009,71.854 C125.877,74.585 128.411,77.302 130.729,80.465 C131.034,80.881 131.226,81.643 131.155,82.188 C128.702,85.557 126.463,89.092 124.478,92.785 C123.976,93.374 123.4,93.752 122.732,93.612 C120.216,93.085 119.659,92.353 115.409,92.81 C111.159,93.266 108.728,92.996 105.508,91.674 C105.714,92.125 112.424,97.338 115.238,98.542 C118.053,99.746 119.549,103.175 119.065,104.602 C118.671,105.762 118.259,106.916 117.843,108.067 C117.456,109.136 116.728,110.387 116.552,111.502 C116.381,112.589 116.297,113.691 116.057,114.766 C115.737,116.196 110.335,115.662 106.812,116.759 C103.289,117.855 100.69,119.199 97.516,118.041 C98.048,119.368 99.243,120.967 106.058,122.182 C110.808,123.029 113.218,124.244 114.227,125.276 C113.792,128.907 113.542,132.594 113.542,136.342 C113.542,137.407 113.587,138.461 113.623,139.518 C113.574,139.579 111.189,140.253 108.642,141.632 C106.096,143.01 93.456,150.064 87.479,151.23 C81.501,152.396 75.384,151.439 71.813,150.961 C71.738,151.1 76.738,156.333 84.6,155.868 C92.463,155.404 111.441,151.39 115.428,154.979 L12.466,169.107 L65.068,359.786 L88.968,370.537 C90.032,371.017 93.794,373.884 94.319,375.325 L99.772,391.3 L96.736,390.445 C95.789,390.047 79.96,383.398 70.05,379.202 L73.276,389.914 L203.273,444.728 L336.101,389.935 L340.003,378.527 C330.306,382.638 312.723,390.025 311.723,390.445 L311.723,390.445 Z M318.673,317.929 C318.277,319.396 317.569,320.779 316.95,322.279 C316.396,321.862 314.001,320.522 314.508,319.474 C315.102,318.247 315.846,317.082 316.654,315.982 C317.448,314.902 318.867,317.211 318.673,317.929 L318.673,317.929 Z M83.742,307.335 C79.521,309.452 75.325,311.638 71.195,313.927 C67.477,315.987 63.956,318.382 60.008,319.944 L19.8,173.943 L204.147,148.646 L391.498,175.717 L348.641,325.196 L348.347,324.869 C343.416,322.478 338.608,320.063 333.914,317.224 C329.698,314.674 325.383,312.424 321.167,309.761 C311.988,303.962 302.757,298.242 293.483,292.594 C288.85,289.771 284.215,287.089 279.451,284.509 C277.109,283.24 274.746,282.009 272.434,280.685 C270.223,279.418 268.143,277.923 265.838,276.826 C261.187,274.612 256.612,272.364 252.049,269.962 C250.019,268.893 248.307,267.299 246.081,266.656 C244.004,266.057 241.966,265.436 239.921,264.73 C240.301,266.482 241.257,267.316 242.515,267.973 C246.707,270.164 250.648,272.724 254.038,276.142 C252.029,276.142 250.006,276.208 247.989,276.122 C246.103,276.043 246.11,275.972 246.006,277.832 C245.99,278.111 245.928,278.387 245.858,278.867 C242.455,276.396 239.19,274.026 235.899,271.637 C233.525,273.833 238.547,277.209 239.915,278.29 C240.648,278.869 240.88,279.622 240.351,280.436 C239.752,281.359 240.095,282.273 240.523,283.177 C241.723,285.712 242.757,288.325 243.642,291.038 C238.088,288.482 233.432,285.005 230.449,279.306 C229.331,280.964 230.092,281.912 230.546,282.889 C231.232,284.364 231.929,285.835 232.621,287.307 C232.461,287.407 232.3,287.507 232.14,287.607 C230.825,285.897 229.509,284.186 227.97,282.184 C227.021,285.751 229.222,288.111 229.64,290.916 C227.1,286.892 225.916,282.113 222.802,278.235 C221.846,279.341 222.218,280.318 222.502,281.279 C223.542,284.805 223.332,288.763 223.524,292.444 C221.043,288.123 219.337,283.463 217.38,278.896 C215.455,280.905 216.185,283.442 216.487,285.905 C216.84,288.781 217.097,291.671 217.173,294.569 C215.055,289.228 214.928,283.324 212.526,278.098 C212.392,278.111 212.257,278.124 212.122,278.137 C211.736,280.275 211.441,282.374 210.551,284.372 C209.64,286.417 208.95,288.599 209.371,290.857 C209.194,290.865 209.016,290.872 208.838,290.88 C208.512,288.348 208.449,286.178 208.713,283.621 C208.976,281.069 209.494,278.401 209.327,275.832 C209.159,273.231 208.946,270.645 208.861,268.037 C208.822,266.833 208.915,265.851 209.23,264.693 C209.5,263.7 209.009,262.712 208.885,261.719 C208.564,259.166 209.152,256.74 209.261,254.209 C209.322,252.795 209.07,251.392 209.049,249.98 C209.033,248.966 209.384,247.905 209.422,246.873 C209.469,245.583 209.095,244.389 208.999,243.117 C208.915,242.013 209.426,241.355 209.667,240.348 C209.928,239.257 209.35,238.191 209.291,237.107 C209.235,236.066 209.447,235.037 209.792,234.059 C210.64,234.647 211.394,235.058 212.011,235.619 C214.219,237.628 216.936,238.159 219.47,236.745 C220.719,236.048 220.001,234.668 219.865,233.643 C219.752,232.795 219.142,232.2 218.076,231.971 C216.558,231.643 214.967,231.197 213.438,231.733 C212.015,232.233 211.011,232.011 209.517,231.78 C209.733,230.731 210.613,228.496 209.907,227.492 C208.753,225.851 209.736,224.553 210.359,222.984 C210.976,221.43 209.464,220.204 209.155,218.738 C208.864,217.353 209.125,215.923 209.565,214.599 C210.76,215.341 211.761,216.014 212.817,216.589 C213.189,216.79 213.693,216.747 214.137,216.816 C214.039,216.4 214.061,215.89 213.821,215.585 C212.709,214.175 211.552,212.796 210.357,211.455 C209.246,210.208 210.351,209.093 210.269,207.913 C210.427,207.829 210.586,207.744 210.744,207.659 C212.438,209.57 214.425,211.374 215.563,213.688 C216.241,215.067 218.032,216.963 219.814,216.047 C221.857,214.998 220.843,212.138 220.113,210.558 C219.117,208.401 217.358,206.748 215.226,205.732 C214.64,205.453 214.101,205.077 213.54,204.746 C213.577,204.595 213.614,204.444 213.651,204.293 C214.071,204.257 214.548,204.073 214.9,204.21 C218.158,205.485 221.035,206.892 223.974,208.775 C228.129,211.437 232.558,212.912 237.481,211.417 C238.737,211.035 239.81,210.051 240.927,209.369 C240.331,207.545 238.457,206.331 236.088,206.35 C233.589,206.371 231.089,206.549 228.596,206.74 C225.841,206.952 221.442,205.227 219.214,202.79 C221.759,202.937 224.322,203.7 226.865,203.258 C229.457,202.808 232.219,202.371 234.744,201.632 C236.069,201.244 237.303,200.407 238.445,199.586 C239.259,199.001 238.909,196.973 237.987,196.335 C234.716,194.069 231.146,193.631 227.353,194.666 C226.016,195.031 225.696,194.58 225.668,193.295 C225.631,191.636 225.47,189.833 224.112,188.628 C223.122,187.751 221.912,187.178 220.891,186.342 C219.826,185.47 219.047,184.385 217.87,183.621 C216.732,182.882 215.487,182.335 214.257,181.773 C213.076,181.233 212.144,180.411 211.038,179.833 C209.804,179.19 208.466,180.149 207.567,178.918 C206.834,177.915 206.346,177.341 205.106,178.073 C203.511,179.017 201.718,179.618 200.24,180.759 C199.564,181.281 199.098,182.136 198.232,182.335 C197.206,182.572 196.649,182.964 195.774,183.547 C192.202,185.93 188.041,187.031 184.872,190.019 C184.268,190.587 184.192,191.304 184.935,191.764 C188.192,193.781 191.501,196.162 195.1,197.487 C195.063,197.622 195.027,197.758 194.99,197.893 L191.264,197.893 C194.008,199.353 196.777,198.059 199.547,198.076 C199.24,199.766 197.198,200.832 195.72,200.158 C195.336,199.983 194.843,199.576 194.415,199.894 C194.112,200.118 193.963,200.61 193.463,200.454 C190.095,199.402 186.753,198.271 183.381,197.231 C181.704,196.713 179.852,196.06 178.081,196.018 C176.527,195.981 175.033,196.571 173.545,196.932 C172.607,197.16 172.497,198.707 173.375,199.359 C174.814,200.428 176.57,201.086 177.839,202.38 C177.221,203.514 176.707,203.747 175.828,203.351 C174.947,202.953 174.001,203.5 173.127,203.625 C172.235,203.753 171.328,203.693 170.457,203.467 C169.064,203.106 167.398,202.505 166.443,204.044 C165.729,205.197 165.824,206.511 166.655,207.65 C167.566,208.898 170.232,208.529 171.673,208.566 C173.347,208.608 174.768,207.829 176.446,207.86 C178.322,207.895 179.919,206.898 181.658,206.334 C183.351,205.785 185.179,205.918 186.935,205.861 C187.696,205.837 188.647,205.003 189.227,206.598 C186.718,207.637 184.301,209.291 181.712,210.035 C178.845,210.858 175.895,211.157 173.036,212.073 C171.934,212.426 171.999,213.733 172.996,214.154 C173.903,214.538 175.075,214.126 175.977,213.942 C178.131,213.5 180.258,212.98 182.384,212.423 C181.911,213.534 179.795,212.761 180.559,214.765 C182.77,213.75 184.959,212.746 187.496,211.582 C187.172,212.058 187.096,212.297 186.937,212.383 C183.737,214.104 180.782,215.517 177.267,216.524 C176.29,216.804 169.784,217.868 170.646,219.578 C171.408,221.09 173.548,219.65 174.624,219.321 C176.213,218.836 177.803,218.354 179.392,217.867 C182.738,216.84 186.03,215.737 189.518,215.335 C190.175,215.26 190.118,219.906 190.181,220.394 C190.253,220.954 190.762,221.457 191.165,222.143 C194.307,219.886 196.38,217.202 196.886,213.479 C197.032,212.408 197.03,211.315 197.222,210.255 C197.426,209.13 199.451,207.657 199.491,209.592 C199.573,213.455 199.561,217.32 199.662,221.183 C199.71,223.003 199.692,224.845 199.844,226.659 C199.91,227.448 199.492,228.31 199.458,229.12 C199.43,229.798 199.474,230.477 199.538,231.152 C199.692,232.767 200.17,234.536 199.34,235.967 C198.602,237.238 198.785,238.686 199.022,240.067 C199.579,243.317 199.439,246.693 199.434,249.979 C199.424,257.169 199.514,264.389 199.119,271.565 C198.924,275.126 199.244,278.713 199.247,282.277 C199.248,284.314 199.234,286.351 199.216,288.388 C199.203,289.879 199.397,291.511 198.972,292.943 C198.821,292.94 198.67,292.936 198.519,292.932 L198.519,286.731 C198.292,286.7 198.065,286.67 197.838,286.639 C196.648,290.794 195.458,294.949 194.269,299.104 C194.141,299.076 194.014,299.048 193.886,299.02 C192.344,291.855 194.638,285.032 195.987,277.825 C193.765,278.855 192.51,282.319 191.315,284.406 C189.976,286.747 188.791,289.227 186.992,291.239 C186.831,291.163 186.67,291.087 186.509,291.011 C189.044,284.292 191.396,277.717 192.978,270.695 C189.642,272.651 186.866,275.082 185.066,278.55 C184.86,278.437 184.655,278.324 184.449,278.211 C185.003,275.918 185.558,273.624 186.112,271.331 C185.945,271.233 185.779,271.135 185.612,271.037 C180.343,274.946 175.074,278.855 169.587,282.927 C171.403,278.311 175.449,275.144 178.745,271.603 C179.01,271.318 179.009,270.786 179.131,270.368 C177.297,270.665 175.99,272.09 174.535,273.224 C172.849,274.538 171.12,275.8 169.371,277.028 C166.243,279.225 162.884,280.92 159.51,282.692 C157.784,283.599 156.077,284.552 154.475,285.667 C153.072,286.642 151.86,287.751 150.32,288.518 C146.811,290.266 143.67,292.952 140.477,295.211 C140.694,293.745 142.49,292.571 143.508,291.68 C144.913,290.45 146.347,289.279 147.876,288.206 C150.89,286.092 154.096,284.273 157.166,282.243 C163.52,278.043 169.376,273.029 175.373,268.343 C174.758,267.353 173.962,267.173 173.077,267.593 C169.666,269.213 166.264,270.849 162.861,272.487 C159.641,274.036 156.438,275.783 153.032,276.896 C154.022,275.907 155.148,274.971 156.012,273.869 C157.84,271.537 152.753,273.005 152.174,273.158 C149.997,273.736 147.821,274.321 145.671,274.996 C141.31,276.364 137.02,277.997 132.785,279.712 C124.058,283.248 116.024,288.489 107.92,293.233 C99.874,297.943 92.072,303.155 83.742,307.335 L83.742,307.335 Z M300.964,320.523 C299.849,321.989 298.929,323.199 297.778,324.711 C297.858,322.475 299.055,320.921 300.964,320.523 L300.964,320.523 Z M248.169,301.504 C247.03,301.143 245.709,298.758 246.079,297.539 C248.129,299.601 248.37,300.069 248.169,301.504 L248.169,301.504 Z M219.176,346.184 C218.697,346.584 218.224,346.888 217.865,347.293 C216.64,348.68 215.056,349.119 213.33,349.235 C213.141,349.007 212.951,348.779 212.762,348.551 C213.736,347.935 215.81,347.195 216.425,346.198 C217.523,344.417 218.32,345.554 219.176,346.184 L219.176,346.184 Z M208.617,299.81 C208.686,297.185 207.537,294.56 208.824,291.94 C208.945,294.566 209.067,297.192 209.188,299.818 C208.997,299.816 208.807,299.813 208.617,299.81 L208.617,299.81 Z M208.84,300.924 L208.84,304.287 C208.726,304.292 208.613,304.298 208.499,304.304 C208.435,303.182 208.37,302.06 208.306,300.937 C208.484,300.933 208.662,300.928 208.84,300.924 L208.84,300.924 Z M208.55,319.154 C208.391,319.136 208.233,319.118 208.074,319.101 C208.241,317.538 208.407,315.975 208.573,314.413 C208.743,314.444 208.913,314.474 209.083,314.505 C208.905,316.055 208.728,317.604 208.55,319.154 L208.55,319.154 Z M208.63,320.405 L208.63,327.863 C208.479,327.862 208.328,327.862 208.177,327.862 L208.177,320.404 C208.328,320.404 208.479,320.404 208.63,320.405 L208.63,320.405 Z M208.786,329.305 C208.926,329.292 209.066,329.278 209.206,329.265 C209.004,331.465 208.803,333.664 208.601,335.864 C208.524,335.874 208.447,335.884 208.37,335.893 C208.143,334.797 207.672,333.71 207.746,332.57 C207.821,331.416 208.422,330.38 208.786,329.305 L208.786,329.305 Z M209.094,312.098 C207.704,310.666 208.443,309.005 208.691,307.393 C210.068,308.855 208.454,310.564 209.094,312.098 L209.094,312.098 Z M198.545,301.127 L198.545,294.657 C198.678,294.657 198.811,294.658 198.944,294.658 L198.944,301.129 C198.811,301.129 198.678,301.128 198.545,301.127 L198.545,301.127 Z M198.782,305.684 L198.782,310.709 C198.715,310.713 198.649,310.718 198.582,310.722 L198.582,305.695 C198.649,305.691 198.715,305.688 198.782,305.684 L198.782,305.684 Z M198.88,321.651 C199.075,328.835 199.444,336.018 199.089,343.2 C198.921,339.577 198.917,335.906 198.511,332.3 C198.104,328.679 198.282,325.258 198.492,321.63 C198.621,321.637 198.75,321.644 198.88,321.651 L198.88,321.651 Z M189.891,346.903 L189.891,352.017 C189.761,352.049 189.631,352.081 189.501,352.112 C188.759,350.778 187.974,349.463 187.331,348.083 C187.254,347.917 187.882,347.25 188.294,347.073 C188.772,346.867 189.372,346.945 189.891,346.903 L189.891,346.903 Z M176.86,299.833 C177.649,297.091 178.857,295.526 180.504,294.717 C180.617,294.797 180.729,294.878 180.842,294.958 C179.435,296.882 178.027,298.806 176.62,300.73 C176.702,300.376 176.783,300.085 176.86,299.833 L176.86,299.833 Z M172.919,292.776 C172.794,292.674 172.668,292.571 172.542,292.469 C172.675,292.143 172.736,291.756 172.952,291.5 C174.156,290.076 175.383,288.672 176.641,287.296 C176.83,287.089 177.224,287.069 177.523,286.963 C177.605,287.342 177.92,288.093 177.559,288.436 C176.023,289.894 174.469,291.332 172.919,292.776 L172.919,292.776 Z M138.275,287.137 C138.198,287.018 138.12,286.899 138.042,286.78 C138.207,286.469 138.272,286.371 138.29,286.365 C139.069,285.148 140.11,284.612 141.566,285.255 C141.396,285.623 141.316,286.206 141.041,286.319 C140.158,286.685 139.203,286.878 138.275,287.137 L138.275,287.137 Z M111.622,323.791 C109.834,323.582 108.51,321.164 109.07,318.952 C111.282,319.942 112.239,321.81 111.622,323.791 L111.622,323.791 Z M104.791,317.204 C103.249,315.574 101.793,314.036 100.37,312.532 C102.371,312.531 105.123,315.322 104.791,317.204 L104.791,317.204 Z M93.166,317.963 C93.053,318.094 92.918,318.236 92.734,318.404 C92.214,317.299 91.584,316.239 91.171,315.086 C90.788,314.016 91.346,313.485 91.73,312.518 C92.283,312.751 92.958,312.855 93.369,313.24 C94.847,314.626 94.766,316.271 93.166,317.963 L93.166,317.963 Z M97.55,321.726 C96.464,321.073 96.366,319.784 95.858,318.745 C95.733,318.49 94.854,317.344 94.973,317.041 C95.254,316.324 95.27,315.564 95.043,314.83 C94.701,313.722 93.848,312.878 93.776,311.714 C94.593,311.641 94.719,311.682 94.603,311.733 C96.172,311.805 97.466,312.463 98.514,313.645 C99.898,315.206 101.503,316.596 102.652,318.352 C103.74,320.016 104.707,321.358 106.083,322.81 C106.696,323.456 107.122,324.274 107.801,324.851 C108.491,325.436 109.316,325.86 109.932,326.532 C111.302,328.027 112.506,329.663 113.797,331.225 C113.939,331.397 114.177,331.544 114.395,331.592 C118.731,332.536 123.101,333.335 127.4,334.444 C129.371,334.953 131.209,335.845 133.098,336.581 C134.729,337.217 136.649,337.093 138.194,337.842 C139.679,338.561 141.053,339.616 142.264,340.751 C142.944,341.388 141.937,343.022 140.981,343.125 C137.47,343.504 134.818,341.798 131.493,341.164 C128.276,340.55 124.984,339.243 121.945,338.035 C118.578,336.696 115.157,335.513 111.785,334.187 C110.516,333.688 108.9,333.995 108.043,332.738 C107.468,331.894 106.007,332.008 105.18,331.536 C104.149,330.946 103.522,329.351 102.72,328.487 C101.67,327.357 100.606,326.236 99.631,325.038 C98.671,323.858 98.938,322.561 97.55,321.726 L97.55,321.726 Z M144.697,410.51 C143.342,409.941 110.479,396.556 109.161,395.908 C107.634,395.158 105.809,392.8 105.269,391.233 L99.787,374.346 L102.823,375.262 C102.823,375.262 135.886,390.133 136.929,390.604 C137.993,391.084 141.755,393.951 142.28,395.392 L147.733,411.365 L144.697,410.51 L144.697,410.51 Z M255.272,411.621 C254.731,413.189 251.907,414.547 250.381,415.297 C249.688,415.637 240.586,419.484 231.893,423.146 L231.853,423.09 C231.697,425.432 230.763,426.794 228.499,427.976 C224.578,430.024 220.488,431.721 216.407,433.418 C212.736,434.944 209.089,436.879 205.254,437.954 C202.732,438.66 200.524,437.447 198.307,436.422 C196.015,435.362 193.702,434.345 191.408,433.288 C189.142,432.243 186.702,431.688 184.443,430.654 C182.565,429.795 180.923,428.47 178.974,427.757 C176.444,426.83 176.459,425.608 175.604,423.461 L175.316,422.62 C167.021,419.124 157.738,415.62 157.078,415.297 C155.552,414.547 153.728,412.189 153.187,410.621 L147.706,393.735 L150.741,394.65 C150.741,394.65 167.015,401.968 176.452,406.212 L176.818,405.883 C178.537,404.836 178.769,404.051 178.692,402.205 C178.589,399.715 178.757,397.247 179.233,394.798 C179.498,393.428 179.847,392.075 180.257,390.741 C180.598,389.629 180.304,389.336 180.198,388.198 C180.098,387.124 180.371,386.069 180.57,385.024 C180.767,383.983 180.669,382.948 180.822,381.909 C180.999,380.708 181.451,379.574 181.746,378.401 C181.94,377.63 181.723,376.324 182.077,375.671 C183.069,373.837 183.546,371.942 183.974,369.869 C184.463,367.494 185.202,365.233 185.929,362.914 C186.553,360.926 186.277,358.607 186.732,356.547 C186.037,354.8 185.798,353.75 184.097,352.68 C182.643,351.766 181.018,351.725 179.484,351.066 C178.708,350.732 178.082,350.182 177.676,349.438 C177.412,348.954 176.076,348.534 175.614,348.28 C174.598,347.723 173.581,347.166 172.584,346.574 C172.028,346.244 171.668,345.487 171.14,345.239 C168.407,343.794 166.096,341.769 163.551,340.021 C162.326,339.18 160.975,340.21 159.679,339.674 C158.575,339.219 157.951,338.218 156.787,337.842 C155.624,337.467 155.195,336.938 154.256,336.243 C153.477,335.667 152.539,335.362 151.734,334.827 C150.66,334.113 150.752,332.788 149.857,332.11 C148.926,331.405 148.023,331.891 147.705,330.405 C147.189,327.988 146.682,325.785 144.017,324.903 C141.843,326.15 139.772,327.338 137.702,328.526 C137.625,328.477 137.547,328.428 137.47,328.379 C138.038,327.437 138.606,326.494 139.26,325.407 C137.734,325.022 137.379,326.097 136.843,326.807 C136.279,327.554 135.797,328.363 135.346,329.046 C134.109,328.073 133.158,327.268 132.144,326.55 C130.927,325.689 132.476,324.507 133.009,323.681 C133.768,322.506 133.972,321.257 133.91,319.878 C133.042,321.376 132.214,322.901 131.278,324.356 C129.883,326.524 128.528,322.83 127.379,322.122 C125.659,321.062 125.382,320.262 126.401,318.573 C126.77,317.961 126.85,317.087 127.345,316.666 C128.903,315.342 131.055,316.403 132.73,316.94 C134.902,317.636 137.021,318.507 139.02,319.61 C143.191,321.911 146.973,324.878 151.133,327.213 C155.27,329.535 159.756,331.072 164.14,332.843 C168.73,334.697 173.359,336.459 177.91,338.408 C181.149,339.794 183.6,342.308 185.02,345.423 C186.992,349.748 187.935,354.7 190.192,358.855 C190.129,358.739 190.572,358.457 190.874,358.302 C191.959,357.104 190.698,355.814 190.809,354.486 C191.272,355.213 191.736,355.941 192.249,356.748 C194.565,355.62 196.267,354.091 198.962,353.784 C200.223,353.641 199.703,352.671 199.707,351.937 C199.716,350.418 199.871,348.896 199.987,347.382 C199.112,347.526 198.308,347.621 197.423,347.621 C197.46,348.06 197.491,348.409 197.528,348.842 C197.033,348.708 196.595,348.588 195.868,348.391 C197.356,346.733 198.703,345.203 200.096,343.716 C200.278,343.521 200.815,343.376 200.982,343.495 C201.815,344.092 202.615,344.75 203.342,345.471 C203.52,345.647 203.515,346.233 203.358,346.48 C202.646,347.596 201.733,348.597 201.119,349.759 C200.631,350.682 200.471,351.778 200.166,352.797 C200.342,352.888 200.518,352.979 200.694,353.07 C201.1,352.719 201.507,352.368 201.939,351.994 C202.753,352.166 203.632,352.352 204.697,352.577 C204.551,351.887 204.455,351.433 204.308,350.741 C205.571,350.565 206.831,350.166 208.039,350.286 C208.609,350.343 209.249,350.345 209.712,349.951 C210.27,349.475 210.211,348.842 211.103,348.836 C210.536,349.635 209.904,350.397 209.414,351.242 C208.42,352.952 208.589,352.878 210.433,353.275 C213.742,353.988 216.814,355.288 218.527,358.552 C218.617,358.723 218.708,358.894 218.843,359.152 C219.874,358.824 220.878,358.504 221.883,358.185 C221.866,358.07 221.849,357.955 221.832,357.84 C221.671,357.799 221.486,357.686 221.353,357.73 C219.677,358.279 219.239,357.978 219.719,356.285 C220.99,351.798 222.23,347.256 225.594,343.767 C227.124,342.18 229.526,341.441 231.51,340.62 C233.803,339.672 236.114,338.755 238.318,337.61 C242.789,335.289 247.393,333.609 252.025,331.654 C261.007,327.863 268.004,319.474 278.18,318.877 C278.498,318.858 278.823,318.941 279.224,319.301 C278.172,319.74 277.111,320.158 276.071,320.623 C273.248,321.886 274.93,323.923 275.93,325.924 C276.961,327.989 276.545,330.183 274.57,331.489 C273.207,332.389 271.508,332.782 269.894,333.423 C270.064,332.671 270.671,331.656 270.402,330.869 C270.074,329.909 269.249,329.223 268.652,328.437 C268.48,328.541 268.307,328.645 268.134,328.75 C268.349,329.332 268.563,329.915 268.8,330.558 C266.95,330.558 265.15,330.349 263.419,330.601 C260.626,331.008 258.013,332.585 255.951,334.454 C254.935,335.374 254.017,336.413 253.271,337.566 C252.549,338.682 251.328,338.784 250.178,339.173 C248.509,339.739 246.858,339.582 245.216,340.383 C244.08,340.938 242.696,341.393 241.687,342.159 C240.617,342.971 239.974,344.14 239.058,345.109 C238.107,346.115 239.497,346.953 238.92,347.685 C237.621,349.335 236.304,350.972 234.991,352.612 C234.911,352.495 234.83,352.379 234.75,352.262 C234.233,352.123 233.357,351.746 233.262,351.888 C231.982,353.817 231.863,356.53 231.08,358.68 C230.925,359.108 230.203,359.44 229.675,359.6 C228.25,360.03 226.044,361.007 224.824,360.046 C223.482,358.988 221.77,359.803 220.256,359.783 C220.332,360.316 220.389,360.717 220.464,361.246 C220.758,361.097 220.955,361.051 221.075,360.929 C223.188,358.764 223.598,362.423 224.182,363.922 C224.623,365.052 225.313,366.066 226.18,366.911 C226.707,367.424 226.329,368.837 226.721,369.537 C227.996,371.81 228.341,374.423 228.988,376.908 C229.495,378.86 229.248,381.798 230.721,383.302 C232.414,385.03 230.267,386.819 230.492,388.707 C230.634,389.897 231.578,390.462 231.551,391.755 C231.526,392.922 231.397,394.085 231.311,395.249 C231.049,395.08 230.823,394.935 230.134,394.492 C230.34,397.911 230.526,401.005 230.721,404.238 C232.828,403.884 233.885,405.654 236.151,403.958 C236.146,404.091 236.141,404.225 236.135,404.358 C245.871,399.979 257.718,394.65 257.718,394.65 L260.753,393.735 L255.272,411.621 L255.272,411.621 Z M303.191,391.233 C302.65,392.8 299.325,395.658 297.799,396.408 C296.48,397.056 264.617,410.441 263.262,411.01 L260.726,411.365 L266.179,395.392 C266.704,393.951 270.467,391.084 271.53,390.604 C272.573,390.133 305.636,375.262 305.636,375.262 L308.672,374.346 L303.191,391.233 L303.191,391.233 Z M307.861,326.735 C306.882,328.515 305.638,330.18 304.307,331.722 C303.903,332.189 303.296,332.583 302.659,332.592 C302.366,332.599 302.107,332.509 301.882,332.321 C301.505,332.53 301.128,332.737 300.749,332.944 C299.446,333.656 298.155,334.88 296.795,335.403 C295.494,335.903 294.515,336.956 293.035,336.955 C291.589,336.954 290.374,338.164 289.153,338.779 C289.196,338.921 289.239,339.064 289.281,339.206 C289.086,338.978 288.891,338.75 288.66,338.48 C288.042,339.284 287.236,340.954 285.98,340.454 C284.676,339.934 283.629,339.704 282.971,341.329 C282.775,341.813 282.431,342.381 281.996,342.602 C279.054,344.103 276.007,345.035 272.737,343.658 C272.295,343.472 271.96,343.03 271.497,342.641 C271.96,343.03 271.208,342.72 271.497,342.641 C271.208,342.72 270.802,342.832 270.396,342.943 C270.259,342.846 270.122,342.748 269.984,342.651 C270.562,341.729 271.008,340.675 271.755,339.921 C272.51,339.161 273.821,339.551 275.258,340.713 C275.686,338.593 277.436,337.975 279.121,337.5 C281.988,336.693 284.887,336.01 287.776,335.291 C290.311,334.66 292.688,333.704 295.238,333.068 C295.416,330.998 297.461,330.1 298.59,328.565 C298.733,328.371 299.866,328.904 300.692,329.145 C300.377,328.661 300.102,328.241 299.597,327.467 C301.212,326.28 302.882,325.11 304.478,323.846 C305.96,322.673 306.264,320.366 307.721,319.107 C309.56,317.518 311.591,316.129 313.65,314.828 C314.329,314.4 315.34,314.498 316.2,314.355 C316.27,314.524 316.34,314.693 316.411,314.862 C315.142,316.666 314.32,318.694 313.286,320.638 C312.773,321.604 311.931,321.345 311.354,322.108 C310.972,322.613 311.005,323.316 310.927,323.912 C310.902,324.1 310.871,324.286 310.831,324.549 C309.245,324.507 308.562,325.462 307.861,326.735 L307.861,326.735 Z" id="Fill-29" sketch:type="MSShapeGroup"></path>
                <path d="M215.855,397.861 C215.737,397.321 215.498,396.775 215.524,396.241 C215.583,395.047 215.521,394.132 213.645,395.125 C214.321,393.995 216.705,393.736 214.569,392.159 C214.835,391.865 215.114,391.557 215.392,391.25 C215.132,390.553 214.871,389.854 214.564,389.033 C213.229,389.03 212.708,388.58 213.78,387.248 C214.108,386.841 214.085,386.151 213.908,385.47 C213.698,385.79 213.487,386.109 213.277,386.429 C213.108,386.38 212.94,386.331 212.771,386.282 C212.959,385.45 213.147,384.618 213.374,383.609 C212.293,382.682 212.278,381.948 213.095,380.232 C213.342,379.714 212.896,378.865 212.717,377.89 C212.931,376.789 213.221,375.296 213.527,373.724 C213.898,374.204 214.337,374.769 214.713,375.254 C213.575,377.309 215.912,378.944 214.862,380.895 C215.041,380.914 215.22,380.933 215.4,380.952 C215.889,380.556 216.379,380.16 216.868,379.765 C216.949,379.83 217.03,379.895 217.111,379.96 C216.889,380.327 216.666,380.695 216.387,381.157 C216.791,381.312 217.179,381.46 217.717,381.665 C217.256,382.214 216.836,382.713 216.407,383.224 C216.86,383.447 217.127,384.365 217.482,386.784 C217.727,386.717 217.966,386.652 218.205,386.587 C218.278,386.661 218.35,386.734 218.422,386.808 C218.029,387.294 217.635,387.779 217.173,388.35 C218.194,389.534 216.416,389.716 216.117,390.452 C216.676,390.658 217.121,390.821 217.565,390.985 C217.138,391.495 216.712,392.006 216.113,392.722 C216.611,392.643 217.023,392.455 217.167,392.578 C217.584,392.935 218.28,393.568 218.18,393.826 C217.643,395.208 216.898,396.509 216.225,397.838 C216.102,397.846 215.979,397.853 215.855,397.861" id="Fill-30" sketch:type="MSShapeGroup"></path>
                <path d="M205.431,387.111 C206.794,388.242 206.697,388.483 204.378,389.455 C205.054,389.739 205.515,389.933 206.258,390.246 C205.389,390.64 204.752,390.929 204.115,391.218 C204.143,391.315 204.171,391.411 204.199,391.508 C204.902,391.627 205.605,391.746 206.308,391.866 C206.311,391.998 206.314,392.13 206.318,392.263 C205.978,392.373 205.643,392.5 205.298,392.588 C204.937,392.679 204.567,392.731 204.167,393.128 C204.985,393.3 205.803,393.473 206.653,393.652 C206.081,395.318 205.906,395.349 204.658,394.561 C204.256,394.307 203.571,394.151 203.189,394.327 C202.893,394.462 202.835,395.179 202.731,395.65 C202.65,396.023 202.66,396.417 202.623,396.886 C203.032,396.96 203.389,397.024 204.18,397.167 C203.178,397.62 202.53,397.913 201.678,398.299 C202.246,395.037 202.501,392.095 201.669,388.805 C202.096,388.632 202.766,388.361 203.546,388.044 C201.845,387.921 202.08,386.756 202.117,385.598 C202.136,385.01 201.84,384.412 201.661,383.723 C202.341,383.332 203.164,382.911 203.913,382.385 C204.055,382.286 203.904,381.77 203.888,381.441 C203.696,381.46 203.572,381.434 203.512,381.484 C203.102,381.822 202.705,382.176 202.304,382.525 C202.259,381.972 202.161,381.417 202.183,380.867 C202.209,380.201 202.223,379.496 202.453,378.888 C202.639,378.397 203.084,377.952 203.516,377.623 C203.835,377.381 204.32,377.359 205.083,377.136 C204.278,376.832 203.785,376.646 203.293,376.46 C203.253,376.325 203.214,376.19 203.174,376.055 C203.941,375.731 204.709,375.407 205.653,375.008 C205.653,377.168 205.722,379.083 205.623,380.99 C205.575,381.924 205.217,382.843 204.963,383.923 C206.431,384.494 206.001,385.77 205.431,387.111 L205.431,387.111 Z M202.92,392.123 C203.008,392.134 203.096,392.145 203.184,392.156 C203.367,391.678 203.581,391.208 203.722,390.718 C203.795,390.462 203.786,390.158 203.721,389.898 C203.7,389.811 203.277,389.707 203.232,389.764 C203.041,390.004 202.821,390.295 202.803,390.58 C202.769,391.09 202.873,391.608 202.92,392.123 L202.92,392.123 Z" id="Fill-31" sketch:type="MSShapeGroup"></path>
                <path d="M191.984,386.111 C192.056,384.805 192.16,383.28 194.184,382.69 C194.052,382.584 193.92,382.478 193.787,382.371 C193.471,382.426 193.155,382.481 192.629,382.572 C192.691,381.634 192.75,380.747 192.819,379.717 C192.652,379.673 192.32,379.587 192.166,379.546 C192.406,378.943 192.623,378.396 192.84,377.849 C192.743,377.785 192.647,377.721 192.55,377.656 C192.888,377.512 193.227,377.367 193.398,377.294 C193.278,376.634 192.907,375.81 193.138,375.571 C193.493,375.206 194.263,375.245 195.147,375.047 C194.573,377.249 194.078,379.145 193.666,380.727 C194.463,381.75 195.081,382.543 195.707,383.347 C195.298,383.493 194.863,383.648 194.432,383.803 C194.946,384.433 195.313,384.884 195.68,385.334 C195.589,385.426 195.498,385.518 195.407,385.61 C195.07,385.501 194.734,385.392 194.398,385.282 C194.326,385.385 194.253,385.487 194.18,385.589 C194.517,385.855 194.854,386.122 195.205,386.399 C194.616,386.864 194.028,387.328 193.44,387.793 C193.008,387.294 192.545,386.759 191.984,386.111" id="Fill-32" sketch:type="MSShapeGroup"></path>
                <path d="M207.438,367.793 C207.588,368.196 207.836,368.591 207.87,369.003 C208.057,371.286 208.174,373.574 208.352,375.858 C208.426,376.811 208.642,377.753 208.686,378.705 C208.699,379.002 208.362,379.315 208.185,379.621 C208.001,379.301 207.672,378.988 207.658,378.661 C207.589,377.067 207.707,375.461 207.565,373.876 C207.408,372.121 207.026,370.387 206.78,368.639 C206.745,368.388 206.924,368.107 207.004,367.841 C207.149,367.825 207.294,367.809 207.438,367.793" id="Fill-33" sketch:type="MSShapeGroup"></path>
                <path d="M189.589,403.659 C189.638,400.916 189.437,398.339 191.075,395.785 C191.246,396.32 191.405,396.591 191.409,396.865 C191.425,398.039 191.463,399.22 191.362,400.386 C191.285,401.278 191.099,402.186 190.781,403.017 C190.664,403.325 190.031,403.435 189.589,403.659" id="Fill-34" sketch:type="MSShapeGroup"></path>
                <path d="M192.958,393.283 C192.607,394.071 192.297,394.768 191.923,395.608 C191.063,395.102 190.319,394.664 189.482,394.171 C190.616,393.168 191.54,392.404 192.958,393.283" id="Fill-35" sketch:type="MSShapeGroup"></path>
                <path d="M189.973,390.124 C191.097,389.577 192.204,388.99 193.361,388.522 C193.555,388.444 194.035,388.834 194.23,389.115 C194.31,389.231 194.033,389.815 193.836,389.866 C192.621,390.18 191.382,390.402 190.151,390.654 C190.091,390.477 190.032,390.301 189.973,390.124" id="Fill-36" sketch:type="MSShapeGroup"></path>
                <path d="M206.693,362.507 C206.893,364.074 207.093,365.641 207.293,367.208 C207.053,367.234 206.813,367.259 206.573,367.285 C206.45,365.721 206.326,364.157 206.203,362.593 C206.366,362.564 206.53,362.536 206.693,362.507" id="Fill-37" sketch:type="MSShapeGroup"></path>
                <path d="M205.843,399.406 C204.57,399.344 203.297,399.283 202.025,399.221 C202.024,399.079 202.023,398.938 202.022,398.796 L205.851,398.796 C205.848,398.999 205.845,399.203 205.843,399.406" id="Fill-38" sketch:type="MSShapeGroup"></path>
                <path d="M208.989,382.949 C207.522,382.792 207.634,381.686 207.376,380.871 C207.344,380.771 207.617,380.445 207.69,380.463 C207.942,380.524 208.304,380.638 208.378,380.827 C208.623,381.449 208.76,382.114 208.989,382.949" id="Fill-39" sketch:type="MSShapeGroup"></path>
                <path d="M202.92,392.123 C202.873,391.608 202.769,391.09 202.803,390.58 C202.821,390.295 203.041,390.004 203.232,389.764 C203.277,389.707 203.7,389.811 203.721,389.898 C203.786,390.158 203.795,390.462 203.722,390.718 C203.581,391.208 203.367,391.678 203.184,392.156 C203.096,392.145 203.008,392.134 202.92,392.123" id="Fill-40" sketch:type="MSShapeGroup"></path>
                <path d="M263.388,408.621 C263.388,408.621 296.564,394.686 297.874,394.042 C299.184,393.399 300.836,392.201 301.278,390.918 C301.721,389.635 306.032,377.141 306.032,377.141 C306.032,377.141 272.97,392.013 271.926,392.483 C270.883,392.954 268.466,394.677 268.086,395.721 C267.705,396.765 263.388,408.621 263.388,408.621" id="Fill-41" sketch:type="MSShapeGroup"></path>
                <path d="M215.47,428.009 C215.47,428.009 248.646,414.074 249.956,413.431 C251.266,412.787 252.917,411.589 253.36,410.307 C253.803,409.024 258.114,396.53 258.114,396.53 C258.114,396.53 225.051,411.401 224.008,411.872 C222.965,412.343 220.547,414.066 220.167,415.11 C219.787,416.154 215.47,428.009 215.47,428.009" id="Fill-42" sketch:type="MSShapeGroup"></path>
                <path d="M311.349,388.555 C311.349,388.555 344.525,374.62 345.835,373.976 C347.145,373.333 348.797,372.135 349.239,370.852 C349.682,369.569 353.993,357.075 353.993,357.075 C353.993,357.075 320.931,371.947 319.887,372.418 C318.844,372.888 316.427,374.611 316.046,375.655 C315.666,376.699 311.349,388.555 311.349,388.555" id="Fill-43" sketch:type="MSShapeGroup"></path>
                <path d="M145.061,408.573 C145.061,408.573 111.885,394.638 110.575,393.995 C109.265,393.351 107.613,392.153 107.171,390.871 C106.728,389.588 102.417,377.094 102.417,377.094 C102.417,377.094 135.479,391.965 136.523,392.436 C137.566,392.907 139.983,394.63 140.363,395.674 C140.744,396.718 145.061,408.573 145.061,408.573" id="Fill-44" sketch:type="MSShapeGroup"></path>
                <path d="M192.979,427.962 C192.979,427.962 159.803,414.027 158.493,413.383 C157.183,412.74 155.532,411.542 155.089,410.259 C154.646,408.976 150.335,396.482 150.335,396.482 C150.335,396.482 183.398,411.353 184.441,411.824 C185.484,412.295 187.902,414.018 188.282,415.062 C188.662,416.106 192.979,427.962 192.979,427.962" id="Fill-45" sketch:type="MSShapeGroup"></path>
                <path d="M97.1,388.507 C97.1,388.507 63.924,374.573 62.614,373.929 C61.304,373.285 59.652,372.087 59.21,370.805 C58.767,369.522 54.456,357.028 54.456,357.028 C54.456,357.028 87.518,371.899 88.562,372.37 C89.605,372.841 92.022,374.564 92.403,375.608 C92.783,376.652 97.1,388.507 97.1,388.507" id="Fill-46" sketch:type="MSShapeGroup"></path>
            </g>
        </g>
    </g>
</svg>