<?xml version="1.0" encoding="UTF-8" standalone="no"?>
<svg width="32px" height="32px" viewBox="0 0 32 32" version="1.1" xmlns="http://www.w3.org/2000/svg" xmlns:xlink="http://www.w3.org/1999/xlink" xmlns:sketch="http://www.bohemiancoding.com/sketch/ns">
    <!-- Generator: Sketch 3.1 (8751) - http://www.bohemiancoding.com/sketch -->
    <title>Artboard 5</title>
    <desc>Created with Sketch.</desc>
    <defs></defs>
    <g id="Page-1" stroke="none" stroke-width="1" fill="none" fill-rule="evenodd" sketch:type="MSPage">
        <g id="Artboard-5" sketch:type="MSArtboardGroup" fill="#FFFFFF">
            <path d="M15.2672811,32 L17.516129,32 L17.516129,28.718894 C23.2304147,28.3133641 25.3686636,24.8479263 25.3686636,21.5299539 C25.3686636,16.7004608 21.3133641,15.2995392 17.516129,14.2304147 L17.516129,6.19354839 C19.5806452,6.48847926 21.4976959,7.41013825 22.9723502,9.03225806 L24.8156682,6.78341014 C23.0092166,4.90322581 20.5760369,3.64976959 17.516129,3.39170507 L17.516129,0 L15.2672811,0 L15.2672811,3.35483871 C10.843318,3.68663594 7.6359447,6.37788018 7.6359447,10.1751152 C7.6359447,14.7096774 11.5069124,15.9631336 15.2672811,16.9953917 L15.2672811,25.9539171 C12.3548387,25.6221198 10.1059908,24.1474654 8.70506912,22.4884793 L6.86175115,24.8479263 C8.70506912,26.9493088 11.5437788,28.4976959 15.2672811,28.718894 L15.2672811,32 Z M22.1981567,21.7511521 C22.1981567,23.5207373 21.0184332,25.6221198 17.516129,25.9907834 L17.516129,17.5852535 C20.0967742,18.359447 22.1981567,19.3548387 22.1981567,21.7511521 L22.1981567,21.7511521 Z M10.8064516,9.99078341 C10.8064516,7.85253456 12.6497696,6.30414747 15.2672811,6.11981567 L15.2672811,13.640553 C12.7603687,12.9032258 10.8064516,12.0184332 10.8064516,9.99078341 L10.8064516,9.99078341 Z" id="$" sketch:type="MSShapeGroup"></path>
        </g>
    </g>
</svg>