<?xml version="1.0" encoding="UTF-8" standalone="no"?>
<svg width="32px" height="32px" viewBox="0 0 32 32" version="1.1" xmlns="http://www.w3.org/2000/svg" xmlns:xlink="http://www.w3.org/1999/xlink" xmlns:sketch="http://www.bohemiancoding.com/sketch/ns">
    <!-- Generator: Sketch 3.1 (8751) - http://www.bohemiancoding.com/sketch -->
    <title>Artboard 4</title>
    <desc>Created with Sketch.</desc>
    <defs></defs>
    <g id="Page-1" stroke="none" stroke-width="1" fill="none" fill-rule="evenodd" sketch:type="MSPage">
        <g id="Artboard-4" sketch:type="MSArtboardGroup" fill="#FFFFFF">
            <path d="M25.8235294,9.53846154 C25.8235294,4.27084615 21.6117647,0 16.4117647,0 C11.2141176,0 7,4.27084615 7,9.53846154 C7,11.2780385 7.46941176,12.9031538 8.27058824,14.3076923 L8.25882353,14.3076923 L16.4117647,31 L24.5682353,14.3076923 L24.5552941,14.3076923 C25.3611765,12.9031538 25.8235294,11.2780385 25.8235294,9.53846154 L25.8235294,9.53846154 Z M16.4152941,14.3065 C13.8152941,14.3065 11.7094118,12.1710769 11.7094118,9.53846154 C11.7094118,6.90465385 13.8152941,4.76923077 16.4152941,4.76923077 C19.0129412,4.76923077 21.1211765,6.90465385 21.1211765,9.53846154 C21.1211765,12.1710769 19.0129412,14.3065 16.4152941,14.3065 L16.4152941,14.3065 Z" id="Imported-Layers" sketch:type="MSShapeGroup"></path>
        </g>
    </g>
</svg>