<?xml version="1.0" encoding="utf-8"?>
<!-- Generator: Adobe Illustrator 17.0.0, SVG Export Plug-In . SVG Version: 6.00 Build 0)  -->
<!DOCTYPE svg PUBLIC "-//W3C//DTD SVG 1.1//EN" "http://www.w3.org/Graphics/SVG/1.1/DTD/svg11.dtd">
<svg version="1.1" id="Layer_1" xmlns="http://www.w3.org/2000/svg" xmlns:xlink="http://www.w3.org/1999/xlink" x="0px" y="0px"
	 width="20.846px" height="20.794px" viewBox="0 0 20.846 20.794" enable-background="new 0 0 20.846 20.794" xml:space="preserve">
<path d="M20,18.561l-5.754-5.547c0.949-1.28,1.518-2.859,1.518-4.571c0-4.246-3.455-7.7-7.701-7.7s-7.701,3.454-7.701,7.7
	s3.455,7.701,7.701,7.701c1.814,0,3.48-0.634,4.797-1.687L18.612,20L20,18.561z M8.063,14.143c-3.144,0-5.701-2.557-5.701-5.701
	c0-3.143,2.557-5.7,5.701-5.7s5.701,2.557,5.701,5.7C13.764,11.586,11.207,14.143,8.063,14.143z"/>
</svg>
