<?xml version="1.0" encoding="UTF-8" standalone="no"?>
<svg width="48px" height="48px" viewBox="0 0 48 48" version="1.1" xmlns="http://www.w3.org/2000/svg" xmlns:xlink="http://www.w3.org/1999/xlink" xmlns:sketch="http://www.bohemiancoding.com/sketch/ns">
    <!-- Generator: Sketch 3.1.1 (8761) - http://www.bohemiancoding.com/sketch -->
    <title>icono_institucion</title>
    <desc>Created with Sketch.</desc>
    <defs></defs>
    <g id="Page-1" stroke="none" stroke-width="1" fill="none" fill-rule="evenodd" sketch:type="MSPage">
        <g id="icono_institucion" sketch:type="MSArtboardGroup" fill="#FFFFFF">
            <g id="Imported-Layers" sketch:type="MSLayerGroup" transform="translate(5.000000, 1.000000)">
                <path d="M28.64,27.435 L28.64,27.028 L28.356,26.913 C28.351,26.916 28.346,26.92 28.342,26.923 C28.315,26.907 28.291,26.888 28.261,26.876 L27.435,26.545 L23.82,25.099 L23.82,20.808 L21.41,20.808 L21.41,24.135 L20.205,23.653 L20.205,20.808 L17.795,20.808 L17.795,23.653 L16.59,24.135 L16.59,20.808 L14.18,20.808 L14.18,25.099 L10.565,26.545 L9.739,26.876 C9.71,26.888 9.685,26.907 9.658,26.923 C9.654,26.92 9.649,26.916 9.644,26.913 L9.36,27.028 L9.36,29.243 L28.64,29.243 L28.64,27.435" id="Fill-1" sketch:type="MSShapeGroup"></path>
                <path d="M23.839,19.139 C23.84,19.139 24.006,13.894 20.759,11.229 C20.759,11.229 20.759,11.063 20.676,10.98 C20.592,10.896 20.426,10.813 20.426,10.73 C20.426,10.647 20.259,10.647 20.259,10.563 C20.259,10.48 20.259,10.48 20.343,10.397 C20.426,10.314 20.509,10.314 20.592,10.147 C20.676,9.98 20.676,9.814 20.592,9.814 C20.509,9.814 20.426,9.897 20.426,9.897 C20.426,9.897 20.343,9.814 20.426,9.731 C20.509,9.647 20.426,9.647 20.426,9.564 C20.426,9.481 20.426,9.398 20.509,9.398 C20.592,9.398 20.592,9.231 20.509,9.231 C20.426,9.231 20.259,9.398 20.259,9.481 C20.259,9.481 20.093,9.398 19.843,9.398 C19.843,9.398 19.926,9.148 19.843,8.982 C19.76,8.815 19.51,8.815 19.427,8.732 C19.344,8.649 19.011,0.323 19.011,0.323 C19.011,0.323 18.678,8.649 18.594,8.732 C18.511,8.815 18.261,8.815 18.178,8.982 C18.095,9.148 18.178,9.398 18.178,9.398 C17.928,9.398 17.762,9.481 17.762,9.481 C17.762,9.398 17.595,9.231 17.512,9.231 C17.428,9.231 17.428,9.398 17.512,9.398 C17.595,9.398 17.595,9.481 17.595,9.564 C17.595,9.647 17.512,9.647 17.595,9.731 C17.678,9.814 17.595,9.897 17.595,9.897 C17.595,9.897 17.512,9.814 17.428,9.814 C17.345,9.814 17.345,9.98 17.428,10.147 C17.512,10.314 17.595,10.314 17.678,10.397 C17.762,10.48 17.762,10.48 17.762,10.563 C17.762,10.647 17.595,10.647 17.595,10.73 C17.595,10.813 17.428,10.896 17.345,10.98 C17.262,11.063 17.262,11.229 17.262,11.229 C14.015,13.894 14.181,19.139 14.181,19.139 L23.839,19.139" id="Fill-2" sketch:type="MSShapeGroup"></path>
                <path d="M37.075,26.833 L33.46,25.628 L29.845,26.833 L29.845,29 L37.677,29 L37.677,27.435 C37.677,27.102 37.408,26.833 37.075,26.833" id="Fill-3" sketch:type="MSShapeGroup"></path>
                <path d="M8.155,26.833 L4.54,25.628 L0.925,26.833 C0.592,26.833 0.323,27.102 0.323,27.435 L0.323,29 L8.155,29 L8.155,26.833" id="Fill-4" sketch:type="MSShapeGroup"></path>
                <path d="M29.845,34.665 L28.64,34.665 L28.64,30.448 L25.025,30.448 L25.025,34.665 L23.82,34.665 L23.82,30.448 L21.41,30.448 L21.41,34.665 L20.205,34.665 L20.205,30.448 L17.795,30.448 L17.795,34.665 L16.59,34.665 L16.59,30.448 L14.18,30.448 L14.18,34.665 L12.975,34.665 L12.975,30.448 L9.36,30.448 L9.36,34.665 L8.155,34.665 L8.155,30 L0.323,30 L0.323,37.075 C0.323,37.408 0.592,37.678 0.925,37.678 L37.075,37.678 C37.408,37.678 37.677,37.408 37.677,37.075 L37.677,30 L29.845,30 L29.845,34.665" id="Fill-5" sketch:type="MSShapeGroup"></path>
            </g>
        </g>
    </g>
</svg>