<?xml version="1.0" encoding="UTF-8" standalone="no"?>
<svg width="48px" height="48px" viewBox="0 0 48 48" version="1.1" xmlns="http://www.w3.org/2000/svg" xmlns:xlink="http://www.w3.org/1999/xlink" xmlns:sketch="http://www.bohemiancoding.com/sketch/ns">
    <!-- Generator: Sketch 3.1.1 (8761) - http://www.bohemiancoding.com/sketch -->
    <title>icono_justicia</title>
    <desc>Created with Sketch.</desc>
    <defs></defs>
    <g id="Page-1" stroke="none" stroke-width="1" fill="none" fill-rule="evenodd" sketch:type="MSPage">
        <g id="icono_justicia" sketch:type="MSArtboardGroup" fill="#FFFFFF">
            <path d="M44.1847027,24.2223333 C44.1847027,24.1675 44.1626216,24.1138333 44.1521622,24.059 C44.1405405,24.0006667 44.1370541,23.94 44.114973,23.8863333 C44.1138108,23.8851667 44.114973,23.8828333 44.1138108,23.8816667 L38.6330541,11.3073333 L39.8951622,11.3073333 C40.3693243,11.3073333 40.754,10.9211667 40.754,10.4451667 C40.754,9.97033333 40.3693243,9.58416667 39.8951622,9.58416667 L26.0445135,9.58416667 C25.661,8.1025 24.3291622,7 22.7346757,7 C21.1401892,7 19.8083514,8.1025 19.4248378,9.58416667 L7.28954054,9.58416667 C6.81537838,9.58416667 6.43186486,9.97033333 6.43186486,10.4451667 C6.43186486,10.9211667 6.81537838,11.3073333 7.28954054,11.3073333 L8.55281081,11.3073333 L3.07205405,23.8816667 C3.07089189,23.8828333 3.07089189,23.8851667 3.07089189,23.8863333 C3.04764865,23.9388333 3.04532432,23.9995 3.0337027,24.0566667 C3.02324324,24.1126667 3.00116216,24.1675 3.00116216,24.2223333 C3.00116216,24.2246667 3,24.2258333 3,24.227 C3,28.0268333 6.07856757,31.1185 9.86372973,31.1185 C13.6488919,31.1185 16.7286216,28.0268333 16.7286216,24.227 C16.7286216,24.2258333 16.7274595,24.2246667 16.7274595,24.2223333 C16.7274595,24.1675 16.7053784,24.1138333 16.6949189,24.059 C16.6832973,24.0006667 16.6798108,23.94 16.6577297,23.8863333 C16.6565676,23.8851667 16.6565676,23.8828333 16.6565676,23.8816667 L11.1758108,11.3073333 L19.4248378,11.3073333 C19.7362973,12.5125 20.6764865,13.4551667 21.877,13.769 L21.877,38.871 L16.7286216,38.871 C16.2544595,38.871 15.8709459,39.256 15.8709459,39.732 C15.8709459,40.208 16.2544595,40.593 16.7286216,40.593 L29.5995676,40.593 C30.0737297,40.593 30.4572432,40.208 30.4572432,39.732 C30.4572432,39.256 30.0737297,38.871 29.5995676,38.871 L23.5923514,38.871 L23.5923514,13.769 C24.7928649,13.4551667 25.7330541,12.5125 26.0445135,11.3073333 L36.0100541,11.3073333 L30.5292973,23.8816667 C30.5281351,23.8828333 30.5292973,23.8851667 30.5281351,23.8863333 C30.5060541,23.9388333 30.5037297,23.9995 30.4909459,24.0566667 C30.4804865,24.1126667 30.4584054,24.1675 30.4584054,24.2223333 C30.4584054,24.2246667 30.4572432,24.2258333 30.4572432,24.227 C30.4572432,28.0268333 33.536973,31.1185 37.320973,31.1185 C41.1061351,31.1185 44.1858649,28.0268333 44.1858649,24.227 C44.1858649,24.2258333 44.1847027,24.2246667 44.1847027,24.2223333 L44.1847027,24.2223333 Z M14.5588649,23.366 L5.16975676,23.366 L9.86372973,12.5953333 L14.5588649,23.366 L14.5588649,23.366 Z M32.627,23.366 L37.320973,12.5953333 L42.0161081,23.366 L32.627,23.366 L32.627,23.366 Z" id="Imported-Layers" sketch:type="MSShapeGroup"></path>
        </g>
    </g>
</svg>