<?xml version="1.0" encoding="utf-8"?>
<!-- Generator: Adobe Illustrator 17.1.0, SVG Export Plug-In . SVG Version: 6.00 Build 0)  -->
<!DOCTYPE svg PUBLIC "-//W3C//DTD SVG 1.1//EN" "http://www.w3.org/Graphics/SVG/1.1/DTD/svg11.dtd">
<svg version="1.1" id="Layer_1" xmlns:sketch="http://www.bohemiancoding.com/sketch/ns"
	 xmlns="http://www.w3.org/2000/svg" xmlns:xlink="http://www.w3.org/1999/xlink" x="0px" y="0px" viewBox="0 0 48 48"
	 enable-background="new 0 0 48 48" xml:space="preserve">
<title>icono_religion</title>
<desc>Created with Sketch.</desc>
<g id="_x33_57-store.png_2_">
	<g>
		<path fill="#FFFFFF" d="M34.6,12.5H13.4l-7.1,5.9h35.2L34.6,12.5z M32.2,9H15.8c-1.3,0-2.3,1.1-2.3,2.3h21.1
			C34.6,10.1,33.5,9,32.2,9z M9.9,23.1c1.5,0,2.8-1,3.3-2.3h0.4c0.5,1.4,1.8,2.3,3.3,2.3s2.8-1,3.3-2.3h0.4c0.5,1.4,1.8,2.3,3.3,2.3
			s2.8-1,3.3-2.3h0.4c0.5,1.4,1.8,2.3,3.3,2.3s2.8-1,3.3-2.3h0.4c0.5,1.4,1.8,2.3,3.3,2.3c1.9,0,3.5-1.6,3.5-3.5H6.4
			C6.4,21.5,8,23.1,9.9,23.1z M36.9,33.7l-3.5-3.5H14.6l-3.5,3.5v-9.4H8.7v12.9c0,1.3,1.1,2.3,2.3,2.3h25.9c1.3,0,2.3-1.1,2.3-2.3
			V24.3h-2.3V33.7z"/>
	</g>
</g>
</svg>
