<?xml version="1.0" encoding="utf-8"?>
<!-- Generator: Adobe Illustrator 17.1.0, SVG Export Plug-In . SVG Version: 6.00 Build 0)  -->
<!DOCTYPE svg PUBLIC "-//W3C//DTD SVG 1.1//EN" "http://www.w3.org/Graphics/SVG/1.1/DTD/svg11.dtd">
<svg version="1.1" id="Layer_1" xmlns:sketch="http://www.bohemiancoding.com/sketch/ns"
	 xmlns="http://www.w3.org/2000/svg" xmlns:xlink="http://www.w3.org/1999/xlink" x="0px" y="0px" viewBox="0 0 48 48"
	 enable-background="new 0 0 48 48" xml:space="preserve">
<title>icono_religion</title>
<desc>Created with Sketch.</desc>
<g>
	<g>
		<polygon fill="#FFFFFF" points="24.4,15.6 30.2,9.2 19.5,4.5 		"/>
		<polygon fill="#FFFFFF" points="30.9,9.5 30.9,9.5 30.9,9.5 		"/>
		<polygon fill="#FFFFFF" points="18.5,4.1 18.5,4.1 18.5,4.1 		"/>
		<polygon fill="#FFFFFF" points="23.9,21.1 23,22 25,23 		"/>
	</g>
	<path fill="#767676" stroke="#FFFFFF" stroke-miterlimit="10" d="M18.4,3.9"/>
	<path fill="#FFFFFF" d="M40.5,21.8c-0.1,0-0.1-0.1-0.2-0.1l0,0l-9.7-4.1v-7.1L24,18.3l3.4,6l3.3,1.5V24l3.4,1.7l-4.6,2.2l-15.3-7.3
		l4.2-1.9l0,1.3l3.1,1.5l1.6-1.6l-0.9-1.6l1.1-1.2L18.5,6v11.5L8.4,21.7l0,0c-0.1,0-0.1,0.1-0.2,0.1c-0.2,0.2-0.3,0.4-0.3,0.7V35
		c0,0.3,0.2,0.6,0.4,0.8L24,44.7c0.1,0.1,0.2,0.1,0.4,0.1c0.1,0,0.2,0,0.4-0.1l15.7-8.9c0.3-0.2,0.4-0.5,0.4-0.8V22.5
		C40.9,22.2,40.8,21.9,40.5,21.8z M15.9,36.4c-1,0-1.9-1.8-1.9-3.9c0-2.2,0.8-3.9,1.9-3.9s1.9,1.8,1.9,3.9
		C17.8,34.7,17,36.4,15.9,36.4z"/>
</g>
</svg>
