<?xml version="1.0" encoding="utf-8"?>
<!-- Generator: Adobe Illustrator 17.1.0, SVG Export Plug-In . SVG Version: 6.00 Build 0)  -->
<!DOCTYPE svg PUBLIC "-//W3C//DTD SVG 1.1//EN" "http://www.w3.org/Graphics/SVG/1.1/DTD/svg11.dtd">
<svg version="1.1" id="Layer_1" xmlns:sketch="http://www.bohemiancoding.com/sketch/ns"
	 xmlns="http://www.w3.org/2000/svg" xmlns:xlink="http://www.w3.org/1999/xlink" x="0px" y="0px" viewBox="0 0 128 128"
	 enable-background="new 0 0 128 128" xml:space="preserve">
<g>
	<path fill="#FFFFFF" d="M110.3,88.7c-1.7,0-3.2,1.7-3.2,3.5c0,0.6,0,1.2,0,1.5c0,1.7,1.5,3.2,3.2,3.2c1.7,0,3.2-1.5,3.2-3.2
		c0-0.6,0-1.2,0-1.7C113.5,90.2,112,88.7,110.3,88.7z"/>
	<path fill="#FFFFFF" d="M50.3,46c-1.2,0.3-2.3,0.6-3.2,1.2c-1.7,0.6-2.6,2.6-2,4.4c0.6,1.5,1.7,2.3,3.2,2.3c0.3,0,0.9,0,1.2-0.3
		c0.9-0.3,1.7-0.6,2.9-0.9c1.7-0.6,2.9-2.3,2.3-4.1C53.8,46.6,52.1,45.4,50.3,46z"/>
	<path fill="#FFFFFF" d="M21.5,74.8c-1.7-0.6-3.5,0.3-4.4,2c-0.3,1.2-0.9,2-1.2,3.2c-0.6,1.7,0.6,3.5,2.3,4.1c0.3,0,0.6,0,0.9,0
		c1.5,0,2.9-0.9,3.2-2.3c0.3-0.9,0.6-2,0.9-2.9C24.1,77.1,23.3,75.4,21.5,74.8z"/>
	<path fill="#FFFFFF" d="M105,66c-0.6-0.9-1.5-1.7-2-2.9c-1.2-1.5-3.2-1.7-4.7-0.6s-1.7,3.2-0.6,4.7c0.6,0.9,1.2,1.5,1.7,2.3
		c0.6,0.9,1.7,1.5,2.6,1.5c0.6,0,1.2-0.3,1.7-0.6C105.9,69.5,106.2,67.5,105,66z"/>
	<path fill="#FFFFFF" d="M36.4,52.7c-0.9,0.6-1.7,1.5-2.9,2c-1.5,1.2-1.7,3.2-0.6,4.7c0.6,0.9,1.7,1.2,2.6,1.2c0.6,0,1.5-0.3,2-0.6
		c0.9-0.6,1.7-1.2,2.3-1.7c1.5-1.2,2-3.2,0.9-4.7C39.9,51.8,37.8,51.5,36.4,52.7z"/>
	<path fill="#FFFFFF" d="M28.5,69.5c0.6-0.9,1.2-1.7,1.7-2.3c1.2-1.5,0.9-3.5-0.6-4.7c-1.5-1.2-3.5-0.9-4.7,0.6
		c-0.6,0.9-1.5,1.7-2,2.9c-1.2,1.5-0.6,3.5,0.9,4.7c0.6,0.3,1.2,0.6,1.7,0.6C26.8,71,27.6,70.7,28.5,69.5z"/>
	<path fill="#FFFFFF" d="M65.7,44.2c-1.2,0-2.3,0-3.5,0c-1.7,0-3.2,1.5-3.2,3.5c0,1.7,1.5,3.2,3.5,3.2c0.9,0,2,0,2.9,0l0,0
		c1.7,0,3.2-1.5,3.2-3.2C68.9,45.7,67.5,44.2,65.7,44.2z"/>
	<path fill="#FFFFFF" d="M90.5,59.9c0.6,0.6,1.5,0.6,2,0.6c0.9,0,2-0.6,2.6-1.2c1.2-1.5,0.9-3.5-0.6-4.7c-0.9-0.6-1.7-1.5-2.9-2
		c-1.5-1.2-3.5-0.6-4.7,0.9c-1.2,1.5-0.6,3.5,0.9,4.7C88.7,58.5,89.6,59.4,90.5,59.9z"/>
	<path fill="#FFFFFF" d="M75.9,52.4c0.9,0.3,2,0.6,2.9,0.9c0.3,0,0.9,0.3,1.2,0.3c1.5,0,2.6-0.9,3.2-2.3c0.6-1.7-0.3-3.5-2-4.4
		c-1.2-0.3-2-0.9-3.2-1.2c-1.7-0.6-3.5,0.6-4.1,2.3C73,50,74.2,51.8,75.9,52.4z"/>
	<path fill="#FFFFFF" d="M109.4,84.1c1.7-0.6,2.9-2.3,2.3-4.1c-0.3-1.2-0.6-2.3-1.2-3.2c-0.6-1.7-2.6-2.6-4.4-2
		c-1.7,0.6-2.6,2.6-2,4.4c0.3,0.9,0.6,1.7,0.9,2.9c0.3,1.5,1.7,2.3,3.2,2.3C108.8,84.4,109.1,84.1,109.4,84.1z"/>
	<path fill="#FFFFFF" d="M17.7,88.7L17.7,88.7c-2,0-3.5,1.5-3.5,3.2c0,0.6,0,1.2,0,1.7c0,1.7,1.5,3.2,3.2,3.2c1.7,0,3.2-1.5,3.2-3.2
		c0-0.6,0-1.2,0-1.5C20.9,90.5,19.8,88.7,17.7,88.7z"/>
	<path fill="#FFFFFF" d="M96.9,88.7c-1.7,0-3.2,1.7-3.2,3.5c0,0.6,0,0.9,0,1.5c0,1.7,1.5,3.2,3.2,3.2s3.2-1.5,3.2-3.2
		c0-0.6,0-1.2,0-1.7C100.4,90.2,98.9,88.7,96.9,88.7z"/>
	<path fill="#FFFFFF" d="M44.2,71.3c0.9-0.6,1.5-1.2,2.3-1.7c1.5-1.2,1.7-3.2,0.9-4.7c-1.2-1.5-3.2-1.7-4.7-0.9
		c-0.9,0.6-2,1.5-2.9,2.3c-1.5,1.2-1.5,3.2-0.3,4.7c0.6,0.9,1.5,1.2,2.6,1.2C42.8,72.2,43.6,71.9,44.2,71.3z"/>
	<path fill="#FFFFFF" d="M36.4,74.8c-1.7-0.9-3.5-0.3-4.7,1.5c-0.6,1.2-1.2,2-1.5,3.2c-0.6,1.7,0,3.8,1.7,4.4
		c0.3,0.3,0.9,0.3,1.2,0.3c1.2,0,2.6-0.9,3.2-2c0.3-0.9,0.9-1.7,1.2-2.6C38.7,77.7,38.1,75.6,36.4,74.8z"/>
	<path fill="#FFFFFF" d="M76.2,62.6c0.6-1.7-0.6-3.5-2.3-4.1c-1.2-0.3-2.3-0.6-3.5-0.9c-1.7-0.3-3.5,0.9-3.8,2.6
		c-0.3,1.7,0.9,3.5,2.6,3.8c0.9,0.3,2,0.3,2.9,0.6c0.3,0,0.6,0,0.9,0C74.5,65.2,75.9,64,76.2,62.6z"/>
	<path fill="#FFFFFF" d="M61.7,60.5c-0.3-1.7-2-2.9-3.8-2.6c-1.2,0.3-2.3,0.6-3.5,0.9c-1.7,0.6-2.9,2.3-2.3,4.1
		c0.3,1.5,1.7,2.3,3.2,2.3c0.3,0,0.6,0,0.9,0c0.9-0.3,2-0.6,2.9-0.6C60.5,64,62,62.3,61.7,60.5z"/>
	<path fill="#FFFFFF" d="M85.2,64c-1.5-1.2-3.5-0.9-4.7,0.9c-1.2,1.5-0.9,3.5,0.9,4.7c0.9,0.6,1.5,1.2,2.3,1.7
		c0.6,0.6,1.5,0.9,2.3,0.9c0.9,0,1.7-0.3,2.6-1.2c1.2-1.5,1.2-3.5-0.3-4.7C87.3,65.5,86.4,64.9,85.2,64z"/>
	<path fill="#FFFFFF" d="M96,83.8c1.7-0.6,2.6-2.6,1.7-4.4c-0.6-1.2-0.9-2.3-1.5-3.2c-0.9-1.7-2.9-2.3-4.7-1.5
		c-1.7,0.9-2.3,2.9-1.5,4.7c0.6,0.9,0.9,1.7,1.2,2.6c0.6,1.2,1.7,2,3.2,2C95.1,84.1,95.4,84.1,96,83.8z"/>
	<path fill="#FFFFFF" d="M31.1,88.7c-1.7,0-3.5,1.5-3.5,3.2c0,0.6,0,1.2,0,1.7c0,1.7,1.5,3.2,3.2,3.2c1.7,0,3.2-1.5,3.2-3.2
		c0-0.6,0-0.9,0-1.5C34.3,90.5,32.9,88.7,31.1,88.7z"/>
	<path fill="#FFFFFF" d="M83.8,88.7c-1.7,0.3-3.2,1.7-2.9,3.5c0,0.6,0,0.9,0,1.5c0,1.7,1.5,3.2,3.2,3.2c1.7,0,3.2-1.5,3.2-3.2
		c0-0.6,0-1.2,0-2C87.3,89.9,85.5,88.7,83.8,88.7z"/>
	<path fill="#FFFFFF" d="M66,70.4c-1.5,0-2.6,0-4.1,0c-1.7,0.3-3.2,1.7-2.9,3.5c0.3,1.7,1.7,3.2,3.5,2.9c0.9,0,2,0,2.9,0h0.3
		c1.7,0,3.2-1.2,3.2-2.9C69.2,72.2,67.8,70.7,66,70.4z"/>
	<path fill="#FFFFFF" d="M48.9,75.6c-1.2,0.9-2,1.7-2.9,2.9c-1.2,1.5-0.9,3.5,0.3,4.7c0.6,0.6,1.5,0.9,2,0.9c0.9,0,1.7-0.3,2.6-1.2
		c0.6-0.9,1.5-1.5,2-2c1.5-1.2,1.5-3.2,0.3-4.7C52.4,74.8,50.3,74.5,48.9,75.6z"/>
	<path fill="#FFFFFF" d="M82,78.8c-0.9-1.2-1.7-2-2.9-2.9c-1.5-1.2-3.5-0.9-4.7,0.3c-1.2,1.5-0.9,3.5,0.3,4.7c0.9,0.6,1.5,1.5,2,2
		c0.6,0.9,1.7,1.2,2.6,1.2c0.9,0,1.5-0.3,2-0.9C82.9,82.3,83.2,80,82,78.8z"/>
	<path fill="#FFFFFF" d="M44.2,88.7c-1.7,0-3.5,1.2-3.5,2.9c0,0.6,0,1.2,0,2c0,1.7,1.5,3.2,3.2,3.2s3.2-1.5,3.2-3.2
		c0-0.6,0-0.9,0-1.5C47.4,90.5,46,89,44.2,88.7z"/>
	<path fill="#FFFFFF" d="M126.8,91.9c0-1.7-1.5-3.2-3.5-3.2c-1.7,0-3.2,1.5-3.2,3.5c0,0.6,0,1.2,0,1.5c0,1.7,1.5,3.2,3.2,3.2
		c1.7,0,3.2-1.5,3.2-3.2C126.8,93.1,126.8,92.5,126.8,91.9z"/>
	<path fill="#FFFFFF" d="M122.5,83.2c1.7-0.3,2.9-2.3,2.6-4.1c-0.3-1.2-0.6-2.3-0.9-3.5c-0.6-1.7-2.3-2.6-4.1-2.3
		c-1.7,0.6-2.6,2.3-2.3,4.1c0.3,1.2,0.6,2,0.9,3.2c0.3,1.5,1.7,2.6,3.2,2.6C122.2,83.5,122.5,83.5,122.5,83.2z"/>
	<path fill="#FFFFFF" d="M62.3,37.5L62.3,37.5c1.2,0,2.3,0,3.5,0l0,0c1.7,0,3.2-1.5,3.2-3.2s-1.5-3.5-3.2-3.5c-1.2,0-2.3,0-3.8,0
		c-1.7,0-3.2,1.5-3.2,3.5C59.1,36.1,60.5,37.5,62.3,37.5z"/>
	<path fill="#FFFFFF" d="M104.7,55.3c0.6,0.6,1.5,1.2,2.3,1.2c0.9,0,1.7-0.3,2.3-0.9c1.5-1.2,1.5-3.5,0-4.7
		c-0.9-0.9-1.7-1.7-2.6-2.6c-1.5-1.2-3.5-1.2-4.7,0c-1.2,1.5-1.2,3.5,0,4.7C103.3,53.5,104.1,54.4,104.7,55.3z"/>
	<path fill="#FFFFFF" d="M90.8,44.2c0.9,0.6,2,1.2,2.9,1.7c0.6,0.3,1.2,0.6,1.7,0.6c1.2,0,2.3-0.6,2.9-1.5c0.9-1.5,0.6-3.5-1.2-4.7
		c-1.2-0.6-2-1.2-3.2-1.7c-1.7-0.9-3.5-0.3-4.4,1.5C88.4,41.3,89,43.4,90.8,44.2z"/>
	<path fill="#FFFFFF" d="M77.1,39c1.2,0.3,2,0.6,3.2,0.9c0.3,0,0.6,0,0.9,0c1.5,0,2.6-0.9,3.2-2.3c0.6-1.7-0.6-3.5-2.3-4.1
		c-1.2-0.3-2.3-0.6-3.5-0.9c-1.7-0.3-3.5,0.6-4.1,2.3C74.2,37,75.1,38.7,77.1,39z"/>
	<path fill="#FFFFFF" d="M20.7,56.2c0.9,0,1.7-0.3,2.3-1.2c0.9-0.9,1.5-1.5,2.3-2.3c1.5-1.2,1.5-3.5,0-4.7c-1.2-1.5-3.5-1.5-4.7,0
		c-0.9,0.9-1.7,1.7-2.6,2.6c-1.2,1.5-1.2,3.5,0,4.7C19.2,55.9,20.1,56.2,20.7,56.2z"/>
	<path fill="#FFFFFF" d="M119.3,64c-0.6-1.2-1.2-2-1.7-3.2c-0.9-1.5-2.9-2-4.7-1.2c-1.5,0.9-2,2.9-1.2,4.7c0.6,0.9,1.2,1.7,1.7,2.9
		c0.6,1.2,1.7,1.7,2.9,1.7c0.6,0,1.2,0,1.5-0.3C119.6,67.5,120.1,65.5,119.3,64z"/>
	<path fill="#FFFFFF" d="M16.3,64.3c0.9-1.5,0.6-3.5-1.2-4.7c-1.5-0.9-3.5-0.6-4.7,1.2c-0.6,0.9-1.2,2-1.7,3.2
		c-0.9,1.7-0.3,3.5,1.5,4.4c0.6,0.3,1.2,0.3,1.5,0.3c1.2,0,2.3-0.6,2.9-1.7C15.1,66,15.7,65.2,16.3,64.3z"/>
	<path fill="#FFFFFF" d="M8.1,73.3c-1.7-0.6-3.5,0.6-4.1,2.3c-0.3,1.2-0.6,2.3-0.9,3.5c-0.3,1.7,0.6,3.5,2.6,4.1c0.3,0,0.6,0,0.9,0
		c1.5,0,2.9-1.2,3.2-2.6c0.3-1.2,0.6-2,0.9-3.2C10.8,75.9,9.9,73.9,8.1,73.3z"/>
	<path fill="#FFFFFF" d="M32.9,46.6c0.6,0,1.2-0.3,1.7-0.6c0.9-0.6,1.7-1.2,2.9-1.7c1.7-0.9,2.3-2.9,1.5-4.4
		c-0.9-1.7-2.9-2.3-4.4-1.5c-1.2,0.6-2,1.2-3.2,1.7c-1.5,0.9-2,2.9-1.2,4.7C30.5,46,31.7,46.6,32.9,46.6z"/>
	<path fill="#FFFFFF" d="M47.1,40.2c0.3,0,0.6,0,0.9,0c1.2-0.3,2-0.6,3.2-0.9c1.7-0.3,2.9-2.3,2.6-4.1c-0.3-1.7-2.3-2.9-4.1-2.6
		c-1.2,0.3-2.3,0.6-3.5,0.9c-1.7,0.6-2.6,2.3-2.3,4.1S45.7,40.2,47.1,40.2z"/>
	<path fill="#FFFFFF" d="M4.7,88.7c-1.7,0-3.5,1.5-3.5,3.2c0,0.6,0,1.2,0,1.7c0,1.7,1.5,3.2,3.2,3.2s3.2-1.5,3.2-3.2
		c0-0.6,0-1.2,0-1.5C7.9,90.2,6.4,88.7,4.7,88.7z"/>
</g>
</svg>
