<?xml version="1.0" encoding="UTF-8" standalone="no"?>
<svg width="48px" height="48px" viewBox="0 0 48 48" version="1.1" xmlns="http://www.w3.org/2000/svg" xmlns:xlink="http://www.w3.org/1999/xlink" xmlns:sketch="http://www.bohemiancoding.com/sketch/ns">
    <!-- Generator: Sketch 3.1.1 (8761) - http://www.bohemiancoding.com/sketch -->
    <title>icono_propiedad</title>
    <desc>Created with Sketch.</desc>
    <defs></defs>
    <g id="Page-1" stroke="none" stroke-width="1" fill="none" fill-rule="evenodd" sketch:type="MSPage">
        <g id="icono_propiedad" sketch:type="MSArtboardGroup" fill="#FFFFFF">
            <g id="Imported-Layers" sketch:type="MSLayerGroup" transform="translate(8.000000, 9.000000)">
                <path d="M25.929,8.419 C26.053,8.543 26.219,8.609 26.388,8.609 C26.471,8.609 26.556,8.593 26.636,8.559 C26.879,8.459 27.037,8.222 27.037,7.96 L27.037,2.12 C27.037,1.761 26.747,1.471 26.388,1.471 L20.547,1.471 C20.285,1.471 20.048,1.629 19.948,1.871 C19.847,2.114 19.903,2.393 20.089,2.578 L25.929,8.419" id="Fill-1" sketch:type="MSShapeGroup"></path>
                <path d="M3.675,15.255 L3.675,30.024 L12.76,30.024 L12.76,20.939 L17.952,20.939 L17.952,30.024 L27.037,30.024 L27.037,15.255 L15.356,3.575 L3.675,15.255" id="Fill-2" sketch:type="MSShapeGroup"></path>
                <path d="M30.882,15.502 C30.853,15.432 30.808,15.367 30.754,15.309 C30.748,15.303 30.746,15.295 30.74,15.289 L15.815,0.363 C15.566,0.114 15.146,0.114 14.897,0.363 L-0.028,15.288 C-0.092,15.352 -0.139,15.425 -0.171,15.503 C-0.202,15.579 -0.218,15.661 -0.218,15.747 C-0.218,15.833 -0.202,15.916 -0.17,15.993 C-0.141,16.063 -0.096,16.127 -0.042,16.186 C-0.036,16.191 -0.034,16.2 -0.028,16.206 C0.218,16.453 0.632,16.453 0.881,16.211 C0.884,16.209 0.887,16.208 0.889,16.206 L15.356,1.739 L29.823,16.206 C29.825,16.208 29.828,16.209 29.831,16.211 C30.078,16.451 30.485,16.451 30.732,16.211 C30.735,16.209 30.738,16.208 30.74,16.206 C30.804,16.143 30.851,16.069 30.883,15.992 C30.914,15.916 30.93,15.833 30.93,15.747 C30.93,15.662 30.913,15.579 30.882,15.502" id="Fill-3" sketch:type="MSShapeGroup"></path>
            </g>
        </g>
    </g>
</svg>