<?xml version="1.0" encoding="UTF-8" standalone="no"?>
<svg width="48px" height="48px" viewBox="0 0 48 48" version="1.1" xmlns="http://www.w3.org/2000/svg" xmlns:xlink="http://www.w3.org/1999/xlink" xmlns:sketch="http://www.bohemiancoding.com/sketch/ns">
    <!-- Generator: Sketch 3.1.1 (8761) - http://www.bohemiancoding.com/sketch -->
    <title>icono_religion</title>
    <desc>Created with Sketch.</desc>
    <defs></defs>
    <g id="Page-1" stroke="none" stroke-width="1" fill="none" fill-rule="evenodd" sketch:type="MSPage">
        <g id="icono_religion" sketch:type="MSArtboardGroup" fill="#FFFFFF">
            <path d="M36.587,14.47 L28.117,14.47 L28.117,6.943 C28.117,6.422 27.694,6 27.174,6 L21.357,6 C20.836,6 20.414,6.422 20.414,6.943 L20.414,14.47 L11.944,14.47 C11.423,14.47 11,14.893 11,15.414 L11,21.23 C11,21.751 11.423,22.173 11.944,22.173 L20.414,22.173 L20.414,41.019 C20.414,41.54 20.836,41.962 21.357,41.962 L27.174,41.962 C27.694,41.962 28.117,41.54 28.117,41.019 L28.117,22.173 L36.587,22.173 C37.108,22.173 37.53,21.751 37.53,21.23 L37.53,15.414 C37.53,14.893 37.108,14.47 36.587,14.47" id="Imported-Layers" sketch:type="MSShapeGroup"></path>
        </g>
    </g>
</svg>