<?xml version="1.0" encoding="utf-8"?>
<!-- Generator: Adobe Illustrator 18.1.1, SVG Export Plug-In . SVG Version: 6.00 Build 0)  -->
<svg version="1.1" id="Layer_1" xmlns="http://www.w3.org/2000/svg" xmlns:xlink="http://www.w3.org/1999/xlink" x="0px" y="0px"
	 viewBox="0 329.1 613.5 133.5" enable-background="new 0 329.1 613.5 133.5" xml:space="preserve">
<path fill="#4DB8DE" d="M79,423.9c-5.9,3.5-13,5.4-20.4,4.8c-15.5-1.3-28.4-13.9-30.1-29.5c-2.2-20.2,13.4-37.2,33.1-37.2
	c6.2,0,12.1,1.7,17.1,4.8c4,2.4,9.2,1.6,12.5-1.7l2.4-2.4c5.6-5.6,3.1-15.6-4.8-17.4h-0.1h-0.2c-3.7-0.7-7.2-2.2-10.3-4.3l-0.2-0.1
	c-4.9-3.3-10.6-4.9-16.3-4.9s-11.4,1.6-16.3,4.9l-0.4,0.2c-3.2,2.1-6.6,3.5-10.3,4.3h-0.2c-11.6,2.4-20.7,11.5-23,23v0.2
	c-0.7,3.7-2.2,7.2-4.3,10.3l-0.1,0.2c-6.5,9.9-6.5,22.6,0,32.5l0,0.2c2.1,3.2,3.5,6.6,4.3,10.3v0.2c2.4,11.6,11.5,20.7,23,23h0.2
	c3.7,0.7,7.2,2.2,10.3,4.3l0.2,0.1c9.9,6.5,22.7,6.5,32.5,0l0.2-0.1c3.2-2.1,6.6-3.5,10.3-4.3h0.2c0.2,0,0.5-0.1,0.6-0.1
	c7.9-1.8,10.5-11.7,4.8-17.5l-2.4-2.4C88.4,422.1,83.2,421.5,79,423.9z"/>
<g opacity="0.5">
	
		<linearGradient id="SVGID_1_" gradientUnits="userSpaceOnUse" x1="33.349" y1="759.3508" x2="48.0471" y2="774.0488" gradientTransform="matrix(1.2223 0 0 -1.2223 -6.668663e-02 1302.6327)">
		<stop  offset="0" style="stop-color:#FFFFFF;stop-opacity:0"/>
		<stop  offset="0.2584" style="stop-color:#C1C1C1;stop-opacity:0.2584"/>
		<stop  offset="0.8528" style="stop-color:#272727;stop-opacity:0.8528"/>
		<stop  offset="1" style="stop-color:#000000"/>
	</linearGradient>
	<path opacity="0.3" fill="url(#SVGID_1_)" enable-background="new    " d="M43.9,341.9c-5,2.9-9.3,3.5-9.3,3.5
		c-5.7,1.2-11,4-14.9,8.1l41.9,41.9L43.9,341.9z"/>
	
		<linearGradient id="SVGID_2_" gradientUnits="userSpaceOnUse" x1="26.3" y1="742.2" x2="26.3" y2="763" gradientTransform="matrix(1.2223 0 0 -1.2223 -6.668663e-02 1302.6327)">
		<stop  offset="0" style="stop-color:#FFFFFF;stop-opacity:0"/>
		<stop  offset="0.2584" style="stop-color:#C1C1C1;stop-opacity:0.2584"/>
		<stop  offset="0.8528" style="stop-color:#272727;stop-opacity:0.8528"/>
		<stop  offset="1" style="stop-color:#000000"/>
	</linearGradient>
	<path opacity="0.3" fill="url(#SVGID_2_)" enable-background="new    " d="M11.3,370c-1.5,5.6-4,9.2-4,9.2
		c-3.3,4.9-4.9,10.6-4.9,16.3h59.4L11.3,370z"/>
	
		<linearGradient id="SVGID_3_" gradientUnits="userSpaceOnUse" x1="34.619" y1="723.33" x2="20.8984" y2="739.6815" gradientTransform="matrix(1.2223 0 0 -1.2223 -6.668663e-02 1302.6327)">
		<stop  offset="0" style="stop-color:#FFFFFF;stop-opacity:0"/>
		<stop  offset="0.2584" style="stop-color:#C1C1C1;stop-opacity:0.2584"/>
		<stop  offset="0.8528" style="stop-color:#272727;stop-opacity:0.8528"/>
		<stop  offset="1" style="stop-color:#000000"/>
	</linearGradient>
	<path opacity="0.3" fill="url(#SVGID_3_)" enable-background="new    " d="M8,413.2c2.9,5,3.5,9.3,3.5,9.3c1.2,5.7,4,11,8.1,14.9
		l41.9-41.9L8,413.2z"/>
	
		<linearGradient id="SVGID_4_" gradientUnits="userSpaceOnUse" x1="54.6233" y1="716.9842" x2="33.2021" y2="720.7614" gradientTransform="matrix(1.2223 0 0 -1.2223 -6.668663e-02 1302.6327)">
		<stop  offset="0" style="stop-color:#FFFFFF;stop-opacity:0"/>
		<stop  offset="0.2584" style="stop-color:#C1C1C1;stop-opacity:0.2584"/>
		<stop  offset="0.8528" style="stop-color:#272727;stop-opacity:0.8528"/>
		<stop  offset="1" style="stop-color:#000000"/>
	</linearGradient>
	<path opacity="0.3" fill="url(#SVGID_4_)" enable-background="new    " d="M36.2,445.9c5.6,1.5,9.2,4,9.2,4
		c4.9,3.3,10.6,4.9,16.3,4.9v-59.4L36.2,445.9z"/>
</g>
<circle fill="#FFD500" cx="61.7" cy="395.4" r="15.2"/>
<g>
	
		<linearGradient id="SVGID_5_" gradientUnits="userSpaceOnUse" x1="79.9727" y1="710.5383" x2="78.6868" y2="709.796" gradientTransform="matrix(1.2223 0 0 -1.2223 -6.668663e-02 1302.6327)">
		<stop  offset="0" style="stop-color:#FFFFFF;stop-opacity:0"/>
		<stop  offset="0.1225" style="stop-color:#FBFBFB;stop-opacity:6.124549e-02"/>
		<stop  offset="0.2476" style="stop-color:#EFEFEF;stop-opacity:0.1238"/>
		<stop  offset="0.374" style="stop-color:#DADADA;stop-opacity:0.187"/>
		<stop  offset="0.5013" style="stop-color:#BDBDBD;stop-opacity:0.2507"/>
		<stop  offset="0.6294" style="stop-color:#989898;stop-opacity:0.3147"/>
		<stop  offset="0.7582" style="stop-color:#6B6B6B;stop-opacity:0.3791"/>
		<stop  offset="0.8849" style="stop-color:#373737;stop-opacity:0.4424"/>
		<stop  offset="1" style="stop-color:#000000;stop-opacity:0.5"/>
	</linearGradient>
	<path opacity="0.3" fill="url(#SVGID_5_)" enable-background="new    " d="M96.9,436.4c0.1-1.2,0.4-2.3,0-3.5
		C97.2,434.1,97,435.2,96.9,436.4z"/>
	
		<linearGradient id="SVGID_6_" gradientUnits="userSpaceOnUse" x1="66.5503" y1="732.223" x2="54.0623" y2="725.0131" gradientTransform="matrix(1.2223 0 0 -1.2223 -6.668663e-02 1302.6327)">
		<stop  offset="0" style="stop-color:#FFFFFF;stop-opacity:0"/>
		<stop  offset="0.1225" style="stop-color:#FBFBFB;stop-opacity:6.124549e-02"/>
		<stop  offset="0.2476" style="stop-color:#EFEFEF;stop-opacity:0.1238"/>
		<stop  offset="0.374" style="stop-color:#DADADA;stop-opacity:0.187"/>
		<stop  offset="0.5013" style="stop-color:#BDBDBD;stop-opacity:0.2507"/>
		<stop  offset="0.6294" style="stop-color:#989898;stop-opacity:0.3147"/>
		<stop  offset="0.7582" style="stop-color:#6B6B6B;stop-opacity:0.3791"/>
		<stop  offset="0.8849" style="stop-color:#373737;stop-opacity:0.4424"/>
		<stop  offset="1" style="stop-color:#000000;stop-opacity:0.5"/>
	</linearGradient>
	<path opacity="0.3" fill="url(#SVGID_6_)" enable-background="new    " d="M61.7,395.4L72,426.9c2.4-0.9,4.9-1.6,7.1-2.9
		c3.9-2.4,9-1.8,12.3,1.3L61.7,395.4z"/>
	
		<linearGradient id="SVGID_7_" gradientUnits="userSpaceOnUse" x1="78.3268" y1="714.0309" x2="78.0789" y2="713.8879" gradientTransform="matrix(1.2223 0 0 -1.2223 -6.668663e-02 1302.6327)">
		<stop  offset="0" style="stop-color:#FFFFFF;stop-opacity:0"/>
		<stop  offset="0.1225" style="stop-color:#FBFBFB;stop-opacity:6.124549e-02"/>
		<stop  offset="0.2476" style="stop-color:#EFEFEF;stop-opacity:0.1238"/>
		<stop  offset="0.374" style="stop-color:#DADADA;stop-opacity:0.187"/>
		<stop  offset="0.5013" style="stop-color:#BDBDBD;stop-opacity:0.2507"/>
		<stop  offset="0.6294" style="stop-color:#989898;stop-opacity:0.3147"/>
		<stop  offset="0.7582" style="stop-color:#6B6B6B;stop-opacity:0.3791"/>
		<stop  offset="0.8849" style="stop-color:#373737;stop-opacity:0.4424"/>
		<stop  offset="1" style="stop-color:#000000;stop-opacity:0.5"/>
	</linearGradient>
	<path opacity="0.3" fill="url(#SVGID_7_)" enable-background="new    " d="M94.7,428.5l-0.4-0.4c1.1,1.1,1.7,2.6,2.2,3.9
		C96,430.8,95.6,429.4,94.7,428.5z"/>
	
		<linearGradient id="SVGID_8_" gradientUnits="userSpaceOnUse" x1="79.4396" y1="706.777" x2="77.9685" y2="705.9277" gradientTransform="matrix(1.2223 0 0 -1.2223 -6.668663e-02 1302.6327)">
		<stop  offset="0" style="stop-color:#FFFFFF;stop-opacity:0"/>
		<stop  offset="0.1225" style="stop-color:#FBFBFB;stop-opacity:6.124549e-02"/>
		<stop  offset="0.2476" style="stop-color:#EFEFEF;stop-opacity:0.1238"/>
		<stop  offset="0.374" style="stop-color:#DADADA;stop-opacity:0.187"/>
		<stop  offset="0.5013" style="stop-color:#BDBDBD;stop-opacity:0.2507"/>
		<stop  offset="0.6294" style="stop-color:#989898;stop-opacity:0.3147"/>
		<stop  offset="0.7582" style="stop-color:#6B6B6B;stop-opacity:0.3791"/>
		<stop  offset="0.8849" style="stop-color:#373737;stop-opacity:0.4424"/>
		<stop  offset="1" style="stop-color:#000000;stop-opacity:0.5"/>
	</linearGradient>
	<path opacity="0.3" fill="url(#SVGID_8_)" enable-background="new    " d="M95.5,440.3c0.4-0.7,1-1.3,1.2-2.1
		C96.5,439.1,96,439.7,95.5,440.3z"/>
	
		<linearGradient id="SVGID_9_" gradientUnits="userSpaceOnUse" x1="76.975" y1="703.4718" x2="74.9899" y2="702.3257" gradientTransform="matrix(1.2223 0 0 -1.2223 -6.668663e-02 1302.6327)">
		<stop  offset="0" style="stop-color:#FFFFFF;stop-opacity:0"/>
		<stop  offset="0.1225" style="stop-color:#FBFBFB;stop-opacity:6.124549e-02"/>
		<stop  offset="0.2476" style="stop-color:#EFEFEF;stop-opacity:0.1238"/>
		<stop  offset="0.374" style="stop-color:#DADADA;stop-opacity:0.187"/>
		<stop  offset="0.5013" style="stop-color:#BDBDBD;stop-opacity:0.2507"/>
		<stop  offset="0.6294" style="stop-color:#989898;stop-opacity:0.3147"/>
		<stop  offset="0.7582" style="stop-color:#6B6B6B;stop-opacity:0.3791"/>
		<stop  offset="0.8849" style="stop-color:#373737;stop-opacity:0.4424"/>
		<stop  offset="1" style="stop-color:#000000;stop-opacity:0.5"/>
	</linearGradient>
	<path opacity="0.3" fill="url(#SVGID_9_)" enable-background="new    " d="M91.6,444.1c0.9-0.5,1.8-0.7,2.4-1.3
		C93.3,443.4,92.5,443.7,91.6,444.1z"/>
</g>
<linearGradient id="SVGID_10_" gradientUnits="userSpaceOnUse" x1="50.5" y1="755.85" x2="62.6857" y2="755.85" gradientTransform="matrix(1.2223 0 0 -1.2223 -6.668663e-02 1302.6327)">
	<stop  offset="0" style="stop-color:#FFFFFF;stop-opacity:0"/>
	<stop  offset="0.2584" style="stop-color:#C1C1C1;stop-opacity:0.1292"/>
	<stop  offset="0.8528" style="stop-color:#272727;stop-opacity:0.4264"/>
	<stop  offset="1" style="stop-color:#000000;stop-opacity:0.5"/>
</linearGradient>
<path opacity="0.3" fill="url(#SVGID_10_)" enable-background="new    " d="M61.7,362.1v33.4l14.9-29.6
	C72,363.7,67,362.1,61.7,362.1z"/>
<path fill="#264F64" d="M140.6,376c5.3,0,9.2,1.6,12.8,4.9c0.5,0.4,0.5,1.1,0.1,1.5l-4.1,4.3c-0.4,0.4-0.9,0.4-1.3,0
	c-1.9-1.7-4.5-2.7-7.1-2.7c-6,0-10.3,5-10.3,10.9c0,5.9,4.4,10.7,10.4,10.7c2.5,0,5.2-0.9,7.1-2.5c0.4-0.3,1.1-0.3,1.4,0.1l4.1,4.4
	c0.4,0.4,0.3,1.1-0.1,1.4c-3.6,3.5-8.1,5.1-12.8,5.1c-10.5,0-19-8.4-19-18.9S130,376,140.6,376z"/>
<path fill="#264F64" d="M178.4,376c10.5,0,19,8.5,19,19s-8.4,18.9-19,18.9c-10.5,0-18.9-8.4-18.9-18.9S167.9,376,178.4,376z
	 M178.4,405.5c5.8,0,10.5-4.7,10.5-10.5c0-5.8-4.7-10.6-10.5-10.6c-5.7,0-10.5,4.8-10.5,10.6C167.9,400.8,172.7,405.5,178.4,405.5z"
	/>
<path fill="#264F64" d="M206.4,376.9c0-0.5,0.5-0.9,1-0.9h1.3l21,20.2h0.1v-18.7c0-0.5,0.4-1,1-1h6.3c0.5,0,1,0.5,1,1V413
	c0,0.5-0.5,0.9-1,0.9h-0.8c-0.2,0-0.6-0.2-0.7-0.3l-20.8-20.9h-0.1v19.7c0,0.5-0.4,1-1,1h-6.3c-0.5,0-1-0.5-1-1L206.4,376.9z"/>
<path fill="#264F64" d="M247.7,408.4l2.5-4.4c0.4-0.7,1.4-0.6,1.8-0.3c0.2,0.1,4,2.9,7.5,2.9c2.1,0,3.6-1.3,3.6-3.2
	c0-2.2-1.8-3.9-5.4-5.3c-4.5-1.8-10.2-5.3-10.2-11.6c0-5.2,4.1-10.5,12.2-10.5c5.5,0,9.7,2.8,11.3,4c0.6,0.4,0.5,1.3,0.3,1.7
	l-2.7,4.1c-0.4,0.6-1.3,1.1-1.8,0.7c-0.5-0.3-4.3-3.2-7.5-3.2c-1.9,0-3.3,1.3-3.3,2.7c0,2,1.6,3.4,5.7,5.1c4.1,1.6,10.6,4.8,10.6,12
	c0,5.4-4.7,10.9-12.4,10.9c-6.9,0-10.6-2.8-11.9-4.1C247.4,409.4,247.2,409.1,247.7,408.4z"/>
<path fill="#264F64" d="M286,384.3h-7.5c-0.6,0-1-0.5-1-1v-5.7c0-0.5,0.4-1,1-1h23.4c0.6,0,1,0.5,1,1v5.7c0,0.5-0.4,1-1,1h-7.5v28.1
	c0,0.5-0.5,1-1,1H287c-0.5,0-1-0.5-1-1V384.3z"/>
<path fill="#264F64" d="M310.8,377.5c0-0.5,0.5-1,1-1h6.3c0.5,0,1,0.5,1,1v34.9c0,0.5-0.5,1-1,1h-6.3c-0.5,0-1-0.5-1-1V377.5z"/>
<path fill="#264F64" d="M335.6,384.3H328c-0.6,0-1-0.5-1-1v-5.7c0-0.5,0.4-1,1-1h23.4c0.6,0,1,0.5,1,1v5.7c0,0.5-0.4,1-1,1h-7.5
	v28.1c0,0.5-0.5,1-1,1h-6.3c-0.5,0-1-0.5-1-1V384.3z"/>
<path fill="#264F64" d="M359.8,377.5c0-0.5,0.5-1,1-1h6.5c0.6,0,1,0.5,1,1v21.3c0,3.7,2.7,6.6,6.5,6.6c3.8,0,6.6-3,6.6-6.6v-21.3
	c0-0.5,0.4-1,1-1h6.5c0.5,0,1,0.5,1,1v21.8c0,8-6.7,14.7-15.1,14.7c-8.3,0-15-6.6-15-14.7V377.5z"/>
<path fill="#264F64" d="M417.3,376c5.3,0,9.2,1.6,12.8,4.9c0.5,0.4,0.5,1.1,0.1,1.5l-4.1,4.3c-0.4,0.4-0.9,0.4-1.3,0
	c-2-1.7-4.5-2.7-7.1-2.7c-6,0-10.3,5-10.3,10.9c0,5.9,4.4,10.7,10.4,10.7c2.5,0,5.2-0.9,7.1-2.5c0.4-0.3,1.1-0.3,1.4,0.1l4.1,4.4
	c0.4,0.4,0.3,1.1-0.1,1.4c-3.6,3.5-8.1,5.1-12.8,5.1c-10.5,0-19-8.4-19-18.9S406.8,376,417.3,376z"/>
<path fill="#264F64" d="M439.1,377.5c0-0.5,0.5-1,1-1h6.3c0.5,0,1,0.5,1,1v34.9c0,0.5-0.5,1-1,1h-6.3c-0.5,0-1-0.5-1-1V377.5z"/>
<path fill="#4DB8DE" d="M599.1,374c0-0.5,0.4-0.9,0.9-0.9h5.8c0.5,0,0.9,0.4,0.9,0.9v38.5c0,0.5-0.4,0.9-0.9,0.9h-5.8
	c-0.5,0-0.9-0.4-0.9-0.9V374z"/>
<path fill="#4DB8DE" d="M549.4,366.5c0-0.5,0.5-1,1-1h1.3c0.5,0,1,0.5,1,1v54.9c0,0.5-0.5,1-1,1h-1.3c-0.5,0-1-0.5-1-1V366.5z"/>
<path fill="#264F64" d="M475.2,376c10.5,0,19,8.5,19,19s-8.4,18.9-19,18.9c-10.5,0-18.9-8.4-18.9-18.9S464.6,376,475.2,376z
	 M475.2,405.5c5.8,0,10.5-4.7,10.5-10.5c0-5.8-4.7-10.6-10.5-10.6c-5.7,0-10.5,4.8-10.5,10.6C464.7,400.8,469.4,405.5,475.2,405.5z"
	/>
<path fill="#264F64" d="M503.3,376.9c0-0.5,0.5-0.9,1-0.9h1.3l21,20.2h0.1v-18.7c0-0.5,0.4-1,1-1h6.3c0.5,0,1,0.5,1,1V413
	c0,0.5-0.5,0.9-1,0.9h-0.8c-0.2,0-0.6-0.2-0.7-0.3l-20.8-20.9h-0.1v19.7c0,0.5-0.4,1-1,1h-6.3c-0.5,0-1-0.5-1-1L503.3,376.9z"/>
<path fill="#4DB8DE" d="M576.9,392.5c3.5,0,6.5,1,6.5,1c0.1-5.2-0.9-7.3-5.1-7.3c-3.8,0-7.5,1-9.3,1.5c-1,0.2-1.6-0.4-1.8-1.3
	l-0.7-3.1c-0.2-1.1,0.3-1.7,1.1-1.9c0.6-0.2,5.3-1.9,11.4-1.9c10.6,0,11.6,6.5,11.6,14.8v17.7c0,0.8-0.7,1.6-1.6,1.6h-2.3
	c-0.7,0-1.1-0.3-1.4-1.2l-0.8-2.2c-1.8,1.7-5.1,4.2-10.2,4.2c-6.2,0-10.7-4.2-10.7-11.1C563.7,397.1,568.5,392.5,576.9,392.5z
	 M575.9,408.4c3.3,0,6.5-2.5,7.5-4.1V399c-0.5-0.3-2.8-1.3-5.8-1.3c-4,0-6.7,2.1-6.7,5.5C570.9,406.1,572.9,408.4,575.9,408.4z"/>
</svg>
