<?xml version="1.0" encoding="utf-8"?>
<!-- Generator: Adobe Illustrator 17.1.0, SVG Export Plug-In . SVG Version: 6.00 Build 0)  -->
<!DOCTYPE svg PUBLIC "-//W3C//DTD SVG 1.1//EN" "http://www.w3.org/Graphics/SVG/1.1/DTD/svg11.dtd">
<svg version="1.1" id="Layer_1" xmlns:sketch="http://www.bohemiancoding.com/sketch/ns"
	 xmlns="http://www.w3.org/2000/svg" xmlns:xlink="http://www.w3.org/1999/xlink" x="0px" y="0px" viewBox="0 0 220 65"
	 enable-background="new 0 0 220 65" xml:space="preserve">
<title>Artboard 1</title>
<desc>Created with Sketch.</desc>
<g id="Page-1" sketch:type="MSPage">
	<g id="Artboard-1" sketch:type="MSArtboardGroup">
		<path id="Shape" sketch:type="MSShapeGroup" d="M32.4,0.5c9,0,16.6,3.1,22.9,9.4c3,3,5.3,6.4,6.9,10.3c1.6,3.9,2.3,8,2.3,12.3
			c0,4.4-0.8,8.5-2.3,12.3c-1.5,3.8-3.8,7.2-6.8,10.1c-3.1,3.1-6.7,5.4-10.6,7.1c-4,1.6-8.1,2.5-12.3,2.5s-8.3-0.8-12.1-2.4
			c-3.9-1.6-7.3-4-10.4-7c-3.1-3.1-5.4-6.5-7-10.4s-2.4-7.9-2.4-12.2c0-4.2,0.8-8.3,2.4-12.2s4-7.4,7.1-10.5
			C16.1,3.6,23.6,0.5,32.4,0.5L32.4,0.5z M32.6,6.3c-7.3,0-13.5,2.6-18.5,7.7c-2.5,2.6-4.4,5.4-5.8,8.6c-1.4,3.2-2,6.5-2,10
			c0,3.4,0.7,6.7,2,9.9c1.4,3.2,3.3,6,5.8,8.5c2.5,2.5,5.4,4.4,8.5,5.7c3.2,1.3,6.5,2,9.9,2c3.4,0,6.8-0.7,10-2
			c3.2-1.3,6.1-3.3,8.7-5.8c5-4.9,7.5-11,7.5-18.3c0-3.5-0.6-6.9-1.9-10.1c-1.3-3.2-3.2-6-5.7-8.5C46,8.8,39.8,6.3,32.6,6.3
			L32.6,6.3z M32.2,27.2l-4.3,2.2c-0.5-1-1-1.6-1.7-2c-0.7-0.4-1.3-0.6-1.9-0.6c-2.9,0-4.3,1.9-4.3,5.7c0,1.7,0.4,3.1,1.1,4.1
			c0.7,1,1.8,1.5,3.2,1.5c1.9,0,3.2-0.9,3.9-2.7l3.9,2c-0.8,1.6-2,2.8-3.5,3.7c-1.5,0.9-3.1,1.3-4.9,1.3c-2.9,0-5.2-0.9-6.9-2.6
			c-1.8-1.8-2.6-4.2-2.6-7.3c0-3,0.9-5.5,2.7-7.3c1.8-1.8,4-2.7,6.7-2.7C27.6,22.6,30.4,24.1,32.2,27.2L32.2,27.2z M50.6,27.2
			l-4.2,2.2c-0.5-1-1-1.6-1.7-2c-0.7-0.4-1.3-0.6-1.9-0.6c-2.9,0-4.3,1.9-4.3,5.7c0,1.7,0.4,3.1,1.1,4.1c0.7,1,1.8,1.5,3.2,1.5
			c1.9,0,3.2-0.9,3.9-2.7l4,2c-0.9,1.6-2.1,2.8-3.5,3.7c-1.5,0.9-3.1,1.3-4.9,1.3c-2.9,0-5.2-0.9-6.9-2.6c-1.7-1.8-2.6-4.2-2.6-7.3
			c0-3,0.9-5.5,2.7-7.3c1.8-1.8,4-2.7,6.7-2.7C46.1,22.6,48.9,24.1,50.6,27.2L50.6,27.2z"/>
		<path id="Shape_1_" sketch:type="MSShapeGroup" d="M109.9,1c9,0,16.6,3.1,22.7,9.3C138.9,16.5,142,24,142,33c0,9-3,16.5-9.1,22.5
			c-6.5,6.4-14.1,9.5-22.9,9.5c-8.6,0-16.2-3.1-22.5-9.4C81.1,49.3,78,41.8,78,33c0-8.8,3.1-16.3,9.4-22.7C93.6,4.1,101.1,1,109.9,1
			L109.9,1z M110.1,6.8c-7.3,0-13.4,2.6-18.5,7.7C86.4,19.8,83.8,26,83.8,33c0,7.1,2.6,13.2,7.8,18.4c5.2,5.2,11.4,7.8,18.5,7.8
			c7.1,0,13.3-2.6,18.6-7.8c5-4.8,7.5-11,7.5-18.3c0-7.3-2.6-13.5-7.7-18.6C123.5,9.3,117.3,6.8,110.1,6.8L110.1,6.8z M118.6,25.1
			v13.1H115v15.5H105V38.1h-3.7V25.1c0-0.6,0.2-1.1,0.6-1.5c0.4-0.4,0.9-0.6,1.5-0.6h13.1c0.5,0,1,0.2,1.4,0.6
			C118.4,24,118.6,24.5,118.6,25.1L118.6,25.1z M105.5,16.8c0-3,1.5-4.5,4.5-4.5s4.5,1.5,4.5,4.5c0,3-1.5,4.5-4.5,4.5
			S105.5,19.8,105.5,16.8L105.5,16.8z"/>
		<path id="Shape_2_" sketch:type="MSShapeGroup" d="M186.9,0c9,0,16.5,3.1,22.7,9.3C215.9,15.5,219,23,219,32s-3,16.5-9.1,22.5
			c-6.4,6.3-14.1,9.5-22.9,9.5c-8.6,0-16.2-3.1-22.5-9.4c-6.3-6.3-9.4-13.8-9.4-22.6c0-8.7,3.1-16.3,9.4-22.7
			C170.6,3.1,178.1,0,186.9,0L186.9,0z M187.1,5.8c-7.3,0-13.4,2.6-18.5,7.7c-5.2,5.3-7.8,11.5-7.8,18.5c0,7.1,2.6,13.3,7.8,18.4
			c5.2,5.2,11.4,7.8,18.5,7.8c7.1,0,13.3-2.6,18.6-7.8c5-4.9,7.5-11,7.5-18.3c0-7.3-2.6-13.5-7.7-18.5
			C200.5,8.3,194.3,5.8,187.1,5.8L187.1,5.8z M199.1,24.5v5.5h-23.3v-5.5H199.1L199.1,24.5z M199.1,34.7v5.5h-23.3v-5.5H199.1
			L199.1,34.7z"/>
	</g>
</g>
</svg>
