<?xml version="1.0" encoding="utf-8"?>
<!-- Generator: Adobe Illustrator 17.1.0, SVG Export Plug-In . SVG Version: 6.00 Build 0)  -->
<!DOCTYPE svg PUBLIC "-//W3C//DTD SVG 1.1//EN" "http://www.w3.org/Graphics/SVG/1.1/DTD/svg11.dtd">
<svg version="1.1" id="Layer_1" xmlns:sketch="http://www.bohemiancoding.com/sketch/ns"
	 xmlns="http://www.w3.org/2000/svg" xmlns:xlink="http://www.w3.org/1999/xlink" x="0px" y="0px" viewBox="0 0 300 570"
	 enable-background="new 0 0 300 570" xml:space="preserve">
<title>Artboard 2</title>
<desc>Created with Sketch.</desc>
<g id="Page-1" sketch:type="MSPage">
	<g id="Artboard-2" sketch:type="MSArtboardGroup">
		<path id="Fill-1" sketch:type="MSShapeGroup" fill="#F4F4F4" d="M173.4,296.2l0.2,0l0.2-0.2l0.1-0.1l0-0.1l-0.1-0.2l-0.2-0.2
			l-0.4-0.1l-0.5-0.2l-0.3-0.1l-0.2,0l-0.6,0.1l-0.1,0.1l-0.1,0.2l0.1,0.1l0.1,0.1l0.2,0.1l1.5,0.4L173.4,296.2"/>
		<path id="Fill-2" sketch:type="MSShapeGroup" fill="#F4F4F4" d="M175.2,297.9L175.2,297.9l-0.2-0.4l-0.1-0.1l-0.1,0l-0.7-0.3
			L174,297l-1.7-0.5l-0.1,0l-0.1,0.1l0,0.1l0,0.1l0,0.2l0.1,0.2l0.4,0.8l0.1,0.1l2.2,1.2l0.1,0l0.1,0l0.2,0l0.2-0.1l0.1-0.1l0-0.1
			l0-0.2L175.2,297.9"/>
		<path id="Fill-3" sketch:type="MSShapeGroup" fill="#F4F4F4" d="M208.2,504.3l0.2,0.1l0.7,0l0.6,0l0.3-0.3l-0.1-0.2l-0.3-0.6
			l-0.1-0.1l-0.1,0L208,503l-2.1-0.1l-0.9-0.1l-0.2,0.1l-0.1,0.1l-0.1,0.2l0.1,0.1l0.1,0L208.2,504.3"/>
		<path id="Fill-4" sketch:type="MSShapeGroup" fill="#F4F4F4" d="M198,505.1L198,505.1l0.3,0.3l0.2,0.1l0.1,0l1.8,0.1l0.1-0.1
			l0.8-1l0.1-0.2l0-0.1l-0.3-0.4l-0.2-0.1l-2.7-0.6l-0.1,0l-0.1,0l-0.1,0l-0.1,0.1l0,0.1l0.1,0.1l0.1,1.3L198,505.1L198,505.1"/>
		<path id="Fill-5" sketch:type="MSShapeGroup" fill="#F4F4F4" d="M202.3,504.3l0.4,0.2l0.3,0l0.1,0l0.3-0.2l0.1-0.1l0.1-0.5
			l-0.1-0.1l-0.1-0.1l-0.4-0.2l-0.3-0.1l-0.1,0l-0.3,0.1l-0.5,0.1l0,0.1l0.1,0.1L202.3,504.3"/>
		<path id="Fill-6" sketch:type="MSShapeGroup" fill="#F4F4F4" d="M234.1,509.3l-0.2-0.1l-0.1-0.1l-0.1,0l-0.1,0l-1.1-0.2l-1.3-0.2
			l-0.1,0l-0.1,0l-0.1,0l-0.1,0l-0.1,0l-0.1,0l-0.2,0l-0.1,0l-0.8-0.3l-0.1,0l-0.4-0.2l-0.1-0.1l0-0.1l0.2-0.1l1.3-0.6l0.1,0
			l0.3,0.1l0.1,0l0.3,0.3l0.3,0.1l0.2,0.1l0.2,0.1l0.4,0.1l0.4,0l0.9,0.1l0.3,0l0.3-0.1l0.1-0.1l0.1-0.1l-0.1-0.5l0-0.1l-1.5-1.7
			l-0.3-0.3l-0.1-0.1L232,505l-0.1,0l-0.2,0l-0.3,0l-3.7,0.4l-0.2,0l-0.3,0l-0.2,0.1l-0.1,0l-0.1,0.1l-0.1,0.1l-1.1,1.4l0,0.1l0,0.1
			l0.1,0.1l0.1,0l0.1,0l0.2-0.1l0.1-0.1l0.1-0.1l0.8,0.6l1,0.9l0.1,0.4l-0.4,0.6l0,0.1l-0.1,0.1l-0.1,0l-0.1,0l-0.2-0.1l-0.5-0.6
			l0-0.1l-0.8-0.6l-0.4,0l-0.8-0.2l-1.1-1l-0.3-0.4l-0.5-0.7l0.6-0.6l0.1-0.1l0.1,0l0.1,0l0.1,0.1l0.1,0.1l0.1,0.3l0,0.1l0.1,0.2
			l0,0.1l0.1,0.2l0.1,0l1.1-0.2l0.3-0.2l0.2-0.1l0.1-0.1l0-0.1l0-0.1l-0.2-0.6l-0.1-0.2l-0.8-0.6l-0.1-0.1l-0.1,0l-0.2-0.1l-0.5-0.2
			l-0.1,0l-1,0l-0.1,0l-0.4,0.1l-0.3,0.1l-0.2,0.2l0,0.1l0,0.1l-1.1,0l-0.7-0.1l-0.2-0.1l-1.3-0.6l-0.6,0.5l0.2,0.2l0.2,0.5l0,0.2
			l-0.1,0.1l-1.7,0.4l-1.3,0.1l0,1l0.2,0.1l0.3,0.1l0.7,0.3l0.2,0.1l0,0.1l-0.3,1l-0.2,0.2l-0.1,0l-0.1,0l-0.1,0l-0.1-0.1l-0.2-0.3
			l-0.1-0.2l-0.2-0.3l-0.4-0.4l-0.9,1l0,0.1l0.1,0.2l0.1,0.1l1.2,0.6l0.8,0.8l0.6,1.9l0,0.1l-0.1,0.1l-0.1,0.1l-0.1,0.1l-0.5,0.1
			l-0.1,0l0-0.1l0-0.5l0-0.1l0.1-0.1l0.1-0.3l-0.3-1l0-0.1l-0.1-0.1l-0.1-0.1l-0.9,0.1l-0.3,0.1l-1,0.3l-0.2,0.1l-0.9,0.5l-3.3,2.2
			l-0.7,0.7l-2.1,3.1l0,0.1l0,0.1l0,0.2l0.1,0.1l2,1.5l2.8,1.9l0.4,0.3l0.1-0.3l0-1.1l0-0.1l0-0.1l-0.2-0.1l-0.4-0.3l-0.5-0.1
			l-0.2-0.1l0-0.1l-0.3-0.8l0-0.2l0-0.1l0.1-0.1l0.1-0.1l0.7-0.3l0.1,0l0.2,0.1l1.1,0.6l0.7,0.5l0.7,0.3l1.7,0.4l0.1,0l0.2-0.2
			l0-0.1l0.2-1.2l0-0.1l-1.1-1.2l-0.2-0.2l-0.8-0.5l-0.1,0l-0.5-0.1l-0.1,0l-0.2,0l-0.2,0l-0.2,0.1l-0.1,0l-0.1,0l-0.1,0l0-0.1
			l0-0.1l0.1-0.1l0.1-0.1l0.5-0.2l1.5-0.1l0.1,0l1.5,0.7l0.7,0.7l0.1,0.1l0.7,0.5l0.1,0l0.1,0l0.6-0.4l0.2-0.1l0.1-0.2l0.4-0.2
			l0.5-0.2l0.1,0l0.7,0.2l0.1,0.1l0.7,0.7l0.1,0.1l0.4-0.4l0.6-1.1l-0.3-0.6l-0.1-0.1l-0.1,0l-0.9-0.2l-0.2-0.1l-0.1,0l-1.4-0.5
			l-1.5-0.6l-0.6-0.3l-0.1-0.1l0-0.1l0.1-0.4l0-0.1l0.1-0.1l0.1-0.1l0.2-0.1l0.1,0l0,0.2l0.1,0.3l0.2,0.1l0.3,0.2l1.5,0.7l0.2,0.1
			l0.1,0l2.2,0.1l2.6,0l0.1,0l0.3-0.1l0.1,0l2.2-1l-0.7-0.1l-0.3,0.1l-0.2,0l-0.2,0l-0.3-0.1l1.5-0.5l0.3,0l0.5,0l0.4,0l-0.6-0.3
			l-0.6-0.3l-0.1-0.1l0.1,0l0.1,0l0.1,0l0.6,0.1l1.2,0l1.1-0.1l0.8-0.2l2-0.4l1.4-0.5l0.1-0.1L234.1,509.3L234.1,509.3"/>
		<path id="Fill-7" sketch:type="MSShapeGroup" fill="#F4F4F4" d="M208.1,510.3l1.6-1.2l0.1,0.1l0.1,0.1l0.1,0l0.2,0l0.4-0.3
			l0.2-0.1l2.6-3.2l0-0.1l-2.5-1.1l-0.1,0l-0.3,0l-0.5,0.4l0,0.7l0.1,0.1l0.1,0.1l0.3,0.1l0.3,0.1l0.1,0.1l-0.1,0.1l-0.1,0.1
			l-0.8,0.4l-0.8,0.1l-3.4-0.2l-0.4,0l-0.5-0.1l-0.1,0l-0.1,0l-0.1-0.1l0-0.1l0.1,0l-0.1-0.3l-0.6-0.4l-0.3-0.1l-0.1,0l-1.7,0.1
			l-0.1,0l-0.5,0.6l0.2,0.5l0.3,0l0.5,0.1l0.1,0l0.1,0.1l0,0.1l-0.1,0l-2,0.4l-1.2-0.1l-0.3,0l-0.3-0.1l-0.8-0.3l-0.3-0.1l-0.8-0.5
			l-0.1-0.1l-1.2-0.6l-1.8-0.6l-0.5,0.1l0,0.1l0.2,0.8l0.1,0.1l0.1,0.1l0.1,0.1l0.7,0.3l0.1,0l0.3,0l0.5,0l0.1,0l0.6,0.1l0.1,0
			l0.1,0l0.4,0.3l0.1,0l0.1,0.1l0,0l0.2,0.2l0,0.1l-0.2,0.1l0,1l1.6,0.8l1.9,1.4l-1.2-0.3l-1.4,0l-0.3,0l-0.4,0.2l-0.2,0.1l-0.4,0.2
			l-0.1,0l-0.2,0.1l-0.4,0l-0.5-0.1l-0.5-0.1l-0.3-0.1l-0.4-0.2l-0.1,0l-0.1,0l-0.1,0l-0.1,0l-0.1,0.1l0,0.1l0,0.6l0.1,0.1l0.1,0.1
			l1,0.8l1.6-0.2l0.9-0.3l0.3-0.5l0-0.1l0.1-0.1l0.1,0l1.7-0.1l0.4,0.1l0.3,0.1l0,0.1l0,0.4l0,0.3l0,0.1l-0.1,0.1l-0.5,0.3l-0.5-0.2
			l-0.1-0.1l-0.7,0.7l-0.5,0.8l-0.4-0.5l0.1-0.2l0.2-0.2l0-0.1l0-0.1l-0.2-0.5l-0.1-0.1l-0.1,0l-0.6,0.2l-0.1,0l-0.1,0.1l-0.1,0.2
			l0,0.1l-0.1,0.3l0.1,1.2l0.3,0.5l0.2-0.1l0.1,0l0.1,0l0,0.1l-0.1,0.3l-0.1,0.1l-0.4,0.4l-0.1,0.1l-0.2,0.1l-1.1,0.1l-1.5,0
			l-0.5-0.1l-0.4-0.1l-0.9-0.1l-1,0l-0.1,0.1l0,0.1l0.3,0.4l0.1,0.1l0.1,0.1l0.1,0l0.4,0l0.3,0l0.1,0l0.1,0.1l0,0.1l-0.1,0.1
			l-0.8,0.3l-0.4,0.1l-1.2-0.1l-1,0.5l1.7,1l1.8,1l1,0.8l0.2,0.2l0.3,0.1l0.2,0.1l0.1,0l0.3-0.1l3.2-1.4l0.8-0.5l0.5-0.6l0.2-0.3
			l0-0.2l0-0.1l-0.1-0.3l1.2-1.1l1.7-0.6l0.1,0l1.5,0.7l0.3-0.2l1.4-1.3l2.3-2.1L208.1,510.3"/>
		<path id="Fill-8" sketch:type="MSShapeGroup" fill="#F4F4F4" d="M183.4,511.3l0.2,0.1l0.1,0l0.1-0.6l0-0.1l0-0.1l0.1-0.1l0.1,0
			l0.1,0l0.3,0l0.1,0l0.3,0l0.1-0.1l-0.1-0.1l-0.2-0.1l-0.4-0.2l-0.3,0l-0.6,0.2l-0.1,0.1l-0.1,0.5l0,0.2l0,0.1L183.4,511.3"/>
		<path id="Fill-9" sketch:type="MSShapeGroup" fill="#F4F4F4" d="M189,514.7l0.4-0.2l0.2-0.4l0-0.1l-0.1-1.1l-0.2-0.2l-0.2,0.2
			l-0.3,0.2l-0.3,0.1l-0.3,0.1l-0.6,0.2l-0.1,0l-0.1,0l0-0.1l0.1-0.1l0.2-0.2l0.3-0.2l0.5-0.2l0.2-0.1l0.1-0.1l0-0.1l0-0.1l-0.4-0.3
			l-0.4,0l-0.1,0l-0.1,0l-1.5,0.7l-0.1,0.1l-0.2,0.2l-0.1,0.1l0,0.1l0.5,0.7l0.1,0.1l0.1,0.1l1.1,0.8l0.5,0.3l0.4-0.1L189,514.7"/>
		<path id="Fill-10" sketch:type="MSShapeGroup" fill="#F4F4F4" d="M184.8,512.4l-0.1-0.2l-0.1-0.1l-0.1,0l-1.2,0.4l-0.1,0l0,0.1
			l0.1,0.1l0.4,0.3l0.1,0l0.3,0.1l0.2,0l0.2,0l0.1,0l0.3-0.2l0.1-0.1l0-0.5L184.8,512.4"/>
		<path id="Fill-11" sketch:type="MSShapeGroup" fill="#F4F4F4" d="M224.5,515.4l-0.6,0l-0.1,0l-0.1,0.1l-0.3,0.4l-0.1,0l-0.1,0
			l0.1,0.4l0.1,0.1l1.1,0.7l0.1,0.1l0.1,0l0.1-0.1l0.1-0.1l0.1-1.4L224.5,515.4L224.5,515.4"/>
		<path id="Fill-12" sketch:type="MSShapeGroup" fill="#F4F4F4" d="M206.6,518.5L206.6,518.5l-0.3-0.1l-0.2,0l-0.5,0.1l-0.2,1.4
			l0,0.1l0,0.1l0,0.1l0.1,0.1l0.1,0l0.8-0.6l0.1-0.1l0.1-0.1l0-0.2l-0.1-0.7L206.6,518.5"/>
		<path id="Fill-13" sketch:type="MSShapeGroup" fill="#F4F4F4" d="M293.1,78.3l-0.1-0.3l-0.1-0.2l-0.1-0.2l-1-1.7l-1.2-2.2l0-0.1
			l0-0.1l-0.1-1.1l0.1-0.7l0.1-0.3l0-0.1l0-0.2l0-0.1l-0.5-1.9l0-0.1l-0.3-0.8l0-0.1l-3-2.3l-0.1,0l-0.1,0l-0.1,0.1l-0.5,0.6
			l-0.3,0.4l-1.2,0.1l-0.1-0.1l-0.1-0.1l-0.1,0l-0.1,0l-0.1,0l-0.3,0.1l-1,0.4l-0.1,0.1l-0.9,0.8l-0.2-0.2l-1-0.8l-0.1,0l-0.1,0
			l-0.7,0.1l-0.4,1.3l0.2,2.3l0.1,2.7l-0.7,0.5l-0.1,0l-0.1,0.1l0,0.1l0,2.9l0,0.1l0,0.2l0.2,0.2l0.1,0.1l0.1,0.1l0,0.2l-0.1,0.2
			l-0.1,0.1l-0.3,0.3l0.1,0.7l0,0.1l0,0.2l-0.4,2.1l0,0.1l-0.1,0.2l-2,3.8l-0.2-0.1l-0.3,0l-0.1,0l-0.2,0l-0.3,0.2l-0.2,0.2
			l-0.1,0.1l0,0.1l0,0.1l0,0.1l0,0.5l-0.1,0.3l-0.1,0.3l0,0.1l-0.1,0.1l-0.2,0.2L274,88l-0.2,0l-0.5,0l-0.2,0l-0.1,0l-0.1,0.1
			l-0.1,0.1l-0.9,0.9l0,0.1l0,0.1l0,0.2l-1.7,0.9l-0.3,0l-1.6,0.5l-0.2,0.1l-0.1,0.1l-0.1,0.1l-0.1,0.1l-1.8,2.1l-0.4,0.9l-0.1,0.8
			l0.1,0.2l0.1,0.3l0,0.1l0,0.2l-0.2,0.9l0,0.1l-0.2,0.3l0,0.1l-0.1,0.1l-1.7,1.4l-0.1,0.1l-0.1,0l-0.2,0l-0.1,0l-0.2-0.1l-1-0.6
			l-0.1-0.1l-0.2-0.2l0-0.1l-0.1-0.4l-0.1-0.3l0-0.1l-0.1-0.1l-0.1-0.1l-0.1-0.1l-0.1,0l-0.2,0l-0.1,0l-0.6,0.1l-0.9-0.4l-0.2-0.1
			l-0.3,0l-0.5,0l-0.5,0.1l-0.1,0l-0.2,0.1l-0.1,0.1l-1.5,1.1l-0.1,0.1l0,0.1l0,0.1l0,0.1l0.1,0.4l0,0.4l0,0.2l-0.1,0.2l-1,1.6
			l-0.1,0.1l-0.1,0.1l-0.2,0.1l-0.3-0.1l-0.3-0.2l-0.5-0.4l-0.1-0.1l-0.4-0.6l-0.1-0.2l-0.1-0.3l-0.2-0.2l-0.2-0.1l-0.3-0.1
			l-0.3-0.1l-0.2,0l-0.3,0l-0.5,0.1l-0.4,0.1l-0.3,0.2l-0.1,0.1l-0.1,0.1L249,100l-0.2,0.1l-0.3,0l-0.3-0.1l-0.2-0.1l-0.2-0.2
			l-0.2-0.2l-0.3-0.4l-0.3-0.3l-0.2-0.2l-0.1,0l-0.2-0.1l-0.3,0l-0.1,0l-0.3,0.1l-0.5,0.2l-0.5,0.3l-0.5,0.3l-0.1,0.1l-0.2,0.2
			l-0.2,0.1l-0.2,0l-0.4,0l-0.2,0l-0.5-0.1l-0.6-0.2l-0.3-0.1l-0.2-0.1l-0.3-0.2l-0.4-0.2l-0.4-0.1l-0.3,0l-1-0.1l-2.8-0.7l-0.3-0.1
			l-0.2-0.1l-0.2-0.1l-0.4-0.4l-0.3-0.3l-0.3-0.2l-0.2-0.1l-0.8-0.2l-2.1-0.3l-1.1-0.1l-2.1,0l-1.9,0.1l-2.7,0.2l-0.4,0l-0.3,0.1
			l-0.3,0.1l-0.2,0.1l-0.5,0.2l0.1-1l0-0.2l0-0.1l-0.1-0.1l-0.2-0.2l-0.4-0.3l-0.1-0.1l0-0.1l0-0.2l0-0.2l0-0.1l0-0.1l0.1-0.2
			l0.2-0.2l0.3-0.1l0.3,0l0.1,0l0.2-0.1l1.3-2.1l0-0.2l1.1-1.2l0.6-0.4l0.5-0.2l1.9-3.7l0.2-0.9l0-0.1l-0.1-0.3l-0.2-0.3l-0.4-0.3
			l0-0.1l0-0.1l0.1-1.8l0-0.1l0.1-0.2l0.6-1.8l0.4-0.7l-0.2-0.9l1.4-1.5l0.6-0.2l0.2-0.1l1.8-1.5l0.2-0.2l0-0.1l0-0.1l0-0.1
			l-0.1-0.1l-0.2-0.1l-0.1,0l-0.2-0.1l-0.1-0.1l0-0.2l0-0.1l0.1-0.1l0.6-0.7l0.6-1l0.1-0.2l0-0.1l0-0.1l-0.1-0.8l0.2,0l0.2-0.1
			l0.5-0.4l0.1-0.1l2.4-3.1l0.3-1.4l0-0.3l0-0.1l0-0.1l-0.1-0.1l-0.2-0.2l-0.1-0.1l-0.1,0l-0.1-0.1l-0.4-0.3l-0.1-0.1l-0.2-0.2
			l-0.4-1.2l-0.1-0.2l-0.5-0.4l-0.4-0.5l-0.1-0.1l-0.1-0.2l0-0.2l0-0.3l-0.1-0.3l-0.1-0.2l-1.3-1.2l-0.2-0.2l-0.2-0.1l-0.3-0.1
			l-0.4,0l-1.8-0.7l-1-0.4l-0.7-0.5l-0.1-0.1l-1.4,0.1l-1-0.1l-0.1-0.2l-1.2-1.6l-0.1-0.1l-0.2-0.1l-0.9-0.3l-0.2,0l-0.5-0.1l-0.1,0
			l-0.4,0l-0.9-0.1l-1.9-0.6l-0.1-0.1l-1-0.8l-0.6-0.5l-0.2-0.2l-0.7-0.5l-1-0.6l-0.6-0.2l-2.7-1.6l-0.7-0.4l-0.2-0.2l-0.1-0.1
			l-0.2-0.4l-0.2-0.2l-1.1-1.2l-0.1-0.1l-0.8-0.6l-0.1,0l-1.9-1.4l-4.5-3.2l-0.8-0.6l-0.4,0.1l-0.3,0.1l-0.4,0.1l-0.3,0.1l-0.3,0.1
			l-1.6,0l-0.2,0l-2.4-0.8l-1.7-0.6l-0.1-0.1l-0.1-0.2l0-0.1l0-0.2l0-0.1l0-0.1l-0.3-0.2l-1.7-0.4l-0.4,0l-1.6-0.4l-1.6-0.5
			l-0.3-0.1l-0.1,0l0-0.1l-0.1-0.3l-0.1-0.5l-1.1-2.4l0-0.1l-0.1-0.1l-1-0.8l-1.6-1.1l-1-0.6l-1.2-0.6l-2-2l-0.1-0.1l-0.4-0.2
			l-0.1,0l-0.3,0l-0.2,0.1l-0.1,0l-0.1,0l-0.1-0.1l-0.8-0.7l0-0.1l-0.1-0.2l0-0.1l0-0.6l0-0.1l-0.1-0.2l-0.1-0.1l-1.4-1.4l-0.4-0.2
			l-0.1,0l-0.1,0l-0.3,0l-0.1,0l-0.9-1l-0.1-0.1l-0.1-0.2l-0.1-0.3l0-0.3l0-0.1l0-0.1l0-0.1l-0.2-0.6l-0.1-0.2l-0.2-0.3l-0.9-1
			l-0.8-1l-1.2-3.1l0-0.1l0-0.4l-0.1-0.2l-0.1-0.1l-0.5-0.4l-0.4-0.3l-0.4-0.2l-0.2,0l-0.2,0l-0.2-0.1l-0.2-0.1l-1.8-1.4l-1.4-1.6
			l-0.4-0.6l-0.2,0l-0.1-0.1l-1.5-1.4l-0.4-0.5L162,8.5l0-0.1l0.1-0.3l0-0.5L161.9,7l0-0.1l-0.1-0.2l-0.1-0.1l-0.1,0l-0.1,0l-0.2,0
			l-0.8,0l-3.5,0l-6.6,0l-1.3,0l-0.7,0l-3,0l-0.7,1.6l-0.9,2.6l-1,2.7l-0.6,1l-0.1,0.1l-0.3,0.3l-0.1,0.1l-0.1,0l-0.2,0.1l-0.1,0.1
			l-0.3,0.6l-0.1,0.3l-0.3,1.2l-0.1,0.2l0,0.1l-0.1,1.2l0,0.5l-0.3,1.3l-0.2,0.5l-0.1,0.2l-0.2,0l-0.1,0l0-0.1l0-0.4l0-0.5l-0.1-0.8
			l-0.1-0.4l0-0.1l-0.1-0.1l-0.7-0.8l-0.5-0.5l-0.1-0.1l0-0.1l0-0.2l0-0.2l0-0.1l0.2-0.6l-0.3-1.1l-0.9-1.8l-0.3-1.9l0.1-0.2l0-0.1
			l0-0.1l-0.1-0.2l-0.1-0.2l-0.6-0.7l-0.1-0.1l-1.1-0.7l-0.1,0.1l-0.1,0.1l-0.2,0.1l-0.2,0l-0.2,0l-3.5-1.2l-0.1-0.1l-0.2-0.2
			l-2.9,0.1l-5.9,0.1l-0.8,0.2l-1.1,0.1l-0.2,0l-0.1,0l-0.1-0.1l-0.7-0.6l-0.8-1.1l-0.8-1.2l-2.2-1.7L113.2,3l-0.4-0.1l-0.2,0.2
			l-0.1,0.2L112.2,5L112,6.3l-0.1,0.9l0,0.1l-0.2,0.7l-0.6,0.7l-0.8,0.3l-1.3,0.5L108,9.7l-0.8,0.2l-1,0.1l-0.7,0.5L105,13l0,0.9
			l-1.1,0.4l-1.1,0.4l-1.4,0.8l0.1,0.8l0.1,0.9l0,0.3l-1.6,1.3l0,0.1L99,20.6l1.1,1.3l1.5,1.7l-0.7,2.1l-0.7,2l-0.6,2l-0.2,0.6
			l-0.6,2.3L98.1,36l-1.2,4.9l-4.4,2.1l-3.7,1.8l-4.2,2l-0.9,0.4l0,0.1l-0.3,0.8l-0.4,0.8L82.8,49l-0.1,0l-0.1,0l-0.4-0.2l-0.1,0
			l-0.2,0.1l-0.2,0.2l0,0.1l-1,1.7L80,51.9l-0.5,1l-0.3,0.8l-0.1,0.2l0,0.1l0,0.3l0,0.1l0.3,0.8l0.1,0.1l0.6,0.3l0.1,0l2.1,3.6
			l0,0.2l0,0.1l0,0.1l-0.1,0.1l-0.1,0.1l-0.7,0.3l-0.9,0.2l-0.1,0l-0.2,0.2L80,60.9l0,0.1l-0.2,0.9l-0.1,0.3l-0.1,0.1l-0.3,0.7
			l-0.1,0.4l-0.1,0.3l-0.3,1.2l-0.1,0.3l0,0.6l0,0.2l0,0.3l0.6,1.9l0.7,1.7l0.1,0.4l0.6,2.8l0.8,4.1l0,0.2l0,0.1l-0.1,0.2l-0.2,0.2
			l-0.8,0.8l-0.1,0.1L79.9,79l-0.3,0.3l-0.1,0.1l-0.1,0.1l-0.1,0.1l0,0.1l-0.1,0.2l-0.1,0.6L79,81l-0.1,0.9l0,0.5l0,0.7l0.1,0.3
			l0,0.2l0.1,0.2l0.1,0.2l0.3,0.6l1.3,1.6l0.2,0.3l0.2,0.3l1.8,3l0.1,0.3l0,0.1l-0.5,1.8l-0.4,0.3l-0.6,0.3l-0.2,0.1l-0.1,0.1
			l-3.2,1.3L78,93.7l-0.5-0.3l-0.2-0.1l-0.2,0l-0.4,0l-0.5,0l-0.2,0l-0.1,0.1l-0.1,0l-0.1,0.1l-0.1,0.1l-0.4,0.8L74.9,95l-0.1,0.4
			l0,0.2l0,0.2l0.1,0.2l0,0.1l0.1,0.1l0,0.1l-0.5,1.2l0,0.1l-2,3.9l0,0.1l-0.1,0.1l-0.2,0.2l-0.1,0l-0.1,0.1l0,0.1l0,0.1l-0.4,1.5
			l-0.1,0.7l-0.5,2.2l-0.1,0.4l-0.2,0.4l-0.1,0.2l-0.2,0.2l-0.4,0l-0.3,0l-0.3,0.1l-0.2,0.1l-0.2,0.1l-0.1,0.1l-0.1,0.1l-0.3,0.9
			l-0.1,0.6l-0.1,0.2l-0.1,0.2l-0.1,0.2l-0.6,0.8l-1.9,2.2l-0.1,0.1l-1,0.9l-0.7,0.6l-0.1,2.4l-0.1,0.5l-0.1,0.1l-0.1,0l-0.3,0.1
			l-0.1,0.1l0,0.1l-0.5,1.1l0,0.3l0,0.7l0.1,0.3l0.1,0.2l0.1,0.2l0.1,0.2l0.1,0.2l0,0.3l0,0.1l0,0.1l-0.5,1.3l-0.5,2.2l0,0.9l0,0.1
			l-0.1,0.3l0,0.1l-0.1,0.2l-0.2,0.2l-0.3,0.2l-0.1,0.1l-0.2,0.1l-0.7,0l-0.1,0l-0.1,0l-0.7,1l-1,1.4l0,0.2l0,0.2l0,0.8l0.1,0.3
			l0.1,0.2l0.3,0.8l0.5,1.9l0.1,0.2l0,0.2l0,0.6l0,0.2l0,0.2l-0.1,0.3l0,0.2l0,0.2l0.1,0.2l0,0.1l0.1,0.2l0.1,0.1l0.4,0.3l0,0.1
			l0,0.1l0.1,1.2l0,0.3l0,1.7l0,0.3l-0.1,0.8l-0.1,0.4l0.8,1.7l0.1,0.1l0.2,0.2l0.1,0.2l0.1,0.2l0,0.1l0,0.1l-0.1,0.6l-0.9,2.2
			l0,0.1l-0.5,0.7l-0.1,0.1l-0.1,0l-0.7,0.3l-0.2,0l-0.4,0l-0.2,0l-0.2-0.1l-1.1,0.8l-1.1,2l-0.6,1.3l-0.2,0.7l-0.7,2.4l0,0.2
			l-0.1,1l0,0.1l-0.1,0.6l0,0.3l0,0.1l0,0.1l0.1,0.1l0.5,0.5l-0.1,0.6l-1,1.1l-1,0.3l-0.1-0.2l-0.1-0.1l-0.1-0.1l-0.1,0l-0.1,0
			l-0.1,0.1l-0.7,1l-0.1,0.3l-0.1,0.2l-0.4,2.1l0,0.2l0,0.2l-0.1,2.3l-0.2,1l-0.1,0.4l0,0.1l0,0.1l0,0.1l1.8,4.4l0.2,0.3l0.2,0.3
			l0.1,0.1l0.1,0.1l0.1,0l0.2,0.1l0.3,0l0.4,0l0.1,0l0.2-0.1l0.2,0l0.2,0.1l0.1,0l0.2,0.2l0.5,0.6l0.1,0.1l0,0.2l0,0.2l0,0.1l0,0.1
			l-0.4,1.1l0,0.1l-0.1,0l-0.1,0l-0.1,0l-0.3,0l-0.2,0l-0.5,0.7l0.5,2.3l0,0.3l-0.1,0.5l0,0.1l0.1,0.2l0.1,0.1l0.1,0.1l0.8,0.3
			l0.2,0.5l1.1,2.3l0.1,0.4l0,0.2l-0.1,0.5l-0.1,0.5l-0.1,0.1l0,0.1l0,0.1l0,0.3l0,0.2l0,0.3l0.3,2l0.1,0.2l0.1,0.1l1.2,1.4l0.1,0.1
			l0.3,0.1l0.4,0.1l0.1,0l0.1,0.1l0,0.1l0,0.1l0,0.1l-0.5,1l-0.7,1l-0.4,0.8l0.2,0.3l0,0.1l0,0.2l0,0.1l0,0.1l-0.1,0.3l-0.1,0.2
			l0,0.1l-0.1,0.2l0,0.3l0,0.2l0.1,0.2l1.3,1.8l0.1,0.1l0.1,0l0.2-0.1l0.1-0.1l0.1-0.2l0.1-0.2l0-0.1l0-0.1l0.1-0.1l0.2-0.2l0.2-0.1
			l0.2,0l0.1,0l0.2,0.1l0.3,0.1l0.8,0.4l0.1,0.1l0,0.1l0.3,1.6l0,0.1l0,0.2l-0.1,0.2l-0.1,0.1l-0.2,0.2l-0.1,0.1l0,0.1l-0.1,0.3
			l-0.7,1.7l0,0.1l-0.5,3.6l0,0.3l0,0.7l0.3,1.1l0.5,3.5l0.4,2.1l0.1,0.1l0,0.1l0,0.1l-0.1,0.1l-0.1,0l-0.9,0.5l-0.7,0l-0.2-0.1
			l-0.2,0l-0.3,0l-0.5,0.1l-0.2,0.1l-0.2,0.1l0,0l-0.1,0.2l0,0.2l0.1,0.8l0.1,0.6l0,0.1l0,0.1l0,0.1l-1.4,2l-0.1,0.1l-0.1,0.1
			l-1.1,2.1l-0.9,3.3l-0.9,2.4l0,0.1l0,0.5l0,0.3l0,0.5l0.1,0.4l0,0.5l0,0.2l0,0.1l-0.1,0.2l-0.1,0.1l-0.1,0.1l-0.9,0.5l-0.5,0.1
			l-0.5,0l-0.2,0l-0.1,0l-0.1,0l-0.2,0.2l-0.1,0.3l-0.1,0.2l0,0.1l0,0.2l0,0.1l0.1,0.2l0.2,0.3l0.2,0.2l0.1,0l1.6,0.9l0.4,2.6
			l-0.1,1.6l-0.1,0.2l-0.1,0.1l-0.1,0.1l0,0.2l0.2,0.5l0.5,1.1l0.5,1.1l0,0.1l0,0.1l0,0.1l-0.1,0.1l-0.1,0.1l-0.2,0l-0.1,0l-0.1,0
			l-0.1,0.1l-0.1,0.1l-0.3,0.5l-0.1,0.3l0,0.2l0.1,1.2l0,0.1l0.1,1.7l-0.4,1l-0.1,0.2l-0.1,0.1l-0.1,0.1l-0.2,0.1l-0.2,0l-0.3,0
			l-0.2-0.1l-0.1,0l-1,0.1l-1.7,1.8l-0.3,1.1l0,0.1l0.1,0.2l0,0.1l0.1,0.2l0.1,0.3l0,0.2l0,0.1l-0.1,0.2l-0.1,0.1l-0.1,0.1l-3.3,1.1
			l-0.2,0l-0.3-0.1l-0.5-0.1l-0.2,0.1l-0.1,0.1l0,0.1l-0.2,0.8l0,0.2l0,0.2l-1.1,3l-0.7,1.7l0,0.1l0.5,2.1l0.5,2.4l-0.2,1.3
			l-0.1,0.5l-0.1,0.2l-0.1,0.1l-0.1,0.1l-0.3,0.3l-0.1,0.1l-0.1,0.2l-0.1,0.2l0,0.1l0,0.2l0,0.1l0.4,1l0,0.1l0.1,0.1l0.1,0.2
			l0.2,0.2l0.3,0.4l0.1,0.3l0,0.1l0,0.2l-0.1,1.9l0,0.1l-0.1,0.1l-0.2,0.1l-0.2,0.1l-0.1,0.1l-0.1,0.1l-0.1,0.3l0,0.3l0,0.2l0,0.4
			l0,0.2l0.1,0.3l0.2,0.5l0.1,0.1l0.3,0.7l0.1,0.4l0.1,0.4l0.4,0.7l0.1,0.2l1.3,3l0,0.1l0,0.1l-0.1,1.3l-0.1,0.7l-0.1,0.3l0,0.2
			l0,0.1l0.1,0.9l0.4,2.1l0.1,0.2l0.1,0.2l0.2,0.3l0.1,0.2l0.4,0.4l0.2,0.2l0.3,0.1l0.3,0.2l0.2,0.2l0.1,0.1l0.1,0.1l0.1,0.2l0,0.2
			l0,0.2l0,0.1l-0.1,0.3l-0.4,1.7l-0.1,0.1l-0.8,0.8l-0.1,0.1l-0.2,0.1l-0.3,0l-0.4,0l-0.2-0.1l-0.2,0l-0.2,0l-0.2,0l-0.2,0.1
			l-0.6,0.3l-2,1.1l-1.4,0.8l-0.4,0.2l-0.4,0.3l-0.1,0.1l-0.1,0.1l-0.1,0.2l-0.1,0.2l-0.1,0.3l-0.1,0.9l0,0.4l0,0.1l0.1,0.4l0.1,1.1
			l0.2,1.8l0,0.2l-0.2,1.4l0,0.1l-0.6,1.7l0,0.1l-0.5,2l0,0.2l-0.1,0.5l0,0.1l-0.1,0.2l-0.1,0.1l-0.1,0l-0.1,0l-1.2,0l-0.2,0l-0.1,0
			l-0.1-0.1l-0.1-0.2l-0.4-0.5l-0.1-0.1l-0.1,0l-0.1,0.1l0,0l-0.1,0.2l0,0.1l-0.2,0.6l0,0.3l0.1,1.4l0,0.2l0.4,2l0.1,0.2l0.1,0.1
			l0.4,1.5l-0.5,1.6l-1.2,0.7L33,314l-0.4,1.5l0,0.1l0.4,0.7l0.9,0.9l0.2,0.1l0.1-0.1l0.1-0.3l0.1-0.1l0.1,0l0.3,0.2l0.1,0.1l0,0.1
			l0,0.1l0,0.5l0,0.1l0,0.1l-0.5,1.1l-0.1,0.3l-0.1,0.1l-0.1,0l-0.1,0l-0.1,0l-0.1-0.1l-0.2-0.2l-0.1-0.1l-0.1,0l-0.1,0l-0.1,0
			l-0.1,0.1l-0.7,2l-0.1,0.7l0,0.1l0,0.2l0,0.2l0,0.1l-0.1,0.2l-0.2,0.4l-0.1,0.2l-0.2,0.3l-0.3,0.3l-0.3,0.3l-0.1,0l-0.2,0.2
			l-0.1,0.2l0,0.2l0.5,1.2l0.7,1.3l0.1,0.2l0.1,0.2l0.1,0.2l0.1,0.5l0,0.2l0,0.1l-0.3,0.8l0.3,0.7l0,0.2l-0.3,3l0,0.3l-0.1,0.2
			l-0.1,0.2l-0.1,0.1l-0.1,0.2l0,0.1l-0.1,0.8l0,0.1l0,0.1l0.1,0.4l0.1,0.2l0.1,0.2l0.1,0.2l0.1,0.3l0.2,1.8l-0.6,0.9l-0.2,0.2
			l-0.1,0.1l0,0.1l0,0.1l0,0.2l0.1,0.2l0.9,1.8l0.9,1.5l0.1,0.2l0.1,0.4l0.2,0.9l0.1,0.3l0,0.8l0.4,0.4l0,0.1l0,0.1l0.1,0.9l0,0.1
			l0,0.1l-0.7,0.5l-0.1,0l-1.7,0.7l-0.2,0.1l-0.3,0l-0.1,0l-0.1-0.1l0-0.1l0-0.2l-0.1-0.3l-0.1-0.1l-0.1-0.1l-0.1,0l-0.1,0l-0.2,0
			l-0.2,0.1l-0.2,0.1l-0.2,0.1l-0.2,0.2l-0.1,0.1l-1.3,2.1l0,0.1l0,0.1l0,0.1l0.2,0.3l0.2,0.2l0.3,0.2l0.4,0.3l0.1,0.1l0.1,0.2
			l0,0.1l0,0.1l-0.9,2.5l-0.1,0.1l-0.2,0.3l-0.1,0.4l-0.1,0.3l0,0.1l0.1,1.1l0,0.1l0.1,0.2l0,0.1l0.1,0.2l0.1,0.4l0,0.3l0,0.5
			l0.1,1.6l0,0.3l0,0.2l-0.1,0.3l-0.1,0.3l-0.1,0.2l-0.1,0.2l-0.1,0.2l0,0.1l-0.1,0.5l0,0.2l0,0.1l0.1,0.2l0.1,0.2l0.1,0.2l0.4,0.7
			l0.1,0.1l0.3,0.2l0.6,0.3l0.2,0l0.5,0l0.4,0l0.9,0.1l0.3,0.1l0.1,0l0.3,0.1l1,0.5l0.1,0.1l0,0.2l0,1.5l0,0.1l0,0.2l-0.1,0.2
			l-0.1,0.1l-0.1,0l-0.1,0l-0.1,0l-0.2-0.1l-0.1,0l-0.1,0l-0.2,0l-1.2,0.4l0,0.1l-0.5,1l-0.2,1l0.1,0.1l0.2,0.1l0.1,0l1,0.7l2,1.6
			l0.1,0.1l0,0.1l0.1,0.3l0.1,0.7l0,0.2l0,0.1l-0.1,0.2l-0.1,0.1l-0.2,0.1l-0.7,0.3l-0.2,0.1l-0.2,0l-0.2,0.1l-0.1,0.1l0,0.2l0,0.2
			l0,0.1l0.1,0.2l0.7,0.7l0.8,0.8l0.7,0.8l0,0.1l0,0.3l0,0.1l-0.1,0.2l-0.1,0.2l-1.3,1.7l-0.5,0.4l-0.6,1.2l0.2,0.2l0.1,0.2l0.1,0.2
			l0,0.3l0,1.7l0,0.1l0,0.1l-0.1,0.1l-0.4,0.1l-0.1,0l-0.1,0.1l0,0.1l0,0.1l0,0.1l0,0.1l0.2,0.3l0.1,0.1l0.2,0.1l0.1,0l0.5,0l2.2,0
			l1,0l0.2,0l0.8-0.1l1,0l0.3,0l2.7,0.4l0.2,0.1l0.2,0.1l0.2,0.2l0.1,0.1l0.6,1.2l0,0.1l0,0.1l-0.1,0.4l-0.1,0.2l-0.1,0.1l-0.1,0
			l-0.1,0l-0.1,0l-0.2,0l-0.2,0l-0.1,0.2l-0.4,0.8l-0.1,0.3l0,0.1l0,0.1l0.1,0.2l0,0.1l0.1,0.3l0,0.3l0,0.1l-0.1,0.2l-0.1,0.2
			l-0.6,0.7l-0.1,0.1l-0.1,0l-0.3,0.1l-0.5,0l-0.3-0.1l-0.2-0.1l-0.3-0.1l-0.6-0.3l-0.2-0.2l-0.3-0.1l-0.1,0l-0.1,0l-0.3,0l-0.1,0
			l-0.2,0l-0.3,0.1l-0.3,0.1l-0.5,0.2l-0.2,0.1l-0.2,0.1l-0.4,0l-0.3-0.1l-0.3-0.1l-0.3-0.1l-0.6-0.1l-0.2,0l-0.1,0l-0.1,0l-0.1,0
			l-0.1,0.1l-0.1,0.2l-0.1,0.1l-0.2,0.1l-0.2,0l-1.4-0.2l-0.1,0l-0.3-0.1l-0.3-0.1l-0.4-0.2l-0.3-0.1l-0.1,0l-0.2,0l-0.1,0.1l0,0.1
			l0,0.1l0,0.1l0,0.2l0.2,1.8l0.1,0.1l1.8,0.3l1.8,0.1l0.9,0.1l2.1,0.6l0.3,0.1l0.3,0.2l0.1,0.1l0,0l0.7,1.3l2.3,2.5l0.1,0.1
			l0.1,0.2l0.4,0.9l0,0.2l0,0.1l-2.4,2.8l-1.9,0.8l-0.3,0l-0.1,0l-0.1,0l-0.2,0l-0.3,0.1l-0.6,0.2l-0.3,0.2l-0.2,0.2l-0.1,0.1
			l-0.3,1.5l0,0.2l-0.1,1.1l0,0.1l0.5,1.9l0.1,0.1l0.1,0.1l0.3,0.1l0.2,0.1l0.3,0.1l0.6,0.2l0.1,0l0.1,0.1l0.1,0.1l0.1,0.2l0.3,1
			l0,0.1l0,0.1l-0.1,0.1l-0.4,0.2l-0.1,0l4.9,0l-3.3,0l-1.6,0l-0.3,0.2l-0.5,0.5l-0.2,0.3l-0.1,0.2l-0.1,0.3l-0.2,0.2l-0.2,0.2
			l-0.2,0.1l-0.3,0.1l-0.4,0.1l-0.4,0l-0.6,0.1l-0.1,0l-0.1,0.1l0,0.1l0,0.1l0.1,0.1l0.9,0.7l0.2,0.1l0.3,0.1l0.2,0.1l0.3,0.1
			l0.2,0.1l0.1,0.1l0.1,0.2l0.1,0.2l0,0.1l0,0.2l0.2,2.7l0.4,0.8l0.1,0.2l0.1,0.2l0.2,0.4l0,0.2l0,0.2l0,1.8l0,0.3l0,0.1l0,0.1
			l-0.1,0.2l-0.1,0.1l-1.7,1.3l-0.1,0.1l-0.2,0.1l-0.3,0.1l-0.2,0l-0.8,0l-0.1,0l-0.2,0.1l-0.1,0.2l0,0.1l-0.5,3.6l1.1,1.3l0.2,0.1
			l0.3,0.3l0.1,0.1l0.1,0.2l0,0.2l0,0.2l-0.1,0.4l-0.1,0.2l0,0.1l-0.1,0.1l-0.1,0.1l-1.9,0.7l-0.1,0.1l-0.9,1.2l-0.1,0.1l-1,0.9
			l-0.1,0.1l-0.3,0.1l-0.1,0l-0.1,0l-0.1,0l-0.2-0.1l-0.3,0l-0.3,0l-0.5,0.2l-0.3,0.1l-0.3,0.1l-0.1,0.1l-0.1,0.1l-0.1,0.2l-0.1,0.3
			l0,0.1l0,0.1l0.1,0.1l0.1,0.1l0.2,0.1l0.3,0.1l0.1,0.1l0,0.1l0,0.1l-0.3,1.3l-0.1,0.2l-0.1,0.2l-0.1,0.2l-0.1,0.2l-0.2,0.3
			l-0.2,0.2l-0.3,0.4l-0.2,0.3l-0.1,0.2l-0.1,0.2l-0.3,0.5l-0.1,0.2l-1.1,2.3l0,0.1l0,0.2l0,0.1l0,0.2l0,0.1l0.2,0.3l0.4,0.4
			l0.2,0.2l0.2,0.1l0.2,0l0.3,0l0.2,0.1l0.1,0.1l1.1,1.1l0,0.1l0.3,1.7l0,0.2l0.2,2.5l0,0.1l-0.1,0.1l-1.9,0.9l-0.9,0.3l-0.9,0.4
			l-0.2,0.1l-0.2,0.1l-0.1,0.1l-0.1,0.1l-0.2,0.2l0,0.1l0,0.2l0.1,0.3l0.1,0.3l0.1,0.2l0.1,0.4l0.1,0.4l0.2,1l0,0.2l0.1,0.6l0.1,0.6
			l0,0.7l0,0.2l-0.1,0.2l-0.1,0.2l-0.3,0.3l-1.7,1.3l-0.4,0.3l-0.3,0.1l-0.4,0.2l-0.4,0.1l-0.6,0.1l-0.1,0l-0.4,0l-0.1,0l-0.2,0.1
			l-0.5,0.2l-0.4,0.2l-0.2,0.1l-0.3,0.3l-1,1.1l-0.1,0.1l-1.4,2.5l0,0.2l0,0.2l0,0.1l0.1,0.1l1.1,0.2l0.1,0.1l0.1,0.1l0,0.1
			l-0.7,0.5l-0.5,0L9.6,470L9,470l-1.1,2.2l0,0.1l-0.6,1.5l0,0.1l0,0.1l0,0.1l0.1,0.1l0.2,0.2l0.5,0.4l0.2,0.2l0.1,0.2l0.9,2.9
			l0,0.1l0,0.1l-0.1,0.1L9,478.4l-0.2,0.1l-0.3,0.2l-0.2,0.2L8.2,479L8,479.2L8,479.3l-0.4,1.2l0,0.1l0,0.1l0.1,0.1l0.1,0.1l0.5,0.4
			l0.3,0.2l0.1,0.1l0.2,0.2l0.1,0.2l0,0.2l-0.1,0.2l-0.1,0.1l-0.1,0.1l-0.1,0.1l-0.1,0.1l-0.1,0.1l-0.2,0.3l-0.1,0.2l-0.1,0.4l0,0.1
			l0.1,0.3l0.1,0.1l0.1,0.1l0.5,0.2l0.7,0.4l1.2,0.7l0.1,0.1l0.1,0.1l0.1,0.1l0.1,0.2l0.5,0.9l0.1,0.2l0.1,0.2l0.1,0.2l0,0l0.2,2.3
			l0,0.2l0.3,1.6l0.7,2.3l0.1,0.2l0.1,0.1l0.2,0.2l0.1,0.1l0.2,0.1l0.3,0l0.4-0.1l0.4-0.1l0.5-0.2l0.4-0.3l0.2-0.1l0.1-0.1l0.2-0.2
			l0.1-0.1l0.3-0.3l0.1-0.1L17,493l0.5-0.2l1.4-0.5l0.2-0.1l0.1,0l0.1,0l0.1,0l0.1,0.1l0.2,0.2l0.1,0.1l0.1,0.1l0.2,0.2l0.2,0.1
			l0.3,0.1l0.3,0l0.1,0l0.1,0l0.1,0l0.2-0.1l0.1-0.1l0.3-0.5l0.3-0.3l0.1-0.1l0.2-0.1l0.2,0l0.1,0l0.3,0l1.6,0.2l1,0.5l0.1,0.1
			l0,0.1l0,0.1l0,0.1l0,0.1l-0.1,0.2l-0.1,0.1l-0.3,0.5l-0.1,0.3l0,0.1l0,0.1l0,0.1l0.2,0.2l0.4,0.3l0.3,0.3l0.1,0.1l0.3,0.4
			l0.1,0.2l0.1,0.2l0,0.1l-0.3,2.5l0,0.2l-0.1,0.2l-0.1,0l-0.1,0l-0.4,0l-0.2,0l-0.1,0.1l-0.7,1l0,0.1l-0.1,0.2l0,0.1l0.2,0.4
			l0.1,0.2l0.1,0.1l0.3,0.3l0.4,0.2l0.3,0.1l0.2,0.1l0.1,0.1l0.3,0.2l0.1,0.1l0.1,0.1l0,0.1l0,0.1l0,0.1l-0.1,0.2l-0.2,0.2l-0.2,0.2
			l-0.2,0.1l-0.2,0.2l-0.1,0.3l0,0.7l0.1,0.6l0,0.1l-0.4,1.2l-0.1,0.2l-0.1,0.1l-0.3,0.2l-0.4,0.2l1.5,3l0.1,0.1l0.1,0.1l0.3,0.1
			l0.1,0l0.6,0.1l0.1,0l0.3,0.1l0.3,0.1l0.4,0.2l0.7,0.4l1.7,1.4l0.2,0.2l0.1,0.2l0.1,0.2l0,0.2l0,0.2l-0.1,0.2l0.5,1.2l3.1,0
			l18.1,0l6.3,0l0.8,0.2l0.8,0.3l1.7,0.6l4.4,1.4l2.4,0l0.2,0l0.7,0l2.9,0.9l0.6,0.2l0.8,0.4l0.8,0.4l0.7,0.4l1.4,0.2l1.1,0.1l1,0.1
			l2,0.4l0,0L81,522l0.1,0.1l0.2-0.1l0.1-0.1l0.3-0.3l0.1-0.2l0-0.1l0-0.1l0-0.1l-0.3-0.5l-0.2-0.2l-0.4-0.6l-1.1-1.2l-0.7-0.6
			l-0.2-0.2l-0.2-0.2l-0.3-0.3l-0.7-0.9l-0.3-0.4l-1.2-1.7l-0.2-0.3l-0.2-0.2l-0.2-0.3L75,512l-0.1-0.2l-0.8-1.3l-0.8-1.2l-0.1-0.1
			l-0.1-0.1l-0.1,0l-0.1,0l-0.1,0l-2.3,0.3l-1.1-0.4l-1.2-0.2l-0.1,0l-0.4,0l-0.2,0l-1.3,0.2l-0.3,0.1l-0.3,0.1l-0.3,0.1l-0.9,0.1
			l0-0.1l1.8-0.8l0.1,0l1.5-0.3l1,0l0.1,0l1.2,0.6l0.7,0.2l0.1,0l0.3,0l0.7-0.5l0.1-0.1l0.2-0.1l0.2-0.1l0.4-0.1l0.1,0l0.1,0
			l0.2,0.2l0.1,0l0.1,0l0.1-0.1l0.1-0.3l0.1-0.2l0-0.1l0-0.1l-0.1-0.4l-0.1-0.3l-0.1-0.3l-0.1-0.3l-0.1-0.2l-0.2-0.5l-0.6-1.2
			l-0.1-0.4l-1.1-2.8l0-0.1l-0.1-0.4l-0.1-0.4l0-0.5l0-0.1l0-0.4l0-0.1l0-0.1l-0.2-0.5l-0.1-0.2l-0.3-0.5l-0.1-0.1l-0.1,0l-0.1,0
			l-1.3,0.7l-0.2,0.2l-0.7,0.5l-0.2,0.2l-0.4,0.4l-0.1,0l0-0.1l0-0.1l0.4-0.4l0.6-0.6l0.3-0.2l0.9-0.6l1.1-1l0.4-0.4l0-0.1l0.1-0.2
			l0-0.2l-0.1-0.7l0-0.2l0-0.7l0-0.2l0-0.1l0.6-2.4l0-0.1l0.3-0.8l0.2-0.3l1.6-2l0.3-0.3l0.9-0.9l0.1-0.1l0.3-0.2l0.4-0.2l0.2-0.1
			l0.6-0.2l1.4-0.6l0.3-0.1l1.5-0.4l1-0.3l0.4-0.1l0.3-0.1l0.3-0.2l0.1-0.1l0.2-0.3l0-0.1l0-0.1l0-0.2l0-0.1l-0.2-0.1l-0.5-0.2
			l-0.7-0.4l-0.3-0.2l-0.3-0.2l-0.1-0.1l-0.1-0.1l-0.1-0.2l-0.1-0.3l0-0.1l-0.1-0.2l0-0.1l-0.1-0.2l-0.2-0.2l-0.1-0.1l-0.2-0.1
			l-0.1,0l-0.3,0l-0.1,0l-0.3,0.1l-0.1,0l-0.3,0l-1.6,0l-0.5-0.1l-0.3,0l-0.3,0l-0.4,0.1l-0.4,0.2l-1.1,0.2l-0.3,0l-0.1,0l0-0.1
			l0-0.1l0.2-0.1l0.4-0.2l0.1,0l0.2-0.1l1.3-0.3l0.3,0l1.5,0.1l0.4,0.1l0.3,0l1-0.3l0.1,0l0.1-0.1l0.1-0.2l0.1-0.2l1.2,0.8l1.1,1.4
			l0.1,0.1l0.1,0.1l1.1,0.8l0.1,0l0.1,0l0.7,0l0.4,0l0.6-0.1l0.3-0.1l1.7-0.6l0.3-0.1l0.5-0.3l0.3-0.2l0.2-0.2l0.6-0.4l0.4-0.3
			l0.3-0.2l0.9-0.7l0.1-0.1l0.3-0.3l0.2-0.3l0.1-0.2l0.1-0.3l0.2-0.7l0.1-0.4l0.1-0.6l0.1-0.8l0.1-1.3l0.4-1.8l0.5-1.6l0.7-2.6
			l0-0.2l0-0.1l-0.1-0.1l-0.1,0l-0.3,0l-0.1,0l-0.1,0.1l-0.1,0.1l-0.1,0.2l-0.4,0.8l-0.1,0.3l0,0.2l-0.1,0.3l-0.1,0.2l-0.2,0.2
			l-0.1,0l-1.2,0.2l-0.1,0l-0.1,0l-0.1-0.2l0-0.1l0.5-0.8l0.1-0.1l0.2-0.2l0.1,0l0.6-0.5l0.6-0.6l0.1-0.1l0.8-1l0-0.1l0-0.1
			l-0.1-0.2l-0.1-0.2l-0.1-0.1l-0.1-0.2l-0.1-0.2l0-0.1l0.7-1.1l0.2-0.2l0.3-0.3l0.6-0.5l0.2-0.1l0.1-0.1l0.3-0.3l1.1-1.1l0.2-0.1
			l0.9-0.6l0.4-0.2l0.4-0.2l0.4-0.1l0.2-0.1l0.1-0.1l0.1-0.2l0.4-0.8l1-1.4l0.1-0.1l0.1-0.1l0.3-0.3l0.2-0.1l0.3-0.1l1.4-0.6
			l0.4-0.1l0.4-0.1l0.5-0.1l0.7-0.1l0.1,0l0.1-0.1l1-1l0.9-0.9l0.3-0.2l0.1,0l0.3-0.1l1.3-0.4l1.1-0.1l0.1,0l0.1-0.1l0.7-0.9l1.1-1
			l0.8-0.7l2.9-2.4l0.1,0l0.2-0.1l1.3-0.1l0.3-0.7l0-0.1l-0.4-1.2l0-0.1l0-0.1l0-0.1l0.1-0.1l0.5-0.1l0.1,0l0.1,0l0.3,0.1l0.4,0.2
			l0.3,0.1l0.1,0l0.4,0l0.1,0l0-0.6l0-0.1l-1.5-1.9l-0.1-0.1l-0.2-0.1l-0.5-0.3l-0.2-0.1l-0.1,0l-0.1,0l-1.4,0.6l-0.7,0.3l-0.8,0.1
			l-0.4,0.1l-0.5,0.3l0.2-0.3l0.8-0.3l0.8-0.1l0.3-0.1l0.1-0.1l0.2-0.2l0.2-0.2l0.1-0.1l0.2-0.1l0.1-0.1l0.2-0.1l0.2-0.1l0.1,0
			l0.3,0l0.2,0.1l0.4,0.1l0.4,0l0.2-0.1l0.1,0l0.1,0l0.1-0.1l0-0.1l1.2-2.4l0.4-1.2l0-0.2l0.1-1.2l0.1-1.1l0-0.2l0-0.4l0-0.2l0-0.2
			l-0.5-2.2l0-0.1l-0.1-0.2l-1.5-1.4l-0.1-0.1l-0.1,0l-1.2-0.5l-0.1,0l-0.3,0l-0.5,0.1l-0.2,0.1l-0.3,0.2l-0.2,0.1l-0.1,0l-1.4,0
			l-1.9-0.2l-0.1,0l-0.2-0.1l0-0.1l0-0.1l-0.1-0.1l-0.1,0l-1.9-0.2l-1,0l-0.6,0.1l-0.3,0l-0.4,0l-0.5-0.1l-0.2-0.1l-0.3-0.1l-1-0.6
			l-0.1-0.1l-0.1-0.1l-1.8-1.9l-2.1-1.9l-1.1-0.8l-0.3-0.1l-0.3-0.1l-1.7-1.2l-0.3-0.2l-0.7-0.7l-0.5-0.6l-0.2-0.2l-0.7-0.9l0,0
			l-0.1-0.1l-0.3-0.5l-0.1-0.2l-0.5-1.6l-0.1-0.4l-0.4-1.6l-0.1-0.5l0-0.2l0-0.7l0-0.9l0.1-0.2l0.5-1.1l-2.4,0l1.7,0l0.7,0l0.6-1.1
			l0.1-0.1l1.6-1.7l0.1-0.1l0.4-0.3l0.7-2.4l0.1-0.3l0.1-0.2l0.1-0.2l0.2-0.3l0.1-0.1l0.3-0.2l0.3-0.2l0.7-0.5l0.1-0.1l0.1-0.1
			l0.1-0.1l1.1-1.7l0.9-1.4l0.6-0.8l0.1-0.1l0.1-0.1l0.5-0.4l0.1,0l1.2-0.6l0.2-0.1l0.3,0l2.1-0.2l1.7-0.7l0.6-0.6l-0.1-0.1l0-0.1
			l0-0.2l0.1-0.1l0.1-0.1l0.2-0.1l2.3-0.8l2.5-1.1l1-0.1l3.9,0.4l1.3,0.4l0.1,0l0.3,0.2l0.5,0.3l0.1,0l0.9-0.3l0.1,0l0.1-0.1l1.1-2
			l0-0.1l-0.1-0.1l-0.1,0l-1.1-0.5l-0.2-0.1l-0.1,0l-0.3,0l-0.2-0.1l-0.4-0.2l-0.1,0l-0.1-0.1l-0.1-0.2l0-0.2l0-0.5l0.4-1l0.1-0.2
			l0.6-1l0.1-0.1l0.2-0.2l0.4-0.3l0.1,0l3-1.6l0.7-1.6l0.2-0.4l1.1-1.6l-0.3-0.5l-0.5-1.2l-0.1-0.3l0-0.2l0.1-0.7l0-0.1l0.1-0.1
			l0.1-0.1l0.1,0l0.3-0.1l0.2,0l0.1,0l0.2-0.1l0-0.1l0.2-2.5l0-0.1l-0.3,0.1l-0.4,0.1l-0.2-0.9l-0.1-0.2l-0.2-0.5l-0.2-0.3l-0.1-0.1
			l-0.1-0.1l-0.1-0.2l-0.1-0.2l-0.2-1.2l0-0.3l0-0.2l0.1-0.7l0-0.1l0.1-0.2l0.6-0.8l0.4-0.6l1.7-1.8l0.2-0.2l1.2-2l0-0.2l0-0.1
			l0.2-0.2l1.3-1.1l0.2-0.2l1.3-0.9l0.1-0.1l0.4-0.2l0.4-0.2l0.9-0.3l1.6-0.3l0.9-0.4l1.9-0.8l0.4-0.2l0.9-0.6l0.1-0.1l0-0.1
			l-0.2-0.6l-0.1-0.1l-0.2,0.1l-0.3,0.2l-0.5,0.2l-0.1,0l-0.2,0l-0.1,0l-2.5-0.6l-0.4-0.1l-0.2-0.1l-0.3-0.2l-0.3-0.2l-0.6-0.5
			l-0.3-0.1l-0.9-0.5l-0.1,0l-1.9-0.6l-0.7-0.1l-0.1,0l-0.1-0.1l-0.1-0.1l0-0.1l-0.1-0.4l0-0.1l0-0.1l0.8-1.2l0.2-0.2l0.2-0.1
			l0.2-0.1l0.7-0.1l0.5,0l0.3-0.1l0.5-0.3l0.1-0.1l0.1-0.1l0.2-0.2l0-0.1l0.1-0.1l0.1-0.1l0.1-0.1l1.6-0.6l0.1,0l1.2-0.2l0.3,0
			l0.3,0l0.5,0l0.1,0l0.7,0.1l0.8,0.4l0.3,0.1l0.1,0.1l1.7,1.5l0,0.1l0,0.1l-0.3,0.7l-0.3,0.9l-0.1,0.3l0,0.1l0.1,0.2l0.1,0.1
			l1.5,1.5l0.1,0.1l0.3,0.2l0.1,0l0.1,0l0.1,0l0.2,0l0.2-0.1l3.1-0.7l1.2-0.2l0.4-0.1l0.3,0l0.2-0.1l0.1-0.1l0.1-0.1l0.5-0.5
			l0.1-0.1l0.1-0.1l0.1-0.2l0-0.1l0.6-2.3l0-0.3l-0.1-4.6l0-0.1l-0.1-0.2l-0.1-0.3l-0.1-0.2l-0.2-0.3l-0.3-0.3l-0.2-0.2l-0.1-0.1
			l-0.1-0.1l-0.1-0.2l-0.1-0.2l-0.1-0.4l-0.2-0.5l-0.5-1l-0.1-0.2l-0.2-0.1l-0.1,0l-0.3,0l-1.1,0.1l-0.3,0.1l-0.4,0.2l-1.7,0.9
			l-2.1,0.8l-1.9,0.3l-0.5,0.1l-0.1,0.1l0,0.1l0,0.1l0.1,0.1l0.1,0l0.3,0.1l0.2,0l0.5,0l0.4,0l1.2,0l0.5,0.1l0.3,0.1l0.2,0.1
			l0.2,0.2l0.2,0.3l0.1,0.2l0.1,0.2l-0.1,0.9l-0.1,0.2l-0.1,0.1l-0.2,0.2l-0.6,0.4l-0.2,0.1l-0.1,0l-0.3,0l-4.4,0.2l-1.9-0.1l-0.1,0
			l-0.1,0l-0.1-0.1l0-0.1l0-0.1l0-0.1l0.1-0.2l0-0.1l0.6-0.9l0.3-0.4l0.4-0.4l0.3-0.2l0.2-0.2l0.1-0.1l0-0.1l0-0.1l-0.2-0.1
			l-0.3-0.1l-0.2-0.1l-0.3-0.1l-0.1,0l-0.1,0l-0.5,0.2l-0.1,0l-0.2,0l-1.9-0.5l-1.9-0.6l-0.2-0.1l-0.7-0.5l-0.4-0.3l-0.4-0.4
			l-0.3-0.3l-0.7-1.4l-0.2-0.3l-0.1-0.3l0-0.1l0-0.3l0.1-0.3l0.1-0.2l0.4-0.9l0.1-0.1l0.1-0.3l0.2-0.5l0.2-0.6l0-0.1l-0.1-0.2
			l-0.1-0.1l-0.1-0.2l-0.1-0.2l-0.1-0.3l-0.1-0.4l0-0.3l0-0.4l0-0.3l0.1-0.2l0-0.1l0.1-0.1l0.1-0.2l0.1-0.2l0.1-0.3l0-0.2l0-0.4
			l0-0.3l0-0.1l0-0.1l-0.1-0.1l-0.1-0.1l-0.1-0.1l-0.2-0.1l-0.1-0.1l-0.2-0.2l-0.2-0.2l-0.1-0.2l-0.9-3.5l-0.4-1.8l-0.1-0.3
			l-0.1-0.3l-0.2-1.6l0-0.2l0.1-0.8l0.1-0.2l0.4-1.3l0.1-0.1l2-2l0.1-0.1l0.6-0.2l0.5-0.1l0.2,0l1.1,0.2l0.1,0l0.3,0.1l0.1,0.1
			l0.5,0.9l0,0.1l0,0.1l-0.1,0.1l-0.1,0l0.5,0.5l2.7,0.9l0.3,0.1l0.3,0.1l2.7,1l2.1,1l0.2,0.1l1.1,0.2l1,0.3l0.3,0.1l0.2,0.1
			l0.2,0.1l0.3,0.2l0.3,0.3l0.3,0.3l0.2,0.2l0.1,0.1l0.4,0.2l0.5,0.2l0.3,0.1l0.3,0l0.9,0l0.3,0l1.6-0.1l1.8-0.1l1,0.1l3.2,0l0.3,0
			l0.8-0.1l0.3-0.1l0.1,0l0.2-0.1l0.2-0.2l0.1-0.1l0.8-0.3l2.5-1l0.2,0l0.2,0l0.2,0l0.1,0l1.8-1l2.5-1.2l0.3-0.1l0.2-0.1l0.8-0.4
			l0.2-0.1l0.1-0.1l0.1-0.2l0.4-1.2l0.7-1.9l0-0.1l0.1-0.1l0.1-0.1l0.1,0l0.1,0l0.1,0l0.1-0.1l0.1-0.2l0-0.1l-0.1-0.1l-0.1,0l-0.1,0
			l-0.7,0.2l-0.3,0.1l-0.8,0.5l-0.1,0l-0.1-0.1l0-0.1l-0.1-0.9l0-0.1l0.1-0.1l0.1,0l0.1,0l0.1,0.1l0.1,0.2l0.1,0.1l0.1,0.1l0.1,0
			l0.3,0l0.1,0l0.1,0l0.1,0l0-0.1l0.1-0.2l0-0.2l0-0.1l-0.2-0.6l-0.5-0.1l-1.7-1.6l-0.1-0.1l0-0.1l-0.3-0.6l-0.7-1.8l0-0.1l0-0.1
			l0-0.1l0.1-0.2l0.1-0.1l0.6-0.6l0.1,0l0.2-0.1l0.4-0.1l0.1,0l0.1-0.1l0.1-0.2l0.2-0.4l0-0.1l0.2-0.9l-0.1-0.4l0-1.5l0.5-2.1
			l0.5-0.9l0.1,0.1l0.1,0l0.1,0l0.9,0.2l0.2,0l0.1,0l0.6-0.3l0.1-0.1l0-0.1l0-0.8l0-0.6l0-0.4l0.2-1.3l0.3-2.2l0-0.1l-1-1.2
			l-0.2-0.1l-1.6-1.5l-0.1-0.1l0-0.1l0.2-0.3l0-0.1l0.1,0l0.9-0.1l0.1,0l0.1,0.2l0.1,0.2l0.1,0.2l0.2,0.2l0.3,0.3l0.9,0.6l0.1,0
			l0.1,0l0.1,0l0.1,0l0.1,0l0.2-0.2l0.1-0.2l0-0.1l0-0.1l0-0.2l-0.1-0.1l-0.6-0.5l-0.2-0.2l-1.2-0.6l-0.1,0l-0.7-0.1l-0.2,0l-0.2,0
			l-0.1,0l-0.4-0.1l-0.1,0l-0.1,0l-0.5-0.1l0-0.1l-0.3-1.5l0.2-1.5l0.3-0.7l0.5-1.4l-0.7-0.5l-0.6-0.7l-0.2-0.4l-0.2-0.6l0-0.1
			l0.1-0.2l0.1-0.1l0.2-0.1l0.2,0l0.1,0l2,0.4l1.4,0.8l0.1,0.4l0.1,0.4l0.1,0.1l0.1,0l0.9,0.4l0.1,0l0.6,0.2l2,0.5l0.3,0.1l2.6,0.3
			l1.2,0.1l0.2,0l0.4-0.1l0.7-0.3l0.4-0.1l0.1,0l0.3,0l0.2,0l0.2,0l0.2,0.1l0.6,0.1l1.7,0.1l0.5,0l1-0.1l3.4-0.3l0.5-0.1l1.8-0.3
			l3.4-0.4l4-0.7l4-0.7l0.3,0l1.4-0.1l1.7-0.6l2.6-0.6l3.3-0.7l1.4-0.3l0.9-0.1l0.2,0l0.3-0.1l0.2,0l0.3-0.1l0.2-0.1l3.2-1.3
			l0.5-0.2l1.6-0.4l5.1-1.5l1.6-0.6l0.4-0.2l4.7-2.4l2.3-1.5l0.4-0.3l0.3-0.2l0.6-0.5l0.2-0.2l0.3-0.3l0.2-0.3l0.1-0.2l0-0.1
			l0.1-0.9l0-0.1l-0.2-0.3l0-0.1l0-0.1l0-0.1l0-0.1l0.1-0.7l0.1-0.4l0.1-0.5l0.2-0.4l0.2-0.4l0.1-0.2l1-1.2l1.2-1.4l0.8-0.8l0.3-0.2
			l0.6-0.6l0.4-0.4l0.9-1.1l0.5-0.7l0.6-0.9l0.1-0.2l0-0.2l1.2-2l1.8-2.9l1.2-1.6l0.2-0.3l0.3-0.3l0.4-0.5l0.2-0.4l0-0.3l0-0.2
			l-0.1-4.7l0-0.2l-0.3-2.4l-0.1-0.4l-0.5-1.4l-0.1-0.1l-0.1-0.1l-0.1-0.1l-0.1,0l-0.1,0l-0.1,0l-0.1,0l-1.3,0.7l-0.4,0.3l-0.4,0.1
			l-1.7-0.9l-0.7-0.4l-0.1-0.1l-0.5-0.4l-1.1-1l-0.2-0.2l-0.2-0.2l-0.9-1.2l-0.1-0.1l-0.8-1.8l-0.2-0.4l-0.1-0.6l0-1.7l0-0.3
			l0.1-0.3l0.1-0.2l0.3-0.5l0.6-1l1.1-1.7l0.7-0.7l0.2-0.2l0.4-0.8l0.2-0.3l0.1-0.7l-0.1-0.2l-0.2-0.3l-0.8-1.3l-1.8-2.4l-0.3-0.4
			L238,228l-0.1-0.1l-4.3-2.8l-0.8-0.5l-2.1-1l-0.3-0.1l-0.8-0.3l-0.7-0.3l-0.5-0.1l-1-0.5l-1.3-0.9l-0.2-0.2l-0.2-0.3l0,0l-0.2-0.5
			l-0.1-0.1l0-0.1l-0.1-0.1l-0.1,0l-0.3-0.1l-0.1,0l-0.2,0l-0.1,0l-0.1-0.1l-0.4-0.4l-0.1-0.1l-0.1-0.9l-0.2-1.6l-0.1-1.2l0.3-0.7
			l0.1,0l0.5-0.3l0.1-0.1l0.3-0.4l0.5-0.7l0-0.1l0-0.1l-0.1-2.1l0-0.2l-0.1-0.1l-0.1-0.1l-0.3-0.2l-0.3-0.2l0.1-0.3l0-0.2l0-0.1
			l0-0.1l-0.3-1.9l0-0.1l-0.1-0.1l-0.1-0.1l-0.2-0.2l-0.6-0.8l-0.1-0.2l-0.1-0.4l0-0.1l0-0.8l0-0.4l0.3-2.4l0.1-0.5l0.2-1.2l0-0.1
			l0.4-0.8l0.1-0.2l0.2-0.2l0.4-1.2l0-2.6l0-0.1l0-0.1l0.2-0.2l0.1,0l0.1,0l0.1,0l0.4,0l1.4,0.1l0.2,0l0.1,0l0.2,0l0.1,0l0.2,0
			l0.3,0l0.2-0.1l0.1,0l0.2-0.2l0.1-0.1l0.1-0.2l0.1-0.2l0-0.2l-0.1-1.6l-0.2-1.4l-0.4-2.6l-0.4-2.2l0-0.2l0-0.7l0-0.4l0.1-0.3
			l0.1-0.2l0-0.1l0.1-0.2l0,0l0,0l0.3-0.7l0.1-0.2l0.3-0.5l0.2-0.3l0.4-0.3l0.1-0.1l0-0.1l0-0.1l0-0.4l0-0.6l0-0.1l-0.1-0.1
			l-0.4-0.3l-0.2-0.2l-0.2-0.3l-0.2-0.4l-0.1-0.2l0-0.1l0-0.2l0-0.2l0-0.1l0.1-0.2l0.1-0.1l0.1-0.1l0.1-0.2l0-0.3l0.1-1.2l0-0.1
			l-0.2-0.5l-0.1-0.3l0-0.1l-0.4-0.5l-0.1-0.2l0-0.1l0.1-0.2l0.1-0.2l0.2-0.2l0.2-0.2l0.2-0.1l0.2,0l0.4-0.1l0.2-0.1l0.4-0.2
			l0.2-0.2l0.1-0.2l0-0.1l0.1-0.2l0.7-2.5l0.1-0.3l0-0.2l0-0.2l0-0.1l0-0.2l-0.1-0.2l-0.1-0.1l-0.2-0.3l-0.2-0.2l-0.2-0.2l-0.4-0.2
			l-0.1-0.1l-0.1-0.1l0-0.1l0-0.2l0.1-0.1l0.1-0.1l0.3-0.2l0.1-0.1l0.3-0.1l0.1-0.1l0.2-0.2l1-2.2l0.1-0.2l0.1-0.2l0.9-3.3l0.8-3
			l0-0.2l0-1.1l0-0.3l0-0.1l0-0.3l0-0.3l0-0.1l-0.1-0.5l0-0.2l-0.4-1.1l-0.1-0.1l-0.1-0.1l-0.2-0.2l-0.1,0l-0.1-0.1l-0.1-0.2l0-0.2
			l0-1l0-0.2l0.1-0.2l0.1-0.1l0.2-0.2l0.9-0.7l0.1-0.1l0.7-0.5l1.1-1.1l0.5-0.9l0-0.1l0.1-0.2l0-0.2l-0.1-0.6l0.3-0.9l0.4-0.1
			l0.4-0.1l0.3-0.2l0.6-0.4l0.2-0.2l2-2.2l0.2-0.3l0.1-0.2l0-0.1l0-1l0-0.5l0-0.1l0-0.2l0.2-0.5l0.1-0.2l0.1-0.1l0.2-0.2l0.1-0.1
			l0.2-0.1l0.3-0.1l1.1-0.1l0.2,0l0.4-0.2l0.1-0.1l0.1-0.1l0.2-0.2l0.2-0.2l0.4-0.4l1.9-2.5l1.4-1.6l1.6-2l0-0.1l0.1-0.2l0.5-1.1
			l0-0.2l0-0.1l0-0.3l0-0.1l0.1-0.4l0.1-0.2l0.2-0.4l0.4-0.5l0.1-0.1l0.2-0.2l0.5-0.4l0.3-0.2l1.2-0.3l0.1-0.1l0.2-0.3l1.6-3.6
			l0-0.3l0-0.2l0-0.1l0.1-0.2l0.1-0.1l0.2-0.1l1.4-0.8l1.5-1.7l0.8-1.1l0.5-1.2l1.2-2l0-0.1l0.1-0.1l0.1-0.1l0.1,0l0.2,0l0.3,0
			l1.4,0.1l0.1,0l0.1,0.1l0,0.2l0,0.1l0.1,0.3l0.1,0.1l0.1,0l0.1,0l0.1-0.1l0.1-0.1l0.1-0.2l0.2-0.7l0-0.2l0-0.2l0-0.1l-0.1-0.2
			l-0.1-0.1l-0.1-0.1l-0.4-0.2l-0.7-0.4l-0.1-0.1l0-0.1l0-0.1l0-0.1l0.1-0.2l0.1-0.1l0.1-0.1l0.2-0.1l0.4-0.1l0.4-0.2l0.6-0.6l0-0.1
			l0.1-0.2l0-0.2l0.6-0.1l1.9-0.8l0.9-1l0-0.1l0-0.2l0-0.3l0-0.1l0-0.1l0.1-0.1l0.7-0.8l0.1-0.1l1.9-1.1l0.2,0l1.5-0.2l0.1,0
			l0.6-0.2l1.6-1.6l0.1-0.2l0-0.2l0-0.7l1.1-2.1l0.1-0.1l0.1-0.1l0.1,0l0.1,0l0.1,0l0.1,0.1l0,0.1l0,0.1l0,0.1l0,0.1l0,0.1l0.1,0
			l0.1,0l0.2,0l1.1-0.2l0.1,0l0.8-0.4l1.4-0.7l1.1-0.4l1.3-0.2l1-0.5l0.1,0l0.1-0.1l0.6-0.7l1.2-1.6l0.1,0l0.3,0l0.2,0l0.2-0.1
			l0.3-0.3l0.3-0.3l0.1-0.1l0.2-0.3l0.1-0.1l0.2-0.5l0-0.1l1.5-0.6l0.6-0.1l0.3,0.4l0.4-0.7l0.9-2.1l0.2-0.4l0.4-1.1l0.1-0.6
			l-0.3-1.6l0-0.1l-0.3-1.4l0.1-0.7l0.2-2.5l0-2.2l0-0.2l0-0.1l0.1-0.2l0.2-0.2l0.1,0l0.3-0.4l0.2-0.4l0.1-0.3l0-0.1l0-0.1l0-0.2
			L293.1,78.3L293.1,78.3z M127,10.5l0,0.7l0-0.1L127,10.5L127,10.5z M223.3,220.8l-0.2-0.2l0.5-1L223.3,220.8L223.3,220.8z"/>
		<path id="Fill-14" sketch:type="MSShapeGroup" fill="#F4F4F4" d="M128.1,560.5l-0.8-0.1l-1.2,0l-0.5,0l-1.4,0.2l-3.5,0.4l-0.2,0
			l-0.3,0l-1.5-0.2l-3.4-1.1l-0.2-0.1l-2.4-0.8l-0.2-0.1l-0.3-0.1l-0.2-0.1l-0.6-0.3l-3.2-1.6l-0.1-0.1l-0.2-0.2l-1.2-1.2l-0.1-0.1
			l-0.4-0.4l-0.3-0.2l-0.2-0.1l-0.2-0.1l-0.4-0.2l-1.2-0.5l-0.4-0.1l-1.8-0.7l-3.9-2l-1.3-0.7l-1.9-1.2l-1-0.7l-0.1-0.1l-0.1-0.2
			l-0.1-0.3l0-0.4l0.1-0.2l0-0.2l-0.1-0.1l-0.6-0.4l-0.4-0.2l-0.1,0l-1.1-0.7l-0.9-0.6l-2.4-1.7l-0.3-0.3l-0.1-0.2l-0.2-0.2
			l-0.5-0.8l-0.3-1l-0.2-1l0-0.2L86,539l-0.1-0.2l-0.7-1.1l-0.1-0.1l-0.1-0.1l-0.2-0.1l-0.3,0l-0.3,0l-0.1,0l-0.7,0.2l-0.1,0l-0.3,0
			l-0.8,0l-0.6-0.1l-0.4-0.1l-0.4-0.2l-0.6-0.3l-0.2-0.2l-0.1-0.1l-0.3-0.3l-0.2-0.3l-0.1-0.2l-0.1-0.2l0-0.2l0.1-0.3l0-0.1l0.3-0.4
			l2.1-1.9l0.1-0.1l0.3-0.1l0.7-0.2l0.1,0l0.2,0.1l0.1,0.1l0.1,0.1l0.1,0.2l0.1,0.3l0.1,0.5l0.1,0.3l0.1,0.2l0.1,0.4l0,0.1l0.1,0.1
			l0.1,0l0-0.1l0-0.1l0-0.1l-0.5-1.8l-0.1-0.2l-0.1-0.3l-0.3-0.5l-0.1-0.2l-0.1-0.2l-0.2-0.3l-0.2-0.2l-0.2-0.2l-0.9-0.6l-0.6-0.5
			l-1.1-1.2l-0.7-0.9l-0.7-0.8l0,0.2l0,1.2l0,1.3l0,5.8l0,2.3l0,1.1l0,2.9l0,5.6l0,2.7l0,5.7l0,0.3l0,3.2l-0.1,4.1l0.9,0.8l0.3,0.2
			l0.1,0l0.2,0.1l0.3,0l0.3,0l2.3-0.2l0.1,0l0.1-0.1l0.1-0.2l0-0.1l0.9-0.1l1.3,0.1l0.5,0.1l0.2,0.1l0.4,0.2l0,0l0.1,0l0.5,0.1
			l0.4,0.1l2.5,0.3l1.6,0.2l0.5,0l0.3,0l0.5,0l0.3,0l1.7-0.1l4.8,0.4l1.9,0.2l0.1,0l0.3,0l2.5,0.5l0.4,0.1l0.7,0.3l0.3,0.2l0.3,0.2
			l0.2,0.2l0.1,0.1l0.2,0.1l0.3,0.2l0.1,0l0.2,0.1l0.7,0.2l0.4,0.1l1.3,0.1h0.2l0.9-1l0.1-0.1l0.1,0l0.5,0l1.1,0l1.1,0.1l0.3,0
			l0.6-0.1l0.3-0.1l1.3-0.4l0.1-0.1l0.3-0.2l0.4-0.3l0.1-0.1l0.2-0.3l0.7-0.1l0.2,0l1.5,0.1l0.1,0l0.4,0.1l0.1,0l0.1,0.1l0.1,0.1
			l0.1,0.2l1.4,0.1l0.1,0l1.6-0.5l1.2,0.1l0,0.1l0,0.1l0.1,0.1l0.3,0.1l0.3,0l0.1,0l0.1-0.1l0.3-0.3l1.2-1.5l1.4-2.7l0-0.1l-0.1-0.1
			L128.1,560.5"/>
		<path id="Fill-15" sketch:type="MSShapeGroup" fill="#F4F4F4" d="M147.3,561.8l-0.1,0l-1.2-0.1l-0.2,0l-1.5,0.3l-2.1,0.2l-2.4-0.3
			l-0.6,0.3l-2,0.6l-1.2,0.3l-0.2,0l-0.2-0.1l-0.4-0.2l-0.2-0.1l-0.1,0l-0.3,0l-0.7,0.5l-0.1,0.1l-0.2,0.3l0,0.1l0,0.1l0.4,0.1
			l0.3,0l0.1,0l0.4,0.3l0,0.1l-0.1,0.6l0.6-0.1l0.8-0.6l0.1,0l1.3-0.3l0.3,0l0.2,0l0.4-0.1l0.1,0l1-0.6l0.3-0.2l0.9,0.3l-0.1,0.3
			l0,0.1l0,0.1l0.1,0.1l0.1,0l1.7-0.4l1.4-0.5l0.4-0.2l0.5,0.2l0.3,0.4l1.2-0.4l0.1-0.1l0.7-0.9L147.3,561.8L147.3,561.8"/>
		<path id="Fill-16" sketch:type="MSShapeGroup" fill="#F4F4F4" d="M78.4,563.3l-0.2-0.1l0,1.4l-0.1,0.1l0.5,0l0.1,0l0.4-0.1
			l0.2-0.2L78.4,563.3L78.4,563.3"/>
	</g>
</g>
</svg>
