<?xml version="1.0" encoding="UTF-8" standalone="no"?>
<svg width="360px" height="480px" viewBox="0 0 360 480" version="1.1" xmlns="http://www.w3.org/2000/svg" xmlns:xlink="http://www.w3.org/1999/xlink" xmlns:sketch="http://www.bohemiancoding.com/sketch/ns">
    <!-- Generator: Sketch 3.2.2 (9983) - http://www.bohemiancoding.com/sketch -->
    <title>chubut</title>
    <desc>Created with Sketch.</desc>
    <defs></defs>
    <g id="Page-1" stroke="none" stroke-width="1" fill="none" fill-rule="evenodd" sketch:type="MSPage">
        <g id="chubut" sketch:type="MSArtboardGroup" fill="#4DB9DF">
            <g id="Imported-Layers" sketch:type="MSLayerGroup" transform="translate(-9.000000, 12.000000)">
                <path d="M359.331382,142.854623 L358.035934,142.854623 C356.719592,142.854623 350.200565,145.446047 348.884223,147.394798 C348.236499,148.037471 348.236499,148.680144 347.588776,149.986222 C347.588776,148.037471 347.588776,146.08872 346.941052,144.803374 C346.272434,140.905872 343.660644,132.488926 343.660644,131.846253 L342.365196,126 L340.401131,131.846253 C340.401131,131.846253 337.789341,138.314448 337.141617,142.21195 C336.493893,146.08872 337.141617,157.760494 337.141617,161.637265 C335.177551,159.045841 333.882104,156.454417 333.882104,155.16907 C333.213485,153.220319 331.918038,152.577646 331.270314,152.577646 C330.601696,152.577646 329.953972,152.577646 329.306248,153.220319 C327.342182,155.16907 326.046735,162.943343 326.046735,167.462787 C326.046735,169.411537 326.694458,172.645635 327.342182,175.237059 C327.989906,179.777234 328.658524,185.602756 328.658524,188.19418 L328.658524,188.857584 C327.989906,192.734355 326.694458,199.865954 325.378116,203.742725 C324.082669,205.048802 324.082669,206.334149 323.434945,207.640227 C321.470879,204.406129 319.506813,200.508627 318.211366,199.223281 C317.542748,198.559876 316.895024,198.559876 316.2473,198.559876 C315.599576,198.559876 314.930958,198.559876 314.283234,199.223281 C311.671444,201.814705 312.319168,214.771826 312.319168,214.771826 L312.319168,218.648596 C312.319168,221.882694 312.319168,225.137523 314.283234,229.014293 C314.930958,230.320371 316.2473,232.24839 316.895024,233.554468 C318.85909,237.431239 321.470879,241.971414 321.470879,243.920165 C321.470879,247.796935 320.823155,256.877286 319.506813,259.46871 C318.85909,260.754056 318.85909,261.417461 318.211366,262.060134 C316.2473,259.46871 312.987786,255.571208 311.023721,254.285861 C309.059655,252.979784 307.095589,249.103013 305.800141,247.154262 L302.540628,241.328741 L302.540628,248.46034 C302.540628,249.103013 301.87201,260.754056 302.540628,267.242982 C303.188352,273.711177 305.152417,282.148854 309.059655,286.025625 C316.2473,293.799897 316.2473,296.391321 316.2473,297.033994 C316.2473,299.625418 312.319168,310.65452 311.023721,312.582539 C309.707379,313.888617 309.059655,317.122714 307.764207,320.356812 C307.764207,317.786119 307.095589,315.173963 306.447865,313.245944 C305.131523,309.348442 304.483799,303.52292 304.483799,303.52292 L303.188352,295.748648 L300.576562,302.880247 C300.576562,302.880247 297.296154,310.65452 296.64843,315.173963 C296.000707,317.786119 296.000707,319.714139 296.000707,321.020216 C296.000707,322.305563 296.000707,323.61164 295.352983,324.896987 C294.036641,328.131084 292.093469,334.62001 292.093469,339.802859 C292.093469,343.036956 293.388917,346.271053 294.036641,349.525882 C294.684365,351.453902 295.352983,353.402653 295.352983,354.045326 C294.684365,355.994077 289.460785,364.431754 288.165338,367.002447 C287.517614,367.665851 282.941758,371.542622 280.977693,372.848699 C278.365903,374.134046 271.846876,379.980299 270.530534,381.908318 C269.88281,382.550992 267.918744,383.857069 266.623297,385.142416 C264.659231,387.091167 262.047441,388.397244 260.751994,389.682591 C260.751994,390.325264 260.083375,390.325264 259.435652,390.988669 C261.399717,388.397244 263.363783,385.80582 264.011507,385.142416 C265.954679,383.857069 272.4946,376.72547 273.790047,374.776719 C275.106389,372.206026 277.718179,364.431754 278.365903,362.483003 C279.034521,360.534252 279.682245,355.994077 279.682245,355.994077 L280.977693,348.883209 L275.754113,354.045326 C275.754113,354.045326 262.047441,368.308524 257.471586,371.542622 C252.248006,374.776719 246.376703,381.265645 245.081256,386.448493 C244.412638,389.039918 244.412638,391.631342 244.412638,394.865439 C244.412638,396.81419 244.412638,400.048287 243.764914,400.690961 C243.11719,401.997038 240.5054,403.945789 234.613203,405.231136 C233.965479,405.231136 232.670031,405.231136 232.670031,405.873809 C233.965479,403.945789 234.613203,401.997038 235.281821,401.354365 L236.577269,400.690961 L235.929545,397.456863 L234.613203,397.456863 C233.965479,397.456863 232.022307,398.099536 228.7419,399.405614 L228.7419,396.171517 C228.7419,396.171517 213.718886,387.754571 192.176845,387.754571 C170.634804,387.754571 153,395.528844 153,395.528844 L153,400.048287 C153,400.048287 169.98708,392.274015 192.176845,392.274015 C210.459372,392.274015 224.186939,398.762941 227.446452,400.690961 C226.777834,401.354365 225.482386,401.354365 224.834662,401.997038 L224.186939,401.997038 C224.186939,401.997038 223.51832,402.639712 222.222873,403.945789 C220.258807,405.231136 218.942465,406.537213 217.647017,407.82256 C214.387504,410.413984 210.459372,413.005408 205.235793,415.596832 C203.271727,416.239506 201.976279,416.239506 200.680832,416.90291 C200.012214,416.90291 198.716766,417.545583 198.048148,417.545583 C214.387504,409.771311 222.222873,400.690961 222.222873,400.690961 L218.942465,399.405614 C218.942465,399.405614 209.811648,409.128638 195.436358,416.239506 L196.7527,416.90291 C196.7527,416.90291 196.104976,417.545583 195.436358,418.188257 L194.788634,418.188257 L192.176845,418.851661 L193.493187,420.137007 C191.529121,422.085758 189.565055,425.319856 188.917331,428.553953 C188.917331,428.553953 192.176845,429.196626 196.104976,426.605202 C214.387504,435.042879 223.51832,445.408576 229.410518,446.693922 C233.317755,447.357327 232.022307,444.102498 232.022307,444.102498 C224.186939,435.685552 212.423438,429.860031 201.328556,425.319856 C206.552135,425.962529 215.035228,427.91128 221.554255,431.808782 C230.058242,436.970899 247.024427,447.357327 252.248006,448 L250.283941,443.459825 C250.283941,443.459825 232.022307,434.379475 226.13011,431.145377 C215.682951,425.962529 204.588069,424.034509 200.012214,424.034509 C201.328556,423.371105 203.271727,423.371105 204.588069,423.371105 C207.847583,423.371105 211.775714,424.034509 215.682951,425.319856 C222.222873,426.605202 228.094176,430.502704 233.317755,432.451455 C245.081256,437.634303 250.283941,438.91965 250.283941,438.91965 L260.083375,436.328226 C260.083375,436.328226 239.857676,431.145377 229.410518,427.268607 L228.7419,427.268607 C234.613203,427.268607 241.153124,425.319856 241.153124,425.319856 L245.081256,424.034509 L241.153124,419.494334 C239.857676,418.851661 235.929545,415.596832 231.353689,413.648081 C235.929545,412.362735 241.800848,410.413984 243.764914,410.413984 C245.081256,410.413984 247.024427,411.077389 248.988493,411.720062 C253.564348,413.005408 260.083375,414.954159 269.88281,414.954159 C286.201272,414.954159 302.540628,394.865439 303.836076,393.580093 L308.411931,388.397244 L301.87201,390.988669 C298.612496,392.274015 289.460785,394.865439 286.201272,395.528844 C283.589482,395.528844 279.682245,397.456863 273.142324,400.690961 C271.199152,401.354365 269.88281,401.997038 267.918744,402.639712 C269.235086,401.997038 270.530534,400.690961 271.199152,400.048287 C272.4946,399.405614 274.458666,398.099536 276.422731,397.456863 C279.682245,396.171517 283.589482,394.222766 286.201272,390.988669 C288.813061,387.754571 291.424851,381.265645 293.388917,376.082797 C294.036641,374.134046 294.705259,372.206026 295.352983,371.542622 C296.000707,370.899948 296.000707,370.257275 296.64843,368.951198 C297.964772,366.359773 300.576562,360.534252 303.188352,359.228174 C303.836076,358.585501 305.131523,358.585501 307.095589,357.942828 C314.283234,355.351404 319.506813,353.402653 320.802261,350.168555 C321.470879,348.219804 324.082669,345.62838 326.046735,343.036956 C327.342182,341.108936 328.63763,339.802859 329.953972,338.496781 C332.565762,334.62001 335.825275,323.61164 335.825275,321.66289 L339.105683,307.399691 L333.882104,313.245944 C330.601696,317.122714 326.046735,322.305563 322.766327,324.254314 C322.766327,321.020216 323.434945,312.582539 324.082669,306.114345 C325.378116,303.52292 327.342182,298.982745 329.306248,298.340072 C333.213485,297.033994 343.01292,288.617049 344.329262,284.740278 C345.62471,281.485449 348.884223,273.068504 348.884223,272.425831 L350.848289,267.242982 L346.272434,270.47708 C346.272434,270.47708 341.048854,273.068504 338.437065,275.017255 C339.105683,273.068504 339.753407,271.119753 340.401131,269.191733 C342.365196,263.34548 343.660644,256.877286 343.660644,256.877286 L344.976986,251.051764 L340.401131,255.571208 C335.825275,259.46871 333.213485,262.060134 331.918038,263.34548 C331.270314,259.46871 329.953972,253.643188 329.953972,251.051764 C330.601696,246.511589 335.177551,238.094643 338.437065,235.503219 C343.01292,232.24839 348.884223,220.597347 348.884223,214.771826 C349.552841,209.588978 348.884223,200.508627 348.884223,200.508627 L348.884223,195.968452 L343.660644,199.865954 L343.660644,194.040433 L343.660644,192.734355 L342.365196,191.449008 L343.01292,190.785604 C345.62471,188.19418 350.848289,179.134561 352.164631,174.594386 C352.812355,170.717615 353.460079,166.820113 353.460079,166.820113 L353.460079,162.279938 C354.107803,161.637265 354.776421,160.351919 355.424145,159.688514 C358.683658,155.16907 358.683658,149.986222 359.331382,147.394798 L359.331382,146.08872 L360,145.446047 L359.331382,142.854623 L359.331382,142.854623 Z M235,422.568 C233.018735,423.25 230.384075,423.25 227.749415,423.25 C225.114754,423.25 222.480094,421.886 219.192037,421.204 C215.903981,419.818 212.594848,419.136 209.960187,419.136 L208,419.136 C211.941452,417.75 215.903981,415.682 217.864169,412.25 C219.845433,408.818 224.461358,406.068 228.40281,404 C227.749415,405.386 227.096019,406.75 226.421546,408.818 L225.76815,411.568 L229.077283,411.568 L230.384075,411.568 C223.807963,413.636 223.133489,414.318 223.807963,415.682 C223.807963,416.386 224.461358,417.75 226.421546,417.75 C227.749415,418.432 231.711944,420.5 235,422.568 L235,422.568 Z M290.405384,373.178947 C288.445962,377.789474 285.812329,384.357895 283.831838,387.663158 C281.851346,390.273684 278.564573,391.6 275.93094,392.905263 C273.950449,393.578947 271.991026,394.884211 270.010535,396.210526 C266.702692,398.842105 258.148654,404.105263 258.148654,404.757895 L257.495513,405.410526 C256.842372,406.063158 256.842372,407.389474 256.842372,408.042105 C256.842372,408.694737 258.148654,409.368421 259.476005,409.368421 C260.129146,409.368421 261.456496,409.368421 263.415919,408.694737 C266.049551,408.042105 270.663675,406.063158 275.277799,404.105263 C279.891924,402.126316 285.812329,399.494737 287.792821,399.494737 C289.752243,399.494737 293.713227,398.168421 297,397.515789 C291.079594,403.452632 280.545064,412 271.316816,412 C262.109637,412 255.515021,410.021053 251.575107,409.368421 C248.941475,408.694737 246.960983,408.042105 244.980492,408.042105 L244.327351,408.042105 L243,408.042105 C244.980492,406.736842 246.960983,405.410526 247.614124,404.105263 C248.941475,402.778947 248.941475,400.147368 248.941475,395.557895 C248.941475,392.905263 248.941475,390.273684 249.594616,388.315789 C250.247757,384.357895 255.515021,379.094737 260.129146,375.157895 C263.415919,373.178947 270.010535,366.589474 274.60359,362 C273.950449,363.978947 271.991026,371.2 270.663675,373.178947 C270.010535,375.157895 263.415919,381.073684 262.109637,382.378947 C262.109637,382.378947 247.614124,400.147368 248.941475,403.452632 C248.941475,404.105263 250.247757,404.757895 250.900897,404.757895 L251.575107,404.757895 C253.555599,404.105263 256.842372,400.8 262.762778,394.231579 C263.415919,393.578947 264.090129,392.905263 264.090129,392.252632 C265.39641,390.947368 267.376902,389.621053 269.357394,387.663158 C271.316816,386.336842 273.297308,385.010526 273.950449,383.705263 C275.277799,381.726316 281.198205,377.115789 283.178697,375.810526 C285.159188,374.484211 290.405384,371.2 292.385876,368.568421 C292.385876,369.894737 291.732735,371.2 290.405384,373.178947 L290.405384,373.178947 Z M331.419991,268.459364 L332.058746,267.820377 C332.697501,267.18139 334.634371,265.243816 337.848751,262.667256 C337.209996,264.604829 337.209996,266.52179 336.571241,268.459364 C334.634371,274.251472 332.058746,280.70318 332.058746,280.70318 L326.907497,290.370436 L334.634371,282.640754 C335.273126,281.981154 337.848751,280.064193 339.78562,278.765607 C340.424375,278.12662 341.72249,277.487633 343,276.828033 C342.361245,279.404594 341.083735,281.981154 340.424375,283.918728 C339.146865,286.495289 330.781236,293.585984 327.546252,294.88457 C323.693117,296.162544 321.117492,303.892226 320.458132,305.1702 L320.458132,305.8298 C319.180623,314.837456 317.903113,326.442285 319.819377,329.018846 C320.458132,329.657833 321.756247,330.29682 323.033757,329.657833 C324.970627,329.018846 328.185007,325.143698 331.419991,321.928151 C330.760631,325.143698 327.546252,334.171967 326.268742,336.748528 C325.609382,338.026502 324.331872,339.325088 323.033757,341.262662 C321.117492,343.81861 318.541868,346.395171 317.243753,348.992344 C316.604998,350.909305 309.516879,353.485866 305.663744,354.124853 C304.365629,354.784452 303.088119,354.784452 301.790004,355.423439 C300.512495,356.062426 299.21438,356.722026 297.93687,358 C298.575625,356.722026 299.21438,356.062426 299.21438,355.423439 C299.87374,354.124853 299.21438,351.548292 297.93687,348.332744 C297.27751,345.756184 296,342.540636 296,339.964075 C296,334.810954 297.93687,329.018846 299.21438,326.442285 C299.87374,324.504711 299.87374,322.567138 299.87374,320.629564 C299.87374,319.35159 299.87374,317.414016 300.512495,315.476443 C300.512495,314.198469 301.151249,312.260895 301.790004,310.343934 C302.449364,311.621908 302.449364,312.899882 303.088119,314.198469 C304.365629,318.073616 305.024989,327.081272 303.726874,329.657833 C302.449364,332.87338 302.449364,340.603062 302.449364,341.262662 L303.088119,352.207892 L306.302499,341.262662 C306.302499,341.262662 306.941254,339.964075 307.600614,338.026502 C308.239369,337.387515 309.516879,335.449941 310.176238,326.442285 C310.176238,323.865724 312.751863,315.476443 314.029373,314.198469 C315.966243,311.621908 319.180623,300.017079 319.819377,296.801531 C319.819377,294.224971 317.243753,289.710836 311.453748,283.279741 C308.239369,280.064193 306.941254,272.334511 306.302499,266.52179 L306.302499,254.937574 C307.600614,256.215548 308.239369,257.514134 309.516879,258.153121 C311.453748,259.451708 315.327488,264.604829 317.243753,267.820377 L319.180623,271.035925 L320.478737,267.18139 C320.478737,267.18139 321.756247,263.94523 323.054362,261.368669 C323.693117,259.451708 324.331872,256.215548 324.970627,253 C325.629987,258.153121 326.907497,265.882803 328.205612,267.18139 L328.844367,267.820377 L331.419991,268.459364 L331.419991,268.459364 Z M344,205.057858 L344,214.659828 C343.362529,219.153057 338.22163,230.0476 334.993145,232.612228 C331.147753,235.176857 327.281797,242.234715 325.369383,248 L325.369383,245.435371 C325.369383,242.234715 322.798934,237.741485 320.228484,233.268773 C319.570449,231.340172 318.295506,230.0476 317.658035,228.775544 C317,224.918342 317,222.353714 317,219.153057 L317,214.659828 L317,205.057858 C318.932978,207.622487 320.865956,212.095199 322.798934,215.316373 L326.006855,222.353714 L326.006855,214.659828 C326.006855,214.659828 326.006855,208.894542 327.281797,205.057858 C327.919269,203.129257 328.577304,200.564629 329.214775,198 C329.214775,200.564629 329.852247,202.493229 329.852247,203.129257 L331.147753,206.329914 L333.718203,203.765285 C334.993145,201.836684 336.926123,199.928601 338.22163,198.636028 L338.22163,205.057858 L338.22163,209.53057 L344,205.057858 L344,205.057858 Z M335,195.068 C335,194.364 337.068,193.682 338.432,193 C337.75,193.682 336.364,195.068 335,197.114 L335,195.068 L335,195.068 Z M349.25,174.395077 C348.568,178.307692 343.068,186.823385 341,188.120615 C340.318,188.769231 338.932,189.438769 337.568,190.087385 C334.818,191.384615 332.75,192.702769 331.386,194 C332.068,192.054154 332.068,190.736 332.068,189.438769 L332.068,188.769231 C332.75,185.505231 332.068,180.274462 330.682,174.395077 C330.682,172.428308 330.682,169.812923 330,167.846154 C330,165.900308 330,162.615385 330.682,160 C332.75,163.933538 336.182,168.515692 336.886,169.164308 L338.25,171.131077 L337.568,171.779692 L337.568,172.428308 C336.182,177.010462 336.886,178.307692 336.886,178.977231 C337.568,179.625846 337.568,180.274462 338.932,180.274462 L339.636,180.274462 C340.318,180.274462 341.682,180.274462 349.932,172.428308 C349.932,173.076923 349.25,173.746462 349.25,174.395077 L349.25,174.395077 Z M352.386,158.267223 C349.636,162.17119 343.432,167.390397 340,170 L340.682,168.705637 C340.682,168.705637 341.386,165.427975 341.386,162.17119 C340.682,158.914405 340.682,146.51357 341.386,143.256785 C341.386,142.609603 342.068,141.294363 342.068,140 C342.75,141.941545 343.432,144.551148 343.432,145.866388 C342.75,148.475992 343.432,157.599165 343.432,157.599165 L343.432,166.096033 L347.568,158.914405 C348.932,156.304802 351.682,151.732777 352.386,151.085595 C353.068,150.438413 354.432,149.770355 355.818,149.123173 C355.136,151.085595 354.432,154.989562 352.386,158.267223 L352.386,158.267223 Z" id="Fill-1" sketch:type="MSShapeGroup"></path>
                <path d="M184.211086,422.298096 L186.80739,418.409833 C188.095158,417.099883 190.047579,415.810727 192,415.166148 C192,415.166148 188.095158,414.500777 184.854969,415.810727 C169.921024,408.657987 160.844342,398.261562 160.844342,398.261562 L158.248038,399.571512 C158.248038,399.571512 167.989373,409.302565 182.902548,417.099883 L182.258664,417.099883 C181.614781,417.099883 180.306243,416.455305 179.018476,416.455305 C177.066055,415.810727 175.113634,415.810727 172.517329,415.166148 C169.921024,412.567042 166.036952,409.967936 162.13211,407.36883 C160.844342,406.058881 159.535805,404.769724 158.248038,404.125146 C157.583384,403.459775 156.295616,402.170618 155.651733,401.505247 L154.987079,402.170618 C151.103007,399.571512 146.554281,398.261562 145.910397,398.261562 L144.60186,398.261562 L143.314093,400.860668 L144.60186,401.505247 C145.266514,402.170618 145.910397,404.125146 147.198164,406.058881 C146.554281,406.058881 145.910397,406.058881 145.266514,405.414302 C139.40925,404.125146 136.812945,401.505247 136.169062,400.860668 C135.525178,400.21609 135.525178,396.972406 135.525178,395.017878 C135.525178,392.418772 135.525178,389.175087 134.881295,386.575981 C132.928873,381.377769 127.09238,375.514186 121.899771,371.625923 C117.351045,368.382239 103.725637,354.721337 103.725637,354.076759 L98.5330274,348.878546 L99.8207946,356.031286 C99.8207946,356.031286 101.129332,360.58492 101.129332,362.518655 C101.773216,364.473183 104.369521,372.935873 105.657288,374.869607 C106.965825,377.468714 113.446202,383.976875 115.398623,385.266032 C116.042507,385.91061 117.994928,388.530509 119.947349,391.108822 C119.303466,390.464244 119.303466,389.819666 118.638812,389.819666 C117.351045,388.530509 115.398623,386.575981 112.802319,385.266032 C110.849897,383.976875 109.56213,382.666926 108.918247,382.022347 C107.609709,380.733191 101.773216,374.869607 99.176911,373.580451 C96.5806062,372.270501 92.6757638,369.026817 92.0318802,367.716867 C90.079459,365.138554 84.8868494,356.675865 84.8868494,354.721337 C84.8868494,354.076759 85.5515034,351.477653 86.195387,350.188496 C87.4831542,346.924019 88.1478082,343.680334 88.1478082,340.43665 C88.1478082,335.238438 86.195387,328.730276 84.8868494,325.486592 C84.2429658,324.197435 84.2429658,322.887485 84.2429658,321.598329 C84.2429658,319.643801 84.2429658,317.689273 83.5990822,315.734745 C82.2905446,311.201904 79.6942398,303.404586 79.0503562,303.404586 L76.4540514,296.251846 L75.1662843,304.049164 C75.1662843,304.049164 74.5016302,309.891955 72.5699795,313.80101 C71.9053254,315.734745 71.2614419,318.354644 71.2614419,320.932958 C70.6175583,317.689273 69.3090206,314.445589 68.0212535,313.135639 C66.7127159,311.201904 63.4725275,300.140109 62.8286439,297.541003 C62.8286439,296.896424 63.4725275,294.297318 69.9736747,286.5 C73.8577466,282.611737 75.8101679,274.149048 76.4540514,267.661679 C77.097935,261.818888 76.4540514,249.467936 76.4540514,248.823358 L76.4540514,241.670618 L73.2138631,247.513408 C71.9053254,249.467936 69.3090206,253.356199 68.0212535,254.666148 C66.0688323,255.955305 62.8286439,259.864361 60.8762227,262.463467 C60.2323391,261.818888 60.2323391,260.508939 59.5884555,259.864361 C58.2799179,257.265255 57.6360343,248.157987 57.6360343,244.269724 C57.6360343,241.670618 60.2323391,237.116984 62.1847603,233.8733 C62.8286439,231.918772 64.1164111,230.629615 64.7810651,229.319666 C66.7127159,225.431403 66.7127159,222.166926 66.7127159,218.923241 L66.7127159,215.034979 C66.7127159,215.034979 67.3773699,202.039448 64.7810651,199.440342 C64.1164111,198.774971 63.4725275,198.774971 62.8286439,198.774971 C62.1847603,198.774971 61.5201063,198.774971 60.8762227,199.440342 C59.5884555,200.729499 57.6360343,204.638554 55.6836131,207.882239 C55.6836131,206.572289 55.0397295,205.283133 54.3958459,203.973183 C53.0873083,200.08492 51.7995411,192.93218 51.1348871,189.043918 L51.1348871,188.378546 C50.4910035,185.77944 51.7995411,180.581228 52.4434247,175.383016 C53.0873083,172.139332 53.0873083,169.540225 53.7311919,167.585698 C53.7311919,163.052857 52.4434247,155.255538 50.4910035,153.30101 C49.8471199,152.656432 49.2032363,152.656432 49.2032363,152.656432 C48.5385823,152.656432 47.2508151,152.656432 46.6069315,155.255538 C46.6069315,156.544695 44.6545103,159.143801 43.3459727,161.742907 C44.0106267,157.854644 44.0106267,146.148271 43.3459727,142.260008 C42.7020891,138.350952 40.7496679,131.863583 40.1057843,131.863583 L38.1533631,126 L36.2217124,131.863583 C36.2217124,132.508162 33.6254076,140.950058 32.9607535,144.193743 C32.9607535,145.503692 32.3168699,147.45822 32.3168699,149.391955 C31.6729864,148.102798 31.0291028,147.45822 31.0291028,146.792849 C29.7205651,144.859114 23.2401884,142.260008 21.9316508,142.260008 L20.6438836,142.260008 L20,144.859114 L20.6438836,145.503692 L20.6438836,146.792849 C20.6438836,149.391955 21.2877672,154.590167 24.5279556,159.143801 C25.1718391,159.788379 25.8364932,161.098329 26.4803768,161.742907 L26.4803768,166.296541 C26.4803768,166.296541 26.4803768,170.184804 27.7681439,174.093859 C28.432798,178.647493 33.6254076,187.733968 36.8655959,190.333074 L37.5094795,190.977653 L36.8655959,191.643024 C36.2217124,192.93218 36.2217124,193.576759 36.2217124,194.24213 L36.2217124,200.729499 L31.0291028,195.531286 L31.0291028,200.08492 C31.0291028,200.729499 30.3644487,209.171395 31.0291028,214.369607 C31.6729864,220.233191 36.8655959,231.918772 41.4143219,235.162456 C44.6545103,237.761562 49.8471199,246.224252 49.8471199,250.757093 C49.8471199,253.356199 49.2032363,259.864361 47.8946987,263.108045 C45.9422775,261.818888 43.3459727,259.219782 39.4619007,255.310727 L34.9131747,250.757093 L36.2217124,256.620676 C36.2217124,256.620676 37.5094795,263.108045 39.4619007,268.950836 C40.1057843,270.905363 40.7496679,272.859891 41.4143219,274.814419 C38.8180171,273.504469 33.6254076,270.260785 33.6254076,270.260785 L29.0766816,267.661679 L31.0291028,272.859891 C31.0291028,273.504469 34.2692911,281.946366 35.5570583,285.210843 C36.8655959,289.099106 47.2508151,296.896424 50.4910035,298.850952 C52.4434247,299.495531 54.3958459,304.049164 55.6836131,306.648271 C56.9921507,313.80101 57.6360343,321.598329 56.9921507,324.842013 C54.3958459,322.242907 49.2032363,317.044695 45.9422775,313.80101 L40.7496679,307.937427 L42.7020891,315.734745 C42.7020891,315.734745 43.3459727,319.643801 44.0106267,322.242907 C44.6545103,324.197435 47.8946987,335.238438 49.8471199,339.1267 C50.4910035,340.43665 51.7995411,342.391178 53.7311919,343.680334 C55.6836131,346.27944 57.6360343,348.878546 58.9238015,350.833074 C60.2323391,354.076759 66.0688323,356.031286 72.5699795,358.630393 C73.8577466,359.274971 75.1662843,359.274971 76.4540514,359.919549 C79.0503562,361.229499 81.646661,366.427711 82.9551986,369.671395 C83.5990822,370.981345 84.2429658,371.625923 84.2429658,372.270501 C84.2429658,372.935873 85.5515034,374.869607 86.195387,376.824135 C88.1478082,382.022347 90.744113,388.530509 93.3404178,391.774194 C95.9367226,395.017878 99.8207946,396.327827 103.060983,398.261562 C105.013404,398.906141 106.965825,400.21609 108.253593,400.860668 C108.918247,401.505247 110.206014,402.170618 111.514551,403.459775 C110.206014,402.815196 108.253593,402.170618 106.321942,401.505247 C99.8207946,398.906141 95.2720686,396.972406 93.3404178,396.327827 C90.079459,396.327827 81.0027774,393.06335 77.7625891,391.774194 L71.2614419,389.175087 L75.1662843,394.3733 C75.8101679,395.017878 92.6757638,415.810727 108.918247,415.810727 C118.638812,415.810727 125.139959,413.856199 129.688685,412.567042 C132.28499,411.922464 133.572757,411.257093 134.881295,411.257093 C136.812945,411.257093 143.314093,413.211621 147.198164,414.500777 C143.314093,416.455305 138.765367,419.719782 137.477599,420.364361 L134.216641,422.963467 L138.121483,424.252623 C138.121483,424.252623 144.60186,426.207151 150.459123,426.207151 L149.794469,426.207151 C139.40925,430.095414 119.303466,435.293626 119.303466,435.293626 L129.024031,437.892732 C129.024031,437.892732 134.881295,436.603576 145.910397,431.405363 C151.103007,428.806257 157.583384,425.562573 163.440647,424.252623 C167.324719,423.608045 171.229562,422.963467 174.46975,422.298096 C176.422171,422.298096 177.709938,422.963467 179.018476,422.963467 L179.018476,423.608045 C176.422171,423.608045 164.084531,424.917995 153.055428,431.405363 C147.198164,434.649048 129.024031,442.446366 129.024031,442.446366 L125.783843,447 C130.332569,446.355422 148.506702,436.603576 157.583384,431.405363 C163.440647,428.161679 171.229562,426.207151 175.778288,425.562573 C165.372298,430.095414 154.343195,435.958997 147.198164,443.756316 C147.198164,443.756316 145.910397,447 149.794469,446.355422 C155.651733,445.690051 164.084531,435.958997 180.950127,427.496308 L180.950127,428.161679 C180.950127,428.161679 180.950127,428.161679 180.950127,427.496308 C182.258664,426.851729 184.211086,426.207151 185.498853,425.562573 L184.211086,422.298096 L184.211086,422.298096 Z M25,148.137691 C26.386,148.784423 28.454,149.431154 28.454,150.098748 C29.136,150.74548 31.886,155.314325 33.25,157.922114 L37.386,165.077886 L37.386,156.607789 C37.386,154 37.386,146.823366 38.068,144.883171 C38.068,143.568846 38.75,141.607789 39.454,139 C39.454,140.314325 40.136,140.961057 40.136,142.275382 C40.818,145.529903 40.136,158.568846 40.136,161.176634 C39.454,164.431154 40.818,167.685675 40.818,167.685675 L41.5,169 C38.068,166.392211 31.886,161.176634 29.136,157.25452 C25.704,154.646732 25,150.74548 25,148.137691 L25,148.137691 Z M31.682,174.334123 C31.682,173.672986 31.682,172.990521 31,172.329384 C39.932,180.327014 41.296,180.327014 42,180.327014 L42.682,180.327014 C43.364,180.327014 44.046,179.665877 44.75,179.004739 C44.75,178.322275 46.114,177 44.046,172.329384 L44.046,171.668246 L43.364,171.007109 C43.364,171.007109 43.364,171.007109 42.682,170.324645 L44.046,168.341232 C44.75,167.658768 48.182,163.009479 50.25,159 C50.932,161.665877 51.614,164.331754 50.932,166.99763 C50.932,169.00237 50.25,171.668246 50.25,174.995261 C49.546,180.327014 48.182,186.319905 48.864,189.668246 L48.864,190.329384 C48.864,191.651659 49.546,192.995261 49.546,195 C48.182,193.656398 46.114,192.334123 43.364,190.990521 C42,190.329384 40.614,189.668246 39.932,188.985782 C37.864,187.00237 32.364,178.322275 31.682,174.334123 L31.682,174.334123 Z M45.432,198.114 C44.068,196.75 42.682,195.364 42,194 C43.364,194.682 45.432,196.046 45.432,196.046 L45.432,198.114 L45.432,198.114 Z M43.1304795,232.863158 C39.8576821,230.231579 34.6462212,219.705263 34,214.442105 L34,204.568421 L39.2114609,209.831579 L39.2114609,205.242105 L39.2114609,198.652632 C40.5247491,199.978947 42.4634125,201.936842 43.7767007,203.915789 L46.3824312,206.547368 L47.6748735,203.263158 C47.6748735,202.610526 48.3419405,200.631579 48.3419405,198 C48.9881616,200.631579 49.6343828,203.263158 50.2806039,205.242105 C51.5938921,209.178947 51.5938921,215.094737 51.5938921,215.094737 L51.5938921,222.989474 L54.8458437,215.768421 C56.1591319,212.463158 58.7648623,207.873684 60.7035258,205.242105 C60.7035258,207.873684 61.3705928,212.463158 60.7035258,215.094737 L60.7035258,219.705263 C60.7035258,222.989474 60.7035258,225.621053 59.4110835,228.252632 C58.7648623,229.578947 58.0977953,231.557895 56.805353,232.863158 C54.1996225,237.473684 51.5938921,242.084211 51.5938921,245.368421 L51.5938921,248 C50.9476709,242.736842 47.0286523,235.494737 43.1304795,232.863158 L43.1304795,232.863158 Z M81.0631302,348.273553 C79.7856203,352.172427 79.1262604,354.101126 79.7856203,355.407663 C79.7856203,356.050563 80.4243753,356.714201 81.0631302,358 C79.7856203,356.714201 78.4875055,355.407663 77.2099956,355.407663 C75.9118808,354.764764 74.6343709,354.764764 73.336256,354.101126 C69.4831214,352.815327 63.0337571,350.86589 61.7562473,348.937191 C60.4581324,346.324116 58.5212626,343.73178 55.9456379,341.160182 C54.668128,339.210745 53.3700132,337.904207 52.7312582,336.618408 C50.7943884,334.026071 48.2187637,325.606162 47.5800088,321.707288 C50.7943884,324.942524 54.0293731,328.17776 55.9456379,329.484298 L57.2437527,329.484298 C57.8825077,329.484298 58.5212626,328.841398 59.1806225,328.841398 C61.0968873,326.249062 59.8193775,315.216077 58.5212626,305.510369 L58.5212626,304.846731 C57.8825077,303.560932 55.3068829,295.783923 51.4537484,294.498124 C48.2187637,293.191586 39.8531346,286.057476 38.5756247,283.465139 C37.9162648,282.17934 36.6387549,278.923366 36,276.331029 C37.2775099,276.994667 38.5756247,277.637567 39.2143797,278.280466 C41.1512495,279.587004 43.7268742,282.17934 44.3656291,282.17934 L52.0925033,289.95635 L47.5800088,279.587004 C47.5800088,279.587004 44.3656291,273.095793 43.0675142,267.26822 C42.4287593,265.318783 41.7900044,263.369346 41.7900044,261.440648 C44.3656291,264.032984 46.9412538,266.625321 47.5800088,266.625321 L48.2187637,267.91112 L50.1556335,267.91112 L50.7943884,267.26822 C52.0925033,265.961683 53.3700132,258.848311 54.0293731,253 C54.668128,256.255975 55.3068829,259.491211 55.9456379,261.440648 C57.2437527,264.675884 58.5212626,267.26822 58.5212626,267.26822 L59.8193775,271.146356 L61.7562473,267.91112 C63.6725121,264.675884 68.1850066,259.491211 69.4831214,258.184673 C70.7606313,257.541774 71.3993862,256.255975 72.6975011,254.949437 L72.6975011,266.625321 C72.0587462,272.452894 70.1218764,280.229903 67.5462516,283.465139 C61.7562473,289.95635 59.1806225,294.498124 59.1806225,297.069722 C59.1806225,300.325696 63.0337571,311.980841 64.9706269,314.573178 C66.2481368,316.522615 68.8237615,324.299625 68.8237615,326.891961 C69.4831214,336.618408 70.7606313,337.904207 71.3993862,338.547106 C72.6975011,339.853644 72.6975011,341.803081 72.6975011,341.803081 L75.9118808,352.815327 L76.5506357,341.160182 C76.5506357,340.496544 77.2099956,333.383172 75.2731258,329.484298 C73.975011,326.891961 74.6343709,317.829153 75.9118808,313.930278 C76.5506357,312.623741 76.5506357,311.337942 77.2099956,310.052143 C77.8487505,311.980841 78.4875055,313.287379 78.4875055,315.216077 C79.1262604,317.165515 79.1262604,318.472052 79.1262604,320.400751 C79.1262604,322.350188 79.1262604,324.299625 79.7856203,326.249062 C80.4243753,328.841398 83,335.31187 83,339.853644 C83,342.445981 81.7018851,345.681217 81.0631302,348.273553 L81.0631302,348.273553 Z M134.717408,407.170648 C132.772834,407.170648 130.828259,407.805461 127.601093,408.440273 C123.070648,409.730375 117.257611,411 108.217408,411 C99.1565183,411 88.8130367,402.686007 83,396.931741 C86.2271663,398.201365 90.1163154,398.836177 92.040203,398.836177 C93.9847775,398.836177 99.7978142,401.395904 104.328259,403.320819 C108.858704,405.245734 113.389149,407.170648 115.97502,407.805461 C117.898907,408.440273 118.56089,408.440273 119.843482,408.440273 C121.788056,408.440273 122.429352,407.805461 122.429352,407.170648 C123.070648,406.515358 122.429352,405.245734 121.788056,404.610922 L121.14676,403.976109 C121.14676,403.976109 113.389149,398.836177 109.5,395.641638 C107.555425,394.372014 105.631538,393.716724 103.686963,392.447099 C100.459797,391.156997 97.8739266,389.887372 95.9293521,387.327645 C93.9847775,384.767918 90.7576112,377.723549 89.4543326,373.259386 C88.8130367,371.334471 88.1717408,370.044369 87.530445,369.409556 C88.8130367,371.334471 93.9847775,375.163823 96.5706479,376.453925 C98.5152225,377.088737 104.328259,382.208191 105.631538,384.133106 C106.272834,384.767918 108.217408,386.692833 110.141296,387.962457 C112.08587,389.25256 114.671741,391.156997 115.313037,392.447099 C115.97502,393.081911 115.97502,393.716724 116.616315,394.372014 C121.788056,400.12628 125.015222,403.976109 127.601093,404.610922 L129.545667,404.610922 L130.186963,403.320819 C131.490242,400.12628 117.257611,382.843003 117.257611,382.843003 C115.97502,381.573379 109.5,375.163823 108.858704,373.894198 C107.555425,371.969283 105.631538,364.924915 104.969555,363 C109.5,367.484642 115.97502,373.894198 119.202186,375.798635 C124.373927,379.013652 128.904372,384.767918 129.545667,388.617747 C130.186963,390.522184 130.186963,393.081911 130.186963,395.641638 C130.186963,399.491468 130.186963,402.686007 131.490242,403.976109 C132.772834,405.245734 134.076112,406.515358 136,407.170648 L134.717408,407.170648 L134.717408,407.170648 Z M153.885246,417.728 L153.885246,417.728 C155.845433,417.728 156.519906,416.364 156.519906,415.682 C156.519906,414.296 156.519906,413.614 149.922717,411.546 L151.250585,411.546 L153.885246,411.546 L152.557377,408.796 C151.903981,406.728 151.250585,405.364 150.576112,404 C154.538642,406.046 159.154567,408.796 161.114754,412.25 C163.096019,415.682 167.058548,417.728 171,419.114 L169.039813,419.114 C166.384075,419.114 163.096019,420.5 159.807963,421.182 C156.519906,422.546 153.885246,423.228 151.250585,423.228 C148.615925,423.228 145.981265,422.546 144,422.546 C148.615925,419.796 152.557377,417.728 153.885246,417.728 L153.885246,417.728 Z" id="Fill-2" sketch:type="MSShapeGroup"></path>
                <path d="M222.981265,329.335523 L224.288056,325.43584 L225.594848,328.671748 C225.594848,328.671748 226.269321,332.571431 226.269321,331.928398 L228.903981,329.978556 L230.885246,328.028715 L230.885246,324.149774 L232.845433,320.25009 L232.845433,317.657215 L232.845433,303.406775 L233.498829,305.99965 C233.498829,305.99965 233.498829,308.592525 234.173302,309.235558 C234.826698,309.878591 234.173302,313.114498 234.173302,313.114498 L236.154567,318.320991 L236.807963,314.421307 L235.480094,307.928749 L235.480094,302.763742 L235.480094,304.692841 L237.461358,306.642683 L237.461358,313.778274 C237.461358,314.421307 238.789227,313.778274 238.789227,313.778274 C238.789227,313.778274 240.749415,309.878591 240.749415,309.235558 C240.749415,308.592525 242.077283,306.642683 242.077283,306.642683 L242.077283,304.692841 L240.096019,306.642683 C240.096019,306.642683 240.096019,304.049808 240.749415,303.406775 C241.40281,302.763742 243.384075,299.507091 244.058548,298.864058 C244.711944,298.221025 245.36534,296.914216 245.36534,296.914216 L246.693208,293.035275 L244.711944,294.321341 L243.384075,291.728466 L244.058548,288.492559 L246.018735,288.492559 L248,286.542717 L248,282 L246.018735,284.592875 L246.018735,282 L244.711944,284.592875 L242.730679,287.849526 L240.749415,290.442401 C240.749415,290.442401 241.40281,293.678308 241.40281,294.321341 C241.40281,294.321341 240.096019,298.221025 240.096019,297.557249 C240.096019,296.914216 237.461358,293.678308 237.461358,293.678308 L235.480094,296.271183 L237.461358,299.507091 L236.154567,303.406775 L236.154567,300.8139 L234.826698,298.221025 L232.192037,300.8139 L231.538642,300.8139 C231.538642,300.8139 232.845433,296.914216 232.845433,296.271183 C232.845433,295.62815 233.498829,293.035275 233.498829,292.371499 C233.498829,291.728466 234.173302,288.492559 234.173302,288.492559 L232.845433,285.899684 L229.557377,284.592875 L230.210773,287.18575 L230.885246,291.085434 L230.885246,293.678308 L228.903981,296.914216 C228.903981,296.914216 228.250585,293.035275 228.250585,292.371499 C228.250585,291.728466 228.903981,288.492559 228.903981,288.492559 L227.576112,286.542717 L226.922717,289.778625 L226.269321,293.678308 L226.269321,296.271183 L228.250585,297.557249 L228.250585,300.150124 L230.210773,303.406775 L230.210773,306.642683 L228.903981,310.542366 L228.903981,307.285716 L227.576112,303.406775 L227.576112,305.99965 L226.922717,309.878591 L227.576112,313.114498 C227.576112,313.114498 228.903981,315.707373 228.903981,316.371149 C228.903981,317.014182 229.557377,321.556899 229.557377,321.556899 L228.250585,325.43584 C228.250585,325.43584 226.269321,321.556899 226.922717,320.893123 L226.922717,316.371149 L226.922717,312.471465 C226.922717,312.471465 224.941452,309.878591 224.941452,309.235558 C224.941452,308.592525 224.941452,305.99965 225.594848,305.99965 C226.269321,305.99965 225.594848,302.099966 225.594848,302.099966 L224.288056,300.150124 L222.306792,304.692841 L222.306792,307.285716 C222.306792,307.285716 222.981265,309.878591 223.63466,310.542366 L224.941452,313.778274 C224.941452,313.778274 224.941452,317.014182 224.288056,317.657215 C223.63466,318.320991 224.288056,320.25009 224.288056,320.25009 L222.981265,324.792807 C222.981265,324.792807 222.306792,321.556899 222.306792,320.893123 C222.306792,320.25009 221,315.707373 221,315.707373 L221,329.335523 L222.306792,331.928398 L222.981265,329.335523" id="Fill-3" sketch:type="MSShapeGroup"></path>
                <path d="M224.454,347.674242 C224.454,347.674242 226.5,349 227.204,349 C227.886,348.347643 229.272,347.674242 229.272,347.674242 L232.022,345.696128 C232.022,345.696128 230.636,345.043771 229.954,345.043771 C229.272,345.043771 227.204,347.021886 227.204,347.021886 C227.204,347.021886 225.818,347.021886 225.818,346.369529 C225.818,345.696128 227.886,344.391414 228.568,344.391414 L231.318,344.391414 C231.318,344.391414 232.704,343.065657 232.704,342.4133 C232.704,341.760943 233.386,339.130471 233.386,339.130471 L233.386,337.804714 L235.454,335.174242 L239.568,332.564815 L240.954,330.5867 L238.886,330.5867 C238.886,330.5867 235.454,332.564815 234.75,333.217172 C234.068,333.869529 232.704,334.521886 233.386,334.521886 C234.068,333.869529 236.136,329.260943 236.818,329.260943 C237.522,329.260943 238.204,327.956229 238.886,327.282828 C238.886,326.630471 239.568,324 239.568,324 C239.568,324 237.522,325.325758 236.818,325.325758 C236.136,325.978114 235.454,327.282828 235.454,327.282828 L232.704,331.239057 L230.636,334.521886 L230.636,337.152357 C230.636,337.152357 229.954,339.130471 229.272,339.130471 C228.568,339.130471 226.5,341.108586 226.5,341.108586 L224.454,343.065657 C223.772,343.065657 223.068,343.739057 223.068,343.739057 C222.386,343.739057 221,343.065657 221,343.065657 L221,345.043771 L223.772,347.021886 L224.454,347.674242" id="Fill-4" sketch:type="MSShapeGroup"></path>
                <path d="M82.9826598,234.238411 L171.191189,234.238411 L171.191189,240.089166 L82.9826598,240.089166 C82.9826598,245.294464 83.6309444,251.145219 83.6309444,257.662252 C83.6309444,323.373934 114.999553,370.221616 160.734985,383.880318 C155.506884,385.83751 152.244549,387.149245 152.244549,387.149245 L152.244549,391.688265 C152.244549,391.688265 169.246335,383.880318 191.45531,383.880318 C213.016001,383.880318 228.052021,393 228.052021,393 L228.052021,388.440159 C228.052021,388.440159 224.789685,386.482967 218.913299,384.546596 C264.648731,370.867073 296.01734,324.019391 296.01734,258.307709 C296.01734,252.456954 296.01734,246.606199 296.665625,240.734623 L207.808811,240.734623 L207.808811,234.883868 L296.665625,234.883868 C301.245442,163.32143 330,137.29494 330,137.29494 L282.298802,113.871099 L286.230334,114.516556 L287.526903,94.9862781 L236.56337,94.9862781 L287.526903,89.7809801 L284.264568,70.9169801 L234.597604,83.9302252 L282.298802,66.3571391 L273.808365,48.8048742 L229.369502,73.5196291 L271.194314,43.5995762 L258.772345,28.6291391 L221.52735,63.7544901 L254.861725,25.3810331 L239.177421,13.658702 L212.367716,56.6128212 L234.597604,11.056053 L216.299248,3.91438411 L200.614944,52.6984371 L211.071147,2.60264901 L191.45531,0 L188.841259,50.741245 L186.227208,0 L166.632284,2.60264901 L176.440202,52.6984371 L161.404182,3.91438411 L143.105827,11.056053 L166.632284,56.6128212 L139.822579,13.013245 L124.138275,24.7355762 L157.47265,63.7544901 L120.87594,28.6291391 L107.805686,42.933298 L149.630498,72.2287152 L105.191635,47.4931391 L96.7011982,65.0662252 L144.402396,83.2847682 L94.735432,70.2715232 L91.4730967,89.1355232 L142.43663,94.9862781 L91.4730967,94.3408212 L92.7696658,113.871099 L98.6669644,113.204821 L49,137.29494 C49,137.29494 77.7545583,163.32143 82.9826598,234.238411 L82.9826598,234.238411 Z M283,100 L282.358118,111 L270.721412,108.932 L262.294118,104.114 L239,100 L283,100 L283,100 Z M169,209.500723 L169,126.348156 L169.682,126.348156 L169,209.500723 L175.886,215.342191 L175.886,213.408894 L171.75,208.856291 L171.75,114 L172.432,114 L172.432,208.856291 L176.568,212.099241 L176.568,210.810376 L187.568,221.848879 L187.568,229 L176.568,217.940709 L176.568,216.007411 L169,209.500723 L169,209.500723 Z M199,296.022 L199,285 L204.5,285.704 L204.5,297.386 L199,296.022 L199,296.022 Z M204.5,298.364 L204.5,310.046 L199,308.682 L199,297 L204.5,298.364 L204.5,298.364 Z M203,229.568 L192,241.25 L192,233.682 L203,222 L203,229.568 L203,229.568 Z M203,233 L203,240.546 L192,252.25 L192,244.682 L203,233 L203,233 Z M200,246 L200,253.287505 L189.333333,263.87981 L189.333333,285.064419 L189.994667,285.064419 L189.994667,295 L184.661333,294.343277 L184.661333,284.407696 L186.666667,284.407696 L186.666667,263.87981 L176,253.287505 L176,246 L187.989333,258.583658 L200,246 L200,246 Z M198.182,297.682 L198.182,309.364 L192,307.978 L192,297 L198.182,297.682 L198.182,297.682 Z M192,293.318 L192,283 L197.478,283.682 L197.478,294.704 L192,293.318 L192,293.318 Z M191.5,293.704 L191.5,304.682 L186,303.318 L186,293 L191.5,293.704 L191.5,293.704 Z M186.182,294.364 L186.182,304.682 L180,303.318 L180,293 L186.182,294.364 L186.182,294.364 Z M180,292.614 L180,283 L185.5,283.682 L185.5,294 L180,292.614 L180,292.614 Z M173,290.636 L173,281 L178.5,281.704 L178.5,291.318 L173,290.636 L173,290.636 Z M178.5,292.704 L178.5,303.022 L173,301.636 L173,292 L178.5,292.704 L178.5,292.704 Z M187,244.682 L187,252.25 L176,240.546 L176,233 L187,244.682 L187,244.682 Z M176,229.568 L176,222 L187,233.682 L187,241.25 L176,229.568 L176,229.568 Z M188.114,109.114 L184,105 L184,94 L188.114,98.114 L188.114,109.114 L188.114,109.114 Z M187.682,114.704 L187.682,122.25 L176,110.568 L176,103 L187.682,114.704 L187.682,114.704 Z M187.682,126 L187.682,133.568 L176,122.568 L176,115 L187.682,126 L187.682,126 Z M187.682,139 L187.682,146.546 L176,135.546 L176,128 L187.682,139 L187.682,139 Z M187.682,150.682 L187.682,158.25 L176,146.568 L176,139 L187.682,150.682 L187.682,150.682 Z M187.682,161.682 L187.682,169.25 L176,157.546 L176,150 L187.682,161.682 L187.682,161.682 Z M187.682,174 L187.682,181.568 L176,170.568 L176,163 L187.682,174 L187.682,174 Z M187.682,185.682 L187.682,193.25 L176,181.568 L176,174 L187.682,185.682 L187.682,185.682 Z M187.682,197.704 L187.682,205.25 L176,193.568 L176,186 L187.682,197.704 L187.682,197.704 Z M187.682,210 L187.682,217.568 L176,206.568 L176,199 L187.682,210 L187.682,210 Z M167,281 L173.182,281 L173.182,290.636 L167,289.954 L167,281 L167,281 Z M167,292 L173.182,292.682 L173.182,302.318 L167,300.932 L167,292 L167,292 Z M161,281 L166.5,281.682 L166.5,290.636 L161,289.932 L161,281 L161,281 Z M161,290 L166.5,290.682 L166.5,299.614 L161,298.25 L161,290 L161,290 Z M153.682,281 L159.182,281.682 L159.182,289.932 L153,289.25 L153,281 L153.682,281 L153.682,281 Z M155,290 L161.182,290.704 L161.182,298.954 L155,297.568 L155,290 L155,290 Z M150,281 L155.5,281.682 L155.5,289.932 L150,289.25 L150,281 L150,281 Z M150,288 L155.5,288.682 L155.5,296.932 L150,295.568 L150,288 L150,288 Z M142.682,279 L148.182,279.682 L148.182,287.25 L142,286.546 L142,279 L142.682,279 L142.682,279 Z M142,288 L148.204,288.682 L148.204,296.25 L142,294.864 L142,288 L142,288 Z M137,279 L142.5,279.704 L142.5,287.25 L137,286.568 L137,279 L137,279 Z M137,287 L142.5,287.704 L142.5,294.568 L137,293.204 L137,287 L137,287 Z M131,317.387532 L135.796,297 L147.5,299.632687 L142.682,322 L131,317.387532 L131,317.387532 Z M144,321.387676 L148.818,299 L161.182,301.632605 L156.386,326 L144,321.387676 L144,321.387676 Z M156,326.104167 L160.818,302 L173.182,304.625 L167.682,330 L156,326.104167 L156,326.104167 Z M167,329.427975 L172.478,304 L184.864,306.588727 L180.046,334 L167,329.427975 L167,329.427975 Z M180,332.425587 L185.5,305 L197.886,307.610966 L193.068,337 L180,332.425587 L180,332.425587 Z M195,339.420664 L199.818,310 L212.182,312.634686 L207.386,344 L195,339.420664 L195,339.420664 Z M221.330134,279 C221.330134,279 222.660269,277.614 223.96929,276.932 C224.6238,276.25 225.953935,276.25 227.262956,276.25 C228.59309,275.546 230.577735,273.5 231.886756,272.114 C233.195777,270.75 233.871401,270.046 234.525912,269.364 C235.180422,268.682 237.819578,269.364 238.495202,269.364 C239.149712,269.364 245.737044,268 246.412668,268 C247.067179,268 251.690979,268.682 252.345489,268.682 C253,268.682 253,270.75 253,270.75 L250.360845,272.114 L247.067179,273.5 L241.788868,277.614 L238.495202,280.364 L235.180422,281.75 L223.314779,281.046 L220,281.75 C220,281.75 220.675624,279 221.330134,279 L221.330134,279 Z M222.884817,296.567108 C222.884817,295.288168 223.534031,286.892544 223.534031,286.892544 L222.235602,283.674565 L224.204188,283.035095 L233.356021,283.674565 C233.356021,283.674565 237.293194,284.314035 237.942408,283.674565 L243.827225,280.456586 L247.764398,277.238607 C247.764398,277.238607 249.062827,276.578509 249.712042,275.939039 C250.361257,275.299568 253,274 253,274 L253,277.878077 L251.680628,282.395624 C251.680628,282.395624 249.712042,288.192112 249.712042,288.831582 L249.712042,295.927638 C249.712042,296.567108 247.764398,299.785087 247.764398,299.785087 C247.764398,299.785087 245.795812,302.384224 245.795812,303.663164 L245.795812,311.39869 L244.47644,316.555708 C244.47644,316.555708 242.507853,319.134216 242.507853,320.413157 C242.507853,321.712725 243.827225,326.869743 243.827225,327.509213 L243.827225,332.02676 C243.827225,332.66623 241.858639,335.244739 240.560209,336.544307 C239.910995,338.462718 237.293194,341.061854 237.293194,341.701325 C236.623037,342.340795 235.973822,344.919303 235.973822,346.198244 C235.324607,347.497812 234.005236,349.436851 233.356021,349.436851 C233.356021,349.436851 232.706806,350.715791 231.387435,350.715791 C230.089005,350.715791 226.151832,351.355261 225.502618,350.715791 C224.853403,350.076321 222.884817,349.436851 222.235602,348.797381 L218.947644,345.558774 L218.947644,342.980265 L217,333.965798 L220.267016,327.509213 L220.91623,318.494746 L220.91623,313.977199 C220.91623,313.337729 218.947644,310.11975 218.947644,310.11975 L220.91623,304.942104 C220.91623,304.942104 221.565445,302.384224 222.235602,302.384224 C221.565445,301.084655 222.884817,297.866677 222.884817,296.567108 L222.884817,296.567108 Z M217,287 L219.75,287 L220.432,288.364 C220.432,288.364 219.75,297.318 219.75,298.682 L219.75,299.364 L217,298.682 L217,287 L217,287 Z M217,300 L219.75,300.682 C219.75,302.068 219.068,304.136 219.068,304.136 C219.068,304.818 217.682,306.864 217.682,306.864 L217,309.614 L217,300 L217,300 Z M212,285 L217.5,285.682 L217.5,298.046 L212,297.364 L212,285 L212,285 Z M212,299 L217.5,299.704 L217.5,312.772 L212,311.386 L212,299 L212,299 Z M217.614,312.272947 C218.296,312.90942 218.978,314.202899 218.978,314.202899 L218.978,318.699275 L218.296,327.671498 L214.864,334.097826 L216.932,343.070048 L216.932,345 L208,341.797101 L212.796,311 L217.614,312.272947 L217.614,312.272947 Z M204,310.682 L204,299 L210.182,299.682 L210.182,312.068 L204,310.682 L204,310.682 Z M210.182,285.704 L210.182,297.386 L204,296.704 L204,285 L210.182,285.704 L210.182,285.704 Z M209.886,209.500723 L209.886,209.500723 L203,216.007411 L203,217.940709 L192,229 L192,221.848879 L203,210.810376 L203,212.743673 L207.136,209.500723 L207.136,114 L207.136,208.856291 L202.318,213.408894 L202.318,215.342191 L209.886,209.500723 L209.204,126.348156 L209.886,126.348156 L209.886,209.500723 L209.886,209.500723 Z M203,115 L203,122.568 L192,133.568 L192,126 L203,115 L203,115 Z M192,122.25 L192,114.704 L203,103 L203,110.568 L192,122.25 L192,122.25 Z M203,128 L203,135.546 L192,146.546 L192,139 L203,128 L203,128 Z M203,139 L203,146.568 L192,158.25 L192,150.682 L203,139 L203,139 Z M203,150 L203,157.546 L192,169.25 L192,161.682 L203,150 L203,150 Z M203,163 L203,170.568 L192,181.568 L192,174 L203,163 L203,163 Z M203,174 L203,181.568 L192,193.25 L192,185.682 L203,174 L203,174 Z M203,186 L203,193.568 L192,205.25 L192,197.704 L203,186 L203,186 Z M203,199 L203,206.568 L192,218.25 L192,210 L203,199 L203,199 Z M96,86.7929672 L97.9563612,76.3227973 L150.546716,90.0596602 L151.219872,88.0912683 C151.219872,86.7929672 151.871993,86.1438167 152.524113,84.8245753 L153.176234,82.8561833 L101.911156,63.8842355 L106.518071,54.0632161 L153.84939,80.2386409 L155.153631,78.2911893 C155.805751,77.6210984 156.478908,76.3227973 157.131028,75.6736468 L158.435269,73.7052548 L114.406624,42.2947452 L121.622021,33.7929672 L160.412666,71.0877124 L161.064787,70.4385618 C161.737943,69.768471 162.390064,69.1193204 163.694305,67.8210194 L165.019582,66.501778 L130.183731,25.2911893 L138.724404,18.7368629 L166.996979,64.533386 L168.974376,63.8842355 C169.626497,63.2350849 170.930737,62.5859344 171.582858,62.5859344 L173.560255,61.9158435 L149.894596,13.501778 L160.412666,9.58593441 L176.189773,61.266693 L178.16717,60.6175425 C179.471411,60.6175425 180.144568,59.9683919 181.448808,59.9683919 L183.426206,59.2983011 L172.908135,6.29830107 L183.426206,5 L186.055723,58.6491505 L188.033121,58.6491505 L191.314759,58.6491505 L193.292156,58.6491505 L195.921674,5 L206.439745,6.29830107 L195.248517,59.2983011 L197.225915,59.9683919 C198.551192,59.9683919 199.203312,60.6175425 200.528589,60.6175425 L202.48495,61.266693 L218.914177,10.2350849 L228.780128,14.1509285 L206.439745,61.9158435 L208.417142,62.5859344 C209.721383,63.2350849 210.373503,63.8842355 211.025624,64.533386 L213.003021,65.8526274 L241.927716,20.035164 L250.46839,26.5894903 L215.632539,67.1509285 L216.957816,68.4701699 C217.609936,69.1193204 218.914177,69.768471 219.587334,71.0877124 L220.891574,72.3860134 L260.33434,35.0912683 L266.918653,43.5930462 L222.868972,74.3544054 L224.194249,76.3227973 C224.846369,76.9719478 225.498489,78.2911893 226.15061,78.9403398 L227.475887,80.9087317 L274.807206,54.733307 L279.414121,64.533386 L228.780128,83.5262742 L229.453284,85.4737258 C230.105404,86.7929672 230.105404,87.4421177 230.757525,88.7613591 L229.453284,90.0596602 L282.022603,76.3227973 L284,86.7929672 L230.105404,92.6772027 L230.105404,95.9438957 L230.105404,97.9122876 L195.248517,91.3789016 L195.248517,106.414066 L191.314759,111 L191.314759,90.7088107 L189.989482,90.7088107 L149.242475,98.5614382 L149.242475,97.9122876 L149.242475,94.6455946 L149.242475,92.6772027 L96,86.7929672 L96,86.7929672 Z M96.6777828,111 L96,100 L143,100.682 L117.858495,105.5 L110.57233,109.614 L96.6777828,111 L96.6777828,111 Z" id="Fill-5" sketch:type="MSShapeGroup"></path>
            </g>
        </g>
    </g>
</svg>