<?xml version="1.0" encoding="UTF-8" standalone="no"?>
<svg width="300px" height="480px" viewBox="0 0 300 480" version="1.1" xmlns="http://www.w3.org/2000/svg" xmlns:xlink="http://www.w3.org/1999/xlink" xmlns:sketch="http://www.bohemiancoding.com/sketch/ns">
    <!-- Generator: Sketch 3.2.2 (9983) - http://www.bohemiancoding.com/sketch -->
    <title>ciudad-buenos-aires</title>
    <desc>Created with Sketch.</desc>
    <defs></defs>
    <g id="Page-1" stroke="none" stroke-width="1" fill="none" fill-rule="evenodd" sketch:type="MSPage">
        <g id="ciudad-buenos-aires" sketch:type="MSArtboardGroup" fill="#4DB8DE">
            <path d="M150.013098,62 C68.8257176,62 3,141.255398 3,239.012042 C3,336.770876 68.8257176,416 150.013098,416 C231.200478,416 297,336.770876 297,239.012042 C297,141.255398 231.200478,62 150.013098,62 L150.013098,62 Z M156.734604,71 C163.727707,71.3651133 170.589279,72.3730008 177.27986,73.9187198 C176.659469,75.9257497 173.923609,78.9319218 169.444953,83.6609038 C165.391584,87.9416929 160.14566,96.5754192 160.14566,98.9781706 C160.14566,99.0393872 160.141276,99.1027901 160.14566,99.1640067 C161.82269,99.9117237 163.414224,100.832159 164.863265,101.923126 C165.897981,101.337196 167.320716,99.857066 170.111381,96.8530802 C173.15634,93.5779923 178.588601,88.840265 182.181609,86.3150805 C185.77681,83.7920822 189.44216,80.9017844 190.334384,79.9179462 C190.700481,79.5156657 191.237568,78.8444695 191.774656,78.2191857 C197.754966,80.4186105 203.562091,83.0902777 209.174112,86.1839021 C207.595731,88.1953045 204.096987,91.1555642 200.780195,92.8980508 C198.511273,94.0895881 192.373126,96.4551723 187.138163,98.1276971 C178.314576,100.948033 170.856727,104.336809 169.23231,106.197356 C170.473093,107.756193 171.523155,109.483376 172.349612,111.319874 L178.531604,109.275676 C186.160444,106.752678 190.319039,105.821311 201.926714,104.074452 C210.414894,102.797649 215.060157,101.236626 221.24434,98.3660046 C222.108065,97.9659104 223.335695,96.9361598 224.414255,96.0047931 C229.885975,100.066951 235.116553,104.540136 240.055569,109.435277 C237.593734,111.56474 228.949907,112.966163 209.413061,112.86122 C192.248171,112.767209 187.499875,113.009889 181.596293,114.293251 C178.279501,115.014732 175.374842,115.541632 173.947723,116.230319 C174.278744,117.815392 174.45412,119.459494 174.45412,121.140765 C174.45412,121.317855 174.458504,121.497133 174.45412,121.672037 C176.622201,121.910345 181.067974,121.639243 190.415495,121.779166 C200.332987,121.927835 208.775132,122.557491 214.288504,123.530398 C223.728098,125.196364 238.490342,125.672979 247.302968,124.592943 L252.897451,123.90207 C253.235049,124.332773 253.577031,124.767848 253.910245,125.202923 L258.599351,132.343402 C261.845992,137.280083 264.897529,141.950034 267.793419,146.490994 C282.441669,173.050251 291,204.867577 291,239.078909 C291,262.017642 287.157081,283.871966 280.210014,303.793596 L252.285828,243.643918 L252.285828,240.749247 L264.248639,234.352113 L265.526689,233.663426 L251.005586,224.345386 L251.005586,203.853131 C254.342107,201.30171 262.863171,206.505121 267.712308,201.570626 C258.92818,200.003044 257.897848,196.673298 251.005586,197.296396 L251.005586,195.225963 C251.020931,194.773398 250.608798,194.35144 250.152822,194.35144 C249.699037,194.35144 249.286905,194.773398 249.300058,195.225963 L249.300058,224.15955 L234.513699,233.663426 L235.791749,234.352113 L248.022008,240.908848 L248.022008,243.696389 L219.672536,304.668119 L210.344744,268.541582 L210.344744,259.888179 L222.309747,253.491045 L223.561491,252.800172 L209.49198,243.748861 L209.49198,228.247944 L220.630525,221.426666 L221.695932,220.762029 L209.360448,211.710718 L209.360448,184.316291 C212.173035,180.496813 221.472328,186.694993 226.62618,181.450043 C217.611872,179.840921 216.754724,176.40186 209.360448,177.256706 L209.360448,174.362036 C209.377986,173.881048 208.908856,173.4416 208.426573,173.487513 C208.391498,173.494072 208.356423,173.502817 208.321348,173.513749 C207.939906,173.599014 207.643959,173.975059 207.65492,174.362036 L207.65492,211.100738 L207.573809,211.15321 L194.490787,220.762029 L195.558386,221.426666 L206.93588,228.381309 L206.93588,243.563025 L192.572615,252.800172 L193.852858,253.491045 L206.083116,260.047779 L206.083116,262.861556 L167.846843,304.775248 L163.635635,304.775248 C155.656044,305.540455 161.158454,309.182843 163.635635,312.180269 C168.585613,320.394225 174.590036,327.263601 183.034373,331 C160.529294,329.314357 134.512318,326.017406 111.570993,323.940415 L112.504868,320.462 C124.000741,317.617615 131.495857,309.648526 137.471782,299.731437 C139.948963,296.734011 145.451374,293.089437 137.471782,292.324229 L132.966821,292.324229 L132.966821,274.75288 C135.7816,270.933402 145.107199,277.131582 150.261051,271.886632 C141.240166,270.275323 140.378634,266.829704 132.969013,267.693295 L132.969013,265.75404 C132.982166,265.301475 132.570033,264.879518 132.116249,264.879518 C132.061444,264.881704 132.008831,264.890449 131.956219,264.905753 C131.563816,264.980088 131.254716,265.358319 131.263485,265.75404 L131.263485,292.324229 L119.138452,292.324229 L119.138452,256.569365 L128.518856,236.848876 C132.721295,235.611426 137.914606,244.713022 144.692874,242.555137 C137.480551,236.934142 138.333315,233.457914 131.395016,230.768756 L132.727871,227.954979 L131.956219,227.583307 L119.138452,254.55359 L119.138452,232.307916 C119.160374,231.57769 118.430372,230.917425 117.700371,231.00925 C117.077788,231.085771 116.562622,231.682632 116.582352,232.307916 L116.582352,259.94065 L101.206293,292.324229 L100.408333,292.324229 L85.2471096,259.676107 L85.2471096,229.096231 C85.2646471,228.37475 84.556568,227.721044 83.8353357,227.797565 C83.2017912,227.863154 82.6712799,228.464388 82.6888175,229.096231 L82.6888175,258.482383 L77.7059572,269.258691 L66.1947387,244.518441 L66.1947387,227.954979 L78.1597416,221.557845 L79.4114852,220.895394 L64.9166888,211.577353 L64.9166888,183.813441 C67.9265732,180.45746 76.9737639,186.323321 82.02239,181.1855 C73.0804247,179.589496 72.1509338,176.156994 64.9166888,176.937505 L64.9166888,175.743782 C64.9342263,175.262794 64.4650965,174.82116 63.9828135,174.867073 C63.9477384,174.873631 63.9126632,174.882377 63.8775881,174.893308 C63.4961461,174.978574 63.2023919,175.354619 63.2111607,175.743782 L63.2111607,211.391517 L48.42261,220.895394 L49.7028522,221.557845 L61.9331107,228.114579 L61.9331107,244.518441 L39.7108252,292.326416 L39.1781217,292.326416 L35.7407592,278.362473 L43.4134434,278.362473 C43.8650357,278.369032 44.2662074,277.962379 44.2662074,277.514186 C44.2662074,277.065993 43.8650357,276.657153 43.4134434,276.663712 L35.3132811,276.663712 L34.0878438,271.700795 L34.0878438,257.710617 L46.0506545,251.315669 L47.3308967,250.651032 L33.2350798,241.599721 L33.2350798,234.883386 L44.373625,228.062108 L45.439032,227.397471 L33.1013559,218.319924 L33.1013559,204.756075 L33.1561608,206.109399 C35.6158041,201.476615 45.3688817,208.258539 50.687148,202.845243 C41.5456928,201.212072 40.795962,197.683372 33.1013559,198.678142 L33.1013559,197.429761 C33.1167013,196.977195 32.7045685,196.553052 32.2485918,196.555238 C31.7948074,196.553052 31.3826746,196.977195 31.3958278,197.429761 L31.3958278,217.73618 L31.3432151,217.762416 L19.2466805,226.654126 L18.2338862,227.397471 L19.2992932,228.062108 L30.6767877,235.01675 L30.6767877,241.44012 L16.3157152,250.651032 L17.5937651,251.315669 L29.8240237,257.870217 L29.8240237,271.700795 L28.5985864,276.663712 L20.5247305,276.663712 C20.4896553,276.661526 20.4545802,276.661526 20.4195051,276.663712 C19.9722972,276.692134 19.5908552,277.122837 19.6193537,277.566657 C19.6478523,278.012664 20.0797148,278.390895 20.5247305,278.362473 L28.1733005,278.362473 L24.735938,292.326416 L17.2210919,292.326416 C12.5582921,275.590236 10,257.693127 10,239.078909 C10,198.356755 22.0789971,161.023377 42.1880061,131.919258 C42.1945827,132.015456 42.2077359,132.116026 42.2143125,132.210037 L45.3316144,127.540085 C46.234799,126.320126 47.1467523,125.115471 48.0762432,123.928306 L53.0327971,124.566708 C61.3521789,125.694842 77.0921424,125.202923 86.8189137,123.504162 C93.0206347,122.42194 100.487253,121.912531 111.119401,121.831638 L126.120594,121.700459 C126.11621,121.514623 126.120594,121.328787 126.120594,121.142951 C126.120594,119.665007 126.265279,118.217672 126.519574,116.816249 C125.901375,116.304653 124.290111,115.491347 120.072327,114.479087 C114.762829,113.206656 109.983843,112.933368 91.9881107,112.939927 C70.4519823,112.948672 65.7102635,112.480803 62.4921206,110.019021 C61.9089966,109.573014 61.5779751,109.247255 61.6393565,108.772826 C65.9229065,104.577303 70.4103306,100.694422 75.0950523,97.1198096 C76.3226818,97.0738972 78.3614236,97.7101125 80.5580035,98.8185702 C85.8083116,101.468374 92.5646581,103.366089 99.1828962,104.074452 C105.18732,104.717226 120.951397,108.368359 125.081494,110.073679 C126.530535,110.67054 127.549906,111.007232 128.332519,111.107802 C129.161169,109.308471 130.193693,107.618456 131.423515,106.090227 C131.366518,106.01152 131.305136,105.934999 131.237178,105.85192 C129.728948,104.041658 122.437706,100.816855 112.877541,97.7297893 C100.805121,93.8316039 91.5737857,88.9605119 91.2953769,86.4746809 C96.8219017,83.3941743 102.539147,80.7225072 108.427385,78.5121508 C109.109157,78.8444695 109.821621,79.3648105 110.345556,79.9441819 C111.239971,80.9323927 115.35253,84.0500664 119.484818,86.8725888 C123.619299,89.6951111 128.957295,94.2295118 131.342404,96.9602092 C133.549945,99.4875801 135.049406,100.923984 136.325264,101.498983 C137.835687,100.432065 139.462296,99.522561 141.200707,98.8185702 C141.018755,97.9353021 140.277793,96.5426246 138.85725,93.853467 C137.228449,90.7751467 133.29565,85.3509191 130.116967,81.8025428 C126.938283,78.2563529 124.336147,74.738585 124.336147,73.9733775 C124.336147,73.9034157 124.340531,73.8290812 124.362453,73.7613057 C130.636517,72.3467651 137.05965,71.4066531 143.598969,71.0262357 C144.122903,73.2453373 145.482065,83.7330519 146.264678,91.7305629 C146.536511,94.5137317 146.869724,96.2234238 147.542728,97.2247524 C148.441528,97.1241822 149.360058,97.0673383 150.287357,97.0673383 C151.335226,97.0673383 152.365558,97.1504179 153.378353,97.27941 C154.117123,95.676847 154.518294,92.0060376 155.377635,83.4750677 C155.824843,79.0062562 156.344393,74.0433393 156.734604,71 L156.734604,71 Z M149.902067,106 C145.703794,106 139.586498,111.107227 137.298516,116.530636 C136.320447,118.851504 135.809581,120.065733 140.243638,122.636912 C143.883014,124.742601 145.839152,124.0773 144.913479,131.298998 C144.485574,134.645263 144.745374,135.310564 143.588284,135.084406 C142.952976,134.961446 141.944342,134.239057 140.455407,132.873323 C137.89016,130.515128 122.583821,126.475018 117.927078,126.475018 C111.388427,126.475018 99.5992056,130.313123 85.1814245,137.137397 C75.2653795,141.834026 66.1985949,145.241771 63.6355309,145.241771 C60.878163,145.241771 58.1862908,148.32016 59.2298552,150.280931 C61.2121909,154.000468 75.2588299,157.083248 83.1117612,155.533075 C85.8996938,154.981951 91.5607032,154.505482 95.7174953,154.465959 C102.079309,154.404479 103.758181,154.687726 106.277581,156.251073 C110.021751,158.576332 118.966277,172.435669 118.56457,175.285703 C118.374632,176.627284 116.069185,178.748342 111.080597,182.136326 C98.6473352,190.585427 95.6781979,195.58726 100.201766,200.424414 C102.548694,202.934113 106.161872,202.967049 111.584914,200.558352 C114.464541,199.278252 117.162962,198.775434 120.608035,198.878633 C126.924001,199.06966 128.917253,199.877682 133.423355,204.049535 C135.451538,205.926869 138.243837,208.054514 139.60833,208.768121 C142.553452,210.311707 142.961708,210.346838 145.101234,209.196285 C146.505024,208.44096 146.740809,207.362865 146.745175,201.730863 C146.751725,194.230309 147.961212,188.811291 149.956646,187.256727 C150.718579,186.661689 153.676801,186.189611 156.643755,186.189611 C161.41184,186.189611 162.293848,185.910755 165.029384,183.497668 C166.708257,182.013366 168.996239,178.961326 170.122764,176.726091 C171.319152,174.356917 172.987109,172.415907 174.102718,172.060202 C175.157199,171.724258 178.298808,169.254081 181.108572,166.568725 C188.46592,159.535859 189.0139,159.329462 199.392781,159.744451 C216.733853,160.436101 218.64196,160.209942 226.139032,156.385011 C233.965765,152.395402 241,146.70192 241,144.363486 C241,142.266581 239.085343,141.320229 233.358838,140.657124 C228.378984,140.079651 224.929545,139.074015 207.326491,133.005066 C200.916647,130.79618 192.14896,128.514834 186.734651,127.647528 C177.659133,126.193967 177.095871,126.202749 171.343167,127.700225 C168.057468,128.556553 165.658143,130.332884 165.533701,130.152836 C165.407076,129.974983 164.228154,126.303752 163.38326,123.488849 C159.739517,111.355342 155.60019,106 149.902067,106 L149.902067,106 Z M149.023073,113.000532 C149.418396,113.007052 149.750028,113.10702 150.090445,113.078768 C150.498946,113.043996 151.838652,113.126578 152.251544,113.369978 C154.838714,114.889053 158.198959,124.831497 161.168274,136.112639 C165.84846,153.891684 166,154.778354 166,163.184337 C166,175.695517 162.716623,180.439638 154.041479,180.439638 C145.493717,180.439638 142.265246,184.047169 141.468011,194.476412 C141.147361,198.670711 141.325256,200.863481 140.934325,201.784923 C140.49947,202.810679 138.2044,199.905095 136.956937,198.592475 C131.235734,192.574852 120.790422,190.636347 111.970327,193.948322 C106.88823,195.858575 104.241762,197.023416 105.190537,195.63908 C105.866979,194.650269 108.662791,191.877251 112.396397,189.358499 C141.362592,169.834365 151.478468,156.056202 151.478468,136.08656 C151.478468,127.930497 151.616831,123.807914 146.993749,120.863212 C144.654754,119.372389 142.965846,119.333271 143.095424,118.251012 C143.218414,117.240468 144.733819,115.154185 147.553789,113.448214 C148.151166,113.087461 148.625554,112.991839 149.023073,113.000532 L149.023073,113.000532 Z M149.858882,115.001165 C149.547071,115.014753 149.207949,115.157427 148.861999,115.44051 C148.181478,116.004411 147.821871,116.826483 148.088162,117.256769 C148.734543,118.293984 150.011373,118.235103 150.687342,117.1458 C151.402003,115.995352 150.792038,114.960401 149.858882,115.001165 L149.858882,115.001165 Z M177.574826,134.003427 C184.186523,133.923295 193.221709,135.249925 200.376564,137.814149 C214.703726,142.951499 229.608947,146.898 229.990684,147.65035 C230.22409,148.111109 226.022794,150.441615 222.859824,152.082095 C216.457538,155.405346 213.883535,155.627935 199.157185,154.32579 C188.743381,153.404272 185.447348,154.541701 178.979621,161.217141 C176.444883,163.832561 173.122674,167 172.564246,167 C171.578272,167 171.970917,164.217639 170.867149,155.16495 C170.577029,152.785475 169.798284,148.914655 169.143876,146.570794 C167.595112,141.035009 167.616926,137.064024 169.222405,135.706232 C170.505044,134.619998 173.606935,134.052397 177.574826,134.003427 L177.574826,134.003427 Z M118.111063,134.018748 C124.542259,133.825175 130.696987,135.131233 136.298776,137.907998 C141.841323,140.658063 144.5731,144.251392 143.899481,147.90257 C143.015219,152.697384 138.598297,160.222238 133.57797,165.54437 C130.754036,168.539181 127.8555,171 127.124831,171 C125.408968,171 123.304731,168.585906 118.271239,160.789605 C115.855427,157.049428 112.776966,153.516173 110.723196,152.145591 C107.258556,149.83162 107.201507,149.83162 91.6270837,149.90282 C83.0346013,149.942869 76,149.820496 76,149.660298 C76,149.07068 96.2502605,139.625676 102.749477,137.178207 C107.940952,135.222457 113.10829,134.170046 118.111063,134.018748 L118.111063,134.018748 Z M206,213 L206,219 L198,219 L206,213 L206,213 Z M63,214 L63,220 L54,220 L63,214 L63,214 Z M65,214 L74,219 L65,219 L65,214 L65,214 Z M208,214 L215,219 L208,219 L208,214 L208,214 Z M31,220 L31,226 L23,226 L31,220 L31,220 Z M33,221 L40,226 L33,226 L33,221 L33,221 Z M198,222 L215,222 L207.251758,227 L205.773406,227 L198,222 L198,222 Z M54,222 L74,222 L64.1568206,227 L63.8431794,227 L54,222 L54,222 Z M249,226 L249,232 L240,232 L249,226 L249,226 Z M251,226 L260,231 L251,231 L251,226 L251,226 Z M23,228 L40,228 L32.2014309,233 L30.7734057,233 L23,228 L23,228 Z M239,235 L259,235 L249.090342,240 L248.881695,240 L239,235 L239,235 Z M31,244 L31,249 L22,249 L31,244 L31,244 Z M33,244 L42,249 L33,249 L33,244 L33,244 Z M207.48724,245 L217,251 L198,251 L207.48724,245 L207.48724,245 Z M252,245 L279,304.176702 L264.556434,304.176702 C264.556434,304.275235 264.595255,304.378148 264.556434,304.467922 C264.474479,304.65404 264.377426,304.818261 264.293314,305 L252,256.670681 L252,245 L252,245 Z M248,245 L248,258.165886 L231.844217,320 C228.717291,319.511973 225.835614,318.399271 223.142254,316.813725 L220,304.751865 L248,245 L248,245 Z M62,246 L62,257.86579 L49.5796907,307 C44.5959794,303.352056 41.5001031,298.294579 41.5001031,292.711851 C41.5001031,292.61212 41.4979381,292.516822 41.5001031,292.414874 L41,292.414874 L62,246 L62,246 Z M66,246 L78,269.958754 L72.4936407,281 L66,257.791751 L66,246 L66,246 Z M21,252 L41,252 L31,257 L21,252 L21,252 Z M197,255 L205,255 L205,260 L197,255 L197,255 Z M210,255 L218,255 L210,260 L210,255 L210,255 Z M82,260 L82,279 L77,269.498934 L82,260 L82,260 Z M252,261 L265,307.28749 C261.84371,313.044859 257.825528,316.714632 252,319 L252,261 L252,261 Z M62,262 L62,312 C57.450806,311.176793 53.348527,309.602247 50,307.42663 L62,262 L62,262 Z M66,262 L71,283.180867 L66,295 L66,262 L66,262 Z M85,262 L99,292.977384 L96.0123267,292.977384 C96.0123267,293.079182 96.0382126,293.17434 96.0382126,293.273925 C96.0382126,296.805851 94.8,300.114266 92.6298921,303 L85,286.072867 L85,262 L85,262 Z M117,262 L117,293 L103,293 L117,262 L117,262 Z M246,262 L246,320.253399 C243.216398,321.068194 240.038852,321.606224 236.327382,321.920629 C234.825596,322.046833 233.391801,322.024692 232,321.838706 L246,262 L246,262 Z M206,264 L206,266.622977 L196.344591,305 L169,305 L206,264 L206,264 Z M206,270 L206,305 L197,305 L206,270 L206,270 Z M78.6004296,272 L84,282.898839 L84,310.951907 C83.0075188,311.341072 81.986681,311.688226 80.9256713,312 L73,283.354339 L78.6004296,272 L78.6004296,272 Z M210,272 L219,306.314833 L215.826707,313 C213.792198,310.992017 211.865716,308.720874 210,306.286084 L210,272 L210,272 Z M34,275 L34.316,276.262 L34,276.262 L34,275 L34,275 Z M29.292,275 L29.292,276.19 L29,276.19 L29.292,275 L29.292,275 Z M30.1145833,279 L31,279 L31,293 L26,293 L30.1145833,279 L30.1145833,279 Z M34,279 L34.8909853,279 L39,293 L34,293 L34,279 L34,279 Z M72.2565418,284 L80,311.580959 C76.5496836,312.490996 72.7904909,313 68.8517188,313 C67.8891739,313 66.9409954,312.951523 66,312.892029 L66,296.438644 L72.2565418,284 L72.2565418,284 Z M85,287 L92,302.40495 C90.1798715,304.58881 87.7922912,306.480033 85,308 L85,287 L85,287 Z M219.548387,308 L222,319 C220.256048,317.683082 218.58871,316.127998 217,314.351093 L219.548387,308 L219.548387,308 Z M83.7049972,336 C100.077229,336 118.595389,336.982173 135.207268,339.307706 C168.431025,343.960883 185.491697,345.823843 205.698277,345.207081 C224.336261,344.636787 243.930653,341.05872 263,337.615833 C262.557743,338.329757 262.102414,339.039456 261.649264,339.744931 C261.59262,339.831531 261.520726,339.911795 261.464082,340.000507 C260.939038,340.815817 260.413993,341.633238 259.875877,342.435874 C259.784376,342.571055 259.701589,342.712572 259.610087,342.847753 C259.030578,343.703194 258.431461,344.54385 257.836701,345.386618 C257.019724,346.544104 256.191853,347.714262 255.348732,348.848514 C255.270302,348.952012 255.187515,349.053397 255.109085,349.154783 C254.185356,350.388308 253.257269,351.594374 252.303039,352.796216 C241.780367,354.771123 228.536615,356.739694 219.944189,357.797906 C210.268995,358.989187 190.06895,359.358822 181.38938,358.61744 C172.70981,357.87817 155.315811,355.92016 150.884524,354.874621 C146.453237,353.829082 114.425535,349.853921 98.3474152,348.745016 C82.2692952,347.636111 63.5812039,348.461981 46.2351346,351.309227 L46.1022396,351.334574 C45.4639077,350.510816 44.8212187,349.684945 44.1959584,348.848514 C44.1698152,348.812607 44.1414933,348.778811 44.1175286,348.745016 C43.8648102,348.407064 43.6251634,348.060663 43.3746236,347.718487 C42.89533,347.063705 42.4160365,346.408923 41.9454574,345.74358 C41.265732,344.788865 40.594721,343.821477 39.9324245,342.847753 C39.2810209,341.880365 38.6339747,340.906641 38,339.922356 C39.6121692,339.635097 41.7689902,339.221105 45.0957232,338.564211 C53.1064613,336.982173 67.3327653,336 83.7049972,336 L83.7049972,336 Z M80.9423485,361.006484 C104.760022,360.786942 131.296208,366.195059 151.397851,369.242559 C178.828515,373.400809 213.717548,373.896408 238,370.640235 C237.129638,371.468407 236.248314,372.290058 235.362605,373.09432 C234.474704,373.898582 233.573648,374.689801 232.670401,375.470153 C231.767153,376.250504 230.872675,377.011292 229.951889,377.765559 C229.908042,377.802512 229.864195,377.835117 229.820348,377.872069 C228.982871,378.556779 228.112508,379.239314 227.261877,379.90446 C227.222415,379.934892 227.193914,379.978365 227.154452,380.008797 C227.130336,380.02836 227.099643,380.041402 227.075528,380.060965 C226.165703,380.769585 225.253686,381.462989 224.330707,382.145525 C223.38142,382.849797 222.443095,383.527985 221.478462,384.206174 C220.623446,384.806109 219.735545,385.393003 218.867375,385.973376 C218.757758,386.047281 218.65691,386.138575 218.547292,386.210307 C218.117592,386.497233 217.67693,386.775464 217.242845,387.055868 C216.692565,387.410178 216.144478,387.764488 215.589814,388.110103 C203.621784,390.103368 190.020454,388.253566 179.536644,387.344968 C167.822926,386.332033 158.154669,384.773504 141.591476,382.332461 C125.602679,379.974018 96.4049822,376.509172 70.3905753,377.580796 C69.1475137,376.554819 67.9000675,375.511453 66.6855064,374.439828 C66.6679676,374.424612 66.6526212,374.405049 66.63289,374.38766 C65.462176,373.355162 64.311193,372.322664 63.1689795,371.246692 C62.8927436,370.98585 62.6187,370.718487 62.3424641,370.455472 C61.5641804,369.712074 60.788089,368.949112 60.0251518,368.18615 C59.7094536,367.87314 59.4047172,367.553609 59.0912113,367.236252 C58.2625036,366.392864 57.453527,365.540781 56.6401658,364.675656 C56.4297003,364.451767 56.2104655,364.24092 56,364.017031 C63.6337573,361.971598 72.0940301,361.089084 80.9423485,361.006484 L80.9423485,361.006484 Z M90.084966,390.000321 C94.3846585,389.96202 124.447317,393.353869 144.698759,396.303119 C163.098364,398.984255 172.724837,399.524738 186,401.754762 C185.885635,401.788808 185.76907,401.822854 185.652506,401.859028 C184.986108,402.056922 184.317512,402.237792 183.646716,402.427174 C183.184856,402.556975 182.722996,402.688904 182.256738,402.814449 C181.121883,403.118737 179.98263,403.393234 178.836778,403.667731 C177.688727,403.9401 176.518683,404.20183 175.361835,404.442281 C174.231379,404.676349 173.105321,404.884882 171.966067,405.087031 C170.650867,405.321098 169.335667,405.542398 168.009471,405.733908 C166.955991,405.884988 165.889315,406.021173 164.829238,406.146718 C163.830741,406.263752 162.838843,406.389297 161.833749,406.482924 C161.646805,406.499947 161.462062,406.51697 161.272919,406.533993 C160.705492,406.585062 160.131466,406.621236 159.561839,406.663794 C158.932831,406.710608 158.295025,406.755293 157.663817,406.793595 C157.538455,406.799979 157.415292,406.812746 157.28993,406.81913 C156.282637,406.874455 155.281941,406.917012 154.270248,406.946803 C154.197671,406.948931 154.127292,406.944675 154.054714,406.946803 C153.612648,406.95957 153.163985,406.965954 152.71972,406.974465 C151.952153,406.987233 151.188985,407 150.419219,407 C149.018245,407 147.615072,406.968082 146.222895,406.921268 C144.850513,406.874455 143.495725,406.806362 142.132139,406.714863 C142.079355,406.712735 142.026572,406.716991 141.971588,406.714863 C140.893916,406.640387 139.809646,406.559528 138.738571,406.457389 C137.82365,406.370146 136.919724,406.253112 136.011401,406.146718 C134.924931,406.019045 133.829664,405.889244 132.749792,405.733908 C132.391301,405.680711 132.039408,405.608363 131.680917,405.553038 C130.873763,405.427492 130.077605,405.304075 129.274849,405.165763 C128.098207,404.959358 126.939159,404.731674 125.773514,404.493351 C125.674544,404.4742 125.575574,404.461432 125.478803,404.442281 C124.249377,404.186935 123.008954,403.906054 121.790525,403.614534 C121.717947,403.597511 121.647568,403.580488 121.57499,403.563465 C120.32797,403.261305 119.096344,402.946378 117.86032,402.608044 C116.553917,402.248431 115.249714,401.871796 113.956507,401.469625 C112.753473,401.097245 111.565834,400.690819 110.375996,400.282265 C110.171458,400.212045 109.964721,400.14608 109.760183,400.07586 C108.601136,399.671562 107.457483,399.248113 106.311632,398.809768 C105.051415,398.326738 103.788999,397.833069 102.541978,397.311737 C101.699634,396.95638 100.866088,396.57336 100.030342,396.20098 C99.6036715,396.009471 99.1726026,395.826472 98.7481317,395.632835 C98.4006374,395.473243 98.0509437,395.303013 97.7056487,395.141293 C96.8567068,394.743379 96.0055657,394.343336 95.1654211,393.92627 C93.9535896,393.326207 92.7505554,392.704864 91.5563186,392.066498 C90.3620817,391.428133 89.1766422,390.779128 88,390.10246 C88.6597994,390.053519 89.3459907,390.006705 90.084966,390.000321 L90.084966,390.000321 Z" id="Imported-Layers" sketch:type="MSShapeGroup"></path>
        </g>
    </g>
</svg>