<?xml version="1.0" encoding="UTF-8" standalone="no"?>
<svg width="430px" height="480px" viewBox="0 0 430 480" version="1.1" xmlns="http://www.w3.org/2000/svg" xmlns:xlink="http://www.w3.org/1999/xlink" xmlns:sketch="http://www.bohemiancoding.com/sketch/ns">
    <!-- Generator: Sketch 3.3 (11970) - http://www.bohemiancoding.com/sketch -->
    <title>jujuy</title>
    <desc>Created with Sketch.</desc>
    <defs></defs>
    <g id="Page-1" stroke="none" stroke-width="1" fill="none" fill-rule="evenodd" sketch:type="MSPage">
        <g id="jujuy" sketch:type="MSArtboardGroup" fill="#4DB9DF">
            <g id="Imported-Layers" sketch:type="MSLayerGroup" transform="translate(5.000000, 18.117647)">
                <path d="M208.429941,275.837471 L208.431176,275.835 C207.572647,273.889412 206.095235,271.260706 202.779706,272.347765 L201.222,273.639882 C200.803235,271.328647 199.120765,270.350294 196.998529,269.808 L183.258353,276.159882 C183.470824,279.448235 185.148353,281.897824 190.709647,282.361059 C192.420529,285.723529 195.664412,286.44 199.987941,286.258412 C200.094176,287.567824 202.378235,288.320118 205.628294,288.75 C208.912941,285.364059 211.090765,281.969471 211.770176,278.573647 C210.811588,276.944294 209.664,276.163588 208.429941,275.837471" id="Fill-1" sketch:type="MSShapeGroup"></path>
                <path d="M183.832765,271.096412 L176.103529,273.931412 C177.747706,276.093176 179.867471,276.724412 182.781529,275.349529 C185.999471,273.553412 186.760412,273.291529 186.760412,273.291529 L183.832765,271.096412" id="Fill-2" sketch:type="MSShapeGroup"></path>
                <path d="M341.762647,149.670706 C334.924059,138.192353 323.61,130.453235 308.133,126.665824 L307.872353,126.631235 C307.374529,126.617647 306.889059,126.611471 306.396176,126.611471 C286.574647,126.611471 270.367588,137.374588 266.068765,153.392647 C264.537,159.096 261.750176,177.900882 284.684647,194.107941 C263.042294,188.056235 254.785588,172.039412 254.442176,158.185588 C254.067882,143.124882 263.133706,125.840647 281.185059,121.943294 L284.663647,121.192235 L281.466706,119.627118 C257.164765,107.721353 235.122176,101.934 214.081412,101.934 C192.614471,101.934 172.182706,108.047471 151.618765,120.624 L149.568176,121.879059 L151.783059,122.815412 C165.089647,128.444647 170.906647,142.288588 167.342824,159.849529 C163.053882,180.984176 148.398353,193.867059 136.230706,194.619353 C162.946412,173.807118 159.924882,152.996118 157.283824,144.827118 C152.279647,129.356294 136.707529,118.127471 120.255882,118.127471 C112.054765,118.127471 104.099471,120.880941 97.3498235,126.023471 C84.63,133.854 65.562,156.772412 80.7993529,222.385059 C91.8490588,256.318588 108.574941,282.369706 131.933118,302.026941 C151.092529,318.151235 174.650824,330.019941 206.070529,339.379765 L206.346,339.462529 L206.630118,339.413118 C239.062765,333.886412 267.071824,321.067765 289.881529,301.312941 C312.723353,281.532176 331.015588,254.213647 344.249294,220.122 L344.292529,219.987353 C352.270059,189.536118 351.417706,165.877765 341.762647,149.670706 L341.762647,149.670706 Z M295.135235,160.045941 C297.246353,160.028647 299.168471,160.842706 300.565588,162.165706 C300.204882,161.326941 299.997353,160.414059 299.988706,159.454235 C299.951647,155.419765 303.352412,152.099294 307.558588,152.064706 C311.764765,152.028882 315.226059,155.291294 315.263118,159.325765 C315.281647,161.485059 314.310706,163.433118 312.765353,164.789471 C313.528765,164.533765 314.344059,164.386765 315.196412,164.379353 C319.402588,164.343529 322.862647,167.605941 322.899706,171.640412 C322.936765,175.674882 319.536,178.994118 315.329824,179.029941 C313.374353,179.046 311.586882,178.344353 310.223118,177.189353 C310.377529,177.758824 310.471412,178.351765 310.476353,178.965706 C310.513412,183.000176 307.112647,186.319412 302.906471,186.355235 C298.700294,186.389824 295.239,183.127412 295.201941,179.094176 C295.187118,177.374647 295.799824,175.788529 296.828824,174.527294 C296.324824,174.633529 295.803529,174.691588 295.268647,174.696529 C291.062471,174.731118 287.602412,171.469941 287.565353,167.435471 C287.528294,163.401 290.930294,160.081765 295.135235,160.045941 L295.135235,160.045941 Z M110.652706,156.020118 C112.763824,156.002824 114.685941,156.815647 116.083059,158.139882 C115.722353,157.301118 115.514824,156.387 115.506176,155.427176 C115.469118,151.392706 118.869882,148.073471 123.076059,148.038882 C127.282235,148.003059 130.743529,151.265471 130.780588,155.299941 C130.799118,157.459235 129.828176,159.407294 128.281588,160.763647 C129.046235,160.507941 129.861529,160.359706 130.713882,160.353529 C134.920059,160.317706 138.380118,163.580118 138.417176,167.614588 C138.454235,171.649059 135.052235,174.968294 130.847294,175.002882 C128.891824,175.020176 127.104353,174.317294 125.739353,173.163529 C125.895,173.733 125.988882,174.325941 125.993824,174.939882 C126.030882,178.974353 122.630118,182.293588 118.423941,182.328176 C114.217765,182.364 110.756471,179.101588 110.719412,175.067118 C110.704588,173.348824 111.317294,171.762706 112.346294,170.501471 C111.842294,170.606471 111.321,170.665765 110.786118,170.670706 C106.579941,170.705294 103.119882,167.442882 103.082824,163.409647 C103.045765,159.375176 106.447765,156.055941 110.652706,156.020118 L110.652706,156.020118 Z M316.744235,267.407824 C293.109353,261.891 273.612706,255.361235 250.065529,250.811647 C241.427118,243.632118 227.728941,235.981941 222.800118,234.100588 C217.411765,233.959765 211.024059,233.884412 209.344059,234.100588 C206.880882,234.721941 206.155765,235.326 205.403471,236.303118 C203.265176,240.452471 200.907,243.738353 198.303,246.158294 C197.198647,248.931529 199.356706,249.109412 203.351647,249.583765 C206.774647,248.166882 210.238412,246.436235 213.660176,244.233706 C215.267294,244.887176 216.838588,245.533235 219.482118,245.749412 C221.160882,247.197176 223.552412,248.638765 226.515882,250.079118 C228.620824,252.828882 231.831353,255.567529 236.04,258.276529 C241.606235,263.898353 246.780882,271.001294 249.677647,276.665118 C265.674706,281.041765 278.782412,286.593176 294.526235,293.683765 C292.475647,295.663941 290.396647,297.599647 288.263294,299.445176 C265.867412,318.844235 238.361118,331.454118 206.499176,336.928941 C178.344353,328.521529 148.639235,316.278529 123.985235,291.429353 L183.617824,269.542412 C185.383059,270.475059 187.160647,271.397824 188.948118,272.313176 L196.816941,268.675235 L197.104765,268.649294 C199.124471,269.164412 200.852647,270.102 201.493765,272.173588 L202.488176,271.275529 L202.643824,271.185353 C206.281765,269.993294 208.392882,272.504647 209.286,274.529294 L209.261294,274.770176 C210.935118,274.960412 212.511353,275.751 213.757765,277.869529 L213.809647,278.182059 C213.500824,279.726176 212.878235,281.261647 212.014765,282.788471 L221.120118,285.646941 L225.563471,283.446882 L211.983882,271.681941 L212.552118,271.011176 L226.218176,282.851471 L225.824118,283.317176 L225.935294,283.262824 C228.898765,285.199765 231.651,284.089235 234.189529,281.629765 C237.537176,282.285706 240.256059,281.845941 240.960176,278.094353 L244.784647,280.006588 L248.567118,277.481647 L247.429412,276.041294 L247.633235,275.772 C245.508529,271.672059 242.950235,267.588176 239.547,263.512941 L235.750941,259.345059 L232.814647,257.331529 C230.948118,255.957882 229.333588,254.573118 227.985882,253.179706 L226.244118,251.167412 L224.198471,250.122353 C222.850765,249.394765 221.651294,248.663471 220.618588,247.926 L219.309176,246.904412 L217.599529,246.679588 C217.039941,246.575824 216.533471,246.451059 216.059118,246.312706 L213.699706,245.450471 L208.702941,248.328706 C206.969824,249.220588 205.237941,250.012412 203.517176,250.723941 L203.301,250.753588 C199.577824,250.312588 195.813882,249.388588 197.165294,245.994 L197.275235,245.833412 C199.832294,243.457941 202.160824,240.216529 204.283059,236.099294 L204.326294,236.032588 C204.402882,235.933765 204.491824,235.843588 204.579529,235.752176 C203.065059,235.622471 201.530824,235.502647 199.962,235.401353 C194.860235,237.238235 189.964765,239.442 185.754882,242.479588 C158.600647,250.149529 128.438471,256.83 100.969235,261.559941 C94.1911765,250.180412 88.2074118,237.102353 83.2662353,221.991 L206.747471,220.890353 L206.733882,205.081059 C184.788882,204.369529 181.505471,199.689 181.122529,197.681647 C181.002706,197.057824 181.052118,196.434 181.263353,195.807706 L180.457941,172.251882 L180.544412,172.022118 C181.824176,168.611471 184.126765,166.427471 187.74,165.221824 C187.653529,162.979765 189.177882,159.590118 190.810941,156.926824 C192.448941,153.627353 193.958471,150.599647 195.114706,148.387235 C193.910294,148.694824 192.366176,148.752882 190.243941,148.365 C189.186529,153.762 185.376882,156.652588 181.998353,156.652588 C180.466588,156.652588 179.005235,156.102882 177.769941,155.062765 L177.589588,154.912059 L177.478412,154.704529 C176.337,152.588471 176.230765,150.416824 177.169588,148.423059 C178.755706,145.061824 183.132353,142.692529 186.850588,141.761118 C188.424353,133.269706 193.490294,129.897353 198.395647,126.631235 C198.909529,126.290294 199.423412,125.948118 199.934824,125.599765 C204.402882,123.06 208.563353,121.801235 212.389059,121.801235 C228.736941,121.801235 236.263588,143.302765 241.916294,166.691824 C244.317706,168.016059 245.837118,169.844294 246.549882,172.265471 L246.636353,172.558235 L246.575824,172.855941 C246.225,174.622412 246.259588,177.248647 246.295412,180.031765 C246.367059,185.548588 246.438706,191.765824 243.574059,194.873824 C244.202824,195.737294 244.458529,196.604471 244.336235,197.482765 C243.490059,203.520882 224.49,204.800647 216.926294,205.069941 L216.926294,220.798941 L341.761412,219.685941 C334.799294,237.527294 326.426471,253.458882 316.744235,267.407824 L316.744235,267.407824 Z M234.489706,281.262882 L233.739882,281.716235 C227.915471,271.877118 220.071353,269.066824 215.178353,262.895294 L215.860235,262.343118 C220.170176,267.779647 228.814765,271.677 234.489706,281.262882 L234.489706,281.262882 Z M224.145353,259.789765 L224.875412,259.304294 C229.236,266.003294 236.303118,268.251529 241.418471,277.818882 L240.648882,278.238882 C235.528588,268.659176 228.757941,266.876647 224.145353,259.789765 L224.145353,259.789765 Z" id="Fill-3" sketch:type="MSShapeGroup"></path>
                <path d="M212.597824,183.564706 C224.674059,183.564706 235.333412,186.462706 242.699471,191.736176 C243.940941,188.923412 243.879176,184.267588 243.824824,180.063882 C243.789,177.299294 243.754412,174.679235 244.095353,172.692882 C243.493765,170.911588 242.280706,169.617 240.296824,168.632471 L239.779235,168.375529 L239.644588,167.814706 C230.429294,129.445235 220.695176,124.271824 212.389059,124.271824 C208.996941,124.271824 205.245353,125.423118 201.240529,127.693588 C200.809412,127.993765 200.286882,128.340882 199.764353,128.689235 C194.935588,131.903471 190.374882,134.938588 189.151941,142.969235 L189.107471,143.260765 C191.837471,141.010059 194.584765,139.603059 197.285118,139.073118 C200.624118,134.319706 204.059471,132.101118 208.066765,132.101118 C209.541706,132.101118 210.882,132.379059 212.177824,132.648353 C212.678118,132.752118 213.169765,132.854647 213.654,132.934941 L221.488235,134.235706 L213.629294,135.375882 C208.171765,136.167706 203.192294,139.194176 198.824294,144.375 L200.762471,143.665941 L198.856412,146.715882 C197.799,148.409471 195.122118,153.795353 192.970235,158.122588 C190.584882,162.021176 190.006765,164.785765 190.226647,165.357706 L191.495294,166.859824 L189.536118,167.267471 C186.126706,168.145765 184.083529,169.815882 182.944588,172.665706 L183.558529,190.633059 C189.754765,186.344118 200.951471,183.564706 212.597824,183.564706" id="Fill-4" sketch:type="MSShapeGroup"></path>
                <path d="M179.542588,153.318529 C180.289941,153.891706 181.115118,154.182 181.998353,154.182 C184.606059,154.182 187.601647,151.487824 188.011765,146.493529 L188.147647,144.844412 L187.584353,144.531882 L188.244,143.980941 L188.169882,143.995765 C184.783941,144.664059 180.686471,146.760353 179.404235,149.476765 C178.826118,150.704647 178.870588,151.963412 179.542588,153.318529" id="Fill-5" sketch:type="MSShapeGroup"></path>
                <path d="M214.092529,152.631706 C211.221706,152.631706 207.507176,153.774353 202.811824,156.110294 C206.748706,155.248059 211.872706,154.343824 217.219059,154.343824 C217.905882,154.343824 218.584059,154.358647 219.248647,154.389529 C217.882412,153.314824 216.314824,152.631706 214.092529,152.631706" id="Fill-6" sketch:type="MSShapeGroup"></path>
                <path d="M211.192059,283.973118 L209.272412,286.442471 L209.302059,322.377176 C209.302059,323.619882 210.457059,324.629118 211.878882,324.629118 C213.299471,324.629118 214.455706,323.619882 214.455706,322.378412 L214.455706,285.002118 L211.192059,283.973118" id="Fill-7" sketch:type="MSShapeGroup"></path>
                <path d="M214.455706,232.502118 L214.455706,202.669765 L215.658882,202.637647 C233.286529,202.167 241.609941,199.139294 241.889118,197.140588 C241.931118,196.847824 241.890353,194.166 228.108176,189.816529 C221.362235,188.720824 215.682353,188.209412 210.239647,188.209412 C204.521471,188.209412 199.096059,188.775176 193.654588,189.937588 C183.795706,194.156118 183.426353,196.574824 183.548647,197.218412 C184.008176,199.622294 192.553941,202.258412 207.998824,202.646294 L209.202,202.675941 L209.227941,232.708412 L214.455706,232.502118" id="Fill-8" sketch:type="MSShapeGroup"></path>
                <path d="M126.951176,162.767294 C126.438529,162.937765 125.907353,163.066235 125.362588,163.156412 C124.418824,161.662941 122.780824,160.671 120.919235,160.687059 C119.880353,160.696941 118.916824,161.025529 118.105235,161.570294 C117.658059,161.267647 117.233118,160.936588 116.844,160.568471 C117.065118,161.083588 117.238059,161.622176 117.364059,162.176824 C116.349882,163.163824 115.711235,164.549824 115.724824,166.087765 C115.732235,167.005588 115.989176,167.855471 116.396824,168.609 C116.133706,169.072235 115.832294,169.513235 115.495059,169.925824 C116.043529,169.810941 116.610529,169.750412 117.188647,169.726941 C118.154647,170.759647 119.508529,171.408176 121.010647,171.394588 C121.591235,171.389647 122.139706,171.264882 122.661,171.080824 C123.160059,171.372353 123.629471,171.705882 124.066765,172.075235 C123.929647,171.574941 123.849353,171.054882 123.797471,170.527412 C125.255118,169.562647 126.223588,167.892529 126.207529,165.993882 C126.201353,165.281118 126.051882,164.604176 125.797412,163.984059 C126.147,163.549235 126.528706,163.137882 126.951176,162.767294" id="Fill-9" sketch:type="MSShapeGroup"></path>
                <path d="M311.433706,166.793118 C310.921059,166.963588 310.389882,167.092059 309.845118,167.182235 C308.901353,165.69 307.263353,164.696824 305.401765,164.714118 C304.362882,164.722765 303.399353,165.052588 302.587765,165.597353 C302.140588,165.294706 301.715647,164.963647 301.326529,164.595529 C301.547647,165.110647 301.720588,165.648 301.846588,166.202647 C300.832412,167.189647 300.193765,168.575647 300.207353,170.113588 C300.214765,171.032647 300.471706,171.882529 300.879353,172.634824 C300.616235,173.098059 300.314824,173.539059 299.977588,173.951647 C300.526059,173.836765 301.093059,173.776235 301.671176,173.754 C302.637176,174.785471 303.991059,175.434 305.494412,175.421647 C306.073765,175.415471 306.622235,175.290706 307.143529,175.106647 C307.642588,175.399412 308.112,175.731706 308.549294,176.101059 C308.412176,175.600765 308.331882,175.081941 308.28,174.553235 C309.737647,173.589706 310.706118,171.918353 310.690059,170.020941 C310.683882,169.308176 310.534412,168.63 310.279941,168.009882 C310.630765,167.575059 311.011235,167.163706 311.433706,166.793118" id="Fill-10" sketch:type="MSShapeGroup"></path>
                <path d="M270.675176,92.9410588 C275.626235,94.4938235 286.493118,94.9854706 290.439882,94.6136471 C294.468176,94.2418235 299.058529,92.0985882 299.058529,92.0985882 C299.058529,92.0985882 297.893647,90.5964706 290.155765,90.3284118 C287.275059,90.2703529 283.150412,89.0461765 280.015235,88.0653529 C275.229706,86.5953529 270.601059,84.2828824 269.858647,84.1222941 C268.457824,83.7974118 265.488176,82.9845882 265.398,82.0605882 C265.307824,81.2205882 263.230059,78.8006471 269.572059,79.4170588 C283.574118,80.8055294 291.510882,75.6074118 292.657235,74.9242941 C293.804824,74.3251765 300.114706,71.1591176 300.114706,71.1591176 C298.881882,71.4222353 288.038471,73.7050588 279.145588,72.9428824 C270.167471,72.0979412 268.698706,73.5407647 266.889,73.5568235 C265.078059,73.5728824 264.089824,73.4975294 264.244235,72.2350588 C264.480176,70.9725882 264.716118,69.7101176 267.343588,69.0134118 C273.42,67.4470588 278.173412,65.1345882 281.196176,62.5861765 C284.218941,60.0377647 295.036412,54.7297059 295.036412,54.7297059 C291.079765,54.0082941 276.306882,58.5949412 273.676941,59.0384118 C271.047,59.4818824 264.506118,64.3316471 262.928647,62.7492353 C262.181294,61.9994118 262.748294,60.8172353 264.544412,59.2039412 C266.341765,57.6746471 269.532529,55.461 273.214941,53.0744118 C280.825588,48.1307647 288.396706,38.5658824 288.396706,38.5658824 C288.396706,38.5658824 277.748471,44.2927059 275.452059,45.3217059 C273.156882,46.3507059 266.515941,49.2672353 265.615412,49.6958824 C264.795176,50.0392941 259.741588,55.8007059 258.670588,55.5573529 C257.598353,55.3152353 255.311824,57.4362353 255.049941,55.5907059 C254.786824,53.7427059 264.754412,45.2488235 265.873588,41.4564706 C266.511,39.0130588 272.208176,31.6482353 272.208176,31.6482353 C274.579941,29.778 276.114176,26.4859412 276.114176,26.4859412 C275.376706,26.7453529 271.841294,27.1974706 268.324412,29.7495882 C264.807529,32.3029412 258.298765,40.9351765 256.244471,41.2897059 C255.423,41.4651176 248.490529,48.7558235 248.490529,48.7558235 C248.490529,48.7558235 247.827176,48.1727647 247.979118,46.7435294 C248.049529,45.3130588 256.886824,29.7681176 256.886824,29.7681176 C260.496353,18.8085882 262.057765,9.04358824 260.106,11.7513529 C258.154235,14.4578824 250.144588,30.4166471 247.282412,32.5438235 C245.973,33.3949412 243.616059,36.8624118 242.881059,37.6258235 C242.147294,38.3892353 241.837235,40.6609412 241.103471,41.4243529 C237.596471,45.0697059 237.637235,40.194 238.758882,36.6536471 C239.077588,35.3899412 245.146588,23.4841765 246.677118,19.6041176 C250.059353,10.9162941 248.868529,6.30247059 248.136,7.31788235 C247.892647,7.65635294 243.308471,10.5555882 239.831118,17.7314118 C237.476647,21.4508824 236.126471,27.0949412 231.972176,32.1757059 C230.676353,34.5400588 226.433118,38.7808235 226.502294,37.2675882 C226.909941,27.1764706 225.341118,26.5180588 226.675235,18.942 C227.773412,12.6271765 231.144529,2.67811765 229.910471,2.68923529 C228.593647,2.70158824 227.137235,5.57241176 224.449235,8.87435294 C222.413471,11.4141176 220.299882,24.0425294 219.529059,30.1004118 L219.529059,30.1844118 C219.296824,31.8681176 219.223941,33.0453529 219.227647,33.3813529 C219.241235,34.9785882 218.036824,38.4361765 217.459941,38.4411176 C216.967059,38.4460588 216.225882,38.4522353 216.895412,30.1238824 C217.571118,22.4687647 211.785,9.828 210.702882,8.49264706 C209.539235,7.07452941 207.016765,0.791823529 207.016765,0.791823529 C205.478824,3.74788235 207.597353,10.8730588 207.853059,11.9638235 C208.108765,13.0545882 209.447824,25.2308824 208.242176,28.6884706 C207.279882,31.5543529 208.966059,36.2472353 208.893176,37.4244706 C208.738765,38.6029412 206.110059,39.1304118 205.441765,37.9593529 C205.107,37.2898235 204.470824,30.2350588 204.470824,30.2350588 C204.128647,28.7255294 202.029882,23.8683529 201.199765,23.0357647 C193.769471,10.5765882 193.700294,2.50764706 192.486,4.872 C192.167294,6.13570588 193.681765,19.656 193.613824,21.3372353 C193.468059,23.4409412 194.321647,27.132 195.501353,30.3153529 L195.584118,30.3981176 C197.015824,34.1682353 199.020706,37.7641765 199.272706,38.3509412 C199.858235,39.438 199.294941,40.9561765 198.225176,40.9660588 C197.156647,40.9759412 190.636765,29.2653529 185.307706,22.0005882 C180.394941,15.1508824 174.589059,9.90705882 174.595235,10.6642941 C174.601412,11.2522941 177.627882,18.7900588 180.391235,24.3970588 C181.899529,27.5779412 185.811706,32.7550588 185.811706,32.7550588 C189.883235,37.4257059 191.744824,43.3773529 191.754706,44.4705882 C191.754706,44.4705882 191.615118,47.4970588 189.699176,44.7411176 C184.452882,37.4738824 168.901765,28.0300588 167.901176,26.6107059 C166.817824,24.9381176 160.622824,22.2204706 160.622824,22.2204706 C161.294824,23.8955294 169.445294,33.9100588 170.109882,34.5758824 L180.324529,45.4131176 C181.900765,46.9955294 183.331235,50.5976471 182.675294,50.9398235 C182.102118,51.2807647 179.473412,51.7242353 178.803882,50.4691765 C178.134353,49.2153529 169.692353,43.5737647 168.620118,43.3316471 C159.298588,40.5571765 149.673176,31.2282353 150.108,33.9977647 C150.542824,36.7672941 172.099941,55.5734118 173.912118,55.8093529 C175.724294,56.0452941 175.913294,58.9852941 175.254882,58.9914706 C171.058588,59.0285294 165.274941,56.2219412 156.300529,55.7142353 C150.372353,55.3461176 141.906882,47.0165294 141.919235,48.3605294 C141.930353,49.7057647 147.174176,56.7197647 153.212294,60.2798824 C153.212294,60.2798824 160.641353,62.9876471 163.282412,63.8894118 C173.598353,67.3272353 171.405706,70.7094706 171.405706,70.7094706 C162.809294,66.2475882 149.474294,65.8609412 148.309412,64.3588235 C146.395941,61.9376471 133.004118,64.4107059 135.074471,65.9894118 C137.144824,67.4841176 144.393529,68.3438824 148.361294,70.4105294 C152.824412,72.6402353 162.562235,75.8322353 165.776471,76.4758235 C168.990706,77.0354118 169.920882,79.9692353 169.920882,79.9692353 C168.933882,79.9778824 156.100412,80.5127647 154.698353,80.1051176 C150.159882,78.7166471 131.163529,80.2311176 132.322235,80.892 C133.479706,81.5541176 139.903235,82.1692941 144.840706,82.1260588 C146.321824,82.1124706 154.508118,86.6632941 158.944059,85.7825294 C166.830176,84.1988824 168.984529,85.8615882 168.984529,85.8615882 C168.984529,85.8615882 167.941941,89.0647059 161.687647,89.1202941 C155.516118,89.1758824 143.259529,99.288 141.373235,100.145294 C139.406647,101.087824 134.311059,101.805529 134.311059,101.805529 C140.845765,105.781941 148.777588,99.9105882 150.663882,99.0532941 C152.630471,98.112 157.306059,96.3887647 160.022471,96.5332941 C162.740118,96.6765882 169.072235,96.1997647 169.072235,96.1997647 C168.252,96.4591765 167.344059,96.1305882 165.478765,99.4263529 C163.531941,102.722118 156.165882,107.326059 154.933059,107.505176 C153.700235,107.684294 151.907824,109.802824 150.765176,110.988706 C147.828882,114.041118 151.153059,116.358529 147.625059,119.087294 C163.633235,106.708412 191.071588,98.1898235 216.753353,98.4727059 C239.916353,98.7284118 266.780294,106.502118 284.485765,118.237412 C284.485765,118.237412 264.414706,101.822824 274.982647,105.931412 C281.918824,108.642882 297.867706,106.735588 297.867706,106.735588 C296.797941,106.745471 289.131706,105.300176 288.221294,104.720824 C283.252941,101.065588 276.988765,99.8611765 268.895118,96.4863529 C260.801471,93.1127647 265.724118,91.3870588 270.675176,92.9410588 L270.675176,92.9410588 Z M214.349471,62.5466471 C214.526118,63.5978824 215.175882,64.9690588 215.374765,66.1512353 C215.628,67.6484118 215.716941,69.1875882 215.652706,70.7465294 L215.431588,70.1906471 L214.973294,70.4105294 C214.967118,69.8114118 214.922647,69.2234118 214.826294,68.6514706 C214.492765,66.6799412 213.430412,64.7071765 212.379176,62.9444118 C207.132882,57.8204118 197.622353,58.8444706 190.080882,65.6756471 C197.295,55.4288824 207.132882,56.112 214.349471,62.5466471 L214.349471,62.5466471 Z M215.424176,73.1985882 C215.117824,75.3356471 214.528588,77.4887647 213.666353,79.6060588 L211.934471,80.2743529 C213.220412,78.0681176 214.164176,75.7877647 214.637294,73.5765882 L215.424176,73.1985882 L215.424176,73.1985882 Z M192.047471,69.4334118 C191.392765,69.0912353 195.327176,63.6262941 201.886588,63.6262941 C206.149588,63.6262941 207.132882,64.6515882 209.100706,66.36 C211.067294,68.0659412 212.051824,67.725 212.379176,68.0659412 C212.706529,68.4081176 212.379176,69.4334118 211.724471,69.0912353 C211.067294,68.7502941 209.755412,68.0659412 207.788824,66.36 C205.819765,64.6515882 203.853176,64.6515882 201.886588,64.6515882 C195.983118,64.6515882 192.704647,69.7755882 192.047471,69.4334118 L192.047471,69.4334118 Z M209.755412,69.7755882 L209.755412,69.7755882 C208.098882,71.3283529 205.435588,72.1807059 202.573412,72.1621765 C202.562294,72.1621765 202.552412,72.1658824 202.541294,72.1658824 C202.519059,72.1658824 202.496824,72.1597059 202.473353,72.1584706 C199.700118,72.1214118 196.747765,71.2702941 194.343882,69.4334118 C198.606882,64.6515882 206.476941,64.3094118 209.755412,69.7755882 L209.755412,69.7755882 Z M194.016529,71.1418235 C200.574706,73.8730588 204.509118,73.8730588 207.132882,72.5068235 C209.755412,71.1418235 210.411353,70.4574706 211.067294,70.4574706 C211.724471,70.4574706 211.723235,71.1418235 208.443529,73.1899412 C205.165059,75.2405294 199.590176,75.5814706 194.016529,71.1418235 L194.016529,71.1418235 Z M223.794529,87.486 C222.838412,87.486 221.915647,86.982 221.373353,86.1704118 C220.061471,87.1944706 218.094882,87.1944706 217.438941,87.1944706 L216.973235,87.1895294 L216.969529,87.1944706 C216.312353,87.1944706 214.345765,87.1944706 213.033882,86.1704118 C212.491588,86.982 211.570059,87.486 210.612706,87.486 C209.116765,87.486 207.887647,86.3112353 207.699882,84.8041765 L209.024118,84.2952353 C209.358882,84.9301765 210,85.3687059 210.742412,85.3687059 C211.794882,85.3687059 212.671941,84.5027647 212.710235,83.4070588 C213.033882,84.1210588 214.345765,86.1704118 216.969529,86.1704118 L217.438941,86.1704118 C220.061471,86.1704118 221.373353,84.1210588 221.698235,83.4070588 C221.736529,84.5027647 222.613588,85.3687059 223.666059,85.3687059 C224.749412,85.3687059 225.632647,84.4471765 225.632647,83.3193529 C225.632647,82.4546471 225.103941,81.6788824 224.326941,81.3898235 C224.322,81.3885882 224.318294,81.3861176 224.313353,81.3861176 L224.324471,81.3885882 L224.325706,81.3885882 C225.726529,81.648 226.745647,82.9277647 226.745647,84.4125882 C226.745647,86.1049412 225.420176,87.486 223.794529,87.486 L223.794529,87.486 Z M225.964941,73.1899412 C222.685235,71.1418235 222.684,70.4574706 223.341176,70.4574706 C223.997118,70.4574706 224.653059,71.1418235 227.275588,72.5068235 C229.899353,73.8730588 233.833765,73.8730588 240.393176,71.1418235 C234.817059,75.5814706 229.243412,75.2405294 225.964941,73.1899412 L225.964941,73.1899412 Z M224.653059,69.7755882 L224.654294,69.7743529 C227.934,64.3094118 235.802824,64.6515882 240.064588,69.4334118 L240.063353,69.4334118 C237.659471,71.2690588 234.708353,72.1214118 231.935118,72.1584706 C231.911647,72.1597059 231.890647,72.1658824 231.867176,72.1658824 C231.856059,72.1658824 231.846176,72.1621765 231.835059,72.1621765 C228.971647,72.1807059 226.309588,71.3283529 224.653059,69.7755882 L224.653059,69.7755882 Z M242.361,69.4334118 C241.705059,69.7755882 238.426588,64.6515882 232.523118,64.6515882 C230.556529,64.6515882 228.589941,64.6515882 226.620882,66.36 C224.653059,68.0659412 223.341176,68.7502941 222.685235,69.0912353 C222.030529,69.4334118 221.701941,68.4081176 222.030529,68.0659412 C222.357882,67.725 223.342412,68.0659412 225.309,66.36 C227.276824,64.6515882 228.260118,63.6262941 232.523118,63.6262941 C239.081294,63.6262941 243.016941,69.0912353 242.361,69.4334118 L242.361,69.4334118 Z M222.029294,62.9444118 C220.979294,64.7071765 219.916941,66.6799412 219.582176,68.6514706 C218.937353,72.4611176 220.367824,76.9242353 222.945882,81.0550588 C222.685235,81.0476471 222.029294,81.3885882 221.701941,81.7295294 C219.137471,76.6030588 218.187529,71.1442941 219.033706,66.1512353 C219.233824,64.9690588 219.882353,63.5978824 220.060235,62.5466471 C227.275588,56.112 237.113471,55.4288824 244.327588,65.6756471 C236.784882,58.8444706 227.275588,57.8204118 222.029294,62.9444118 L222.029294,62.9444118 Z" id="Fill-11" sketch:type="MSShapeGroup"></path>
                <path d="M326.819294,317.568176 C332.210118,328.909412 371.191059,328.717941 384.465529,295.467529 C368.893412,287.328176 343.863882,306.907588 326.819294,317.568176" id="Fill-12" sketch:type="MSShapeGroup"></path>
                <path d="M419.095765,165.094588 C409.028118,166.012412 400.672588,171.020294 393.698118,178.612412 C401.669471,168.480529 409.108412,154.027588 407.244353,145.048235 C391.008882,146.528118 384.859588,167.294647 381.798529,185.874706 C381.531706,182.943353 381.185824,180.009529 380.754706,177.086824 C386.753294,167.960471 392.061353,146.363824 387.027529,137.669824 C380.140765,139.185529 376.707882,145.948765 375.536824,154.455 C373.733294,148.886294 371.554235,143.536235 368.986059,138.518471 C369.932294,139.892118 370.876059,141.231176 371.803765,142.514647 C382.078941,132.164118 367.963235,98.9705294 356.147647,91.0930588 C349.506706,99.3682941 353.938941,112.996059 361.066588,125.853 C359.579294,123.908647 357.999353,122.065588 356.341588,120.316412 C352.798765,107.869588 344.353059,91.4735294 335.113059,90.9868235 C332.737588,95.4561176 333.363882,100.845706 335.588647,106.194529 C334.512706,105.780706 333.418235,105.395294 332.301529,105.044471 C319.046824,83.5120588 291.029118,105.022235 282.309176,102.675176 C287.959412,121.865471 319.180235,108.109235 330.243529,106.124118 C333.827118,108.894882 337.206882,111.724941 340.340824,114.624176 C343.835471,119.571529 348.162706,123.977824 352.010647,126.925235 C354.431824,129.852882 356.644235,132.836118 358.68,135.866294 C348.898941,128.007353 337.715824,111.849706 327.163941,109.001118 C327.755647,127.053706 347.442529,147.872118 361.574294,140.427 C369.656824,153.900353 374.175529,168.311294 375.523235,183.458471 C372.126176,167.656588 363.413647,152.998588 350.840824,148.999941 C347.861294,164.943882 361.832471,192.912176 375.890118,197.172706 C375.493588,209.834471 373.093412,222.938471 368.934176,236.371059 C370.301647,220.144235 371.632059,203.764235 357.862235,199.383882 C356.439176,206.995765 355.936412,215.918294 357.029647,223.984765 C354.576353,216.850941 350.616,211.827 343.211647,211.708412 C344.759471,227.864824 344.732294,254.006118 361.708941,256.277824 C360.140118,259.938 358.363765,263.603118 356.387294,267.263294 C356.168647,264.812471 355.536176,262.424647 354.365118,260.185059 C345.495706,256.881882 341.355,267.116294 338.171647,281.070176 C340.114765,270.505941 340.292647,260.737235 337.47,256.529824 C324.790941,263.824235 310.197176,296.741118 317.899235,315.539824 C316.282235,317.030824 314.636824,318.507 312.959294,319.967118 C313.376824,317.872059 313.476882,315.721412 313.149529,313.534941 C303.073235,305.071941 293.108118,324.048529 282.293118,342.666882 C281.328353,343.270941 280.356176,343.866353 279.380294,344.458059 C290.249647,331.614706 300.631059,312.129176 298.506353,304.039235 C283.812529,306.682765 258.450706,334.053176 260.984294,354.594882 C253.631824,358.250118 246.021176,361.555765 238.210412,364.492059 C241.556824,361.255588 244.073118,357.898059 244.407882,354.478765 C246.039706,347.404235 245.949529,343.642765 237.279,340.553294 C219.516706,341.494588 220.958294,346.094824 187.085294,340.322294 C181.352294,341.684824 177.837882,345.049765 176.889176,349.657412 C176.160353,350.551765 175.944176,351.925412 176.591471,354.058765 C176.661882,357.786882 178.613647,361.099941 181.542529,364.058471 C173.521765,361.071529 165.708529,357.699176 158.172,353.961176 C158.538882,333.683824 133.915765,308.438118 119.665412,306.134294 C118.704353,310.060059 120.721588,316.599706 124.300235,323.731059 C117.875471,314.917235 111.692824,309.989647 105.642353,315.254471 C105.484235,316.447765 105.449647,317.628706 105.522529,318.794824 C104.712176,318.083294 103.911706,317.365588 103.116176,316.645412 C111.581647,297.910941 96.0589412,264.063882 82.9994118,256.854706 C80.2867059,261.053471 80.5868824,270.609706 82.6312941,280.972588 C79.2404118,267.483176 74.9255294,257.763882 66.2797059,261.159706 C65.0468824,263.619176 64.4564118,266.240471 64.3464706,268.921059 C61.6807059,264.075 59.3756471,259.212882 57.4510588,254.368059 C73.8199412,251.309471 73.3752353,225.578294 74.634,209.575059 C66.7577647,209.841882 62.8777059,215.594647 60.5985882,223.501765 C61.8536471,215.001706 61.2187059,205.392353 59.5621765,197.296235 C47.8738235,201.244235 47.3352353,213.738 48.4519412,227.385529 C46.1518235,218.181353 44.7571765,209.140235 44.3384118,200.296765 C58.4664706,196.217824 72.2585294,167.614588 68.9738824,151.569353 C55.6215882,156.079412 46.8781765,172.668176 44.3211176,189.714 C45.045,173.363647 49.3672941,157.774235 57.8265882,143.194059 C72.1201765,151.023353 91.8280588,129.610765 92.1146471,111.372882 C81.2131765,114.525353 69.8768824,132.027 59.9661176,139.675941 C61.8981176,136.627235 64.0141765,133.624235 66.3254118,130.669412 C70.7020588,127.482353 75.9285882,122.075471 79.8148235,116.027471 C82.5497647,113.474118 85.4527059,110.965235 88.5298235,108.502059 C99.7215882,110.356235 130.990588,123.409588 136.294941,104.184706 C127.599706,106.691118 99.1311176,85.5997059 86.2791176,107.563235 C85.4107059,107.854765 84.5571176,108.166059 83.7146471,108.495882 C85.7775882,103.179176 86.2630588,97.8612353 83.8431176,93.4944706 C74.8069412,94.1306471 66.7935882,109.999235 63.3372353,122.401588 C61.0766471,124.786941 58.989,127.373647 57.0508235,130.114765 C64.5601765,116.582118 69.5347059,101.910529 62.4194118,93.3511765 C50.7397059,101.438647 37.1934706,134.878059 47.6440588,145.044529 C48.8138824,143.363294 50.0096471,141.594353 51.2029412,139.766118 C48.2678824,145.421294 45.8491765,151.517471 43.9171765,157.882941 C42.7028824,149.019706 39.1501765,141.939 32.0212941,140.501118 C27.0801176,149.386588 32.9465294,171.274765 39.1810588,180.100941 C38.7561176,183.317647 38.4287647,186.546706 38.2014706,189.769588 C34.8674118,171.035118 28.4154706,149.770765 11.9107059,148.561412 C10.101,158.096647 18.8098235,173.572412 27.4494706,183.573353 C20.1229412,175.436471 11.3325882,170.1 0.727588235,169.323 C-1.95670588,186.093353 25.8621176,206.565882 37.8111176,203.261471 C37.9099412,211.353882 38.6078824,219.216529 39.8394706,226.523294 C35.0638235,218.791588 29.6075294,214.162941 18.7789412,213.369882 C16.2700588,229.048235 33.4381765,246.124941 44.6682353,245.377588 C45.549,247.791353 46.5112941,250.054412 47.5427647,252.160588 C40.215,244.666059 25.8831176,239.715 10.3048235,229.883294 C6.3,251.097 40.1705294,273.375529 51.8514706,259.809529 C55.6487647,267.547412 61.0358824,277.177765 68.4068824,287.723471 C57.0236471,278.163529 44.6126471,271.227353 35.7345882,276.069706 C35.5777059,283.885412 44.5360588,290.564647 55.3683529,295.951765 C48.3222353,293.715882 41.7158824,293.286 36.3250588,296.227235 C49.8157059,328.405412 87.1821176,328.731529 93.8687647,318.133941 C101.914235,326.221412 111.146824,334.312588 121.706118,342.061588 C106.323,335.618294 89.6737059,331.646824 82.0445294,340.151824 C84.4224706,347.530235 94.9261765,350.797588 106.802294,352.218176 C99.3448235,352.472647 92.8965882,354.299647 88.7299412,358.943118 C111.925059,384.723706 147.285353,372.341118 150.132706,360.073412 C161.728412,366.368471 174.518647,372.139765 188.588647,377.139 C181.026176,378.166765 173.364882,378.809118 165.629471,379.012941 L154.342588,395.081647 C171.872647,393.148412 188.058706,390.145412 203.036647,386.320941 C197.728588,394.601118 188.948118,403.422353 183.134824,407.947235 C181.759941,406.904647 180.527118,405.855882 179.482059,404.989941 C174.727412,403.098706 171.017824,403.41 167.242765,406.705765 C167.242765,406.705765 164.321294,409.954588 164.373176,409.954588 C160.720412,416.493 159.902647,428.323412 158.997176,435.725294 C163.044,433.528941 167.589882,435.890824 172.192588,438.778941 C171.912176,425.390824 171.741706,419.241529 172.737353,414.478235 C174.560647,415.475118 176.600118,416.444824 178.815,417.158824 C190.954235,421.066059 196.296882,417.995118 198.222706,412.496824 C202.461,407.355529 208.039588,399.410118 211.041353,387.572294 C211.192059,387.583412 211.340294,387.593294 211.484824,387.601941 C212.930118,394.655471 213.855353,402.178412 216.724941,407.944765 C215.730529,414.396706 221.071941,425.536588 234.595941,421.714588 C237.428471,420.108706 240.590824,418.415118 243.572824,416.973529 C248.992059,420.759706 249.502235,430.084941 251.336647,437.914235 C253.487294,436.071176 255.190765,432.470294 262.781647,433.540059 C261.049765,425.950412 260.187529,417.312 254.069118,411.602471 L254.006118,411.633353 C253.355118,410.748882 252.552176,409.918765 251.845588,409.168941 C251.502176,408.805765 251.183471,408.459882 250.919118,408.136235 C248.906824,405.670588 247.609765,404.098059 244.414059,402.495882 C240.787235,403.624941 237.529765,404.966471 234.612,406.212882 C225.958765,397.197706 223.442471,391.830353 221.595706,386.742176 C236.303118,390.162706 252.138353,392.782765 269.238529,394.361471 L257.679882,378.496588 C249.520765,378.427412 241.437,377.866588 233.458235,376.880824 C246.552353,372.032294 258.521118,366.526588 269.439882,360.562588 C274.752882,372.210176 308.461588,382.076471 330.323824,356.909824 C325.303588,351.507882 317.164235,350.097176 307.966235,350.591294 C321.547059,349.227529 334.405235,345.893471 336.935118,337.560176 C330.432529,330.561 317.769529,332.404059 304.865647,337.122882 C317.293941,327.252882 327.733412,316.965353 336.449647,306.907588 C352.105765,301.116529 384.953471,289.722176 384.397588,274.773882 C375.398471,270.069882 363.036882,277.312412 351.777176,287.141647 C358.171059,277.894235 363.099882,269.294118 366.823059,261.946588 C378.899294,274.844294 411.996529,252.106235 407.652,231.081529 C392.377588,241.102235 378.248294,246.305294 370.990941,253.823294 C372.316412,251.636824 373.538118,249.190941 374.652353,246.527647 C385.844118,245.779059 401.368059,229.114941 398.697353,214.074 C390.086118,214.858412 384.923824,218.017059 380.833765,223.216412 C381.954176,215.805882 382.521176,207.837 382.468059,199.647 C394.402235,202.927941 422.075294,181.874824 419.095765,165.094588 L419.095765,165.094588 Z M37.8234706,198.448765 C34.9921765,193.344529 31.8619412,188.680059 28.3957059,184.646824 C31.9249412,188.570118 35.3738824,191.503941 38.0235882,192.663882 C37.9222941,194.598353 37.8568235,196.527882 37.8234706,198.448765 L37.8234706,198.448765 Z M52.5592941,241.312235 C55.5326471,238.652647 57.6326471,234.880059 59.0223529,230.486118 C57.8537647,237.057882 57.2027647,244.310294 56.0996471,250.890706 C54.8248235,247.682647 53.6377059,244.488176 52.5592941,241.312235 L52.5592941,241.312235 Z M89.3698235,303.084353 C88.536,302.183824 87.7145294,301.279588 86.9041765,300.371647 C86.0332941,296.340882 85.2056471,292.285412 84.3532941,288.380647 C85.7269412,293.525647 87.4477059,298.603941 89.3698235,303.084353 L89.3698235,303.084353 Z M68.5007647,301.671176 C74.0694706,303.832941 79.3898824,305.656235 83.5985294,307.125 C85.9727647,309.842647 88.4791765,312.578824 91.1165294,315.321176 C84.2581765,311.055706 76.3955294,305.852647 68.5007647,301.671176 L68.5007647,301.671176 Z M120.951353,353.175529 C127.458882,353.348471 133.585941,353.233588 138.245471,353.195294 C141.181765,355.001294 144.209471,356.773941 147.317471,358.512 C139.335,356.806059 129.99,354.482471 120.951353,353.175529 L120.951353,353.175529 Z M200.905765,374.743765 C191.769529,369.072529 179.155941,357.592941 178.863176,350.571529 C178.007118,350.861824 179.403,345.897176 182.205882,343.620529 C185.941412,343.023882 187.306412,342.282706 194.645294,343.809529 C205.167529,346.308529 214.859647,347.699471 224.785235,344.349353 C230.350235,343.095529 234.109235,341.850353 241.220824,343.797176 C243.971824,346.446882 244.433824,349.930412 243.889059,352.489941 C243.099706,349.087941 240.876176,346.460471 225.015,347.829176 C218.003471,349.013824 213.809647,353.129824 201.186176,348.789 C194.419235,347.222647 188.704765,347.845235 183.773471,349.095353 C186.867882,356.213118 196.157294,368.222647 205.304647,373.355294 C206.370706,373.955647 199.847118,372.611647 200.905765,374.743765 L200.905765,374.743765 Z M231.174176,352.158882 C231.298941,355.612765 224.147824,363.954706 218.906471,370.253471 C218.356765,370.048412 217.765059,369.922412 217.119,369.897706 C213.242647,369.114529 209.193353,368.995941 204.808059,370.162059 C196.038706,362.860235 191.360647,355.921588 189.261882,351.158294 C194.425412,351.210176 200.594471,352.115647 206.570824,354.278647 C214.202471,357.039529 220.791529,351.574588 231.174176,352.158882 L231.174176,352.158882 Z M179.714294,416.453471 C175.147412,411.927353 172.364294,409.822412 170.395235,408.719294 C169.934471,414.925412 165.282353,429.847765 168.098824,435.204 C165.769059,433.834059 163.571471,433.689529 162.672176,433.845176 C162.227471,426.409941 164.971059,413.869235 168.735,407.632235 C168.133412,407.437059 172.125882,401.400176 178.196118,408.307941 C184.473882,416.690647 190.164882,415.599882 196.519235,414.406588 C194.482235,419.649176 181.599353,418.552235 179.714294,416.453471 L179.714294,416.453471 Z M246.095294,406.422882 C249.461471,407.280176 251.667706,412.237412 251.736882,412.358471 C254.999294,417.078529 258.967059,427.427824 259.141235,432.188647 C255.949235,432.325765 254.459471,433.612941 253.197,434.892706 C254.982,430.645765 250.149529,418.852412 247.499824,414.121235 C247.326882,413.244176 247.292294,412.584529 247.356529,412.087941 C245.805,412.727824 243.958235,413.667882 241.512353,414.840176 C233.613882,419.617059 225.089118,422.881941 221.141118,418.747412 C220.028118,417.913588 217.993588,414.133588 217.954059,412.818 C222.276353,411.796412 221.582118,416.308941 232.398353,411.975529 C237.561882,410.299235 240.535235,406.440176 246.095294,406.422882 L246.095294,406.422882 Z M231.021,409.434529 L223.295471,410.390647 C217.728,404.358706 216.371647,393.283059 214.018412,384.657 C213.592235,385.194353 213.119118,385.734176 212.590412,386.278941 C211.132765,386.811353 208.900588,386.261647 208.919118,386.282647 C207.630706,391.402941 192.435353,420.893118 183.932824,412.052118 C191.888118,408.032471 204.380647,393.631412 205.359,385.624235 C205.989,387.188118 207.066176,386.550706 207.844412,386.071412 C205.308353,381.137647 205.476353,375.312 208.954941,371.493706 C210.007412,370.470882 213.608294,370.520294 215.082,371.118176 C216.109765,373.167529 218.899059,376.594235 216.258,382.643471 L216.463059,382.540941 C218.391353,388.012059 223.911882,402.336529 231.021,409.434529 L231.021,409.434529 Z M219.599471,375.061235 L219.951529,372.444882 C227.453471,367.346824 233.066647,358.152529 234.975176,351.726529 L241.638353,350.607353 C238.431529,360.945529 227.847529,371.024294 219.599471,375.061235 L219.599471,375.061235 Z M277.011,356.266235 C279.616235,354.727059 282.153529,353.160706 284.631529,351.573353 C289.990235,351.532588 296.569412,351.457235 303.243706,350.992765 C294.573176,351.977294 285.312176,354.256412 277.011,356.266235 L277.011,356.266235 Z M334.714059,298.232118 C334.11,298.930059 333.502235,299.626765 332.884588,300.319765 C334.412647,296.232176 335.764059,291.771529 336.847412,287.286176 C336.129706,290.846294 335.435471,294.541059 334.714059,298.232118 L334.714059,298.232118 Z M364.534059,249.087176 C363.964588,250.698 363.342,252.313765 362.688529,253.930765 C361.438412,247.597412 360.667588,240.530294 359.490353,234.010412 C361.075235,238.130118 363.343235,241.591412 366.438882,243.934765 C365.831118,245.646882 365.196176,247.363941 364.534059,249.087176 L364.534059,249.087176 Z M382.092529,189.518824 C384.432176,188.378647 387.348706,185.879647 390.366529,182.562882 C387.446294,186.323118 384.791647,190.547824 382.376647,195.111 C382.312412,193.253118 382.219765,191.387824 382.092529,189.518824 L382.092529,189.518824 Z" id="Fill-13" sketch:type="MSShapeGroup"></path>
            </g>
        </g>
    </g>
</svg>