<?xml version="1.0" encoding="UTF-8" standalone="no"?>
<svg width="400px" height="480px" viewBox="0 0 400 480" version="1.1" xmlns="http://www.w3.org/2000/svg" xmlns:xlink="http://www.w3.org/1999/xlink" xmlns:sketch="http://www.bohemiancoding.com/sketch/ns">
    <!-- Generator: Sketch 3.3 (11970) - http://www.bohemiancoding.com/sketch -->
    <title>santiago-del-estero</title>
    <desc>Created with Sketch.</desc>
    <defs></defs>
    <g id="Page-1" stroke="none" stroke-width="1" fill="none" fill-rule="evenodd" sketch:type="MSPage">
        <g id="santiago-del-estero" sketch:type="MSArtboardGroup" fill="#4DB9DF">
            <g id="Imported-Layers" sketch:type="MSLayerGroup" transform="translate(4.000000, 7.816143)">
                <path d="M347.55304,112.912386 L347.55304,104.606152 C348.710852,104.32913 349.861561,104.053883 351.02026,103.776861 C352.189614,106.885372 352.189614,106.885372 347.55304,112.912386 L347.55304,112.912386 Z M26.1502063,161.843247 C29.5472825,167.387247 29.873139,175.855076 26.1502063,180.52983 L26.1502063,161.843247 L26.1502063,161.843247 Z M11.524843,151.871327 C11.9243946,151.690197 12.3230583,151.509067 12.721722,151.327937 C15.864861,158.239291 19.0071121,165.151534 22.1493632,172.062888 C21.6707892,172.280422 21.1913274,172.497955 20.7118655,172.715489 C16.0095874,166.511785 12.4065202,159.808197 11.524843,151.871327 L11.524843,151.871327 Z M16.4899372,184.986161 C22.5879821,194.072852 30.5852287,200.756018 30.7468251,211.585641 C24.8103767,208.562368 17.4595157,195.426888 16.4899372,184.986161 L16.4899372,184.986161 Z M35.111704,191.94635 C35.4384484,195.104583 35.7119193,197.741623 36.0217937,200.737372 C32.6975247,197.197345 32.2260538,194.041776 35.111704,191.94635 L35.111704,191.94635 Z M56.7167892,234.167408 C58.4046726,240.261901 59.8625919,245.526215 61.3205112,250.790529 C56.1627444,246.462942 53.7894081,241.426816 56.7167892,234.167408 L56.7167892,234.167408 Z M50.597435,265.243641 C52.8304843,264.29626 54.2386816,263.697821 55.7294529,263.064753 C60.439722,267.281354 63.8953991,272.212709 64.2478924,279.583103 C59.5553812,274.653525 55.2846188,270.167004 50.597435,265.243641 L50.597435,265.243641 Z M178.100556,391.051776 C165.927552,395.34296 153.801605,399.776206 141.562897,403.872054 C134.413587,406.264036 127.089363,408.133937 119.834395,410.202726 C117.176933,410.960099 116.065291,412.968511 116.959399,415.223758 C117.293247,416.06548 120.090996,416.532511 121.561345,416.218197 C128.086466,414.824206 134.586726,413.256188 141.002637,411.42713 C148.868475,409.184314 156.642861,406.619193 165.249202,403.947525 C165.249202,403.947525 166.77904,401.049444 168.74661,398.032386 C170.714179,395.016215 178.100556,391.051776 178.100556,391.051776 L178.100556,391.051776 Z M207.700224,385.572592 C209.10043,387.267578 211.242027,389.859336 211.242027,389.859336 C215.767614,388.308188 219.91052,387.054484 223.926457,385.4767 C231.572099,382.472072 231.721265,382.045883 231.662664,373.97139 C231.654673,372.878395 232.17409,371.278413 232.985623,370.76965 C236.389803,368.636045 239.998197,366.828296 243.652762,364.835865 C246.294242,370.711049 251.251345,372.217803 256.870816,372.634224 C262.571085,373.055973 268.432951,372.81713 273.666188,376.722969 C276.283695,367.370798 269.010969,364.511785 263.208592,360.089193 C266.171489,358.177561 268.878673,356.431076 271.586744,354.683704 C273.255094,357.595991 274.924332,360.508278 277.192009,364.463839 C278.044386,360.914933 278.760027,357.935166 279.734933,353.877498 C285.917327,352.715247 292.902377,351.401166 300.091641,350.048906 C299.790646,346.624305 298.12496,343.640099 294.563623,341.721363 C293.810691,341.315596 292.798493,340.186197 292.92635,339.618834 C293.14122,338.660798 294.019345,337.624628 294.902798,337.107874 C295.72765,336.625749 296.93696,336.845946 297.951821,336.63374 C301.319596,335.928753 304.676717,335.168717 308.769013,334.268395 C307.083794,332.221803 306.052063,330.968099 304.826771,329.479991 C310.213614,327.404099 314.353857,324.038987 317.458816,318.441713 C312.62957,317.539614 308.276233,316.725417 304.045426,315.934305 C304.878269,312.441336 306.19235,308.821399 306.512879,305.115336 C306.934628,300.232816 310.091973,297.337399 312.548771,293.86574 C312.969632,293.868404 313.391381,293.871955 313.812242,293.874619 C315.075713,297.464368 316.339184,301.053229 317.792664,305.180152 C322.24278,303.903363 324.005247,299.281883 326.652054,295.635309 C330.456673,297.281462 333.629112,300.549794 337.608646,299.407076 C335.897677,295.077713 334.271058,290.964108 332.465973,286.398565 C336.09035,285.650072 338.84104,285.082709 341.685848,284.494924 C339.578879,281.732691 337.616637,279.157803 335.653507,276.583803 C335.949175,276.225982 336.245731,275.868161 336.541399,275.510341 C338.570233,276.297901 340.599955,277.085462 342.191946,277.703435 C342.634117,276.399121 343.076287,275.212897 343.440323,274.0027 C344.617668,270.081767 349.842027,268.592771 349.478879,263.572628 C349.382987,262.256771 351.337238,260.901848 351.939229,259.399534 C352.878619,257.055498 356.11765,255.302798 353.900583,251.915489 C357.733614,249.54304 359.520054,246.271157 357.871238,241.586637 C354.66861,240.866556 351.412709,240.134045 347.293776,239.207973 C351.309713,235.83487 354.805345,232.89861 358.488323,229.803417 C360.083865,232.632242 359.755345,236.967821 365.074709,238.024413 C365.856942,233.544996 366.616978,229.25026 367.354816,224.951973 C368.287991,219.508305 365.245184,214.707471 359.904511,212.849112 C358.748475,212.447785 357.811749,211.416054 356.773803,210.674664 C360.692072,212.460215 365.85783,206.458951 368.604081,213.122583 C367.890215,208.611202 369.360565,205.50713 371.500386,202.323148 C373.518565,199.319408 377.065695,196.477265 374.597354,191.980978 C374.393139,191.608951 374.743857,190.960789 374.750072,190.440484 C374.774045,188.595444 374.759839,186.749516 374.759839,185.633435 C378.151587,180.721614 381.414592,175.997139 385.049623,170.732825 L374.425991,170.732825 C375.819094,162.516269 377.12252,154.830673 378.520063,146.584816 C374.131211,149.292 370.125928,151.763892 365.508,154.612251 C366.125973,148.552386 366.650717,143.405274 367.198547,138.028197 C368.593426,138.367372 369.51417,138.591121 370.107283,138.735848 C371.291731,136.700798 372.301265,134.966744 373.861291,132.285309 C379.121166,136.917444 383.821668,141.056798 388.523058,145.19704 C388.872888,145.04965 389.222717,144.90226 389.572547,144.75487 C387.935274,139.831507 386.297112,134.907256 384.569274,129.713973 C386.603435,129.292224 388.820502,128.832296 391.697274,128.235632 C390.30861,125.882717 389.389641,123.679857 387.897982,121.977767 C386.419641,120.291659 386.494224,118.959821 387.859803,117.571157 C390.140798,115.251094 392.546099,113.053561 395.225758,110.491991 C393.581381,109.990332 391.789614,109.307543 389.935695,108.913318 C387.467354,108.389462 386.209211,107.235202 386.947937,104.572413 C387.115749,103.965094 387.436278,103.104726 387.169022,102.71583 C383.922,97.9957937 380.618152,93.3121614 377.205982,88.7093274 C376.799327,88.159722 375.669928,88.1455157 373.966063,87.5825919 C375.336969,89.0813543 376.217758,89.7339552 376.684789,90.6085291 C378.742036,94.4602063 386.254493,96.6834888 380.483193,102.955561 C380.410386,103.035471 380.655444,103.409274 380.83391,103.84878 L384.921767,103.84878 C383.137103,105.199265 381.970413,106.082717 380.272762,107.367498 C379.647686,104.917803 379.174439,103.064771 378.582215,100.742045 C377.33739,104.185291 376.281686,107.102906 375.051067,110.507085 C374.176493,106.616341 373.518565,103.688072 372.654646,99.8470493 C369.4973,103.046126 366.941946,105.636108 364.238314,108.375256 C363.700251,107.949067 363.106251,107.500682 362.537112,107.022108 C361.95643,106.533767 361.399722,106.016126 360.832359,105.511803 C360.876753,106.238987 361.108493,107.018556 360.922924,107.680924 C360.619265,108.764152 360.04391,109.770135 359.51739,110.957247 C356.756045,106.141318 354.339202,101.926493 351.725247,97.3689417 C350.101291,99.2566009 348.961238,100.583112 347.119749,102.724709 C348.19765,99.2539372 345.450511,95.3356682 350.676646,94.9192466 C350.961659,93.2961794 351.221812,91.8098475 351.482852,90.3235157 C351.17209,90.1921076 350.860439,90.0606996 350.548789,89.9292915 C348.923946,93.6087175 346.977686,97.1860359 345.769265,100.99687 C344.675381,104.448996 344.369946,108.15417 343.762628,111.755462 C343.679166,112.24913 343.720009,112.863552 343.946422,113.294179 C345.802117,116.821776 347.715525,120.318296 349.855345,124.274744 C346.038296,127.598126 343.781274,132.778978 343.675614,138.869919 C345.763937,137.537193 347.821184,136.223112 349.87843,134.909919 C346.175919,141.230825 348.948807,147.499345 348.124843,153.498834 C352.012924,151.386538 355.42243,149.533507 359.700296,147.208117 C358.956242,152.627812 358.340933,157.113444 357.654592,162.107839 C351.617812,157.65417 345.774592,155.093489 338.675892,159.448601 C344.698466,161.35313 346.602996,167.192798 342.897821,171.760117 C340.607946,174.580951 337.584673,176.817552 335.367605,179.684556 C333.089274,182.632359 330.097076,185.879381 329.710843,189.257812 C328.919731,196.178933 326.663596,203.502269 330.97165,209.453812 C328.366574,212.747004 326.098897,215.614009 323.554197,218.832619 C327.000996,219.020852 329.560789,219.161139 332.120583,219.301426 C332.190726,219.630834 332.26087,219.959354 332.331901,220.287874 C326.929076,223.548215 323.383722,228.241614 320.501623,234.101704 C336.489901,232.900386 336.489901,232.900386 338.228395,234.998475 C335.423543,240.758233 335.436861,240.61617 329.233157,238.848377 C328.411857,238.614861 327.518637,238.634395 326.602332,238.732063 C327.986556,238.928287 329.198529,239.72739 330.178762,241.433031 C329.519058,241.902726 328.944592,242.311157 328.11974,242.898054 C329.147919,243.47696 330.001184,243.956422 330.854448,244.436771 C330.815381,244.106475 330.777202,243.775291 330.739022,243.444108 C332.154323,242.934457 333.580278,242.003946 334.981372,242.038574 C336.25461,242.070538 337.500323,243.154655 338.758466,243.774404 C338.700753,244.120682 338.643928,244.46696 338.586215,244.814126 C339.283211,244.617013 340.15157,244.058529 340.646126,244.292045 C342.090726,244.973946 343.387049,245.972825 344.741085,246.847399 C342.499157,249.243821 344.940861,250.968996 345.979695,253.143444 C344.843193,253.321022 344.036099,253.447103 342.99904,253.6087 C343.229892,253.930117 343.355085,254.218682 343.573507,254.390045 C344.936422,255.459955 346.469812,256.465937 344.451632,258.298547 C344.267839,258.464583 343.994368,258.811749 344.052969,258.926287 C347.151713,264.993256 343.078063,263.015919 339.870996,263.083399 C337.75426,263.127794 335.672152,264.834323 333.0653,266.030314 C333.175399,265.028771 333.239327,264.447202 333.367184,263.286726 C330.356341,263.435892 327.431623,263.580619 323.908466,263.755534 C323.722009,260.381543 323.524897,256.827309 323.327785,253.273964 C323.124457,253.242 322.920242,253.210036 322.716915,253.178072 C321.558215,255.935865 320.400404,258.694547 318.70009,262.744224 C317.290117,260.277659 315.735417,258.77357 315.875704,257.447946 C316.004448,256.227982 317.953372,255.198915 319.550691,253.649543 C317.720744,252.897498 315.747848,252.164987 313.847758,251.275318 C312.758314,250.765668 311.788735,250.002081 310.764996,249.352143 C311.747004,248.512197 312.722798,247.663372 313.715462,246.834969 C314.012906,246.588135 314.358296,246.399013 314.667283,246.19391 C314.586484,244.787489 314.50835,243.422798 314.430215,242.05722 C308.59765,248.484673 301.949112,254.665291 307.821632,264.139991 C303.531336,266.119991 299.566897,267.948161 295.088368,270.014287 C297.478574,272.088404 299.314735,273.681283 300.515166,274.72278 C298.944484,280.954009 297.522081,286.598341 296.135193,292.10061 C299.83948,291.218933 303.161085,290.428709 306.482691,289.637596 C306.583022,290.229821 306.683354,290.822045 306.783686,291.415157 C305.426099,291.583857 304.067623,291.752556 302.265202,291.976305 C301.584188,300.082762 292.174305,299.339596 287.751713,304.998135 C285.953731,301.165991 284.454081,297.971354 282.870081,294.595587 C281.484081,297.023085 280.506511,299.012852 279.275892,300.832143 C276.815543,304.472502 274.261964,308.053372 271.629363,311.571202 C271.177426,312.175857 270.149247,312.351659 269.384771,312.721022 C262.958206,315.827758 256.336305,318.837713 252.723471,325.432978 C250.98409,328.608081 249.602529,331.547004 246.342188,333.784493 C244.206807,335.249516 243.524018,338.832161 242.367982,341.118484 C239.225731,341.422143 235.971605,341.736457 232.71748,342.051659 C232.779632,342.389058 232.842673,342.726457 232.904825,343.063857 C234.672619,343.725336 236.439525,344.386816 238.670798,345.221435 C237.077031,345.927309 236.109229,346.355274 234.059085,347.261812 C241.419713,349.239148 236.541632,355.876143 240.725381,359.000637 C236.991794,361.199058 233.662197,363.158637 229.89487,365.376592 C226.692242,354.282377 216.631534,357.108538 208.657372,354.309013 L173.913256,354.401354 C164.230789,355.715435 154.617578,356.49678 152.605614,368.952135 C150.626502,365.850726 148.917309,362.95087 147.839408,359.832592 C145.923336,354.288592 144.968852,348.34948 142.567103,343.04965 C138.454386,333.972726 131.760565,326.985013 122.898511,322.092726 C125.328673,327.523964 128.012771,332.603596 129.883561,337.967354 C131.723274,343.238771 132.737247,348.798753 134.11348,354.231767 C133.895058,354.299247 133.676637,354.365839 133.458215,354.43243 C122.37643,333.133668 111.294646,311.835794 100.212861,290.537919 C99.7547085,290.729704 99.2956682,290.921489 98.8366278,291.113274 C99.601991,296.228422 100.367354,301.342682 101.13183,306.45783 C100.615076,306.625641 100.098323,306.794341 99.5815695,306.962152 C92.704843,290.817605 85.8272287,274.673058 78.9505022,258.528511 C78.5491749,258.659031 78.1469596,258.788664 77.7456323,258.918296 C77.5609507,262.73357 77.3762691,266.548843 77.1392018,271.44113 C76.0506457,259.585103 74.1558834,249.052036 69.267148,239.336717 C66.3344395,233.50948 62.8583408,227.957489 59.7365112,222.222592 C58.9613812,220.798413 58.0042332,219.080341 58.1605022,217.606439 C59.3245291,206.609892 52.6342601,198.550493 48.188583,188.570583 L48.188583,208.581013 C47.8467444,208.636951 47.5057937,208.693776 47.1639552,208.749713 C45.6243498,191.339031 45.6163587,173.669085 40.020861,157.105453 C38.4892466,166.574825 36.9647354,176.006906 35.442,185.426556 C33.0384753,184.946206 31.4367175,184.626565 29.8314081,184.306036 C30.7423857,182.265659 31.7696771,180.290987 32.5261614,178.217758 C36.5270045,167.236305 35.2475516,156.12078 33.7487892,144.867632 C32.7010762,137.008009 32.2535785,128.976135 32.5456951,121.058798 C32.7658924,115.060197 34.5771928,109.121085 35.8673004,102.144027 C33.2790942,105.793265 31.1801166,108.753498 29.0802511,111.713731 C28.775704,111.668448 28.471157,111.624054 28.1666099,111.578771 C27.0540807,102.493857 25.9415516,93.4089417 24.8991659,84.8931659 C21.1549238,90.2018744 19.6321883,97.7001256 20.1933363,105.800368 C20.5662511,111.185435 20.1169776,116.627327 20.0397309,121.815283 C17.0901525,121.967112 15.2415605,122.062117 12.9969686,122.177543 C12.408296,120.064359 11.7956502,117.864161 11.0933274,115.343435 C15.1527713,115.066413 18.0188879,113.577417 17.2455336,109.551713 C16.3833901,105.061641 12.7155067,105.836771 8.77947982,106.764619 C8.38969507,98.0712646 8.01766816,89.7703587 7.64564126,81.4694529 C5.9870583,85.4001525 5.38506726,89.553713 4.02392825,93.4417937 C-1.35403587,108.801444 0.211318386,123.81748 5.46408969,138.830852 C6.32001794,141.278771 6.47273543,144.171525 6.20015247,146.780152 C5.10005381,157.327426 5.94443946,167.405004 11.5949865,176.74652 C13.1656682,179.342717 15.46087,182.581749 15.0266906,185.114906 C13.4435785,194.344547 15.1323498,202.869202 18.7940179,211.148798 C25.9255695,227.272036 36.7134619,240.942915 48.1175516,254.176951 C48.5242063,254.647534 48.8429596,255.193587 49.2123229,255.718332 C48.4087803,256.756278 47.7215516,257.645058 47.3433094,258.134287 C40.8927713,252.583184 34.6553274,247.214987 28.4178834,241.846789 C27.8425291,243.111148 27.8922511,243.780619 28.1941345,244.303587 C34.7192556,255.616224 40.7915516,267.23252 48.0092287,278.087004 C52.0615695,284.181498 57.8071211,289.230054 63.1779821,294.34165 C67.5268789,298.479229 72.5612287,301.88696 77.0734978,305.864717 C78.8528341,307.432735 80.041722,309.670224 81.4996413,311.602278 C81.2687892,311.758547 81.0388251,311.914816 80.8079731,312.071085 C74.1390135,308.678448 67.4709417,305.285812 60.0730224,301.522036 C60.653704,302.811256 60.7566996,303.204592 60.9795605,303.510027 C70.5750135,316.659713 81.947139,327.916413 95.955417,336.374475 C102.514278,340.335363 107.454511,345.708 110.343713,352.827121 C110.090664,353.176063 109.838502,353.525004 109.585453,353.873946 C104.093839,350.230036 98.6031121,346.586126 93.1168251,342.945767 C96.1250045,349.616502 100.867238,355.29191 106.446753,360.197516 C114.184735,367.001435 123.702942,370.408278 133.345453,373.538099 C138.45261,375.195794 144.24078,375.087471 148.393453,379.457677 C149.297327,380.410386 151.336816,380.255892 152.832915,380.683857 C154.158538,381.062987 155.619121,381.291175 156.736978,382.020135 C162.669874,385.88957 169.10887,388.255803 176.138314,389.070888 C177.435525,389.220942 177.524314,389.604511 178.812646,389.835363 C178.812646,389.835363 178.812646,387.178789 179.205982,384.818771 C179.599318,382.457865 182.550673,380.883632 182.550673,380.883632 C181.187758,380.248789 179.638386,377.940269 178.1707,375.525202 C184.849426,375.527865 191.521937,375.528753 198.423525,375.528753 C199.573345,375.529641 200.730269,375.529641 201.893408,375.529641 L205.408574,375.529641 C204.261417,377.936717 203.850323,380.276314 202.171318,380.936018 C202.171318,380.936018 206.300018,383.877605 207.700224,385.572592 L207.700224,385.572592 Z M201.384646,381.723578 C200.021731,381.51226 199.04061,380.627919 197.461937,380.309166 C194.330341,379.676099 190.940368,379.779094 187.738628,380.162664 C187.077148,380.242574 186.476933,380.304726 185.927327,380.343794 C184.554646,380.44235 181.665444,382.260753 180.583103,384.720215 C179.50165,387.178789 179.86835,389.474879 179.933166,389.996072 C181.585534,392.278843 186.557731,398.419507 189.690215,399.397964 C192.876861,400.395067 204.136224,398.017291 208.205435,397.016637 C208.205435,397.016637 209.026735,396.117202 209.404978,394.098135 C209.784108,392.078179 209.274457,391.737229 209.274457,391.737229 C209.274457,391.737229 209.143049,388.851578 201.384646,381.723578 L201.384646,381.723578 Z M211.110619,395.278143 C210.599193,396.812422 209.143049,398.032386 209.143049,398.032386 C214.031785,399.685641 218.932951,404.144637 223.658314,406.190341 C227.483354,407.847148 231.206287,410.430915 235.180493,410.915704 C245.489812,412.172072 255.689919,413.510126 265.410565,417.4133 C269.171677,418.922717 270.59852,416.049498 271.873534,413.412457 C273.152987,410.76565 273.889937,407.841821 270.2993,406.502879 C266.157283,404.957058 261.897175,403.387265 257.554493,402.780834 C246.165498,401.190619 234.564296,400.864762 223.965525,395.538296 C220.580879,393.837094 216.952063,392.627785 213.451103,391.152996 C212.739013,390.852888 212.103283,391.157435 211.242027,390.646009 C211.242027,390.646009 211.622045,393.743865 211.110619,395.278143 L211.110619,395.278143 Z M291.75522,332.172969 C291.53591,333.209139 290.277767,334.060628 290.157901,335.074601 C290.01939,336.243955 290.626709,337.501211 290.356789,339.019507 C289.513291,338.047265 288.668906,337.074135 287.825408,336.101892 C288.736386,339.051471 290.172996,342.144888 286.902888,344.080493 C285.405901,344.96661 282.949103,344.231435 280.531372,344.231435 C280.58287,344.913336 280.690305,346.317094 280.796852,347.720852 C281.267435,347.886 281.73713,348.052036 282.207713,348.217184 C281.158224,348.833381 280.172664,349.63426 279.044152,350.018717 C277.691892,350.479534 276.218879,350.586081 274.481274,350.903058 C274.309022,350.195408 274.077283,349.248027 273.809139,348.152368 C275.235094,347.688 276.439964,347.295552 278.810637,346.523085 C274.363184,344.970161 274.285937,342.448547 275.643525,339.307184 C273.497489,339.715614 271.864655,340.026377 270.230933,340.337139 C270.115507,339.947354 270.000969,339.556682 269.885543,339.166009 C271.067327,338.619955 272.248224,338.073901 274.481274,337.04217 L269.20009,337.04217 C268.651372,335.549623 268.086673,333.377839 267.067372,331.445785 C266.265605,329.925713 264.903578,328.701309 263.268081,326.709767 L263.268081,333.564296 C262.854323,333.584717 262.440565,333.605139 262.027695,333.626448 C261.927363,332.573408 262.054332,331.429803 261.67609,330.489525 C261.096296,329.048475 260.225274,327.710422 259.36757,326.40078 C258.888108,325.669157 257.575803,324.911785 257.700996,324.464287 C258.041058,323.252314 258.717632,321.56443 259.67922,321.213713 C261.856332,320.420825 264.285605,320.31783 266.737964,319.913839 C266.160834,319.143148 265.536646,318.310305 264.94087,317.515641 C268.39122,313.312359 284.628996,317.505874 289.251363,324.68626 C288.464691,324.735094 287.832511,324.775049 287.198556,324.819444 C287.662924,326.158386 288.130843,327.487561 288.470018,328.450036 C289.499085,328.521955 291.064439,328.249372 291.348565,328.732386 C291.895507,329.658457 291.989623,331.071094 291.75522,332.172969 L291.75522,332.172969 Z M343.347982,267.495336 C341.199283,268.32374 338.999085,269.017184 336.811318,269.744368 C336.660377,269.273785 336.509435,268.803202 336.358493,268.333507 C337.967354,267.349722 339.529157,266.270045 341.215265,265.442529 C341.707157,265.200135 342.683839,265.503794 343.187274,265.887363 C343.49626,266.122655 343.502475,267.436735 343.347982,267.495336 L343.347982,267.495336 Z M366.336404,173.664646 C366.558377,174.45043 366.95704,176.336314 367.625623,178.121865 C368.90774,181.541139 370.528143,184.84765 371.57852,188.330852 C371.823578,189.145937 370.353229,190.478664 369.811614,191.34791 C371.023587,191.887749 372.255094,192.436466 373.485713,192.984296 C373.320565,193.265758 373.156305,193.54722 372.982278,193.843776 C372.460197,194.73522 371.858206,195.762511 370.933022,197.342072 C371.192287,201.162673 370.447345,201.899623 365.869372,200.645031 C366.15261,198.947381 366.441175,197.223094 366.661372,195.908126 C364.110457,196.955839 361.205274,197.501892 359.168448,199.132951 C355.690574,201.918269 354.958951,197.731857 352.588278,196.42843 C354.478601,195.860179 356.368036,195.292816 358.823946,194.554978 C358.073677,193.396278 357.462807,192.452448 356.724969,191.312395 C355.379812,192.479973 354.435982,193.29861 353.368735,194.224682 C351.797166,190.735265 350.302843,187.418099 348.80852,184.100933 C348.371677,184.195937 347.935722,184.29183 347.499767,184.386834 C347.390556,186.404126 347.280457,188.420529 347.173022,190.436045 C347.173022,190.436045 347.172135,190.436045 347.171247,190.436933 L347.171247,190.437821 C341.462099,191.372771 338.736269,190.23183 338.04904,186.750404 C337.995767,186.48226 337.955812,186.200798 337.926511,185.90513 C337.897211,185.609462 337.879453,185.300475 337.873238,184.976395 C337.867022,184.652314 337.87235,184.314915 337.887444,183.963309 C338.01974,181.011067 340.126709,180.109857 342.684726,179.924287 C343.598368,179.858583 344.522664,179.927839 345.441632,179.93583 C345.371489,179.473238 345.339525,178.619973 345.224099,178.60843 C344.180825,178.504547 343.122457,178.548054 342.015256,178.548054 C341.539345,175.190045 345.874036,171.227381 349.213399,172.357668 C350.813381,172.899283 352.392054,173.634457 354.037318,173.858206 C354.831982,173.966529 356.028861,173.312152 356.580242,172.629363 C358.618843,170.09887 358.546924,170.040269 362.494493,171.395193 C360.615713,172.099291 359.281211,172.599175 357.945821,173.099946 C358.041713,173.535901 358.138493,173.972744 358.234386,174.409587 C360.593516,174.192054 362.953534,173.975408 366.336404,173.664646 L366.336404,173.664646 Z M366.158825,112.842242 C364.658287,113.738126 362.981058,114.336565 361.499166,114.990054 C362.024798,113.084637 362.333785,111.965004 362.835444,110.146601 C363.767731,110.293103 365.147516,110.469794 366.484682,110.814296 C366.56548,110.834717 366.555713,112.605175 366.158825,112.842242 L366.158825,112.842242 Z" id="Fill-1" sketch:type="MSShapeGroup"></path>
                <path d="M271.714601,429.823372 C267.851381,428.63626 263.909139,427.671121 260.122278,426.278906 C252.219148,423.371946 244.510466,419.892296 236.510556,417.303202 C226.052072,413.918556 216.029543,410.090852 209.33217,400.415489 L208.504655,399.373991 C207.205668,399.693632 197.699004,401.979955 191.916161,401.979955 C190.738816,401.979955 189.727507,401.883175 188.986117,401.650547 C184.543103,400.262771 179.360475,393.204027 178.706099,392.299265 C178.706099,392.299265 173.861758,395.409552 171.500852,397.639049 C169.139946,399.868547 167.347291,404.210341 167.347291,404.210341 C161.293641,411.621578 154.858197,416.950709 146.286484,419.322269 C139.595327,421.173525 132.848233,422.864072 126.259184,425.030529 C116.636206,428.194978 107.120664,431.689722 97.5918027,435.133857 C96.2866009,435.605327 95.1687444,436.594439 93.9647623,437.343821 C94.4326816,437.372233 94.9014888,437.399758 95.3694081,437.427283 C96.6018027,439.807722 97.5447444,442.415462 99.1749148,444.481587 C100.150709,445.719309 102.200852,446.109982 103.767982,446.880673 C105.587274,445.94661 107.435865,445.064933 109.219641,444.066054 C112.204735,442.394152 112.186978,442.362188 115.942762,445.038296 C112.652233,447.012969 109.670691,448.80296 106.690036,450.592063 C107.007013,451.689498 107.324879,452.786933 107.841632,454.57426 C110.636717,452.016242 111.187211,454.744735 112.436475,456.105874 C114.08174,457.899417 115.607139,459.841238 117.453067,461.402152 C121.429049,464.765489 123.079641,464.580807 126.577937,460.35 C132.233812,453.510565 139.49322,448.783426 146.816556,443.971937 C152.111058,440.494063 157.319435,436.502987 161.482762,431.783839 C166.565058,426.023193 170.253363,419.057677 175.038215,413.002251 C178.487677,408.63826 182.666099,408.082439 186.671381,404.182816 C188.844054,402.067857 190.866673,402.63522 192.478197,405.180807 C194.647318,408.608072 197.235525,408.55835 199.078789,412.147211 C205.035659,423.747525 213.641112,432.96296 224.342879,440.14157 C231.974314,445.261157 240.042592,449.727256 247.926188,454.467713 C250.244475,455.861704 252.599166,457.195318 254.999139,458.592861 C260.625713,452.423785 266.066717,446.458036 271.915265,440.045677 C268.82096,438.478547 266.472484,437.288771 264.124009,436.099883 C266.000126,436.22774 267.68357,436.820852 269.305749,437.551587 C272.796054,439.126709 274.269067,438.233489 274.452861,434.39957 C274.556744,432.241103 273.978726,430.51948 271.714601,429.823372 L271.714601,429.823372 Z M99.6890045,439.904502 C101.185103,438.88609 102.681202,437.867677 105.15043,436.186897 C103.252117,436.6193 102.484978,436.794215 101.428386,437.035722 C103.470538,434.769821 103.470538,434.769821 110.662466,436.460368 C108.83696,437.304753 107.125991,438.154466 105.368852,438.894081 C103.647229,439.618601 101.878547,440.232135 100.131175,440.894502 C99.9837848,440.564206 99.8363946,440.234798 99.6890045,439.904502 L99.6890045,439.904502 Z M101.878547,444.39635 C101.634377,443.953291 101.389318,443.509345 101.145148,443.066287 C105.042108,441.138673 108.938179,439.21017 112.835139,437.282556 C112.979865,437.576448 113.124592,437.869453 113.269318,438.163345 C109.472691,440.241013 105.675175,442.318682 101.878547,444.39635 L101.878547,444.39635 Z M115.958744,450.38696 C115.614242,450.065543 115.26974,449.744126 114.925238,449.422709 C116.885704,447.344152 118.84617,445.266484 120.806637,443.187928 C121.990197,446.301767 121.990197,446.301767 115.958744,450.38696 L115.958744,450.38696 Z M118.50078,460.449444 C118.012439,459.993067 117.524987,459.536691 117.037534,459.080314 C120.090996,455.308547 123.145345,451.535892 126.199695,447.764126 C126.524664,447.925722 126.85052,448.08643 127.175489,448.248027 C127.114224,448.803848 127.052072,449.35878 126.940197,450.369202 C127.900009,449.877309 128.59878,449.518601 129.298439,449.159892 C129.489336,449.36322 129.679345,449.565659 129.870242,449.768987 C126.080717,453.329435 122.290305,456.888996 118.50078,460.449444 L118.50078,460.449444 Z M130.193435,447.490655 C123.743785,442.689821 117.241749,437.95913 110.539049,433.035767 C112.709946,430.032027 115.513022,429.409614 118.118987,431.185399 C125.184834,435.998664 132.012726,441.159982 139.005767,446.233399 C135.131892,450.265318 133.99983,450.323031 130.193435,447.490655 L130.193435,447.490655 Z M233.027354,444.252511 C235.874825,440.858987 238.268583,437.81174 240.872771,434.95539 C243.610143,431.954314 246.639632,429.219605 249.371677,426.21409 C251.993623,423.329327 254.445982,423.75374 257.582018,426.372135 C251.905722,432.742762 246.473596,439.082314 240.750242,445.147507 C238.414197,447.622951 236.034646,445.4707 233.027354,444.252511 L233.027354,444.252511 Z M267.400332,443.521776 C267.098448,443.943525 266.796565,444.365274 266.493794,444.787022 C264.155973,438.945578 258.742493,440.560655 254.099704,439.847677 C257.239291,441.944879 260.378879,444.042081 263.518466,446.139283 C263.35243,446.448269 263.186395,446.757256 263.020359,447.066242 C259.503417,445.145731 255.985587,443.22522 251.692628,440.881184 C253.86974,445.439623 260.084987,444.696457 260.203964,450.728798 C257.229525,449.064888 254.734547,447.669121 251.739686,445.994556 C251.918152,447.091991 252.012269,447.669121 252.103722,448.22583 C252.120592,448.230269 252.141013,448.235596 252.157883,448.239148 L252.115265,448.297749 C253.156762,449.944789 254.19826,451.590942 255.580709,453.776045 C253.598933,452.696368 252.077085,451.867964 250.555238,451.039561 C250.389202,451.210036 250.224054,451.381399 250.058018,451.551874 C251.344574,452.730996 252.63113,453.910117 254.059749,455.219758 C250.466448,454.590242 249.642484,453.821327 248.389668,450.464206 C248.220969,450.011381 247.459157,449.671318 246.902448,449.491964 C245.125776,448.918386 243.316251,448.444251 240.967776,447.775668 C242.184188,446.391444 242.83235,445.654493 243.280735,445.143955 C245.522664,446.673794 247.458269,448.181435 249.590987,449.316161 C249.655803,449.350789 249.730386,449.365883 249.813848,449.365883 C250.38565,449.362332 251.350789,448.620942 252.109937,448.267561 C252.109049,448.25957 252.107274,448.251578 252.106386,448.243587 C251.382753,448.04026 250.066897,447.720619 250.072224,447.697534 C250.822493,444.350179 247.691785,444.114 245.746413,442.425229 C247.857821,441.052547 249.80852,439.784637 252.139238,438.269004 C252.432242,437.785103 252.882404,437.040161 253.391166,436.198439 C253.696601,435.694117 254.023345,435.15339 254.35009,434.613552 C254.890816,435.243955 256.056619,435.15339 257.032413,435.245731 C258.287004,435.363821 259.227283,435.782906 258.119193,438.425274 C259.993534,437.969785 261.378646,437.632386 262.764646,437.294987 C262.835677,437.531166 262.905821,437.768233 262.976852,438.0053 C262.438789,438.257462 261.900726,438.509623 261.596179,438.651686 C263.581507,440.31826 265.491363,441.920018 267.400332,443.521776 L267.400332,443.521776 Z" id="Fill-2" sketch:type="MSShapeGroup"></path>
                <path d="M340.587525,82.4461345 C337.511865,59.5518296 330.0953,38.3969058 314.163848,20.9968789 C306.400117,12.5175067 297.889668,5.1826278 286.44296,1.83882511 C268.131067,-3.51072646 249.560798,4.39950673 242.037686,21.1247354 C235.726547,35.1560987 240.426161,52.3323767 252.946332,59.4790224 C256.551175,61.537157 260.891193,62.3069596 265.047417,63.7204843 C262.684735,69.3603767 258.353596,72.8826457 252.270646,73.0806457 C245.883148,73.2875247 240.759121,70.0804574 238.266807,64.0996143 C236.236197,59.226861 235.097919,53.9820807 233.524574,48.7683767 L146.031659,48.7683767 C144.429901,65.1189148 140.69809,71.1938744 131.377883,72.9527892 C124.767525,74.2011659 119.093004,71.147704 115.712798,64.3855157 C117.257731,64.0436771 118.891453,63.9815247 120.240161,63.3289238 C124.893605,61.0763408 130.426063,59.5784664 133.869309,56.0712915 C148.642951,41.0224036 141.698744,11.0702422 121.90052,3.63325561 C106.223892,-2.25613453 86.4647354,1.72517489 72.9536771,15.4910583 C56.6892646,32.0626816 45.7593094,51.3459283 42.016843,74.6317937 C39.1240897,92.6346996 38.6259821,110.684664 40.853704,128.610323 C42.8274888,144.500045 46.1046996,160.29565 49.8436143,175.883489 C55.8706278,201.006404 64.3056054,225.373722 76.0985919,248.444717 C87.3464126,270.450242 100.727839,291.040466 117.321659,309.459794 C133.094179,326.969031 149.969462,343.120682 171.293085,353.857076 C172.41183,354.420888 173.850215,354.557623 175.135883,354.543417 C182.977749,354.457291 190.977659,353.223121 198.617973,354.388036 C207.569704,355.751839 214.647094,353.289713 221.373767,348.093767 C221.788413,347.773238 222.218152,347.471354 222.650556,347.175686 C245.079605,331.824027 263.012368,311.998278 279.401085,290.56278 C296.426422,268.293552 309.003417,243.618135 318.50209,217.432413 C324.514897,200.853686 329.700188,183.910036 334.136987,166.839417 C341.328027,139.173578 344.424108,111.002529 340.587525,82.4461345 L340.587525,82.4461345 Z M194.274404,352.003157 C189.167247,353.998251 185.523336,351.101946 181.725821,349.50374 C165.096484,342.507148 151.382099,331.190072 138.408215,318.912296 C138.23774,318.7507 138.180027,318.470126 137.908332,317.916969 C142.913381,316.836404 147.901561,316.719202 152.341022,318.930942 C165.19504,325.336197 178.092565,324.503354 191.127713,319.957345 C196.293471,318.154924 201.357121,318.158475 206.469605,320.028377 C215.297919,323.256753 224.128009,324.500691 233.188063,320.654341 C235.338538,319.741587 237.906323,319.810843 240.282323,319.427274 C240.38443,319.777103 240.487426,320.126933 240.589534,320.476762 C227.140628,333.889265 212.179641,345.004789 194.274404,352.003157 L194.274404,352.003157 Z M252.009605,308.972341 C251.528368,309.489982 250.111291,309.474888 249.250036,309.247587 C242.771973,307.533955 236.348072,307.616529 229.863794,309.280439 C221.236143,311.493955 212.659103,311.881076 203.944439,309.173892 C197.315435,307.11487 190.507964,307.094448 184.011256,310.161229 C174.88461,314.468395 165.898251,313.849534 156.720108,310.037812 C147.860717,306.357498 138.76426,305.748404 129.658924,309.993417 C126.026556,305.861166 122.499848,301.847892 118.927857,297.783121 C128.753274,290.195193 139.311202,290.513946 150.283776,293.835552 C155.279058,295.346744 160.359578,296.573812 165.360188,298.068135 C170.563238,299.622834 175.606466,298.890323 180.187991,296.447731 C189.165471,291.660215 197.960933,291.091964 207.670924,294.643534 C217.764484,298.334502 228.156377,298.013973 238.269471,293.508807 C246.887354,289.670448 255.324108,291.305946 264.235883,295.266834 C259.983767,300.077435 256.076152,304.598583 252.009605,308.972341 L252.009605,308.972341 Z M331.953659,119.63817 C331.953659,119.63817 271.144574,119.970242 246.98591,120.098099 C242.196619,120.12296 222.463211,120.230395 197.166269,120.368018 L203.894717,141.172224 L243.119139,123.694063 L225.619668,161.533372 L265.474493,175.759184 L226.262502,190.139489 L245.067175,228.913749 L205.253193,209.636717 L197.715874,230.532377 C242.805713,230.391202 286.599229,230.255354 303.660969,230.255354 C294.537874,250.502852 284.692924,269.695534 271.349677,286.385247 C265.145085,284.62278 259.364906,282.205049 253.382287,281.499175 C247.424529,280.796852 240.918054,280.646798 235.263955,282.321363 C224.088054,285.630538 213.337453,285.230987 202.497175,281.832135 C195.977381,279.787318 189.293327,279.433937 183.325803,282.400386 C173.901713,287.086682 164.940215,286.65339 155.323453,283.227013 C140.103202,277.802879 125.718457,280.590861 111.917058,289.578108 C98.3260897,271.632027 86.6680628,252.798054 78.1416323,230.850242 C90.7861076,230.850242 117.740744,230.778323 148.985677,230.683318 C125.41391,230.755238 101.841256,230.812063 78.2686009,230.784538 L158.996664,230.65313 C167.066717,230.628269 175.338323,230.60252 183.65965,230.575883 L176.922323,209.636717 L136.664395,229.272457 L157.524538,189.282673 L116.328108,176.30435 L156.028439,160.845256 L137.449291,122.777758 L176.922323,142.648789 L183.728906,120.440825 C125.319794,120.758691 48.2773722,121.178664 48.2773722,121.178664 C48.1903587,115.822009 48.2676054,94.6466637 49.0773632,89.3690314 C50.5628072,79.6945561 51.5634619,69.7430583 54.6994978,60.5675785 C61.0905471,41.8659013 71.4842152,25.3892825 88.9916771,15.1652018 C95.064861,11.6180717 102.799291,9.89644843 109.90687,9.45427803 C115.861964,9.08402691 120.91052,13.5172735 125.28339,17.9700538 C134.403821,27.2591839 133.775193,42.7156143 127.5413,48.6920179 C125.761964,50.3976592 123.865426,52.0402601 121.810843,53.3889686 C117.211561,56.4078027 117.240861,55.7942691 113.798502,56.7816054 C110.355256,57.7689417 107.102018,56.0712915 105.274735,54.4935067 C103.601058,68.1270942 112.107067,79.3100987 125.654529,81.7109596 C137.268161,83.7682063 149.505982,75.503704 151.886422,64.3411211 C152.356117,62.1382601 152.916377,58.7092197 152.916377,58.7092197 L226.807668,58.7092197 C226.807668,58.7092197 230.892861,71.272009 236.635749,75.5738475 C244.79104,81.6825471 253.646879,82.7178296 262.746888,78.0812556 C272.852879,72.9314798 274.665955,63.3564484 275.494359,52.9183857 C272.732126,53.4999552 270.378323,54.2990583 267.982789,54.4482242 C256.980027,55.134565 247.271812,44.0927354 248.040726,32.9372556 C249.321067,14.3572197 268.959471,3.76643946 287.245614,11.6669058 C293.084395,14.190296 298.162251,17.5829327 302.513812,22.3402601 C317.610646,37.2826009 323.316242,53.4147175 327.874682,68.4183229 C332.432233,83.4219283 332.0167,106.135991 331.953659,119.63817 L331.953659,119.63817 Z" id="Fill-3" sketch:type="MSShapeGroup"></path>
                <path d="M242.513596,226.357507 C233.185399,221.85678 224.766404,217.795561 216.348296,213.732565 C214.81757,212.993839 213.358762,211.984305 211.74635,211.555453 C205.642978,209.931498 202.984628,205.646529 202.110942,199.785552 C201.900511,198.375578 201.316278,197.024206 201.081874,195.616009 C200.930933,194.703256 201.104072,193.736341 201.131596,192.794287 C202.092296,192.978081 203.22791,192.895507 203.983507,193.390951 C207.428529,195.647973 210.767004,198.06748 214.674619,199.882332 C211.539471,195.734987 208.403435,191.587641 204.918457,186.97948 C211.774762,184.797928 217.008888,189.636054 223.432789,189.078457 C218.170251,185.841202 213.438673,182.931578 208.707094,180.021955 C208.863363,179.495435 209.019632,178.968915 209.175013,178.442395 C214.043327,177.68591 218.911641,176.928538 223.780843,176.171166 C223.761309,175.881713 223.740888,175.59226 223.721354,175.302807 C220.139596,174.85087 216.531202,174.541883 212.992063,173.868861 C211.773874,173.637121 210.728825,172.496179 209.604753,171.770771 C210.426942,170.874888 211.098188,169.727731 212.098843,169.127516 C215.482601,167.09957 218.982673,165.265184 222.044126,162.553561 C217.654386,163.677632 213.277076,164.855865 208.863363,165.874278 C208.119309,166.045641 206.658726,165.725112 206.506897,165.290933 C206.220108,164.468744 206.336422,163.193731 206.823874,162.466547 C209.046269,159.146717 211.456009,155.950305 213.153659,152.04713 C210.239596,154.347659 207.370816,156.709453 204.383058,158.90965 C203.558206,159.516969 202.379973,159.643937 201.363336,159.991103 C201.242583,158.938063 200.814619,157.808664 201.055238,156.846188 C202.060332,152.818709 203.227022,148.830296 204.438108,144.858753 C204.63522,144.212368 205.240762,143.510045 205.845417,143.194843 C217.1767,137.288583 228.536395,131.437372 240.657901,126.148197 C237.972027,131.8387 235.317229,137.545184 232.589623,143.21704 C229.983659,148.637623 227.363489,154.053767 224.626117,159.408646 C223.285399,162.03148 223.828789,163.336682 226.719767,164.229901 C237.440179,167.54174 248.102879,171.039148 258.783336,174.479731 C259.604637,174.744323 260.392197,175.113686 261.948673,175.734323 C252.288404,179.063919 243.318915,182.16 234.344987,185.247202 C231.998287,186.054296 229.665794,186.916439 227.282691,187.601004 C224.219462,188.480906 223.768413,190.110188 225.219229,192.845785 C230.304188,202.431471 235.279937,212.07487 240.284099,221.703175 C240.91983,222.925803 241.477426,224.187498 242.513596,226.357507" id="Fill-4" sketch:type="MSShapeGroup"></path>
                <path d="M167.287803,200.90696 C170.311076,198.339175 173.304161,195.734987 176.378045,193.228466 C177.126538,192.617596 178.13696,192.327256 179.026628,191.889525 C179.506978,192.875085 180.291874,193.824242 180.417067,194.852422 C181.214395,201.423713 178.05261,207.527973 172.262664,210.488206 C162.487857,215.485265 152.661552,220.380215 142.847677,225.300915 C142.087641,225.681821 141.260126,225.927767 139.272135,226.698457 C146.162179,213.49017 152.525704,201.291417 159.139614,188.613202 C146.03965,184.684278 133.486628,180.917839 120.934493,177.152287 C120.940709,176.803345 120.947812,176.453516 120.954027,176.104574 C126.612565,173.985175 132.263112,171.843578 137.932305,169.752592 C142.222601,168.170368 146.658511,166.921103 150.807632,165.034332 C155.283498,162.998395 159.218637,163.064987 163.16887,166.114009 C165.879605,168.205883 168.794556,170.033166 171.618942,171.979426 C171.523937,172.453561 171.428933,172.928583 171.333928,173.402717 C166.30313,174.216027 161.271444,175.029336 156.239758,175.843534 C156.247749,176.07261 156.25574,176.301686 156.263731,176.53165 C160.066574,176.93209 163.888951,177.21 167.662493,177.800448 C168.941058,178.001112 170.095318,178.993776 171.306404,179.624179 C170.559686,180.739372 170.023399,182.115605 169.025408,182.920924 C166.437202,185.010135 163.646556,186.84896 160.130502,189.364359 C164.10826,188.447166 167.265605,187.660493 170.451363,187.014996 C171.609175,186.780592 172.836242,186.883587 174.031345,186.832978 C173.700161,188.114206 173.646,189.565022 172.986296,190.646475 C170.980547,193.937004 168.741283,197.084583 166.593471,200.288987 C166.824323,200.494978 167.056063,200.700969 167.287803,200.90696" id="Fill-5" sketch:type="MSShapeGroup"></path>
                <path d="M167.051623,153.973857 C169.179013,156.762726 171.38809,159.495659 173.381408,162.377758 C173.946108,163.194619 173.881291,164.447435 174.10504,165.499587 C173.159435,165.570619 172.190744,165.807686 171.272664,165.678942 C169.07513,165.371731 166.862502,165.03522 164.727121,164.449211 C161.384206,163.53113 158.522529,162.385749 156.768942,158.629964 C152.176762,148.795668 146.967498,139.250825 142.017498,129.583453 C141.448359,128.470924 140.962682,127.315776 140.020628,125.275399 C145.790152,128.086466 150.689543,130.442045 155.56052,132.854448 C161.42061,135.756969 167.348179,138.546726 173.051112,141.73426 C174.793157,142.708278 176.440197,144.618135 177.170045,146.475605 C178.580906,150.068906 179.384448,153.911704 180.259022,157.693238 C180.452583,158.533184 180.183552,159.944045 179.601094,160.36757 C179.047049,160.768897 177.596233,160.522951 176.900126,160.040825 C173.789839,157.887686 170.807408,155.54809 167.778807,153.275085 C167.536413,153.507713 167.294018,153.741229 167.051623,153.973857" id="Fill-6" sketch:type="MSShapeGroup"></path>
                <path d="M190.254027,143.387516 C189.246269,148.119982 188.238511,152.852448 187.230753,157.585803 C186.793022,157.610664 186.356179,157.635525 185.918448,157.660386 C183.292063,152.879973 180.647919,148.109327 178.080135,143.298726 C177.90522,142.971094 178.295892,142.331812 178.441507,141.843471 C181.912278,130.244933 185.375946,118.644619 188.877794,107.055848 C189.161031,106.117345 189.707085,105.257865 191.15435,104.250996 C192.538574,108.756161 193.92635,113.261327 195.30791,117.768269 C197.175148,123.862762 198.458152,130.22096 201.063229,135.980717 C203.716251,141.846135 202.499839,146.610565 199.425955,151.546359 C198.609982,152.856 198.213982,154.461309 197.262161,155.637767 C196.616664,156.437758 195.266179,157.221767 194.366744,157.088583 C193.633345,156.981148 192.717928,155.572063 192.548341,154.62113 C191.885085,150.896422 191.484646,147.124655 190.986538,143.370646 C190.742368,143.375973 190.498197,143.3813 190.254027,143.387516" id="Fill-7" sketch:type="MSShapeGroup"></path>
                <path d="M189.939713,246.202789 C188.439175,241.815713 186.821435,237.46504 185.465623,233.034457 C183.258323,225.817668 181.356457,218.504987 179.044386,211.323713 C178.21687,208.753265 178.541839,207.018323 180.235049,204.905139 C181.972655,202.736018 182.926251,199.952475 184.35487,197.515211 C184.86896,196.637973 185.765731,195.984484 186.487587,195.229776 C187.157946,196.093695 188.17991,196.867049 188.43296,197.839291 C189.216969,200.855462 189.708861,203.947103 191.138368,207.010332 C191.483758,204.226789 191.67643,201.411283 192.250009,198.674798 C192.482637,197.564045 193.54278,196.625543 194.22557,195.608018 C195.022009,196.334314 195.998691,196.939857 196.581148,197.809103 C198.38357,200.498529 199.706529,203.584843 201.840135,205.954628 C203.942664,208.290673 203.395722,210.245812 202.552224,212.695507 C199.028179,222.940009 195.639982,233.232457 192.179865,243.499157 C191.873543,244.407471 191.402072,245.260735 191.00696,246.138861 C190.650915,246.16017 190.29487,246.18148 189.939713,246.202789" id="Fill-8" sketch:type="MSShapeGroup"></path>
                <path d="M183.612592,165.765067 L187.977471,165.765067 C187.711991,164.39061 187.447399,163.016152 187.092242,161.178215 C189.94948,156.959839 189.94948,156.959839 193.520583,161.105408 C193.144117,163.210601 192.849336,164.862081 192.553668,166.513561 C193.970744,166.061623 195.386933,165.609686 197.186691,165.03522 C201.603955,167.608332 201.603955,167.608332 196.521659,171.826709 C195.367399,171.143031 194.135892,170.414072 192.646009,169.530619 C192.352117,170.439821 191.926816,171.095973 192.094628,171.332152 C195.642646,176.329211 192.244682,181.273883 191.993408,186.22122 C191.877094,188.527076 191.336368,190.810735 190.124395,193.184072 C188.827184,187.258278 187.45983,181.344915 186.320664,175.388933 C186.182152,174.664413 187.42165,173.757874 187.744843,172.838906 C188.014762,172.069103 188.131964,171.0427 187.821202,170.352807 C187.651614,169.976341 186.106682,169.689552 185.776386,169.998538 C183.447444,172.17565 181.410619,171.108404 180.494314,168.981013 C180.087659,168.035408 181.868771,166.148637 182.65722,164.688942 C182.975085,165.04765 183.293839,165.406359 183.612592,165.765067" id="Fill-9" sketch:type="MSShapeGroup"></path>
            </g>
        </g>
    </g>
</svg>