<?xml version="1.0" encoding="UTF-8" standalone="no"?>
<svg width="430px" height="480px" viewBox="0 0 430 480" version="1.1" xmlns="http://www.w3.org/2000/svg" xmlns:xlink="http://www.w3.org/1999/xlink" xmlns:sketch="http://www.bohemiancoding.com/sketch/ns">
    <!-- Generator: Sketch 3.2.2 (9983) - http://www.bohemiancoding.com/sketch -->
    <title>tierra-del-fuego</title>
    <desc>Created with Sketch.</desc>
    <defs></defs>
    <g id="Page-1" stroke="none" stroke-width="1" fill="none" fill-rule="evenodd" sketch:type="MSPage">
        <g id="tierra-del-fuego" sketch:type="MSArtboardGroup">
            <g id="Imported-Layers" sketch:type="MSLayerGroup" transform="translate(4.000000, 68.000000)">
                <path d="M106,294 C91.8588812,291.10356 78.8632581,285.543094 63.8092444,272.402901 C60.2802174,266.400098 57.0088019,259.934963 54,253 L90.1981627,270.201207 C94.3724689,278.480678 99.8348324,286.64769 106,294 L106,294 Z M85,258 L50.1768449,240.929358 C47.9364215,234.937154 45.8766369,228.62983 44,222 L76.9389916,235.537851 C79.0288826,243.253368 81.6782524,250.722697 85,258 L85,258 Z M74,225 L41.0961253,211.80994 C39.5750641,205.572384 38.1888754,199.305646 37,193 L71.2800729,209.113079 C71.9319563,214.618664 72.9035372,219.97591 74,225 L74,225 Z M71,202 L36.2077984,186.260176 C35.3951885,181.313655 34.6575889,176.22693 34,171 L70.474929,188.737126 C70.474929,193.240895 70.6824571,197.798778 71,202 L71,202 Z M78.5815975,133 L24.2057569,104.443384 L21,85 L83,119.616342 C81.2356897,123.846951 79.8069542,128.440896 78.5815975,133 L78.5815975,133 Z M71.1803405,157 L27.5899902,134.194936 L25,118 L73,145.71466 C72.4074379,149.44735 71.6642662,153.25235 71.1803405,157 L71.1803405,157 Z M93.1745269,96 L38,49.2323491 C51.1719068,42.3447542 57.0142649,40.1588557 69.0231441,47.8875682 C82.9943231,58.2479212 93.9836972,70.1243006 106,81.4793886 C101.380058,85.9191801 97.0422125,90.7644205 93.1745269,96 L93.1745269,96 Z M113.826619,74 C100.961512,60.4297236 93.8457206,44.8551087 66,36.5000278 L82.521693,30 C106.035182,35.7438122 116.273621,50.2709828 128,63.814339 C123.037672,66.787808 118.308151,70.4122587 113.826619,74 L113.826619,74 Z M156.593427,52 C160.014801,50.8324912 163.486157,49.7827354 167,48.8482273 C154.539104,34.625164 148.513588,25.2149428 131.639146,12.2671198 C120.175421,3.83650359 103.740834,1.14572149 87.4212086,7.52943918 C58.3007991,19.9386047 28.8479992,33.6430536 0,39.6760175 L1.01216665,47.1195125 C24.5494149,42.2340143 49.6811379,35.2590261 77.9693215,20.7252952 C97.4903924,10.8565887 112.118075,11.8161507 126.913202,21.0660274 C139.134177,29.7096011 147.303987,41.2569147 156.593427,52 L156.593427,52 Z M82,294 C103.009102,319.863795 128.513897,329.627668 159,333 C144.609278,326.116608 132.015832,317.666861 121.189623,307.961001 L120.749065,307.70877 L82,294 L82,294 Z M149,55.9648793 C144.604448,57.7614036 140.453373,59.8006339 136.289696,62 C126.500519,48.6011313 116.572721,35.26982 98,26.2296496 C108.351223,22.8968218 118.291623,27.1078948 123.687769,29.7676515 C136.025056,36.0454781 143.334173,48.6436674 149,55.9648793 L149,55.9648793 Z M90,100.856145 L29.9894045,52 L10,60.0496551 L85.0113746,110 C86.5520895,106.74704 88.2099785,103.706499 90,100.856145 L90,100.856145 Z M32.4429987,162.49126 L30,147 L71,167.75528 C70.5512859,172.481428 70.4391074,177.299345 70.0975862,182 L32.4429987,162.49126 L32.4429987,162.49126 Z" id="Fill-1" fill="#4DB9DF" sketch:type="MSShapeGroup"></path>
                <path d="M315,294 C329.141119,291.10356 342.136742,285.543094 357.190756,272.402901 C360.719783,266.400098 363.991198,259.934963 367,253 L330.801837,270.201207 C326.627531,278.480678 321.165168,286.64769 315,294 L315,294 Z M336,258 L370.823533,240.929358 C373.063819,234.937154 375.123478,228.62983 377,222 L344.063024,235.537851 C341.973261,243.253368 339.321544,250.722697 336,258 L336,258 Z M347,225 L379.906096,211.80994 C381.42726,205.572384 382.813542,199.305646 384,193 L349.720111,209.113079 C349.068183,214.618664 348.094039,219.97591 347,225 L347,225 Z M352,202 L386.792052,186.260176 C387.607218,181.313655 388.344867,176.22693 389,171 L352.525106,188.737126 C352.522606,193.240895 352.317564,197.798778 352,202 L352,202 Z M345.418584,133 L399.794112,104.443384 L403,85 L341,119.616342 C342.764383,123.846951 344.193177,128.440896 345.418584,133 L345.418584,133 Z M348.819659,157 L392.41001,134.194936 L395,118 L347,145.71466 C347.592562,149.44735 348.333265,153.25235 348.819659,157 L348.819659,157 Z M327.825006,96 L383,49.2323491 C369.828572,42.3447542 363.986427,40.1588557 351.977985,47.8875682 C338.00484,58.2479212 327.01834,70.1243006 315,81.4793886 C319.619774,85.9191801 323.959936,90.7644205 327.825006,96 L327.825006,96 Z M309.17085,74 C322.038488,60.4297236 329.154279,44.8551087 357,36.5000278 L340.475776,30 C316.962287,35.7438122 306.726379,50.2709828 295,63.814339 C299.962328,66.787808 304.691849,70.4122587 309.17085,74 L309.17085,74 Z M265.406573,52 C261.985199,50.8324912 258.511344,49.7827354 255,48.8482273 C267.460896,34.625164 273.486412,25.2149428 290.360854,12.2671198 C301.82208,3.83650359 318.256667,1.14572149 334.578791,7.52943918 C363.699201,19.9386047 393.152001,33.6430536 422,39.6760175 L420.987833,47.1195125 C397.448086,42.2340143 372.316363,35.2590261 344.030679,20.7252952 C324.507108,10.8565887 309.881925,11.8161507 295.086798,21.0660274 C282.865823,29.7096011 274.696013,41.2569147 265.406573,52 L265.406573,52 Z M341,294 C319.990898,319.863795 294.486103,329.627668 264,333 C278.390722,326.116608 290.981665,317.666861 301.810377,307.961001 L302.250935,307.70877 L341,294 L341,294 Z M275,55.9648793 C279.393032,57.7614036 283.546627,59.8006339 287.710304,62 C297.499481,48.6011313 307.427279,35.26982 326,26.2296496 C315.648777,22.8968218 305.708377,27.1078948 300.312231,29.7676515 C287.974944,36.0454781 280.663306,48.6436674 275,55.9648793 L275,55.9648793 Z M332,100.858615 L392.012466,52 L412,60.0496551 L336.986288,110 C335.448018,106.74704 333.790077,103.706499 332,100.858615 L332,100.858615 Z M390.554508,162.49126 L393,147 L352,167.75528 C352.446221,172.481428 352.560893,177.299345 352.902414,182 L390.554508,162.49126 L390.554508,162.49126 Z" id="Fill-2" fill="#4DB9DF" sketch:type="MSShapeGroup"></path>
                <path d="M184.69913,46 C184.69913,46 194.493576,31.0014589 204.882304,21.1586663 C214.990054,11.5833542 217.707833,11.9612625 229.106092,12.2532825 C240.501865,12.5477565 242.165354,11.4336633 250.952756,8.50364725 C259.282636,5.72577609 264.250725,10.8471693 264.250725,10.8471693 L269,7.3331132 C269,7.3331132 264.996685,1.12216629 258.787816,1.0043767 C252.156237,0.879225258 253.267717,3.46568833 241.929134,5.22271638 C230.590551,6.97974443 228.332781,1.41418631 212.719851,7.3331132 C195.097804,14.0127645 179,39.6737174 179,39.6737174 L184.69913,46" id="Fill-3" fill="#4DB9DF" sketch:type="MSShapeGroup"></path>
                <path d="M225,47 L234.536093,47 C240.784481,33.134509 244.888496,17.2611247 261,14.9173003 C250.827335,8.75001607 234.15415,16.9482729 225,47" id="Fill-4" fill="#4DB9DF" sketch:type="MSShapeGroup"></path>
                <path d="M214.668262,156.941856 C217.521303,157.428447 226.844723,161.702958 240.52986,168.013664 C240.410361,167.417278 240.278414,166.828379 240.12904,166.261938 L290,143.244955 C287.619976,136.792015 284.866518,130.660973 281.76203,124.919204 L238.592979,161.608135 C237.592174,159.364828 236.344902,157.156455 234.953235,155.217579 L274.141473,112.554813 C269.954025,106.593454 265.358289,101.206023 260.401565,96.5073043 L230.740891,150.805824 C228.696959,149.044117 226.306977,147.546915 224.006619,146.289265 L248.503936,87.010054 C244.468351,84.3325581 240.268456,82.0742787 235.931634,80.2576738 L219.181843,144.495118 C217.145379,143.893742 214.949583,143.521937 212.756276,143.462049 L219.381008,75.6413015 C216.39353,75.2195896 213.36124,75 210.294097,75 C207.097496,75 203.940727,75.244543 200.828772,75.7036849 L207.174672,143.404656 C205.382185,143.606779 203.599657,143.946144 201.827087,144.327931 L184.616726,80.2751411 C180.085719,82.1740921 175.701595,84.5421663 171.504189,87.3793638 L196.915176,146.17448 C194.14429,147.454587 191.565101,149.076556 189.314535,151.062844 L159.566726,97.1186617 C154.918709,101.607772 150.584377,106.685781 146.625969,112.295298 L186.341995,154.069724 C184.427519,156.298059 182.829219,158.795891 181.62178,161.500836 L138.380531,125.717712 C135.477698,131.175013 132.903488,136.989146 130.647943,143.077767 L179.96124,166.264433 C179.353787,168.639993 179.030143,171.127844 179.030143,173.688059 L125.845572,158.424086 C124.722779,162.803401 123.781723,167.302493 123,171.893912 L179.152132,178 C200.019663,167.729195 210.640146,158.022337 214.668262,156.941856" id="Fill-5" fill="#4DB9DF" sketch:type="MSShapeGroup"></path>
                <path d="M253.490285,172.246883 C254.850218,172.860349 256.263234,173.433915 257.688888,174 L299,170.137157 C298.216396,165.663342 297.276071,161.274314 296.158803,157 L248,169.765586 C249.782068,170.573566 251.599524,171.394015 253.490285,172.246883" id="Fill-6" fill="#4DB9DF" sketch:type="MSShapeGroup"></path>
                <path d="M170,181 L121.957332,181.023279 C121.431543,185.599933 121.114086,190.267376 121,195 C140.930354,191.30562 157.053702,186.230795 170,181" id="Fill-7" fill="#4DB9DF" sketch:type="MSShapeGroup"></path>
                <path d="M212,334.242801 C216.566176,334.102312 221.132353,333.409904 225.701092,332 C225.191176,341.079079 225.852273,349.701571 235,355 L212.240865,355 L212,334.242801 L212,334.242801 Z M208.941222,355 L186,355 C191.420333,349.853962 196.840667,344.707925 195.274111,332 C199.848556,333.057092 204.425556,333.774496 209,333.987435 L208.941222,355 L208.941222,355 Z" id="Fill-8" fill="#4DB9DF" sketch:type="MSShapeGroup"></path>
                <path d="M223.858735,253.993747 C226.495711,253.905118 228.968652,251.960198 230.432534,251.492432 C230.646276,250.387028 231.096128,248.959112 231.988375,246.960029 L232.067907,242.777219 L247,235 L231.797002,240.184813 C227.020123,239.544713 224.079933,239.712123 220.192816,242.378388 C217.158182,244.458714 216.176461,248.786777 216,253.220703 C217.739758,252.083294 219.824982,254.126691 223.858735,253.993747 L223.858735,253.993747 Z M227,241 C227.551483,241 228,241.672039 228,242.498791 C228,243.327961 227.551483,244 227,244 C226.446771,244 226,243.327961 226,242.498791 C226,241.672039 226.446771,241 227,241 L227,241 Z" id="Fill-9" fill="#4DB9DF" sketch:type="MSShapeGroup"></path>
                <path d="M240.058615,263 C242.594228,266.192405 243.771195,276.20804 242.45731,290.431502 C238.505124,294.906413 234.013165,288.796245 234,284.704323 C234.371258,274.555146 237.141211,270.105432 240.058615,263" id="Fill-10" fill="#4DB9DF" sketch:type="MSShapeGroup"></path>
                <path d="M216.235155,254 C216.368156,263.59395 218.710009,270.859414 223.208557,279.802469 C225.542587,287.571456 222.314063,290.310129 218.725656,292 C219.210717,287.365135 218.204085,283.356603 212.748454,281.209877 L212,256.814815 L216.235155,254" id="Fill-11" fill="#4DB9DF" sketch:type="MSShapeGroup"></path>
                <path d="M223.008472,175 L202.066534,184.741874 C196.848492,186.254023 192.016696,187.763648 186.223025,187.763648 C181.85223,187.763648 176.933217,186.905333 170.890356,184.537393 C158.625218,190.893973 144.805133,194.627643 131,198.386557 L301,199 C300.753302,194.206059 299.711687,190.28053 299.253177,185.388135 C294.889858,185.716314 290.608771,185.870306 286.397458,185.870306 C263.599053,185.870306 242.896337,181.318713 223.008472,175" id="Fill-12" fill="#A6DCEF" sketch:type="MSShapeGroup"></path>
                <path d="M185.941385,263 C183.405772,266.192367 182.228805,276.210401 183.54269,290.431172 C187.494876,294.906028 191.986835,288.798454 192,284.704061 C191.628742,274.555006 188.858789,270.105346 185.941385,263" id="Fill-13" fill="#4DB9DF" sketch:type="MSShapeGroup"></path>
                <path d="M208.764833,255 C208.631832,264.59395 206.289972,271.859414 201.791411,280.802469 C199.457375,288.571456 202.685907,291.312585 206.276933,293 C205.789263,288.365135 206.795897,284.356603 212.254152,282.209877 L213,257.814815 L208.764833,255" id="Fill-14" fill="#4DB9DF" sketch:type="MSShapeGroup"></path>
                <path d="M202.807184,242.378385 C198.920067,239.714584 195.979877,239.544711 191.202998,240.184811 L176,235 L190.932093,242.779678 L191.011625,246.960025 C191.903872,248.959106 192.353724,250.387022 192.567466,251.494888 C194.031348,251.960191 196.501804,253.905111 199.143751,253.99374 C203.175018,254.126684 205.262727,252.085749 207,253.220696 C206.823539,248.786772 205.841818,244.45871 202.807184,242.378385 L202.807184,242.378385 Z M196,244 C195.448517,244 195,243.327961 195,242.501209 C195,241.672039 195.448517,241 196,241 C196.553229,241 197,241.672039 197,242.501209 C197,243.327961 196.553229,244 196,244 L196,244 Z" id="Fill-15" fill="#4DB9DF" sketch:type="MSShapeGroup"></path>
                <path d="M307.01,222.158 L307,222 L307.01,222.158" id="Fill-16" fill="#4DB9DF" sketch:type="MSShapeGroup"></path>
                <path d="M115.01,222 L115,222.158 L115.01,222" id="Fill-17" fill="#4DB9DF" sketch:type="MSShapeGroup"></path>
                <path d="M130,271 L130.078,271.502 C130.098,271.494 130.076,271.312 130,271" id="Fill-18" fill="#4DB9DF" sketch:type="MSShapeGroup"></path>
                <path d="M292.0841,271 C292.0081,271.312 291.9861,271.494 292.0081,271.502 L292.0841,271" id="Fill-19" fill="#4DB9DF" sketch:type="MSShapeGroup"></path>
                <path d="M321.360416,241.266402 C313.394532,243.725547 310.328625,244.847875 306.570898,246.992769 C307.864949,243.348944 311.878998,236.879347 324.814538,230.344905 C344.031206,214.759512 339.800653,200.129345 339.173535,179.286469 C329.649812,193.911649 323.488135,199.111768 318.670281,200.842647 C318.498571,194.575069 320.220655,196.044071 329.425842,186.696327 C338.631029,177.348583 334.933027,158.513428 335.139578,145.938367 C330.164945,154.794781 327.818231,160.326611 321.021971,162.780768 C324.127696,154.762358 327.90782,150.634686 329.761798,137.179222 C331.615776,123.723758 327.952614,115.500835 325.055929,105.514612 C322.204038,114.089196 317.901316,120.371738 313.628457,124.042998 C317.985927,117.171857 317.552917,109.238246 316.990503,101.474231 C314.586553,87.3179357 308.915122,83.7514271 303.547296,77.5561773 C304.759225,87.0710235 304.246582,96.4237558 296.823204,103.157723 C268.142539,58.8906178 240.133784,57.3517816 210.5,56 C180.866216,57.3517816 152.857461,58.8906178 124.176796,103.157723 C116.753418,96.4237558 116.240775,87.0710235 117.452704,77.5586713 C112.084878,83.7514271 106.413447,87.3179357 104.009497,101.474231 C103.447083,109.24074 103.014073,117.171857 107.371543,124.042998 C103.098684,120.371738 98.7959621,114.089196 95.9440712,105.517106 C93.0473862,115.500835 89.3842244,123.723758 91.2382024,137.179222 C93.0921803,150.634686 96.8723045,154.762358 99.9755401,162.780768 C93.1817685,160.326611 90.8350555,154.794781 85.860422,145.938367 C86.0669726,158.513428 82.3689709,177.348583 91.5741581,186.696327 C100.779345,196.044071 102.501429,194.575069 102.329719,200.842647 C97.5118647,199.111768 91.3501876,193.911649 81.8264646,179.286469 C81.1993473,200.129345 76.9687936,214.759512 96.1854617,230.344905 C109.121002,236.879347 113.135051,243.348944 114.429102,246.992769 C110.671375,244.847875 107.605468,243.728042 99.6395843,241.266402 C91.6737005,238.804763 88.7322214,232.941224 84.8525548,225.097399 C87.2490391,243.343956 82.0703436,274.734219 131.570311,300.550255 C145.356939,306.553462 157.99634,313.419614 168.206906,322.108926 C185.626833,337.110708 175.448618,351.868073 152.073565,354.446933 C164.070917,355.392182 184.394995,357.335057 187.363848,338.277929 C187.582842,331.244675 184.325315,324.780066 179.447736,319.175909 L179.554744,319.228284 C180.622337,319.776978 181.699883,320.290755 182.787385,320.779591 L183.155692,320.954175 C184.260613,321.445505 185.377977,321.904413 186.500318,322.335885 L186.846228,322.475553 C187.961103,322.899543 189.083444,323.286123 190.213251,323.650256 L190.613909,323.784935 C191.713853,324.129116 192.821263,324.43838 193.936138,324.727691 L194.446293,324.867358 C195.50642,325.131729 196.576501,325.361183 197.649071,325.570684 C197.878019,325.618071 198.104478,325.675434 198.333425,325.717833 C199.36369,325.909876 200.398931,326.062014 201.436661,326.204176 C201.712891,326.244081 201.986633,326.296456 202.262863,326.331373 C203.28815,326.45857 204.323392,326.543368 205.361122,326.620684 C205.649795,326.64313 205.935979,326.683035 206.227141,326.700494 C207.551055,326.782798 208.882435,326.825197 210.218793,326.825197 L210.231235,326.825197 C211.587501,326.825197 212.936301,326.77781 214.277636,326.695506 C214.720599,326.665577 215.158586,326.610708 215.599062,326.573297 C216.499921,326.498475 217.40078,326.426147 218.294173,326.31142 C218.809305,326.249069 219.316972,326.156788 219.827127,326.079472 C220.643375,325.957263 221.457134,325.837548 222.265916,325.685411 C222.800957,325.583154 223.328532,325.458451 223.858595,325.343724 C224.637515,325.176622 225.413946,325.00952 226.1854,324.814983 C226.722929,324.67781 227.25797,324.520684 227.79301,324.37104 C228.547044,324.159045 229.29859,323.94705 230.045158,323.710114 C230.585176,323.538023 231.120216,323.348475 231.657746,323.163914 C232.389383,322.912014 233.116042,322.655125 233.837725,322.378285 C234.380231,322.171277 234.915272,321.949306 235.452801,321.727334 C236.159553,321.435529 236.866304,321.138736 237.565589,320.82199 C238.105607,320.577572 238.643136,320.325672 239.180666,320.066289 C239.860043,319.739567 240.536931,319.402869 241.211331,319.0537 C241.480096,318.914033 241.753838,318.791823 242.022602,318.649662 C236.886212,324.373534 233.409693,331.020209 233.636152,338.277929 C236.605005,357.335057 256.929083,355.392182 268.926435,354.446933 C245.551382,351.868073 235.373167,337.110708 252.793094,322.108926 C263.00366,313.419614 275.643061,306.553462 289.429689,300.550255 C338.929656,274.731725 333.750961,243.343956 336.147445,225.097399 C332.267779,232.941224 329.326299,238.804763 321.360416,241.266402 L321.360416,241.266402 Z M179.29672,310.716027 C178.022799,311.357933 174.863138,310.816012 173.636709,310.040126 C172.410281,309.26424 173.117084,308.250389 174.391005,307.608483 C175.664927,306.968577 177.503173,306.698617 178.729602,307.474503 C179.956031,308.250389 180.567848,310.074121 179.29672,310.716027 L179.29672,310.716027 Z M191.483716,311.505352 C190.286482,312.389598 184.657381,312.017719 183.504781,310.948911 C182.352181,309.880104 183.373505,305.321146 184.568114,304.436901 C185.765348,303.55541 189.267783,304.111851 190.420383,305.180658 C191.572983,306.25222 192.68095,310.623862 191.483716,311.505352 L191.483716,311.505352 Z M207.464833,312.581914 C205.069249,314.71244 199.949853,314.216778 198.367494,312.581914 C197.044779,310.593789 196.175217,308.142864 198.20338,306.84757 C200.229093,305.555015 204.282969,305.741231 206.472797,307.403479 C207.631397,308.282526 208.665074,309.991327 207.464833,312.581914 L207.464833,312.581914 Z M218.58919,311.010915 C217.245279,311.816041 212.728327,312.49325 211.437349,311.517568 C210.146371,310.544393 211.884339,300.805126 214.416303,300 C217.242339,301.853546 220.080137,307.36402 218.58919,311.010915 L218.58919,311.010915 Z M244.483746,309.507498 C243.286581,310.38893 237.657806,310.017076 236.505272,308.948339 C235.352738,307.879603 236.371379,303.320946 237.568543,302.436759 C238.765708,301.555327 242.26794,302.111731 243.420474,303.183222 C244.573008,304.251958 245.68091,308.623311 244.483746,309.507498 L244.483746,309.507498 Z M249.276422,303.505532 C250.109713,302.982418 254.444006,302.802597 255.418633,303.268496 C256.393261,303.734395 256.022254,306.102713 255.188963,306.625827 C254.352727,307.150985 251.629071,307.095813 250.654444,306.631958 C249.676873,306.166059 248.440186,304.03069 249.276422,303.505532 L249.276422,303.505532 Z M236.552757,299.311444 C235.009866,302.527623 232.095518,303.932677 228.773707,304.206713 C229.124025,304.293906 229.402292,304.406011 229.563786,304.548011 C230.654493,305.514609 230.025908,308.964964 228.892964,309.762158 C227.760021,310.561843 222.097787,311.570791 221.00708,310.604194 C219.916373,309.637596 220.0406,305.514609 221.176028,304.714924 C221.658026,304.373625 223.059298,304.11952 224.592251,304.012397 C218.676595,303.073203 212.70628,299.62783 211.332338,296.770389 C209.526088,302.01443 190.862331,309.88921 185.962847,299.682637 L168.891672,306.376575 C166.091611,303.083168 163.105212,299.124602 160.956097,294.351403 C157.529936,286.728237 156.255375,277.009945 161.326291,264.533861 C157.502607,269.541235 150.148411,280.462791 154.404403,292.348454 C157.206948,295.674247 159.353578,296.40916 161.261694,295.577089 C162.250535,299.236707 163.189686,302.933694 164.933823,306.025311 C159.433083,301.291973 154.257816,295.679229 149.52231,289.189573 C138.322069,273.833626 130.391464,254.910236 126.269636,234.203125 L190.141819,232.14786 L125.519309,230.090103 C125.390114,229.345225 125.246011,228.605329 125.126754,227.852978 L200.122158,224.746413 L124.54289,223.725008 C124.428602,222.875498 124.316799,222.02848 124.214933,221.173988 L194.922046,218.438616 L123.802502,217.305106 C123.722997,216.458088 123.65343,215.608578 123.583864,214.759068 L188.631227,212.382434 L123.315535,211.017239 C123.260875,210.080537 123.226092,209.138851 123.186339,208.197166 L179.234752,205.905234 L123.072051,205.155373 C123.064598,204.858917 123.044721,204.567443 123.039752,204.270986 C123.037268,203.782705 123.022361,203.319336 123,202.878388 L167.490399,201.530632 L154.240425,201.271544 L274.824389,201 L251.559291,201.450913 L296,202.798669 C295.990062,203.560985 295.97267,204.31832 295.955279,205.075654 L239.814939,205.825514 L295.863351,208.117447 C295.823599,209.064114 295.761486,210.000817 295.706826,210.940011 L230.418463,212.302714 L295.455889,214.679349 C295.388807,215.533841 295.304333,216.378368 295.224828,217.225387 L224.127644,218.358897 L294.817366,221.094268 C294.7155,221.94876 294.606181,222.79827 294.491893,223.645289 L218.927532,224.666693 L293.888153,227.773258 C293.768896,228.520627 293.647154,229.270488 293.520443,230.012875 L228.910356,232.070631 L292.747756,234.123406 C288.40729,255.904237 279.937542,275.221241 268.640404,290.305644 C271.768422,279.546018 266.384455,273.467415 263.166995,269.989657 C265.94221,280.27844 264.270124,288.484555 261.055148,295.066387 C261.055148,295.066387 257.055062,302.796676 252.053712,302.796676 C247.054846,302.796676 236.552757,299.311444 236.552757,299.311444 L236.552757,299.311444 Z M263.154821,295.651565 C264.618832,296.176277 266.196922,296.049423 268,295 C265.743775,297.456343 263.401992,299.780066 261,302 C261.706655,299.981878 262.368945,297.857084 263.154821,295.651565 L263.154821,295.651565 Z M305.421979,281.117108 C289.828537,293.192453 282.375349,295.070396 268.437341,301.041803 C266.503097,301.871999 264.426958,302.872234 262.301032,304 C279.768974,286.640909 292.666424,260.732304 297.899089,230.577698 C297.946387,230.322638 298.006132,230.075079 298.050941,229.817518 L298.023558,229.817518 C298.138069,229.14486 298.247602,228.474702 298.354645,227.799543 L298.379539,227.799543 C298.444262,227.381945 298.499029,226.959345 298.561263,226.541747 C298.625987,226.094141 298.69071,225.649036 298.752945,225.201431 C298.835094,224.626295 298.927201,224.058661 299.001882,223.483526 L298.97201,223.483526 C299.076563,222.685838 299.181117,221.88815 299.275713,221.085461 L299.298118,221.087961 C299.340437,220.720375 299.372799,220.350287 299.415118,219.982701 C299.442502,219.737643 299.467395,219.492585 299.492289,219.247528 C299.571949,218.509854 299.656588,217.774681 299.72629,217.032005 L299.691439,217.034506 C299.76612,216.236818 299.843291,215.441631 299.908015,214.638942 L299.932908,214.641442 C299.96527,214.24885 299.985185,213.853757 300.012568,213.461164 L300.032483,213.171096 C300.092228,212.350902 300.154463,211.530709 300.20425,210.708015 L300.16691,210.708015 C300.216697,209.827808 300.271463,208.950101 300.308804,208.064892 L300.336187,208.067393 C300.380996,206.997141 300.418336,205.924388 300.445719,204.846634 L300.408379,204.846634 C300.425804,204.131465 300.438251,203.413796 300.448209,202.696127 L300.485549,202.696127 C300.495507,201.905941 300.500486,201.113254 300.500486,200.320567 L300.485549,200.320567 C300.48306,199.395349 300.450698,198.50514 300.390953,197.642436 L120.989192,198.050032 C120.558531,199.552886 120.979235,201.558359 120.986703,204.086455 C120.991682,204.369021 121.011597,204.644086 121.019065,204.926653 L121.006618,204.924152 C121.031512,206.001906 121.068852,207.07716 121.113661,208.144911 L121.141044,208.144911 C121.178385,209.025119 121.203279,209.910327 121.253066,210.785533 L121.248087,210.785533 C121.322769,212.103344 121.412386,213.413653 121.51694,214.71896 L121.541834,214.71896 C121.606557,215.516648 121.656345,216.319338 121.731026,217.112024 L121.726047,217.112024 C121.853005,218.469844 121.9949,219.822663 122.15173,221.16548 L122.174135,221.16548 C122.268731,221.965668 122.355859,222.768357 122.460413,223.563545 L122.450455,223.563545 C122.639648,225.008885 122.846266,226.449225 123.07031,227.879562 L123.087735,227.877061 C123.192289,228.55222 123.301821,229.224879 123.413843,229.895037 L123.398907,229.895037 C123.453673,230.20761 123.523376,230.507681 123.583121,230.815254 C128.780935,260.514752 141.412022,286.083278 158.521494,303.392357 C156.811293,302.519651 155.135944,301.716962 153.562659,301.041803 C139.624651,295.070396 132.171463,293.192453 116.578021,281.117108 C107.095993,273.600336 100.307468,260.669789 94.3877353,245.993831 C94.3877353,245.993831 101.77371,250.674934 112.209168,253.760661 C124.593807,257.424024 128.596721,268.601658 129.258895,271.369811 C127.028415,256.851389 131.835398,243.27569 104.474681,225.391475 C92.7696418,219.277535 91.8784457,211.353167 88,200.060506 C88,200.060506 92.8268974,205.111696 101.114026,207.829837 C110.750395,210.988081 114.713479,220.665362 114.91014,222.153212 C115.044566,219.867674 116.067699,196.677209 103.130419,187.902641 C89.5135398,178.670465 92.7123862,165.159782 92.7123862,165.159782 C95.9859138,168.313025 97.1857923,169.833383 102.605161,172.911608 C108.024529,175.989834 115.034608,187.495045 115.059502,187.129959 C115.796357,175.404696 113.493685,166.815172 105.074621,156.085143 C96.6555556,145.355114 96.4290225,129.648913 99.3689739,123.607489 C108.430298,132.782152 115.183971,143.837257 111.731208,152.264243 C115.659441,145.695195 118.146327,140.766533 116.485914,130.294065 C113.481239,119.143938 105.938434,113.790176 113.15762,96.858686 C123.06782,112.012257 121.15847,119.308977 121.15847,119.308977 C139.129265,84.2157066 164.54827,60.5901391 210.524529,60 C256.500789,60.5901391 282.870735,84.2157066 300.84153,119.308977 C300.84153,119.308977 298.93218,112.012257 308.84238,96.858686 C316.061566,113.790176 308.518761,119.143938 305.514086,130.294065 C303.853673,140.766533 306.340559,145.695195 310.268792,152.264243 C306.816029,143.837257 313.569702,132.782152 322.631026,123.604989 C325.570978,129.648913 325.344444,145.355114 316.925379,156.085143 C308.506315,166.815172 306.203643,175.404696 306.940498,187.129959 C306.965392,187.492544 313.975471,175.989834 319.394839,172.911608 C324.814208,169.833383 326.014086,168.313025 329.287614,165.159782 C329.287614,165.159782 332.48646,178.670465 318.869581,187.902641 C305.932301,196.674708 306.955434,219.867674 307.08986,222.153212 C307.286521,220.665362 311.249605,210.988081 320.885974,207.829837 C329.173103,205.111696 334,200.060506 334,200.060506 C330.121554,211.353167 329.230358,219.277535 317.525319,225.391475 C290.164602,243.27569 294.971585,256.851389 292.741105,271.369811 C293.403279,268.599158 297.408682,257.424024 309.790832,253.760661 C320.22629,250.674934 327.612265,245.99133 327.612265,245.99133 C321.692532,260.669789 314.904007,273.597836 305.421979,281.117108 L305.421979,281.117108 Z" id="Fill-20" fill="#4DB9DF" sketch:type="MSShapeGroup"></path>
                <path d="M262.241605,242.652237 C256.105353,240.626215 254.376368,240.422414 249.455216,242.268611 C245.075795,243.913405 243.179733,250.787491 243,256 C244.417616,254.930644 245.539051,253.585558 246.592138,254.172984 C250.976621,256.630584 255.449706,255.709883 257.9761,255.299884 C258.317847,253.381757 259.00134,250.979304 260.986003,246.730653 L261.307498,245.176971 L277,243.786329 L262.241605,242.652237 L262.241605,242.652237 Z M255,245 C254.446771,245 254,244.330379 254,243.501209 C254,242.672039 254.446771,242 255,242 C255.551483,242 256,242.672039 256,243.501209 C256,244.330379 255.551483,245 255,245 L255,245 Z" id="Fill-21" fill="#4DB9DF" sketch:type="MSShapeGroup"></path>
                <path d="M175.545265,242.270668 C170.621948,240.422027 168.893091,240.625833 162.757296,242.651905 L148,243.786025 L163.691334,245.176702 L164.012805,246.730423 C165.99732,250.979179 166.680762,253.381692 167.022484,255.299866 C169.54869,255.709876 174.021441,256.632998 178.405599,254.175337 C179.458606,253.585498 180.579958,254.930618 182,256 C181.817749,250.787361 179.921828,243.913104 175.545265,242.270668 L175.545265,242.270668 Z M170,245 C169.448517,245 169,244.328502 169,243.5 C169,242.671498 169.448517,242 170,242 C170.553229,242 171,242.671498 171,243.5 C171,244.328502 170.553229,245 170,245 L170,245 Z" id="Fill-22" fill="#4DB9DF" sketch:type="MSShapeGroup"></path>
            </g>
        </g>
    </g>
</svg>