<?xml version="1.0" encoding="UTF-8" standalone="no"?>
<svg width="400px" height="480px" viewBox="0 0 400 480" version="1.1" xmlns="http://www.w3.org/2000/svg" xmlns:xlink="http://www.w3.org/1999/xlink" xmlns:sketch="http://www.bohemiancoding.com/sketch/ns">
    <!-- Generator: Sketch 3.3 (11970) - http://www.bohemiancoding.com/sketch -->
    <title>tucuman</title>
    <desc>Created with Sketch.</desc>
    <defs></defs>
    <g id="Page-1" stroke="none" stroke-width="1" fill="none" fill-rule="evenodd" sketch:type="MSPage">
        <g id="tucuman" sketch:type="MSArtboardGroup" fill="#4DB9DF">
            <g id="Imported-Layers" sketch:type="MSLayerGroup" transform="translate(8.500000, 8.301749)">
                <path d="M262.319268,5.201207 C262.341601,5.20902332 262.362816,5.21572303 262.384032,5.22353936 C262.305869,5.10182799 262.228822,4.98234985 262.149542,4.8617551 L262.319268,5.201207" id="Fill-1" sketch:type="MSShapeGroup"></path>
                <path d="M81.1870671,54.584758 C98.1250466,53.3754606 115.986469,39.2334927 134.007569,27.5804665 C123.848577,26.7128542 113.854845,27.1851837 104.24858,30.8443411 C111.409452,22.0509738 117.750726,10.9450904 124.508499,0.609673469 C113.601373,4.19066764 103.638907,9.30589504 96.1575656,18.45993 C97.8782741,12.9159213 99.5610175,7.29039942 101.342023,1.75755685 C89.7180292,12.7808105 79.924172,25.3271312 75.7569534,42.5453819 C71.1017726,47.4741341 66.963586,52.8316676 63.7343265,58.9429184 C63.738793,52.1706297 63.3502099,45.0767551 63.2586472,38.1425569 C52.6239767,51.1020262 46.2648367,66.0948571 56.3557143,88.9810612 C56.4405773,88.8805656 56.5165073,88.7744869 56.599137,88.6728746 C56.5980204,88.8861487 56.6013703,89.101656 56.6013703,89.31493 C56.5031079,89.6007843 56.3992624,89.8777055 56.3021166,90.1680262 C56.4048455,90.1501603 56.5064577,90.1244781 56.6103032,90.1054956 C56.6147697,90.4460641 56.6125364,90.7810496 56.6214694,91.1249679 C57.0558338,90.7218688 57.4611662,90.2774548 57.8776647,89.8497901 C75.205344,85.8802128 89.0368921,66.2991983 103.853297,49.3723848 C94.4268076,51.1210087 85.4793469,53.979551 77.6574373,59.4252974 C78.9024665,57.9078134 80.0760321,56.2887172 81.1870671,54.584758 L81.1870671,54.584758 Z M99.5409184,4.70319534 L95.1883411,18.7223353 C92.686,26.7430029 90.0987959,34.5369971 87.0124636,41.5817405 L90.633656,37.197898 C99.9317347,26.1645948 109.426338,15.7353819 119.018087,5.60653936 L122.726376,1.75755685 L114.907816,14.0582216 C106.624743,27.0411399 98.2099096,38.9107901 87.1955889,43.8306093 L85.739519,44.3822187 C84.8261254,46.3162012 83.862484,48.1753703 82.8519446,49.9664257 L85.5608601,48.6019184 C99.2193324,41.8832274 112.805224,35.8199913 126.355385,30.0805743 L131.532026,27.935551 L118.747866,36.4397143 C105.817429,45.009758 93.2163936,52.5781953 81.1245364,53.4335248 L80.7627522,53.4290583 C79.2117697,55.8309038 77.5446589,58.0663732 75.7212216,60.0852187 L74.2729679,61.5580379 L74.2752012,60.6725598 L77.3168688,53.3899767 L77.0555802,53.3866268 L77.6507376,52.5860117 L77.6529708,52.5837784 L77.7590496,52.3303061 C84.0712915,37.519484 90.6794373,23.1675918 97.4305102,9.0434898 L99.5409184,4.70319534 L99.5409184,4.70319534 Z M97.4472595,53.7171458 L101.775271,50.3114606 L92.0249621,61.7500962 C81.6962449,73.8263207 71.398793,84.7580117 59.473312,88.2619592 L57.5147638,88.7175394 L57.166379,89.101656 L57.1686122,88.4294519 L60.1678484,81.2451312 C65.5912624,68.519035 71.2681487,56.1882216 77.0745627,44.0528163 L78.8857172,40.3244286 L75.1495131,52.3705044 C71.3585948,64.5315918 67.3287201,76.079656 61.1247901,84.5592536 L63.9319679,81.985449 C75.0054694,72.0307988 86.1973324,62.7170875 97.4472595,53.7171458 L97.4472595,53.7171458 Z M73.6275627,59.5805073 C73.6085802,60.5653644 73.6052303,61.563621 73.6175131,62.575277 C73.1228513,63.0040583 72.6337726,63.4451224 72.1491603,63.899586 C72.6538717,62.4792478 73.1451837,61.0354606 73.6275627,59.5805073 L73.6275627,59.5805073 Z" id="Fill-2" sketch:type="MSShapeGroup"></path>
                <path d="M57.6040933,85.8846793 C63.1581516,77.3950321 63.4629883,65.0642187 63.1358192,51.9819213 L62.8053003,39.5986268 L61.999102,44.0438834 C59.9958892,55.6589446 58.2081837,67.4403819 56.8570758,79.5668542 L56.1424402,86.6227638 L56.4662595,87.4166793 L57.6040933,85.8846793" id="Fill-3" sketch:type="MSShapeGroup"></path>
                <path d="M43.3069155,346.491055 L43.5682041,347.105195 L43.5749038,347.108545 L43.3080321,346.491055 L43.3069155,346.491055" id="Fill-4" sketch:type="MSShapeGroup"></path>
                <path d="M95.1001283,386.030501 L94.9795335,386.455933 C94.7830087,386.731738 94.4055918,386.883598 94.0181254,386.675907 C85.2057755,381.929163 74.9797872,378.960076 64.0547959,376.819519 L55.5763149,375.370149 L55.6567114,375.438262 L57.3629038,376.329324 C71.290481,383.270222 86.718793,388.854429 99.150102,389.551198 L95.1001283,386.030501" id="Fill-5" sketch:type="MSShapeGroup"></path>
                <path d="M326.828528,88.6739913 C326.911157,88.7744869 326.987087,88.8805656 327.07195,88.9810612 C337.160595,66.0948571 330.805921,51.1020262 320.166784,38.1425569 C320.075222,45.0778717 319.687755,52.1706297 319.693338,58.9429184 C316.464079,52.8350175 312.328125,47.4797172 307.675178,42.5520816 C303.511309,25.3315977 293.721918,12.7830437 282.085641,1.75755685 C283.909079,7.42774344 285.629787,13.1950758 287.394044,18.8719621 C281.585397,12.5764694 274.097356,9.2165656 265.081781,6.12911662 C282.772362,19.0338717 290.245886,28.663586 292.758277,37.197898 L296.37277,41.5728076 C293.288671,34.531414 290.701466,26.7441195 288.201359,18.7279184 L283.847665,4.70542857 L285.95919,9.05130612 C292.714729,23.1731749 299.325108,37.5239504 305.635117,52.3358892 L305.740079,52.584895 L305.740079,52.5860117 L306.358685,53.4156589 L306.090697,53.4257085 L309.114499,60.6658601 L309.118965,61.5580379 L307.668478,60.0852187 C305.847274,58.0674898 304.18128,55.8342536 302.631414,53.435758 C290.144274,52.6909738 277.105525,44.7395364 263.721741,35.8311574 L251.848741,27.9322012 L257.036548,30.0805743 C270.586708,35.8199913 284.172601,41.8832274 297.831073,48.6019184 L300.537755,49.965309 C299.526099,48.1742536 298.562458,46.3150845 297.649064,44.381102 L296.194111,43.8306093 C285.17979,38.9107901 276.764956,27.0411399 268.483,14.0582216 L263.797671,5.69363557 C263.328691,5.53619242 262.860828,5.37986589 262.384032,5.22353936 C268.500866,14.6109475 273.488799,23.5595248 279.081939,30.8086093 C269.505822,27.1829504 259.543356,26.7150875 249.420096,27.5804665 C267.441195,39.2446589 285.311551,53.3754606 302.240598,54.584758 C303.352749,56.2887172 304.526315,57.9078134 305.771344,59.4252974 C297.949434,53.979551 289.001974,51.1210087 279.575484,49.3723848 C294.393006,66.2991983 308.234603,85.8790962 325.548883,89.8486735 C325.966499,90.2774548 326.371831,90.7218688 326.806195,91.1249679 C326.815128,90.7810496 326.812895,90.4460641 326.817362,90.1054956 C326.921207,90.1244781 327.022819,90.1501603 327.125548,90.1680262 C327.028402,89.8777055 326.924557,89.6019009 326.826294,89.31493 C326.826294,89.101656 326.829644,88.8861487 326.828528,88.6739913 L326.828528,88.6739913 Z M325.876052,88.7175394 L323.919738,88.2619592 C311.99984,84.7580117 301.700155,73.8263207 291.369204,61.7500962 L281.606612,50.3047609 L285.944673,53.7171458 C297.195717,62.7170875 308.386464,72.0319155 319.459965,81.9943819 L322.279426,84.5804694 C316.067679,76.0986385 312.034455,64.5461079 308.23907,52.3749708 L304.480534,40.2719475 L306.31737,44.0528163 C312.123784,56.1882216 317.802904,68.519035 323.229668,81.2451312 L326.219971,88.3993032 L326.223321,89.101656 L325.876052,88.7175394 L325.876052,88.7175394 Z M309.801219,59.5950233 C310.282481,61.043277 310.770443,62.4803644 311.274038,63.8951195 C310.791659,63.4428892 310.303697,63.0029417 309.811268,62.5763936 C309.823551,61.5692041 309.820201,60.575414 309.801219,59.5950233 L309.801219,59.5950233 Z" id="Fill-6" sketch:type="MSShapeGroup"></path>
                <path d="M344.884242,145.101169 L351.672163,165.298557 L352.537542,165.530813 L347.962758,143.779093 C331.483708,131.369 326.3093,105.86321 311.813364,97.3847289 L310.501338,96.7627726 L308.733732,96.6030962 L310.520321,98.0736822 C326.436595,112.461306 314.962227,122.78109 344.63412,144.758367 C344.752481,144.84658 344.839577,144.964942 344.884242,145.101169" id="Fill-7" sketch:type="MSShapeGroup"></path>
                <path d="M104.838155,397.106236 L111.572478,400.015026 C115.475058,399.730289 119.547364,399.77272 123.767064,400.23835 C117.43584,396.067781 111.467516,391.620292 105.887776,386.941662 L105.810729,387.266598 L104.890636,386.758536 L104.351309,385.639685 C100.823913,382.614767 97.4651254,379.493819 94.2805306,376.286892 L94.7550933,377.356612 L93.6909563,377.463808 L86.1158192,373.401551 C73.1630496,366.235096 60.8891837,358.600778 48.9503032,350.736437 L44.290656,347.593157 L58.7988746,352.543125 C67.6949708,355.601542 76.1075714,358.858717 82.765965,363.355338 C78.7584227,358.285892 75.1740787,353.052303 72.0575977,347.68137 L69.8031458,343.534251 L69.7640641,343.404723 L99.4214402,375.207122 C94.2057172,363.681391 89.607484,352.154542 85.3364198,340.62881 L83.5140991,335.530332 L92.095309,347.537327 C100.505676,359.367895 107.662082,370.913726 106.657125,382.69628 L127.665178,400.781026 C127.851653,400.812292 128.039245,400.851373 128.22572,400.884872 L107.432058,382.984367 C108.61009,366.441671 94.1934344,350.395869 82.8642274,333.927985 C80.8643644,340.706974 79.6338513,347.349735 79.8527085,353.73009 L68.1550175,341.18712 C69.0259796,344.383997 69.9494227,347.561892 70.9811778,350.699589 C63.2876793,343.408073 59.2879534,334.671653 55.7069592,324.205592 C61.3369475,310.46114 58.8614052,291.85605 51.5698892,275.515461 L51.6447026,275.439531 C46.6902682,279.775359 42.8692012,284.515402 40.3579271,289.736708 C36.7579504,285.223338 32.6231137,281.440236 28.4380292,279.619032 C28.2202886,279.179085 28.0159475,278.755886 27.8227726,278.347204 C29.4932332,279.273997 31.3010379,279.956251 33.2875015,280.312452 C32.5371341,273.440784 31.4953294,266.549017 30.1263557,259.810227 C46.4501953,244.275837 45.4363061,222.694959 47.8973324,202.113455 L47.7253732,202.356878 C40.314379,208.023714 33.7453149,213.839061 28.7607318,219.930213 C28.4447289,219.30379 28.1142099,218.666201 27.7635918,218.01298 C27.897586,216.114729 27.9478338,214.196379 27.9176851,212.256813 C32.4064898,203.706869 35.282898,193.10793 37.5384665,181.646962 C47.3513061,170.401501 54.4887289,158.345376 55.7237085,146.83081 C51.658102,151.574204 46.290519,156.652583 40.9128863,161.849324 C41.7190845,156.674915 42.5141166,151.467009 43.3772624,146.319399 C40.0720729,150.89865 36.9857405,155.64316 34.262309,160.663475 L39.2245598,145.902901 C70.6126939,122.653796 56.187105,111.917513 76.9137697,96.2759271 C70.1470641,96.6689767 63.4138571,97.5298892 56.6639009,103.652306 C57.1552128,95.5467755 54.967758,88.0922332 52.7099563,80.6209417 C50.8228717,83.3153411 48.8509242,86.3603586 46.9939883,89.6543819 C45.6897784,84.7312128 43.8093936,79.6997318 44.3453703,74.1479067 C36.6943032,80.0123848 33.5264577,87.1944723 33.0250962,94.8712216 C30.9883848,92.5129242 28.6479534,90.3489184 26.1869271,88.4551341 C28.0539125,103.880096 21.5451458,110.799778 30.6210175,128.020262 C31.6002915,136.210656 30.5674198,144.835414 28.9293411,153.541685 C27.6630962,146.186522 26.1824606,138.707414 24.979863,131.312052 C19.8367201,139.212125 15.6706181,147.360087 13.4920962,156.008294 C10.6503032,148.568268 7.70131487,141.077994 4.95555102,133.603353 C-1.17133236,159.726633 -2.05792711,185.947058 14.814172,212.480137 C15.2541195,214.847367 15.6438192,217.229114 15.9910875,219.634309 C12.1063732,212.879886 7.52823907,207.031041 2.16400583,202.486405 C8.35230321,224.752886 9.58616618,259.742114 22.573551,274.116338 C23.1229271,277.14684 23.7370671,280.228706 24.4450029,283.373102 C24.8067872,284.970983 25.0859417,286.800003 25.2154694,288.681504 C22.3915423,286.546531 19.5609155,284.404857 16.8151516,282.225219 C16.9100641,286.678292 17.2841312,290.990671 18.0836297,295.088659 C15.4964257,293.331102 12.8902391,291.578012 10.2460875,289.843904 C19.4593032,315.191134 33.8848921,335.623012 59.5514752,352.609006 C53.8757055,350.649341 48.0335598,348.789055 42.3812391,346.753461 C49.4806968,365.345152 60.7038251,379.746175 86.5568834,379.280545 C88.8660496,381.853233 91.46107,384.314259 94.3955423,386.644641 C82.5270087,380.250886 68.1550175,377.068525 53.0572245,374.802907 C67.677105,387.304563 83.7050408,397.135268 104.838155,397.106236 L104.838155,397.106236 Z M28.970656,94.9505015 L27.0891545,89.6275831 L30.2547668,92.3900962 C34.5358805,96.6444111 37.8779184,101.698224 38.9487551,107.00551 C38.9643878,107.085907 39.0124023,107.139504 39.0481341,107.203152 C41.3383178,97.3400641 39.9715773,88.0218863 41.6431545,78.9716968 L42.2416618,76.2817638 L42.4069213,76.1165044 L43.5380554,75.1640292 L43.4989738,76.3230787 C43.8283761,88.832551 53.7752099,97.7565627 40.6649971,109.449787 C42.4180875,117.005942 41.799481,126.573125 37.4658863,139.625274 C35.5140379,124.086417 33.6470525,109.393956 28.970656,94.9505015 L28.970656,94.9505015 Z M35.4336414,143.779093 C51.9082245,131.369 57.0848659,105.86321 71.5808017,97.3847289 L72.8905948,96.7627726 L74.6604344,96.6030962 L72.8861283,98.062516 C57.0189854,112.411058 68.2488134,122.916201 38.7600466,144.758367 C38.6416851,144.84658 38.5545889,144.964942 38.5088076,145.101169 L31.7186531,165.298557 L30.8588571,165.530813 L35.4336414,143.779093 L35.4336414,143.779093 Z M4.64959767,205.544822 L4.81039067,205.692216 C15.9810379,216.996857 23.3685831,234.464114 27.8987026,253.763741 L28.3609825,252.247373 C28.5374082,251.70023 28.7216501,251.156437 28.900309,250.610411 L13.0733644,196.686691 L14.1899825,198.206408 C9.46557143,180.23109 6.59809621,162.365201 5.29835277,144.640006 L4.8494723,137.163131 L5.15542566,135.64788 L13.6551224,157.964609 C17.5934344,168.356974 21.2313761,178.598595 23.746,188.52198 C23.4411633,172.203723 23.7493499,156.19142 24.389172,140.343259 L24.7252741,133.593303 L27.8886531,151.394429 C29.6931079,161.661732 31.1380117,171.648764 30.9258542,180.834064 L34.5235977,176.010274 C36.4921953,168.948781 38.4931749,161.93307 40.5332362,154.972073 L41.8508455,150.562548 L39.4009854,166.026592 C39.1642624,167.504994 38.9241895,168.974464 38.6807668,170.43835 L54.499895,149.232656 L54.4686297,149.443697 C52.3760875,159.828245 45.7076443,170.59691 36.8305306,180.742501 C34.5649125,192.310665 31.680688,202.965434 27.155035,211.513146 C27.1874169,213.335466 27.1505685,215.139921 27.0366735,216.925394 C30.838758,223.411828 33.1066093,229.606825 33.2473032,237.927863 C36.6987697,228.323831 40.4427901,218.831461 44.3721691,209.407204 L46.6802187,204.046321 L45.2844461,218.45516 C43.8339592,233.016977 41.3662332,246.922222 30.3999271,257.932076 L29.0733848,259.081076 C29.6964577,262.124977 30.2536501,265.203493 30.7460787,268.300991 L32.0938367,278.37512 L30.2703994,277.808994 L4.64959767,205.544822 L4.64959767,205.544822 Z M53.7417114,326.276918 C52.6440758,328.428641 51.3376327,330.540166 49.7866501,332.59921 L48.295965,333.671163 C48.7202799,334.388032 49.1445948,335.104901 49.5744927,335.822886 C49.0887638,335.130583 48.6164344,334.458379 48.1418717,333.781708 L47.4339359,334.290886 L46.9415073,333.406525 L47.085551,332.278741 C36.493312,317.207746 28.1220262,305.724446 12.6836647,292.205551 L11.9466968,291.573545 L11.7859038,291.172679 L22.2385656,298.220773 C26.3097551,301.025717 30.309481,303.829545 34.2388601,306.580892 C34.3884869,306.686971 34.5515131,306.728286 34.706723,306.719353 L35.0160262,306.602108 L37.694793,313.433577 C40.3489942,319.531429 43.6128688,325.627047 47.1570146,331.722665 L47.9855452,325.240697 L48.3160641,320.309711 C38.6952828,309.702956 29.850551,298.865061 21.395519,287.916621 L18.0914461,283.536128 L29.9577464,292.625399 C34.9110641,296.436417 39.6187259,300.264184 43.6106356,304.289592 C39.7337376,296.584927 35.2025015,289.121452 28.748449,282.080058 L27.2186822,280.535776 L26.8993294,279.328711 L29.4284694,280.306869 C37.7483907,284.766641 45.8338222,296.908746 49.2640729,306.16886 L51.2974344,275.858262 C57.8229504,291.486449 61.402828,308.514875 54.9387259,323.70423 C59.0612799,335.784921 63.7555423,345.688207 74.0284286,353.708875 L76.0372245,355.167178 L74.7196152,358.571746 C64.7459825,347.960525 58.7798921,337.05005 53.7417114,326.276918 L53.7417114,326.276918 Z" id="Fill-8" sketch:type="MSShapeGroup"></path>
                <path d="M30.441242,187.572854 C29.8025364,192.528405 28.5228921,197.183586 26.3622362,201.439017 L26.3387872,201.479216 C26.5085131,202.691863 26.6503236,203.896694 26.7698017,205.095942 C28.3687988,198.764717 30.0236268,192.511656 31.7030204,186.295443 C31.2865219,186.723108 30.8644402,187.148539 30.441242,187.572854" id="Fill-9" sketch:type="MSShapeGroup"></path>
                <path d="M141.268936,404.500481 C142.632327,405.016359 144.00465,405.572434 145.387023,406.185458 C146.053644,406.44898 146.677834,405.718711 146.278085,405.14142 L146.145207,404.943778 L148.574968,406.274787 C149.751883,406.955924 150.916516,407.664977 152.063283,408.403061 C156.903822,411.531825 164.623003,412.09795 171.918985,412.326857 C158.993015,400.402493 142.48605,394.418536 132.918866,383.590691 L125.027726,372.365329 L124.791003,372.209003 L132.532516,375.836895 C129.68849,374.367426 126.894711,372.979469 124.214828,371.659627 C121.019067,381.134131 132.950131,393.378965 145.684044,406.117344 C144.212341,405.533353 142.740638,404.997376 141.268936,404.500481" id="Fill-10" sketch:type="MSShapeGroup"></path>
                <path d="M141.32365,380.628303 C144.487029,382.732012 147.719638,384.586714 151.037111,386.770819 C147.868149,384.556566 144.602041,382.524321 141.32365,380.628303" id="Fill-11" sketch:type="MSShapeGroup"></path>
                <path d="M352.947341,187.571738 C352.528609,187.150773 352.108761,186.729808 351.695612,186.304376 C353.372773,192.515006 355.025367,198.760251 356.621015,205.084776 C356.740493,203.891111 356.882303,202.68963 357.050913,201.482566 L357.026347,201.439017 C354.865691,197.183586 353.587163,192.528405 352.947341,187.571738" id="Fill-12" sketch:type="MSShapeGroup"></path>
                <path d="M288.108679,377.303015 L288.635723,377.356612 L289.106936,376.292475 C288.773067,376.628577 288.447015,376.968029 288.108679,377.303015" id="Fill-13" sketch:type="MSShapeGroup"></path>
                <path d="M360.836248,274.134204 C373.839265,259.772262 375.073128,224.762936 381.261426,202.486405 C375.631437,207.259948 370.865711,213.473927 366.859286,220.666064 C367.170822,218.268685 367.52144,215.893638 367.923423,213.536458 C385.498991,186.642711 384.679394,160.072784 378.46988,133.603353 C375.725233,141.075761 372.777362,148.563802 369.936685,156.001595 C367.75593,147.355621 363.589828,139.209892 358.447802,131.312052 C357.245204,138.706297 355.765685,146.184289 354.49944,153.537219 C352.861362,144.832064 351.826257,136.209539 352.807764,128.020262 C361.884752,110.799778 355.390501,103.880096 357.242971,88.4551341 C354.781945,90.3478017 352.441513,92.5129242 350.404802,94.8734548 C349.90344,87.1967055 346.733362,80.0123848 339.082294,74.1479067 C339.619388,79.7041983 337.739003,84.7379125 336.433676,89.6610816 C334.576741,86.3670583 332.60591,83.3220408 330.719942,80.6309913 C328.475539,88.0922332 326.272452,95.5467755 326.761531,103.652306 C320.014924,97.5298892 313.278367,96.6689767 306.517245,96.2759271 C327.239443,111.917513 312.814971,122.653796 344.204222,145.902901 L349.164239,160.660125 C346.441924,155.640927 343.356708,150.897534 340.051519,146.319399 C340.915781,151.467009 341.710813,156.676032 342.515895,161.85044 C337.138262,156.6537 331.769563,151.574204 327.703956,146.83081 C328.938936,158.345376 336.076359,170.401501 345.889198,181.648079 C348.14365,193.109047 351.020058,203.710219 355.508863,212.260163 C355.439633,216.694254 355.776851,221.026732 356.618781,225.236382 C356.478087,225.829306 356.344093,226.41888 356.217915,227.008455 C355.73442,212.356192 351.007776,200.952172 337.401784,196.346122 C336.614569,201.818668 336.792111,206.801017 337.637391,211.449499 C333.175385,218.83816 333.394242,233.708163 335.955764,241.460843 C343.621347,263.057353 349.29935,267.051496 351.318195,271.169583 C350.867082,274.211251 350.474032,277.264085 350.14128,280.312452 C350.539913,280.240988 350.915096,280.12821 351.300329,280.032181 C351.144003,280.672003 350.965344,281.355373 350.76212,282.096808 C346.831624,284.986615 343.101003,289.300111 339.999038,293.937426 C336.655883,287.919971 331.669067,282.517773 325.851487,277.427111 C325.375808,293.735318 322.949397,310.869822 327.818968,323.923087 C324.212292,334.516443 320.209216,343.343309 312.446487,350.700706 C313.477125,347.563009 314.401685,344.385114 315.272647,341.18712 L303.57719,353.728974 C303.79493,347.347501 302.564417,340.706974 300.565671,333.927985 C289.23423,350.395869 274.817574,366.441671 275.995606,382.984367 L254.745248,401.276805 C249.096277,402.256079 243.418274,403.868475 237.745854,406.117344 C252.806799,398.104493 260.624242,383.640939 257.043248,373.149195 C256.865706,373.236292 256.684813,373.325621 256.507271,373.412717 L257.450813,376.47895 L246.885373,385.21872 C237.317073,396.046566 224.398918,400.402493 211.476297,412.326857 C218.774513,412.09795 226.490344,411.531825 231.345399,408.403061 C232.49105,407.664977 233.654566,406.955924 234.832598,406.274787 L237.23891,404.957178 L237.116082,405.14142 C236.716332,405.718711 237.340522,406.44898 238.007143,406.185458 C243.704128,403.927656 249.40223,402.314143 255.066834,401.349385 L276.733691,382.697397 C275.727618,370.914843 282.884023,359.367895 291.296624,347.537327 L299.881184,335.521399 L298.055513,340.634394 C293.785566,352.159009 289.187332,363.681391 283.973843,375.204889 L313.625636,343.404723 L313.580971,343.545417 L311.333219,347.68137 C308.217854,353.052303 304.634627,358.284776 300.628201,363.353105 C307.285478,358.857601 315.696962,355.601542 324.591942,352.543125 L339.120259,347.584224 L334.443863,350.739787 C322.506099,358.606362 310.232233,366.239563 297.28393,373.403784 L289.698743,377.472741 L288.107563,377.304131 C285.224455,380.15709 282.19507,382.936353 279.038391,385.643035 L278.501297,386.756303 L277.580087,387.266598 L277.503041,386.943895 C271.663128,391.840265 265.394434,396.478697 258.733808,400.816758 C268.524315,399.644309 278.185294,400.477306 287.521338,403.541306 L289.890802,404.465866 C289.753458,404.455816 289.632863,404.473682 289.523434,404.52058 L286.135615,405.928636 L281.678076,406.041414 C264.257717,406.43893 245.750889,406.946991 232.565863,413.744962 L195.308784,419.77135 L195.245137,419.62619 L195.25407,419.623956 C195.407047,419.613907 195.553324,419.554726 195.670569,419.458697 L214.349356,404.181128 L214.472184,404.049367 C216.676388,401.042315 218.804662,398.460694 220.91842,396.169394 C219.081583,397.983898 217.30951,399.906714 215.6357,401.98809 C215.286198,401.468863 214.78372,401.0077 214.10705,400.619117 C213.701717,400.38686 213.409163,399.920114 213.131125,399.515898 C212.034606,397.924717 211.034117,396.260956 209.843802,394.744589 C209.450752,394.244344 208.554108,393.794347 207.950017,393.863577 C204.716292,394.233178 201.495965,394.72784 198.285688,395.267166 C194.617598,395.883539 191.007571,395.389994 187.452259,394.63181 C184.268781,393.952907 181.099819,393.515192 177.86051,393.844595 C175.57256,394.077968 174.859041,394.900915 174.476041,397.230181 C174.320831,398.175956 174.094157,399.170863 173.631878,399.992694 C172.96414,401.181892 172.041813,402.22593 171.250131,403.348131 C170.815767,403.963388 170.661673,404.577528 170.704105,405.169335 L169.536122,404.21351 C167.636755,401.635239 165.52858,399.240093 163.288644,396.980058 C165.14558,398.969872 167.030431,401.23549 168.946548,403.871825 L168.239729,403.339198 L187.719131,419.458697 C187.835259,419.554726 187.98042,419.613907 188.13563,419.623956 L188.146796,419.62619 L188.085382,419.77135 L150.830536,413.744962 C137.64216,406.946991 119.136449,406.43893 101.713857,406.041414 L93.3939359,406.873294 L90.3556181,405.465239 C89.8453236,405.681863 89.3339125,405.887321 88.8247347,406.117344 L93.7892187,408.209886 L128.768397,418.938353 C141.969055,418.847907 154.718601,418.941703 165.059601,419.264405 C165.122131,419.389466 165.160096,419.466513 165.160096,419.466513 C166.567035,420.663528 167.950525,420.69591 169.481408,420.213531 C170.36242,419.936609 171.242315,419.705469 172.127793,419.537977 C174.884723,419.669738 177.361382,419.824948 179.525388,420.003606 C179.733079,420.073953 179.938536,420.128668 180.148461,420.211297 C176.086204,421.412778 172.367866,422.546146 168.630545,423.609166 C163.035172,425.200347 157.417466,426.712248 151.825443,428.314595 C147.620259,429.519426 143.450808,430.845968 139.246741,432.054149 C136.492044,432.846948 133.688216,433.468904 130.940219,434.281802 C129.636009,434.667035 128.385397,435.318023 128.16319,436.904738 C127.958848,438.360808 128.509341,439.371347 129.724222,440.338338 C132.044554,442.186341 134.361536,443.995262 137.386455,444.344764 C139.238924,444.558038 150.081286,440.778286 153.564017,438.873335 C157.282356,436.839974 160.808636,434.409096 164.647569,432.651539 C169.493691,430.432819 174.42021,428.391641 179.350079,426.357163 C180.45888,426.486691 182.274501,426.448726 184.74781,426.230985 C180.545977,429.900192 175.679755,432.669405 171.221099,435.986878 C168.048787,438.347408 164.909974,440.885481 162.284805,443.81772 C158.814356,447.692385 156.070825,452.149924 154.43498,457.490708 C154.978773,457.394679 155.433236,457.379047 155.837452,457.231653 C157.050099,456.787239 158.304061,456.400889 159.426262,455.783399 C160.348589,455.275338 161.362478,454.625466 161.888405,453.764554 C163.193732,451.630697 164.332682,449.381828 165.375603,447.103927 C167.089612,443.363257 169.798528,440.476799 172.958557,437.974458 C176.453571,435.208595 179.994367,432.501913 183.555262,429.823146 C184.397192,429.188907 185.399915,428.766825 186.328942,428.246481 C186.429437,428.410624 186.528816,428.574767 186.629312,428.73891 C186.478569,428.96 186.351274,429.20119 186.173732,429.397714 C182.601671,433.336026 179.097723,437.339102 175.425166,441.182501 C171.836356,444.939921 169.290466,449.380711 166.807108,453.857233 C166.290114,454.788493 166.029942,456.335009 166.450907,457.217137 C167.386633,459.180152 168.828187,460.901977 170.206093,462.931988 C170.560061,462.123557 170.834749,461.628895 170.996659,461.100735 C171.768242,458.589461 172.375682,456.020122 173.286843,453.561329 C175.751219,446.904052 179.409259,440.931262 183.903647,435.443085 C186.475219,432.303155 189.002125,429.116327 191.34479,425.806671 C191.460918,425.643644 191.57258,425.518583 191.685359,425.391289 C192.634484,425.252828 193.633857,425.097618 194.671195,424.931242 C195.748732,425.183598 196.751455,425.614612 197.458274,426.650834 C197.803309,427.157778 198.201942,427.636808 198.629606,428.077872 C203.144093,432.726353 207.43749,437.572475 210.553971,443.28956 C212.265746,446.428373 213.725166,449.72798 215.015977,453.065551 C215.941653,455.45958 216.39835,458.035618 217.144251,460.826047 C218.404913,459.488338 219.471283,458.294673 220.605767,457.171356 C221.558242,456.22893 221.922259,455.107845 221.3673,453.942096 C219.761603,450.565443 218.490892,446.897353 216.257656,443.97963 C212.832988,439.504224 208.704851,435.568146 204.899417,431.381945 C204.200414,430.613711 203.61419,429.742749 202.976601,428.919802 C203.109478,428.788041 203.243472,428.655163 203.37635,428.523402 C203.978207,428.869554 204.658227,429.127493 205.169638,429.576373 C209.780155,433.618531 214.569329,437.489845 218.867192,441.843539 C221.185292,444.190671 222.702776,447.348466 224.469265,450.209242 C225.28663,451.530201 225.520003,453.355872 226.583023,454.347429 C228.121723,455.782283 230.17295,456.667761 232.283359,457.956338 C232.368222,457.094309 232.515615,456.729175 232.414003,456.45672 C231.385598,453.712073 230.611781,450.817799 229.197026,448.281959 C226.162058,442.840679 221.583924,438.723708 216.620557,435.071251 C213.3243,432.64484 209.828169,430.489767 206.528563,428.065589 C206.455983,428.011991 206.388985,427.950577 206.316405,427.89698 C212.839688,429.401064 210.816376,426.701082 205.51579,424.05023 C205.956854,424.154076 206.401268,424.247872 206.837866,424.3707 C210.387595,425.372306 213.969706,426.299099 217.444621,427.525146 C222.809971,429.416697 228.232268,431.241251 233.372061,433.646446 C237.509131,435.582662 241.263201,438.337359 245.188114,440.726921 C247.33537,442.034481 249.522825,443.27281 252.164743,443.007055 C253.147367,442.908793 254.127758,442.651971 255.072417,442.351601 C255.653058,442.166242 256.231466,441.837956 256.68593,441.433741 C257.159376,441.012776 257.453047,440.395286 257.878478,439.91179 C259.395962,438.189965 261.020641,436.556353 262.442096,434.761948 C263.764172,433.092603 263.422487,431.824125 261.417041,431.098324 C259.009612,430.226245 256.550819,429.183324 254.045128,428.9533 C246.440959,428.256531 239.144977,426.143889 231.741799,424.529259 C227.689592,423.646015 223.651901,422.699122 219.616443,421.744414 C231.209172,420.665761 242.945945,420.143184 254.85021,420.276061 L289.831621,405.75221 L294.601813,406.117344 C287.004344,402.67481 279.154519,400.789959 271.169583,400.312047 L278.590627,397.106236 C299.720391,397.135268 315.749443,387.304563 330.371557,374.802907 C315.272647,377.068525 300.901773,380.250886 289.031006,386.644641 C291.967711,384.314259 294.561615,381.853233 296.870781,379.280545 C322.724956,379.745058 333.948085,365.345152 341.046426,346.753461 C335.391872,348.790172 329.549726,350.650458 323.87284,352.610122 C349.539423,335.624128 363.969478,315.191134 373.182694,289.843904 C370.538542,291.578012 367.932356,293.331102 365.344035,295.089776 C366.14465,290.990671 366.518717,286.678292 366.614746,282.225219 C363.867866,284.405974 361.036122,286.547647 358.212195,288.682621 C358.340606,286.80112 358.619761,284.970983 358.982662,283.373102 C359.688364,280.236522 360.296921,277.160239 360.836248,274.134204 L360.836248,274.134204 Z M327.380137,103.811983 L327.39912,103.318437 L327.477283,103.027 L327.473933,101.518449 L327.527531,100.196373 C327.785469,96.5327493 328.361644,92.7273149 329.135461,88.8370175 L329.934959,85.286172 L330.962248,81.7643586 L331.050461,81.8994694 L332.762236,93.7869854 C334.965324,106.621394 338.300662,119.456918 343.374574,132.29021 C331.13309,125.836157 327.269592,115.697265 327.380137,103.811983 L327.380137,103.811983 Z M211.145778,403.583738 C211.370219,403.191805 211.95421,402.855703 212.404207,402.806571 C212.652096,402.779773 212.970332,403.408429 213.165741,403.636219 C213.042913,404.171079 212.893286,404.681373 212.730259,405.177152 L208.223589,408.864224 C209.179414,407.093268 210.144172,405.327895 211.145778,403.583738 L211.145778,403.583738 Z M184.875105,397.241347 C190.298519,397.977198 195.676152,398.698534 201.14088,397.760574 C204.522,397.179933 205.072493,397.284895 206.996426,398.753248 C205.930055,399.053618 205.090359,399.374087 204.222746,399.519248 C196.621927,400.787726 189.078055,399.705723 181.527484,398.925207 C181.192499,398.890592 180.85863,398.823595 180.522528,398.816895 C178.126265,398.773347 178.126265,398.777813 176.039306,397.171 C178.988294,397.171 181.980831,396.847181 184.875105,397.241347 L184.875105,397.241347 Z M181.832321,411.995222 C180.709003,411.323017 179.354545,410.859621 178.511499,409.931711 C176.943767,408.207653 175.63509,406.239055 174.326414,404.29949 C174.151105,404.038201 174.550854,402.974064 174.773061,402.943915 C175.294522,402.873569 176.233598,403.06116 176.365359,403.397262 C177.504309,406.275904 179.307647,408.645367 181.558749,410.71781 C181.817805,410.95565 182.026612,411.248204 182.257752,411.515076 C182.115942,411.674752 181.974131,411.835545 181.832321,411.995222 L181.832321,411.995222 Z M189.66093,411.723883 C187.766029,412.017554 186.294327,411.174507 185.016915,409.933945 C182.91879,407.896117 181.355525,405.504321 180.366201,402.562032 C189.485621,402.802105 198.445364,404.819834 207.477688,402.860169 C206.919379,406.212257 205.788245,409.000452 203.74595,411.450312 C202.305513,413.178837 201.583061,413.499306 199.573149,412.761222 C196.366222,411.58319 193.054332,411.199073 189.66093,411.723883 L189.66093,411.723883 Z M194.981615,419.574825 C193.885096,419.492195 192.764012,419.408449 191.436353,419.30907 C191.764638,417.703373 192.119723,415.960332 192.555204,413.824242 C192.704831,414.869397 192.79751,415.509219 192.885723,416.125592 L195.576773,416.125592 C195.823545,415.777207 196.324907,415.068155 196.827385,414.360219 C196.920064,414.387017 197.012743,414.414933 197.105423,414.441732 C196.943513,415.755991 196.781603,417.062434 196.623044,418.352128 L195.212755,419.505595 C195.136825,419.529044 195.057545,419.551376 194.981615,419.574825 L194.981615,419.574825 Z M365.293787,283.540595 L361.990831,287.916621 C353.503417,298.904143 344.628536,309.78112 334.968673,320.423606 L334.729717,320.681545 C334.961974,322.196796 335.189764,323.715397 335.406388,325.240697 L336.236035,331.720431 C339.777948,325.62593 343.041822,319.530312 345.696023,313.433577 L348.373673,306.602108 L348.684093,306.719353 C348.839303,306.728286 349.001213,306.686971 349.153073,306.580892 C353.081335,303.829545 357.082178,301.025717 361.152251,298.220773 L371.606029,291.172679 L371.443003,291.575778 L370.707152,292.207784 C355.271023,305.735612 346.900854,317.221146 336.307499,332.280974 L336.451542,333.402058 L335.955764,334.290886 L335.324875,333.67898 C334.825746,334.388032 334.328851,335.095968 333.818557,335.822886 C334.275254,335.060236 334.726367,334.297586 335.176364,333.534936 L334.053047,332.446233 C332.291023,330.497735 330.890784,328.348245 329.758534,326.045778 C324.696904,336.893723 318.717414,347.884595 308.674551,358.571746 L307.352475,355.164945 L309.361271,353.708875 C319.740236,345.604461 324.426682,335.58058 328.580501,323.32793 C325.330026,314.809251 325.283128,304.454851 325.773324,293.589041 L326.46116,279.057373 L327.710656,284.294312 C329.612257,292.692397 331.37763,301.173111 332.919679,309.787819 C333.136303,309.106682 333.35516,308.422195 333.578484,307.729892 C336.615685,298.327968 345.163397,285.023464 353.958997,280.306869 L356.49372,279.328711 L356.172134,280.541359 L354.645717,282.080058 C348.192781,289.120335 343.661545,296.582694 339.784647,304.286242 C343.77544,300.26195 348.483102,296.4353 353.434187,292.625399 L365.293787,283.540595 L365.293787,283.540595 Z M354.618918,291.404936 C354.463708,291.524414 354.308499,291.642776 354.153289,291.762254 C354.220286,291.537813 354.282816,291.313373 354.348697,291.09005 L354.618918,291.404936 L354.618918,291.404936 Z M353.148332,277.796711 L351.300329,278.372886 L352.145609,272.042778 C351.184201,270.947376 349.655551,267.757198 351.047974,269.313764 C339.787997,255.230977 328.425292,227.795671 338.253764,211.33337 C337.635157,208.230289 337.311338,204.979813 337.393968,201.519414 L337.776968,196.990411 L338.393341,197.239417 L341.041959,203.964808 C345.483866,215.659149 349.384213,227.605845 353.019921,239.679837 L354.367679,244.317152 L348.366974,234.503195 C347.028149,232.301224 345.735105,230.090321 344.526924,227.845918 C347.650105,242.921379 352.315335,250.763388 352.758633,267.63437 C353.653044,262.126093 354.755146,256.68593 356.073872,251.395394 C355.436283,245.393571 354.932688,238.844606 355.158245,237.824017 C354.640134,235.127385 355.593726,229.853598 357.25637,223.879691 L356.805257,221.548192 C356.337394,218.274268 356.174367,214.923297 356.234665,211.516496 C351.709012,202.968784 348.824787,192.312898 346.560286,180.743618 C337.682055,170.59691 331.013612,159.828245 328.922187,149.443697 L328.884222,149.210324 L344.708933,170.423834 C344.466627,168.964414 344.226554,167.499411 343.990948,166.026592 L341.532155,150.517883 L342.86428,154.972073 C344.904341,161.930837 346.905321,168.945431 348.872802,176.004691 L352.463845,180.819548 C352.253921,171.638714 353.697708,161.656149 355.501047,151.394429 L358.668892,133.579904 L359.002761,140.343259 C359.642583,156.18807 359.953003,172.19814 359.645933,188.513047 C362.161673,178.591895 365.797382,168.353624 369.735694,157.964609 L378.233157,135.64788 L378.544694,137.201096 L378.10028,144.640006 C376.897682,161.049825 374.348443,177.580239 370.227006,194.205566 C370.403431,194.131869 370.569808,194.099487 370.709385,194.158668 L371.441886,193.407184 L369.496738,197.062991 C368.295257,201.709239 366.977647,206.362187 365.522694,211.02295 L363.058318,218.522157 L361.526318,220.566685 L360.476697,221.806131 C359.322114,228.130656 359.017277,234.460764 357.840362,244.041347 C357.726466,243.588 357.692968,244.154125 357.701901,245.308708 C362.303484,229.417 369.075773,215.319697 378.581542,205.692216 L378.774717,205.514673 L353.148332,277.796711 L353.148332,277.796711 Z" id="Fill-14" sketch:type="MSShapeGroup"></path>
                <path d="M289.373808,386.675907 C288.986341,386.883598 288.607808,386.731738 288.413516,386.455933 L288.289571,386.032735 L284.244064,389.551198 C296.67314,388.854429 312.099219,383.270222 326.026796,376.329324 L327.732988,375.438262 L327.815618,375.370149 L319.334904,376.819519 C308.412146,378.960076 298.186157,381.929163 289.373808,386.675907" id="Fill-15" sketch:type="MSShapeGroup"></path>
                <path d="M167.961691,69.422379 C170.436117,70.7947026 174.064009,70.9219971 177.071061,68.9243673 C183.302907,61.3726793 189.894303,58.4326239 195.430496,57.6286589 C190.42693,56.797895 184.734411,54.0331487 177.525525,64.6387872 C174.352096,65.1267493 171.164152,66.7480787 167.961691,69.422379" id="Fill-16" sketch:type="MSShapeGroup"></path>
                <path d="M175.968959,82.8966093 C166.91877,88.5623294 186.805738,78.9627638 204.286394,81.4193236 C199.788656,76.3844927 194.968216,72.0575977 175.968959,82.8966093" id="Fill-17" sketch:type="MSShapeGroup"></path>
                <path d="M192.715997,114.328292 C206.831166,114.328292 219.235676,117.774175 227.642694,124.029469 L226.66007,123.01223 L227.833636,124.287408 C227.840335,124.305274 227.847035,124.32314 227.852618,124.341006 C229.94516,121.016834 219.346222,119.864484 219.275875,114.37184 C219.233443,111.105732 178.518198,111.252009 178.938047,109.00984 C178.251327,106.79112 170.284257,102.449708 172.238338,98.4019679 C174.19242,94.3542274 223.256618,94.4826385 221.600673,94.010309 C210.833125,92.1734723 200.945472,89.7917259 191.057819,91.2355131 C181.171283,92.6793003 174.386711,91.9881137 166.782542,93.4709825 C161.85379,94.5072041 158.970682,96.7292741 157.457665,100.667586 L158.233714,123.351682 C164.883175,117.921569 178.486933,114.328292 192.715997,114.328292" id="Fill-18" sketch:type="MSShapeGroup"></path>
                <path d="M192.006945,116.314755 C181.078603,116.12828 176.851087,118.427397 170.436117,119.421187 C159.099093,122.908385 159.194006,124.387904 159.48991,125.433058 C160.33519,128.414429 177.728749,131.295303 191.638461,131.295303 C211.152478,131.295303 225.59705,127.862819 226.214539,124.967429 C226.446796,123.877609 214.917714,119.452452 211.785601,118.547991 C208.653487,117.642414 202.936402,116.500114 192.006945,116.314755" id="Fill-19" sketch:type="MSShapeGroup"></path>
                <path d="M192.006945,20.6976327 C116.790434,20.6976327 55.8152711,101.974029 55.8152711,202.232933 C55.8152711,302.492953 116.790434,383.76935 192.006945,383.76935 C267.223455,383.76935 328.198618,302.492953 328.198618,202.232933 C328.198618,101.974029 267.224571,20.6976327 192.006945,20.6976327 L192.006945,20.6976327 Z M163.533184,66.2991983 C165.035035,55.964898 170.977676,52.0064869 176.729376,48.1798367 C177.330117,47.7800875 177.931974,47.3803382 178.528248,46.971656 C183.513948,44.1432624 188.192577,42.7218076 192.474808,42.7218076 C210.818609,42.7218076 219.437784,67.4772303 225.948784,94.4837551 C228.27135,95.688586 230.337093,97.5332391 231.242671,100.601706 L231.281752,100.734583 L231.253837,100.868577 C230.828405,103.005784 230.868603,106.098816 230.911035,109.372741 C230.994781,115.833493 231.089694,123.157391 227.644927,126.337519 L226.88116,126.76965 C221.692236,130.627566 206.069633,132.411921 191.638461,132.411921 L191.638461,132.411921 C177.373665,132.411921 160.491516,130.581784 157.496746,125.515688 L157.199726,125.793726 L157.163994,124.730706 C157.140545,124.650309 157.108163,124.571029 157.091414,124.488399 C157.000968,124.045102 157.012134,123.596222 157.10928,123.140641 L156.334347,100.482227 L156.373429,100.378382 C158.167834,95.5959067 161.633816,93.7233382 164.860843,92.7976618 C164.411962,90.9530087 165.699423,87.1084927 168.20288,83.0272536 C170.688472,78.0248047 172.902726,73.5962974 174.281749,71.091723 C172.978656,71.635516 171.82519,72.0966793 169.961554,72.0966793 C169.960437,72.0966793 169.961554,72.0966793 169.960437,72.0966793 C168.98898,72.0966793 167.873478,71.9693848 166.551402,71.7080962 L166.44309,71.6745977 C166.099172,71.5294373 165.815551,71.3708776 165.560962,71.2067347 C164.570522,79.4094111 157.797117,83.134449 153.260297,79.3133819 C149.539726,72.4193819 157.87863,67.6201574 163.533184,66.2991983 L163.533184,66.2991983 Z M193.954327,190.229289 C193.952093,189.149519 194.154201,188.069749 194.262513,186.98998 C194.450105,186.996679 194.637697,187.004496 194.825289,187.012312 L194.825289,233.583102 L193.942044,233.584219 C193.991175,225.637248 194.036956,217.691394 194.062638,209.745539 C194.083854,203.240122 193.968843,196.734706 193.954327,190.229289 L193.954327,190.229289 Z M190.58549,213.032863 C190.606706,216.245373 190.318618,219.46235 190.381149,222.672627 C190.451496,226.312802 190.670353,229.949627 190.828913,233.587569 L187.649901,233.592035 L187.649901,135.855571 L190.469362,135.855571 C190.624571,137.177647 190.943924,186.797921 190.900376,188.097665 C190.757449,192.369845 190.355466,196.635327 190.296286,200.907507 C190.240455,204.947431 190.557574,208.990706 190.58549,213.032863 L190.58549,213.032863 Z M192.000245,380.418379 C149.240472,380.418379 111.206227,353.243245 86.9086181,311.042898 C88.1145656,310.831857 89.9659184,310.477889 92.5564723,309.911764 C97.7844781,308.768347 102.904172,307.187216 108.011583,305.600501 C113.167009,304.000388 118.206306,302.069755 123.357265,300.465175 C128.522741,298.855012 133.745163,297.405641 138.967586,295.99312 C144.152044,294.590647 149.361067,293.597974 154.644904,292.670064 C157.085831,292.242399 159.512242,291.660641 161.954286,291.260892 C163.614697,290.989554 164.264569,292.022426 164.839627,293.436064 C162.969292,294.062487 161.110122,294.684443 159.161624,295.337665 C158.933834,294.552682 158.806539,294.111618 158.679245,293.671671 C158.574283,293.663854 158.470437,293.657155 158.365475,293.649338 C158.257163,294.025638 158.008157,294.406405 158.052822,294.812854 C158.105303,295.29635 158.145501,295.780962 158.197983,296.264458 C158.289545,297.118671 158.419073,297.982933 158.742892,298.783548 C158.952816,299.303892 159.922041,299.42002 160.388787,299.468035 C161.305531,299.560714 162.274755,299.355257 163.171399,299.178831 C164.080327,299.000172 165.278458,298.900793 166.024359,298.310102 C166.724478,297.754026 167.314052,297.021525 167.921493,296.368303 C168.636128,295.598953 169.339598,294.818437 170.017385,294.016706 C170.629292,293.294254 171.015641,292.412125 171.640948,291.70084 C172.703968,290.490426 174.372195,290.880125 175.764618,290.493776 C174.206936,289.811522 172.596773,290.187822 171.054723,290.7037 C170.692939,290.824294 170.333388,290.949356 169.970487,291.065484 C169.581904,291.190545 169.253618,291.444017 169.010195,291.078883 C168.68191,290.584222 168.207347,290.239187 167.628939,290.099609 C166.359344,289.791423 164.923373,290.049362 163.619163,289.889685 C161.916321,289.681994 160.182213,289.78249 158.471554,289.859536 C155.041303,290.01363 151.630035,290.417845 148.253382,291.036452 C146.578455,291.343522 144.93256,291.734338 143.276615,292.128504 C142.493866,292.31498 141.660869,292.509271 140.850204,292.444507 C140.051822,292.38086 137.398738,293.073163 136.843778,293.270805 C136.092294,293.537676 133.080776,294.215464 132.978047,294.135067 C133.174571,293.801198 133.371096,293.466213 133.567621,293.131227 C132.378423,293.331102 127.139251,294.351691 126.486029,294.538166 C125.377227,294.853052 124.089767,295.402429 122.93295,295.078609 C121.702437,294.734691 120.537805,294.006656 119.388805,293.462863 C119.932598,294.313726 120.383711,295.019429 120.94537,295.898207 C120.422793,296.094732 117.938318,294.725758 117.015991,294.122784 C117.032741,294.467819 117.04614,294.727991 117.061773,295.048461 C116.105948,294.973647 115.160172,294.898834 114.167499,294.819554 C114.324942,295.381213 112.474706,296.225376 111.84605,296.696589 C111.536746,296.495598 111.033152,295.966321 110.753997,296.244359 C110.547423,296.450933 108.972991,297.333061 108.374484,297.451423 C106.903898,297.741743 105.355149,297.468172 103.991758,296.877481 C103.94821,297.203534 103.906895,297.50502 103.852181,297.909236 C102.461991,297.233682 100.974656,297.060606 99.5643673,297.786408 C99.1389359,298.005265 96.3205918,296.148329 95.7075685,295.777612 C95.4328805,296.259991 95.0398309,296.952294 94.5887172,297.74621 C94.2135335,297.312962 90.3835335,296.278974 89.9927172,295.661484 C89.8520233,296.219793 89.7403615,296.66309 89.6286997,297.107504 C87.5953382,297.695962 82.184207,297.279464 81.8302391,297.528469 C81.517586,297.74956 81.1636181,298.131443 80.7426531,298.083429 C80.5807434,298.064446 80.3138717,297.988516 80.0101516,297.895837 C66.8117259,270.144528 59.1606589,237.164096 59.1606589,201.778469 L186.576831,201.778469 L186.610329,252.913994 L189.080289,250.494283 L194.47802,251.425542 L195.261886,253.100469 L197.909388,254.402446 L197.909388,201.778469 L324.839831,201.778469 C324.839831,241.947688 314.978977,279.019408 298.336901,308.857676 C298.089012,308.091676 297.794224,307.188332 297.535169,306.845531 C297.321895,307.831504 294.822904,309.197128 294.727991,309.325539 C295.480592,309.819085 296.234309,310.311513 297.103038,310.878755 C297.103038,311.163493 296.213093,312.276761 295.700566,312.23098 C295.938405,311.865845 289.660778,308.977155 289.132618,309.23286 C287.962402,309.801219 286.519732,309.570079 285.26912,309.469583 C283.869997,309.355688 282.920872,308.912391 281.762939,308.167606 C280.854012,307.583615 279.648064,307.705327 278.630825,307.484236 C278.66879,306.605458 278.68219,305.718863 278.859732,304.853484 C278.949061,304.420236 279.080822,303.994805 279.269531,303.592822 C279.463822,303.18079 279.97635,302.778808 279.692729,302.401391 C278.515813,300.842592 277.338898,299.282676 276.163099,297.723878 C276.490268,297.165569 277.452793,295.874758 276.441137,295.45491 C276.191015,295.351064 274.273781,294.432087 273.743388,294.339408 C274.071673,294.730224 274.399959,295.122157 274.803058,295.60342 C273.776886,295.872525 272.329749,294.722408 271.989181,296.812717 C271.625163,296.079099 271.261146,295.345481 270.897128,294.611863 C269.743662,295.13444 269.247883,296.257758 268.844784,297.382192 C268.345656,298.775732 269.031259,299.306125 269.951353,300.293216 C269.337213,300.260834 269.004461,300.244085 268.599128,300.222869 C268.671708,302.150152 270.697254,300.450659 271.060155,301.827449 C270.502962,301.914545 267.029163,301.647673 266.476437,301.614175 C266.054356,301.588493 264.831659,301.953627 264.594936,302.059706 C262.298052,303.088111 259.950921,302.231665 258.474752,300.2787 C258.318426,300.608102 258.192248,300.872741 258.035921,301.19991 C255.066834,300.11344 251.519338,300.103391 249.437962,296.916563 C249.229155,297.334178 249.128659,297.534052 249.194539,297.402292 C246.231035,296.791501 243.232915,295.954038 240.201297,295.813344 C236.982087,295.662601 233.731612,295.812227 230.509052,295.812227 C230.681012,295.328732 230.94565,294.859752 231.060662,294.358391 C231.192423,293.783332 230.739076,293.475146 230.445405,293.047481 C229.849131,293.762117 229.405834,294.482335 228.942437,295.287417 C228.313781,293.75095 228.636484,292.273665 229.248391,290.798612 C229.822332,289.411773 230.528035,287.931137 229.812283,286.457201 C228.663283,287.540321 227.665026,288.48163 226.545058,289.53795 C225.474222,288.362152 223.382796,286.697274 225.27323,285.257953 C225.689729,284.940834 225.958834,284.906219 225.840472,284.355726 C225.791341,284.130169 225.805857,283.87893 226.048163,283.780668 C226.302752,283.676822 226.597539,283.718137 226.863294,283.664539 C227.311058,283.572977 227.725324,283.370869 228.154105,283.217892 C227.880534,282.732163 227.776688,282.335764 227.313292,281.991845 C226.96044,281.730557 226.635504,281.421254 226.399898,281.047187 C225.924219,280.291236 225.981166,279.405758 226.315035,278.605143 C227.690708,279.335411 229.134496,278.341621 229.34777,276.52265 C229.546528,277.43716 229.745286,278.351671 229.942927,279.266181 C230.746892,277.465076 232.315741,275.972157 231.228155,273.756787 C231.982988,273.608277 232.617227,273.483216 233.309531,273.345872 C233.546254,273.879615 233.738312,274.309513 233.93037,274.739411 C234.018583,274.734945 234.299971,273.997977 234.38595,273.383837 C235.764974,273.662991 237.131714,273.939913 238.597834,274.236933 C238.597834,274.851073 239.886411,275.448464 240.907,275.600324 C241.275484,275.655038 242.728204,275.975507 243.36021,276.13965 C243.982166,276.300443 246.308082,276.242379 246.857458,276.347341 C248.171717,276.600813 249.403347,276.9023 250.745522,276.959248 C252.092163,277.016195 253.438805,277.024012 254.788796,277.020662 C256.654665,277.016195 258.926983,276.61198 259.794595,278.720155 C260.544962,278.13728 263.27956,277.424878 263.459335,277.343364 C263.918265,277.134557 265.48823,277.922889 266.11577,277.865942 C266.626064,277.82016 270.400233,278.082566 271.766974,278.269041 C274.645615,278.66209 277.537656,278.895464 280.439746,279.042857 C281.846685,279.114321 283.234641,279.262831 284.637114,279.040624 C285.602988,278.887647 286.403603,278.950178 286.926181,279.884787 C287.149504,279.106504 287.330397,278.480082 287.564886,277.662717 C288.175676,278.108248 288.838948,277.919539 288.745152,277.764329 C291.01077,278.267924 293.427131,278.806134 295.931706,279.36221 C296.032201,278.769286 296.129347,278.202044 296.251058,277.488525 C298.604889,277.466192 300.95872,277.322149 303.313668,277.410362 C304.489466,277.45391 305.665265,277.556638 306.825431,277.75763 C307.392673,277.857009 308.029146,278.117181 308.607554,278.034551 C309.076534,277.967554 312.598347,275.590274 312.740157,275.633822 L313.163356,273.517831 C312.763606,274.353061 311.084213,274.022542 310.372927,274.028125 C309.054201,274.037058 307.735475,274.048224 306.416749,274.064974 C303.669869,274.101822 300.922988,274.167703 298.179458,274.309513 C292.762743,274.587551 287.368362,275.167076 281.96393,275.607023 C276.528233,276.049204 271.132735,276.134067 265.682522,275.924143 C263.024971,275.821414 260.369653,275.588041 257.733318,275.236306 C255.070184,274.880105 252.442781,274.309513 249.782997,273.937679 C244.384149,273.181729 238.935052,272.679251 233.510522,272.143274 C231.141058,271.909901 228.685615,271.998114 226.632155,270.644773 C224.481548,269.228901 222.351041,267.800746 220.15912,266.448522 C215.646866,263.66591 211.311038,260.666673 207.025458,257.546843 C206.722854,258.386539 206.549778,258.797455 207.405108,259.247452 C208.542942,259.844843 209.582513,260.565061 210.557321,261.400292 C211.538828,262.241105 212.412023,263.204746 213.47281,263.948414 C214.532481,264.692082 215.691531,265.280539 216.832714,265.885746 C217.406656,266.190583 217.978364,266.499886 218.535557,266.834872 C218.719799,266.945417 219.521531,267.911292 219.630959,267.900125 C220.641499,267.801863 221.381816,268.426052 222.093102,269.049125 C222.834536,269.696764 223.726714,269.954703 224.499414,270.531994 C225.341344,271.16065 225.872854,272.09191 226.063796,273.119198 C225.549035,272.629003 225.035391,272.138808 224.52063,271.649729 C224.460332,271.675411 224.400035,271.701093 224.339738,271.726776 C224.759586,272.725032 225.180551,273.723289 225.694195,274.944869 C225.547918,274.956035 225.836006,274.934819 226.351883,274.896854 C225.957717,275.369184 225.715411,275.660621 225.151519,276.337292 C224.606609,275.443997 224.12088,274.648965 223.635152,273.852816 C223.256618,274.144254 223.222003,274.202318 223.222003,274.667948 C222.279577,275.06993 221.338268,275.473029 220.395843,275.875012 C220.114455,275.995606 219.834184,276.115085 219.552796,276.235679 C219.412102,276.148583 219.264708,276.072653 219.112848,276.007889 C218.804662,275.873895 218.480843,275.780099 218.153673,275.701936 C216.675271,275.351318 215.222551,274.779609 213.722933,275.244122 C212.5717,275.60144 211.207192,275.742134 210.129656,275.055414 C209.677426,274.76621 209.367006,274.318446 209.136983,273.84165 C208.995172,273.549096 208.937108,273.152697 208.650137,272.963988 C208.369866,272.777513 208.047163,272.660268 207.760192,272.482726 C208.547408,271.782606 209.314525,271.099236 210.139706,270.365618 C209.186114,270.146761 208.226939,269.951353 207.277813,269.71128 C206.938362,269.6253 206.43365,269.607434 206.254991,269.261283 C206.083032,268.926297 206.001519,268.526548 205.930055,268.160297 C205.791595,267.440079 205.762563,266.407207 205.176338,265.875697 C204.60128,265.35312 203.60749,265.317388 202.901787,265.060566 L202.901787,263.871367 C202.414942,263.835636 201.98951,263.80437 201.541746,263.770872 L201.541746,264.781411 C200.674134,264.910939 199.678111,264.329181 198.820548,264.149405 C198.332586,264.047793 197.708397,264.051143 197.277382,263.767522 C196.899965,263.518516 196.888799,262.961324 196.847484,262.560458 C196.133965,262.377332 195.420446,262.194207 194.706927,262.012198 C194.058172,261.845822 192.835475,263.239362 192.311781,263.670376 C191.580397,264.272233 190.849012,264.872974 190.117627,265.473714 C188.606843,266.715394 187.096058,267.957073 185.585274,269.198752 C185.502644,269.121706 185.421131,269.045776 185.339618,268.968729 C185.723735,268.25856 186.107851,267.548391 186.491968,266.839338 C186.378073,266.756708 186.263061,266.674079 186.146933,266.592566 C185.138627,267.509309 184.129204,268.584612 182.745714,268.891682 C181.530834,269.161904 180.337169,268.71079 179.308764,268.083251 C178.342889,267.494793 178.485816,266.876187 179.293131,266.393808 C180.303671,265.789717 181.477236,265.48488 182.429711,264.776945 C183.316306,264.119257 183.911464,263.163431 184.635032,262.346067 C185.478079,261.394708 186.307726,260.432184 187.154122,259.483058 C187.869875,258.677977 188.639224,257.53121 189.601749,257.014216 C190.667003,256.442507 191.871834,256.958385 192.95272,257.255405 C194.157551,257.585924 195.356799,257.936542 196.590662,258.1487 C197.814475,258.359741 199.051688,258.483685 200.288901,258.584181 C201.578595,258.690259 202.723128,258.634429 204.005006,258.506017 C203.99719,258.321776 203.989373,258.137534 203.981557,257.954408 C203.22114,257.798082 202.53442,257.897461 201.759487,257.862845 C201.00912,257.829347 200.266569,257.702052 199.537417,257.52786 C198.165093,257.201808 196.837434,256.717195 195.468461,256.376627 C194.825289,256.21695 194.384224,256.205784 194.043656,255.583828 C193.934227,255.383953 193.916362,254.875892 193.705321,254.835694 C193.133612,254.727382 192.561904,254.61907 191.991312,254.511875 C191.198513,254.362248 190.404598,254.212621 189.612915,254.062994 C189.406341,254.023913 188.984259,253.830738 188.835749,254.01498 C187.986003,255.075767 187.13514,256.137671 186.285394,257.198458 C185.961574,257.60379 185.853262,257.68977 185.808598,258.198948 C185.747184,258.885668 185.414431,259.331198 184.733294,259.488641 C182.452044,260.015685 180.030099,260.207743 177.79128,260.920146 C175.747869,261.570017 173.962397,262.787131 172.126676,263.859085 C171.159685,264.42521 170.160312,264.987985 169.086125,265.324087 C167.936009,265.684755 166.850656,265.613292 165.664808,265.56081 C154.812397,265.078431 144.003534,267.155341 133.284,268.570096 C122.634813,269.975918 111.90188,271.897618 101.136566,271.962382 C95.7131516,271.994764 90.2997872,271.945633 84.8774898,271.867469 C82.1484752,271.828388 82.7670816,271.833971 80.0414169,271.991414 C78.7059417,272.068461 77.3447843,272.138808 76.0227085,272.353198 C75.1796618,272.489426 74.5085743,272.873542 74.2841341,273.747854 C75.0423178,273.819318 75.7926851,273.889665 76.5441691,273.960012 C76.5609184,274.056041 76.576551,274.153187 76.5933003,274.250332 C75.2969067,274.596484 73.9993965,274.942636 72.7030029,275.289904 C72.7141691,275.408265 72.7264519,275.527743 72.7376181,275.646105 L76.0528571,275.646105 C76.6290321,276.75379 76.9104198,278.089265 77.7166181,278.610726 C78.468102,279.095338 79.7790117,278.714571 80.8989796,278.714571 C80.865481,278.190878 80.8476152,277.907257 80.8174665,277.448327 C81.5365685,277.616936 91.4711195,276.259128 92.0484111,276.503668 C92.5698717,276.725875 92.960688,277.197087 93.4319009,277.500808 L93.4319009,276.313843 C95.1660087,276.847586 96.8130204,277.355647 98.35507,277.831327 C98.3628863,277.689516 98.3852187,277.252918 98.407551,276.817437 C100.085828,277.118924 101.762988,277.424878 103.441265,277.730831 C103.981708,277.048577 104.295478,276.064837 105.298201,276.517067 C105.79063,276.740391 107.310347,276.754907 107.487889,277.13679 C108.132178,278.52363 109.666411,278.96581 111.086749,278.97921 C110.589854,279.668163 110.263802,280.122627 109.918767,280.601656 C110.99407,281.181181 112.341828,279.652531 112.986117,281.59098 C113.335618,280.977956 115.728531,281.152149 116.679889,281.593213 C116.542545,280.764682 119.380988,275.995606 119.894633,275.44623 C120.225152,275.84598 121.914595,275.808015 122.372408,275.878362 C122.958633,275.967691 123.544857,276.058137 124.132198,276.147466 C124.162347,275.722035 127.316793,273.99016 127.947682,273.953312 C128.731548,273.907531 129.363554,273.69649 130.116155,273.483216 C132.06912,272.928257 134.113647,272.884708 136.129143,272.904808 C136.467478,272.908157 140.165717,272.93719 141.162857,273.187312 C141.136058,272.545257 143.291131,272.808778 143.981201,272.881359 C144.420032,271.687694 145.500918,271.825038 146.549423,271.894268 C146.793962,272.440294 146.858726,273.065601 146.462327,273.558029 C146.235653,273.839417 145.640496,274.810875 145.640496,275.113478 C146.437761,274.569685 147.112198,274.111872 147.764303,273.668574 C148.128321,274.360878 148.425341,274.92477 148.721245,275.487545 C148.83514,275.45628 149.094195,274.642265 149.123227,273.984577 C149.965157,274.986184 151.485991,276.509251 151.546289,276.438904 C151.187854,275.247472 151.220236,272.040545 151.636735,271.701093 C152.128047,272.343149 153.062656,274.248099 154.137959,273.885198 C154.970956,273.604927 154.840312,271.794889 155.638694,271.634096 C156.397994,271.48112 157.236574,271.725659 158.042773,271.807172 C158.132102,271.985831 158.221431,272.163373 158.310761,272.342032 C158.578749,271.636329 158.86237,269.86984 158.736192,269.693414 C159.450828,269.617484 160.155414,269.464507 160.872283,269.409793 C161.352429,269.372945 161.832574,269.461157 162.30937,269.416493 C163.139017,269.339446 163.096586,268.549997 162.968175,267.903475 C163.324376,268.143548 167.07398,267.692434 168.077819,267.703601 C170.331155,267.72705 172.592306,268.120099 174.841175,268.271959 C175.983475,268.349006 176.288312,268.881633 176.9527,269.709047 C177.444012,270.320953 178.01572,270.874796 178.682341,271.294644 C179.955286,272.097493 181.458254,272.268335 182.924373,272.026029 C185.349668,271.624047 187.611936,270.481746 189.89207,269.617484 C190.994172,269.199869 192.050493,268.409303 193.243041,268.282009 C194.33956,268.16588 194.968216,268.979895 195.966472,269.130638 C196.435452,269.200985 196.969195,269.175303 197.39686,269.41091 C197.749711,269.605201 198.02105,269.85644 198.411866,269.994901 C199.162233,270.261773 199.978481,270.297504 200.710983,270.62244 C201.656758,271.042289 202.107872,272.00593 202.872755,272.655802 C203.651038,273.31684 204.539866,273.832717 205.376213,274.413359 C206.424717,275.140277 206.872481,275.926376 207.473222,277.020662 C207.987983,277.960854 208.651254,278.808367 209.378172,279.59335 C210.978286,281.322991 212.787207,282.841592 214.375038,284.587983 C215.223668,285.521475 216.406166,286.558813 216.971175,287.695531 C217.450204,288.655822 216.783583,289.529017 216.090163,290.157673 C214.378388,291.709773 213.008297,287.69888 211.447265,289.603831 C212.029023,290.392163 212.572816,291.129131 213.116609,291.864983 C212.987082,291.976644 212.858671,292.08719 212.729143,292.197735 C209.229662,289.671945 205.730181,287.146155 202.149187,284.5623 C202.066557,284.966516 201.99286,285.3283 201.863332,285.962539 C201.492615,285.232271 201.208994,284.675079 200.925373,284.117886 C200.736665,284.298778 200.54684,284.480787 200.358131,284.662796 C200.810362,285.423213 201.262592,286.184746 201.714822,286.94628 C201.969411,287.375061 202.224,287.802726 202.478589,288.231507 C202.797942,288.208058 203.119528,288.238207 203.429948,288.31637 C205.033411,288.725052 206.229309,290.190055 207.448656,291.211761 C208.89356,292.421058 210.593052,293.379117 211.970959,294.655411 C212.873187,295.492875 213.728516,296.923262 212.87877,298.091245 C212.243414,298.965557 211.354586,299.955997 210.397644,300.207236 C209.417254,300.464058 208.309569,299.799671 207.478805,299.361956 C206.520746,298.856128 205.987003,297.81209 205.062443,297.289513 C204.048554,296.717805 203.034665,296.148329 202.023009,295.572155 C201.513831,295.28295 201.054901,294.949082 200.564706,294.638662 C200.177239,294.393006 199.725009,294.472286 199.292878,294.44772 C199.409006,295.161239 199.371041,295.36893 199.931583,295.893741 C200.45751,296.386169 200.99572,296.865198 201.546213,297.329711 C202.662831,298.27437 203.836397,299.149799 205.012195,300.019644 C205.89544,300.673983 207.251015,301.368519 207.757959,302.395808 C208.153242,303.19419 207.501137,304.030536 207.034391,304.635743 C206.382286,305.47879 205.487875,306.385484 204.332175,306.306204 C203.274738,306.234741 202.272015,305.497773 201.68579,304.656959 C200.890758,303.514659 199.407889,302.890469 198.24214,302.188117 C197.171303,301.543828 195.613621,301.413184 194.40544,301.11058 C193.854948,302.333277 194.575166,302.928434 195.592405,303.48116 C196.840784,304.160064 197.990901,305.000878 199.187915,305.764644 C199.113102,305.94107 199.038289,306.118612 198.963475,306.295038 C196.617461,305.340329 194.338443,304.307458 192.053843,303.214289 C191.996895,302.49407 191.898633,301.238991 191.790321,299.848802 C191.252111,299.911332 190.713901,299.97498 190.175691,300.038627 C190.597773,302.819006 188.614659,304.441452 186.684026,306.038216 C187.551638,305.741195 188.418134,305.444175 189.285746,305.147155 C189.349394,305.200752 189.414157,305.25435 189.477805,305.306831 C189.04344,305.647399 188.628058,306.01365 188.168012,306.319603 C187.757096,306.593175 187.318265,306.711536 186.917399,307.019723 C186.047554,307.688577 185.057114,307.53895 184.176102,306.976175 C182.927723,306.177793 183.927096,305.351496 184.056624,304.468251 C184.972251,304.667009 185.817531,304.850134 186.692959,305.039959 C186.521,303.745799 184.2163,304.115399 185.035898,302.343327 C185.579691,301.168644 186.269761,299.883417 187.406478,299.181064 C188.411434,298.559108 189.532519,298.756749 190.64802,298.652904 C190.482761,297.918169 190.342067,297.292863 190.183507,296.58381 C189.779292,296.768052 189.354977,296.961227 188.844682,297.193484 C188.28414,296.454283 187.753746,295.753047 187.240102,295.074143 C186.67621,295.123274 186.125717,295.170172 185.440114,295.229353 C186.898417,297.048324 185.690236,298.868411 184.639499,300.517656 C183.519531,302.278563 182.435294,304.069618 181.136668,305.70658 C180.126128,306.979525 178.476883,307.08337 177.337933,305.914271 C176.801956,305.366012 176.435706,304.693808 175.613875,304.551997 C174.87579,304.424703 174.131006,304.759688 173.387338,304.746289 C173.391805,304.508449 173.26116,304.152248 173.418603,303.937857 C173.676542,303.586122 173.935598,303.235504 174.194653,302.884886 C174.71388,302.18365 175.235341,301.484647 175.757918,300.786761 C176.737192,299.476968 177.720933,298.170525 178.703557,296.862965 C178.817452,296.917679 178.931347,296.971277 179.045242,297.025991 C179.079857,297.378843 179.114472,297.730577 179.156904,298.166058 C180.232207,296.21421 180.711236,293.60244 184.218534,294.583948 C183.976227,294.244496 183.713822,293.206041 183.172262,293.255172 C182.83281,293.286437 182.638519,293.616956 182.283434,293.556659 C181.875869,293.486312 181.507385,293.166959 181.166816,292.951452 C180.314837,292.411009 179.47179,291.854933 178.606411,291.336822 C178.225644,291.110149 177.833711,290.819828 177.390414,290.738315 C176.986198,290.663501 176.570816,290.698117 176.163251,290.647869 C177.162624,290.895758 177.006297,291.867216 177.084461,292.69798 C177.154808,293.446114 177.247487,294.276878 176.702577,294.880968 C176.380991,295.237169 175.824915,295.325382 175.545761,295.687166 C175.307921,295.994236 175.223058,296.409618 175.093531,296.766936 C174.697131,297.861222 173.66091,298.180574 172.740816,298.745583 C173.213146,298.999055 173.771455,299.299426 174.326414,299.597563 C173.561531,301.844198 171.579534,303.088111 169.423344,302.667146 C168.724341,302.530918 168.375956,301.856481 167.838863,301.465665 C167.337501,301.099414 166.755743,301.082665 166.177335,301.270257 C164.909974,301.682289 165.027219,300.361329 165.352155,299.560714 C163.929583,300.518773 163.896085,301.729187 163.911717,302.814539 C163.921767,303.513542 164.202038,304.206962 164.890991,304.480534 C165.404636,304.684875 165.806618,304.710557 166.227583,305.125939 C166.523487,305.418493 166.782542,305.724446 167.124227,305.970102 C168.619379,307.045405 170.13798,306.818732 171.73251,306.191192 C172.472828,305.899755 172.975306,306.221341 173.260044,306.93821 C173.496767,307.534484 174.024927,307.980015 174.559787,308.303834 C175.64514,308.960405 177.186073,309.39477 178.433335,308.982738 C178.997227,308.796262 179.62365,308.128525 180.213224,308.620953 C180.85528,309.155813 181.129968,310.021192 181.815571,310.557169 C182.550306,311.132227 183.299557,311.221557 184.190618,311.327636 C184.839373,311.404682 185.045948,311.866962 185.060464,312.466586 L192.314015,312.839536 L192.801977,309.249609 C193.706437,309.620327 194.549484,310.122805 195.455061,310.490172 C196.348356,310.853073 197.228251,310.91002 198.182959,310.892155 C200.109125,310.85419 201.935913,310.448857 203.800665,310.014493 C204.687259,309.807918 205.59507,309.716356 206.477198,309.997743 C207.292329,310.256799 208.040464,310.541536 208.913659,310.513621 C210.572953,310.46114 211.604708,309.462883 212.686711,308.341799 C213.331,307.672945 214.1037,307.574682 214.937813,307.285478 C215.603318,307.054338 216.245373,306.741685 216.803682,306.306204 C217.379857,305.857324 217.846603,305.284499 218.187172,304.639093 C218.47191,304.100883 218.656152,303.552624 219.179845,303.188606 C219.833067,302.735259 220.629216,302.823472 221.359484,302.599032 C222.022755,302.395808 222.635778,302.02844 223.125974,301.534895 C224.331921,300.321131 224.594327,298.378216 225.075589,296.803784 C234.567959,298.638388 244.094945,300.370262 253.494636,302.64593 C258.613213,303.885376 263.414671,305.86849 268.411536,307.48312 C273.380487,309.0877 278.298073,310.869822 283.353003,312.193015 C287.490073,313.276134 291.038685,313.957271 294.987047,314.606026 C270.628023,354.766312 233.54402,380.418379 192.000245,380.418379 L192.000245,380.418379 Z M177.229621,264.72893 C178.549464,263.922732 179.910621,263.091968 181.271778,262.261204 C181.392373,262.445446 181.511851,262.629688 181.632446,262.812813 C181.106519,263.175714 180.581708,263.538615 180.056898,263.901516 C179.660499,264.175087 179.78221,264.690965 179.548837,265.116397 C179.114472,265.911429 178.153064,265.835499 177.403813,265.607708 C177.789047,265.414534 178.045869,265.285006 178.4847,265.066149 C177.906292,264.910939 177.481977,264.797044 177.229621,264.72893 L177.229621,264.72893 Z" id="Fill-20" sketch:type="MSShapeGroup"></path>
                <path d="M186.610329,313.769679 L186.67956,360.032283 C186.67956,363.642309 189.202,366.568965 192.292799,366.568965 C195.403697,366.568965 197.909388,363.642309 197.909388,360.032283 L197.909388,313.21137 L192.932621,314.141513 L186.610329,313.769679" id="Fill-21" sketch:type="MSShapeGroup"></path>
                <path d="M177.229621,264.72893 C177.481977,264.797044 178.549464,263.922732 177.229621,264.72893" id="Fill-22" sketch:type="MSShapeGroup"></path>
            </g>
        </g>
    </g>
</svg>