<?xml version="1.0" encoding="UTF-8" standalone="no"?>
<svg width="32px" height="32px" viewBox="0 0 32 32" version="1.1" xmlns="http://www.w3.org/2000/svg" xmlns:xlink="http://www.w3.org/1999/xlink" xmlns:sketch="http://www.bohemiancoding.com/sketch/ns">
    <!-- Generator: Sketch 3.1 (8751) - http://www.bohemiancoding.com/sketch -->
    <title>Artboard 2</title>
    <desc>Created with Sketch.</desc>
    <defs></defs>
    <g id="Page-1" stroke="none" stroke-width="1" fill="none" fill-rule="evenodd" sketch:type="MSPage">
        <g id="Artboard-2" sketch:type="MSArtboardGroup" stroke="#EAEAEA">
            <path d="M31.767,15.748948 C31.767,17.333948 30.169,18.647948 29.705,20.077948 C29.223,21.559948 29.727,23.558948 28.829,24.791948 C27.923,26.037948 25.86,26.171948 24.614,27.078948 C23.38,27.976948 22.621,29.901948 21.139,30.382948 C19.708,30.847948 17.969,29.751948 16.384,29.751948 C14.799,29.751948 13.059,30.847948 11.628,30.382948 C10.146,29.901948 9.386,27.976948 8.153,27.078948 C6.907,26.171948 4.844,26.037948 3.937,24.791948 C3.039,23.557948 3.544,21.559948 3.062,20.077948 C2.598,18.646948 1,17.333948 1,15.748948 C1,14.163948 2.598,12.850948 3.062,11.419948 C3.544,9.93794798 3.04,7.93994798 3.937,6.70594798 C4.844,5.45994798 6.907,5.32594798 8.153,4.41894798 C9.387,3.52094798 10.146,1.59594798 11.629,1.11494798 C13.059,0.649947985 14.799,1.74594798 16.384,1.74594798 C17.969,1.74594798 19.708,0.649947985 21.139,1.11494798 C22.621,1.59594798 23.381,3.52094798 24.614,4.41894798 C25.86,5.32594798 27.923,5.45994798 28.83,6.70594798 C29.728,7.93994798 29.223,9.93794798 29.705,11.419948 C30.169,12.850948 31.767,14.163948 31.767,15.748948" id="Imported-Layers" sketch:type="MSShapeGroup"></path>
        </g>
    </g>
</svg>